<?xml version="1.0" encoding="UTF-8"?>
<svg xmlns="http://www.w3.org/2000/svg" version="1.1" viewBox="0 0 135 135">
  <defs>
    <style>
      .cls-1212333 {
        fill: #63557f;
      }
    </style>
  </defs>
  <!-- Generator: Adobe Illustrator 28.7.5, SVG Export Plug-In . SVG Version: 1.2.0 Build 176)  -->
  <g>
    <g id="Layer_1">
      <path class="cls-1212333" d="M85.95,40.525c-1.31-.05-2.63-.1-3.95-.13v-2.59c0-1.38-1.12-2.5-2.5-2.5s-2.5,1.12-2.5,2.5v2.46c-6.24-.11-12.59-.1-19,.03v-2.49c0-1.38-1.12-2.5-2.5-2.5s-2.5,1.12-2.5,2.5v2.62c-1.3.03-2.6.08-3.91.13-6.68.25-11.91,5.69-11.91,12.38v34.03c0,6.7,5.24,12.15,11.93,12.39,6.3.23,12.58.34,18.8.34,6.08,0,12.09-.11,18.01-.33,6.67-.24,11.9-5.68,11.9-12.38v-34.07c0-6.69-5.21-12.13-11.87-12.39ZM42.35,52.935c0-3.9,3.05-7.08,6.94-7.23,1.24-.05,2.47-.09,3.71-.13v2.15c0,1.39,1.12,2.5,2.5,2.5s2.5-1.11,2.5-2.5v-2.26c3.36-.08,6.71-.11,10.03-.11,3.01,0,6,.03,8.97.08v2.29c0,1.39,1.12,2.5,2.5,2.5s2.5-1.11,2.5-2.5v-2.16c1.26.03,2.51.07,3.75.12,3.87.15,6.91,3.33,6.91,7.23v1.92h-50.31v-1.9ZM92.66,86.985c0,1.96-.76,3.72-2.01,5.02-1.25,1.3-2.98,2.13-4.92,2.2-11.84.44-24.1.44-36.44-.01-3.89-.14-6.94-3.32-6.94-7.23v-26.97h50.31v26.99ZM58.004,71.38c0,1.381-1.119,2.5-2.5,2.5s-2.5-1.119-2.5-2.5,1.119-2.5,2.5-2.5,2.5,1.119,2.5,2.5ZM70.004,71.38c0,1.381-1.119,2.5-2.5,2.5s-2.5-1.119-2.5-2.5,1.119-2.5,2.5-2.5,2.5,1.119,2.5,2.5ZM82.004,71.38c0,1.381-1.119,2.5-2.5,2.5s-2.5-1.119-2.5-2.5,1.119-2.5,2.5-2.5,2.5,1.119,2.5,2.5ZM58.004,83.38c0,1.381-1.119,2.5-2.5,2.5s-2.5-1.119-2.5-2.5,1.119-2.5,2.5-2.5,2.5,1.119,2.5,2.5ZM70.004,83.38c0,1.381-1.119,2.5-2.5,2.5s-2.5-1.119-2.5-2.5,1.119-2.5,2.5-2.5,2.5,1.119,2.5,2.5ZM82.004,83.38c0,1.381-1.119,2.5-2.5,2.5s-2.5-1.119-2.5-2.5,1.119-2.5,2.5-2.5,2.5,1.119,2.5,2.5Z"/>
    </g>
  </g>
</svg>