<?xml version="1.0" encoding="UTF-8"?>
<svg id="calendar" xmlns="http://www.w3.org/2000/svg" version="1.1" viewBox="0 0 135 135">
  <defs>
    <style>
      .cls-1 {
        fill: #aadaeb;
        stroke-width: 0px;
      }
    </style>
  </defs>
  <path class="cls-1" d="M100.01,65.488c-.483,1.014-1.177,1.761-2.383,1.813-1.555.065-2.726-1.037-2.729-2.599-.01-4.63,0-9.26-.007-13.889,0-1.748-.496-3.283-1.907-4.434-.985-.802-2.136-1.082-3.358-1.135-.822-.036-1.65.007-2.475-.013-.417-.01-.561.157-.548.561.02.633.01,1.268,0,1.904-.02,1.516-1.118,2.618-2.595,2.612-1.444-.007-2.537-1.102-2.563-2.582-.01-.655-.016-1.311,0-1.966.01-.378-.134-.525-.518-.525-3.466.01-6.935.01-10.401,0-.424,0-.554.166-.544.567.02.675.016,1.353,0,2.028-.036,1.412-1.17,2.488-2.599,2.481-1.389-.007-2.514-1.082-2.553-2.462-.02-.698-.02-1.395,0-2.093.01-.385-.147-.522-.525-.522-3.423.007-6.85.01-10.274,0-.427,0-.548.179-.538.574.02.675.016,1.353,0,2.028-.039,1.412-1.177,2.484-2.605,2.475-1.389-.01-2.507-1.086-2.546-2.468-.02-.675-.02-1.353,0-2.028.01-.388-.095-.59-.531-.58-1.161.026-2.321-.036-3.482.124-1.982.274-3.828,2.188-4.046,4.18-.082.76-.108,1.516-.108,2.276v37.423c0,1.767.47,3.332,1.904,4.499,1.076.877,2.338,1.141,3.675,1.141,6.257.01,12.517,0,18.774.007,1.686,0,2.837,1.272,2.651,2.921-.127,1.105-.851,1.751-1.803,2.194h-21.568c-.059-.023-.117-.055-.179-.065-4.884-.714-8.673-5.142-8.643-10.336.075-13.022.026-26.044.026-39.07,0-.655.029-1.304.124-1.956.6-4.124,4.245-7.77,8.356-8.376,1.33-.196,2.657-.091,3.988-.121.851-.02.851-.007.854-.884,0-.551-.007-1.099.003-1.65.029-1.461,1.148-2.55,2.602-2.543,1.415.007,2.524,1.099,2.553,2.527.013.675.016,1.353,0,2.028-.01.385.147.518.525.518,3.423-.007,6.85-.01,10.274,0,.43,0,.548-.179.538-.574-.02-.655-.013-1.311,0-1.966.029-1.431,1.128-2.524,2.543-2.533,1.454-.01,2.582,1.076,2.612,2.53.013.655.016,1.311,0,1.966-.01.385.095.58.531.58,3.466-.01,6.935-.01,10.401,0,.434,0,.544-.186.535-.577-.016-.675-.016-1.353,0-2.028.039-1.386,1.157-2.462,2.546-2.471,1.428-.01,2.566,1.063,2.608,2.471.02.655.036,1.311,0,1.966-.029.518.179.659.665.642.929-.029,1.862-.013,2.791-.003,2.543.026,4.747.929,6.632,2.608,1.858,1.653,2.899,3.759,3.326,6.188v16.618l-.007-.003ZM82.883,99.997c-1.839-.313-3.635-.766-5.288-1.666-4.636-2.52-7.476-6.371-8.174-11.604-1.082-8.128,4.043-15.344,12.034-17.163,7.835-1.783,16.12,3.287,18.082,11.079.186.734.32,1.483.476,2.227v3.554c-.036.163-.075.329-.104.492-.923,5.272-3.749,9.142-8.52,11.584-1.562.799-3.241,1.193-4.949,1.497h-3.557ZM74.438,84.666c.143,5.83,4.64,10.205,10.254,10.173,5.748-.033,10.15-4.525,10.16-10.182.007-5.706-4.46-10.208-10.199-10.205-5.768.003-10.111,4.535-10.215,10.212v.003ZM48.332,61.641c.013-1.435,1.154-2.546,2.605-2.537,1.464.007,2.576,1.164,2.553,2.651-.023,1.428-1.174,2.524-2.634,2.504-1.431-.016-2.533-1.164-2.52-2.621l-.003.003ZM61.908,64.262c-1.435-.013-2.546-1.151-2.54-2.602.007-1.464,1.161-2.576,2.651-2.553,1.428.023,2.524,1.174,2.507,2.634-.016,1.431-1.164,2.533-2.618,2.524v-.003ZM75.566,61.723c-.013,1.435-1.151,2.546-2.602,2.54-1.464-.007-2.579-1.161-2.556-2.651.023-1.428,1.174-2.524,2.634-2.507,1.431.016,2.537,1.164,2.524,2.618ZM84.073,59.104c1.431.016,2.54,1.157,2.53,2.612-.01,1.464-1.167,2.572-2.661,2.546-1.425-.026-2.517-1.18-2.497-2.644.02-1.428,1.17-2.53,2.628-2.514h0ZM53.49,72.772c-.016,1.431-1.161,2.54-2.615,2.527-1.461-.01-2.569-1.17-2.543-2.661.026-1.425,1.184-2.517,2.644-2.497,1.428.02,2.527,1.17,2.511,2.628l.003.003ZM64.53,72.762c-.013,1.435-1.151,2.546-2.602,2.54-1.464-.007-2.576-1.161-2.553-2.651.023-1.428,1.174-2.524,2.634-2.507,1.431.016,2.537,1.164,2.524,2.618h-.003ZM50.862,86.339c-1.431-.016-2.54-1.161-2.53-2.612.01-1.464,1.17-2.569,2.661-2.543,1.425.026,2.517,1.18,2.497,2.644-.02,1.428-1.17,2.527-2.628,2.514v-.003ZM61.905,86.339c-1.435-.013-2.543-1.154-2.533-2.608.01-1.464,1.164-2.576,2.654-2.55,1.428.023,2.52,1.177,2.504,2.638-.02,1.431-1.167,2.533-2.621,2.517l-.003.003ZM82.081,82.032c0-.887-.016-1.774,0-2.661.029-1.418,1.151-2.504,2.566-2.507,1.422,0,2.55,1.076,2.586,2.488.016.675.033,1.353,0,2.025-.026.515.14.737.678.691.571-.046,1.131,0,1.66.293,1.034.571,1.578,1.774,1.291,2.908-.284,1.128-1.272,1.933-2.436,1.95-1.288.02-2.576.023-3.864,0-1.36-.023-2.445-1.109-2.475-2.465-.023-.906-.003-1.816-.003-2.722h-.003Z"/>
</svg>