<?xml version="1.0" encoding="UTF-8"?>
<svg id="Layer_1" data-name="Layer 1" xmlns="http://www.w3.org/2000/svg" viewBox="0 0 20.83 14.43">
  <defs>
    <style>
      .cls-1 {
        fill: #fff;
      }
    </style>
  </defs>
  <path class="cls-1" d="M13.74,8.9c-.41,.24-.65,.35-1.3,.55-.02,0-.04,.02-.05,.03-.15,.16-.31,.3-.49,.42-.06,.04-.11,.1-.13,.17-.02,.06-.03,.14,0,.2,.08,.19,.24,.32,.46,.32,.34,0,1.39-.39,2.28-1.02,.91,.65,1.96,1.02,2.28,1.02s.51-.27,.51-.57c0-.33-.21-.42-.4-.48-.89-.28-1.13-.36-1.62-.65,.58-.67,.86-1.36,1.07-2.21h.49c.39,0,.51-.19,.51-.52,0-.36-.24-.46-.51-.46h-1.82v-.28c0-.35-.14-.49-.56-.49-.45,0-.48,.29-.48,.49v.28h-.53c-.06,0-.1,.04-.11,.1-.04,.69-.11,1.38-.24,2.08,0,.02,0,.05,0,.07,.16,.33,.36,.64,.63,.94Zm1.55-2.21c-.23,.85-.5,1.29-.78,1.59-.42-.46-.62-1-.78-1.59h1.56Z"/>
  <path class="cls-1" d="M6.33,3.76c-.05,0-.1,.04-.15,.17l-.49,1.38h1.28l-.5-1.38c-.06-.17-.11-.17-.14-.17Z"/>
  <path class="cls-1" d="M20.62,4.88c-.11-.86-.82-1.55-1.69-1.65-1.75-.19-3.5-.26-5.24-.21-.22,0-.38,.19-.36,.41,0,.08,.01,.15,.01,.23,.01,.2,.18,.36,.39,.36,1.7-.04,3.4,.02,5.1,.21,.41,.05,.76,.38,.81,.79,.26,1.94,.26,3.9,0,5.82,0,0,0,0,0,0-.05,.4-.4,.74-.81,.79-.37,.04-.74,.08-1.11,.1-.26,.01-.47,.23-.47,.5v1.04l-1.83-1.32c-.08-.06-.19-.09-.29-.09h0c-1.6,.03-3.22-.05-4.83-.24-.4-.04-.73-.37-.82-.81,0,0,0,0,0,0-.04-.19-.21-.33-.41-.31-.08,0-.16,.02-.24,.02-.22,.02-.38,.22-.34,.44,0,.02,0,.03,0,.05,.18,.86,.85,1.51,1.68,1.6,1.59,.18,3.2,.26,4.79,.24l1.98,1.43c.14,.1,.31,.15,.47,.15,.13,0,.26-.03,.38-.09,.27-.14,.44-.42,.44-.72v-.93c.23-.02,.46-.04,.69-.07,.87-.1,1.58-.79,1.69-1.65,.27-2.01,.27-4.06,0-6.08Z"/>
  <path class="cls-1" d="M12.33,8c.43-2.14,.43-4.22,0-6.21-.18-.84-.86-1.46-1.68-1.55C7.77-.08,4.82-.08,1.9,.24,1.02,.34,.31,1.02,.21,1.88-.07,3.91-.07,5.96,.21,7.96c.1,.87,.82,1.56,1.69,1.65,.23,.03,.46,.05,.69,.07v.93c0,.3,.17,.58,.45,.72,.12,.07,.25,.1,.38,.1,.16,0,.33-.06,.47-.16l1.98-1.42c1.59,.02,3.2-.06,4.79-.25,.83-.09,1.5-.74,1.68-1.6Zm-4.37-.66c-.22,0-.34-.19-.4-.36l-.24-.69h-1.97l-.24,.69c-.07,.18-.18,.36-.42,.36-.26,0-.7-.18-.7-.48,0-.04,0-.12,.05-.27l1.31-3.65c.17-.48,.45-.75,.99-.75,.38,0,.78,.1,1.01,.75l1.31,3.65s.05,.14,.05,.24c0,.39-.53,.51-.72,.51Z"/>
</svg>