<?xml version="1.0" encoding="UTF-8"?>
<svg id="events" xmlns="http://www.w3.org/2000/svg" version="1.1" viewBox="35 39 65 70">
  <path d="M50.197,43.669c.054-.263-.024-.537-.211-.731l-1.514-1.579c-.334-.349-.442-.859-.278-1.313.094-.257.265-.472.483-.62.168-.113.363-.187.572-.211l2.174-.241c.267-.03.503-.189.63-.426l1.034-1.928c.1-.185.241-.339.408-.452.218-.148.481-.226.755-.218.484.016.916.306,1.116.747l.901,1.993c.111.245.335.42.6.467l2.152.387c.477.086.863.434.997.899.134.465-.008.966-.366,1.292l-1.617,1.473c-.199.181-.296.449-.259.715l.297,2.167c.066.479-.146.955-.547,1.226-.4.271-.92.291-1.341.051l-1.902-1.083c-.233-.133-.518-.143-.76-.026l-1.969.952c-.436.211-.954.155-1.335-.142-.382-.298-.561-.786-.463-1.261l.442-2.142Z"/>
  <path d="M39.46,43.107c.874-1.029,2.414-1.152,3.442-.281,3.197,2.715,4.679,5.856,4.405,9.333-.101,1.279-1.17,2.25-2.432,2.25-.065,0-.13-.002-.195-.008-1.344-.106-2.348-1.283-2.242-2.627.146-1.851-.736-3.561-2.697-5.226-1.028-.873-1.154-2.414-.281-3.442Z"/>
  <path d="M75.871,87.995c-.054.031-.108.06-.163.085.055-.027.109-.055.163-.085Z"/>
  <g>
    <path d="M77.247,79.167c-.581-1.587-2.589-2.075-3.841-.939-.017.016-.034.031-.051.046-.739.67-.984,1.729-.613,2.654.067.167.123.311.159.412.348.976-.679,1.872-1.601,1.4-2.506-1.282-6.912-3.971-11.19-8.703-4.037-4.466-6.241-8.851-7.33-11.526-.404-.992.652-1.945,1.598-1.442,2.557,1.36,6.71,4.007,10.752,8.478.012.013.024.027.037.04.923,1.024,2.515,1.064,3.49.09.011-.012.023-.023.035-.035.914-.914.952-2.384.086-3.344-.008-.009-.016-.018-.024-.027-5.235-5.791-15.385-14.432-20.226-10.082-.346.31-.732.761-1.031,1.39-.054.094-.103.203-.148.33l-12.036,33.932c-.688,1.953-.219,4.087,1.227,5.57,1.039,1.067,2.427,1.638,3.858,1.638.559,0,1.125-.087,1.679-.266l32.488-10.314.847-.269c.087-.028.172-.062.257-.101.013-.006.027-.012.04-.019.055-.027.109-.055.163-.085h0c.296-.163.577-.362.842-.6.647-.581,1.438-1.655,1.532-3.475.063-1.212-.333-2.934-.998-4.753ZM49.199,67.133c1.654,3.18,4.163,6.723,7.289,10.18,2.5,2.766,6.121,6.181,9.749,8.521l-2.931.948c-2.609-.099-6.514-1.147-11.05-3.915-2.888-1.762-5.113-3.682-6.674-5.468l3.618-10.265ZM40.572,94.137c-.205.066-.385.021-.536-.132-.15-.155-.19-.336-.118-.539l3.854-10.938c1.696,1.608,3.702,3.143,5.94,4.508,1.663,1.014,3.322,1.863,4.944,2.544l-14.084,4.557Z"/>
    <path d="M75.668,88.1c-.35.171-.72.293-1.105.37l.847-.269c.087-.028.172-.062.257-.101Z"/>
  </g>
  <path d="M87.583,68.902c-.602,1.676-.493,3.341-2.401,4.631-1.873,1.266-4.391,1.006-6.053-.527-.485-.447-.928-.936-1.333-1.453-.458-.584-.727-.44-.98.14-.134.307-.269.612-.405.918-.583,1.312-2.105,1.92-3.431,1.37l-.048-.02c-1.297-.538-1.938-2.049-1.395-3.344.553-1.317,1.206-2.578,2.252-3.608,1.802-1.775,4.813-1.808,6.693-.115.59.531,1.133,1.129,1.768,1.759.595-1.693.476-3.417,2.517-4.668,1.994-1.222,4.558-.843,6.196.826.412.419.802.862,1.197,1.297.321.353.552.354.755-.092.09-.199.269-.582.473-1.016.579-1.235,2.012-1.815,3.286-1.33h0c1.454.553,2.1,2.247,1.388,3.63-.679,1.32-1.518,2.772-2.209,3.409-1.769,1.633-4.511,1.656-6.332.082-.664-.573-1.262-1.231-1.938-1.891Z"/>
  <path d="M62.169,51.982c1.365-.332,2.756-.677,3.042-.745-.556-.695-1.089-1.296-1.553-1.936-1.444-1.993-1.083-5.094.822-6.653,1.144-.937,2.479-1.453,3.858-1.863,1.329-.395,2.746.398,3.138,1.728l.018.062c.41,1.391-.36,2.839-1.729,3.279-.317.102-.634.204-.952.303-.604.19-.776.442-.244.96.471.459.91.951,1.303,1.481,1.346,1.816,1.336,4.348-.122,6.075-.963,1.139-4.078,1.982-6.399,2.488-1.309.285-2.623-.46-3.063-1.725h0c-.515-1.481.358-3.083,1.881-3.454Z"/>
  <path d="M89.713,48.035c-.284.391-.766.588-1.243.506l-2.157-.368c-.265-.045-.536.043-.723.235l-1.526,1.567c-.338.347-.843.472-1.303.323-.461-.149-.796-.547-.866-1.026l-.315-2.164c-.039-.266-.206-.496-.447-.615l-1.962-.967c-.434-.214-.709-.656-.709-1.14,0-.274.088-.534.243-.747.119-.164.277-.3.466-.393l1.961-.969c.241-.119.408-.349.447-.616l.314-2.165c.031-.208.111-.401.229-.564.155-.213.375-.377.635-.462.46-.15.965-.025,1.303.321l1.528,1.566c.188.193.458.28.724.235l2.155-.371c.478-.082.959.113,1.244.505.284.391.322.911.097,1.339l-1.017,1.936c-.125.238-.125.523,0,.761l1.019,1.935c.225.428.188.947-.096,1.339Z"/>
  <path d="M95.466,86.471c-.466.131-.965-.014-1.289-.375l-1.463-1.627c-.18-.2-.447-.299-.713-.264l-2.169.282c-.48.063-.954-.153-1.222-.556-.268-.403-.285-.923-.042-1.342l1.096-1.893c.135-.233.146-.517.031-.76l-.939-1.976c-.207-.437-.149-.954.151-1.334.17-.215.401-.365.654-.436.195-.055.403-.063.609-.019l2.139.457c.263.056.537-.021.732-.206l1.589-1.503c.153-.144.335-.246.53-.3.253-.071.528-.063.785.032.454.168.773.579.823,1.06l.227,2.176c.028.268.186.504.422.633l1.92,1.046c.426.232.682.684.662,1.168-.02.483-.312.914-.755,1.111l-1.999.888c-.246.109-.422.332-.472.597l-.401,2.15c-.089.476-.44.86-.906.991Z"/>
  <path d="M90.304,94.902c-.569,0-1.139-.197-1.602-.6-1.94-1.688-3.762-2.304-5.571-1.881-1.315.306-2.627-.509-2.934-1.823s.509-2.627,1.823-2.934c3.396-.792,6.725.2,9.889,2.953,1.017.885,1.125,2.428.239,3.445-.483.555-1.161.839-1.843.839Z"/>
  <path d="M73.429,62.263c-.759,0-1.508-.353-1.985-1.017-.787-1.095-.537-2.621.558-3.408,4.371-3.142,11.324-4.774,16.18-3.79,1.322.267,2.177,1.555,1.909,2.878-.268,1.322-1.552,2.178-2.878,1.909-3.541-.717-9.087.616-12.361,2.97-.431.31-.93.459-1.423.459Z"/>
</svg>