<?xml version="1.0" encoding="UTF-8"?>
<svg id="exit" xmlns="http://www.w3.org/2000/svg" version="1.1" viewBox="0 0 135 135">
  <defs>
    <style>
      .cls-1 {
        fill: #63567f;
      }

      .cls-1, .cls-2 {
        stroke-width: 0px;
      }

      .cls-2 {
        fill: #fff;
      }
    </style>
  </defs>
  <g>
    <circle class="cls-2" cx="67.5" cy="67.5" r="30"/>
    <path class="cls-1" d="M67.5,99.5c-17.645,0-32-14.354-32-32s14.355-32,32-32,32,14.355,32,32-14.355,32-32,32ZM67.5,39.5c-15.439,0-28,12.561-28,28s12.561,28,28,28,28-12.561,28-28-12.561-28-28-28Z"/>
  </g>
  <path class="cls-1" d="M75.5,79.939c-.716,0-1.385-.28-1.892-.784l-6.106-6.106-6.106,6.106c-.507.507-1.18.784-1.892.784s-1.385-.277-1.892-.784l-1.766-1.769c-.503-.5-.784-1.172-.784-1.888s.277-1.388.784-1.895l6.106-6.103-6.106-6.106c-1.043-1.043-1.043-2.74,0-3.78l1.769-1.773c.5-.503,1.172-.78,1.888-.78s1.385.277,1.892.777l6.11,6.11,6.103-6.106c.503-.503,1.176-.78,1.892-.78s1.388.277,1.892.784l1.766,1.766c1.039,1.043,1.039,2.737.004,3.78l-6.11,6.11,6.103,6.103c.503.507.78,1.18.78,1.892s-.277,1.388-.784,1.888l-1.766,1.766c-.503.507-1.172.784-1.888.784l.004.007Z"/>
</svg>