<?xml version="1.0" encoding="utf-8"?>
<!-- Generator: Adobe Illustrator 27.0.0, SVG Export Plug-In . SVG Version: 6.00 Build 0)  -->
<svg version="1.1" id="Layer_1" xmlns="http://www.w3.org/2000/svg" xmlns:xlink="http://www.w3.org/1999/xlink" x="0px" y="0px"
	 viewBox="0 0 72.357 15.455" style="enable-background:new 0 0 72.357 15.455;" xml:space="preserve">
<style type="text/css">
	.st0{fill:#FFFFFF;}
</style>
<g>
	<g>
		<path class="st0" d="M0,8.113c0.052-0.268,0.032-0.54,0.051-0.81c0.06-0.852,0.153-1.698,0.275-2.543
			c0.163-1.131,0.394-2.248,0.67-3.356C1.09,1.024,1.304,0.845,1.688,0.845c0.798,0,1.597-0.001,2.395,0
			c0.342,0,0.515,0.241,0.424,0.573C4.178,2.615,3.903,3.823,3.723,5.051c-0.119,0.816-0.22,1.632-0.252,2.458
			C3.449,8.094,3.46,8.677,3.451,9.26C3.447,9.486,3.516,9.553,3.689,9.568c0.109,0.009,0.139-0.057,0.176-0.128
			C4.252,8.703,4.639,7.966,5.026,7.23c1.021-1.944,2.04-3.888,3.065-5.83c0.155-0.294,0.395-0.46,0.754-0.455
			c0.804,0.012,1.608,0.007,2.412,0.001c0.164-0.001,0.279,0.065,0.365,0.191c0.065,0.093,0.083,0.189,0.024,0.306
			c-1.237,2.424-2.472,4.85-3.705,7.276c-0.668,1.313-1.332,2.628-1.998,3.942c-0.332,0.654-0.665,1.308-0.997,1.962
			c-0.174,0.345-0.432,0.511-0.839,0.522c-0.989,0.028-1.978,0.022-2.967,0.026c-0.455,0.002-0.646-0.178-0.702-0.627
			c-0.071-0.577-0.166-1.152-0.231-1.73c-0.062-0.544-0.117-1.089-0.157-1.635C0.031,10.898,0.047,10.614,0,10.335
			C0,9.594,0,8.853,0,8.113z M16.225,1.504c0-0.344-0.205-0.554-0.544-0.554c-0.781-0.001-1.562-0.001-2.342,0
			c-0.33,0-0.539,0.21-0.539,0.542c0,4.355,0,8.71,0,13.065c0,0.338,0.211,0.545,0.553,0.546c0.763,0.001,1.527-0.014,2.29,0.007
			c0.322,0.009,0.591-0.252,0.589-0.593c-0.013-2.163-0.007-4.326-0.007-6.489C16.225,5.853,16.225,3.678,16.225,1.504z
			 M23.614,0.738c1.472,0.025,2.809,0.452,3.99,1.341c0.45,0.339,0.493,0.689,0.15,1.128c-0.246,0.314-0.492,0.629-0.744,0.939
			c-0.337,0.415-0.671,0.474-1.125,0.2c-0.709-0.428-1.473-0.673-2.303-0.661c-0.54,0.007-1.046,0.126-1.39,0.607
			c-0.222,0.311-0.234,0.632-0.027,0.953c0.269,0.416,0.687,0.628,1.123,0.808c0.882,0.365,1.77,0.715,2.651,1.082
			c0.736,0.307,1.391,0.733,1.894,1.366c0.504,0.634,0.737,1.364,0.786,2.165c0.063,1.043-0.21,1.982-0.858,2.802
			c-0.77,0.974-1.796,1.537-2.998,1.773c-2.222,0.436-4.257-0.035-6.116-1.312c-0.071-0.049-0.138-0.106-0.199-0.167
			c-0.308-0.309-0.325-0.615-0.049-0.954c0.285-0.35,0.575-0.696,0.863-1.043c0.074-0.089,0.146-0.18,0.23-0.259
			c0.307-0.29,0.607-0.317,0.957-0.081c0.526,0.355,1.084,0.643,1.694,0.824c0.648,0.192,1.301,0.263,1.966,0.092
			c0.352-0.09,0.624-0.296,0.826-0.596c0.206-0.307,0.199-0.685-0.016-0.994c-0.172-0.247-0.391-0.442-0.658-0.579
			c-0.804-0.412-1.654-0.72-2.484-1.075c-0.64-0.274-1.268-0.562-1.814-1.007c-1.926-1.572-1.985-4.368-0.124-6.016
			c0.81-0.718,1.762-1.112,2.824-1.263C22.978,0.764,23.294,0.732,23.614,0.738z M30.639,8.062c0-2.095,0-4.19,0-6.285
			c0-0.46,0.332-0.794,0.79-0.794c0.648,0,1.296-0.001,1.944,0c0.369,0.001,0.716,0.351,0.717,0.723c0,4.236,0,8.472,0,12.709
			c0,0.379-0.35,0.724-0.733,0.725c-0.66,0.001-1.319,0.001-1.979,0c-0.39-0.001-0.739-0.349-0.739-0.74
			C30.639,12.287,30.639,10.174,30.639,8.062z M43.109,15.455c-4.056,0-7.357-3.3-7.357-7.357s3.3-7.357,7.357-7.357
			c4.056,0,7.357,3.3,7.357,7.357S47.165,15.455,43.109,15.455z M43.109,4.072c-2.22,0-4.026,1.806-4.026,4.026
			s1.806,4.026,4.026,4.026s4.026-1.806,4.026-4.026S45.329,4.072,43.109,4.072z M70.127,3.089h-0.273
			c-0.185,0-0.336,0.15-0.336,0.336v0.281c0,0.185,0.15,0.336,0.336,0.336h0.273c0.154,0,0.274-0.039,0.36-0.116
			c0.086-0.078,0.128-0.2,0.128-0.369c0-0.168-0.043-0.288-0.128-0.36C70.401,3.125,70.281,3.089,70.127,3.089z M71.178,6.887
			c-1.55,1.556-4.089,1.582-5.668,0.056c-0.371-0.359-0.658-0.77-0.862-1.21c-0.102-0.219-0.325-0.355-0.567-0.343
			c-0.002,0-0.004,0-0.005,0c-0.254,0.017-0.433,0.257-0.405,0.509c0.05,0.456,0.092,0.913,0.125,1.37
			c0.068,0.964,0.084,1.93,0.054,2.894c-0.028,0.951-0.096,1.9-0.227,2.845c-0.071,0.514-0.152,1.026-0.213,1.54
			c-0.031,0.263-0.343,0.574-0.64,0.565c-0.804-0.028-1.609-0.024-2.412-0.004c-0.406,0.01-0.653-0.188-0.824-0.515
			c-0.371-0.705-0.729-1.417-1.094-2.128c-0.705-1.378-1.417-2.752-2.115-4.134c-0.215-0.422-0.405-0.858-0.586-1.295
			c-0.068-0.163-0.172-0.187-0.312-0.159c-0.138,0.026-0.144,0.138-0.144,0.255c0.001,2.483,0,4.964,0,7.446
			c0.001,0.303-0.213,0.524-0.517,0.525c-0.729,0.001-1.457,0.001-2.187,0c-0.34,0-0.548-0.209-0.548-0.55V8.026
			c0-2.164,0.006-4.327-0.007-6.491c-0.001-0.337,0.263-0.599,0.59-0.593c1.001,0.019,2.002,0.012,3.003,0.004
			c0.343-0.003,0.567,0.18,0.695,0.456c1.245,2.67,2.48,5.344,3.712,8.02c0.047,0.102,0.105,0.119,0.2,0.115
			c0.099-0.004,0.162-0.032,0.19-0.137c0.018-0.069,0.018-0.137,0.019-0.206c0.021-0.705-0.018-1.41-0.075-2.112
			c-0.155-1.935-0.468-3.843-1.03-5.706c-0.081-0.269,0.109-0.53,0.394-0.53c0.851-0.003,1.701-0.001,2.552,0
			c0.209,0,0.487,0.228,0.543,0.443c0.147,0.565,0.281,1.135,0.399,1.706c0.012,0.046,0.024,0.09,0.035,0.134
			c0.066,0.272,0.315,0.461,0.595,0.444c0.261-0.013,0.475-0.202,0.534-0.455c0.166-0.715,0.528-1.394,1.088-1.95
			c1.582-1.572,4.17-1.556,5.733,0.035C72.75,2.783,72.742,5.318,71.178,6.887z M68.338,2.873c0-0.187-0.152-0.339-0.339-0.339
			c-0.187,0-0.339,0.152-0.339,0.339v1.62c0,0.219-0.026,0.38-0.078,0.48c-0.081,0.18-0.255,0.269-0.524,0.269
			c-0.271,0-0.446-0.09-0.525-0.269c-0.053-0.1-0.078-0.261-0.078-0.48v-1.62c0-0.093-0.038-0.178-0.099-0.24
			c-0.062-0.06-0.147-0.099-0.24-0.099c-0.188,0-0.34,0.152-0.34,0.339v1.622c0,0.34,0.053,0.603,0.159,0.792
			c0.197,0.347,0.571,0.52,1.123,0.52s0.926-0.172,1.122-0.52c0.106-0.188,0.157-0.452,0.157-0.792V2.873z M71.287,3.551
			c0-0.349-0.096-0.608-0.286-0.774c-0.19-0.166-0.446-0.25-0.765-0.25h-1.054c-0.185,0-0.336,0.15-0.336,0.336v2.564
			c0,0.185,0.15,0.336,0.336,0.336s0.336-0.15,0.336-0.336V4.935c0-0.185,0.15-0.336,0.336-0.336h0.339
			c0.352,0,0.621-0.079,0.811-0.237C71.192,4.203,71.287,3.934,71.287,3.551z"/>
	</g>
</g>
</svg>
