<?xml version="1.0" encoding="utf-8"?>
<!-- Generator: Adobe Illustrator 28.0.0, SVG Export Plug-In . SVG Version: 6.00 Build 0)  -->
<svg version="1.1" id="Layer_1" xmlns="http://www.w3.org/2000/svg" xmlns:xlink="http://www.w3.org/1999/xlink" x="0px" y="0px"
	 viewBox="0 0 32 32" style="enable-background:new 0 0 32 32;" xml:space="preserve">
<style type="text/css">
	.st0{fill:#FFFFFF;}
	.st1{fill:#89C1DC;}
</style>
<polygon class="st0" points="0,0 0,3.52 0,3.52 0,29.353 0,29.353 0,32 32,32 32,0 "/>
<g>
	<g>
		<path class="st1" d="M32.544,9.174c-0.053-0.068-0.097-0.144-0.152-0.21h0.152v-9.822H-0.68v33.466h33.224V9.174z M29.718,19.559
			c-0.261,1.206-1.136,1.86-2.252,2.242c-0.804,0.251-1.629,0.372-2.473,0.352c-0.543-0.01-1.086,0-1.649-0.01
			c-0.734-0.02-1.247-0.503-1.237-1.196c0-0.674,0.523-1.146,1.267-1.156h1.759c0.322,0,0.603-0.05,0.905-0.121
			c0.704-0.171,1.096-0.653,1.096-1.387c0-0.694-0.422-1.216-1.106-1.377c-0.271-0.07-0.563-0.121-0.844-0.101
			c-1.025,0-2.041,0.01-3.046-0.02c-0.402-0.01-0.533,0.121-0.573,0.533c-0.131,1.347-0.493,2.624-1.518,3.629
			c-0.925,0.895-2.071,1.257-3.307,1.357c-1.206,0.08-2.383,0.02-3.508-0.483c-1.166-0.523-1.94-1.387-2.403-2.564
			c-0.231-0.613-0.342-1.277-0.382-1.92c-0.03-0.322-0.131-0.452-0.462-0.452c-1.518,0.02-3.056,0.02-4.594,0
			c-0.332,0-0.442,0.131-0.432,0.452c0,1.106,0.02,2.192,0,3.277c-0.01,0.824-0.483,1.427-1.186,1.528
			c-0.844,0.111-1.548-0.533-1.548-1.448c-0.02-1.669-0.02-3.318-0.02-4.986c0-1.649,0-3.307,0.02-4.976
			c0-0.915,0.613-1.478,1.518-1.407c0.714,0.06,1.196,0.623,1.216,1.468c0.02,0.885,0,1.779,0,2.664v0.573
			c-0.01,0.271,0.101,0.402,0.392,0.402h4.634c0.372,0,0.432-0.201,0.432-0.503c0-1.106-0.02-2.222,0-3.328
			c0.01-0.633,0.302-1.045,0.854-1.216c0.603-0.191,1.206-0.03,1.558,0.442c0.251,0.332,0.281,0.734,0.281,1.136
			c0,1.88,0,3.77,0.02,5.67c0,0.925,0.151,1.83,0.905,2.503c0.915,0.854,2.001,0.885,3.106,0.533
			c0.975-0.312,1.478-1.076,1.669-2.061c0.06-0.392,0.08-0.764,0.08-1.146v-5.559c0-1.035,0.402-1.538,1.458-1.588
			c1.548-0.09,3.106-0.07,4.675-0.02c0.834,0.05,1.649,0.151,2.423,0.533c2.202,1.116,2.141,4.172,0.402,5.258
			c-0.07,0.04-0.131,0.1-0.201,0.141c-0.201,0.161-0.211,0.251,0.04,0.372c0.352,0.141,0.684,0.302,0.975,0.533
			C29.798,16.986,30.019,18.162,29.718,19.559z"/>
		<path class="st1" d="M23.337,14.534c-0.452,0-0.905-0.005-1.355,0.002c-0.267,0.005-0.408-0.091-0.405-0.38
			c0.007-0.713,0.007-1.425-0.002-2.138c-0.003-0.284,0.124-0.391,0.398-0.39c0.946,0.007,1.894-0.05,2.835,0.02
			c1.126,0.083,1.734,0.677,1.578,1.694c-0.086,0.566-0.469,0.951-1.085,1.09c-0.16,0.036-0.324,0.081-0.485,0.084
			c-0.494,0.012-0.986,0.003-1.479,0.003C23.337,14.524,23.337,14.529,23.337,14.534z"/>
	</g>
</g>
</svg>
