<?xml version="1.0" encoding="UTF-8"?>
<svg id="hamburger" xmlns="http://www.w3.org/2000/svg" version="1.1" viewBox="35 30 65 70">

  <path d="M85.788,83.55h-36.576c-1.519,0-2.75-1.231-2.75-2.75s1.231-2.75,2.75-2.75h36.576c1.519,0,2.75,1.231,2.75,2.75s-1.231,2.75-2.75,2.75Z"/>
  <path d="M85.788,70.25h-36.576c-1.519,0-2.75-1.231-2.75-2.75s1.231-2.75,2.75-2.75h36.576c1.519,0,2.75,1.231,2.75,2.75s-1.231,2.75-2.75,2.75Z"/>
  <path d="M85.788,56.95h-36.576c-1.519,0-2.75-1.231-2.75-2.75s1.231-2.75,2.75-2.75h36.576c1.519,0,2.75,1.231,2.75,2.75s-1.231,2.75-2.75,2.75Z"/>
</svg>
