<?xml version="1.0" encoding="UTF-8"?>
<svg id="hamburger_x" data-name="hamburger x" xmlns="http://www.w3.org/2000/svg" version="1.1" viewBox="0 0 135 135">
  <path d="M54.568,83.182c-.704,0-1.408-.269-1.944-.806-1.074-1.074-1.074-2.815,0-3.889l25.863-25.863c1.073-1.074,2.815-1.074,3.889,0,1.074,1.074,1.074,2.815,0,3.889l-25.863,25.863c-.537.537-1.241.806-1.944.806Z"/>
  <path d="M80.432,83.182c-.704,0-1.408-.269-1.944-.806l-25.863-25.863c-1.074-1.074-1.074-2.815,0-3.889,1.073-1.074,2.815-1.074,3.889,0l25.863,25.863c1.074,1.074,1.074,2.815,0,3.889-.537.537-1.241.806-1.944.806Z"/>
</svg>
