<?xml version="1.0" encoding="UTF-8"?>
<svg id="hamburger" xmlns="http://www.w3.org/2000/svg" version="1.1" viewBox="0 0 135 135">
  <defs>
    <style>
      .cls-1 {
        fill: #aadaeb;
        stroke-width: 0px;
      }
    </style>
  </defs>
  <path class="cls-1" d="M85.788,83.55h-36.576c-1.519,0-2.75-1.231-2.75-2.75s1.231-2.75,2.75-2.75h36.576c1.519,0,2.75,1.231,2.75,2.75s-1.231,2.75-2.75,2.75Z"/>
  <path class="cls-1" d="M85.788,70.25h-36.576c-1.519,0-2.75-1.231-2.75-2.75s1.231-2.75,2.75-2.75h36.576c1.519,0,2.75,1.231,2.75,2.75s-1.231,2.75-2.75,2.75Z"/>
  <path class="cls-1" d="M85.788,56.95h-36.576c-1.519,0-2.75-1.231-2.75-2.75s1.231-2.75,2.75-2.75h36.576c1.519,0,2.75,1.231,2.75,2.75s-1.231,2.75-2.75,2.75Z"/>
</svg>
