<?xml version="1.0" encoding="UTF-8"?>
<svg id="today" xmlns="http://www.w3.org/2000/svg" version="1.1" viewBox="0 0 135 135">
  <defs>
    <style>
      .cls-1 {
        fill: #aadaeb;
        stroke-width: 0px;
      }
    </style>
  </defs>
  <path class="cls-1" d="M89.637,67.867l-20.349-15.406c-.922-.691-2.178-.702-3.11-.031l-21.406,15.406c-.681.492-1.089,1.278-1.089,2.126v23.051c0,1.445,1.173,2.618,2.618,2.618h14.966c1.445,0,2.618-1.173,2.618-2.618v-9.886h6.598v9.886c0,1.445,1.173,2.618,2.618,2.618h14.955c1.456,0,2.618-1.173,2.618-2.618v-23.051c0-.827-.377-1.592-1.037-2.095ZM85.437,90.394h-9.719v-9.886c0-1.445-1.173-2.618-2.618-2.618h-11.834c-1.445,0-2.618,1.173-2.618,2.618v9.886h-9.729v-19.092l18.746-13.5,17.772,13.458v19.134Z"/>
  <path class="cls-1" d="M99.46,66.862c-.513.67-1.288,1.026-2.074,1.026-.555,0-1.121-.178-1.592-.545l-28.79-22.045-27.764,21.857c-1.142.89-2.786.691-3.676-.44-.901-1.142-.702-2.786.429-3.676l29.366-23.114c.943-.733,2.262-.744,3.215-.021l15.594,11.939v-6.378c0-1.456,1.173-2.618,2.618-2.618s2.618,1.163,2.618,2.618v10.389l9.572,7.331c1.142.88,1.362,2.524.482,3.676Z"/>
</svg>