<?xml version="1.0" encoding="UTF-8"?>
<svg id="Layer_1" data-name="Layer 1" xmlns="http://www.w3.org/2000/svg" viewBox="0 0 20.83 14.43">
  <defs>
    <style>
      .cls-1 {
        fill: #fff;
      }
    </style>
  </defs>
  <g>
    <path class="cls-1" d="M7.82,4.4s0-.05,0-.07l-.5-1.39c-.23-.65-.63-.75-1.01-.75-.54,0-.82,.27-.99,.75l-1.31,3.65c-.05,.14-.05,.23-.05,.27,0,.3,.44,.48,.7,.48,.24,0,.35-.18,.42-.36l.24-.69h1.97c.04,.11,.2,.09,.21-.03,.05-.55,.12-1.09,.23-1.62,.02-.08,.04-.16,.07-.24Zm-2.13,.92l.49-1.38c.05-.14,.1-.17,.15-.17,.03,0,.08,0,.14,.17l.5,1.38h-1.28Z"/>
    <path class="cls-1" d="M7.5,9.19c-.01-.2-.19-.36-.39-.35-.47,.01-.94,.02-1.41,.02-.11,0-.21,.03-.3,.09l-1.83,1.32v-1.04c0-.26-.21-.48-.47-.5-.37-.02-.74-.06-1.11-.1-.41-.05-.76-.38-.81-.79,0,0,0,0,0,0-.26-1.93-.26-3.89,0-5.83,.05-.4,.4-.74,.81-.78,1.41-.16,2.82-.23,4.24-.23s2.88,.08,4.31,.24c.4,.04,.73,.35,.82,.77,0,.01,0,.03,0,.04,.04,.19,.21,.33,.4,.31,.08,0,.16-.01,.24-.02,.22-.02,.38-.22,.34-.43,0-.03-.01-.07-.02-.1-.18-.84-.85-1.46-1.68-1.56C7.77-.08,4.82-.08,1.9,.24,1.02,.34,.31,1.03,.21,1.88-.07,3.9-.07,5.95,.21,7.97c.11,.86,.82,1.56,1.7,1.65,.23,.02,.46,.05,.69,.07v.93c0,.31,.17,.58,.44,.72,.12,.06,.25,.09,.38,.09,.17,0,.33-.05,.48-.15l1.97-1.43c.43,0,.87,0,1.3-.02,.22,0,.38-.19,.36-.41,0-.08-.01-.16-.02-.24Z"/>
  </g>
  <g>
    <path class="cls-1" d="M14.5,8.28c.29-.3,.56-.75,.78-1.59h-1.56c.16,.6,.36,1.13,.78,1.59Z"/>
    <path class="cls-1" d="M20.62,4.88c-.1-.86-.82-1.55-1.69-1.65-2.92-.32-5.87-.32-8.76,0-.83,.1-1.51,.72-1.68,1.56-.42,1.98-.42,4.07,0,6.2,.17,.87,.85,1.5,1.68,1.6,1.59,.18,3.2,.26,4.79,.24l1.98,1.43c.14,.1,.3,.15,.47,.15,.13,0,.26-.03,.38-.09,.28-.14,.45-.42,.45-.73v-.92c.23-.02,.46-.05,.69-.07,.88-.1,1.58-.8,1.69-1.66,.28-2.01,.28-4.06,0-6.08Zm-3.73,4.67c.2,.06,.4,.15,.4,.48,0,.3-.2,.57-.51,.57s-1.37-.37-2.28-1.02c-.89,.63-1.94,1.02-2.28,1.02-.3,0-.51-.26-.51-.57s.18-.41,.4-.48c.9-.27,1.14-.38,1.62-.65-.58-.67-.86-1.35-1.07-2.21h-.51c-.29,0-.51-.11-.51-.45s.11-.52,.51-.52h1.82v-.28c0-.2,.04-.49,.48-.49,.41,0,.56,.14,.56,.49v.28h1.82c.27,0,.51,.1,.51,.46,0,.33-.12,.52-.51,.52h-.49c-.21,.85-.49,1.54-1.07,2.21,.5,.29,.73,.37,1.62,.65Z"/>
  </g>
</svg>
