<?xml version="1.0" encoding="UTF-8"?>
<svg xmlns="http://www.w3.org/2000/svg" version="1.1" viewBox="0 0 135 135">
  <defs>
    <style>
      .cls-1 {
        fill: #ed2188;
        opacity: .85;
      }

      .cls-1, .cls-2, .cls-3, .cls-4 {
        stroke-width: 0px;
      }

      .cls-2 {
        fill: #63567f;
      }

      .cls-3 {
        fill: #aadaeb;
      }

      .cls-4 {
        fill: #fff;
      }

      .cls-5 {
        display: none;
      }
    </style>
  </defs>
  <g id="Layer_1" data-name="Layer 1" class="cls-5">
    <rect class="cls-1" x="0" y="0" width="135" height="135" transform="translate(135 0) rotate(90)"/>
  </g>
  <g id="hamburger" class="cls-5">
    <g>
      <path class="cls-3" d="M85.788,83.55h-36.576c-1.519,0-2.75-1.231-2.75-2.75s1.231-2.75,2.75-2.75h36.576c1.519,0,2.75,1.231,2.75,2.75s-1.231,2.75-2.75,2.75Z"/>
      <path class="cls-3" d="M85.788,70.25h-36.576c-1.519,0-2.75-1.231-2.75-2.75s1.231-2.75,2.75-2.75h36.576c1.519,0,2.75,1.231,2.75,2.75s-1.231,2.75-2.75,2.75Z"/>
      <path class="cls-3" d="M85.788,56.95h-36.576c-1.519,0-2.75-1.231-2.75-2.75s1.231-2.75,2.75-2.75h36.576c1.519,0,2.75,1.231,2.75,2.75s-1.231,2.75-2.75,2.75Z"/>
    </g>
  </g>
  <g id="hamburger_x" data-name="hamburger x" class="cls-5">
    <g>
      <path class="cls-3" d="M54.568,83.182c-.704,0-1.408-.269-1.944-.806-1.074-1.074-1.074-2.815,0-3.889l25.863-25.863c1.073-1.074,2.815-1.074,3.889,0,1.074,1.074,1.074,2.815,0,3.889l-25.863,25.863c-.537.537-1.241.806-1.944.806Z"/>
      <path class="cls-3" d="M80.432,83.182c-.704,0-1.408-.269-1.944-.806l-25.863-25.863c-1.074-1.074-1.074-2.815,0-3.889,1.073-1.074,2.815-1.074,3.889,0l25.863,25.863c1.074,1.074,1.074,2.815,0,3.889-.537.537-1.241.806-1.944.806Z"/>
    </g>
  </g>
  <g id="today" class="cls-5">
    <g>
      <path class="cls-3" d="M89.637,67.867l-20.349-15.406c-.922-.691-2.178-.702-3.11-.031l-21.406,15.406c-.681.492-1.089,1.278-1.089,2.126v23.051c0,1.445,1.173,2.618,2.618,2.618h14.966c1.445,0,2.618-1.173,2.618-2.618v-9.886h6.598v9.886c0,1.445,1.173,2.618,2.618,2.618h14.955c1.456,0,2.618-1.173,2.618-2.618v-23.051c0-.827-.377-1.592-1.037-2.095ZM85.437,90.394h-9.719v-9.886c0-1.445-1.173-2.618-2.618-2.618h-11.834c-1.445,0-2.618,1.173-2.618,2.618v9.886h-9.729v-19.092l18.746-13.5,17.772,13.458v19.134Z"/>
      <path class="cls-3" d="M99.46,66.862c-.513.67-1.288,1.026-2.074,1.026-.555,0-1.121-.178-1.592-.545l-28.79-22.045-27.764,21.857c-1.142.89-2.786.691-3.676-.44-.901-1.142-.702-2.786.429-3.676l29.366-23.114c.943-.733,2.262-.744,3.215-.021l15.594,11.939v-6.378c0-1.456,1.173-2.618,2.618-2.618s2.618,1.163,2.618,2.618v10.389l9.572,7.331c1.142.88,1.362,2.524.482,3.676Z"/>
    </g>
  </g>
  <g id="calendar" class="cls-5">
    <path class="cls-3" d="M100.01,65.488c-.483,1.014-1.177,1.761-2.383,1.813-1.555.065-2.726-1.037-2.729-2.599-.01-4.63,0-9.26-.007-13.889,0-1.748-.496-3.283-1.907-4.434-.985-.802-2.136-1.082-3.358-1.135-.822-.036-1.65.007-2.475-.013-.417-.01-.561.157-.548.561.02.633.01,1.268,0,1.904-.02,1.516-1.118,2.618-2.595,2.612-1.444-.007-2.537-1.102-2.563-2.582-.01-.655-.016-1.311,0-1.966.01-.378-.134-.525-.518-.525-3.466.01-6.935.01-10.401,0-.424,0-.554.166-.544.567.02.675.016,1.353,0,2.028-.036,1.412-1.17,2.488-2.599,2.481-1.389-.007-2.514-1.082-2.553-2.462-.02-.698-.02-1.395,0-2.093.01-.385-.147-.522-.525-.522-3.423.007-6.85.01-10.274,0-.427,0-.548.179-.538.574.02.675.016,1.353,0,2.028-.039,1.412-1.177,2.484-2.605,2.475-1.389-.01-2.507-1.086-2.546-2.468-.02-.675-.02-1.353,0-2.028.01-.388-.095-.59-.531-.58-1.161.026-2.321-.036-3.482.124-1.982.274-3.828,2.188-4.046,4.18-.082.76-.108,1.516-.108,2.276v37.423c0,1.767.47,3.332,1.904,4.499,1.076.877,2.338,1.141,3.675,1.141,6.257.01,12.517,0,18.774.007,1.686,0,2.837,1.272,2.651,2.921-.127,1.105-.851,1.751-1.803,2.194h-21.568c-.059-.023-.117-.055-.179-.065-4.884-.714-8.673-5.142-8.643-10.336.075-13.022.026-26.044.026-39.07,0-.655.029-1.304.124-1.956.6-4.124,4.245-7.77,8.356-8.376,1.33-.196,2.657-.091,3.988-.121.851-.02.851-.007.854-.884,0-.551-.007-1.099.003-1.65.029-1.461,1.148-2.55,2.602-2.543,1.415.007,2.524,1.099,2.553,2.527.013.675.016,1.353,0,2.028-.01.385.147.518.525.518,3.423-.007,6.85-.01,10.274,0,.43,0,.548-.179.538-.574-.02-.655-.013-1.311,0-1.966.029-1.431,1.128-2.524,2.543-2.533,1.454-.01,2.582,1.076,2.612,2.53.013.655.016,1.311,0,1.966-.01.385.095.58.531.58,3.466-.01,6.935-.01,10.401,0,.434,0,.544-.186.535-.577-.016-.675-.016-1.353,0-2.028.039-1.386,1.157-2.462,2.546-2.471,1.428-.01,2.566,1.063,2.608,2.471.02.655.036,1.311,0,1.966-.029.518.179.659.665.642.929-.029,1.862-.013,2.791-.003,2.543.026,4.747.929,6.632,2.608,1.858,1.653,2.899,3.759,3.326,6.188v16.618l-.007-.003ZM82.883,99.997c-1.839-.313-3.635-.766-5.288-1.666-4.636-2.52-7.476-6.371-8.174-11.604-1.082-8.128,4.043-15.344,12.034-17.163,7.835-1.783,16.12,3.287,18.082,11.079.186.734.32,1.483.476,2.227v3.554c-.036.163-.075.329-.104.492-.923,5.272-3.749,9.142-8.52,11.584-1.562.799-3.241,1.193-4.949,1.497h-3.557ZM74.438,84.666c.143,5.83,4.64,10.205,10.254,10.173,5.748-.033,10.15-4.525,10.16-10.182.007-5.706-4.46-10.208-10.199-10.205-5.768.003-10.111,4.535-10.215,10.212v.003ZM48.332,61.641c.013-1.435,1.154-2.546,2.605-2.537,1.464.007,2.576,1.164,2.553,2.651-.023,1.428-1.174,2.524-2.634,2.504-1.431-.016-2.533-1.164-2.52-2.621l-.003.003ZM61.908,64.262c-1.435-.013-2.546-1.151-2.54-2.602.007-1.464,1.161-2.576,2.651-2.553,1.428.023,2.524,1.174,2.507,2.634-.016,1.431-1.164,2.533-2.618,2.524v-.003ZM75.566,61.723c-.013,1.435-1.151,2.546-2.602,2.54-1.464-.007-2.579-1.161-2.556-2.651.023-1.428,1.174-2.524,2.634-2.507,1.431.016,2.537,1.164,2.524,2.618ZM84.073,59.104c1.431.016,2.54,1.157,2.53,2.612-.01,1.464-1.167,2.572-2.661,2.546-1.425-.026-2.517-1.18-2.497-2.644.02-1.428,1.17-2.53,2.628-2.514h0ZM53.49,72.772c-.016,1.431-1.161,2.54-2.615,2.527-1.461-.01-2.569-1.17-2.543-2.661.026-1.425,1.184-2.517,2.644-2.497,1.428.02,2.527,1.17,2.511,2.628l.003.003ZM64.53,72.762c-.013,1.435-1.151,2.546-2.602,2.54-1.464-.007-2.576-1.161-2.553-2.651.023-1.428,1.174-2.524,2.634-2.507,1.431.016,2.537,1.164,2.524,2.618h-.003ZM50.862,86.339c-1.431-.016-2.54-1.161-2.53-2.612.01-1.464,1.17-2.569,2.661-2.543,1.425.026,2.517,1.18,2.497,2.644-.02,1.428-1.17,2.527-2.628,2.514v-.003ZM61.905,86.339c-1.435-.013-2.543-1.154-2.533-2.608.01-1.464,1.164-2.576,2.654-2.55,1.428.023,2.52,1.177,2.504,2.638-.02,1.431-1.167,2.533-2.621,2.517l-.003.003ZM82.081,82.032c0-.887-.016-1.774,0-2.661.029-1.418,1.151-2.504,2.566-2.507,1.422,0,2.55,1.076,2.586,2.488.016.675.033,1.353,0,2.025-.026.515.14.737.678.691.571-.046,1.131,0,1.66.293,1.034.571,1.578,1.774,1.291,2.908-.284,1.128-1.272,1.933-2.436,1.95-1.288.02-2.576.023-3.864,0-1.36-.023-2.445-1.109-2.475-2.465-.023-.906-.003-1.816-.003-2.722h-.003Z"/>
  </g>
  <g id="events" class="cls-5">
    <g>
      <path class="cls-3" d="M50.197,43.669c.054-.263-.024-.537-.211-.731l-1.514-1.579c-.334-.349-.442-.859-.278-1.313.094-.257.265-.472.483-.62.168-.113.363-.187.572-.211l2.174-.241c.267-.03.503-.189.63-.426l1.034-1.928c.1-.185.241-.339.408-.452.218-.148.481-.226.755-.218.484.016.916.306,1.116.747l.901,1.993c.111.245.335.42.6.467l2.152.387c.477.086.863.434.997.899.134.465-.008.966-.366,1.292l-1.617,1.473c-.199.181-.296.449-.259.715l.297,2.167c.066.479-.146.955-.547,1.226-.4.271-.92.291-1.341.051l-1.902-1.083c-.233-.133-.518-.143-.76-.026l-1.969.952c-.436.211-.954.155-1.335-.142-.382-.298-.561-.786-.463-1.261l.442-2.142Z"/>
      <path class="cls-3" d="M39.46,43.107c.874-1.029,2.414-1.152,3.442-.281,3.197,2.715,4.679,5.856,4.405,9.333-.101,1.279-1.17,2.25-2.432,2.25-.065,0-.13-.002-.195-.008-1.344-.106-2.348-1.283-2.242-2.627.146-1.851-.736-3.561-2.697-5.226-1.028-.873-1.154-2.414-.281-3.442Z"/>
      <path class="cls-3" d="M75.871,87.995c-.054.031-.108.06-.163.085.055-.027.109-.055.163-.085Z"/>
      <g>
        <path class="cls-3" d="M77.247,79.167c-.581-1.587-2.589-2.075-3.841-.939-.017.016-.034.031-.051.046-.739.67-.984,1.729-.613,2.654.067.167.123.311.159.412.348.976-.679,1.872-1.601,1.4-2.506-1.282-6.912-3.971-11.19-8.703-4.037-4.466-6.241-8.851-7.33-11.526-.404-.992.652-1.945,1.598-1.442,2.557,1.36,6.71,4.007,10.752,8.478.012.013.024.027.037.04.923,1.024,2.515,1.064,3.49.09.011-.012.023-.023.035-.035.914-.914.952-2.384.086-3.344-.008-.009-.016-.018-.024-.027-5.235-5.791-15.385-14.432-20.226-10.082-.346.31-.732.761-1.031,1.39-.054.094-.103.203-.148.33l-12.036,33.932c-.688,1.953-.219,4.087,1.227,5.57,1.039,1.067,2.427,1.638,3.858,1.638.559,0,1.125-.087,1.679-.266l32.488-10.314.847-.269c.087-.028.172-.062.257-.101.013-.006.027-.012.04-.019.055-.027.109-.055.163-.085h0c.296-.163.577-.362.842-.6.647-.581,1.438-1.655,1.532-3.475.063-1.212-.333-2.934-.998-4.753ZM49.199,67.133c1.654,3.18,4.163,6.723,7.289,10.18,2.5,2.766,6.121,6.181,9.749,8.521l-2.931.948c-2.609-.099-6.514-1.147-11.05-3.915-2.888-1.762-5.113-3.682-6.674-5.468l3.618-10.265ZM40.572,94.137c-.205.066-.385.021-.536-.132-.15-.155-.19-.336-.118-.539l3.854-10.938c1.696,1.608,3.702,3.143,5.94,4.508,1.663,1.014,3.322,1.863,4.944,2.544l-14.084,4.557Z"/>
        <path class="cls-3" d="M75.668,88.1c-.35.171-.72.293-1.105.37l.847-.269c.087-.028.172-.062.257-.101Z"/>
      </g>
      <path class="cls-3" d="M87.583,68.902c-.602,1.676-.493,3.341-2.401,4.631-1.873,1.266-4.391,1.006-6.053-.527-.485-.447-.928-.936-1.333-1.453-.458-.584-.727-.44-.98.14-.134.307-.269.612-.405.918-.583,1.312-2.105,1.92-3.431,1.37l-.048-.02c-1.297-.538-1.938-2.049-1.395-3.344.553-1.317,1.206-2.578,2.252-3.608,1.802-1.775,4.813-1.808,6.693-.115.59.531,1.133,1.129,1.768,1.759.595-1.693.476-3.417,2.517-4.668,1.994-1.222,4.558-.843,6.196.826.412.419.802.862,1.197,1.297.321.353.552.354.755-.092.09-.199.269-.582.473-1.016.579-1.235,2.012-1.815,3.286-1.33h0c1.454.553,2.1,2.247,1.388,3.63-.679,1.32-1.518,2.772-2.209,3.409-1.769,1.633-4.511,1.656-6.332.082-.664-.573-1.262-1.231-1.938-1.891Z"/>
      <path class="cls-3" d="M62.169,51.982c1.365-.332,2.756-.677,3.042-.745-.556-.695-1.089-1.296-1.553-1.936-1.444-1.993-1.083-5.094.822-6.653,1.144-.937,2.479-1.453,3.858-1.863,1.329-.395,2.746.398,3.138,1.728l.018.062c.41,1.391-.36,2.839-1.729,3.279-.317.102-.634.204-.952.303-.604.19-.776.442-.244.96.471.459.91.951,1.303,1.481,1.346,1.816,1.336,4.348-.122,6.075-.963,1.139-4.078,1.982-6.399,2.488-1.309.285-2.623-.46-3.063-1.725h0c-.515-1.481.358-3.083,1.881-3.454Z"/>
      <path class="cls-3" d="M89.713,48.035c-.284.391-.766.588-1.243.506l-2.157-.368c-.265-.045-.536.043-.723.235l-1.526,1.567c-.338.347-.843.472-1.303.323-.461-.149-.796-.547-.866-1.026l-.315-2.164c-.039-.266-.206-.496-.447-.615l-1.962-.967c-.434-.214-.709-.656-.709-1.14,0-.274.088-.534.243-.747.119-.164.277-.3.466-.393l1.961-.969c.241-.119.408-.349.447-.616l.314-2.165c.031-.208.111-.401.229-.564.155-.213.375-.377.635-.462.46-.15.965-.025,1.303.321l1.528,1.566c.188.193.458.28.724.235l2.155-.371c.478-.082.959.113,1.244.505.284.391.322.911.097,1.339l-1.017,1.936c-.125.238-.125.523,0,.761l1.019,1.935c.225.428.188.947-.096,1.339Z"/>
      <path class="cls-3" d="M95.466,86.471c-.466.131-.965-.014-1.289-.375l-1.463-1.627c-.18-.2-.447-.299-.713-.264l-2.169.282c-.48.063-.954-.153-1.222-.556-.268-.403-.285-.923-.042-1.342l1.096-1.893c.135-.233.146-.517.031-.76l-.939-1.976c-.207-.437-.149-.954.151-1.334.17-.215.401-.365.654-.436.195-.055.403-.063.609-.019l2.139.457c.263.056.537-.021.732-.206l1.589-1.503c.153-.144.335-.246.53-.3.253-.071.528-.063.785.032.454.168.773.579.823,1.06l.227,2.176c.028.268.186.504.422.633l1.92,1.046c.426.232.682.684.662,1.168-.02.483-.312.914-.755,1.111l-1.999.888c-.246.109-.422.332-.472.597l-.401,2.15c-.089.476-.44.86-.906.991Z"/>
      <path class="cls-3" d="M90.304,94.902c-.569,0-1.139-.197-1.602-.6-1.94-1.688-3.762-2.304-5.571-1.881-1.315.306-2.627-.509-2.934-1.823s.509-2.627,1.823-2.934c3.396-.792,6.725.2,9.889,2.953,1.017.885,1.125,2.428.239,3.445-.483.555-1.161.839-1.843.839Z"/>
      <path class="cls-3" d="M73.429,62.263c-.759,0-1.508-.353-1.985-1.017-.787-1.095-.537-2.621.558-3.408,4.371-3.142,11.324-4.774,16.18-3.79,1.322.267,2.177,1.555,1.909,2.878-.268,1.322-1.552,2.178-2.878,1.909-3.541-.717-9.087.616-12.361,2.97-.431.31-.93.459-1.423.459Z"/>
    </g>
  </g>
  <g id="students" class="cls-5">
    <path class="cls-3" d="M56.512,71.592c-1.297,0-2.349-1.051-2.349-2.349v-4.675c0-1.297,1.051-2.349,2.349-2.349s2.349,1.051,2.349,2.349v4.675c0,1.297-1.051,2.349-2.349,2.349ZM80.835,69.243v-4.675c0-1.297-1.051-2.349-2.349-2.349s-2.349,1.051-2.349,2.349v4.675c0,1.297,1.051,2.349,2.349,2.349s2.349-1.051,2.349-2.349ZM74.227,78.487c.937-.896.971-2.383.074-3.321-.897-.937-2.383-.971-3.321-.074-2.478,2.371-4.435,2.367-6.979-.017-.947-.887-2.433-.839-3.32.108s-.839,2.433.108,3.32c2.183,2.045,4.465,3.068,6.738,3.068s4.549-1.028,6.699-3.084ZM92.292,93.894c.921.921.911,2.405-.009,3.326-.46.451-1.052.686-1.653.686s-1.203-.235-1.663-.695c-3.476-3.504-7.083-5.712-10.982-6.745-.498,5.345-5.017,9.535-10.484,9.535s-9.986-4.19-10.484-9.535c-3.899,1.033-7.506,3.241-10.982,6.745-.46.46-1.062.695-1.663.695s-1.203-.235-1.653-.686c-.921-.911-.93-2.405-.009-3.326,2.508-2.527,5.158-4.509,7.938-5.947-4.453-2.696-7.431-7.591-7.431-13.162v-3.852c-1.531-.921-2.555-2.602-2.555-4.519s1.024-3.598,2.555-4.519v-11.508c0-8.483,6.905-15.388,15.388-15.388h17.793c8.483,0,15.388,6.905,15.388,15.388v11.518c1.531.911,2.555,2.593,2.555,4.509s-1.024,3.598-2.555,4.509v3.861c0,5.571-2.978,10.465-7.431,13.162,2.781,1.437,5.43,3.42,7.938,5.947ZM47.913,54.944c12.213,1.325,22.255-2.396,28.437-10.578.611-.817,1.682-1.137,2.649-.808.958.338,1.597,1.259,1.569,2.283-.132,5.158,2.001,8.803,6.52,11.076v-6.529c0-5.9-4.791-10.691-10.691-10.691h-17.793c-5.9,0-10.691,4.791-10.691,10.691v4.556ZM73.212,90.662h-11.424c.554,2.649,2.903,4.641,5.712,4.641s5.158-1.992,5.712-4.641ZM87.087,74.785v-12.748c-5.561-2.161-9.169-5.9-10.569-10.851-7.102,6.67-17.023,9.639-28.606,8.474v15.125c0,5.89,4.791,10.691,10.691,10.691h17.793c.178,0,.348,0,.526-.009h.028c5.637-.291,10.137-4.979,10.137-10.681Z"/>
  </g>
  <g id="tests" class="cls-5">
    <path class="cls-3" d="M82.254,40.407h-3.4v-.057c0-2.945-2.405-5.35-5.35-5.35h-17.907c-2.955,0-5.36,2.405-5.36,5.35v.057h-3.39c-5.057,0-9.157,4.1-9.157,9.157v37.888c0,5.057,4.1,9.157,9.157,9.157h8.258c1.307,0,2.367-1.061,2.367-2.367,0-.653-.265-1.25-.691-1.676-.436-.426-1.023-.691-1.676-.691h-8.258c-2.443,0-4.422-1.979-4.422-4.422v-37.888c0-2.443,1.979-4.422,4.422-4.422h3.456c.388,2.566,2.614,4.545,5.294,4.545h17.907c2.67,0,4.896-1.979,5.284-4.545h3.466c2.434,0,4.413,1.979,4.413,4.422v8.059c0,1.307,1.061,2.367,2.367,2.367.653,0,1.25-.265,1.676-.691.426-.436.691-1.023.691-1.676v-8.059c0-5.057-4.091-9.157-9.148-9.157ZM74.12,44.328c0,.341-.275.625-.616.625h-17.907c-.341,0-.625-.284-.625-.625v-3.977c0-.341.284-.616.625-.616h17.907c.341,0,.616.275.616.616v3.977ZM95.285,66.752c-2.841-2.841-7.623-2.67-10.672.369l-20.199,20.208c-.331.322-.549.739-.644,1.184l-1.799,8.636c-.161.777.076,1.581.625,2.15.455.455,1.061.701,1.695.701.142,0,.294-.009.445-.038l8.75-1.686c.464-.085.89-.312,1.222-.653l20.208-20.199c3.04-3.04,3.21-7.831.369-10.672ZM71.876,93.769l-4.545.871.928-4.46,15.502-15.502,3.598,3.608-15.483,15.483ZM91.563,74.072l-.852.862-3.598-3.598.852-.862c1.193-1.203,2.973-1.364,3.968-.369.994.994.833,2.775-.369,3.968ZM77.273,62.881h-25.45c-1.308,0-2.367-1.06-2.367-2.367s1.06-2.367,2.367-2.367h25.45c1.308,0,2.367,1.06,2.367,2.367s-1.06,2.367-2.367,2.367ZM68.947,74.511h-17.124c-1.308,0-2.367-1.06-2.367-2.367s1.06-2.367,2.367-2.367h17.124c1.308,0,2.367,1.06,2.367,2.367s-1.06,2.367-2.367,2.367Z"/>
  </g>
  <g id="tutorials" class="cls-5">
    <path class="cls-3" d="M73.203,77.21c.326.514.326.953-.122,1.291-2.584,1.953-5.234,3.792-8.478,4.503-.512.112-1.04.121-1.548.018-1.157-.234-1.945-1.413-1.738-2.602.207-1.191.654-2.317,1.003-3.469,1.064-3.513,2.154-7.018,3.225-10.529.092-.302.349-.683.037-.926-.281-.218-.636.029-.937.166-.354.162-.699.343-1.051.509-.254.12-.518.207-.805.18-.456-.042-.932-.125-1.112-.596-.182-.477.028-.925.397-1.246,2.219-1.93,4.666-3.416,7.642-3.842.274-.039.554-.038.936-.062.211.018.534.005.836.079,1.205.297,1.694,1.302,1.311,2.616-1.333,4.574-2.664,9.148-3.988,13.724-.093.323-.353.723-.021.983.298.234.626-.09.915-.228.652-.313,1.281-.674,1.935-.98.624-.292,1.234-.115,1.566.408ZM96,67.5c0-15.715-12.785-28.5-28.5-28.5s-28.5,12.785-28.5,28.5,12.785,28.5,28.5,28.5,28.5-12.785,28.5-28.5ZM91,67.5c0,12.958-10.542,23.5-23.5,23.5s-23.5-10.542-23.5-23.5,10.542-23.5,23.5-23.5,23.5,10.542,23.5,23.5ZM67.226,51.37c-1.937,0-3.509,1.535-3.509,3.509s1.572,3.546,3.509,3.546c1.974,0,3.546-1.572,3.546-3.546s-1.608-3.509-3.546-3.509Z"/>
  </g>
  <g id="support" class="cls-5">
    <path class="cls-3" d="M67.5,96c-15.715,0-28.5-12.785-28.5-28.5s12.785-28.5,28.5-28.5,28.5,12.785,28.5,28.5-12.785,28.5-28.5,28.5ZM67.5,44c-12.958,0-23.5,10.542-23.5,23.5s10.542,23.5,23.5,23.5,23.5-10.542,23.5-23.5-10.542-23.5-23.5-23.5ZM67.364,73.764c-2.448,0-2.992-.986-2.992-2.958,0-1.088,0-4.012,2.855-6.154,2.618-1.972,3.604-2.651,3.604-4.011,0-1.428-1.258-2.244-3.128-2.244-3.264,0-3.501,2.209-3.604,3.264-.17,1.359-2.074,1.598-2.992,1.598-.884,0-2.992-.17-2.992-2.278,0-2.516,2.312-7.785,9.859-7.785,5.779,0,8.907,3.57,8.907,7.377,0,2.855-1.258,3.909-4.624,6.697-1.428,1.189-2.142,1.802-2.142,3.604,0,1.02,0,2.89-2.754,2.89ZM70.526,79.102c0,1.836-1.462,3.298-3.298,3.298-1.802,0-3.264-1.462-3.264-3.298s1.462-3.264,3.264-3.264,3.298,1.428,3.298,3.264Z"/>
  </g>
  <g id="notification" class="cls-5">
    <g>
      <path class="cls-2" d="M89.227,86.069c-.238-1.229-.813-2.229-1.754-3.042-1.873-1.625-3.359-3.527-4.399-5.668-.466-.961-1.288-1.536-2.21-1.536-.168,0-.337.02-.495.05-.743.168-1.348.634-1.655,1.268-.327.684-.307,1.506.06,2.249,1.308,2.695,3.082,5.033,5.261,6.956l.149.119c.297.248.367.337.297.525-.079.198-.198.248-.674.248h-43.489c-.337-.02-.456-.069-.515-.238-.059-.149-.02-.218.258-.466.892-.793,1.576-1.476,2.16-2.15,3.537-4.132,5.4-8.868,5.519-14.1.04-1.605.04-3.24.03-4.826-.01-1.011-.01-2.011-.01-3.022.01-.852.05-1.962.297-3.052,1.288-5.747,4.835-9.502,10.533-11.137.476-.139,1.021-.327,1.437-.812.684-.813.773-1.902.228-2.804-.426-.713-1.159-1.12-2.002-1.12-.258,0-.525.04-.793.109-7.025,1.932-11.643,6.441-13.743,13.406-.436,1.457-.654,3.032-.674,4.974-.01,1.011,0,2.011.02,3.022.04,2.358.079,4.786-.258,7.154-.594,4.241-2.576,7.857-5.886,10.751-1.724,1.506-2.358,3.666-1.655,5.638.763,2.111,2.596,3.379,4.915,3.379h5.281c2.031,0,4.053,0,6.104-.01.366,0,.456.069.555.426,1.189,4.36,5.162,7.501,9.661,7.639h.327c4.637,0,8.759-3.082,10.018-7.491.139-.476.277-.575.803-.575,2.081.01,4.162.02,6.242.02,1.774,0,3.537-.01,5.311-.02,1.397-.01,2.735-.674,3.676-1.813.951-1.169,1.348-2.646,1.07-4.053ZM67.171,92.162c-1.11,2.031-2.794,3.062-5.053,3.072-2.16,0-3.835-1.021-4.974-3.022-.069-.119-.109-.198-.139-.258.059,0,.149-.01.277-.01h9.72c.059,0,.178,0,.277.01-.04.079-.089.168-.109.208Z"/>
      <path class="cls-2" d="M94.855,40.281c-3.349-3.409-7.758-5.281-12.415-5.281h-.456c-4.439,0-8.858,1.823-12.148,4.994-3.478,3.349-5.38,7.897-5.38,12.782.01,9.948,7.808,17.746,17.756,17.766h.03c9.799,0,17.776-7.976,17.776-17.766,0-4.677-1.833-9.116-5.162-12.495ZM87.245,64.775c-1.585.654-3.31,1.001-5.073,1.001-3.448-.01-6.698-1.367-9.136-3.825-2.477-2.477-3.825-5.777-3.815-9.294.03-7.114,5.866-12.911,13.02-12.911h.119c7.213.069,12.871,5.767,12.891,12.99.01,3.498-1.318,6.768-3.745,9.195-1.219,1.229-2.675,2.18-4.261,2.844Z"/>
    </g>
  </g>
  <g id="english" class="cls-5">
    <g>
      <path class="cls-2" d="M82.517,75.09c-1.847,1.081-2.928,1.577-5.856,2.477-.09,0-.18.09-.225.135-.676.721-1.396,1.351-2.207,1.892-.27.18-.495.45-.586.766-.09.27-.135.631,0,.901.36.856,1.081,1.441,2.072,1.441,1.532,0,6.261-1.757,10.27-4.595,4.099,2.928,8.829,4.595,10.27,4.595s2.297-1.216,2.297-2.568c0-1.486-.946-1.892-1.802-2.162-4.009-1.261-5.09-1.622-7.297-2.928,2.613-3.018,3.874-6.126,4.82-9.955h2.207c1.757,0,2.297-.856,2.297-2.342,0-1.622-1.081-2.072-2.297-2.072h-8.198v-1.261c0-1.577-.631-2.207-2.523-2.207-2.027,0-2.162,1.306-2.162,2.207v1.261h-2.387c-.27,0-.45.18-.495.45-.18,3.108-.495,6.216-1.081,9.369v.315c.721,1.486,1.622,2.883,2.838,4.234l.045.045ZM89.499,65.135c-1.036,3.829-2.252,5.811-3.514,7.162-1.892-2.072-2.793-4.505-3.514-7.162h7.027Z"/>
      <path class="cls-2" d="M49.139,51.937c-.225,0-.45.18-.676.766l-2.207,6.216h5.766l-2.252-6.216c-.27-.766-.495-.766-.631-.766Z"/>
      <path class="cls-2" d="M113.508,56.982c-.495-3.874-3.694-6.982-7.613-7.432-7.883-.856-15.766-1.171-23.604-.946-.991,0-1.712.856-1.622,1.847,0,.36.045.676.045,1.036.045.901.811,1.622,1.757,1.622,7.658-.18,15.315.09,22.973.946,1.847.225,3.423,1.712,3.649,3.559,1.171,8.739,1.171,17.568,0,26.216h0c-.225,1.802-1.802,3.333-3.649,3.559-1.667.18-3.333.36-5,.45-1.171.045-2.117,1.036-2.117,2.252v4.685l-8.243-5.946c-.36-.27-.856-.405-1.306-.405h0c-7.207.135-14.505-.225-21.757-1.081-1.802-.18-3.288-1.667-3.694-3.649h0c-.18-.856-.946-1.486-1.847-1.396-.36,0-.721.09-1.081.09-.991.09-1.712.991-1.532,1.982v.225c.811,3.874,3.829,6.802,7.568,7.207,7.162.811,14.414,1.171,21.577,1.081l8.919,6.441c.631.45,1.396.676,2.117.676.586,0,1.171-.135,1.712-.405,1.216-.631,1.982-1.892,1.982-3.243v-4.189c1.036-.09,2.072-.18,3.108-.315,3.919-.45,7.117-3.559,7.613-7.432,1.216-9.054,1.216-18.288,0-27.387l.045-.045Z"/>
      <path class="cls-2" d="M76.166,71.036c1.937-9.64,1.937-19.009,0-27.973-.811-3.784-3.874-6.577-7.568-6.982-12.973-1.441-26.261-1.441-39.414,0-3.964.45-7.162,3.514-7.613,7.387-1.261,9.144-1.261,18.378,0,27.387.45,3.919,3.694,7.027,7.613,7.432,1.036.135,2.072.225,3.108.315v4.189c0,1.351.766,2.613,2.027,3.243.541.315,1.126.45,1.712.45.721,0,1.486-.27,2.117-.721l8.919-6.396c7.162.09,14.414-.27,21.577-1.126,3.739-.405,6.757-3.333,7.568-7.207h-.045ZM56.481,68.063c-.991,0-1.532-.856-1.802-1.622l-1.081-3.108h-8.874l-1.081,3.108c-.315.811-.811,1.622-1.892,1.622-1.171,0-3.153-.811-3.153-2.162,0-.18,0-.541.225-1.216l5.901-16.441c.766-2.162,2.027-3.378,4.459-3.378,1.712,0,3.514.45,4.55,3.378l5.901,16.441s.225.631.225,1.081c0,1.757-2.387,2.297-3.243,2.297h-.135Z"/>
    </g>
  </g>
  <g id="japanese">
    <g>
      <g>
        <path class="cls-2" d="M55.793,54.843v-.316l-2.256-6.271c-1.038-2.932-2.842-3.383-4.556-3.383-2.436,0-3.699,1.218-4.466,3.383l-5.91,16.466c-.226.632-.226,1.038-.226,1.218,0,1.353,1.985,2.165,3.158,2.165,1.083,0,1.579-.812,1.895-1.624l1.083-3.113h8.887c.18.496.902.406.947-.135.226-2.481.541-4.917,1.038-7.308.09-.361.18-.722.316-1.083h.09ZM46.184,58.994l2.211-6.225c.226-.632.451-.767.677-.767.135,0,.361,0,.632.767l2.256,6.225h-5.774Z"/>
        <path class="cls-2" d="M54.35,76.452c-.045-.902-.857-1.624-1.759-1.579-2.12.045-4.241.09-6.361.09-.496,0-.947.135-1.353.406l-8.256,5.955v-4.692c0-1.173-.947-2.165-2.12-2.256-1.669-.09-3.338-.271-5.007-.451-1.85-.226-3.429-1.714-3.654-3.564h0c-1.173-8.707-1.173-17.549,0-26.3.226-1.804,1.804-3.338,3.654-3.519,6.361-.722,12.722-1.038,19.128-1.038s12.992.361,19.443,1.083c1.804.18,3.293,1.579,3.699,3.474v.18c.18.857.947,1.489,1.804,1.398.361,0,.722-.045,1.083-.09.992-.09,1.714-.992,1.534-1.94,0-.135-.045-.316-.09-.451-.812-3.789-3.835-6.586-7.579-7.038-12.947-1.489-26.255-1.489-39.428-.045-3.97.451-7.173,3.564-7.624,7.398-1.263,9.113-1.263,18.361,0,27.473.496,3.88,3.699,7.038,7.669,7.444,1.038.09,2.075.226,3.113.316v4.195c0,1.398.767,2.617,1.985,3.248.541.271,1.128.406,1.714.406.767,0,1.489-.226,2.165-.677l8.887-6.451c1.94,0,3.925,0,5.865-.09.992,0,1.714-.857,1.624-1.85,0-.361-.045-.722-.09-1.083l-.045.045Z"/>
      </g>
      <g>
        <path class="cls-2" d="M85.928,72.347c1.308-1.353,2.526-3.383,3.519-7.173h-7.038c.722,2.707,1.624,5.098,3.519,7.173Z"/>
        <path class="cls-2" d="M113.537,57.009c-.451-3.88-3.699-6.992-7.624-7.444-13.173-1.444-26.481-1.444-39.518,0-3.744.451-6.812,3.248-7.579,7.038-1.895,8.932-1.895,18.361,0,27.97.767,3.925,3.835,6.767,7.579,7.218,7.173.812,14.436,1.173,21.609,1.083l8.932,6.451c.632.451,1.353.677,2.12.677.586,0,1.173-.135,1.714-.406,1.263-.632,2.03-1.895,2.03-3.293v-4.15c1.038-.09,2.075-.226,3.113-.316,3.97-.451,7.128-3.609,7.624-7.489,1.263-9.068,1.263-18.316,0-27.428v.09ZM96.71,78.076c.902.271,1.804.677,1.804,2.165,0,1.353-.902,2.571-2.301,2.571s-6.18-1.669-10.286-4.601c-4.015,2.842-8.752,4.601-10.286,4.601-1.353,0-2.301-1.173-2.301-2.571s.812-1.85,1.804-2.165c4.06-1.218,5.143-1.714,7.308-2.932-2.617-3.023-3.88-6.09-4.827-9.97h-2.301c-1.308,0-2.301-.496-2.301-2.03s.496-2.346,2.301-2.346h8.21v-1.263c0-.902.18-2.211,2.165-2.211,1.85,0,2.526.632,2.526,2.211v1.263h8.21c1.218,0,2.301.451,2.301,2.075,0,1.489-.541,2.346-2.301,2.346h-2.211c-.947,3.835-2.211,6.947-4.827,9.97,2.256,1.308,3.293,1.669,7.308,2.932v-.045Z"/>
      </g>
    </g>
  </g>
  <g id="settings" class="cls-5">
    <path class="cls-2" d="M67.459,100c-1.447,0-2.886-.088-4.304-.265-3.641-.452-6.171-3.204-6.297-6.847-.083-2.395-1.782-4.124-3.986-4.049-.616.013-1.198.172-1.781.484-3.417,1.834-7.005,1.06-9.368-2.023-1.711-2.23-3.129-4.68-4.213-7.279-.384-.919-.751-1.895-.697-2.876.062-2.765,1.243-4.882,3.51-6.292,1.151-.716,1.751-1.629,1.887-2.873.179-1.638-.389-2.814-1.843-3.811l-.228-.153c-.442-.294-.993-.66-1.492-1.223-1.805-2.03-2.317-4.508-1.44-6.975,1.11-3.123,2.81-6.074,5.053-8.772,2.057-2.475,5.653-3.06,8.736-1.426,1.122.594,2.814,1.001,4.502-.429.881-.746,1.312-1.732,1.357-3.103.12-3.569,2.698-6.371,6.27-6.815,2.917-.362,5.857-.365,8.742-.007,3.601.446,6.132,3.162,6.296,6.758.114,2.482,1.674,4.138,3.889,4.138.019,0,.038,0,.057,0,.629-.008,1.226-.167,1.823-.487,3.452-1.851,6.938-1.116,9.323,1.964,1.805,2.33,3.272,4.885,4.36,7.594,1.403,3.495.286,6.908-2.917,8.908-1.239.773-1.948,1.994-1.948,3.352,0,1.368.718,2.6,1.969,3.382,3.139,1.959,4.281,5.434,2.913,8.854-1.123,2.801-2.643,5.427-4.52,7.806-2.276,2.884-5.772,3.584-9.132,1.825-1.479-.776-2.745-.722-4.105.175-1.121.741-1.649,1.805-1.714,3.451-.139,3.532-2.717,6.305-6.268,6.742-1.481.182-2.963.273-4.435.273ZM52.963,84.128c4.673,0,8.435,3.74,8.603,8.598.046,1.318.836,2.168,2.171,2.334,2.478.308,5.029.305,7.582-.01,1.27-.156,2.088-1.019,2.137-2.252.156-3.961,2.166-6.099,3.824-7.195,2.804-1.853,5.876-1.997,8.889-.418,1.332.697,2.393.511,3.246-.57,1.597-2.025,2.891-4.258,3.845-6.639.53-1.325.191-2.341-1.034-3.106-2.622-1.636-4.186-4.394-4.186-7.378s1.557-5.721,4.165-7.348c1.258-.786,1.588-1.788,1.039-3.156-.925-2.304-2.173-4.479-3.712-6.465-.959-1.239-1.969-1.449-3.374-.695-1.262.675-2.602,1.026-3.986,1.045-.04,0-.08,0-.121,0-4.757,0-8.362-3.613-8.591-8.635-.06-1.296-.85-2.134-2.17-2.297-2.498-.31-5.051-.307-7.581.007-1.299.161-2.1,1.02-2.142,2.297-.091,2.717-1.107,4.917-3.021,6.54-2.804,2.375-6.45,2.749-9.755.998-1.111-.589-2.28-.478-2.908.276-1.887,2.27-3.313,4.738-4.236,7.337-.211.594-.314,1.327.523,2.268.096.108.342.272.582.431l.282.19c2.898,1.987,4.233,4.826,3.863,8.21-.294,2.683-1.706,4.882-4.083,6.36-.8.497-1.267,1.054-1.289,2.43v.01c.027.12.109.374.335.913.928,2.224,2.141,4.319,3.604,6.227.977,1.273,1.992,1.494,3.401.738,1.237-.663,2.551-1.014,3.907-1.044.064-.001.129-.002.193-.002ZM41.514,77.252h0ZM67.5,78.698h-.027c-3.02-.007-5.836-1.176-7.929-3.293-2.089-2.113-3.235-4.945-3.227-7.975.008-2.993,1.168-5.788,3.265-7.871,2.113-2.098,4.948-3.253,7.988-3.253h.047c6.233.024,11.104,4.973,11.087,11.266-.017,6.243-4.936,11.125-11.204,11.125ZM67.483,73.987h.016c3.633,0,6.484-2.819,6.494-6.425.009-3.655-2.799-6.529-6.394-6.543-1.833-.009-3.466.663-4.696,1.884-1.204,1.195-1.869,2.808-1.873,4.541-.005,1.776.658,3.428,1.866,4.65,1.204,1.218,2.834,1.89,4.59,1.895h0Z"/>
  </g>
  <g id="exit" class="cls-5">
    <g>
      <g>
        <circle class="cls-4" cx="67.5" cy="67.5" r="30"/>
        <path class="cls-2" d="M67.5,99.5c-17.645,0-32-14.354-32-32s14.355-32,32-32,32,14.355,32,32-14.355,32-32,32ZM67.5,39.5c-15.439,0-28,12.561-28,28s12.561,28,28,28,28-12.561,28-28-12.561-28-28-28Z"/>
      </g>
      <path class="cls-2" d="M75.5,79.939c-.716,0-1.385-.28-1.892-.784l-6.106-6.106-6.106,6.106c-.507.507-1.18.784-1.892.784s-1.385-.277-1.892-.784l-1.766-1.769c-.503-.5-.784-1.172-.784-1.888s.277-1.388.784-1.895l6.106-6.103-6.106-6.106c-1.043-1.043-1.043-2.74,0-3.78l1.769-1.773c.5-.503,1.172-.78,1.888-.78s1.385.277,1.892.777l6.11,6.11,6.103-6.106c.503-.503,1.176-.78,1.892-.78s1.388.277,1.892.784l1.766,1.766c1.039,1.043,1.039,2.737.004,3.78l-6.11,6.11,6.103,6.103c.503.507.78,1.18.78,1.892s-.277,1.388-.784,1.888l-1.766,1.766c-.503.507-1.172.784-1.888.784l.004.007Z"/>
    </g>
  </g>
</svg>