<?xml version="1.0" encoding="UTF-8"?><svg id="b" xmlns="http://www.w3.org/2000/svg" viewBox="0 0 55.46 15.31"><defs><style>.d,.e{fill:#fff;}.e{fill-rule:evenodd;}.f{fill:#f48120;}.g{fill:#5bb6d5;}</style></defs><g id="c"><path class="d" d="M0,7.66c0,4.23,3.62,7.65,8.08,7.65V0C3.61,0,0,3.43,0,7.66Z"/><path class="d" d="M16.14,7.65C16.13,3.42,12.52,0,8.06,0v15.31c4.47,0,8.08-3.43,8.08-7.66Z"/><path class="g" d="M.34,7.66c0,4.05,3.47,7.33,7.74,7.33V.32C3.8.33.34,3.61.34,7.66Z"/><path class="f" d="M15.8,7.65c0-4.05-3.47-7.33-7.74-7.33v14.67c4.28,0,7.74-3.29,7.74-7.34Z"/><path class="d" d="M14.97,7.65s-.05,0-.16.02c-.1,0-.25.02-.44.04-.19.01-.42.03-.68.05-.26.02-.56.04-.88.05-.32.02-.68.04-1.05.05-.37.01-.76.03-1.17.04-.41.01-.82.02-1.25.02-.43,0-.86,0-1.29,0-.43,0-.86,0-1.29,0-.43,0-.84-.01-1.25-.02-.41,0-.8-.02-1.17-.04-.37-.01-.72-.03-1.05-.05-.32-.01-.62-.03-.88-.05-.26-.02-.49-.03-.68-.05-.19-.01-.34-.03-.44-.04-.1,0-.16-.02-.16-.02,0,0,.05,0,.16-.02.1,0,.25-.02.44-.04.19-.01.42-.03.68-.05.26-.02.56-.04.88-.05.32-.02.68-.04,1.05-.05.37-.01.76-.03,1.17-.04.41,0,.82-.02,1.25-.02.43,0,.86,0,1.29,0,.43,0,.86,0,1.29,0,.43,0,.84.01,1.25.02.41,0,.8.02,1.17.04.37.01.72.03,1.05.05.32.01.62.03.88.05.26.02.49.03.68.05.19.01.34.03.44.04.1,0,.16.02.16.02Z"/><path class="d" d="M13.16,3s-.03.02-.1.07c-.06.04-.16.11-.28.19-.12.08-.28.16-.46.26-.02.01-.05.03-.07.04-.02.01-.05.02-.07.03-.05.02-.1.05-.15.07-.11.05-.22.1-.33.15-.12.04-.24.09-.37.14-.03.01-.06.02-.1.04l-.05.02-.06.02c-.07.02-.13.04-.2.06-.14.04-.28.08-.42.12-.15.04-.3.06-.46.09-.32.07-.64.1-.97.14-.17.02-.33.03-.5.03-.17,0-.34.01-.51.02-.17,0-.33-.01-.5-.02-.17,0-.33,0-.5-.03-.33-.04-.67-.07-.97-.14-.16-.03-.31-.06-.46-.09-.15-.04-.29-.08-.43-.12-.07-.02-.14-.04-.21-.06h-.03s-.01-.01-.01-.01h-.01s0,0,0,0l-.05-.02s-.06-.02-.1-.03c-.13-.05-.25-.09-.36-.13-.12-.05-.23-.1-.34-.15-.05-.02-.1-.05-.15-.07-.02-.01-.05-.02-.07-.03-.02-.01-.05-.03-.07-.04-.18-.1-.34-.18-.46-.26-.12-.08-.22-.15-.28-.19-.06-.05-.1-.07-.1-.07,0,0,.04.01.11.04.07.03.18.07.31.12.07.03.14.05.23.08.08.03.17.06.27.09.09.03.2.06.3.09.11.03.22.06.34.09.12.03.25.06.38.09.03,0,.07.02.1.02h.05s.04.02.04.02c.07.01.14.02.2.04.14.02.28.05.42.08.15.02.29.04.45.06.08,0,.15.02.23.03.04,0,.08.01.12.01h.12c.15.02.31.03.47.04.15.02.32.01.49.02.17,0,.33,0,.5.01.16,0,.32,0,.48-.01.16,0,.32,0,.48-.02.16-.01.32-.02.47-.04h.12s.08-.02.11-.02c.08,0,.15-.02.23-.03.15-.02.3-.03.44-.06.15-.03.29-.05.43-.08.07-.01.14-.02.21-.04h.04s.05-.02.05-.02c.03,0,.06-.02.1-.02.13-.03.25-.06.37-.09.12-.03.23-.07.34-.09.11-.03.21-.05.31-.09.09-.03.18-.06.26-.09.08-.03.16-.05.23-.08.13-.06.24-.1.31-.13.07-.03.11-.04.11-.04Z"/><path class="d" d="M8.06,14.57s0-.05-.02-.16c0-.1-.02-.25-.04-.44-.01-.19-.03-.42-.05-.68-.02-.26-.04-.56-.05-.88-.02-.32-.04-.68-.05-1.05-.01-.37-.03-.76-.04-1.17-.01-.4-.02-.82-.02-1.25,0-.43,0-.86,0-1.29,0-.43,0-.86,0-1.29,0-.43.01-.84.02-1.25,0-.41.02-.8.04-1.17.01-.37.03-.72.05-1.05.01-.32.03-.62.05-.88.02-.26.03-.49.05-.68.01-.19.03-.34.04-.44,0-.1.02-.16.02-.16,0,0,0,.05.02.16,0,.1.02.25.04.44.01.19.03.42.05.68.02.26.04.56.05.88.02.32.04.68.05,1.05.01.37.03.76.04,1.17,0,.41.02.82.02,1.25,0,.43,0,.86,0,1.29,0,.43,0,.86,0,1.29,0,.43-.01.84-.02,1.25,0,.41-.02.8-.04,1.17-.01.37-.03.72-.05,1.05-.01.32-.03.62-.05.88-.02.26-.03.49-.05.68-.01.19-.03.34-.04.44,0,.1-.02.16-.02.16Z"/><path class="d" d="M8.06.74s-.08,0-.24.02c-.04,0-.08,0-.13.01-.05,0-.1.01-.16.02-.06,0-.12.02-.18.03-.06,0-.13.02-.21.04-.29.05-.64.14-1.02.27-.39.13-.81.32-1.24.57-.43.25-.87.57-1.28.95-.2.2-.41.4-.59.64l-.07.09-.07.09c-.04.06-.09.12-.13.18-.09.12-.18.25-.26.38-.33.52-.59,1.1-.77,1.72-.09.31-.16.63-.21.95-.04.32-.07.65-.07.97v.25c0,.09.01.16.02.24,0,.16.03.32.05.48.05.32.12.64.21.95.19.61.44,1.2.78,1.72.08.13.17.26.26.38.04.06.09.12.14.18.04.06.09.12.14.17.05.06.1.12.14.17.05.06.1.11.15.17.05.06.1.11.15.16.05.05.1.1.15.15.42.38.85.7,1.28.95.43.25.85.43,1.24.56.39.13.73.22,1.02.27.07.01.14.03.21.04.07,0,.13.02.18.03.06,0,.11.02.16.02.05,0,.09,0,.13.01.16.01.24.02.24.02,0,0-.09,0-.24,0-.04,0-.08,0-.13,0-.05,0-.1,0-.16,0-.06,0-.12,0-.19,0-.07,0-.14-.01-.21-.02-.3-.02-.66-.07-1.07-.18-.41-.1-.86-.26-1.33-.49-.47-.23-.95-.54-1.41-.92-.06-.05-.11-.1-.17-.15-.06-.05-.12-.1-.17-.16-.05-.05-.11-.11-.16-.16-.06-.06-.11-.12-.16-.18-.21-.23-.41-.49-.59-.76-.18-.27-.35-.56-.5-.87-.15-.31-.28-.62-.38-.96-.1-.33-.18-.67-.23-1.02-.02-.17-.05-.35-.06-.53,0-.09-.02-.18-.02-.26v-.26c0-.35.02-.7.07-1.05.05-.35.13-.69.23-1.02.1-.33.23-.65.38-.96.15-.31.32-.6.5-.87.09-.14.19-.27.29-.4.05-.06.1-.13.15-.19l.08-.09.08-.09c.21-.24.44-.45.66-.64.46-.39.94-.69,1.4-.93.47-.23.92-.39,1.33-.49.41-.1.77-.16,1.07-.18.07,0,.14-.01.21-.02.07,0,.13,0,.19,0,.06,0,.11,0,.16,0,.05,0,.09,0,.13,0,.16,0,.24,0,.24,0Z"/><path class="d" d="M8.06,14.57s.07,0,.19-.03c.02,0,.03,0,.05,0,.02,0,.03,0,.05-.01.04,0,.08-.02.12-.03.04,0,.09-.03.14-.05.05-.02.1-.03.15-.06.21-.09.44-.24.68-.45.24-.21.47-.48.68-.8.21-.32.41-.7.58-1.11.04-.1.08-.21.12-.32.04-.11.08-.22.11-.33.03-.12.07-.23.1-.35.03-.12.06-.23.09-.35.11-.47.2-.97.26-1.48.02-.26.05-.51.06-.77,0-.13.02-.26.02-.39v-.39c0-.54-.03-1.04-.08-1.56-.06-.51-.15-1.01-.27-1.48-.03-.12-.06-.24-.09-.35-.03-.11-.07-.23-.1-.34v-.04s-.03-.04-.03-.04l-.03-.08c-.02-.06-.04-.11-.06-.17-.04-.11-.08-.21-.12-.31-.17-.41-.37-.79-.58-1.11-.22-.32-.45-.59-.68-.8-.24-.21-.47-.36-.68-.45-.05-.02-.1-.04-.15-.06-.05-.02-.09-.04-.14-.05-.04-.01-.08-.02-.12-.03-.02,0-.04,0-.05-.01-.02,0-.03,0-.05,0-.12-.02-.19-.03-.19-.03,0,0,.07,0,.19,0,.13,0,.31.02.54.08.23.07.5.19.77.39.27.19.55.46.8.78.26.32.49.7.7,1.13.05.11.1.22.15.33.02.05.05.11.07.16l.03.08.02.04.02.05c.04.12.08.23.13.35.04.12.07.24.11.36.04.12.07.25.1.37.02.06.03.13.05.19.02.06.03.13.04.19.02.13.05.26.08.39.02.13.04.26.06.4.07.53.1,1.09.11,1.61v.41c0,.14-.02.27-.03.41-.01.27-.05.54-.08.8-.02.13-.04.26-.06.4-.02.13-.05.26-.08.39-.01.06-.02.13-.04.19-.02.06-.03.13-.05.19-.03.13-.06.25-.1.37.04.18-.02.26-.06.37-.04.12-.08.23-.12.35-.05.12-.07.22-.14.35-.05.11-.12.26-.17.37-.2.42-.31.68-.57,1-.25.32-.68.65-.95.84-.27.2-.54.32-.77.39-.23.07-.42.08-.54.09-.13,0-.19,0-.19,0Z"/><path class="d" d="M8.06.74s-.07,0-.19.03c-.02,0-.03,0-.05,0-.02,0-.03,0-.05.01-.04,0-.08.02-.12.03-.04,0-.09.03-.14.05-.05.02-.1.03-.15.06-.21.09-.44.24-.68.45-.24.21-.47.48-.68.8-.21.32-.41.7-.58,1.11-.04.1-.08.21-.12.32-.04.11-.08.22-.11.33-.03.12-.07.23-.1.35-.03.12-.06.23-.09.35-.1.44-.11,1.01-.24,1.47-.02.07-.03.15-.03.23,0,.49-.08.85-.08,1.33,0,.53.03,1.04.09,1.55.06.51.15,1.01.27,1.48.03.12.06.24.09.35.03.11.07.23.1.34v.04s.03.04.03.04l.03.08c.02.06.04.11.06.17.04.11.08.21.12.31.17.41.76.6.97.92.22.32.05.78.29.99.24.21.47.36.68.45.05.02.1.04.15.06.05.02.09.04.14.05.04.01.08.02.12.03.02,0,.04,0,.05.01.02,0,.03,0,.05,0,.12.02.19.03.19.03,0,0-.07,0-.19,0-.13,0-.31-.02-.54-.08-.23-.07-.5-.19-.77-.39-.27-.19-.55-.46-.8-.78-.26-.32-.49-.7-.7-1.13-.05-.11-.1-.22-.15-.33-.02-.05-.05-.11-.07-.16l-.03-.08-.02-.04-.02-.05c-.04-.12-.08-.23-.13-.35-.04-.12-.07-.24-.11-.36-.04-.12-.07-.25-.1-.37-.02-.06-.03-.13-.05-.19-.02-.06-.03-.13-.04-.19-.02-.13-.06-.26-.08-.39-.02-.13-.04-.26-.06-.4-.07-.53-.1-1.08-.11-1.62,0-.54.04-1.09.11-1.62.02-.13.04-.26.06-.4.02-.13.05-.26.08-.39.01-.06.02-.13.04-.19.02-.06.03-.13.05-.19.03-.13.06-.25.1-.37.04-.12.07-.25.11-.37.04-.12.08-.23.12-.34.05-.12.09-.23.14-.34.05-.11.1-.22.15-.32.2-.42.44-.8.69-1.13.25-.32.53-.59.8-.78.27-.2.54-.32.77-.39.23-.07.42-.08.54-.09.13,0,.19,0,.19,0Z"/><path class="d" d="M8.3,14.58s-.02-.03,0-.03h0s.08,0,.13-.01c0,0,0,0,0,0,.05,0,.1-.01.16-.02.06,0,.12-.02.18-.03.06,0,.13-.02.21-.04.29-.05.64-.14,1.02-.27.39-.13.81-.32,1.24-.57.43-.25.87-.57,1.28-.95.2-.2.41-.4.59-.64l.07-.09.07-.09c.04-.06.09-.12.13-.18.09-.12.18-.25.26-.38.33-.52.59-1.1.77-1.72.09-.31.16-.63.21-.95.02-.16.04-.32.05-.49,0-.08.01-.16.01-.24v-.24c0-.35-.02-.65-.06-.98-.05-.32-.12-.64-.21-.95-.19-.61-.44-1.2-.78-1.72-.08-.13-.17-.26-.26-.38-.04-.06-.09-.12-.14-.18-.04-.06-.09-.12-.14-.17-.05-.06-.1-.12-.14-.17-.05-.06-.1-.11-.15-.17-.05-.06-.1-.11-.15-.16-.05-.05-.1-.1-.15-.15-.42-.38-.82-.75-1.28-.95,0,0,0,0,0,0-.43-.25-.85-.43-1.24-.56-.39-.13-.73-.22-1.02-.27-.07-.01-.14-.03-.21-.04-.07,0-.13-.02-.18-.03-.06,0-.11-.02-.16-.02h0s-.09,0-.13-.01c0,0,0,0,0,0-.02,0-.02-.03,0-.03,0,0,0,0,0,0,.04,0,.08,0,.13,0h0s.1,0,.16,0c.06,0,.12,0,.19,0,.07,0,.14.01.21.02.3.02.66.07,1.07.18.41.1,1.23.36,1.7.6,0,0,0,0,0,0,.47.3.58.43,1.03.82.06.05.11.1.17.15.06.05.12.1.17.16.05.05.11.11.16.16.06.06.11.12.16.18.21.23.41.49.59.76.18.27.35.56.5.87.15.31.28.62.38.96.1.33.22.62.28.96.05.34.04.77.04,1.1v.27c0,.09-.02.18-.02.26-.01.18-.04.35-.06.52-.05.35-.13.69-.23,1.02-.1.33-.21.78-.35,1.09-.15.31-.34.47-.52.74-.09.14-.19.27-.29.4-.05.06-.1.13-.15.19l-.08.09-.08.09c-.21.24-.44.45-.66.64-.46.39-.94.69-1.4.93-.47.23-.92.39-1.33.49-.41.1-.77.16-1.07.18-.07,0-.14.01-.21.02-.07,0-.13,0-.19,0-.06,0-.11,0-.16,0-.05,0-.09,0-.13,0,0,0,0,0,0,0Z"/><path class="d" d="M2.96,12.32s.03-.02.1-.07c.06-.04.16-.11.28-.19.12-.08.28-.16.46-.26.02-.01.05-.03.07-.04.02-.01.05-.02.07-.03.05-.02.1-.05.15-.07.11-.05.22-.1.33-.15.12-.04.24-.09.37-.14.03-.01.06-.02.1-.04l.05-.02.06-.02c.07-.02.13-.04.2-.06.14-.04.28-.08.42-.12.15-.04.3-.06.46-.09.32-.07.64-.1.97-.14.17-.02.33-.03.5-.03.17,0,.34-.01.51-.02.17,0,.34.01.5.02.17,0,.33.01.5.03.33.04.67.07.97.14.16.03.31.06.46.09.15.04.29.08.43.12.07.02.14.04.21.06h.03s.01.01.01.01h.01s0,0,0,0l.05.02s.06.02.1.03c.13.05.25.09.36.13.12.05.23.1.34.15.05.02.1.05.15.07.02.01.05.02.07.03.02.01.05.03.07.04.18.1.34.18.46.26.12.08.22.15.28.19.06.05.1.07.1.07,0,0-.04-.01-.11-.04-.07-.03-.18-.07-.31-.12-.07-.03-.14-.05-.23-.08-.08-.03-.17-.06-.27-.09-.09-.03-.2-.06-.3-.09-.11-.03-.22-.06-.34-.09-.12-.03-.25-.06-.38-.09-.03,0-.07-.02-.1-.02h-.05s-.04-.02-.04-.02c-.07-.01-.14-.02-.2-.04-.14-.02-.28-.05-.42-.08-.15-.02-.29-.04-.45-.06-.08,0-.15-.02-.23-.03-.04,0-.08-.01-.12-.01h-.12c-.15-.02-.31-.03-.47-.04-.15-.02-.32-.01-.49-.02-.16,0-.33,0-.49-.01-.16,0-.32,0-.49.01-.16,0-.32,0-.48.02-.16.01-.32.02-.47.04h-.12s-.08.02-.11.02c-.08,0-.15.02-.23.03-.15.02-.3.03-.44.06-.15.03-.29.05-.43.08-.07.01-.14.02-.21.04h-.04s-.05.02-.05.02c-.03,0-.06.02-.1.02-.13.03-.25.06-.37.09-.12.03-.23.07-.34.09-.11.03-.21.05-.31.09-.09.03-.18.06-.26.09-.08.03-.16.05-.23.08-.13.06-.24.1-.31.13-.07.03-.11.04-.11.04Z"/><path class="d" d="M10.72,3.09s.04-.03.05-.04l.05-.04s-.04-.03-.05-.04c-.04-.02-.08-.04-.14-.05-.04,0-.09,0-.13.02-.05-.06-.14-.15-.31-.17-.02,0-.04,0-.05,0-.3-.03-.56.1-.73.34-.33.18-.48.58-.43.89.04.26.13.74.34,1.06.15.24.24.42.21.59-.02,0-.03-.01-.04-.03,0,0,0,0-.01,0h-.05s-.02,0-.02,0c0-.01-.01-.02-.02-.03,0,0,0,0,0-.01,0-.05,0-.11.05-.16l-.04-.07c-.09.03-.24.11-.25.25v-.02c-.11.02-.31.16-.25.35.06.19.26.32.41.34.03,0,.07,0,.1,0,.02,0,.05,0,.08-.02.06.02.12.02.17.01.12-.02.41-.07.51-.37.04-.07.07-.16.07-.25,0-.03,0-.07,0-.11.01-.04.02-.08.02-.13,0-.16-.07-.32-.15-.51-.1-.23-.22-.5-.23-.83,0-.02,0-.05,0-.07.03-.14.16-.62.31-.71-.05.07-.06.14.03.24,0,0,.01.02.02.02l.14-.13c.11-.11.23-.2.34-.31ZM9.2,5.81s-.04,0-.07-.07c0,0,0,0,0-.01v-.04s0-.09.02-.1c0,0,.01.07.01.08,0,.01,0,.02.01.04.01.01.03.1.02.11Z"/><path class="e" d="M14.2,6.91c-.11-.05-.43.05-.46.08-.09.09-.15.25-.14.31.01.12-.12.22-.61.41-.23.09-.31-.03-.37-.22-.14-.49-.1-.52-.49-.88-.22-.21-.29-.28-.16-.34.01,0,.03,0,.04,0,.18.02.51-.05.74-.21,0,0,.02-.01.03-.03.04-.03.11-.09.14-.11,0,0,0,0,0,0,.69-.6.24-.88.3-1.61,0-.04.05-.06.05-.13l.03-.18c.01-.15,0-.23-.03-.28-.28-.7-.91-.87-1.59-.86-.64.02-.96.08-1.45.68,0,0,0,0,0,0-.19.27-.35.68-.36,1.01,0,0,0,.28.03.41,0,0,0,0,0,0,0,.02,0,.04.01.05,0,0,0,0,0,0,.04.22.06.32.21.53.02.03.06.07.09.09.15.13.25.29.5.46.09.06.18.1.27.14.07.03.07.14-.01.15-.75.18-2.18.56-2.27,1.1-.08.5-.81.29-.66,1.3.04.27.28.24.5.13.49-.24.3-.27.29-.6-.02-.6.84-.98,1.41-1.09.07-.01.12.05.09.11-.12.26.06,1-.4,1.59-.62.79-1.42.62-1.22.73.25.14.81.9.14.97-.47.05-.37-.67-.64-.8-.17-.08-.62.49-.68.86-.05.32,0,.5.05.59.01.02.07.11.09.12.19.04.33-.29.4-.55.02-.07.11-.08.15-.02.27.49.64.86,1.12.21.12-.16.55-.37.75-.22.39.31,1.52.47,1.99.09.04-.03.1-.02.12.03.06.12.18.34.3.58.18.35.02.82.23.95.07.04.49.02.78-.14,1.21-.66.26-1.01-.26-.7-.06.03-.13,0-.12-.07.01-.21.02-.57-.02-.79-.07-.33-.49-.57-.32-.64.18-.07.39-.24.23-.3-.16-.06-1-.58-1.05-1.02-.03-.32.14-.72.23-.91.02-.05.09-.06.13-.02.51.54.92.51,1.36-.17.01-.02.03-.03.05-.04.1-.02.4-.11.52-.38.08-.17.06-.34-.07-.39Z"/><path class="e" d="M6.05,9.41c.7.48.57,1.46.67,2.29,0,.07.31-.18.76.11.28.18-1.68.87-1.62.39.14-.94-.13-2.2-1.19-2.54-.02,0-.04,0-.05.03-.24.94-1.14,1.44-2.05,1.1-.44-.16-.7-.67-.81-.64-.05.02-.26.38-.3.56-.04.18-.33.37-.3-.31.02-.39.16-.92.33-1.17.39-.55.45.09.7.46.17.25.64.45.89.35.38-.14.68-.64.68-.8s-.07-.34.21-.94c.19-.41.14-.79.23-.9.02-.03,0-.07-.04-.06-.25.04-.91.17-1.15.38-.29.26-.2.13-.37.06-.32-.13-.22.89-.83.35-.46-.41.15-.88.43-.87.09,0,.34-.06.42-.19.35-.6,1.54-.46,2.09-.68.15-.06.29-.18.35-.23.02-.02.02-.05,0-.06-.02-.01-.03-.02-.05-.03,0,0,0,0-.01,0-.48-.12-.52-.12-.78-.35-.03-.03-.05.22-.16.11,0,0-.26-.17-.3-.62-.03-.32-.15-.83.03-1.39.2-.63.75-1.21,1.56-1.36.03,0,.05.02.04.05,0,0,0,.01,0,.02,0,.04.04.06.07.04.19-.17.39-.28.64-.29.03,0,.04.1.01.13-.03.04-.04.08-.04.14,0,.04.05.02.08,0,.08-.07.24-.02.41-.05.07,0,.05.05.02.07,0,0,0,0,0,0-.02.02-.04.05,0,.05.56.05.08.51.99.43.27-.02.23.43-.24.71-.01,0-.02.01-.03.03-.15.5.11,1.07-.02,1.51-.21.71-.85.85-1.44.88-.04,0-.05.05-.02.07.55.31.27.76.86,1.33.18.17.44.36.84.56.22.11.13.29.25.18.88-.79,1.09.93.31.58-.13-.06-.26-.13-.37-.1-.6.2-.52.22-1.2-.2-.16-.1-.44-.36-.47-.52-.09-.45-.37.87-.03,1.32h0Z"/><path class="e" d="M25.25,2.68c-.02.05-.02.2,0,.26.01.01.05.13.06.15.04.09.1.19.17.25.03.03.07.07.11.09h.01s.01,0,.02.02c.02,0,.05.02.07.02.03,0,.05.01.08.02.07.01.12,0,.18,0,0,0,.01,0,.02,0,.03,0,.06-.02.08-.04.03-.03.03-.02.05-.07.05-.12-.03-.11-.06-.15,0-.01-.03-.06-.04-.08-.03-.06-.06-.09-.1-.14-.02-.02-.03-.04-.06-.06-.01-.01-.02-.01-.03-.03-.01-.01-.02-.02-.03-.03-.05-.05-.21-.18-.27-.21-.04-.01-.09-.01-.1-.01-.02-.01-.02-.04-.08-.04-.04,0-.06.02-.09.03h0Z"/><path class="e" d="M25.32,2.39s0,.02.02.05c0,.02.02.02.03.03.03.02.09.11.18.05.07-.05.04-.04.08-.06.08-.05.1-.05.15-.12.11-.13.07-.15.16-.25.02-.02.04-.07.06-.08.02,0,.03-.01.04-.02.01-.01.02-.03.03-.04.06-.06.07-.12.16-.07.04.02.12.1.19.02.03-.03.03-.05.03-.1v-.04c-.08-.03-.32-.03-.42,0-.18.05-.39.16-.51.29-.01.01-.02.02-.03.03-.07.08-.11.14-.16.24-.01.03-.02.06-.03.08h0Z"/><path class="e" d="M26.52,3.78c-.2,0-.26,0-.45-.08-.08-.03-.2-.09-.27-.14-.02-.01-.07-.04-.09-.05-.01,0,0,0-.01,0,0,0,0,0,0,0,.02,0,.01,0,.02,0,.12.03.13.02.24,0h0c-.07,0-.11,0-.18-.01-.03,0-.06-.01-.08-.02-.03,0-.05-.02-.07-.02,0,0-.02.01-.02,0,0,0,0,0,0,0,0,0,0,0,0,0,0,0,0,0,0,0-.07-.04-.14-.1-.18-.15-.03-.03-.05-.05-.07-.09-.01-.02-.05-.11-.06-.11.02.13.11.27.17.35.08.11.14.2.25.27.09.06.26.11.39.13.16.02.31.01.45-.04h0Z"/><path class="e" d="M25.25,2.41s.06-.14.08-.16c.15-.28.36-.45.67-.55.18-.06.25-.02.44-.02-.02-.05-.12-.08-.18-.08-.29-.04-.55.11-.74.3-.04.04-.08.1-.12.15-.06.08-.13.25-.16.37h0Z"/><path class="e" d="M26.89,1.93h0s0,0-.02-.02c-.01,0,0,0-.02-.01,0,0,0,.01.02.02.01,0,0,0,.02.02h0Z"/><path class="e" d="M26.61,1.86s-.04.05-.06.08c-.04.06-.04.09-.1.13-.02.02-.02.02-.04.04-.06.07-.01.03-.09.06-.14.06-.18.15-.21.17-.02.01-.03.02-.05.03-.02.01-.02.03-.03.05-.01.02-.02.02-.04.04-.03.06,0,.2.03.25.02.03.04.06.06.1.02.04.04.05.08.07.12.07.13.02.18-.07.01-.03.02-.02.04-.04.05-.04.08-.11.1-.13.03.02.06.05.1.06,0,.04-.03.08-.05.18,0,.07,0,.15,0,.22-.09-.01-.13-.03-.2.09-.01.02-.04.04-.07.08-.02.03-.04.07-.05.11-.04.22.13.31.31.22.03-.01.11-.06.14-.09.06-.06.06-.07.14-.09.04-.01.06-.04.11-.04.11,0,.15-.05.19-.11.02-.03.04-.06.06-.09.01-.03.03-.09.04-.11.05-.06.06-.25.05-.34-.01-.21-.08-.41-.19-.58-.03-.05-.14-.19-.17-.21-.01-.01-.01,0-.02-.02,0,0-.01-.01-.02-.02l-.07-.04s-.05-.03-.07-.03c-.02,0-.04,0-.06.02-.02,0-.03.01-.05.02h0Z"/><path class="d" d="M40.89,3.96h0c.53,0,.96.43.96.96v4.57c0,.62.07,1.07.22,1.35.23.5.72.76,1.48.76s1.25-.25,1.48-.76c.15-.28.22-.74.22-1.35v-4.57c0-.53.43-.96.96-.96h0c.53,0,.96.43.96.96v4.58c0,.96-.15,1.7-.44,2.23-.55.98-1.61,1.47-3.16,1.47s-2.61-.49-3.17-1.47c-.3-.53-.44-1.28-.44-2.23v-4.58c0-.53.43-.96.96-.96Z"/><path class="d" d="M54.66,9.12c-.53.45-1.3.67-2.29.67h-.95c-.52,0-.95.42-.95.95v1.39c0,.52-.42.95-.95.95h0c-.52,0-.95-.42-.95-.95v-7.23c0-.52.42-.95.95-.95h2.97c.9,0,1.62.24,2.16.71.54.47.81,1.2.81,2.18,0,1.08-.27,1.84-.8,2.28ZM53.21,5.83c-.24-.2-.58-.3-1.01-.3h-.77c-.52,0-.95.42-.95.95v.79c0,.52.42.95.95.95h.77c.43,0,.77-.11,1.01-.33.24-.22.36-.57.36-1.04s-.12-.81-.36-1.02Z"/><path class="d" d="M22.64,5.35c-1.01,1.39-1.75,2.53-2.24,3.41l-.24.47-.02.04v.12c.05,0,.09,0,.13.01.09,0,.21.02.36.04.14.02.22.02.26.02.3.06.61.13.92.21.31.08.55.16.74.22.18.06.46.16.81.29.36.13.62.22.78.27.08.03.14.08.17.16.04.07.04.15.01.23-.03.08-.08.14-.15.17-.07.04-.15.04-.23.02l-.79-.29-.79-.28c-.18-.06-.41-.13-.7-.21-.29-.08-.58-.14-.87-.19-.02,0-.1-.02-.22-.02-.16-.02-.28-.03-.37-.04h-.04c.06,1.12.09,1.95.11,2.47,0,.08-.03.15-.08.22-.06.06-.12.1-.2.1s-.15-.03-.22-.08c-.06-.06-.1-.12-.1-.2-.02-.5-.06-1.39-.12-2.65-.05-.03-.09-.07-.12-.11-.05-.06-.07-.12-.06-.2,0-.02,0-.05.01-.07,0-.02.02-.04.02-.06,0-.03.02-.07.05-.12l.07-.14c-.02-.53-.04-.99-.06-1.39,0-.3,0-.98.02-2.05.02-.86,0-1.53-.06-1.99,0-.08.01-.15.07-.22.05-.07.12-.11.2-.11.08,0,.15.01.22.07.07.05.11.12.11.2.06.5.08,1.19.06,2.07-.02,1.05-.03,1.72-.02,2.01v.37c.48-.81,1.17-1.85,2.08-3.1.05-.06.11-.1.19-.11.08-.01.15,0,.22.05.07.05.11.11.12.19.01.08,0,.16-.05.23Z"/><path class="d" d="M26.57,4.5c.19,2.08.29,4.85.29,8.32,0,.08-.03.15-.09.21-.06.06-.13.09-.21.09s-.15-.03-.21-.09c-.06-.06-.09-.13-.09-.21,0-3.48-.1-6.24-.29-8.28,0-.08.01-.15.07-.22.05-.06.12-.1.2-.11.08,0,.16.01.22.07.06.05.1.12.11.21Z"/><path class="d" d="M32.04,3.36c.02.27.04.55.05.83,0,.28,0,.63,0,1.03,0,.4-.01.67-.01.8,0,.74-.02,2.78-.07,4.27-.04,1.49-.07,1.68-.07,2.43,0,.08-.03.15-.09.21-.06.06-.13.09-.21.09s-.15-.03-.21-.09c-.06-.06-.09-.13-.09-.21,0-.49,0-.13.02-.74-.5.21-1.05.23-1.65.06-.4-.11-.73-.29-.99-.53-.26-.24-.43-.51-.52-.8-.09-.29-.12-.59-.08-.89.03-.3.12-.58.26-.84.14-.26.34-.48.59-.65.25-.17.53-.26.84-.26.54-.02,1.09.22,1.63.72.02-.69.02-2.22.02-2.75,0-.15,0-.42.01-.81,0-.39,0-.72,0-.99,0-.27-.02-.53-.05-.78,0-.09.01-.16.07-.23.05-.06.12-.1.2-.11.08,0,.16.01.22.07.06.05.1.12.11.2ZM31.41,9.58c-.55-.63-1.07-.94-1.57-.92-.4,0-.71.21-.93.61-.1.18-.17.39-.19.6-.02.22,0,.43.07.63.07.2.2.39.38.57.19.18.43.3.72.38.56.16,1.05.11,1.46-.14.02,0,.03,0,.04-.01,0-.22.02-.52.03-.91.01-.39.02-.65.02-.79l-.02-.02Z"/><path class="d" d="M36.28,5.79c-.14-.42-.33-.72-.59-.92-.26-.2-.53-.28-.8-.26-.28.02-.53.15-.75.38-.22.23-.37.57-.43,1.02-.09.54-.07.95.05,1.25.08.19.19.39.32.6.13.21.32.47.55.79.24.32.4.55.5.69.31.46.55.89.71,1.29.16.41.21.83.14,1.26-.07.46-.32.81-.74,1.05-.31.18-.61.23-.89.16-.24-.06-.45-.22-.63-.46-.26-.34-.43-.8-.53-1.4,0-.08.01-.15.06-.22.05-.07.11-.11.19-.12.08-.01.15,0,.22.05.07.05.11.11.13.19.08.5.22.88.41,1.14.1.13.2.2.3.23.13.03.28,0,.46-.1.25-.14.39-.35.43-.62.05-.32,0-.65-.13-.99-.13-.34-.34-.72-.62-1.13-.07-.1-.23-.32-.48-.66-.25-.34-.45-.62-.59-.86-.15-.24-.27-.47-.35-.69-.16-.39-.19-.91-.1-1.56.09-.56.29-1.01.61-1.35.32-.34.69-.52,1.13-.56.42-.03.82.09,1.19.38.37.28.64.69.82,1.22.02.08.02.16-.02.23-.04.07-.09.12-.17.15-.08.03-.16.02-.23-.01-.07-.04-.12-.09-.16-.17Z"/></g></svg>