<?xml version="1.0" encoding="UTF-8"?>
<svg xmlns="http://www.w3.org/2000/svg" version="1.1" viewBox="0 0 55.5 15.3">
  <defs>
    <style>
      .cls-1, .cls-2 {
        fill: #fff;
      }

      .cls-1, .cls-3 {
        fill-rule: evenodd;
      }

      .cls-4 {
        fill: #5bb6d5;
      }

      .cls-5, .cls-3 {
        fill: #f48120;
      }
    </style>
  </defs>
  <!-- Generator: Adobe Illustrator 28.7.1, SVG Export Plug-In . SVG Version: 1.2.0 Build 142)  -->
  <g>
    <g id="b">
      <g id="c">
        <path class="cls-2" d="M0,7.7c0,4.2,3.6,7.6,8.1,7.6V0C3.6,0,0,3.4,0,7.7Z"/>
        <path class="cls-2" d="M16.1,7.6C16.1,3.4,12.5,0,8.1,0v15.3c4.5,0,8.1-3.4,8.1-7.7Z"/>
        <path class="cls-4" d="M.3,7.7c0,4.1,3.5,7.3,7.7,7.3V.3C3.8.3.3,3.6.3,7.7Z"/>
        <path class="cls-5" d="M15.8,7.6C15.8,3.6,12.3.3,8.1.3v14.7c4.3,0,7.7-3.3,7.7-7.3Z"/>
        <path class="cls-2" d="M15,7.6s0,0-.2,0c-.1,0-.2,0-.4,0-.2,0-.4,0-.7,0s-.6,0-.9,0c-.3,0-.7,0-1.1,0s-.8,0-1.2,0c-.4,0-.8,0-1.2,0h-2.6c-.4,0-.8,0-1.2,0-.4,0-.8,0-1.2,0-.4,0-.7,0-1,0-.3,0-.6,0-.9,0-.3,0-.5,0-.7,0-.2,0-.3,0-.4,0-.1,0-.2,0-.2,0,0,0,0,0,.2,0,.1,0,.2,0,.4,0,.2,0,.4,0,.7,0s.6,0,.9,0c.3,0,.7,0,1,0,.4,0,.8,0,1.2,0,.4,0,.8,0,1.2,0h2.6c.4,0,.8,0,1.2,0,.4,0,.8,0,1.2,0,.4,0,.7,0,1.1,0,.3,0,.6,0,.9,0s.5,0,.7,0c.2,0,.3,0,.4,0,.1,0,.2,0,.2,0Z"/>
        <path class="cls-2" d="M13.2,3s0,0-.1,0c0,0-.2.1-.3.2-.1,0-.3.2-.5.3,0,0,0,0,0,0,0,0,0,0,0,0,0,0-.1,0-.1,0-.1,0-.2,0-.3.2-.1,0-.2,0-.4.1,0,0,0,0-.1,0h0s0,0,0,0c0,0-.1,0-.2,0-.1,0-.3,0-.4.1-.1,0-.3,0-.5,0-.3,0-.6,0-1,.1-.2,0-.3,0-.5,0s-.3,0-.5,0c-.2,0-.3,0-.5,0-.2,0-.3,0-.5,0-.3,0-.7,0-1-.1-.2,0-.3,0-.5,0-.2,0-.3,0-.4-.1,0,0-.1,0-.2,0h0s0,0,0,0h0s0,0,0,0c-.1,0-.2,0-.4-.1-.1,0-.2,0-.3-.2,0,0,0,0-.2,0,0,0,0,0,0,0s0,0,0,0c-.2,0-.3-.2-.5-.3-.1,0-.2-.2-.3-.2,0,0,0,0,0,0,0,0,0,0,.1,0s.2,0,.3.1c0,0,.1,0,.2,0,0,0,.2,0,.3,0,0,0,.2,0,.3,0,.1,0,.2,0,.3,0,.1,0,.2,0,.4,0,0,0,0,0,0,0h0c0,0,.1,0,.2,0,.1,0,.3,0,.4,0,.2,0,.3,0,.4,0,0,0,.2,0,.2,0,0,0,0,0,.1,0h.1c.2,0,.3,0,.5,0,.2,0,.3,0,.5,0,.2,0,.3,0,.5,0,.2,0,.3,0,.5,0,.2,0,.3,0,.5,0,.2,0,.3,0,.5,0h.1s0,0,.1,0c0,0,.1,0,.2,0,.1,0,.3,0,.4,0,.1,0,.3,0,.4,0,0,0,.1,0,.2,0h0s0,0,.1,0c.1,0,.2,0,.4,0s.2,0,.3,0c.1,0,.2,0,.3,0,0,0,.2,0,.3,0s.2,0,.2,0c.1,0,.2,0,.3-.1,0,0,.1,0,.1,0h0Z"/>
        <path class="cls-2" d="M8.1,14.6s0,0,0-.2c0-.1,0-.2,0-.4,0-.2,0-.4,0-.7s0-.6,0-.9c0-.3,0-.7,0-1.1s0-.8,0-1.2c0-.4,0-.8,0-1.2v-2.6c0-.4,0-.8,0-1.2,0-.4,0-.8,0-1.2,0-.4,0-.7,0-1,0-.3,0-.6,0-.9,0-.3,0-.5,0-.7,0-.2,0-.3,0-.4,0-.1,0-.2,0-.2,0,0,0,0,0,.2,0,.1,0,.2,0,.4,0,.2,0,.4,0,.7,0,.3,0,.6,0,.9,0,.3,0,.7,0,1,0,.4,0,.8,0,1.2,0,.4,0,.8,0,1.2v2.6c0,.4,0,.8,0,1.2,0,.4,0,.8,0,1.2,0,.4,0,.7,0,1.1,0,.3,0,.6,0,.9s0,.5,0,.7c0,.2,0,.3,0,.4,0,.1,0,.2,0,.2Z"/>
        <path class="cls-2" d="M8.1.7s0,0-.2,0c0,0,0,0-.1,0,0,0,0,0-.2,0,0,0-.1,0-.2,0,0,0-.1,0-.2,0-.3,0-.6.1-1,.3-.4.1-.8.3-1.2.6s-.9.6-1.3,1c-.2.2-.4.4-.6.6h0c0,0,0,.2,0,.2,0,0,0,.1-.1.2,0,.1-.2.2-.3.4-.3.5-.6,1.1-.8,1.7,0,.3-.2.6-.2.9,0,.3,0,.7,0,1v.2c0,0,0,.2,0,.2,0,.2,0,.3,0,.5,0,.3.1.6.2.9.2.6.4,1.2.8,1.7,0,.1.2.3.3.4,0,0,0,.1.1.2,0,0,0,.1.1.2,0,0,0,.1.1.2,0,0,0,.1.2.2,0,0,0,.1.2.2,0,0,0,.1.2.1.4.4.8.7,1.3.9s.8.4,1.2.6.7.2,1,.3c0,0,.1,0,.2,0,0,0,.1,0,.2,0,0,0,.1,0,.2,0s0,0,.1,0c.2,0,.2,0,.2,0h-.7c0,0-.1,0-.2,0-.3,0-.7,0-1.1-.2-.4-.1-.9-.3-1.3-.5s-1-.5-1.4-.9c0,0-.1-.1-.2-.1,0,0-.1-.1-.2-.2,0,0-.1-.1-.2-.2,0,0-.1-.1-.2-.2-.2-.2-.4-.5-.6-.8-.2-.3-.4-.6-.5-.9-.1-.3-.3-.6-.4-1-.1-.3-.2-.7-.2-1,0-.2,0-.4,0-.5,0,0,0-.2,0-.3v-.3c0-.3,0-.7,0-1.1,0-.3.1-.7.2-1s.2-.7.4-1,.3-.6.5-.9c0-.1.2-.3.3-.4,0,0,0-.1.2-.2h0c0,0,0-.2,0-.2.2-.2.4-.5.7-.6.5-.4.9-.7,1.4-.9.5-.2.9-.4,1.3-.5s.8-.2,1.1-.2c0,0,.1,0,.2,0h.7,0Z"/>
        <path class="cls-2" d="M8.1,14.6s0,0,.2,0h0s0,0,0,0c0,0,0,0,.1,0,0,0,0,0,.1,0s.1,0,.1,0c.2,0,.4-.2.7-.4.2-.2.5-.5.7-.8.2-.3.4-.7.6-1.1,0-.1,0-.2.1-.3s0-.2.1-.3c0-.1,0-.2.1-.4,0-.1,0-.2,0-.4.1-.5.2-1,.3-1.5,0-.3,0-.5,0-.8,0-.1,0-.3,0-.4v-.4c0-.5,0-1,0-1.6,0-.5-.1-1-.3-1.5,0-.1,0-.2,0-.3s0-.2-.1-.3h0s0,0,0,0h0c0-.1,0-.2,0-.2,0-.1,0-.2-.1-.3-.2-.4-.4-.8-.6-1.1-.2-.3-.4-.6-.7-.8-.2-.2-.5-.4-.7-.4,0,0-.1,0-.1,0,0,0,0,0-.1,0h-.1s0,0,0,0h0c-.1,0-.2,0-.2,0h.2c.1,0,.3,0,.5,0,.2,0,.5.2.8.4.3.2.6.5.8.8.3.3.5.7.7,1.1,0,.1.1.2.1.3,0,0,0,.1,0,.2h0c0,0,0,.1,0,.1h0c0,.2,0,.3.1.4,0,.1,0,.2.1.4,0,.1,0,.2.1.4,0,0,0,.1,0,.2s0,.1,0,.2c0,.1,0,.3,0,.4,0,.1,0,.3,0,.4,0,.5.1,1.1.1,1.6v.4c0,.1,0,.3,0,.4,0,.3,0,.5,0,.8,0,.1,0,.3,0,.4,0,.1,0,.3,0,.4,0,0,0,.1,0,.2,0,0,0,.1,0,.2,0,.1,0,.2-.1.4,0,.2,0,.3,0,.4,0,.1,0,.2-.1.4,0,.1,0,.2-.1.4,0,.1-.1.3-.2.4-.2.4-.3.7-.6,1-.2.3-.7.6-.9.8-.3.2-.5.3-.8.4-.2,0-.4,0-.5,0h-.2Z"/>
        <path class="cls-2" d="M8.1.7s0,0-.2,0h0s0,0,0,0c0,0,0,0-.1,0,0,0,0,0-.1,0,0,0,0,0-.2,0-.2,0-.4.2-.7.4-.2.2-.5.5-.7.8s-.4.7-.6,1.1c0,0,0,.2-.1.3s0,.2-.1.3c0,.1,0,.2,0,.4,0,.1,0,.2,0,.3,0,.4-.1,1-.2,1.5,0,0,0,.2,0,.2,0,.5,0,.8,0,1.3s0,1,0,1.5.2,1,.3,1.5c0,.1,0,.2,0,.4,0,.1,0,.2,0,.3h0s0,0,0,0h0c0,.1,0,.2,0,.2,0,.1,0,.2.1.3.2.4.8.6,1,.9.2.3,0,.8.3,1s.5.4.7.4c0,0,0,0,.2,0s0,0,.1,0c0,0,0,0,.1,0,0,0,0,0,0,0h0c.1,0,.2,0,.2,0h-.2c-.1,0-.3,0-.5,0-.2,0-.5-.2-.8-.4-.3-.2-.6-.5-.8-.8-.3-.3-.5-.7-.7-1.1,0-.1,0-.2-.2-.3,0,0,0-.1,0-.2h0c0,0,0-.1,0-.1h0c0-.2,0-.3-.1-.4,0-.1,0-.2-.1-.4s0-.2,0-.4c0,0,0-.1,0-.2,0,0,0-.1,0-.2,0-.1,0-.3,0-.4s0-.3,0-.4c0-.5,0-1.1-.1-1.6,0-.5,0-1.1.1-1.6,0-.1,0-.3,0-.4,0-.1,0-.3,0-.4,0,0,0-.1,0-.2s0-.1,0-.2c0-.1,0-.2,0-.4s0-.2.1-.4,0-.2.1-.3c0-.1,0-.2.1-.3,0-.1,0-.2.2-.3.2-.4.4-.8.7-1.1.2-.3.5-.6.8-.8.3-.2.5-.3.8-.4s.4,0,.5,0h.2Z"/>
        <path class="cls-2" d="M8.3,14.6s0,0,0,0h0s0,0,.1,0h0c0,0,.1,0,.2,0,0,0,.1,0,.2,0,0,0,.1,0,.2,0,.3,0,.6-.1,1-.3.4-.1.8-.3,1.2-.6.4-.2.9-.6,1.3-.9.2-.2.4-.4.6-.6h0c0,0,0-.2,0-.2,0,0,0-.1.1-.2,0-.1.2-.2.3-.4.3-.5.6-1.1.8-1.7,0-.3.2-.6.2-.9,0-.2,0-.3,0-.5,0,0,0-.2,0-.2v-.2c0-.3,0-.7,0-1,0-.3-.1-.6-.2-.9-.2-.6-.4-1.2-.8-1.7,0-.1-.2-.3-.3-.4,0,0,0-.1-.1-.2,0,0,0-.1-.1-.2,0,0-.1-.1-.1-.2,0,0-.1-.1-.1-.2,0,0-.1-.1-.1-.2,0,0-.1,0-.1-.2-.4-.4-.8-.8-1.3-1h0c-.4-.2-.9-.4-1.2-.6-.4-.1-.7-.2-1-.3,0,0-.1,0-.2,0,0,0-.1,0-.2,0,0,0-.1,0-.2,0h0s0,0-.1,0h0s0,0,0,0h.5c0,0,.1,0,.2,0,.3,0,.7,0,1.1.2.4.1,1.2.4,1.7.6h0c.5.3.6.4,1,.8,0,0,.1,0,.2.2,0,0,.1,0,.2.2,0,0,.1.1.2.2,0,0,.1.1.2.2.2.2.4.5.6.8s.4.6.5.9.3.6.4,1c.1.3.2.6.3,1,0,.3,0,.8,0,1.1v.3c0,0,0,.2,0,.3,0,.2,0,.4,0,.5,0,.4-.1.7-.2,1-.1.3-.2.8-.4,1.1-.1.3-.3.5-.5.7,0,.1-.2.3-.3.4,0,0-.1.1-.1.2h0c0,0,0,.2,0,.2-.2.2-.4.4-.7.6-.5.4-.9.7-1.4.9-.5.2-.9.4-1.3.5-.4.1-.8.2-1.1.2,0,0-.1,0-.2,0h-.5,0Z"/>
        <path class="cls-2" d="M3,12.3s0,0,0,0c0,0,.2-.1.3-.2s.3-.2.5-.3c0,0,0,0,0,0s0,0,0,0c0,0,.1,0,.1,0,.1,0,.2-.1.3-.1.1,0,.2,0,.4-.1,0,0,0,0,0,0h0s0,0,0,0c0,0,.1,0,.2,0,.1,0,.3,0,.4-.1.2,0,.3,0,.5,0,.3,0,.6-.1,1-.1.2,0,.3,0,.5,0s.3,0,.5,0c.2,0,.3,0,.5,0,.2,0,.3,0,.5,0,.3,0,.7,0,1,.1.2,0,.3,0,.5,0,.1,0,.3,0,.4.1,0,0,.1,0,.2,0h0s0,0,0,0h0s0,0,.1,0c.1,0,.2,0,.4.1.1,0,.2.1.3.1,0,0,.1,0,.1,0,0,0,0,0,0,0,0,0,0,0,0,0,.2.1.3.2.5.3s.2.1.3.2c0,0,.1,0,.1,0,0,0,0,0-.1,0s-.2,0-.3-.1c0,0-.1,0-.2,0,0,0-.2,0-.3,0,0,0-.2,0-.3,0-.1,0-.2,0-.3,0s-.2,0-.4,0c0,0,0,0-.1,0h0c0,0-.1,0-.2,0-.1,0-.3,0-.4,0-.1,0-.3,0-.4,0,0,0-.1,0-.2,0,0,0,0,0-.1,0h-.1c-.1,0-.3,0-.5,0-.1,0-.3,0-.5,0-.2,0-.3,0-.5,0-.2,0-.3,0-.5,0-.2,0-.3,0-.5,0-.2,0-.3,0-.5,0h-.1s0,0-.1,0c0,0-.2,0-.2,0-.2,0-.3,0-.4,0-.2,0-.3,0-.4,0,0,0-.1,0-.2,0h0s0,0,0,0c-.1,0-.2,0-.4,0s-.2,0-.3,0c-.1,0-.2,0-.3,0,0,0-.2,0-.3,0s-.2,0-.2,0c-.1,0-.2.1-.3.1s-.1,0-.1,0h0Z"/>
        <path class="cls-2" d="M10.7,3.1s0,0,0,0h0s0,0,0,0c0,0,0,0-.1,0,0,0,0,0-.1,0,0,0-.1-.2-.3-.2h0c-.3,0-.6,0-.7.3-.3.2-.5.6-.4.9,0,.3.1.7.3,1.1.1.2.2.4.2.6,0,0,0,0,0,0h0s0,0,0,0h0c0,0,0-.1,0-.2h0c0,0-.2,0-.2.2h0c-.1,0-.3.1-.2.3s.3.3.4.3h.1s0,0,0,0c0,0,.1,0,.2,0,.1,0,.4,0,.5-.4,0,0,0-.2,0-.2h0c0-.2,0-.2,0-.2,0-.2,0-.3-.1-.5-.1-.2-.2-.5-.2-.8h0c0-.2.2-.7.3-.8,0,0,0,.1,0,.2,0,0,0,0,0,0h.1c.1-.2.2-.3.3-.4h0ZM9.2,5.8s0,0,0,0h0c0,0,0-.1,0-.2,0,0,0,0,0,0s0,0,0,0c0,0,0,0,0,.1h0Z"/>
        <path class="cls-1" d="M14.2,6.9c-.1,0-.4,0-.5,0,0,0-.1.2-.1.3,0,.1-.1.2-.6.4-.2,0-.3,0-.4-.2-.1-.5-.1-.5-.5-.9-.2-.2-.3-.3-.2-.3h0c.2,0,.5,0,.7-.2,0,0,0,0,0,0,0,0,.1,0,.1-.1h0c.7-.6.2-.9.3-1.6,0,0,0,0,0-.1v-.2c0-.2,0-.2,0-.3-.3-.7-.9-.9-1.6-.9-.6,0-1,0-1.4.7h0c-.2.3-.4.7-.4,1,0,0,0,.3,0,.4h0s0,0,0,0h0c0,.2,0,.3.2.5,0,0,0,0,0,0,.1.1.2.3.5.5,0,0,.2,0,.3.1,0,0,0,.1,0,.2-.8.2-2.2.6-2.3,1.1,0,.5-.8.3-.7,1.3,0,.3.3.2.5.1.5-.2.3-.3.3-.6,0-.6.8-1,1.4-1.1,0,0,.1,0,0,.1-.1.3,0,1-.4,1.6-.6.8-1.4.6-1.2.7.2.1.8.9.1,1-.5,0-.4-.7-.6-.8-.2,0-.6.5-.7.9,0,.3,0,.5,0,.6,0,0,0,.1,0,.1.2,0,.3-.3.4-.6,0,0,.1,0,.1,0,.3.5.6.9,1.1.2.1-.2.6-.4.8-.2.4.3,1.5.5,2,0,0,0,.1,0,.1,0,0,.1.2.3.3.6.2.4,0,.8.2.9,0,0,.5,0,.8-.1,1.2-.7.3-1-.3-.7,0,0-.1,0-.1,0,0-.2,0-.6,0-.8,0-.3-.5-.6-.3-.6.2,0,.4-.2.2-.3-.2,0-1-.6-1.1-1,0-.3.1-.7.2-.9,0,0,0,0,.1,0,.5.5.9.5,1.4-.2,0,0,0,0,0,0,.1,0,.4-.1.5-.4,0-.2,0-.3,0-.4h0Z"/>
        <path class="cls-1" d="M6.1,9.4c.7.5.6,1.5.7,2.3,0,0,.3-.2.8.1.3.2-1.7.9-1.6.4.1-.9-.1-2.2-1.2-2.5,0,0,0,0,0,0-.2.9-1.1,1.4-2,1.1-.4-.2-.7-.7-.8-.6,0,0-.3.4-.3.6s-.3.4-.3-.3c0-.4.2-.9.3-1.2.4-.6.4,0,.7.5.2.2.6.4.9.4.4-.1.7-.6.7-.8s0-.3.2-.9c.2-.4.1-.8.2-.9,0,0,0,0,0,0-.2,0-.9.2-1.2.4-.3.3-.2.1-.4,0-.3-.1-.2.9-.8.3-.5-.4.1-.9.4-.9,0,0,.3,0,.4-.2.3-.6,1.5-.5,2.1-.7.2,0,.3-.2.3-.2,0,0,0,0,0,0,0,0,0,0,0,0h0c-.5-.1-.5-.1-.8-.3,0,0,0,.2-.2.1,0,0-.3-.2-.3-.6,0-.3-.2-.8,0-1.4.2-.6.8-1.2,1.6-1.4,0,0,0,0,0,0h0c0,0,0,0,0,0,.2-.2.4-.3.6-.3,0,0,0,0,0,.1,0,0,0,0,0,.1s0,0,0,0c0,0,.2,0,.4,0,0,0,0,0,0,0h0s0,0,0,0c.6,0,0,.5,1,.4.3,0,.2.4-.2.7,0,0,0,0,0,0-.2.5.1,1.1,0,1.5-.2.7-.8.8-1.4.9,0,0,0,0,0,0,.6.3.3.8.9,1.3.2.2.4.4.8.6.2.1.1.3.2.2.9-.8,1.1.9.3.6-.1,0-.3-.1-.4-.1-.6.2-.5.2-1.2-.2-.2-.1-.4-.4-.5-.5,0-.4-.4.9,0,1.3h0Z"/>
        <path class="cls-3" d="M25.2,2.7s0,.2,0,.3c0,0,0,.1,0,.2,0,0,.1.2.2.2,0,0,0,0,.1,0h0s0,0,0,0c0,0,0,0,0,0,0,0,0,0,0,0,0,0,.1,0,.2,0h0s0,0,0,0c0,0,0,0,0,0,0-.1,0-.1,0-.2,0,0,0,0,0,0,0,0,0,0-.1-.1,0,0,0,0,0,0,0,0,0,0,0,0h0c0,0-.2-.2-.3-.2,0,0,0,0-.1,0,0,0,0,0,0,0s0,0,0,0h0Z"/>
        <path class="cls-3" d="M25.3,2.4s0,0,0,0c0,0,0,0,0,0,0,0,0,.1.2,0,0,0,0,0,0,0,0,0,.1,0,.1-.1.1-.1,0-.2.2-.2,0,0,0,0,0,0,0,0,0,0,0,0s0,0,0,0c0,0,0-.1.2,0,0,0,.1.1.2,0,0,0,0,0,0-.1h0c0,0-.3,0-.4,0-.2,0-.4.2-.5.3h0c0,.1-.1.2-.2.3,0,0,0,0,0,0h0Z"/>
        <path class="cls-3" d="M26.5,3.8c-.2,0-.3,0-.5,0,0,0-.2,0-.3-.1,0,0,0,0,0,0h0,0c.1,0,.1,0,.2,0h0c0,0-.1,0-.2,0,0,0,0,0,0,0,0,0,0,0,0,0,0,0,0,0,0,0h0c0,0-.1,0-.2-.2,0,0,0,0,0,0s0-.1,0-.1c0,.1.1.3.2.3,0,.1.1.2.2.3,0,0,.3.1.4.1.2,0,.3,0,.5,0h0Z"/>
        <path class="cls-3" d="M25.2,2.4s0-.1,0-.2c.1-.3.4-.5.7-.5.2,0,.2,0,.4,0,0,0-.1,0-.2,0-.3,0-.5.1-.7.3,0,0,0,0-.1.2,0,0-.1.2-.2.4h0Z"/>
        <path class="cls-3" d="M26.9,1.9h0s0,0,0,0c0,0,0,0,0,0,0,0,0,0,0,0h0Z"/>
        <path class="cls-3" d="M26.6,1.9s0,0,0,0c0,0,0,0-.1.1h0c0,.1,0,0,0,0-.1,0-.2.2-.2.2,0,0,0,0,0,0,0,0,0,0,0,0s0,0,0,0c0,0,0,.2,0,.2,0,0,0,0,0,0,0,0,0,0,0,0,.1,0,.1,0,.2,0,0,0,0,0,0,0,0,0,0-.1.1-.1,0,0,0,0,.1,0,0,0,0,0,0,.2v.2c0,0-.1,0-.2,0,0,0,0,0,0,0,0,0,0,0,0,.1,0,.2.1.3.3.2,0,0,.1,0,.1,0,0,0,0,0,.1,0,0,0,0,0,.1,0,.1,0,.1,0,.2-.1s0,0,0,0c0,0,0,0,0-.1,0,0,0-.2,0-.3,0-.2,0-.4-.2-.6,0,0-.1-.2-.2-.2,0,0,0,0,0,0h0s0,0,0,0c0,0,0,0,0,0s0,0,0,0c0,0,0,0,0,0h0Z"/>
        <path class="cls-5" d="M40.9,4h0c.5,0,1,.4,1,1v4.6c0,.6,0,1.1.2,1.4.2.5.7.8,1.5.8s1.2-.2,1.5-.8c.2-.3.2-.7.2-1.4v-4.6c0-.5.4-1,1-1h0c.5,0,1,.4,1,1v4.6c0,1-.2,1.7-.4,2.2-.5,1-1.6,1.5-3.2,1.5s-2.6-.5-3.2-1.5c-.3-.5-.4-1.3-.4-2.2v-4.6c0-.5.4-1,1-1h0Z"/>
        <path class="cls-5" d="M54.7,9.1c-.5.4-1.3.7-2.3.7h-1c-.5,0-1,.4-1,.9v1.4c0,.5-.4.9-1,.9h0c-.5,0-1-.4-1-.9v-7.2c0-.5.4-1,1-1h3c.9,0,1.6.2,2.2.7s.8,1.2.8,2.2-.3,1.8-.8,2.3ZM53.2,5.8c-.2-.2-.6-.3-1-.3h-.8c-.5,0-1,.4-1,.9v.8c0,.5.4.9,1,.9h.8c.4,0,.8-.1,1-.3.2-.2.4-.6.4-1s-.1-.8-.4-1Z"/>
        <path class="cls-5" d="M22.6,5.3c-1,1.4-1.8,2.5-2.2,3.4l-.2.5h0v.2s0,0,.1,0c0,0,.2,0,.4,0,.1,0,.2,0,.3,0,.3,0,.6.1.9.2s.5.2.7.2c.2,0,.5.2.8.3.4.1.6.2.8.3,0,0,.1,0,.2.2,0,0,0,.1,0,.2s0,.1-.1.2c0,0-.1,0-.2,0l-.8-.3-.8-.3c-.2,0-.4-.1-.7-.2s-.6-.1-.9-.2c0,0-.1,0-.2,0-.2,0-.3,0-.4,0h0c0,1.1,0,1.9.1,2.5,0,0,0,.1,0,.2,0,0-.1.1-.2.1s-.1,0-.2,0c0,0-.1-.1-.1-.2,0-.5,0-1.4-.1-2.7,0,0,0,0-.1-.1,0,0,0-.1,0-.2,0,0,0,0,0,0,0,0,0,0,0,0,0,0,0,0,0-.1h0c0-.7,0-1.1,0-1.5,0-.3,0-1,0-2,0-.9,0-1.5,0-2,0,0,0-.2,0-.2,0,0,.1-.1.2-.1s.1,0,.2,0c0,0,.1.1.1.2,0,.5,0,1.2,0,2.1,0,1,0,1.7,0,2v.4c.5-.8,1.2-1.8,2.1-3.1,0,0,.1,0,.2-.1s.1,0,.2,0,.1.1.1.2,0,.2,0,.2h0Z"/>
        <path class="cls-5" d="M26.6,4.5c.2,2.1.3,4.9.3,8.3s0,.1,0,.2-.1,0-.2,0-.1,0-.2,0,0-.1,0-.2c0-3.5-.1-6.2-.3-8.3,0,0,0-.2,0-.2,0,0,.1,0,.2-.1,0,0,.2,0,.2,0,0,0,.1.1.1.2h0Z"/>
        <path class="cls-5" d="M32,3.4c0,.3,0,.5,0,.8v1c0,.4,0,.7,0,.8,0,.7,0,2.8,0,4.3,0,1.5,0,1.7,0,2.4s0,.1,0,.2-.1,0-.2,0-.1,0-.2,0,0-.1,0-.2c0-.5,0-.1,0-.7-.5.2-1,.2-1.6,0-.4-.1-.7-.3-1-.5s-.4-.5-.5-.8-.1-.6,0-.9c0-.3.1-.6.3-.8s.3-.5.6-.6.5-.3.8-.3c.5,0,1.1.2,1.6.7,0-.7,0-2.2,0-2.8s0-.4,0-.8v-1c0-.3,0-.5,0-.8,0,0,0-.2,0-.2,0,0,.1,0,.2-.1,0,0,.2,0,.2,0,0,0,.1.1.1.2h0ZM31.4,9.6c-.5-.6-1.1-.9-1.6-.9-.4,0-.7.2-.9.6-.1.2-.2.4-.2.6,0,.2,0,.4,0,.6s.2.4.4.6c.2.2.4.3.7.4.6.2,1,.1,1.5-.1,0,0,0,0,0,0,0-.2,0-.5,0-.9,0-.4,0-.6,0-.8h0s0,0,0,0Z"/>
        <path class="cls-5" d="M36.3,5.8c-.1-.4-.3-.7-.6-.9s-.5-.3-.8-.3c-.3,0-.5.2-.8.4s-.4.6-.4,1c0,.5,0,.9,0,1.2,0,.2.2.4.3.6s.3.5.5.8c.2.3.4.6.5.7.3.5.5.9.7,1.3.2.4.2.8.1,1.3,0,.5-.3.8-.7,1.1-.3.2-.6.2-.9.2s-.5-.2-.6-.5c-.3-.3-.4-.8-.5-1.4,0,0,0-.1,0-.2,0,0,.1-.1.2-.1,0,0,.2,0,.2,0s.1.1.1.2c0,.5.2.9.4,1.1,0,.1.2.2.3.2.1,0,.3,0,.5-.1.2-.1.4-.4.4-.6,0-.3,0-.6-.1-1s-.3-.7-.6-1.1c0-.1-.2-.3-.5-.7s-.5-.6-.6-.9c-.2-.2-.3-.5-.3-.7-.2-.4-.2-.9,0-1.6,0-.6.3-1,.6-1.3.3-.3.7-.5,1.1-.6.4,0,.8,0,1.2.4.4.3.6.7.8,1.2,0,0,0,.2,0,.2s0,.1-.2.2c0,0-.2,0-.2,0,0,0-.1,0-.2-.2h0Z"/>
      </g>
    </g>
  </g>
</svg>