<svg xmlns="http://www.w3.org/2000/svg" height="48px" viewBox="30 25 75 80" width="48px" fill="#aadaeb">
  <path d="M86.175,34.46h-37.36c-3.61,0-6.54,2.94-6.54,6.55v50.03c0,5.24,4.26,9.5,9.5,9.5h34.21c3.55,0,6.48-2.88,6.55-6.42l.19-10.03v-43.08c0-3.61-2.94-6.55-6.55-6.55ZM87.535,94.02c-.02.84-.71,1.52-1.55,1.52h-34.21c-2.49,0-4.5-2.02-4.5-4.5s2.01-4.5,4.5-4.5h35.9l-.14,7.48ZM87.725,81.54h-35.95c-1.63,0-3.16.41-4.5,1.13v-41.66c0-.85.69-1.55,1.54-1.55h21.7v12.41c0,1.21,1.48,1.77,2.29.88l2.5-2.78c.52-.58,1.42-.58,1.94,0l2.5,2.78c.81.89,2.29.33,2.29-.88v-12.41h4.14c.85,0,1.55.7,1.55,1.55v40.53Z"/>
</svg>
