<?xml version="1.0" encoding="UTF-8"?>
<svg xmlns="http://www.w3.org/2000/svg" version="1.1" viewBox="0 0 135 135">
  <defs>
    <style>
      .cls-1222 {
        fill: #63557f;
      }
    </style>
  </defs>
  <!-- Generator: Adobe Illustrator 28.7.4, SVG Export Plug-In . SVG Version: 1.2.0 Build 166)  -->
  <g>
    <g id="Layer_1">
      <path class="cls-1222" d="M81.121,58.827v-.755c0-11.57-9.411-20.981-20.981-20.981s-20.972,9.411-20.972,20.981v26.941c0,7.111,5.776,12.896,12.887,12.896h.878c6.628,0,12.018-5.39,12.018-12.018,0-.904.457-1.764,1.22-2.282,10.956-7.383,15.433-14.801,14.95-24.782ZM63.722,79.974c-1.984,1.334-3.16,3.547-3.16,5.917,0,4.205-3.424,7.628-7.629,7.628h-.878c-4.688,0-8.498-3.819-8.498-8.506v-26.941c0-9.147,7.435-16.591,16.583-16.591s16.591,7.444,16.591,16.591v.922c.421,8.384-3.353,14.458-13.01,20.981ZM72.79,58.52v1.264c0,.114-.009.219-.026.334-.913,5.899-3.766,10.324-8.471,13.141-1.045.623-2.388.29-3.011-.755-.623-1.036-.29-2.388.755-3.011,3.538-2.116,5.627-5.355,6.364-9.885v-1.089c0-4.266-3.468-7.734-7.725-7.734-2.651,0-4.986,1.334-6.382,3.371.456-.097.931-.14,1.413-.14,3.95,0,7.163,3.213,7.163,7.155v.676c0,1.211-.983,2.195-2.195,2.195-1.22,0-2.195-.983-2.195-2.195v-.676c0-1.528-1.247-2.765-2.774-2.765-1.519,0-2.765,1.238-2.765,2.765v5.943c0,.184.07.369.184.509,2.282,2.757,2.581,6.681.746,9.744l-.535.904c-.255.43-.395.922-.395,1.422,0,.184.026.378.061.562.158.772.773,1.466,1.633,1.852l.65.299c1.106.5,1.598,1.8,1.097,2.906-.369.808-1.168,1.29-2.002,1.29-.298,0-.606-.07-.904-.202l-.658-.29c-2.124-.966-3.669-2.818-4.108-4.951-.105-.483-.158-.974-.158-1.466,0-1.299.351-2.563,1.018-3.678l.535-.895c.887-1.484.737-3.371-.36-4.696-.773-.93-1.194-2.107-1.194-3.31v-8.594c0-6.681,5.443-12.123,12.123-12.123s12.114,5.443,12.114,12.123ZM87.385,55.331c.569,1.11.89,2.365.89,3.696,0,1.234-.276,2.404-.768,3.453-.637,1.356-2.442,1.653-3.502.593-.011-.011-.022-.022-.033-.033-.636-.636-.829-1.604-.445-2.417.229-.485.358-1.025.358-1.597,0-.589-.138-1.143-.382-1.637-.428-.868-.322-1.901.361-2.586.01-.01.021-.021.031-.031,1.048-1.051,2.812-.763,3.489.558ZM92.247,49.068c2.235,2.713,3.584,6.178,3.584,9.959s-1.353,7.272-3.598,9.99c-.812.983-2.303,1.044-3.204.142l-.039-.039c-.789-.789-.848-2.044-.137-2.904,1.616-1.956,2.589-4.459,2.589-7.189s-.968-5.217-2.573-7.172c-.706-.86-.646-2.113.141-2.9.01-.01.021-.021.031-.031.902-.902,2.394-.842,3.206.143Z"/>
    </g>
  </g>
</svg>