<?xml version="1.0" encoding="UTF-8"?>
<svg id="notification" xmlns="http://www.w3.org/2000/svg" version="1.1" viewBox="0 0 135 135">
  <defs>
    <style>
      .cls-1 {
        fill: #63567f;
        stroke-width: 0px;
      }
    </style>
  </defs>
  <path class="cls-1" d="M89.227,86.069c-.238-1.229-.813-2.229-1.754-3.042-1.873-1.625-3.359-3.527-4.399-5.668-.466-.961-1.288-1.536-2.21-1.536-.168,0-.337.02-.495.05-.743.168-1.348.634-1.655,1.268-.327.684-.307,1.506.06,2.249,1.308,2.695,3.082,5.033,5.261,6.956l.149.119c.297.248.367.337.297.525-.079.198-.198.248-.674.248h-43.489c-.337-.02-.456-.069-.515-.238-.059-.149-.02-.218.258-.466.892-.793,1.576-1.476,2.16-2.15,3.537-4.132,5.4-8.868,5.519-14.1.04-1.605.04-3.24.03-4.826-.01-1.011-.01-2.011-.01-3.022.01-.852.05-1.962.297-3.052,1.288-5.747,4.835-9.502,10.533-11.137.476-.139,1.021-.327,1.437-.812.684-.813.773-1.902.228-2.804-.426-.713-1.159-1.12-2.002-1.12-.258,0-.525.04-.793.109-7.025,1.932-11.643,6.441-13.743,13.406-.436,1.457-.654,3.032-.674,4.974-.01,1.011,0,2.011.02,3.022.04,2.358.079,4.786-.258,7.154-.594,4.241-2.576,7.857-5.886,10.751-1.724,1.506-2.358,3.666-1.655,5.638.763,2.111,2.596,3.379,4.915,3.379h5.281c2.031,0,4.053,0,6.104-.01.366,0,.456.069.555.426,1.189,4.36,5.162,7.501,9.661,7.639h.327c4.637,0,8.759-3.082,10.018-7.491.139-.476.277-.575.803-.575,2.081.01,4.162.02,6.242.02,1.774,0,3.537-.01,5.311-.02,1.397-.01,2.735-.674,3.676-1.813.951-1.169,1.348-2.646,1.07-4.053ZM67.171,92.162c-1.11,2.031-2.794,3.062-5.053,3.072-2.16,0-3.835-1.021-4.974-3.022-.069-.119-.109-.198-.139-.258.059,0,.149-.01.277-.01h9.72c.059,0,.178,0,.277.01-.04.079-.089.168-.109.208Z"/>
  <path class="cls-1" d="M94.855,40.281c-3.349-3.409-7.758-5.281-12.415-5.281h-.456c-4.439,0-8.858,1.823-12.148,4.994-3.478,3.349-5.38,7.897-5.38,12.782.01,9.948,7.808,17.746,17.756,17.766h.03c9.799,0,17.776-7.976,17.776-17.766,0-4.677-1.833-9.116-5.162-12.495ZM87.245,64.775c-1.585.654-3.31,1.001-5.073,1.001-3.448-.01-6.698-1.367-9.136-3.825-2.477-2.477-3.825-5.777-3.815-9.294.03-7.114,5.866-12.911,13.02-12.911h.119c7.213.069,12.871,5.767,12.891,12.99.01,3.498-1.318,6.768-3.745,9.195-1.219,1.229-2.675,2.18-4.261,2.844Z"/>
</svg>