<?xml version="1.0" encoding="UTF-8"?>
<svg id="notification" xmlns="http://www.w3.org/2000/svg" version="1.1" viewBox="15 20 100 100">
  <defs>
    <style>
      .cls-1 {
        fill: #63567f;
        stroke-width: 0px;
      }
    </style>
  </defs>
  <path class="cls-1" d="M89.23,86.07c-.03-.15-.07-.3-.11-.45-.04-.14-.08-.28-.13-.42-.12-.32-.27-.63-.46-.93-.09-.16-.2-.31-.32-.46-.08-.11-.17-.22-.27-.33-.05-.05-.09-.09-.13-.14-.11-.1-.22-.21-.34-.31-.33-.28-.64-.58-.94-.88-.3-.3-.6-.61-.87-.93-.11-.11-.21-.23-.31-.35-.12-.14-.24-.28-.35-.43-.03-.03-.06-.07-.09-.11-.17-.22-.33-.44-.48-.67-.18-.24-.35-.49-.5-.74-.16-.25-.31-.51-.45-.77-.15-.26-.29-.52-.41-.79-.02-.03-.04-.06-.05-.09-.76-1.58-1.27-3.28-1.53-5.09-.34-2.37-.3-4.8-.26-7.16.02-1.01.03-2.01.02-3.02-.02-1.94-.23-3.52-.67-4.97-2.447-8.065-10.1-14.422-18.779-14.167-8.521.251-15.653,6.166-18.081,14.166-.44,1.45-.66,3.03-.68,4.97-.01,1.01,0,2.01.02,3.02.04,2.36.08,4.79-.25,7.16-.25,1.78-.75,3.44-1.48,4.99-.17.37-.36.73-.57,1.08-.15.29-.33.58-.52.86-.12.18-.24.37-.37.55-.16.23-.32.45-.48.67-.04.03-.06.06-.08.1-.18.22-.36.44-.55.65-.38.45-.79.88-1.23,1.3-.23.22-.46.44-.71.65-.03.03-.07.06-.1.09-.09.08-.17.16-.25.24-.2.2-.38.42-.53.64-.16.23-.3.45-.42.69-.08.16-.15.33-.21.5,0,.01-.01.03-.01.04-.05.13-.09.26-.12.39-.04.15-.08.3-.11.45-.03.13-.05.27-.06.4-.07.61-.01,1.23.17,1.82.02.11.06.22.1.32.15.42.36.82.62,1.2.08.1.16.21.24.31.12.14.24.28.37.4.13.13.26.25.4.36.11.09.22.16.33.23.07.05.15.1.22.14.16.1.33.18.52.27.52.22,1.09.36,1.7.4.05.01.09.01.14.01.88,0,1.77.01,2.65.01h2.99c1.9,0,3.79,0,5.71-.01h.39c.699,0,.754,1.124.977,1.65.341.805.786,1.565,1.314,2.261,1.031,1.357,2.387,2.471,3.936,3.185,2.794,1.288,6.164,1.252,8.93-.095,1.614-.786,3.005-2.01,4.022-3.486.521-.756.946-1.58,1.253-2.446.288-.813.269-1.07,1.147-1.07,1.91.01,3.81.01,5.7.01h2.99c.88,0,1.77-.01,2.65-.01.05,0,.09-.01.14-.01.61-.04,1.18-.18,1.71-.41.18-.08.35-.16.51-.26.07-.04.15-.09.22-.14.11-.07.22-.15.33-.23.14-.11.27-.23.4-.36.13-.12.25-.26.37-.4.09-.12.18-.24.26-.36.08-.11.15-.22.21-.33.03-.04.05-.07.07-.11.1-.19.19-.39.27-.6.02-.05.04-.1.06-.15.01-.02.02-.05.02-.07.08-.24.15-.47.19-.71.1-.57.1-1.15-.01-1.72ZM67.128,92.205c-.119.622-1.5,1.903-1.775,2.071-.941.576-2.118.976-3.206.975-1.065,0-2.147-.354-3.055-.898-.416-.249-2.371-1.696-1.9-2.348.209-.289,1.885-.08,2.251-.082l2.435-.018c1.624-.012,3.247-.024,4.871-.035.321-.002.419.131.379.336ZM84.49,87c-.04.1-.09.16-.2.19-.02.01-.05.02-.08.02-.03.01-.07.02-.11.02s-.08.01-.12.01h-43.66c-.04,0-.08,0-.11-.01h-.03c-.06-.01-.11-.02-.16-.03q-.01-.01-.02-.01c-.03-.01-.05-.02-.07-.03-.06-.03-.1-.09-.13-.16-.02-.05-.03-.09-.01-.13,0-.02,0-.04.01-.06.01-.02.02-.05.04-.07.04-.08.14-.16.27-.27l.14-.11.01-.01c.72-.64,1.4-1.32,2.03-2.05.2-.23.39-.47.57-.7.21-.27.41-.53.61-.8.19-.27.38-.54.56-.81.37-.54.71-1.1,1.02-1.68.16-.3.32-.61.47-.92,1.41-2.82,2.15-5.87,2.22-9.11.04-1.6.04-3.24.03-4.82-.01-1.01-.01-2.01-.01-3.02.01-.86.05-1.97.3-3.06,1.04-4.66,3.57-8.01,7.53-9.98.01-.01.03-.01.04-.02.97-.49,1.96-.87,2.96-1.13.02-.01.03-.02.04-.01,2.24-.6,4.53-.63,6.71-.11.01,0,.03,0,.04.01,1.13.26,2.24.68,3.3,1.25.02,0,.04.02.06.03,3.94,1.97,6.46,5.32,7.5,9.96.25,1.09.29,2.2.3,3.06,0,1.01,0,2.01-.01,3.02-.01,1.58-.01,3.22.03,4.82.07,3.24.81,6.28,2.21,9.11.09.18.18.36.27.53.21.42.45.84.7,1.25.13.21.26.42.39.63.41.61.84,1.21,1.31,1.8.18.23.37.47.57.7.02.03.05.05.07.08.12.14.24.28.37.42.48.53,1.04,1.07,1.73,1.67.19.15.29.24.31.34.01.02.01.04.01.06.02.04.01.08-.01.13Z"/>
</svg>
