<?xml version="1.0" encoding="utf-8"?>
<!-- Generator: Adobe Illustrator 28.0.0, SVG Export Plug-In . SVG Version: 6.00 Build 0)  -->
<svg version="1.1" id="Layer_1" xmlns="http://www.w3.org/2000/svg" xmlns:xlink="http://www.w3.org/1999/xlink" x="0px" y="0px"
	 viewBox="0 0 1200 630" style="enable-background:new 0 0 1200 630;" xml:space="preserve">
<style type="text/css">
	.st0{fill:#69C0DD;}
	.st1{fill:#FFFFFF;}
</style>
<rect class="st0" width="1200" height="630"/>
<g>
	<path class="st1" d="M706.804,313.89c0-19.209,0-38.409-0.009-57.618c0-1.698,0.026-3.388,0.941-4.884
		c1.223-1.997,3.097-2.763,5.394-2.675c5.983,0.22,11.949,0.695,17.942,0.458c2.913-0.123,5.825-0.29,8.746-0.44
		c3.291-0.176,5.632,1.267,7.013,4.215c4.593,9.776,9.169,19.552,13.718,29.337c4.4,9.459,8.755,18.936,13.128,28.404
		c2.297,4.963,4.584,9.934,6.89,14.888c0.422,0.915,0.748,2.103,2.085,1.821c1.302-0.273,1.214-1.469,1.241-2.49
		c0.238-9.503-0.502-18.936-1.505-28.386c-0.722-6.758-1.725-13.463-2.939-20.124c-1.223-6.74-2.631-13.454-4.725-20.01
		c-0.352-1.109-0.686-2.244-0.862-3.388c-0.458-3.053,1.188-5.35,4.25-5.403c7.594-0.132,15.188-0.114,22.781,0.009
		c2.825,0.044,5.218,2.288,5.931,5.042c2.737,10.603,4.945,21.303,6.538,32.144c1.469,9.996,10.401,14.748,19.737,11.923
		c4.637-1.408,7.55-4.628,9.521-9.01c4.945-10.964,13.032-18.61,24.374-22.834c4.664-1.742,9.477-2.446,14.369-2.455
		c37.538-0.053,75.066-0.079,112.604-0.009c21.153,0.035,38.69,15.205,41.779,36.077c0.748,5.06,0.589,10.19,0.545,15.302
		c-0.044,5.544,0.29,11.113-0.422,16.631c-1.434,11.096-6.344,20.405-14.985,27.586c-8.131,6.767-17.572,9.706-28.14,9.679
		c-36.948-0.088-73.905-0.062-110.853-0.018c-11.932,0.018-22.113-4.144-30.604-12.425c-3.74-3.652-6.432-8.078-8.729-12.768
		c-2.657-5.438-7.101-8.262-13.146-8.122c-5.975,0.141-10.066,3.361-12.724,8.588c-1.161,2.279-1.408,4.769-1.522,7.233
		c-0.387,7.814-2.103,15.46-2.886,23.23c-0.37,3.634-3.502,6.045-7.171,6.054c-7.083,0.018-14.167-0.044-21.25,0.018
		c-3.81,0.035-6.397-1.83-8.06-5.033c-6.503-12.486-13.067-24.946-19.367-37.538c-5.121-10.242-10.788-20.221-15.055-30.877
		c-0.466-1.161-1.188-2.182-2.596-1.83c-1.54,0.387-1.206,1.83-1.206,2.939c-0.018,21.4-0.018,42.791-0.018,64.191
		c0,6.811-1.276,8.104-7.999,8.104c-5.332,0-10.665,0.018-15.988,0c-4.875-0.018-6.679-1.786-6.723-6.828
		c-0.062-7.743-0.018-15.478-0.026-23.221c0-11.826,0-23.661,0-35.487C706.822,313.89,706.813,313.89,706.804,313.89z
		 M865.552,313.521c0,8.834-0.044,17.669,0.018,26.503c0.035,4.919,3.81,8.315,8.324,7.699c3.687-0.51,6.247-3.687,6.291-8.051
		c0.07-5.843,0.062-11.685,0-17.519c-0.018-1.672,0.598-2.376,2.297-2.367c8.175,0.035,16.358,0.044,24.532-0.009
		c1.698-0.009,2.27,0.695,2.376,2.332c0.229,3.502,0.862,6.951,2.138,10.242c2.42,6.265,6.555,10.929,12.768,13.7
		c5.992,2.675,12.301,3.027,18.672,2.543c6.617-0.502,12.733-2.455,17.66-7.224c5.464-5.297,7.418-12.099,8.078-19.35
		c0.202-2.217,0.915-2.851,3.036-2.798c5.403,0.123,10.805,0.062,16.208,0.044c1.549-0.009,3.062,0.176,4.558,0.537
		c3.617,0.88,5.834,3.704,5.834,7.409c0,3.836-2.041,6.476-5.808,7.391c-1.557,0.378-3.141,0.634-4.769,0.616
		c-3.141-0.035-6.283-0.035-9.415,0c-3.995,0.044-6.749,2.596-6.784,6.221c-0.035,3.643,2.684,6.265,6.652,6.327
		c2.921,0.053,5.843-0.044,8.764,0.026c4.496,0.114,8.887-0.51,13.146-1.909c5.957-1.953,10.63-5.473,12.029-11.879
		c1.619-7.4,0.431-13.736-5.596-18.311c-1.575-1.197-3.353-2.068-5.174-2.825c-1.373-0.572-1.346-1.144-0.264-1.953
		c0.352-0.264,0.686-0.546,1.056-0.783c9.248-5.737,9.609-22.007-2.121-27.982c-4.101-2.085-8.474-2.622-12.926-2.816
		c-8.315-0.352-16.648-0.44-24.955,0.018c-5.561,0.308-7.717,3.009-7.717,8.544c-0.009,9.855-0.018,19.71,0.009,29.565
		c0.009,2.05-0.132,4.083-0.493,6.098c-0.942,5.271-3.617,9.354-8.817,11.017c-5.904,1.892-11.747,1.681-16.639-2.789
		c-3.916-3.581-4.778-8.421-4.813-13.41c-0.079-10.075-0.026-20.15-0.026-30.225c0-2.138-0.194-4.268-1.54-6.045
		c-1.892-2.499-5.095-3.353-8.306-2.323c-2.93,0.933-4.514,3.097-4.549,6.485c-0.053,5.913-0.035,11.826-0.018,17.739
		c0.009,1.584-0.299,2.693-2.261,2.684c-8.254-0.044-16.499-0.035-24.752-0.009c-1.505,0.009-2.121-0.669-2.05-2.129
		c0.044-1.021,0.009-2.041,0.009-3.062c-0.009-4.743,0.07-9.494-0.035-14.237c-0.106-4.488-2.666-7.471-6.441-7.787
		c-4.831-0.405-8.131,2.569-8.166,7.523C865.508,295.852,865.543,304.686,865.552,313.521z"/>
	<path class="st1" d="M693.755,314.972c0.246,37.379-30.736,67.877-67.49,68.027c-37.511,0.15-68.353-30.331-68.335-67.86
		c0.018-38.154,30.982-68.036,67.974-68.045C663.257,247.069,693.852,277.699,693.755,314.972z M625.983,278.632
		c-19.833-0.343-36.508,16.111-36.596,36.068c-0.088,20.212,15.803,36.834,36.323,36.878c20.432,0.044,36.077-16.217,36.552-35.725
		C662.773,295.297,645.702,278.315,625.983,278.632z"/>
	<path class="st1" d="M253.968,380.342c-4.092,0-8.183,0-12.266,0c-5.403,0-7.312-1.443-7.955-6.863
		c-1.302-10.929-2.93-21.813-3.467-32.848c-0.308-6.344-0.792-12.689-0.554-19.024c0.431-11.21,1.082-22.412,2.684-33.552
		c0.906-6.283,1.883-12.548,3.053-18.778c0.994-5.297,2.358-10.533,3.625-15.777c0.862-3.555,3.282-5.508,6.925-5.535
		c7.083-0.053,14.167-0.062,21.25,0c3.836,0.035,5.737,2.323,4.769,6.063c-1.874,7.207-3.687,14.422-5.148,21.717
		c-1.223,6.151-2.173,12.354-2.965,18.575c-1.267,9.943-1.557,19.93-1.399,29.935c0.009,0.51,0,1.021,0.009,1.531
		c0.018,0.906,0.114,1.813,1.17,2.112c1.117,0.326,1.549-0.502,1.98-1.294c1.76-3.282,3.546-6.547,5.271-9.838
		c4.329-8.271,8.623-16.569,12.961-24.84c4.4-8.403,8.834-16.789,13.243-25.183c2.235-4.259,4.435-8.535,6.714-12.777
		c1.716-3.185,4.153-5.007,8.078-4.892c7.004,0.202,14.017,0.044,21.03,0.07c4.364,0.018,5.869,2.332,3.924,6.186
		c-5.887,11.65-11.853,23.265-17.766,34.907c-5.711,11.254-11.377,22.526-17.088,33.78c-6.406,12.618-12.847,25.227-19.27,37.837
		c-2.147,4.224-4.364,8.421-6.406,12.697c-1.839,3.854-4.831,5.702-9.028,5.711c-4.452,0.018-8.905,0-13.366,0
		C253.968,380.298,253.968,380.316,253.968,380.342z"/>
	<path class="st1" d="M443.144,382.577c-13.665-0.229-26.178-3.854-37.678-10.999c-2.297-1.425-4.628-2.772-6.511-4.752
		c-2.138-2.253-2.745-5.174-0.942-7.585c3.564-4.787,7.215-9.556,11.562-13.683c2.499-2.367,5.315-2.455,8.201-0.563
		c6.098,3.986,12.521,7.215,19.719,8.658c4.188,0.845,8.395,0.968,12.618,0.176c3.977-0.739,7.031-2.825,9.046-6.283
		c1.293-2.217,1.32-4.62,0.062-6.907c-1.513-2.763-3.722-4.769-6.555-6.221c-8.65-4.444-17.854-7.585-26.688-11.589
		c-8.597-3.898-16.305-8.887-21.197-17.264c-6.494-11.131-7.233-22.658-1.575-34.317c5.737-11.826,15.715-18.478,28.017-22.025
		c13.287-3.828,26.319-2.534,39.025,2.49c5.702,2.253,11.14,5.165,15.46,9.67c2.173,2.261,2.349,4.998,0.546,7.594
		c-2.754,3.951-5.702,7.779-9.028,11.263c-2.649,2.772-5.464,3.159-8.694,1.197c-5.904-3.599-12.257-5.79-19.121-6.459
		c-4.391-0.431-8.676,0.088-12.354,2.684c-5.438,3.845-5.508,9.626-0.422,13.964c3.309,2.816,7.347,4.127,11.245,5.755
		c8.28,3.467,16.833,6.327,24.814,10.418c14.836,7.611,22.447,20.784,20.449,37.749c-1.769,15.029-10.559,25.078-23.758,31.589
		C461.094,381.222,452.128,382.296,443.144,382.577z"/>
	<path class="st1" d="M543.482,314.779c0,18.91,0,37.819,0,56.729c0,5.702-3.045,8.746-8.755,8.755
		c-4.963,0.009-9.926,0.018-14.897,0c-5.772-0.018-8.878-3.159-8.878-8.975c0-37.67,0-75.339,0-113.009
		c0-5.922,3.097-9.01,9.037-9.028c5.112-0.009,10.225-0.026,15.328,0c5.174,0.026,8.157,3.009,8.157,8.148
		C543.482,276.528,543.473,295.658,543.482,314.779z"/>
	<path class="st1" d="M347.434,314.488c0-19.64,0-39.28,0-58.92c0-4.84,1.575-6.406,6.441-6.415c6.494-0.009,12.996-0.018,19.49,0
		c4.47,0.009,6.195,1.733,6.221,6.256c0.026,5.332,0.009,10.656,0.009,15.988c0,29.354-0.009,58.7,0.018,88.054
		c0,4.232,0.273,8.456,0.29,12.689c0.018,5.447-2.323,7.831-7.77,7.647c-5.763-0.194-11.518-0.035-17.282,0.018
		c-0.941,0.009-1.901-0.026-2.833-0.176c-3.238-0.519-4.558-2.041-4.576-5.341c-0.035-7.444-0.018-14.897-0.018-22.341
		C347.434,339.452,347.434,326.975,347.434,314.488z"/>
	<path class="st1" d="M978.147,307.211c-2.411,0-4.822-0.026-7.224,0.009c-1.425,0.026-2.173-0.484-2.156-2.024
		c0.035-3.801,0.035-7.594-0.009-11.395c-0.018-1.513,0.66-2.085,2.121-2.077c5.042,0.035,10.093-0.264,15.108,0.106
		c6.001,0.44,9.239,3.608,8.412,9.028c-0.458,3.018-2.499,5.068-5.781,5.808c-0.854,0.194-1.725,0.431-2.587,0.449
		c-2.631,0.062-5.253,0.018-7.884,0.018C978.147,307.159,978.147,307.185,978.147,307.211z"/>
</g>
</svg>
