<?xml version="1.0" encoding="utf-8"?>
<!-- Generator: Adobe Illustrator 28.0.0, SVG Export Plug-In . SVG Version: 6.00 Build 0)  -->
<svg version="1.1" id="Layer_1" xmlns="http://www.w3.org/2000/svg" xmlns:xlink="http://www.w3.org/1999/xlink" x="0px" y="0px"
	 viewBox="0 0 91.677 15.456" style="enable-background:new 0 0 91.677 15.456;" xml:space="preserve">
<style type="text/css">
	.st0{fill:#FFFFFF;}
</style>
<g>
	<path class="st0" d="M54.225,7.602c0-2.183,0-4.365-0.001-6.548c0-0.193,0.003-0.385,0.107-0.555
		c0.139-0.227,0.352-0.314,0.613-0.304c0.68,0.025,1.358,0.079,2.039,0.052c0.331-0.014,0.662-0.033,0.994-0.05
		c0.374-0.02,0.64,0.144,0.797,0.479c0.522,1.111,1.042,2.222,1.559,3.334c0.5,1.075,0.995,2.152,1.492,3.228
		c0.261,0.564,0.521,1.129,0.783,1.692c0.048,0.104,0.085,0.239,0.237,0.207c0.148-0.031,0.138-0.167,0.141-0.283
		c0.027-1.08-0.057-2.152-0.171-3.226c-0.082-0.768-0.196-1.53-0.334-2.287c-0.139-0.766-0.299-1.529-0.537-2.274
		c-0.04-0.126-0.078-0.255-0.098-0.385c-0.052-0.347,0.135-0.608,0.483-0.614c0.863-0.015,1.726-0.013,2.589,0.001
		c0.321,0.005,0.593,0.26,0.674,0.573c0.311,1.205,0.562,2.421,0.743,3.653c0.167,1.136,1.182,1.676,2.243,1.355
		c0.527-0.16,0.858-0.526,1.082-1.024c0.562-1.246,1.481-2.115,2.77-2.595c0.53-0.198,1.077-0.278,1.633-0.279
		c4.266-0.006,8.531-0.009,12.797-0.001c2.404,0.004,4.397,1.728,4.748,4.1c0.085,0.575,0.067,1.158,0.062,1.739
		c-0.005,0.63,0.033,1.263-0.048,1.89c-0.163,1.261-0.721,2.319-1.703,3.135c-0.924,0.769-1.997,1.103-3.198,1.1
		c-4.199-0.01-8.399-0.007-12.598-0.002c-1.356,0.002-2.513-0.471-3.478-1.412c-0.425-0.415-0.731-0.918-0.992-1.451
		c-0.302-0.618-0.807-0.939-1.494-0.923c-0.679,0.016-1.144,0.382-1.446,0.976c-0.132,0.259-0.16,0.542-0.173,0.822
		c-0.044,0.888-0.239,1.757-0.328,2.64c-0.042,0.413-0.398,0.687-0.815,0.688c-0.805,0.002-1.61-0.005-2.415,0.002
		c-0.433,0.004-0.727-0.208-0.916-0.572c-0.739-1.419-1.485-2.835-2.201-4.266c-0.582-1.164-1.226-2.298-1.711-3.509
		c-0.053-0.132-0.135-0.248-0.295-0.208c-0.175,0.044-0.137,0.208-0.137,0.334c-0.002,2.432-0.002,4.863-0.002,7.295
		c0,0.774-0.145,0.921-0.909,0.921c-0.606,0-1.212,0.002-1.817,0c-0.554-0.002-0.759-0.203-0.764-0.776
		c-0.007-0.88-0.002-1.759-0.003-2.639c0-1.344,0-2.689,0-4.033C54.227,7.602,54.226,7.602,54.225,7.602z M72.266,7.56
		c0,1.004-0.005,2.008,0.002,3.012c0.004,0.559,0.433,0.945,0.946,0.875c0.419-0.058,0.71-0.419,0.715-0.915
		c0.008-0.664,0.007-1.328,0-1.991c-0.002-0.19,0.068-0.27,0.261-0.269c0.929,0.004,1.859,0.005,2.788-0.001
		c0.193-0.001,0.258,0.079,0.27,0.265c0.026,0.398,0.098,0.79,0.243,1.164c0.275,0.712,0.745,1.242,1.451,1.557
		c0.681,0.304,1.398,0.344,2.122,0.289c0.752-0.057,1.447-0.279,2.007-0.821c0.621-0.602,0.843-1.375,0.918-2.199
		c0.023-0.252,0.104-0.324,0.345-0.318c0.614,0.014,1.228,0.007,1.842,0.005c0.176-0.001,0.348,0.02,0.518,0.061
		c0.411,0.1,0.663,0.421,0.663,0.842c0,0.436-0.232,0.736-0.66,0.84c-0.177,0.043-0.357,0.072-0.542,0.07
		c-0.357-0.004-0.714-0.004-1.07,0c-0.454,0.005-0.767,0.295-0.771,0.707c-0.004,0.414,0.305,0.712,0.756,0.719
		c0.332,0.006,0.664-0.005,0.996,0.003c0.511,0.013,1.01-0.058,1.494-0.217c0.677-0.222,1.208-0.622,1.367-1.35
		c0.184-0.841,0.049-1.561-0.636-2.081c-0.179-0.136-0.381-0.235-0.588-0.321c-0.156-0.065-0.153-0.13-0.03-0.222
		c0.04-0.03,0.078-0.062,0.12-0.089c1.051-0.652,1.092-2.501-0.241-3.18c-0.466-0.237-0.963-0.298-1.469-0.32
		c-0.945-0.04-1.892-0.05-2.836,0.002c-0.632,0.035-0.877,0.342-0.877,0.971c-0.001,1.12-0.002,2.24,0.001,3.36
		c0.001,0.233-0.015,0.464-0.056,0.693c-0.107,0.599-0.411,1.063-1.002,1.252c-0.671,0.215-1.335,0.191-1.891-0.317
		c-0.445-0.407-0.543-0.957-0.547-1.524c-0.009-1.145-0.003-2.29-0.003-3.435c0-0.243-0.022-0.485-0.175-0.687
		c-0.215-0.284-0.579-0.381-0.944-0.264c-0.333,0.106-0.513,0.352-0.517,0.737c-0.006,0.672-0.004,1.344-0.002,2.016
		c0.001,0.18-0.034,0.306-0.257,0.305c-0.938-0.005-1.875-0.004-2.813-0.001c-0.171,0.001-0.241-0.076-0.233-0.242
		c0.005-0.116,0.001-0.232,0.001-0.348c-0.001-0.539,0.008-1.079-0.004-1.618c-0.012-0.51-0.303-0.849-0.732-0.885
		c-0.549-0.046-0.924,0.292-0.928,0.855C72.261,5.552,72.265,6.556,72.266,7.56z"/>
	<path class="st0" d="M52.742,7.725c0.028,4.248-3.493,7.714-7.67,7.731c-4.263,0.017-7.768-3.447-7.766-7.712
		c0.002-4.336,3.521-7.732,7.725-7.733C49.276,0.008,52.753,3.489,52.742,7.725z M45.04,3.595c-2.254-0.039-4.149,1.831-4.159,4.099
		c-0.01,2.297,1.796,4.186,4.128,4.191c2.322,0.005,4.1-1.843,4.154-4.06C49.221,5.489,47.281,3.559,45.04,3.595z"/>
	<path class="st0" d="M2.762,15.154c-0.465,0-0.93,0-1.394,0c-0.614,0-0.831-0.164-0.904-0.78c-0.148-1.242-0.333-2.479-0.394-3.733
		C0.035,9.92-0.02,9.199,0.007,8.479C0.056,7.205,0.13,5.932,0.312,4.666c0.103-0.714,0.214-1.426,0.347-2.134
		c0.113-0.602,0.268-1.197,0.412-1.793C1.169,0.335,1.444,0.113,1.858,0.11c0.805-0.006,1.61-0.007,2.415,0
		c0.436,0.004,0.652,0.264,0.542,0.689C4.602,1.618,4.396,2.438,4.23,3.267C4.091,3.966,3.983,4.671,3.893,5.378
		C3.749,6.508,3.716,7.643,3.734,8.78c0.001,0.058,0,0.116,0.001,0.174c0.002,0.103,0.013,0.206,0.133,0.24
		c0.127,0.037,0.176-0.057,0.225-0.147c0.2-0.373,0.403-0.744,0.599-1.118c0.492-0.94,0.98-1.883,1.473-2.823
		c0.5-0.955,1.004-1.908,1.505-2.862C7.924,1.76,8.174,1.274,8.433,0.792C8.628,0.43,8.905,0.223,9.351,0.236
		c0.796,0.023,1.593,0.005,2.39,0.008c0.496,0.002,0.667,0.265,0.446,0.703c-0.669,1.324-1.347,2.644-2.019,3.967
		c-0.649,1.279-1.293,2.56-1.942,3.839c-0.728,1.434-1.46,2.867-2.19,4.3c-0.244,0.48-0.496,0.957-0.728,1.443
		c-0.209,0.438-0.549,0.648-1.026,0.649c-0.506,0.002-1.012,0-1.519,0C2.762,15.149,2.762,15.151,2.762,15.154z"/>
	<path class="st0" d="M24.261,15.408c-1.553-0.026-2.975-0.438-4.282-1.25c-0.261-0.162-0.526-0.315-0.74-0.54
		c-0.243-0.256-0.312-0.588-0.107-0.862c0.405-0.544,0.82-1.086,1.314-1.555c0.284-0.269,0.604-0.279,0.932-0.064
		c0.693,0.453,1.423,0.82,2.241,0.984c0.476,0.096,0.954,0.11,1.434,0.02c0.452-0.084,0.799-0.321,1.028-0.714
		c0.147-0.252,0.15-0.525,0.007-0.785c-0.172-0.314-0.423-0.542-0.745-0.707c-0.983-0.505-2.029-0.862-3.033-1.317
		c-0.977-0.443-1.853-1.01-2.409-1.962c-0.738-1.265-0.822-2.575-0.179-3.9c0.652-1.344,1.786-2.1,3.184-2.503
		c1.51-0.435,2.991-0.288,4.435,0.283c0.648,0.256,1.266,0.587,1.757,1.099c0.247,0.257,0.267,0.568,0.062,0.863
		c-0.313,0.449-0.648,0.884-1.026,1.28c-0.301,0.315-0.621,0.359-0.988,0.136c-0.671-0.409-1.393-0.658-2.173-0.734
		c-0.499-0.049-0.986,0.01-1.404,0.305c-0.618,0.437-0.626,1.094-0.048,1.587c0.376,0.32,0.835,0.469,1.278,0.654
		c0.941,0.394,1.913,0.719,2.82,1.184c1.686,0.865,2.551,2.362,2.324,4.29c-0.201,1.708-1.2,2.85-2.7,3.59
		C26.301,15.254,25.282,15.376,24.261,15.408z"/>
	<path class="st0" d="M35.664,7.703c0,2.149,0,4.298,0,6.447c0,0.648-0.346,0.994-0.995,0.995c-0.564,0.001-1.128,0.002-1.693,0
		c-0.656-0.002-1.009-0.359-1.009-1.02c0-4.281,0-8.562,0-12.843c0-0.673,0.352-1.024,1.027-1.026c0.581-0.001,1.162-0.003,1.742,0
		c0.588,0.003,0.927,0.342,0.927,0.926C35.664,3.356,35.663,5.53,35.664,7.703z"/>
	<path class="st0" d="M13.384,7.67c0-2.232,0-4.464,0-6.696c0-0.55,0.179-0.728,0.732-0.729c0.738-0.001,1.477-0.002,2.215,0
		c0.508,0.001,0.704,0.197,0.707,0.711c0.003,0.606,0.001,1.211,0.001,1.817c0,3.336-0.001,6.671,0.002,10.007
		c0,0.481,0.031,0.961,0.033,1.442c0.002,0.619-0.264,0.89-0.883,0.869c-0.655-0.022-1.309-0.004-1.964,0.002
		c-0.107,0.001-0.216-0.003-0.322-0.02c-0.368-0.059-0.518-0.232-0.52-0.607c-0.004-0.846-0.002-1.693-0.002-2.539
		C13.384,10.507,13.384,9.089,13.384,7.67z"/>
	<path class="st0" d="M85.062,6.843c-0.274,0-0.548-0.003-0.821,0.001c-0.162,0.003-0.247-0.055-0.245-0.23
		C84,6.182,84,5.751,83.995,5.319c-0.002-0.172,0.075-0.237,0.241-0.236c0.573,0.004,1.147-0.03,1.717,0.012
		c0.682,0.05,1.05,0.41,0.956,1.026c-0.052,0.343-0.284,0.576-0.657,0.66c-0.097,0.022-0.196,0.049-0.294,0.051
		c-0.299,0.007-0.597,0.002-0.896,0.002C85.062,6.837,85.062,6.84,85.062,6.843z"/>
</g>
</svg>
