<?xml version="1.0" encoding="UTF-8"?>
<svg xmlns="http://www.w3.org/2000/svg" version="1.1" viewBox="0 0 135 135">
  <path d="M71.182,81.283v2.616c0,1.512-.616,2.878-1.602,3.874-.996.987-2.363,1.602-3.874,1.602-3.023,0-5.476-2.453-5.476-5.476v-2.616c0-3.023,2.453-5.476,5.476-5.476s5.476,2.453,5.476,5.476ZM76.205,97.837v-1.356c0-1.431-.8-2.765-2.091-3.381-2.803-1.337-5.624-1.996-8.454-1.996-2.86,0-5.739.679-8.617,2.019-1.312.606-2.118,1.946-2.118,3.394v1.319c0,1.395,1.131,2.526,2.526,2.526h16.229c1.395,0,2.526-1.131,2.526-2.526ZM66.672,59.743c-1.95-.98-4.08-1.49-6.16-1.49h-11.92c-6.02,0-12.72,4.52-12.72,11.02v13.44c0,4.6,3.36,8.44,7.76,9.18v6.15c0,1.38,1.12,2.5,2.5,2.5s2.5-1.12,2.5-2.5v-25.37c0-1.38-1.12-2.5-2.5-2.5s-2.5,1.12-2.5,2.5v14.06c-1.61-.62-2.76-2.19-2.76-4.02v-13.44c0-3.39,4.15-6.02,7.72-6.02h11.92c1.29,0,2.69.34,3.94.96,1.24.62,2.74.11,3.35-1.12.62-1.24.11-2.74-1.13-3.35ZM96.522,83.823c-.29-1.27-.59-2.46-.88-3.6-.42-1.63-.81-3.17-1.07-4.59-1.61-8.73-6.86-10.57-10.98-10.57h-10.22c-4.03,0-7.17,1.74-9.07,5.02-.69,1.19-.29,2.73.91,3.42.39.23.82.34,1.25.34.86,0,1.7-.45,2.16-1.25,1.02-1.75,2.48-2.53,4.75-2.53h10.22c2.53,0,5.02.79,6.06,6.47.29,1.59.7,3.21,1.14,4.92.28,1.11.58,2.26.86,3.48.45,1.95-.46,3.91-2.16,4.84l-3.28-13.34c-.33-1.34-1.68-2.16-3.02-1.83-1.34.33-2.16,1.68-1.83,3.02l5.15,21.02c.28,1.14,1.3,1.9,2.43,1.9.19,0,.39-.02.59-.07,1.35-.33,2.17-1.69,1.84-3.03l-.67-2.74c4.39-1.66,6.88-6.28,5.82-10.88ZM86.714,55.518v-5.244c0-4.157-3.382-7.54-7.54-7.54h-1.382c-4.158,0-7.54,3.382-7.54,7.54v5.244c0,4.157,3.382,7.54,7.54,7.54h1.382c4.158,0,7.54-3.382,7.54-7.54ZM79.174,47.735c1.4,0,2.54,1.139,2.54,2.54v5.244c0,1.4-1.14,2.54-2.54,2.54h-1.382c-1.4,0-2.54-1.139-2.54-2.54v-5.244c0-1.4,1.14-2.54,2.54-2.54h1.382ZM63.112,48.556v-5.244c0-4.157-3.382-7.54-7.54-7.54h-1.382c-4.158,0-7.54,3.382-7.54,7.54v5.244c0,4.157,3.382,7.54,7.54,7.54h1.382c4.158,0,7.54-3.382,7.54-7.54ZM55.572,40.772c1.4,0,2.54,1.139,2.54,2.54v5.244c0,1.4-1.14,2.54-2.54,2.54h-1.382c-1.4,0-2.54-1.139-2.54-2.54v-5.244c0-1.4,1.14-2.54,2.54-2.54h1.382Z"/>
</svg>