<?xml version="1.0" encoding="UTF-8"?>
<svg xmlns="http://www.w3.org/2000/svg" version="1.1" viewBox="0 0 135 135">
  <defs>
    <style>
      .cls-1000 {
        fill: #63557f;
      }
    </style>
  </defs>
  <!-- Generator: Adobe Illustrator 28.7.4, SVG Export Plug-In . SVG Version: 1.2.0 Build 166)  -->
  <g>
    <g id="Layer_1">
      <path class="cls-1000" d="M60.255,64.667c-1.164,0-2.107-.943-2.107-2.107v-4.195c0-1.164.943-2.107,2.107-2.107s2.107.943,2.107,2.107v4.195c0,1.164-.943,2.107-2.107,2.107ZM76.884,62.56v-4.195c0-1.164-.943-2.107-2.107-2.107s-2.107.943-2.107,2.107v4.195c0,1.164.943,2.107,2.107,2.107s2.107-.943,2.107-2.107ZM50.831,55.112,97.49,74.376v7.862c0,2.723-1.778,5.028-4.223,5.806v3.695c0,.972-.667,1.861-1.611,2.111l-23.559,6.334c-.083.028-.167.028-.25.056-.111,0-.222.028-.333.028h-.028c-.111,0-.222-.028-.333-.028-.083-.028-.139-.028-.222-.056l-23.587-6.334c-.945-.25-1.611-1.139-1.611-2.111v-3.778c-2.472-.917-4.223-3.278-4.223-6.056v-7.168c0-2.778,1.75-5.14,4.223-6.056v-4.723c0-.667.306-1.306.861-1.722.528-.417,1.25-.555,1.889-.389h.028v-13.308c0-7.612,6.195-13.807,13.808-13.807h18.419c7.612,0,13.78,6.195,13.78,13.807v13.308c.639-.167,1.361-.028,1.889.389.556.417.861,1.056.861,1.722v4.64c2.445.778,4.223,3.056,4.223,5.778ZM48.817,63.013l1.778.472v-10.224c0-.611.25-1.195.695-1.584.389-.389.917-.583,1.5-.583h.083c.778.028,1.556.055,2.334.055,7.168,0,14.085-1.806,20.003-5.195.334-.194.722-.278,1.084-.278.306,0,.583.055.861.167.611.278,1.084.806,1.222,1.472.389,1.5,1.195,2.945,2.25,4.001.306.306.778.75,1.334.972.167.055.306.055.5.083l.111.028c.528.056,1,.278,1.361.611.333.361.528.861.611,1.445.028.306,0,.611,0,.917v8.084l1.667-.444v-14.474c0-5.251-4.25-9.501-9.473-9.501h-18.419c-5.251,0-9.501,4.251-9.501,9.501v14.474ZM46.289,81.905v-7.168c0-1.139-.917-2.056-2.056-2.056h-.278c-1.139,0-2.056.917-2.056,2.056v7.168c0,1.111.917,2.056,2.056,2.056h.278c1.139,0,2.056-.944,2.056-2.056ZM65.291,71.987l-19.169-5.167v1.75c2.639.806,4.556,3.278,4.556,6.167v7.168c0,2.889-1.917,5.362-4.556,6.168v1.972l19.169,5.167v-23.225ZM80.21,64.625v-8.39c-1.973-.833-3.862-2.806-5.084-5.334-6.001,3-12.919,4.556-20.003,4.556h-.194v9.196l12.585,3.389,12.696-3.417ZM88.878,88.128c-2.222-.583-3.973-2.389-4.417-4.667l-4.25,1.167c-.194.056-.389.083-.556.083-.972,0-1.861-.667-2.139-1.639-.306-1.167.389-2.361,1.556-2.695l5.251-1.417v-2.195l-9.279,2.5c-.194.056-.389.083-.555.083-.972,0-1.861-.667-2.139-1.639-.306-1.167.389-2.361,1.556-2.695l10.89-2.917c.695-1.778,2.222-3.112,4.084-3.584v-1.695l-19.169,5.167v23.225l19.169-5.167v-1.917ZM93.101,74.376c0-.944-.75-1.695-1.695-1.695h-.972c-.945,0-1.722.75-1.722,1.695v7.862c0,.945.778,1.722,1.722,1.722h.972c.945,0,1.695-.778,1.695-1.722v-7.862Z"/>
    </g>
  </g>
</svg>