<?xml version="1.0" encoding="UTF-8"?>
<svg id="resolved" xmlns="http://www.w3.org/2000/svg" version="1.1" viewBox="40 35 60 60">
  <defs>
    <style>
      .cls-1 {
        fill: #9ed26a;
        stroke-width: 0px;
      }
    </style>
  </defs>
  <path class="cls-1" d="M68.2,73.646c-.512,0-1.023-.195-1.414-.586l-4.501-4.501c-.781-.781-.781-2.047,0-2.828.781-.781,2.047-.781,2.828,0l3.087,3.087,8.58-8.579c.781-.781,2.047-.781,2.828,0,.781.781.781,2.047,0,2.828l-9.994,9.993c-.391.391-.902.586-1.414.586Z"/>
  <path class="cls-1" d="M77.12,70.893c-1.558,4.252-5.931,7.068-10.699,6.373-4.956-.722-8.669-5.245-8.422-10.247.276-5.588,5.132-9.812,10.666-9.358,1.011.083,1.971.32,2.865.683.792.321,1.687.031,2.221-.635.018-.022.035-.044.053-.066.83-1.008.392-2.541-.82-3.027-2.084-.837-4.429-1.185-6.917-.877-5.554.687-10.232,4.793-11.625,10.213-2.202,8.569,3.864,16.683,12.284,17.373,6.376.522,12.101-3.38,14.169-9.132.469-1.305-.509-2.67-1.895-2.641-.017,0-.034,0-.05.001-.833.016-1.542.557-1.829,1.34Z"/>
</svg>
