<?xml version="1.0" encoding="UTF-8"?>
<svg id="settings" xmlns="http://www.w3.org/2000/svg" version="1.1" viewBox="0 0 135 135">
  <defs>
    <style>
      .cls-1 {
        fill: #63567f;
        stroke-width: 0px;
      }
    </style>
  </defs>
  <path class="cls-1" d="M67.459,100c-1.447,0-2.886-.088-4.304-.265-3.641-.452-6.171-3.204-6.297-6.847-.083-2.395-1.782-4.124-3.986-4.049-.616.013-1.198.172-1.781.484-3.417,1.834-7.005,1.06-9.368-2.023-1.711-2.23-3.129-4.68-4.213-7.279-.384-.919-.751-1.895-.697-2.876.062-2.765,1.243-4.882,3.51-6.292,1.151-.716,1.751-1.629,1.887-2.873.179-1.638-.389-2.814-1.843-3.811l-.228-.153c-.442-.294-.993-.66-1.492-1.223-1.805-2.03-2.317-4.508-1.44-6.975,1.11-3.123,2.81-6.074,5.053-8.772,2.057-2.475,5.653-3.06,8.736-1.426,1.122.594,2.814,1.001,4.502-.429.881-.746,1.312-1.732,1.357-3.103.12-3.569,2.698-6.371,6.27-6.815,2.917-.362,5.857-.365,8.742-.007,3.601.446,6.132,3.162,6.296,6.758.114,2.482,1.674,4.138,3.889,4.138.019,0,.038,0,.057,0,.629-.008,1.226-.167,1.823-.487,3.452-1.851,6.938-1.116,9.323,1.964,1.805,2.33,3.272,4.885,4.36,7.594,1.403,3.495.286,6.908-2.917,8.908-1.239.773-1.948,1.994-1.948,3.352,0,1.368.718,2.6,1.969,3.382,3.139,1.959,4.281,5.434,2.913,8.854-1.123,2.801-2.643,5.427-4.52,7.806-2.276,2.884-5.772,3.584-9.132,1.825-1.479-.776-2.745-.722-4.105.175-1.121.741-1.649,1.805-1.714,3.451-.139,3.532-2.717,6.305-6.268,6.742-1.481.182-2.963.273-4.435.273ZM52.963,84.128c4.673,0,8.435,3.74,8.603,8.598.046,1.318.836,2.168,2.171,2.334,2.478.308,5.029.305,7.582-.01,1.27-.156,2.088-1.019,2.137-2.252.156-3.961,2.166-6.099,3.824-7.195,2.804-1.853,5.876-1.997,8.889-.418,1.332.697,2.393.511,3.246-.57,1.597-2.025,2.891-4.258,3.845-6.639.53-1.325.191-2.341-1.034-3.106-2.622-1.636-4.186-4.394-4.186-7.378s1.557-5.721,4.165-7.348c1.258-.786,1.588-1.788,1.039-3.156-.925-2.304-2.173-4.479-3.712-6.465-.959-1.239-1.969-1.449-3.374-.695-1.262.675-2.602,1.026-3.986,1.045-.04,0-.08,0-.121,0-4.757,0-8.362-3.613-8.591-8.635-.06-1.296-.85-2.134-2.17-2.297-2.498-.31-5.051-.307-7.581.007-1.299.161-2.1,1.02-2.142,2.297-.091,2.717-1.107,4.917-3.021,6.54-2.804,2.375-6.45,2.749-9.755.998-1.111-.589-2.28-.478-2.908.276-1.887,2.27-3.313,4.738-4.236,7.337-.211.594-.314,1.327.523,2.268.096.108.342.272.582.431l.282.19c2.898,1.987,4.233,4.826,3.863,8.21-.294,2.683-1.706,4.882-4.083,6.36-.8.497-1.267,1.054-1.289,2.43v.01c.027.12.109.374.335.913.928,2.224,2.141,4.319,3.604,6.227.977,1.273,1.992,1.494,3.401.738,1.237-.663,2.551-1.014,3.907-1.044.064-.001.129-.002.193-.002ZM41.514,77.252h0ZM67.5,78.698h-.027c-3.02-.007-5.836-1.176-7.929-3.293-2.089-2.113-3.235-4.945-3.227-7.975.008-2.993,1.168-5.788,3.265-7.871,2.113-2.098,4.948-3.253,7.988-3.253h.047c6.233.024,11.104,4.973,11.087,11.266-.017,6.243-4.936,11.125-11.204,11.125ZM67.483,73.987h.016c3.633,0,6.484-2.819,6.494-6.425.009-3.655-2.799-6.529-6.394-6.543-1.833-.009-3.466.663-4.696,1.884-1.204,1.195-1.869,2.808-1.873,4.541-.005,1.776.658,3.428,1.866,4.65,1.204,1.218,2.834,1.89,4.59,1.895h0Z"/>
</svg>