<?xml version="1.0" encoding="UTF-8"?>
<svg xmlns="http://www.w3.org/2000/svg" version="1.1" viewBox="0 0 135 135">
  <defs>
    <style>
      .cls-1555555 {
        fill: #63557f;
      }
    </style>
  </defs>
  <!-- Generator: Adobe Illustrator 28.7.4, SVG Export Plug-In . SVG Version: 1.2.0 Build 166)  -->
  <g>
    <g id="Layer_1">
      <path class="cls-1555555" d="M95.636,50.317c-.306-2.334-2.334-4.112-4.862-4.223-1.75-.083-3.5-.139-5.251-.167-2.167-5.168-7.279-8.807-13.224-8.807h-16.614c-7.946,0-14.391,6.473-14.391,14.391v10.752c-1.417.861-2.389,2.417-2.389,4.223,0,1.778.972,3.362,2.389,4.223v3.584c0,5.223,2.778,9.779,6.945,12.307-2.584,1.334-5.084,3.195-7.418,5.556-.861.861-.861,2.25,0,3.112.445.417,1,.639,1.556.639s1.111-.222,1.556-.639c3.25-3.278,6.612-5.334,10.251-6.306.472,5.001,4.695,8.918,9.807,8.918s9.335-3.917,9.807-8.918c3.639.972,7.001,3.028,10.251,6.306.417.417,1,.639,1.556.639s1.111-.222,1.528-.639c.861-.861.889-2.25.028-3.112-2.361-2.361-4.834-4.223-7.418-5.556,4.167-2.528,6.945-7.084,6.945-12.307v-3.139c1.472-.055,2.917-.139,4.362-.278,2.389-.222,4.278-1.945,4.584-4.167.611-4.39.611-11.724,0-16.391ZM45.684,51.512c0-5.529,4.473-10.001,10.001-10.001h16.614c3.417,0,6.445,1.722,8.223,4.362-3.278,0-6.529.056-9.862.222-2.473.111-4.528,1.861-4.862,4.167-.139,1-.25,2.111-.333,3.306-3.862-1.722-7.168-4.278-9.751-7.696-.555-.75-1.556-1.056-2.472-.75-.889.306-1.5,1.167-1.473,2.139.139,4.806-1.861,8.223-6.084,10.335v-6.084ZM63.993,93.49c-2.639,0-4.834-1.861-5.334-4.362h10.668c-.528,2.5-2.723,4.362-5.334,4.362ZM82.301,74.293c0,5.529-4.473,10.001-10.001,10.001h-17.141c-5.279-.278-9.474-4.667-9.474-10.001v-11.89c5.195-2.028,8.585-5.529,9.89-10.14,2.806,2.639,6.056,4.639,9.724,6.001,0,3.139.167,6.279.528,8.612.333,2.084,2.056,3.723,4.278,4.056l.222,2.361c.111,1,.722,1.861,1.639,2.334.417.194.889.306,1.361.306.583,0,1.167-.167,1.667-.472,1.75-1.111,3.473-2.611,4.862-4.223.833.028,1.639.028,2.445.028v3.028ZM91.302,66.097c-.028.139-.278.361-.667.417-3.639.333-7.362.417-11.724.306-.722-.055-1.361.306-1.806.861-.722.945-1.667,1.889-2.639,2.723l-.139-1.584c-.111-1-.861-1.834-1.861-1.973l-1.695-.25c-.389-.056-.583-.278-.611-.417-.611-4.001-.639-11.029,0-15.28,0-.139.25-.389.695-.417,6.612-.306,13.057-.306,19.725,0,.444.028.695.278.695.417.555,4.251.555,11.224.028,15.196ZM55.919,64.758v4.369c0,1.212-.982,2.195-2.195,2.195s-2.195-.982-2.195-2.195v-4.369c0-1.212.982-2.195,2.195-2.195s2.195.982,2.195,2.195ZM87.133,57.561h-13.021c-1.212,0-2.195-.982-2.195-2.195s.982-2.195,2.195-2.195h13.021c1.212,0,2.195.982,2.195,2.195s-.982,2.195-2.195,2.195ZM80.204,63.974h-6.092c-1.212,0-2.195-.982-2.195-2.195s.982-2.195,2.195-2.195h6.092c1.212,0,2.195.982,2.195,2.195s-.982,2.195-2.195,2.195ZM68.753,78.627c-1.027,1.185-2.59,1.914-4.301,2.01-.123,0-.246.009-.369.009-1.729,0-3.424-.667-4.688-1.852-.887-.825-.931-2.221-.105-3.099.474-.509,1.15-.746,1.8-.685,0,0,0-.009.009,0,.018-.009.035-.009.053-.009h5.671c.009,0,.026,0,.035.009.009-.009.018-.009.026,0,.571-.053,1.168.114,1.633.518.922.79,1.027,2.177.237,3.099Z"/>
    </g>
  </g>
</svg>
