<?xml version="1.0" encoding="UTF-8"?>
<svg xmlns="http://www.w3.org/2000/svg" version="1.1" viewBox="0 0 135 135">
  <defs>
    <style>
      .cls-4000 { fill: #63557f; }
    </style>
  </defs>
  <g>
    <g id="Layer_1">
      <path class="cls-4000"
        d="M94.1,40.4h-49.5c-9.7,0-17.6,7.9-17.6,17.6v19.8c0,9.7,7.9,17.6,17.6,17.6h27.9l8,9.9 1.2-9.9h12.4c9.7,0,17.6-7.9,17.6-17.6v-19.8c0-9.7-7.9-17.6-17.6-17.6ZM49.3,74.1c-1.8,0-3.2-1.4-3.2-3.2s1.4-3.2,3.2-3.2h16.7c1.8,0,3.2,1.4,3.2,3.2s-1.4,3.2-3.2,3.2h-16.7ZM85.7,65.3h-37.2c-1.8,0-3.2-1.4-3.2-3.2s1.4-3.2,3.2-3.2h37.2c1.8,0,3.2,1.4,3.2,3.2s-1.4,3.2-3.2,3.2ZM85.7,56.3h-18.4c-1.8,0-3.2-1.4-3.2-3.2s1.4-3.2,3.2-3.2h18.4c1.8,0,3.2,1.4,3.2,3.2s-1.4,3.2-3.2,3.2Z"/>
    </g>
  </g>
</svg>
