<svg xmlns="http://www.w3.org/2000/svg" viewBox="0 0 121.66 115.46"><defs><style>.cls-1,.cls-4{fill:#fff;}.cls-2{fill:#5bb6d5;}.cls-3{fill:#f58220;}.cls-4{fill-rule:evenodd;}</style></defs><g id="Layer_2" data-name="Layer 2"><g id="Layer_1-2" data-name="Layer 1"><path class="cls-1" d="M0,57.76c0,31.89,27.29,57.72,60.92,57.7L60.86,0C27.23,0,0,25.88,0,57.76Z"/><path class="cls-1" d="M121.66,57.69C121.64,25.81,94.36,0,60.73,0l.07,115.46C94.43,115.44,121.67,89.58,121.66,57.69Z"/><path class="cls-2" d="M2.56,57.76C2.58,88.3,28.71,113,60.92,113L60.86,2.43C28.65,2.45,2.55,27.22,2.56,57.76Z"/><path class="cls-3" d="M119.09,57.7C119.07,27.16,93,2.42,60.74,2.43L60.8,113C93,113,119.11,88.24,119.09,57.7Z"/><path class="cls-1" d="M112.89,57.7l-1.17.12c-.77.06-1.89.18-3.31.28s-3.16.26-5.14.38-4.23.28-6.67.39-5.09.26-7.89.35-5.75.22-8.8.29-6.21.14-9.42.18-6.46.05-9.72.07-6.52,0-9.72-.06-6.37-.09-9.42-.16-6-.18-8.81-.28-5.44-.22-7.88-.35-4.69-.25-6.67-.38-3.72-.26-5.14-.37-2.55-.22-3.31-.28l-1.17-.12,1.17-.12c.76-.06,1.88-.18,3.31-.29s3.15-.25,5.14-.37,4.22-.28,6.66-.39,5.09-.27,7.89-.36,5.75-.22,8.81-.29,6.21-.14,9.41-.17,6.47-.05,9.73-.07,6.51,0,9.72.06,6.36.09,9.41.17,6,.18,8.81.28,5.45.22,7.89.34,4.68.26,6.67.38,3.71.26,5.14.37,2.54.22,3.31.28Z"/><path class="cls-1" d="M99.25,22.58l-.73.53c-.49.33-1.19.84-2.11,1.44s-2.11,1.24-3.48,2l-.52.29-.55.25-1.16.53c-.79.35-1.62.75-2.51,1.1l-2.79,1-.74.27-.37.13-.42.12-1.53.43-3.19.89c-1.11.27-2.29.46-3.47.7a71.84,71.84,0,0,1-7.33,1c-1.24.16-2.51.2-3.78.25l-3.88.13L57,33.56a36.85,36.85,0,0,1-3.75-.24,67.42,67.42,0,0,1-7.35-1c-1.17-.24-2.33-.43-3.45-.7l-3.25-.89-1.56-.44-.19-.05-.1,0-.08,0,0,0L36.81,30l-.72-.26-2.76-1c-.88-.36-1.73-.75-2.52-1.11l-1.16-.53-.56-.25-.52-.28c-1.36-.76-2.54-1.39-3.47-2S23.46,23.48,23,23.15l-.74-.52.85.32c.55.22,1.36.51,2.36.93.5.22,1.09.37,1.71.59l2,.67c.7.26,1.49.43,2.29.66s1.64.49,2.54.7l2.86.66.74.17.38.09.34.06,1.54.26,3.19.58c1.09.16,2.22.28,3.36.42l1.72.22.87.11.87.06,3.53.26c1.17.14,2.43.12,3.67.16l3.74.09,3.61-.1c1.22,0,2.43,0,3.63-.15s2.39-.18,3.57-.26l.88-.06c.29,0,.58-.08.86-.12l1.71-.21c1.13-.15,2.23-.26,3.33-.43l3.26-.59,1.57-.27.33-.06.37-.09.73-.17,2.81-.64c.9-.22,1.74-.49,2.56-.71s1.6-.41,2.3-.67l2-.67c.62-.22,1.21-.36,1.71-.59,1-.43,1.83-.73,2.38-1Z"/><path class="cls-1" d="M60.8,109.85l-.12-1.17c-.06-.76-.18-1.88-.29-3.31s-.25-3.15-.37-5.14-.28-4.22-.39-6.67-.27-5.09-.35-7.89-.23-5.75-.29-8.8-.14-6.21-.18-9.42-.06-6.46-.07-9.72,0-6.51.06-9.72.09-6.36.16-9.42.18-6,.28-8.8.22-5.45.34-7.89.26-4.69.39-6.67.26-3.72.37-5.14.22-2.55.28-3.31.12-1.17.12-1.17,0,.41.11,1.17.19,1.88.29,3.31.26,3.15.38,5.14.28,4.22.39,6.67.27,5.09.35,7.89.23,5.75.29,8.8.15,6.21.18,9.42.05,6.46.06,9.72,0,6.51,0,9.72-.09,6.36-.17,9.42-.18,6-.28,8.8-.22,5.45-.34,7.89-.26,4.68-.39,6.67-.26,3.71-.36,5.14-.22,2.55-.29,3.31S60.8,109.85,60.8,109.85Z"/><path class="cls-1" d="M60.74,5.61l-1.84.17-1,.08L56.71,6l-1.38.19c-.49.07-1,.18-1.55.28a52.11,52.11,0,0,0-7.72,2,53.25,53.25,0,0,0-9.34,4.26A55.73,55.73,0,0,0,27.05,20a53,53,0,0,0-4.49,4.8l-.55.67-.51.66c-.33.45-.68.87-1,1.33-.66.93-1.33,1.87-1.93,2.86a51.95,51.95,0,0,0-7.39,20.1,56.37,56.37,0,0,0-.5,7.35l0,1.87c0,.66.06,1.23.1,1.84.06,1.19.23,2.42.37,3.64A51.89,51.89,0,0,0,18.6,85.2c.6,1,1.27,1.92,1.93,2.85.33.46.69.9,1,1.35s.69.89,1.05,1.32.73.89,1.06,1.25l1.15,1.25c.38.43.76.8,1.14,1.17l1.13,1.11a55.26,55.26,0,0,0,9.69,7.18,54,54,0,0,0,9.34,4.26,53.21,53.21,0,0,0,7.72,2c.54.09,1.06.21,1.55.27l1.38.2,1.2.16,1,.08,1.84.17-1.85.07-1,0-1.21,0-1.41,0c-.51,0-1-.08-1.6-.12a47.42,47.42,0,0,1-8-1.35,48.78,48.78,0,0,1-10-3.69,51.66,51.66,0,0,1-10.6-7l-1.29-1.15c-.43-.39-.88-.79-1.26-1.19l-1.21-1.19c-.46-.46-.82-.88-1.23-1.33a47.46,47.46,0,0,1-4.48-5.75,51.89,51.89,0,0,1-3.77-6.55A48.13,48.13,0,0,1,9,73.38a55.32,55.32,0,0,1-1.76-7.69c-.17-1.32-.36-2.61-.44-4,0-.67-.12-1.37-.12-2l-.06-2a60,60,0,0,1,.61-7.93A56.76,56.76,0,0,1,9,42.14a49.23,49.23,0,0,1,2.84-7.22,50.64,50.64,0,0,1,3.76-6.55c.67-1,1.42-2,2.15-3,.37-.48.77-1,1.16-1.43l.58-.7.59-.64a58.3,58.3,0,0,1,5-4.86,51.4,51.4,0,0,1,10.59-7,48.79,48.79,0,0,1,10-3.7A46.56,46.56,0,0,1,53.67,5.7c.56,0,1.09-.1,1.6-.12l1.41,0,1.21,0,1,0Z"/><path class="cls-1" d="M60.8,109.85l1.43-.2.37-.05.4-.11.9-.23a6.77,6.77,0,0,0,1-.34c.36-.14.75-.27,1.14-.44a21,21,0,0,0,5.11-3.39A31.73,31.73,0,0,0,76.31,99a51.25,51.25,0,0,0,4.36-8.37c.3-.79.64-1.57.92-2.38s.6-1.67.84-2.46l.79-2.63c.25-.87.45-1.74.68-2.62a94.14,94.14,0,0,0,2-11.15c.19-1.92.4-3.86.48-5.82,0-1,.13-2,.13-2.94l.05-2.9A112.47,112.47,0,0,0,85.87,46a95,95,0,0,0-2-11.16c-.23-.89-.44-1.78-.69-2.64s-.52-1.72-.77-2.57l-.08-.28L82.21,29,82,28.4l-.43-1.26c-.3-.83-.62-1.58-.92-2.36a51.67,51.67,0,0,0-4.37-8.37,32.33,32.33,0,0,0-5.14-6.05A21.18,21.18,0,0,0,66,7c-.39-.17-.78-.29-1.14-.43a5.81,5.81,0,0,0-1-.34L62.93,6l-.4-.1-.36-.05-1.43-.2,1.45,0a15.9,15.9,0,0,1,4.09.64,19.87,19.87,0,0,1,5.8,2.93,29.37,29.37,0,0,1,6.06,5.9,45.17,45.17,0,0,1,5.25,8.49c.37.81.78,1.64,1.13,2.46L85,27.24l.26.62.13.31.13.36c.31.88.63,1.76,1,2.65s.55,1.82.84,2.74.51,1.86.75,2.81c.12.47.23,1,.35,1.43s.2,1,.3,1.45c.19,1,.42,1.94.57,2.93s.31,2,.46,3a101.48,101.48,0,0,1,.82,12.15l-.07,3.11c0,1-.09,2-.15,3.06-.09,2-.36,4.06-.59,6.07l-.45,3c-.16,1-.38,2-.57,2.93-.1.48-.19,1-.3,1.45s-.23,1-.35,1.43c-.24,1-.46,1.88-.75,2.82a4.1,4.1,0,0,1-.47,2.81c-.31.87-.62,1.77-.93,2.62a16.81,16.81,0,0,1-1.07,2.66c-.35.83-.9,2-1.27,2.79a35,35,0,0,1-4.29,7.54,36.31,36.31,0,0,1-7.2,6.35,19.89,19.89,0,0,1-5.79,2.94,16.07,16.07,0,0,1-4.1.65Z"/><path class="cls-1" d="M60.74,5.61l-1.44.2-.37.05L58.54,6l-.91.23a7.17,7.17,0,0,0-1,.34c-.36.14-.74.26-1.13.44a20.89,20.89,0,0,0-5.12,3.39,31.7,31.7,0,0,0-5.13,6.06,50.49,50.49,0,0,0-4.37,8.37c-.3.79-.63,1.57-.92,2.38s-.59,1.67-.83,2.45-.53,1.75-.79,2.63-.45,1.75-.68,2.63c-.79,3.28-.84,7.58-1.81,11.06a6.28,6.28,0,0,0-.24,1.73c0,3.69-.58,6.42-.59,10.06a112.65,112.65,0,0,0,.67,11.71,93,93,0,0,0,2,11.16c.23.89.44,1.77.69,2.64s.52,1.72.78,2.57l.08.28.11.32.22.64L40,88.32c.29.83.62,1.58.92,2.36,1.29,3.09,5.71,4.49,7.33,6.93s.41,5.91,2.18,7.49a20.79,20.79,0,0,0,5.11,3.38c.4.18.78.3,1.14.44a5.9,5.9,0,0,0,1,.34l.9.23.4.11.37.05,1.43.2-1.45,0a16.43,16.43,0,0,1-4.1-.64,20,20,0,0,1-5.8-2.93,29.62,29.62,0,0,1-6.06-5.9,45.15,45.15,0,0,1-5.24-8.49c-.37-.81-.79-1.65-1.13-2.47l-.51-1.23-.26-.62-.13-.31L36,86.93c-.32-.88-.63-1.76-1-2.65s-.56-1.82-.84-2.74-.52-1.86-.75-2.81l-.36-1.43c-.11-.48-.2-1-.3-1.45-.19-1-.41-1.94-.57-2.93l-.45-3a99.31,99.31,0,0,1-.83-12.19,102.72,102.72,0,0,1,.81-12.2c.16-1,.31-2,.46-3s.38-2,.56-2.93c.11-.48.19-1,.3-1.45l.36-1.43c.23-.95.45-1.89.75-2.82s.55-1.87.84-2.76L36,28.59c.34-.93.7-1.73,1-2.58s.75-1.64,1.11-2.44a45.57,45.57,0,0,1,5.24-8.5,29.66,29.66,0,0,1,6-5.91,20.12,20.12,0,0,1,5.8-2.93,16,16,0,0,1,4.09-.65Z"/><path class="cls-1" d="M62.6,109.91a.11.11,0,0,1,0-.22h0l1-.08h0l1.18-.17,1.38-.19c.49-.07,1-.18,1.56-.28a52,52,0,0,0,7.71-2,54,54,0,0,0,9.34-4.26,55.41,55.41,0,0,0,9.68-7.19A54.24,54.24,0,0,0,99,90.67l.55-.67.51-.66c.33-.45.68-.87,1-1.34.66-.93,1.33-1.86,1.93-2.85a51.46,51.46,0,0,0,7.39-20.1c.15-1.22.32-2.43.37-3.66,0-.62.1-1.23.1-1.84l0-1.8a57.31,57.31,0,0,0-.51-7.4,53.72,53.72,0,0,0-1.56-7.14,52.42,52.42,0,0,0-5.85-12.95c-.61-1-1.28-1.92-1.93-2.85-.34-.46-.69-.9-1-1.35s-.69-.89-1-1.32-.72-.89-1-1.25-.77-.84-1.16-1.25-.76-.8-1.14-1.17L94.44,20c-3.14-2.89-6.15-5.63-9.68-7.17h0a54.27,54.27,0,0,0-9.33-4.26,53.21,53.21,0,0,0-7.72-2c-.55-.09-1.07-.21-1.56-.28L64.76,6l-1.19-.16h0l-1-.09h0a.12.12,0,0,1,0-.23h0l1,0h0l1.21,0,1.41,0c.5,0,1,.08,1.59.12A46.38,46.38,0,0,1,75.86,7a78.74,78.74,0,0,1,12.79,4.5h0c3.54,2.29,4.35,3.21,7.8,6.15l1.29,1.15c.43.39.87.78,1.26,1.18l1.21,1.2c.46.46.81.88,1.23,1.33a49.54,49.54,0,0,1,4.48,5.75,51.89,51.89,0,0,1,3.77,6.55,49.23,49.23,0,0,1,2.84,7.22,51.9,51.9,0,0,1,2.08,7.26,62.92,62.92,0,0,1,.29,8.31l0,2c0,.66-.08,1.32-.12,2-.08,1.32-.27,2.63-.44,3.95a57.11,57.11,0,0,1-1.75,7.69,59.82,59.82,0,0,1-2.66,8.19c-1.1,2.31-2.56,3.52-3.93,5.58-.68,1-1.42,2-2.15,3-.37.48-.77,1-1.16,1.43l-.59.69-.58.65a58.3,58.3,0,0,1-5,4.86,52.36,52.36,0,0,1-10.59,7,49.6,49.6,0,0,1-10,3.7,46.5,46.5,0,0,1-8.06,1.36c-.56,0-1.09.1-1.59.12l-1.41,0-1.22,0-1,0Z"/><path class="cls-1" d="M22.28,92.88l.74-.53c.49-.33,1.19-.84,2.1-1.45s2.12-1.23,3.48-2l.53-.28.55-.25,1.15-.53c.79-.35,1.62-.75,2.51-1.1l2.8-1,.73-.27.37-.13.43-.12,1.53-.44,3.19-.88c1.1-.27,2.29-.46,3.47-.7a66.14,66.14,0,0,1,7.32-1C54.43,82,55.69,82,57,81.9l3.82-.14,3.81.14a36.65,36.65,0,0,1,3.74.24,66.75,66.75,0,0,1,7.35,1c1.17.24,2.33.42,3.45.7l3.26.89,1.55.44.19,0,.1,0,.09,0,0,0,.37.13.72.26,2.75,1c.88.35,1.73.75,2.53,1.11l1.16.52.55.26.52.28c1.36.76,2.55,1.38,3.48,2s1.63,1.12,2.12,1.45l.73.52-.85-.32c-.54-.22-1.36-.51-2.36-.93-.49-.23-1.09-.37-1.71-.59l-2-.67c-.71-.26-1.49-.43-2.3-.67s-1.63-.48-2.54-.7l-2.85-.65-.75-.17L83.56,88,83.22,88l-1.54-.27-3.19-.57c-1.1-.16-2.22-.28-3.36-.43l-1.72-.21c-.29,0-.58-.09-.87-.12l-.88,0-3.53-.27c-1.17-.13-2.42-.11-3.67-.15l-3.68-.09-3.66.09c-1.22,0-2.44,0-3.64.16s-2.39.18-3.57.26l-.88.06-.86.11-1.7.22c-1.13.15-2.24.26-3.34.42l-3.25.6L38.31,88l-.34.06-.37.09-.73.17L34.06,89c-.89.22-1.73.49-2.55.71s-1.61.41-2.3.67l-2,.67c-.62.22-1.21.36-1.71.59-1,.43-1.82.73-2.37.94Z"/><path class="cls-1" d="M80.81,23.26c.13-.12.26-.22.4-.33l.35-.32a2.67,2.67,0,0,0-.41-.3,3.14,3.14,0,0,0-1-.36,1.78,1.78,0,0,0-1,.12,3.42,3.42,0,0,0-2.32-1.29l-.4,0a5.94,5.94,0,0,0-5.5,2.56A6.85,6.85,0,0,0,67.69,30a21.9,21.9,0,0,0,2.54,8c1.15,1.79,1.82,3.18,1.58,4.44a.46.46,0,0,1-.27-.2.08.08,0,0,0-.09,0l-.37.06a.15.15,0,0,1-.14-.07c-.07-.11-.11-.18-.17-.26a.32.32,0,0,1,0-.09,1.32,1.32,0,0,1,.4-1.19l-.3-.51c-.68.22-1.78.86-1.9,1.88l-.07-.18c-.79.16-2.27,1.23-1.81,2.66A4,4,0,0,0,70.17,47a2.29,2.29,0,0,0,.74,0l.64-.13A2.88,2.88,0,0,0,72.8,47a4.49,4.49,0,0,0,3.85-2.83,3.8,3.8,0,0,0,.52-1.87,4.57,4.57,0,0,0,0-.81,4.18,4.18,0,0,0,.13-.94,9.54,9.54,0,0,0-1.12-3.84,17.13,17.13,0,0,1-1.74-6.26,2.09,2.09,0,0,1,0-.56c.24-1.06,1.19-4.71,2.32-5.34-.39.52-.47,1,.23,1.84l.17.18,1-.95C79.06,24.76,79.92,24.08,80.81,23.26ZM69.34,43.79c-.09,0-.29,0-.49-.51l0-.11,0-.3A2,2,0,0,1,69,42.1s.1.55.11.58a.83.83,0,0,0,.11.31A2.17,2.17,0,0,1,69.34,43.79Z"/><path class="cls-4" d="M107.05,52.06c-.84-.38-3.28.38-3.51.6A3.75,3.75,0,0,0,102.47,55c.1.87-.9,1.63-4.56,3.11-1.75.7-2.33-.21-2.75-1.63-1.06-3.72-.73-3.9-3.66-6.66-1.67-1.55-2.22-2.09-1.23-2.53a.67.67,0,0,1,.31,0,9.25,9.25,0,0,0,5.55-1.59l.25-.2,1-.8,0,0c5.2-4.53,1.77-6.63,2.26-12.16,0-.33.36-.47.39-1l.27-1.39a4.34,4.34,0,0,0-.23-2.12c-2.12-5.31-6.84-6.59-12-6.48-4.81.12-7.21.57-11,5.09l0,.05A15.42,15.42,0,0,0,74.4,34.2a25.89,25.89,0,0,0,.22,3.11.09.09,0,0,1,0,0,2.57,2.57,0,0,1,.08.4.11.11,0,0,0,0,.05,8.32,8.32,0,0,0,1.6,4,4.71,4.71,0,0,0,.64.7A27.69,27.69,0,0,0,80.76,46a11.34,11.34,0,0,0,2,1,.62.62,0,0,1-.08,1.17C77,49.55,66.28,52.4,65.6,56.45c-.64,3.75-6.13,2.15-5,9.77.3,2,2.11,1.81,3.75,1,3.72-1.82,2.23-2.06,2.17-4.54-.13-4.54,6.36-7.38,10.66-8.23a.62.62,0,0,1,.68.86c-.91,2,.47,7.54-3,12-4.66,5.93-10.73,4.67-9.19,5.52,1.91,1,6.11,6.77,1.06,7.31-3.54.36-2.8-5.07-4.79-6-1.3-.64-4.71,3.71-5.13,6.49-.37,2.41-.05,3.74.35,4.42.08.14.54.83.7.86,1.44.33,2.46-2.19,3.05-4.11A.61.61,0,0,1,62,81.6c2,3.71,4.83,6.49,8.45,1.61.91-1.24,4.17-2.81,5.65-1.66,3,2.33,11.45,3.53,15,.72a.6.6,0,0,1,.91.2c.48.9,1.35,2.56,2.26,4.35,1.39,2.63.12,6.17,1.76,7.13.54.31,3.66.16,5.87-1,9.09-5,2-7.64-2-5.26a.61.61,0,0,1-.93-.56,27.71,27.71,0,0,0-.18-6c-.55-2.51-3.72-4.3-2.39-4.84s3-1.82,1.72-2.27-7.56-4.39-7.89-7.65c-.25-2.41,1-5.44,1.73-6.85a.61.61,0,0,1,1-.15c3.82,4.08,7,3.84,10.23-1.25a.62.62,0,0,1,.38-.27,5.58,5.58,0,0,0,3.9-2.85C108.13,53.72,108,52.45,107.05,52.06Z"/><path class="cls-4" d="M45.62,71c5.27,3.59,4.28,11,5,17.28.06.54,2.34-1.34,5.7.84,2.09,1.36-12.7,6.56-12.19,2.94,1-7.09-1-16.57-8.94-19.17a.3.3,0,0,0-.38.21C33,80.17,26.24,84,19.4,81.37c-3.29-1.23-5.27-5-6.13-4.82-.39.12-1.93,2.86-2.26,4.23s-2.51,2.79-2.24-2.3c.15-3,1.19-6.94,2.51-8.8,3-4.12,3.38.66,5.27,3.5,1.25,1.92,4.79,3.39,6.74,2.64,2.87-1.08,5.11-4.8,5.11-6s-.55-2.59,1.59-7.08c1.45-3.06,1.08-5.94,1.74-6.8a.29.29,0,0,0-.28-.47c-1.9.31-6.9,1.27-8.65,2.88-2.22,2-1.5,1-2.82.48-2.39-1-1.67,6.73-6.22,2.66-3.44-3.11,1.11-6.61,3.26-6.55a4.2,4.2,0,0,0,3.14-1.47C22.8,49,31.74,50,35.9,48.35a9.51,9.51,0,0,0,2.65-1.76.3.3,0,0,0,0-.47l-.39-.25-.08,0c-3.64-.91-3.94-.9-5.92-2.67-.24-.21-.38,1.63-1.18.86,0,0-1.92-1.28-2.27-4.69-.26-2.44-1.15-6.26.2-10.45A15.26,15.26,0,0,1,40.65,18.62.3.3,0,0,1,41,19a.94.94,0,0,0,0,.16.3.3,0,0,0,.49.29,7.06,7.06,0,0,1,4.81-2.15c.26,0,.27.78.09,1a1.21,1.21,0,0,0-.27,1c0,.3.34.14.57-.06.61-.53,1.84-.18,3.12-.36.5-.07.37.34.18.52h0c-.19.18-.32.39-.06.41,4.2.39.63,3.85,7.42,3.27,2.07-.17,1.71,3.27-1.8,5.32-.09,0-.19.1-.22.2-1.12,3.79.82,8.09-.16,11.42-1.58,5.38-6.42,6.42-10.84,6.61a.29.29,0,0,0-.13.55c4.17,2.32,2,5.74,6.52,10.07A25.48,25.48,0,0,0,57,61.49c1.67.84,1,2.18,1.88,1.34,6.68-6,8.2,7,2.34,4.34-1-.45-2-1-2.76-.72C54,68,54.54,68.09,49.39,65c-1.21-.73-3.29-2.68-3.56-3.94-.66-3.38-2.78,6.52-.21,10Z"/></g></g></svg>
