<?xml version="1.0" encoding="UTF-8"?>
<svg id="theme_picker" data-name="theme picker" xmlns="http://www.w3.org/2000/svg" version="1.1" viewBox="15 15 110 110">
  <defs>
    <style>
      .cls-1 {
        fill: #aadaeb;
        stroke-width: 0px;
      }
    </style>
  </defs>
  <g>
    <g>
      <g>
        <path class="cls-1" d="M25.916,66.034c-1.093,0-1.983-.89-1.983-1.982v-7.212c0-1.093.89-1.983,1.983-1.983s1.983.89,1.983,1.983v7.212c0,1.093-.89,1.982-1.983,1.982Z"/>
        <path class="cls-1" d="M25.917,65.63c-.872,0-1.578-.706-1.578-1.578v-7.212c0-.872.706-1.578,1.578-1.578s1.578.706,1.578,1.578v7.212c0,.872-.706,1.578-1.578,1.578Z"/>
      </g>
      <g>
        <path class="cls-1" d="M25.916,71.492c-1.095,0-1.987-.891-1.987-1.986s.891-1.986,1.987-1.986,1.986.891,1.986,1.986-.891,1.986-1.986,1.986Z"/>
        <circle class="cls-1" cx="25.916" cy="69.505" r="1.582"/>
      </g>
    </g>
    <g>
      <g>
        <path class="cls-1" d="M107.848,25.803H27.152c-4.975,0-9.045,4.07-9.045,9.045v57.726c0,4.996,4.05,9.045,9.045,9.045h27.718c1.095,0,1.982-.887,1.982-1.982h0c0-1.095-.887-1.982-1.982-1.982h-27.718c-.647,0-1.278-.121-1.861-.356-.243-.097-.469-.202-.68-.332-.097-.049-.194-.113-.299-.186-.267-.17-.51-.372-.752-.623-.963-.955-1.489-2.225-1.489-3.584v-57.726c0-.518.073-1.019.243-1.537.008-.065.032-.121.081-.235.016-.065.04-.129.089-.227.008-.04.032-.073.049-.113l.04-.097c.073-.146.146-.283.235-.421.202-.332.453-.655.752-.963.17-.178.364-.34.534-.461l.016-.016.218-.154c.121-.089.259-.17.396-.243.291-.154.599-.283.914-.388.477-.154.987-.227,1.513-.227h80.695c2.794,0,5.081,2.286,5.081,5.081v57.726c0,2.794-2.286,5.081-5.081,5.081h-23.612c-1.095,0-1.982.887-1.982,1.982h0c0,1.095.887,1.982,1.982,1.982h23.621c4.984,0,9.037-4.053,9.037-9.045v-57.726c0-4.996-4.05-9.045-9.045-9.045Z"/>
        <path class="cls-1" d="M75.437,29.767c-.065,0-.138.008-.21.008H27.152c-.526,0-1.027.073-1.513.227v-.008c.477-.154.987-.227,1.513-.227h48.284Z"/>
      </g>
      <g>
        <path class="cls-1" d="M48.665,94.095c-.372.445-.922.704-1.505.704h-14.401c-1.23,0-2.33-.736-2.799-1.861-.032-.081-.073-.186-.105-.291-.089-.283-.129-.582-.129-.882v-55.299c0-1.667,1.359-3.026,3.034-3.026h54.854c.582,0,1.133.251,1.505.696s.526,1.019.429,1.586l-.008.04c-.154.947-.963,1.634-1.934,1.634h-53.915v53.438h13.463c.947,0,1.748.655,1.926,1.578l.016.032.008.129c.089.502-.065,1.076-.437,1.521Z"/>
        <path class="cls-1" d="M46.06,37.396c-.065.008-.138.008-.202.008h-13.786v-.008h13.989Z"/>
        <path class="cls-1" d="M89.891,94.796c-.589,0-1.14-.262-1.514-.718-.375-.458-.523-1.055-.405-1.637.191-.95,1-1.608,1.931-1.608h16.198v-53.433h-8.108c-.932,0-1.741-.661-1.925-1.571l-.008-.04-.006-.077c-.11-.502.038-1.098.413-1.556.373-.457.925-.718,1.514-.718h9.056c1.673,0,3.033,1.361,3.033,3.032v55.295c0,1.672-1.361,3.032-3.033,3.032h-17.147Z"/>
        <path class="cls-1" d="M69.49,37.396c-.073.008-.146.008-.21.008h-12.945c-.073,0-.129,0-.202-.008h13.358Z"/>
      </g>
    </g>
  </g>
  <g>
    <path class="cls-1" d="M69.532,118.097c-1.073,0-1.942-.87-1.942-1.942v-2.561c0-1.072.869-1.942,1.942-1.942s1.942.87,1.942,1.942v2.561c0,1.072-.869,1.942-1.942,1.942Z"/>
    <path class="cls-1" d="M91.968,62.144v-16.86c0-1.07-.87-1.94-1.94-1.94h-5.13c-.61,0-1.19.29-1.55.78l-1.31,1.75-.43-1.23c-.27-.78-1-1.3-1.83-1.3h-30.74c-1.07,0-1.94.87-1.94,1.94v16.85c-.96.12-1.71.94-1.71,1.94v15.37c0,5.32,3.77,6.93,7.09,8.35.8.33,1.62.69,2.43,1.09,4.25,2.13,6.46,5.05,6.95,9.19.34,2.93-.23,5.36-.84,7.92-.55,2.3-1.11,4.68-1.11,7.6,0,9.31,8.18,15.02,8.53,15.26.33.23.71.34,1.09.34.39,0,.77-.11,1.1-.34.35-.24,8.53-5.95,8.53-15.26,0-2.92-.56-5.3-1.11-7.6-.61-2.56-1.18-4.99-.84-7.92.49-4.14,2.69-7.06,6.95-9.19.81-.4,1.63-.76,2.42-1.09,3.33-1.42,7.1-3.03,7.1-8.35v-15.37c0-1-.74-1.82-1.71-1.93ZM50.977,47.224h6.37v3.18c0,1.08.87,1.95,1.94,1.95s1.94-.87,1.94-1.95v-3.18h6.36v8.31c0,1.07.87,1.94,1.94,1.94,1.08,0,1.95-.87,1.95-1.94v-8.31h6.92l1.18,3.38c.23.67.82,1.17,1.53,1.28.71.1,1.43-.19,1.86-.76l2.91-3.9h2.21v14.9h-37.11v-14.9ZM89.787,79.444c0,2.65-1.36,3.34-4.73,4.77-.85.37-1.73.74-2.64,1.2-5.38,2.69-8.43,6.8-9.06,12.2-.43,3.62.25,6.5.91,9.28.52,2.18,1.01,4.24,1.01,6.7,0,5.43-3.82,9.48-5.75,11.18-1.93-1.7-5.74-5.72-5.74-11.18,0-2.46.49-4.52,1.01-6.7.66-2.78,1.34-5.66.91-9.28-.63-5.4-3.68-9.51-9.06-12.2-.92-.46-1.79-.83-2.64-1.2-3.37-1.43-4.73-2.12-4.73-4.77v-13.43h40.51v13.43Z"/>
    <path class="cls-1" d="M84.902,81.382h-30.739c-1.073,0-1.942-.87-1.942-1.942s.869-1.942,1.942-1.942h30.739c1.073,0,1.942.87,1.942,1.942s-.869,1.942-1.942,1.942Z"/>
  </g>
</svg>
