<svg xmlns="http://www.w3.org/2000/svg" viewBox="5 5 85 85" x="0px" y="0px" fill="#aadaeb"><g data-name="1"><path d="M62.42,6.58H33.58a6.51,6.51,0,0,0-6.5,6.5v6.6H14.32A6.36,6.36,0,0,0,8,26V70.36a6.37,6.37,0,0,0,6.36,6.36H33l-3,7.7H24.54a2.5,2.5,0,0,0,0,5H71.46a2.5,2.5,0,0,0,0-5H65.92l-3-7.7H81.68A6.37,6.37,0,0,0,88,70.36V26a6.36,6.36,0,0,0-6.36-6.36H68.92v-6.6A6.51,6.51,0,0,0,62.42,6.58ZM40.61,43.4H33.3a1.22,1.22,0,0,1-1.22-1.21V36.62H63.92v5.57A1.22,1.22,0,0,1,62.7,43.4H55.39a2.49,2.49,0,0,0-2.5,2.5v12a4.89,4.89,0,0,1-9.78,0v-12A2.49,2.49,0,0,0,40.61,43.4ZM32.08,13.08a1.5,1.5,0,0,1,1.5-1.5h2.63V24.7a2.5,2.5,0,0,0,5,0V11.58H45.5V24.7a2.5,2.5,0,1,0,5,0V11.58h4.29V24.7a2.5,2.5,0,0,0,5,0V11.58h2.63a1.5,1.5,0,0,1,1.5,1.5V31.62H32.08ZM60.57,84.42H35.43l3-7.7H57.62ZM81.68,24.68A1.36,1.36,0,0,1,83,26V70.36a1.36,1.36,0,0,1-1.36,1.36H14.32A1.36,1.36,0,0,1,13,70.36V26a1.36,1.36,0,0,1,1.36-1.36H27.08V42.19A6.22,6.22,0,0,0,33.3,48.4h4.81v9.52a9.89,9.89,0,0,0,19.78,0V48.4H62.7a6.22,6.22,0,0,0,6.22-6.21V24.68Z"/></g></svg>
