<?xml version="1.0" encoding="UTF-8"?>
<svg xmlns="http://www.w3.org/2000/svg" version="1.1" viewBox="0 0 135 135">

  <g>
    <g id="todays">
      <path d="M73.658,59.385c0,1.944-1.581,3.526-3.525,3.526h-11.07c-1.977,0-3.585,1.601-3.585,3.57v30.301c0,2.003-1.628,3.632-3.63,3.632h-7.605c-2.002,0-3.63-1.629-3.63-3.632v-14.641h-1.905c-2.002,0-3.631-1.635-3.631-3.645v-17.371c0-2.895,2.356-5.25,5.25-5.25h29.806c1.944,0,3.525,1.575,3.525,3.51ZM99.924,80.56v-32.926c0-3.895-3.168-7.062-7.062-7.062h-33.285c-1.381,0-2.5,1.119-2.5,2.5s1.119,2.5,2.5,2.5h33.285c1.137,0,2.062.925,2.062,2.062v32.926c0,1.138-.925,2.062-2.062,2.062h-31.057c-1.381,0-2.5,1.119-2.5,2.5s1.119,2.5,2.5,2.5h31.057c3.894,0,7.062-3.168,7.062-7.063ZM48.045,38.949c-3.125,0-5.661,2.536-5.661,5.661v3.817c0,3.125,2.536,5.661,5.661,5.661,1.563,0,2.975-.636,4.005-1.656,1.02-1.029,1.656-2.442,1.656-4.005v-3.817c0-3.125-2.536-5.661-5.661-5.661Z"/>
    </g>
  </g>
</svg>