<?xml version="1.0" encoding="UTF-8"?>
<svg id="tutorials" xmlns="http://www.w3.org/2000/svg" version="1.1" viewBox="0 0 135 135">
  <defs>
    <style>
      .cls-1 {
        fill: #aadaeb;
        stroke-width: 0px;
      }
    </style>
  </defs>
  <path class="cls-1" d="M73.203,77.21c.326.514.326.953-.122,1.291-2.584,1.953-5.234,3.792-8.478,4.503-.512.112-1.04.121-1.548.018-1.157-.234-1.945-1.413-1.738-2.602.207-1.191.654-2.317,1.003-3.469,1.064-3.513,2.154-7.018,3.225-10.529.092-.302.349-.683.037-.926-.281-.218-.636.029-.937.166-.354.162-.699.343-1.051.509-.254.12-.518.207-.805.18-.456-.042-.932-.125-1.112-.596-.182-.477.028-.925.397-1.246,2.219-1.93,4.666-3.416,7.642-3.842.274-.039.554-.038.936-.062.211.018.534.005.836.079,1.205.297,1.694,1.302,1.311,2.616-1.333,4.574-2.664,9.148-3.988,13.724-.093.323-.353.723-.021.983.298.234.626-.09.915-.228.652-.313,1.281-.674,1.935-.98.624-.292,1.234-.115,1.566.408ZM96,67.5c0-15.715-12.785-28.5-28.5-28.5s-28.5,12.785-28.5,28.5,12.785,28.5,28.5,28.5,28.5-12.785,28.5-28.5ZM91,67.5c0,12.958-10.542,23.5-23.5,23.5s-23.5-10.542-23.5-23.5,10.542-23.5,23.5-23.5,23.5,10.542,23.5,23.5ZM67.226,51.37c-1.937,0-3.509,1.535-3.509,3.509s1.572,3.546,3.509,3.546c1.974,0,3.546-1.572,3.546-3.546s-1.608-3.509-3.546-3.509Z"/>
</svg>