<?xml version="1.0" encoding="UTF-8"?>
<svg id="upload" xmlns="http://www.w3.org/2000/svg" version="1.1" viewBox="35 30 65 70">
  <defs>
    <style>
      .cls-1 {
        fill: #aadaeb;
        stroke-width: 0px;
      }
    </style>
  </defs>
  <path class="cls-1" d="M84.173,90.463h-33.325c-5.239,0-9.524-4.262-9.552-9.501l-.021-3.943c-.008-1.524,1.221-2.766,2.745-2.774h.015c1.517,0,2.751,1.226,2.759,2.745l.021,3.943c.012,2.212,1.821,4.012,4.033,4.012h33.325c2.224,0,4.033-1.809,4.033-4.033v-3.907c0-1.524,1.235-2.759,2.759-2.759s2.759,1.236,2.759,2.759v3.907c0,5.267-4.285,9.552-9.552,9.552Z"/>
  <path class="cls-1" d="M70.235,81.239h-5.14c-1.081,0-1.958-.877-1.958-1.958h0c0-1.081.877-1.958,1.958-1.958h5.14c1.081,0,1.958.877,1.958,1.958h0c0,1.081-.877,1.958-1.958,1.958ZM63.137,70.547v1.97c0,1.081.877,1.958,1.958,1.958h5.14c1.081,0,1.958-.877,1.958-1.958v-1.97c0-1.081-.877-1.958-1.958-1.958h-5.14c-1.081,0-1.958.877-1.958,1.958ZM79.359,54.792l-3.992-3.706-6.455-5.995c-.796-.739-2.028-.739-2.824,0l-6.455,5.995-3.992,3.706c-1.381,1.285-.472,3.598,1.414,3.598h6.084v5.418c0,1.081.876,1.957,1.957,1.957h5.14c1.081,0,1.957-.876,1.957-1.957v-5.418h5.753c1.886,0,2.794-2.313,1.414-3.598Z"/>
</svg>
