<?xml version="1.0" encoding="UTF-8"?>
<svg xmlns="http://www.w3.org/2000/svg" version="1.1" viewBox="0 0 135 135">
  <defs>
    <style>
      .cls-011 {
        fill: #63557f;
      }
    </style>
  </defs>
  <!-- Generator: Adobe Illustrator 28.7.4, SVG Export Plug-In . SVG Version: 1.2.0 Build 166)  -->
  <g>
    <g id="Layer_1">
      <path class="cls-011" d="M97.663,65.191c-.29-.509-.764-.878-1.326-1.036l-11.316-3.125c-.562-.158-1.132-.079-1.606.176-1.958-2.405-3.959-4.424-6.013-6.066l4.626-4.591c1.097-1.106,1.712-2.572,1.712-4.135s-.614-3.029-1.712-4.135l-2.344-2.335c-1.106-1.106-2.572-1.721-4.135-1.721s-3.029.614-4.135,1.721l-9.867,9.823c-6.452.457-13.282,3.871-20.349,10.218-2.01,1.8-2.555,4.732-1.308,6.961.43.764,1.124,1.58,2.265,2.124l-2.01,1.993c-.281.281-.483.632-.579,1.027l-2.449,9.955c-.184.746.035,1.536.579,2.081.413.413.974.641,1.554.641.167,0,.351-.018.518-.062l9.964-2.458c.386-.096.746-.298,1.027-.579l2.361-2.361c.272.65.667,1.255,1.194,1.782,1.089,1.089,2.511,1.633,3.933,1.633,1.431,0,2.853-.544,3.933-1.633l.852-.843c1.896,5.355,5.732,8.937,11.456,10.675-.298,1.15.386,2.326,1.536,2.642l11.316,3.134c.193.053.395.079.588.079.957,0,1.843-.641,2.116-1.615l7.822-28.302c.158-.562.088-1.159-.202-1.668ZM74.514,43.043c.571-.571,1.501-.571,2.072,0l2.335,2.335c.571.571.571,1.501,0,2.072l-1.615,1.598-4.398-4.407,1.606-1.598ZM44.131,63.251c3.985-3.582,7.83-6.119,11.491-7.593l-9.7,9.656c-.123-.018-.255-.026-.386-.018-1.484.097-1.738-.351-1.817-.5-.246-.439-.061-1.115.413-1.545ZM53.884,68.141c.097,1.053.5,2.098,1.159,3.037l-6.953,6.953-4.152,1.018-1.273-1.273,1.018-4.143,26.107-25.993,4.398,4.398-10.394,10.306c-1.053-.764-2.326-1.168-3.652-1.168-1.677,0-3.257.65-4.442,1.835-1.317,1.326-1.984,3.151-1.817,5.03ZM59.081,77.99c-.457.457-1.203.457-1.659,0s-.457-1.203,0-1.659l1.308-1.308,1.659,1.659-1.308,1.308ZM75.655,86.699c-4.618-1.422-7.462-4.293-8.779-8.805-.097-.325-.263-.623-.492-.869l-7.83-7.883c-.421-.421-.658-.983-.658-1.589,0-.597.237-1.159.658-1.589.43-.421.992-.658,1.589-.658s1.159.237,1.589.658l5.557,5.434c.369.369.86.571,1.378.571.562,0,1.053-.211,1.484-.65.369-.36.562-.851.562-1.369,0-.535-.211-1.036-.588-1.413l-3.143-3.072,7.251-7.19c2.449,1.887,4.854,4.398,7.198,7.532l-5.776,20.893ZM86.391,91.878l-7.084-1.958,6.663-24.08,7.084,1.966-6.663,24.071Z"/>
    </g>
  </g>
</svg>