<?xml version="1.0" encoding="UTF-8"?>
<svg id="Layer_2" data-name="Layer 2" xmlns="http://www.w3.org/2000/svg" viewBox="0 0 340.59 318.02">
  <defs>
    <style>
      .cls-1 {
        fill: #bcaad2;
      }

      .cls-2 {
        fill: #d88080;
      }

      .cls-3 {
        fill: #8eca7c;
      }
    </style>
  </defs>
  <g id="Layer_1-2" data-name="Layer 1">
    <g>
      <path class="cls-2" d="M190.51,193.68c3.52,10.48,5.44,21.7,5.44,33.36,0,21.1-6.27,40.77-17.02,57.24,16.68,20.57,42.15,33.73,70.7,33.73,50.24,0,90.97-40.73,90.97-90.97,0-45.66-33.63-83.45-77.47-89.97-14.03,28.57-40.66,49.88-72.61,56.61ZM256.42,173.94c13.63,0,25.92,7.2,32.9,19.25,7.65,13.22,8.37,30.36,1.88,44.72-4.19,9.29-10.83,16.26-19.17,20.31.09.71.12,1.47.06,2.27-.11,1.45-.62,4.27-2.92,6.7.11.94.19,1.94.16,2.95-.19,5.87-2.58,11.22-4.55,14.67l-.13.24c-2.01,3.54-6.2,10.9-13.7,10.9-2.61,0-5.1-.94-7.2-2.73-3.8-3.23-4.94-8.23-2.97-13.06,1.02-2.49,2.66-4.56,3.97-6.23.36-.46.9-1.14,1.09-1.43.55-1.08.85-2.06.95-3.2-2.62-1.51-4.46-3.85-5.19-6.63-.43-1.63-.44-3.18-.21-4.62-9.62-4.49-17.1-12.77-21.14-23.69-5.81-15.73-3.29-33.3,6.57-45.86,7.29-9.28,18.08-14.6,29.6-14.6h0Z"/>
      <path class="cls-2" d="M252.04,253.21c.81.85-5.73,6.76-1.16,9.25.8.44,3.05.64,3.26.94.19.26.61,3.18.65,3.76.19,3.34-.35,6.16-1.88,9.13-1.47,2.84-7.57,7.82-3.99,10.86.68.58,1.36.83,2.03.83,2.95,0,5.61-4.86,6.89-7.1,1.83-3.21,3.38-7.22,3.5-10.97.06-1.92-.82-5.17-.37-6.84.07-.25,2.95-.48,3.14-3.14.18-2.47-2.45-4.12-3.12-6.36,24.54-4.92,33.12-36.1,21.4-56.36-5.8-10.03-15.86-15.26-25.97-15.26-8.58,0-17.2,3.76-23.31,11.54-15.69,19.97-7.32,54.49,18.93,59.73ZM268.13,197.14c2.53-.66,5.67,4.45,6.59,6.36,2.04,4.22,3.1,10.1,2.79,14.76-.16,2.45-.94,9.31-4.95,7.02-2.44-1.39-.5-7.86-.55-10.45-.04-2.18-.95-6.2-1.71-8.29-.72-1.95-5.83-8.44-2.17-9.4Z"/>
      <g>
        <path class="cls-1" d="M211.42,78.2h-85.36s-.58.54-.58.58v53.79c0,.84,2.04,1.98,2.9,1.78l82.45-.23c.19-.09,1.15-1.05,1.18-1.16v-54.18s-.54-.58-.58-.58ZM183.58,91.29c.25-1.79,1.15-2.93,2.98-3.26,1.9-.34,9.51-.35,10.99.52.99.59,1.47,1.57,1.6,2.69.17,1.44.18,9.39-.21,10.33-.74,1.78-5.17,1.99-7.01,1.99-1.86,0-4.17-.8-6.22-.43-.63-.08-1.03-.49-1.38-.96-1.07-1.42-1.02-8.9-.74-10.88ZM151.87,124.68c-1.21.48-9.04.53-10.64.32-3.83-.51-3.13-8.16-2.92-11.14.17-2.4.61-3.76,3.32-4.09,1.95-.24,7.44-.25,9.38,0,.59.07,1.66.47,2.01.91.31.39.41.79.47,1.27.22,1.59.43,4.94.45,6.59.02,1.92-.08,5.36-2.07,6.15ZM153.56,101.42c-.49,1.21-1.3,1.59-2.56,1.73-1.44.17-10.26.17-11.11-.21-2.12-.95-1.83-9.48-1.53-11.65.25-1.79,1.15-2.93,2.98-3.26,2.21-.4,10.57-.58,11.81,1.25,1.05,1.55,1.1,10.39.4,12.13ZM160.96,90.89c.24-1.55,1.51-2.59,2.99-2.85,1.9-.34,9.51-.35,10.99.52.99.59,1.47,1.57,1.6,2.69.17,1.44.18,9.39-.21,10.33-.32.76-1.47,1.48-2.31,1.59-1.34.18-10.74.13-11.51-.22-.89-.4-1.46-1.77-1.57-2.71-.22-1.87-.25-7.54.03-9.34ZM176.54,122.06c-.21,1.79-1.12,2.71-2.92,2.92-2.02.24-7.8.27-9.77.01-1.04-.14-2.22-1.12-2.61-2.07-.59-1.46-.56-10.71.32-11.95.44-.62,1.52-1.11,2.29-1.22,1.94-.26,9.85-.19,11.38.56.07.03,1.01,1.03,1.04,1.11.5,1.46.49,8.82.28,10.64ZM198.84,123.32c-.46,1.08-1.51,1.54-2.62,1.67-1.71.2-9.35.21-10.63-.3-2.75-1.1-2.38-8.98-2.01-11.56.2-1.42,1.06-2.93,2.58-3.27,1.59-.35,8.27-.3,10.06-.09,2.1.24,2.69,1.36,2.91,3.32.19,1.66.22,9.03-.29,10.23Z"/>
        <path class="cls-1" d="M125.47,69.24h86.33s.58-.54.58-.58v-10.91c0-.69-.93-1.97-1.76-2.13-3.17-.62-8.11.44-11.49-.01.96,10.36-13.25,10.22-12.47,0h-35.08c.46,10.14-13.9,10.38-12.86,0-2.37.42-10.83-.71-12.31.36-.18.13-.91,1.21-.95,1.39-.67,3.15.49,8.48,0,11.89Z"/>
        <path class="cls-1" d="M168.82,181.94c50.24,0,90.97-40.73,90.97-90.97S219.07,0,168.82,0s-90.97,40.73-90.97,90.97,40.73,90.97,90.97,90.97ZM116.15,56.21c.05-3.79,5.9-9.97,9.52-9.97h13.06c-2.76-12.64,15.01-12.66,12.86,0h35.08c-.62-5.34,1.16-9.9,7.23-9.37,5.19.45,5.67,5.11,5.24,9.37h13.06c3.39,0,8.88,5.61,9.17,9.15-.15,22.58.18,45.37-.03,67.81-.09,9.97,1.57,18.48-11.1,20.48-26.67-1.3-55,1.74-81.48.02-5.67-.37-9.99-2.23-12.05-7.82-1.36-26.4-.25-53.14-.56-79.66Z"/>
      </g>
      <g>
        <polygon class="cls-3" points="62.2 253.1 94.64 241.54 99 215.32 71.22 194.93 62.2 253.1"/>
        <path class="cls-3" d="M115.01,252.12l-.34.22-7.18,21.75c1.68-.34,8.16,1.79,9.03.74l5.99-20.17c.12-.47.19-1.08-.27-1.39-.97-.64-5.78-.48-7.22-1.15Z"/>
        <path class="cls-3" d="M136.29,221.54l-28.46-4.36-4.01,24.49,29.36,4.33c2.82-.11,4.07-1.21,4.76-3.87.91-3.47,2.1-11.05,2.31-14.63.22-3.77-.15-5.02-3.96-5.97Z"/>
        <path class="cls-3" d="M74.76,137.52C32.25,145.16,0,182.34,0,227.04c0,50.24,40.73,90.97,90.97,90.97s90.97-40.73,90.97-90.97c0-11.03-1.96-21.6-5.56-31.38-2.5.18-5.02.27-7.56.27-41.18,0-76.88-23.83-94.07-58.43ZM27.86,217.1c1.17-.24,2.32-.06,3.49.03,2.42.17,10.2.98,11.97,2.02,3.57,2.1,1.74,7.17-3.02,7.1-2.13-.03-11.8-1.31-13.33-2.16-3.03-1.69-2.63-6.26.89-6.99ZM44.14,240.74c-3.3,2.41-9.8,4.04-13.59,5.95-3.87.43-6.2-4.32-3.08-6.79.99-.79,12.06-5.83,13.38-6.14.77-.18,1.13-.26,1.94-.1,3.48.68,4.39,4.86,1.35,7.08ZM44.4,211.07c-1.18-.7-11.01-8.83-11.66-9.7-2.26-3.02.02-6.56,3.45-6.32,1.12.08,2.46,1.07,3.35,1.73,1.66,1.21,9.52,7.6,10.3,8.84,2.4,3.84-1.63,7.73-5.45,5.45ZM145.68,246.92c-2.42,5.75-8.18,8.3-14.21,7.7-2.76,8.22-4.09,17.05-7.62,24.96-1.46,1.75-3.63,3.59-5.96,3.99-3.03.51-12.35-.78-15.58-1.55-3.15-.75-4.8-2.95-4.31-6.2.92-6.06,4.98-14.92,6.8-21.18.39-1.34.92-2.69.84-4.13l-8.03-.85-36.27,13.08c-3.36,5.5-11.45,3.61-11.68-2.81,4.37-25.26,7.41-50.87,12.45-75.94,3.21-4.86,10.51-3.61,11.96,2l30.92,21.91c10.89,2.96,24.67,2.5,35.25,5.62,4.44,1.31,8.24,5.25,8.8,9.98.43,3.69-1.93,19.99-3.37,23.42Z"/>
      </g>
    </g>
  </g>
</svg>