<?xml version="1.0" encoding="UTF-8"?>
<svg xmlns="http://www.w3.org/2000/svg" version="1.1" viewBox="0 0 55 55">
  <defs>
    <style>
      .cls-1 {
        fill: #a7806a;
      }

      .cls-2 {
        fill: #41ac6d;
      }

      .cls-3 {
        fill: #f9a373;
      }
    </style>
  </defs>
  <!-- Generator: Adobe Illustrator 28.7.10, SVG Export Plug-In . SVG Version: 1.2.0 Build 236)  -->
  <g>
    <g id="Layer_46_copy_2">
      <g>
        <g>
          <polygon class="cls-3" points="23.953 16.057 23.506 16.646 24.268 16.765 23.953 16.057"/>
          <polygon class="cls-3" points="30.387 16.057 30.072 16.765 30.834 16.646 30.387 16.057"/>
          <path class="cls-3" d="M26.673,19.921c-.035.27-.265.471-.537.471h-1.413c-.266,0-.493-.194-.534-.457l-.057-.36h-1.336c.947,1.016,2.336,1.662,3.865,1.782.023-.54.055-.96.569-.96.485-.003.969-.061,1.438-.172.152-.036.316-.003.443.088.193.139.229.282.266.679.693-.255,1.476-.686,2.156-1.417h-4.815l-.045.346Z"/>
          <path class="cls-3" d="M27.17,7.181c-5.912,0-10.704,4.792-10.704,10.704s4.792,10.704,10.704,10.704,10.704-4.792,10.704-10.704-4.792-10.704-10.704-10.704ZM34.296,23.192c-.799.966-1.806,1.46-2.938,1.46-.472,0-.964-.085-1.474-.26-.716.673-1.6,1.051-2.552,1.07-.026,0-.051.002-.075.002-1.002,0-1.968-.392-2.751-1.09-.525.187-1.037.277-1.523.277-1.131,0-2.141-.494-2.938-1.46-1.944-2.357-2.127-7.027-.378-9.609,1.12-1.651,2.845-2.245,4.878-1.688.451-.394.958-.687,1.497-.862.22-.712.708-1.372,1.482-2.001.405-.329.984-.403,1.474-.187l.075.033c.394.173.679.504.781.905.098.392.01.799-.24,1.12-.144.183-.238.38-.277.575.179.118.348.252.51.401,2.011-.533,3.717.067,4.827,1.704,1.749,2.582,1.564,7.251-.378,9.609Z"/>
          <path class="cls-3" d="M33.776,14.191c-.758-1.122-1.814-1.582-3.146-1.373.047.073.094.148.138.224.148.26.059.59-.201.738-.085.049-.177.073-.27.073-.187,0-.37-.098-.468-.272-.602-1.049-1.497-1.637-2.519-1.657-.018-.002-.035-.002-.053-.002-1.068,0-2.096.624-2.757,1.677-.157.254-.492.331-.746.171-.252-.159-.329-.494-.169-.746.043-.069.089-.138.136-.205-1.336-.213-2.397.248-3.158,1.372-1.488,2.196-1.33,6.313.317,8.312.758.917,1.71,1.246,2.839.978-.047-.065-.091-.132-.134-.201-.159-.254-.083-.586.169-.746.254-.159.588-.083.746.171.673,1.07,1.722,1.696,2.81,1.675,1.021-.02,1.917-.608,2.519-1.657.148-.26.478-.348.738-.201.26.15.348.48.201.74-.043.077-.089.152-.136.222,1.126.262,2.074-.067,2.828-.982,1.649-1.999,1.806-6.116.317-8.312ZM28.679,17.233l1.09-2.452c.078-.175.242-.296.432-.318.192-.022.378.058.493.21l1.549,2.04c.115.152.142.353.071.53-.071.177-.23.303-.419.332l-2.639.412c-.028.004-.056.007-.083.007-.167,0-.326-.077-.43-.212-.12-.157-.145-.368-.065-.549ZM22.095,16.714l1.549-2.04c.116-.153.303-.233.493-.21.19.022.354.143.432.318l1.09,2.452c.081.181.056.392-.065.549-.103.135-.263.212-.43.212-.028,0-.056-.002-.083-.007l-2.639-.412c-.188-.029-.347-.155-.419-.332-.071-.177-.044-.378.071-.53ZM33.084,19.321c-.899,1.436-2.331,2.468-4.032,2.904-.154.039-.32.009-.449-.083-.207-.147-.237-.31-.276-.75-.194.03-.389.052-.586.066-.023.559-.044,1.001-.567,1.001h-.009c-2.487-.004-4.756-1.21-5.915-3.148-.1-.167-.103-.375-.007-.545s.276-.274.471-.274h2.88c.266,0,.493.194.534.457l.057.36h.476l.045-.346c.035-.27.265-.471.537-.471h6.383c.197,0,.378.107.473.279.096.172.09.382-.015.549Z"/>
          <path class="cls-3" d="M28.347,11.004c.087-.266.226-.525.413-.765.057-.073.055-.144.043-.189-.018-.079-.079-.142-.167-.181l-.075-.033c-.12-.053-.262-.037-.354.037-.396.321-.691.643-.893.97h.018c.348.008.689.063,1.015.161Z"/>
        </g>
        <g>
          <path class="cls-2" d="M37.475,28.18c-.468.925-1.309,2.226-2.735,3.455.094.075.218.138.366.173.12.028.236.033.338.022.004,0,.008-.002.014-.002.161-.02.291-.081.36-.155.104-.112.248-.173.397-.173.02,0,.037,0,.055.002.169.018.321.114.409.26.094.155.405.321.795.321.392,0,.702-.165.797-.321.087-.146.238-.242.407-.26.171-.018.336.045.453.171.069.075.199.136.362.155.004,0,.008.002.012.002.102.012.218.006.338-.022.148-.035.274-.098.368-.171-1.427-1.232-2.267-2.533-2.737-3.457Z"/>
          <path class="cls-2" d="M38.456,23.334c-1.655,3.393-4.804,5.929-8.586,6.745.386,1.201.596,2.479.596,3.807,0,2.519-.753,4.865-2.043,6.829,1.963,2.367,4.927,3.875,8.242,3.875,5.912,0,10.704-4.792,10.704-10.704,0-5.301-3.855-9.7-8.914-10.552ZM42.695,31.975c.358,0,.648.29.648.649s-.29.649-.648.649-.649-.29-.649-.649.29-.649.649-.649ZM41.212,26.764c.358,0,.649.29.649.649s-.29.648-.649.648-.648-.29-.648-.648.29-.649.648-.649ZM31.917,30.678c.358,0,.648.29.648.649s-.29.648-.648.648-.648-.29-.648-.648.29-.649.648-.649ZM44.203,39.294c-.234.795-1.068,1.452-2.129,1.675-.815.169-1.647.057-2.261-.285-.203.169-.443.317-.712.435v1.505c0,.299-.242.541-.541.541s-.541-.242-.541-.541v-1.216c-.177.022-.358.033-.543.033-.183,0-.364-.012-.541-.033v1.216c0,.299-.242.541-.541.541s-.541-.242-.541-.541v-1.505c-.27-.118-.512-.266-.714-.435-.614.342-1.444.455-2.259.285-1.061-.222-1.897-.88-2.129-1.675-.065-.222.018-.46.207-.594.634-.449,1.24-.933,1.799-1.436.222-.201.565-.183.763.039.201.222.183.565-.039.763-.476.429-.982.844-1.511,1.236.214.25.596.494,1.131.606.785.163,1.45-.057,1.736-.331.114-.112.274-.165.431-.15.159.018.303.102.392.234.234.346.935.697,1.818.697s1.584-.35,1.818-.697c.091-.132.234-.216.394-.234.157-.016.315.037.431.15.285.274.948.494,1.734.331.535-.112.917-.356,1.131-.606-1.023-.76-1.96-1.6-2.79-2.499-.148-.161-.185-.394-.094-.592.091-.199.295-.323.51-.317.165.006.333-.008.498-.041.358-.075.64-.228.819-.394-1.043-.775-1.972-1.645-2.769-2.594-.122-.028-.238-.069-.348-.12-.35.264-.826.419-1.332.419s-.982-.155-1.33-.419c-.11.051-.228.092-.35.12-.795.948-1.724,1.818-2.767,2.594.177.165.458.319.819.392.624.13,1.145-.037,1.368-.25.114-.108.27-.161.429-.146.157.016.301.102.39.232.183.266.736.533,1.442.533.494,0,.966-.134,1.267-.358.238-.179.579-.13.758.108.179.24.13.579-.11.758-.488.366-1.185.575-1.915.575-.762,0-1.476-.228-1.958-.608-.523.27-1.216.356-1.891.216-.915-.189-1.639-.756-1.842-1.444-.067-.222.018-.462.209-.596.919-.643,1.749-1.362,2.477-2.141-.486-.222-.848-.614-.966-1.069-.055-.207.018-.427.185-.559,2.59-2.064,3.257-4.457,3.265-4.483.063-.236.277-.399.521-.399.246,0,.458.163.523.399.01.037.699,2.438,3.263,4.483.167.132.24.352.187.559-.12.457-.482.85-.968,1.069.73.779,1.56,1.497,2.479,2.141.191.134.274.374.209.596-.175.588-.73,1.088-1.46,1.34.701.677,1.466,1.311,2.289,1.893.189.134.272.372.207.594ZM44.298,30.341c0-.358.29-.649.649-.649s.648.29.648.649-.29.648-.648.648-.649-.29-.649-.648ZM45.312,37.081c-.358,0-.648-.29-.648-.649s.29-.649.648-.649.649.29.649.649-.29.649-.649.649Z"/>
        </g>
        <g>
          <rect class="cls-1" x="13.123" y="28.377" width="2.454" height="1.575" transform="translate(-16.419 18.689) rotate(-45)"/>
          <path class="cls-1" d="M12.569,30.658c.152.462.089.917-.185,1.438.022.03.041.059.059.089l.826-.826-.701-.701Z"/>
          <path class="cls-1" d="M14.041,32.13l-1.257,1.255s-.002.002-.002.002c-.024.232-.102.47-.23.724l.427.427,1.736-1.736-.673-.673Z"/>
          <path class="cls-1" d="M16.704,34.021c.291-.291.346-.492.423-.767.092-.335.209-.752.701-1.246.494-.494.911-.61,1.248-.702.114-.032.216-.061.317-.104l-.767-.767-5.51,5.51.767.767c.045-.1.073-.203.104-.317.092-.336.209-.754.702-1.248.494-.494.911-.61,1.246-.702.277-.077.478-.132.769-.423Z"/>
          <path class="cls-1" d="M28.087,30.328c-.281.019-.564.032-.851.032-4.914,0-9.172-2.857-11.204-6.996-4.975.921-8.745,5.28-8.745,10.522,0,5.912,4.792,10.704,10.704,10.704s10.704-4.792,10.704-10.704c0-1.248-.216-2.445-.608-3.558ZM24.797,37.106l-5.01,5.01c-.106.106-.246.159-.386.159s-.279-.053-.386-.159l-4.447-4.449c-.033.041-.069.085-.108.128-.026.057-.063.11-.108.155-.106.106-.246.159-.384.159-.14,0-.279-.053-.386-.159l-.02-.02-1.604-1.604c-.213-.213-.213-.557,0-.769l.25-.248-.724-.724c-.057-.057-.1-.126-.126-.199-.006-.016-.012-.033-.016-.049-.006-.024-.01-.047-.014-.073-.002-.022-.004-.043-.004-.065,0-.026.002-.051.006-.077.004-.026.01-.051.016-.077.008-.026.018-.049.03-.075.012-.024.024-.047.039-.071.403-.614.392-.828-.094-1.401-.006-.006-.012-.014-.018-.02-.189-.218-.173-.543.03-.74.342-.551.301-.771-.175-1.324-.089-.104-.134-.23-.132-.356,0-.026.002-.051.006-.077.002-.026.008-.051.016-.077.006-.016.01-.031.016-.047,0-.002.002-.006.002-.006.014-.031.031-.063.051-.092.01-.014.02-.029.031-.043s.024-.028.037-.041c.01-.01.02-.02.03-.028l3.062-3.064c.213-.213.557-.213.769,0l2.944,2.944.248-.25c.213-.213.557-.213.769,0l1.604,1.604.02.02c.008.008.014.014.018.022.195.213.187.543-.018.748-.047.047-.1.085-.157.11-.043.037-.085.073-.126.106l3.327,3.326,1.122,1.122c.213.214.213.559,0,.771Z"/>
          <polygon class="cls-1" points="15.484 32.033 17.219 30.298 16.546 29.623 14.811 31.358 15.484 32.033"/>
          <path class="cls-1" d="M19.972,39.696c-.106.106-.246.159-.386.159s-.279-.053-.386-.159c-.213-.213-.213-.557,0-.769l3.324-3.324-3.229-3.229c-.242.069-.431.138-.697.403-.291.291-.346.49-.423.767-.092.335-.209.752-.702,1.246-.494.494-.911.61-1.248.702-.275.077-.476.132-.767.423-.266.266-.335.457-.403.699l4.347,4.347,4.241-4.241-.346-.346-3.324,3.322ZM17.618,37.185c-.4-.293-.464-.953-.116-1.289l.026-.026c.169-.197.515-.183.695-.336.123-.137.106-.376.238-.565.177-.284.531-.433.859-.364.748.139.892,1.028.83,1.681-.032.438-.067,1.042-.613,1.108-.626.104-1.39.19-1.919-.209Z"/>
        </g>
      </g>
    </g>
  </g>
</svg>
