<?xml version="1.0" encoding="UTF-8"?>
<svg xmlns="http://www.w3.org/2000/svg" version="1.1" viewBox="0 0 55 55">
  <defs>
    <style>
      .cls-1 {
        fill: #f1a5c8;
      }

      .cls-2 {
        fill: #69bfdc;
      }

      .cls-3 {
        fill: #ffe0a0;
      }
    </style>
  </defs>
  <!-- Generator: Adobe Illustrator 28.7.10, SVG Export Plug-In . SVG Version: 1.2.0 Build 236)  -->
  <g>
    <g id="Layer_46_copy_2">
      <g>
        <g>
          <path class="cls-1" d="M16.035,35.451l.057.004c.033.002.063.008.094.014.045.01.089.026.13.049.012.006.026.014.039.024.035.026.071.055.1.091.012.012.02.024.03.037.016.024.031.051.045.081.018.041.031.089.037.138l.004.031.006.045q.085.689.474.687c.569.014.988-.12,1.295-.415.634-.604.805-1.895.858-3.074-.183-.124-.342-.289-.458-.492-.626.085-1.12.183-1.751.295-.559.159-1.041.39-1.332.734-.274.323-.388.75-.34,1.303q.022.403.712.449ZM16.446,35.444c-.03-.036-.065-.065-.102-.091.039.023.074.055.102.091ZM16.102,35.269c.026.002.05.005.074.011-.032-.006-.062-.01-.095-.012h.022Z"/>
          <path class="cls-1" d="M11.431,33.533c-.078.012-.138.093-.19.151-.164.227-.464.291-.69.118-.158-.108-.282-.189-.405.029-.132.201-.24.417-.232.666.012.363.219.703.443.977.231.284.484.55.755.797.088.081.23.056.289-.049.228-.403.461-.806.589-1.253.083-.29.125-.611.009-.898-.125-.227-.314-.509-.567-.54Z"/>
          <path class="cls-1" d="M20.319,32.383c.268-.14.372-.47.234-.738-.069-.13-.181-.226-.321-.27-.065-.022-.132-.03-.199-.026-.075.004-.15.026-.218.061-.13.067-.226.181-.27.321-.045.138-.031.287.035.417.138.268.468.372.738.234Z"/>
          <path class="cls-1" d="M20.529,30.437c.077.024.15.053.218.089.401-.411.728-.704,1.096-1.11.055-.07.107-.141.157-.212-1.115-.518-2.141-1.197-3.049-2.006-.058.114-.099.233-.122.357-.155.813.382,1.885.982,2.834.236-.043.482-.026.718.049Z"/>
          <path class="cls-1" d="M21.458,37.336q.39.112.659-.525l.028-.063c.012-.024.024-.049.035-.071.016-.028.035-.051.057-.077.004-.004.008-.008.014-.012.008-.012.018-.02.03-.028.002-.004.006-.006.01-.008.008-.01.018-.016.028-.022.01-.01.022-.014.03-.02.018-.012.037-.022.057-.03.008-.004.016-.006.02-.01.012-.004.022-.006.033-.01.002-.002.006-.004.008-.004.004,0,.006-.002.01-.002.012-.002.026-.006.037-.008.02-.004.039-.006.059-.008h.057c.01,0,.022.002.031.004.002-.002.004-.002.006,0,.012.002.024.004.035.006h.004l.033.008.043.008q.677.148.805-.22c.201-.533.211-.972.033-1.36-.358-.787-1.499-1.372-2.582-1.806-.083.067-.171.126-.27.177-.13.067-.266.114-.403.14-.275,1.145-.464,2.432-.024,3.186.214.368.58.614,1.116.754ZM22.138,36.55c.009-.022.019-.043.032-.061-.012.022-.025.047-.035.071l.003-.01Z"/>
          <path class="cls-1" d="M28.088,30.328c-.281.02-.565.031-.851.031-.27,0-.538-.01-.804-.027-.039.215-.132.423-.241.617.439.433.809.988.187,1.86-.447.669-1.021,1.08-1.696,1.212-.112.024-.224.035-.336.041-.022.002-.045.004-.067.002.092.134.173.272.238.417.285.628.283,1.332-.006,2.1-.248.714-.655.929-1.09.954-.175.01-.354-.012-.529-.039-.203.427-.484.84-1.07.874-.179.01-.386-.016-.624-.085-.779-.203-1.358-.61-1.704-1.204-.081-.138-.148-.283-.199-.435-.083.11-.171.213-.27.305-.435.411-.994.641-1.673.681-.102.006-.207.008-.313.004-1.061.004-1.297-.618-1.393-1.23-.618-.063-1.25-.268-1.307-1.338-.067-.801.128-1.482.575-2.005.096-.116.205-.22.325-.317-.12-.047-.234-.104-.342-.167-.594-.346-1-.927-1.206-1.718-.295-1.021.24-1.419.799-1.682-.108-.61-.087-1.273.927-1.621.752-.283,1.46-.285,2.088.002.108.047.213.106.315.171.008-.12.02-.24.043-.358.06-.314.183-.605.362-.874-.881-.922-1.623-1.978-2.191-3.135-4.976.92-8.747,5.279-8.747,10.522,0,5.912,4.792,10.704,10.704,10.704s10.704-4.792,10.704-10.704c0-1.247-.216-2.444-.608-3.557ZM11.963,36.944c-.004.007-.009.014-.014.021-.008.011-.016.021-.025.031-.308.359-.731.416-1.105.149-.011-.008-.021-.016-.032-.025-.811-.708-2.481-2.165-1.344-3.776.023-.033.048-.066.074-.1.378-.516.779-.497,1.11-.36.084.035.178.021.249-.037.277-.228.657-.361,1.176.026,1.697,1.197.49,3.138-.09,4.071ZM17.166,39.641c-.11,1.071-.338,3.275-2.31,3.275-.041,0-.082,0-.124-.003-.639-.011-.855-.35-.934-.699-.02-.089-.086-.158-.174-.182-.346-.095-.674-.328-.657-.975-.001-2.077,2.281-2.21,3.377-2.274.008,0,.017,0,.025,0,.013,0,.027,0,.04.002.471.045.762.357.758.817,0,.013,0,.027-.002.04Z"/>
          <path class="cls-1" d="M25.102,30.872c.002-.012.008-.024.014-.035.008-.02.018-.037.028-.055.01-.014.016-.028.026-.039l.016-.028c.148-.24.234-.382.266-.483-.787-.113-1.55-.302-2.282-.555-.207.116-.413.261-.617.427,0,.002-.002.002-.004.004-.384.372-.699.724-1.104,1.124.128.262.173.543.146.817.97.612,2.074,1.173,2.902,1.009.417-.081.769-.346,1.078-.807q.234-.329-.279-.795l-.035-.033-.024-.02c-.049-.045-.085-.098-.112-.155-.008-.014-.012-.028-.016-.039-.006-.01-.008-.018-.01-.028-.008-.02-.01-.037-.014-.055-.002-.02-.006-.039-.008-.059,0-.024,0-.045.002-.069.002-.043.012-.083.028-.124Z"/>
          <path class="cls-1" d="M15.531,29.573c-.004.014-.006.028-.012.041-.022.083-.069.155-.134.214-.008.01-.018.018-.028.026-.014.012-.026.02-.041.03-.004.004-.01.006-.016.01-.018.012-.037.02-.057.03l-.01.004-.063.028q-.64.27-.529.643c.142.551.388.915.754,1.131.378.22.887.285,1.448.258.712-.112,1.167-.161,1.702-.274.01-.094.031-.189.061-.281.057-.179.144-.342.26-.486-.431-1.057-1.002-2.145-1.769-2.493-.388-.177-.828-.167-1.348.03q-.382.13-.236.807l.012.057c.002.008.006.014.006.022.006.026.008.051.01.075s0,.049-.002.073c0,.02-.004.039-.008.057Z"/>
          <path class="cls-1" d="M16.081,39.658c-.46.046-.924.088-1.363.241-.284.099-.572.25-.739.511-.114.234-.235.55-.114.775.054.057.156.059.233.068.28.003.505.211.495.496.003.191.008.339.257.314.24-.008.479-.044.678-.195.29-.219.448-.584.543-.925.099-.353.17-.713.216-1.077.015-.119-.087-.22-.206-.208Z"/>
        </g>
        <path class="cls-2" d="M38.456,23.333c-1.655,3.394-4.805,5.928-8.588,6.744.387,1.201.598,2.48.598,3.808,0,2.519-.753,4.865-2.043,6.829,1.963,2.367,4.927,3.875,8.242,3.875,5.912,0,10.704-4.792,10.704-10.704,0-5.301-3.855-9.7-8.914-10.552ZM39.943,26.07c.543,0,.983.44.983.983s-.44.983-.983.983-.983-.44-.983-.983.44-.983.983-.983ZM33.283,30.913c.543,0,.983.44.983.983s-.44.983-.983.983-.983-.44-.983-.983.44-.983.983-.983ZM34.821,40.832h-.682l.338.587c.068.115.086.249.05.378-.034.125-.115.23-.23.297-.074.042-.159.065-.245.065-.174,0-.338-.092-.43-.247l-.338-.588-.183.312-.161.281c-.089.15-.252.243-.425.243-.087,0-.173-.023-.242-.064-.116-.066-.2-.173-.234-.301-.034-.128-.016-.262.05-.372l.338-.59h-.679c-.273,0-.495-.222-.495-.495,0-.271.222-.492.495-.492h.681l-.342-.592c-.137-.242-.055-.539.18-.671.075-.044.161-.068.248-.068.173,0,.336.093.428.248l.341.591.341-.598c.089-.148.253-.24.427-.24.087,0,.171.022.249.067.235.138.314.433.178.674l-.16.279-.182.311h.684c.271,0,.492.221.492.492,0,.273-.221.495-.492.495ZM44.83,34.637l-1,.142.455.342c.219.164.263.475.099.694-.164.219-.475.263-.694.099l-1.248-.937-.981.139-.599.085.209.266.164.21.611.78,1.549.188c.272.033.465.28.432.551h0c-.033.272-.28.465-.551.432l-.565-.069.623.795c.169.215.131.527-.084.696-.215.169-.527.131-.696-.084l-.623-.795-.068.565c-.033.272-.28.465-.551.432h0c-.272-.033-.465-.28-.432-.551l.188-1.549-.611-.78-.373-.476-.226.561-.37.92.612,1.435c.107.252-.01.543-.261.65-.252.107-.543-.01-.65-.261l-.223-.524-.377.937c-.102.254-.391.377-.645.275-.254-.102-.377-.391-.275-.645l.377-.938-.524.223c-.252.107-.543-.01-.65-.261-.107-.252.01-.543.261-.65l1.435-.612.37-.919.099-.247.126-.314-.335.048-.264.038-.981.139-.937,1.248c-.164.219-.475.263-.694.099-.219-.164-.263-.475-.099-.694l.342-.455-1.001.142c-.271.039-.522-.15-.56-.421-.038-.271.15-.522.421-.56l1-.142-.455-.342c-.219-.164-.263-.475-.099-.694.164-.219.475-.263.694-.099l1.248.937.981-.139.599-.085-.209-.266-.164-.21-.611-.78-1.549-.188c-.272-.033-.465-.28-.432-.551h0c.033-.272.28-.465.551-.432l.565.069-.623-.795c-.169-.215-.131-.527.084-.696.215-.169.527-.131.696.084l.623.795.068-.565c.033-.272.28-.465.551-.432.272.033.465.28.432.551l-.188,1.549.611.78.373.476.226-.561.37-.92-.612-1.435c-.107-.252.01-.543.261-.65.252-.107.543.01.65.261l.223.524.377-.937c.102-.254.391-.377.645-.275.254.102.377.391.275.645l-.377.938.524-.223c.252-.107.543.01.65.261.107.252-.01.543-.261.65l-1.435.612-.37.919-.099.247-.126.314.335-.048.264-.038.981-.139.937-1.248c.164-.219.475-.263.694-.099.219.164.263.475.099.694l-.342.455,1.001-.142c.271-.039.522.15.56.421.038.271-.15.522-.421.56Z"/>
        <g>
          <path class="cls-3" d="M32.367,9.696c-.048.008-.096.018-.143.028-.057.011-.114.024-.171.037-.042.01-.084.021-.126.032-.028.008-.055.016-.083.025-.051.015-.101.032-.151.049-.066.023-.133.047-.198.073-.003.001-.006.002-.009.004-.058.023-.115.049-.172.075-.063.029-.125.059-.186.09-.066.035-.132.072-.197.111-.047.028-.093.055-.138.085-.002.001-.004.003-.006.004-.077.05-.153.104-.228.161-.021.015-.041.031-.061.047-.022.017-.043.034-.064.052-.065.053-.128.107-.189.164-.007.007-.015.014-.022.02-.042.04-.083.081-.124.122-.041.042-.081.084-.12.127-.007.008-.013.015-.02.023-.055.062-.108.126-.159.191-.017.022-.034.044-.051.066-.017.022-.033.045-.049.067-.049.068-.096.137-.14.207-.005.008-.011.017-.016.025-.03.049-.059.099-.087.149-.029.051-.058.103-.085.156-.005.009-.009.018-.014.027-.036.073-.07.147-.102.222-.012.027-.023.054-.034.081-.01.026-.02.052-.03.079-.029.076-.056.153-.08.231-.003.011-.007.022-.01.033-.017.055-.032.111-.046.168-.014.056-.028.111-.04.167-.002.011-.005.023-.007.034-.016.08-.03.161-.041.242-.004.027-.008.055-.011.082-.003.029-.006.058-.009.087-.008.082-.014.163-.018.244,0,.01,0,.02-.001.03-.002.059-.002.118,0,.177,0,.058.002.115.004.172,0,.01.001.02.002.03.005.083.013.166.023.249.003.027.006.055.01.082.004.026.008.051.012.077.015.091.032.182.053.271,0,.003.001.006.002.009.012.053.027.105.041.158.02.072.041.143.064.213.022.066.047.132.073.197.022.057.045.113.07.168.002.006.005.011.007.017.027.061.057.12.087.179.025.048.05.096.077.143.015.026.029.053.045.079.02.034.041.068.062.102.033.051.067.101.101.151.029.041.057.083.087.123.006.008.012.015.018.023.047.061.096.119.146.177.034.039.067.079.101.117.063.068.129.133.196.197.027.025.053.051.08.075.075.067.153.131.232.192.024.019.048.037.072.055.081.059.164.115.249.169.029.018.058.036.087.054.079.047.16.091.242.132.035.018.07.035.105.051.013.006.026.012.039.018.064.029.129.057.194.083.052.021.104.041.157.059.012.004.024.008.036.013.052.018.104.034.157.05.075.022.149.043.225.061.047.011.094.021.141.03.086.017.172.032.259.044.042.006.084.01.125.014.09.009.18.016.27.02.045.002.091.001.136.002.086,0,.172,0,.257-.006.055-.003.11-.009.166-.015.074-.007.148-.015.222-.026.008-.001.016-.003.024-.004.052-.008.103-.019.154-.03.059-.012.118-.024.177-.039.038-.009.075-.019.113-.03.029-.008.059-.017.088-.026.052-.016.104-.032.155-.05.063-.022.126-.044.188-.07.005-.002.01-.004.014-.006.056-.023.112-.048.168-.073.064-.029.127-.059.189-.092.066-.034.131-.071.195-.11.047-.028.094-.056.14-.086.002-.001.003-.002.005-.003.077-.05.153-.104.228-.161.021-.016.042-.031.062-.047.02-.016.039-.032.059-.048.072-.059.142-.119.209-.182.002-.002.005-.005.007-.007.039-.037.078-.076.116-.115.052-.053.103-.107.152-.162.047-.053.091-.108.136-.163.037-.046.073-.093.108-.14.004-.006.009-.012.013-.018.039-.055.077-.111.113-.167.028-.043.055-.087.081-.131.016-.028.033-.055.049-.083.02-.036.04-.072.059-.108.026-.05.051-.102.075-.153.023-.048.046-.095.066-.144.005-.011.009-.021.013-.032.029-.07.055-.141.08-.213.016-.046.033-.092.048-.138.029-.094.054-.189.077-.284.007-.028.014-.056.02-.084.024-.111.043-.224.057-.337.001-.01.003-.019.004-.028,0-.008.002-.016.003-.025.013-.114.021-.228.025-.343,0-.023,0-.047,0-.07-.632-1.529-1.608-2.879-2.832-3.955-.02-.007-.04-.014-.061-.02-.092-.028-.184-.053-.277-.075-.027-.006-.053-.013-.08-.019-.107-.023-.214-.041-.322-.055-.018-.002-.035-.005-.053-.007-.112-.013-.225-.021-.338-.025-.003,0-.006,0-.009,0-.02,0-.039-.001-.059-.002-.094-.002-.188.002-.283.006-.033.002-.067.002-.1.004-.104.008-.208.021-.312.037-.013.002-.025.004-.038.006Z"/>
          <path class="cls-3" d="M37.776,16.025s-.001.002-.002.004c-.099.205-.21.403-.335.594-.006.009-.012.018-.018.027-.037.056-.075.111-.114.165-.021.03-.043.059-.065.088-.025.033-.049.065-.075.098-.039.049-.078.097-.119.145-.01.012-.02.023-.03.035-.147.172-.306.333-.474.484-.01.009-.02.017-.029.026-.048.043-.097.085-.147.126-.03.025-.061.049-.092.073-.03.023-.06.047-.091.07-.052.039-.105.077-.158.114-.011.007-.021.015-.032.022-.392.268-.82.481-1.273.634-.001,0-.003,0-.004.001-.032.011-.064.021-.096.031-.016.005-.032.011-.048.016-.046.014-.093.027-.139.04-.048.013-.095.027-.143.038-.011.003-.022.005-.034.008-.405.098-.817.149-1.229.149-.47,0-.939-.065-1.398-.192-.006-.002-.013-.003-.019-.005-.142-.04-.283-.086-.422-.138-.008-.003-.016-.006-.024-.009-.034-.013-.068-.024-.101-.038-.008-.003-.016-.008-.024-.011-.133-.054-.264-.116-.393-.181-.033-.017-.066-.033-.098-.05-.122-.065-.241-.135-.358-.21-.038-.024-.075-.049-.112-.074-.105-.071-.208-.145-.309-.224-.043-.034-.084-.069-.126-.105-.073-.061-.144-.124-.213-.189-.044-.041-.088-.081-.13-.123-.084-.085-.166-.174-.245-.265-.042-.048-.082-.097-.122-.147-.016-.02-.033-.038-.048-.058-.06-.076-.117-.154-.172-.233-.021-.03-.041-.061-.061-.091-.083-.123-.16-.25-.232-.378-.004-.007-.008-.015-.012-.022-.248-.453-.427-.936-.532-1.436-.003-.014-.006-.028-.009-.042-.012-.062-.024-.124-.034-.187-.007-.04-.012-.079-.018-.119-.005-.037-.01-.073-.015-.11-.008-.066-.014-.132-.02-.198,0-.012-.002-.023-.003-.035-.017-.227-.02-.455-.007-.683,0-.011.001-.022.002-.034.004-.066.009-.132.016-.199.004-.037.008-.074.013-.111.005-.039.01-.079.015-.118.009-.064.02-.127.031-.19.002-.013.005-.027.007-.04.042-.223.098-.442.169-.658.004-.013.008-.025.013-.038.021-.061.042-.122.065-.182.014-.036.028-.073.043-.109.014-.036.029-.071.044-.106.026-.06.053-.12.081-.179.005-.011.01-.022.016-.033.099-.205.21-.403.335-.594.006-.01.013-.019.019-.029.036-.055.074-.109.112-.163.022-.03.044-.06.067-.09.024-.032.048-.064.073-.095.039-.05.08-.099.121-.147.009-.011.018-.022.027-.032.148-.172.306-.334.475-.485.01-.009.02-.017.029-.026.048-.043.097-.085.147-.126.03-.025.061-.049.092-.073.03-.023.06-.047.091-.07.052-.039.105-.077.158-.114.011-.007.021-.015.032-.022.339-.232.705-.423,1.092-.569.003-.001.006-.002.01-.004.073-.028.147-.054.222-.078.011-.004.022-.007.033-.011.019-.006.039-.013.058-.019.043-.013.087-.026.131-.038.051-.014.101-.028.152-.041.013-.003.027-.006.04-.01.203-.049.407-.086.613-.111-1.129-.625-2.382-1.051-3.713-1.233l.384.489c.197.252.153.616-.099.813-.106.083-.232.123-.357.123-.172,0-.342-.076-.456-.222l-1.022-1.304c-5.873.047-10.618,4.821-10.618,10.702s4.792,10.703,10.705,10.703c4.999,0,9.196-3.427,10.373-8.059l-.635-.81c-.197-.252-.153-.616.099-.813.25-.196.61-.153.808.093.038-.366.058-.737.058-1.114,0-.634-.058-1.255-.164-1.859ZM24.131,10.165c.119-.297.456-.44.754-.321l1.742.701c.297.12.441.457.321.754-.091.226-.308.363-.538.363-.072,0-.145-.013-.216-.042l-1.742-.701c-.297-.12-.441-.457-.321-.754ZM22.407,14.669l3.136-.446.342-.049c.011-.002.022,0,.033-.001.028-.002.056-.005.084-.004.269.016.499.22.538.497.006.04.007.079.005.117-.016.269-.22.498-.497.538l-1.859.264s0,0-.001,0l-1.618.23c-.028.004-.055.006-.082.006-.284,0-.532-.209-.573-.498-.045-.317.175-.61.492-.655ZM20.502,19.829c-.016.006-.033.014-.051.018-.053.016-.108.024-.163.024-.112,0-.222-.031-.321-.096-.03-.02-.059-.043-.087-.069-.002-.002-.006-.006-.006-.008-.004-.002-.006-.004-.006-.006-.486-.492-.968-.823-1.433-.984-.301-.104-.462-.435-.358-.736.104-.303.435-.464.736-.36.496.171.99.468,1.474.885.482-.417.976-.714,1.472-.885.303-.104.632.057.736.36.106.301-.055.632-.358.736-.466.161-.948.494-1.436.99-.059.059-.126.104-.199.132ZM26.077,24.738c-.466.161-.948.494-1.436.99-.059.059-.126.104-.199.132-.016.008-.033.014-.051.018-.053.016-.108.024-.163.024-.112,0-.222-.031-.321-.096-.03-.02-.059-.043-.087-.069-.002-.002-.006-.006-.006-.008-.004-.002-.006-.004-.006-.006-.486-.492-.968-.823-1.431-.984-.303-.104-.464-.433-.36-.736.104-.303.435-.462.736-.358.496.169.99.466,1.474.885.484-.419.978-.716,1.472-.885.303-.104.634.055.738.358.104.303-.057.632-.36.736ZM27.771,18.602l-1.477,1.158c-.106.083-.232.123-.357.123-.172,0-.342-.076-.456-.222-.197-.252-.153-.616.099-.813l1.477-1.158c.252-.197.616-.153.813.099.197.252.153.616-.099.813ZM30.905,20.581l-1.311,3.259c-.091.226-.308.363-.538.363-.072,0-.145-.013-.216-.042-.297-.12-.441-.457-.321-.754l1.311-3.259c.119-.297.457-.44.754-.321.297.12.441.457.321.754ZM34.38,23.241c-.028.004-.055.006-.082.006-.284,0-.532-.209-.573-.498l-.264-1.858c-.045-.317.175-.61.492-.655.316-.047.61.175.655.492l.264,1.858c.045.317-.175.61-.492.655Z"/>
        </g>
      </g>
    </g>
  </g>
</svg>
