<?xml version="1.0" encoding="UTF-8"?>
<svg xmlns="http://www.w3.org/2000/svg" version="1.1" viewBox="0 0 186.312 186.312">
  <defs>
    <style>
      .cls-1 {
        fill: #63557e;
      }

      .cls-2 {
        fill: #63567f;
      }

      .cls-3 {
        fill: #cce2a8;
      }
    </style>
  </defs>
  <!-- Generator: Adobe Illustrator 28.7.3, SVG Export Plug-In . SVG Version: 1.2.0 Build 164)  -->
  <g>
    <g id="dino">
      <g>
        <circle class="cls-3" cx="93.156" cy="93.156" r="83.732"/>
        <path class="cls-2" d="M93.156,186.312C41.79,186.312,0,144.521,0,93.155S41.79,0,93.156,0s93.156,41.789,93.156,93.155-41.79,93.156-93.156,93.156ZM93.156,4C43.995,4,4,43.995,4,93.155s39.995,89.156,89.156,89.156,89.156-39.995,89.156-89.156S142.317,4,93.156,4Z"/>
        <g>
          <path class="cls-1" d="M54.604,60.825c0,1.379-1.122,2.5-2.491,2.5-1.379,0-2.5-1.121-2.5-2.5,0-1.37,1.121-2.491,2.5-2.491,1.37,0,2.491,1.121,2.491,2.491Z"/>
          <path class="cls-1" d="M84.784,103.019c-.625,1.149-3.576,7.134-.138,12.107.607.873,1.48,1.829,2.399,2.841,2.648,2.905,6.279,6.885,4.091,11.261-1.986,3.971-4.725,6.867-6.04,8.255l-.257.276c-1.471,1.581-4.854,2.684-8.218,2.684-1.379,0-2.721-.175-3.999-.524-.542.57-1.618,2.105-2.482,3.962-.404.873-1.296,1.443-2.261,1.443-.368,0-.717-.083-1.057-.239-1.241-.579-1.783-2.059-1.204-3.309,1.48-3.19,3.861-6.987,6.803-6.987.368,0,.735.055,1.085.175.965.322,2.004.487,3.089.487,2.418,0,4.302-.8,4.606-1.103l.267-.294c1.158-1.213,3.548-3.751,5.203-7.06.607-1.213-.993-3.116-3.309-5.663-.993-1.094-2.022-2.215-2.813-3.365-3.962-5.718-2.666-12.704-.138-17.337.276-.515.588-1.002.919-1.48-1.296-.561-2.482-1.305-3.576-2.234-1.866,4.201-3.686,7.327-5.598,8.384-2.611,1.443-6.582-.257-9.772-1.627-.561-.248-1.287-.561-1.728-.717-.478.303-1.296.965-1.875,1.434-1.645,1.333-3.217,2.601-4.652,2.601-.524,0-1.039-.165-1.526-.561-2.197-1.802-3.447-6.959-1.682-9.386,1.563-2.225,3.999-4.826,6.95-4.826h7.382c.303-5.865,1.958-12.833,5.865-16.731.781-.781,2.041-.781,2.822,0,.781.772.781,2.041,0,2.822-3.273,3.282-4.743,10.351-4.743,15.913,0,1.103-.892,1.995-1.995,1.995h-9.331c-.745,0-2.151.947-3.64,3.07-.313.579-.074,2.234.395,3.282.524-.386,1.177-.91,1.636-1.287,1.894-1.535,3.034-2.399,4.275-2.399.8,0,1.682.359,3.429,1.112,1.315.57,5.313,2.28,6.269,1.802,1.894-1.048,5.516-10.351,6.876-13.853.726-1.857,1.25-3.199,1.627-3.944.487-.993,1.691-1.388,2.675-.892.993.487,1.388,1.692.901,2.675-.294.588-.837,1.986-1.471,3.613-.34.873-.68,1.737-1.011,2.574,1.342,1.554,2.942,2.565,4.826,3.08,1.756-2.105,3.401-4.348,3.888-7.299.202-1.204,1.232-2.087,2.464-2.087.129,0,.267.009.404.037.662.11,1.241.469,1.627,1.011s.542,1.204.432,1.857c-.8,4.78-3.493,7.933-5.865,10.719-1.112,1.305-2.16,2.528-2.822,3.732Z"/>
          <g>
            <path class="cls-1" d="M118.356,75.004c.038-.099.08-.197.123-.294.529-1.163-.013-2.523-1.171-3.062-4.766-2.222-10.653-3.889-18.634-4.885-3.383-.423-6.885-.441-10.296-.45-5.111-.018-9.937-.037-13.192-1.461-2.51-1.103-5.295-4.164-7.336-6.416-.487-.533-.928-1.02-1.324-1.434-2.399-2.519-5.442-5.102-9.772-5.102-.496,0-1.011.037-1.535.101-.193-.074-.506-.193-.68-.267-.965-.405-2.271-.947-3.64-.947-.717,0-1.379.147-1.986.441-1.048.506-2.022,1.563-3.502,3.245-.726.836-1.636,1.866-2.16,2.252-1.986,1.489-3.788,1.912-5.709,2.353-1.609.377-3.273.763-4.753,1.82-3.989,2.85-2.353,8.935-1.995,10.112l.12.395c.368,1.287.818,2.739,1.627,3.87-.083,1.278.285,2.684,1.094,4.1,1.342,2.372,3.971,4.835,6.784,4.973.221.009.441.018.662.018,3.815-.009,7.924-1.655,10.93-2.868l.11-.037c.708-.285,1.618-.653,2.243-.864.092.074.368.303.368.303,1.388,1.186,3.3,2.813,5.543,4.164.386.23.836.358,1.287.349,1.23,0,2.351-.912,2.488-2.247.101-.975-.431-1.919-1.27-2.427-1.858-1.125-3.569-2.582-4.822-3.645-.487-.404-.91-.772-1.269-1.048-.083-.064-.165-.129-.267-.184-.469-.285-.984-.414-1.572-.414-1.158,0-2.528.542-4.596,1.379-2.519,1.011-6.315,2.537-9.229,2.537-.12,0-.239,0-.359-.009-.285-.009-1.112-.469-1.885-1.333.487-.175.91-.533,1.158-1.039l1.977-3.953,5.313,2.133c1.094.432,2.335-.092,2.776-1.177l1.753-4.258c.427-1.038.07-2.291-.921-2.819-1.137-.606-2.515-.087-2.993,1.074l-.993,2.409-5.175-2.068c-1.039-.423-2.216.027-2.712,1.029l-1.774,3.53c-.165-.211-.377-.386-.616-.533-.083-.119-.386-.616-.864-2.307l-.138-.487c-.469-1.517-.689-4.017.11-4.596.68-.478,1.747-.726,2.988-1.02,2.114-.487,4.753-1.103,7.575-3.217.928-.699,1.93-1.839,2.923-2.96.45-.515,1.462-1.664,1.839-1.986.202.037.653.156,1.627.57.846.349,1.636.68,2.51.68.175,0,.34-.018.515-.046.368-.055.726-.092,1.075-.092,2.317,0,4.146,1.425,6.177,3.558.368.377.763.818,1.241,1.342,2.335,2.574,5.534,6.104,9.027,7.63,4.201,1.839,9.542,1.866,15.196,1.885,3.236.009,6.591.027,9.68.414,7.417.926,12.808,2.432,17.164,4.47,1.195.559,2.658.047,3.134-1.184Z"/>
            <path class="cls-1" d="M161.561,89.294c-.377-1.563-1.655-2.583-3.273-2.583-3.254,0-5.322,1.903-7.143,3.576-1.232,1.14-2.51,2.317-4.164,2.868-.625.202-1.195.303-1.756.303-2.666,0-5.084-2.418-9.128-6.711-1.002-1.057-2.133-2.261-3.383-3.502-.844-.844-1.677-1.663-2.514-2.458-.971-.922-2.471-.8-3.388.176-.012.012-.023.025-.035.037-.939.977-.982,2.486,0,3.42.797.757,1.594,1.542,2.407,2.356,1.131,1.131,2.169,2.225,3.171,3.291l.12.119c4.192,4.44,7.814,8.283,12.723,8.273,1.085,0,2.215-.193,3.365-.57,2.666-.892,4.413-2.5,5.966-3.925.368-.34.708-.643,1.02-.91-1.646,2.804-4.909,6.646-8.889,8.641-7.124,3.558-14.938,5.369-23.239,5.369-3.364,0-6.361-.303-8.807-.689,1.425-1.839,2.565-4.21,3.116-7.253.248-1.352-.653-2.657-2.004-2.905-.156-.028-.303-.037-.46-.037-1.195,0-2.225.855-2.445,2.05-1.701,9.349-11.022,9.597-11.417,9.607-.827.009-1.6.423-2.05,1.103-.469.689-.552,1.563-.239,2.326.984,2.445,1.048,5.984.165,9.018-.221.735-.092,1.508.349,2.133.34.487.68.965,1.02,1.425,1.471,2.022,2.638,3.622,2.666,5.221-.257.57-1.921,2.225-2.565,2.859-2.544,2.535-5.694,5.668-5.833,9.587-.049,1.379.936,2.66,2.312,2.753,1.457.099,2.675-1.049,2.675-2.485,0-1.967,2.317-4.275,4.367-6.306,2.17-2.151,4.045-4.008,4.045-6.306,0-3.282-1.848-5.81-3.631-8.264l-.303-.423c.579-2.638.653-5.506.202-8.071,1.397-.313,3.227-.873,5.084-1.885,3.089.754,7.869,1.6,13.715,1.6,9.027-.009,17.604-2.013,25.501-5.957,6.821-3.41,13.688-12.557,12.677-16.869Z"/>
          </g>
        </g>
      </g>
    </g>
  </g>
</svg>