<?xml version="1.0" encoding="UTF-8"?>
<svg xmlns="http://www.w3.org/2000/svg" version="1.1" viewBox="0 0 186.312 186.312">
  <defs>
    <style>
      .cls-1111 {
        fill: #63567f;
      }

      .cls-1222 {
        fill: #e9e9e9;
      }
    </style>
  </defs>
  <!-- Generator: Adobe Illustrator 28.7.4, SVG Export Plug-In . SVG Version: 1.2.0 Build 166)  -->

    <g id="Layer_1">

          <circle class="cls-1222" cx="161.022" cy="161.022" r="23.29"/>
          <path class="cls-1111" d="M161.022,186.312c-13.944,0-25.289-11.345-25.289-25.29s11.345-25.29,25.289-25.29,25.29,11.345,25.29,25.29-11.345,25.29-25.29,25.29ZM161.022,139.732c-11.739,0-21.289,9.551-21.289,21.29s9.55,21.29,21.289,21.29,21.29-9.551,21.29-21.29-9.551-21.29-21.29-21.29Z"/>

        <path class="cls-1111" d="M173.766,148.216c-2.22-2.221-5.958-2.087-8.342.289l-15.788,15.795c-.259.252-.429.577-.503.925l-1.406,6.75c-.126.607.059,1.236.488,1.68.355.355.829.548,1.325.548.111,0,.229-.007.348-.03l6.839-1.317c.363-.067.696-.244.955-.511l15.795-15.788c2.376-2.376,2.509-6.121.289-8.342ZM155.469,169.333l-3.553.681.725-3.486,12.116-12.116,2.813,2.82-12.102,12.102ZM170.857,153.938l-.666.674-2.813-2.813.666-.674c.933-.94,2.324-1.066,3.101-.289.777.777.651,2.169-.289,3.101Z"/>

</svg>