<?xml version="1.0" encoding="UTF-8"?>
<svg xmlns="http://www.w3.org/2000/svg" version="1.1" viewBox="0 0 186.312 186.312">
  <defs>
    <style>
      .cls-1 {
        fill: none;
      }

      .cls-1, .cls-2 {
        stroke: #63567f;
        stroke-linecap: round;
        stroke-miterlimit: 10;
        stroke-width: 4px;
      }

      .cls-3 {
        fill: #d5cae4;
      }

      .cls-4 {
        fill: #63557e;
      }

      .cls-5 {
        fill: #f6ddcb;
      }

      .cls-6 {
        fill: #ebebeb;
      }

      .cls-7 {
        fill: #f69aa7;
      }

      .cls-8 {
        fill: #645780;
      }

      .cls-9 {
        fill: #ffcfae;
      }

      .cls-10 {
        fill: #ffe9bd;
      }

      .cls-11 {
        fill: #63567f;
      }

      .cls-2 {
        fill: #fff;
      }

      .cls-12 {
        fill: #f6c0d9;
      }

      .cls-13 {
        fill: #a1e3da;
      }

      .cls-14 {
        fill: #cce2a8;
      }

      .cls-15 {
        fill: #98d2e6;
      }

      .cls-16 {
        display: none;
      }
    </style>
  </defs>
  <!-- Generator: Adobe Illustrator 28.7.3, SVG Export Plug-In . SVG Version: 1.2.0 Build 164)  -->
  <g>
    <g id="mic" class="cls-16">
      <g>
        <circle class="cls-3" cx="93.156" cy="93.156" r="83.732"/>
        <path class="cls-11" d="M93.156,186.312C41.79,186.312,0,144.521,0,93.155S41.79,0,93.156,0s93.156,41.789,93.156,93.155-41.79,93.156-93.156,93.156ZM93.156,4C43.995,4,4,43.995,4,93.155s39.995,89.156,89.156,89.156,89.156-39.995,89.156-89.156S142.317,4,93.156,4Z"/>
        <g>
          <path class="cls-11" d="M130.125,46.694c-9.63-9.63-22.91-10.33-31.58-1.66l-1.65,1.66-1.65,1.64c-4.37,4.38-6.52,10.02-6.06,15.91v.01l-4.89,7.59c-.26.41-.4.88-.4,1.36v2.28l-16.37,16.92c-.86.89-.92,2.26-.17,3.24.01.02.02.03.03.04.9,1.21,2.68,1.29,3.73.21l17.08-17.66c.45-.46.7-1.09.7-1.73v-2.57l1.93-2.99c1.31,3.21,3.37,6.28,6.07,8.97,2.6,2.6,5.47,4.55,8.44,5.84l-2.43,1.5h-2.59c-.62,0-1.21.23-1.67.64l-33.39,29.9c-.92.88-2.03.93-2.4.56l-5.96-5.87c-.43-.44-.37-1.51.41-2.33l2.4-2.48c1.01-1.04.92-2.73-.22-3.63-.01-.01-.02-.02-.04-.03-1-.81-2.44-.74-3.33.19l-2.42,2.49c-2.64,2.78-2.78,6.87-.32,9.34l1.26,1.24-.72.72c-6.78,6.78-7.16,17.88-.44,24.73,3.39,3.46,7.89,5.2,12.38,5.19,4.44,0,8.89-1.69,12.27-5.07l2.29-2.29c.93-.93.93-2.47-.05-3.35-.08-.07-.15-.14-.23-.22-.89-.9-2.36-.86-3.26.04l-2.03,2.03c-4.55,4.55-11.89,5.16-16.84,1.06-5.67-4.7-5.97-13.17-.88-18.26l1.07-1.07,1.14,1.12c1.13,1.13,2.64,1.69,4.2,1.69,1.78,0,3.64-.72,5.11-2.12l32.62-29.22h2.35c.46,0,.91-.13,1.31-.37l7.07-4.36c.71.07,1.41.11,2.12.11,2.62,0,5.19-.5,7.62-1.51,2.43-1.01,4.71-2.53,6.74-4.56l1.64-1.65,1.65-1.65c8.68-8.67,7.98-21.95-1.64-31.57ZM128.235,74.734l-1.69,1.69c-1,.93-3.43.85-6.58-.41-1.02-.41-2.18-.07-2.85.8-.02.01-.03.03-.04.04-1.02,1.28-.49,3.21,1.04,3.81.69.27,1.37.51,2.03.7-6.2,2.78-13.69,1.05-19.72-4.98-3.66-3.67-5.88-8.1-6.25-12.46-.21-2.57.22-5.02,1.25-7.29.17.56.36,1.14.59,1.73,1.68,4.37,3.17,7.28,7.38,11.48.16.17.43.44.76.77,1.14,1.14,3,.78,3.78-.64l.03-.06c.53-.93.45-2.09-.3-2.86-.37-.4-.69-.73-.74-.78-3.73-3.72-4.81-5.97-6.25-9.7-1.11-2.89-1.22-5.29-.3-6.3l.03-.03,1.67-1.67c3.1-3.09,6.9-4.62,10.85-4.62,4.65,0,9.5,2.11,13.66,6.27,7.7,7.7,8.38,17.78,1.65,24.51Z"/>
          <path class="cls-11" d="M132.771,111.491c-.64,0-1.28-.244-1.768-.732-.977-.977-.977-2.559,0-3.535l5.238-5.238c.976-.977,2.56-.977,3.535,0,.977.977.977,2.559,0,3.535l-5.238,5.238c-.488.488-1.128.732-1.768.732Z"/>
          <path class="cls-11" d="M145.866,98.396c-.64,0-1.28-.244-1.768-.732-.976-.977-.976-2.56,0-3.535l5.238-5.237c.977-.978,2.559-.978,3.536,0,.976.977.976,2.56,0,3.535l-5.238,5.237c-.488.488-1.128.732-1.768.732Z"/>
          <path class="cls-11" d="M151.104,111.491c-.64,0-1.28-.244-1.768-.732l-5.238-5.238c-.977-.977-.977-2.559,0-3.535.976-.977,2.56-.977,3.535,0l5.238,5.238c.977.977.977,2.559,0,3.535-.488.488-1.128.732-1.768.732Z"/>
          <path class="cls-11" d="M138.009,98.396c-.64,0-1.279-.244-1.768-.732l-5.238-5.237c-.977-.976-.977-2.559,0-3.535.977-.977,2.559-.977,3.536,0l5.238,5.237c.977.976.977,2.559,0,3.535-.488.488-1.128.732-1.768.732Z"/>
          <path class="cls-11" d="M59.438,51.253h-7.857c-1.381,0-2.5-1.119-2.5-2.5s1.119-2.5,2.5-2.5h7.857c1.381,0,2.5,1.119,2.5,2.5s-1.119,2.5-2.5,2.5Z"/>
          <path class="cls-11" d="M77.771,51.253h-7.857c-1.381,0-2.5-1.119-2.5-2.5s1.119-2.5,2.5-2.5h7.857c1.381,0,2.5,1.119,2.5,2.5s-1.119,2.5-2.5,2.5Z"/>
          <path class="cls-11" d="M64.675,64.349c-1.381,0-2.5-1.119-2.5-2.5v-7.857c0-1.381,1.119-2.5,2.5-2.5s2.5,1.119,2.5,2.5v7.857c0,1.381-1.119,2.5-2.5,2.5Z"/>
          <path class="cls-11" d="M64.675,46.015c-1.381,0-2.5-1.119-2.5-2.5v-7.856c0-1.381,1.119-2.5,2.5-2.5s2.5,1.119,2.5,2.5v7.856c0,1.381-1.119,2.5-2.5,2.5Z"/>
          <path class="cls-11" d="M48.961,80.842c-1.381,0-2.5-1.119-2.5-2.5v-3.398c0-1.381,1.119-2.5,2.5-2.5s2.5,1.119,2.5,2.5v3.398c0,1.381-1.119,2.5-2.5,2.5Z"/>
          <path class="cls-11" d="M48.961,93.158c-1.381,0-2.5-1.119-2.5-2.5v-3.398c0-1.381,1.119-2.5,2.5-2.5s2.5,1.119,2.5,2.5v3.398c0,1.381-1.119,2.5-2.5,2.5Z"/>
          <path class="cls-11" d="M44.502,85.301h-3.398c-1.381,0-2.5-1.119-2.5-2.5s1.119-2.5,2.5-2.5h3.398c1.381,0,2.5,1.119,2.5,2.5s-1.119,2.5-2.5,2.5Z"/>
          <path class="cls-11" d="M56.818,85.301h-3.398c-1.381,0-2.5-1.119-2.5-2.5s1.119-2.5,2.5-2.5h3.398c1.381,0,2.5,1.119,2.5,2.5s-1.119,2.5-2.5,2.5Z"/>
          <path class="cls-11" d="M124.266,116.108c-5.262-8.668-16.838-9.637-23.515-2.958l-12.391,12.391c-.891.891-.873,2.29-.055,3.249.013.016.026.031.04.047.913,1.097,2.523,1.267,3.533.257l12.41-12.409c3.855-3.856,10.164-3.885,14.062-.066,1.968,1.928,3.015,4.54,2.92,7.312-.087,2.556-1.261,4.955-3.069,6.763l-7.347,7.348c-.925.925-1.104,2.433-.276,3.447.951,1.165,2.673,1.229,3.709.192l7.675-7.676c3.64-3.639,5.138-8.841,3.873-14.098-.322-1.337-.853-2.624-1.566-3.799Z"/>
        </g>
      </g>
    </g>
    <g id="art" class="cls-16">
      <g>
        <circle class="cls-7" cx="93.156" cy="93.156" r="83.732"/>
        <path class="cls-11" d="M93.156,186.312C41.79,186.312,0,144.521,0,93.155S41.79,0,93.156,0s93.156,41.789,93.156,93.155-41.79,93.156-93.156,93.156ZM93.156,4C43.995,4,4,43.995,4,93.155s39.995,89.156,89.156,89.156,89.156-39.995,89.156-89.156S142.317,4,93.156,4Z"/>
        <g>
          <path class="cls-4" d="M126.215,87.772c-.357-.573-.936-.972-1.597-1.105l-5.968-1.206c-1.309-.265-2.598.574-2.86,1.884-.004.021-.008.042-.013.062-.272,1.322.573,2.615,1.896,2.882l3.432.694-12.941,50.802c-.347,1.362-1.707,2.213-3.078,1.932-1.377-.278-2.293-1.584-2.087-2.97l6.359-41.794c.197-1.296-.692-2.497-1.985-2.709-.032-.005-.064-.011-.096-.016-1.326-.227-2.587.652-2.789,1.983l-6.36,41.804c-.596,3.988,2.034,7.736,5.983,8.532,1.348.273,2.685.168,3.905-.241,2.355-.791,4.265-2.727,4.922-5.303l13.579-53.312c.166-.655.057-1.349-.302-1.918Z"/>
          <path class="cls-4" d="M133.753,52.894c-.02-.01-.05-.01-.07-.01-.99-.15-1.77-.9-2.01-1.87-1.07-4.29-3.8-9.01-8.33-12.97-1.02,4.37-3.24,6.63-5.25,8.67-1.56,1.59-2.95,3-3.79,5.49-.75,2.24-.63,5.82.5,7.89.62,1.13,1.44,2.09,2.41,2.85.02.01.03.03.05.04,1.11.86,2.41,1.46,3.83,1.75,1.38.28,2.77.24,4.1-.1.01,0,.03-.01.04-.01.09-.02.17-.04.25-.06q.01,0,.02-.01c.89-.26,1.75-.65,2.53-1.18.72-.48,1.35-1.04,1.9-1.68s1.4-.93,2.23-.81h.04c1.88.26,2.75,2.5,1.53,3.94-.85,1.01-1.85,1.91-2.98,2.66-.8.52-1.63.97-2.5,1.32l-1.04,12.71c-.1,1.27-1.17,2.24-2.45,2.23h-.06c-1.41,0-2.51-1.22-2.4-2.62l.92-11.27c-1.03.01-2.07-.08-3.11-.29-1.04-.21-2.03-.53-2.97-.95l-5.96,18.15c-.26.76-.85,1.32-1.56,1.56-.49.16-1.03.18-1.55.01-1.29-.43-2-1.82-1.57-3.11l6.41-19.51c-.66-.66-1.26-1.4-1.79-2.2-2.09-3.16-2.83-6.93-2.08-10.64,1.01-5.01,3.42-7.45,5.54-9.61,2.35-2.39,4.2-4.28,4.39-9.85.03-.9.55-1.7,1.34-2.11.8-.39,1.75-.35,2.49.14,7.07,4.73,12,11.59,13.69,18.43.42,1.69-1.01,3.28-2.74,3.02Z"/>
          <g>
            <path class="cls-4" d="M129.497,117.783c-1.87,1.432-3.906,2.813-6.103,4.122-1.041.621-1.588,1.889-1.164,3.025.489,1.309,1.885,1.899,3.097,1.491.162-.054.321-.126.475-.218,2.414-1.432,4.664-2.949,6.734-4.532,1.044-.799,1.222-2.286.442-3.345-.024-.033-.048-.065-.071-.099-.773-1.107-2.338-1.266-3.409-.445Z"/>
            <path class="cls-4" d="M144.968,81.638c-3.04-3.059-6.992-4.06-11.436-2.899-1.347.408-2.153,1.777-1.724,3.132.406,1.282,1.821,1.918,3.126,1.595,2.686-.664,4.767-.142,6.485,1.586,4.889,5.246,4.21,12.799-2.016,22.453-.252.39-.518.779-.796,1.167-.759,1.056-.551,2.486.437,3.329.013.011.026.022.039.034,1.05.918,2.694.669,3.508-.465.333-.463.65-.929.952-1.397,9.472-14.685,6.035-23.593,1.425-28.537Z"/>
          </g>
          <g>
            <path class="cls-4" d="M91.305,132.811c-8.113.94-15.827.711-22.781-.583-1.333-.248-2.653.607-2.855,1.948-.003.017-.005.034-.008.051-.214,1.319.615,2.587,1.928,2.832,7.491,1.399,15.754,1.643,24.398.632.173-.02.341-.059.5-.112,1.215-.408,1.968-1.723,1.568-3.063-.347-1.16-1.547-1.844-2.75-1.704Z"/>
            <path class="cls-4" d="M47.184,122.894c-7.064-5.898-10.952-13.784-11.559-23.321-.038-2.735.162-5.377.588-7.924.202-1.211-.584-2.301-1.772-2.611-.043-.011-.085-.023-.127-.035-1.321-.393-2.685.419-2.919,1.777-.499,2.89-.733,5.886-.69,8.982.688,10.905,5.295,20.212,13.321,26.913,2.893,2.415,6.226,4.464,9.909,6.144,1.273.58,2.808.006,3.286-1.309.006-.016.012-.032.018-.048.462-1.223-.089-2.573-1.278-3.117-3.271-1.498-6.222-3.317-8.778-5.451Z"/>
            <path class="cls-4" d="M102.007,46.56c-4.581-.193-9.976-.303-16.12.731-24.276,4.07-41.629,14.767-49.838,29.983-.65,1.205-.086,2.643,1.165,3.2.015.007.03.014.045.021,1.137.524,2.458.145,3.048-.959,7.42-13.886,23.43-23.521,46.394-27.388,5.738-.964,10.87-.846,15.233-.661,1.396.054,2.574-1.061,2.568-2.481-.006-1.338-1.158-2.39-2.495-2.447Z"/>
          </g>
          <path class="cls-4" d="M87.544,77.941c-5.365,1.803-11.009-.543-12.584-5.228-1.574-4.685,1.509-9.961,6.874-11.764,5.365-1.803,11.008.541,12.583,5.226,1.574,4.685-1.508,9.963-6.873,11.766ZM83.403,65.618c-2.743.922-4.471,3.451-3.774,5.526.697,2.075,3.603,3.05,6.345,2.128,2.743-.922,4.47-3.453,3.773-5.528-.697-2.075-3.602-3.047-6.345-2.126Z"/>
          <path class="cls-4" d="M61.262,89.515c-5.365,1.803-11.009-.543-12.584-5.228-1.574-4.685,1.509-9.961,6.874-11.764,5.365-1.803,11.008.541,12.583,5.226,1.574,4.685-1.508,9.963-6.873,11.766ZM57.121,77.192c-2.743.922-4.471,3.451-3.774,5.526.697,2.075,3.603,3.05,6.345,2.128,2.743-.922,4.47-3.453,3.773-5.528-.697-2.075-3.602-3.047-6.345-2.126Z"/>
          <path class="cls-4" d="M58.857,115.009c-5.365,1.803-11.009-.543-12.584-5.228-1.574-4.685,1.509-9.961,6.874-11.764,5.365-1.803,11.008.541,12.583,5.226,1.574,4.685-1.508,9.963-6.873,11.766ZM54.717,102.686c-2.743.922-4.471,3.451-3.774,5.526.697,2.075,3.603,3.05,6.345,2.128,2.743-.922,4.47-3.453,3.773-5.528s-3.602-3.047-6.345-2.126Z"/>
          <path class="cls-4" d="M84.371,125.635c-5.365,1.803-11.009-.543-12.584-5.228-1.574-4.685,1.509-9.961,6.874-11.764,5.365-1.803,11.008.541,12.583,5.226,1.574,4.685-1.508,9.963-6.873,11.766ZM80.23,113.312c-2.743.922-4.471,3.451-3.774,5.526s3.603,3.05,6.345,2.128c2.743-.922,4.47-3.453,3.773-5.528-.697-2.075-3.602-3.047-6.345-2.126Z"/>
        </g>
      </g>
    </g>
    <g id="music" class="cls-16">
      <g>
        <circle class="cls-5" cx="93.156" cy="93.156" r="83.732"/>
        <path class="cls-11" d="M93.156,186.312C41.79,186.312,0,144.521,0,93.155S41.79,0,93.156,0s93.156,41.789,93.156,93.155-41.79,93.156-93.156,93.156ZM93.156,4C43.995,4,4,43.995,4,93.155s39.995,89.156,89.156,89.156,89.156-39.995,89.156-89.156S142.317,4,93.156,4Z"/>
        <g>
          <g>
            <path class="cls-11" d="M149.119,48.444c-.96-.95-1.2-1.72-1.57-2.89-.45-1.44-1.01-3.24-3-5.22-1.97-1.98-3.78-2.55-5.23-3.01-1.16-.37-1.93-.62-2.88-1.56-.47-.47-1.1-.73-1.77-.73-.66,0-1.29.26-1.76.73-3.13,3.12-15.92,15.91-15.92,15.91-.41.4-.66.92-.72,1.48l-.41,3.59-.22,1.91-.93.93-30.45,30.46c-4.05-1.3-8.92,0-12.17,3.25-2.62,2.62-4.08,6.1-4.1,9.79-.02,3.7,1.4,7.17,4.01,9.78,2.67,2.67,6.18,4,9.7,4,3.57,0,7.15-1.37,9.87-4.1,3.08-3.07,4.31-7.57,3.29-12.04-.01-.03-.02-.07-.03-.1l14.45-14.45c.89-.88.95-2.38.15-3.34l-.04-.05c-.93-1.1-2.61-1.18-3.64-.15l-14.23,14.21-3.49-3.5,30-30.01,3.52,3.52,2.67,2.67c.31.31.68.52,1.08.64l.93-.93,1.91-.22,3.59-.4c.57-.07,1.09-.32,1.49-.72l15.88-15.94c.97-.97.99-2.55.02-3.51ZM89.749,102.154c.11.11.23.2.35.29.41,2.57-.35,5.08-2.06,6.79-3.48,3.47-9.09,3.51-12.51.09-1.65-1.65-2.56-3.86-2.54-6.21.01-2.37.95-4.6,2.64-6.29,1.83-1.83,4.54-2.67,6.76-2.13.09.15.2.29.33.42l7.03,7.04ZM130.299,63.744l-4.31.49-5.34-5.35.49-4.3c2.22-2.22,9.89-9.88,13.74-13.73,1.07.64,2.07.96,2.93,1.23,1.22.39,2.09.67,3.21,1.78,1.11,1.12,1.39,1.99,1.76,3.19.27.87.59,1.86,1.23,2.93l-13.71,13.76Z"/>
            <path class="cls-11" d="M115.359,57.134c.15-.15.32-.29.5-.39l-.22,1.91-.93.93c-.23-.84-.02-1.79.65-2.45Z"/>
            <path class="cls-11" d="M128.139,69.014c-.1.18-.23.35-.38.51-.49.49-1.13.73-1.77.73-.23,0-.47-.03-.69-.09l.93-.93,1.91-.22Z"/>
          </g>
          <g>
            <path class="cls-11" d="M34.789,111.35c1.16.077,2.236-.642,2.543-1.763.665-2.424,1.951-4.632,3.859-6.538,4.302-4.3,9.188-5.254,13.912-6.176,4.084-.797,7.943-1.55,10.819-4.425,3.687-3.686,5.523-7.181,6.999-9.989,1.479-2.817,2.326-4.316,3.922-4.944,3.387-1.331,5.136-.805,8.509,2.564l1.667,1.668c.924.925,2.432,1.102,3.444.274,1.164-.953,1.228-2.672.192-3.709l-1.768-1.769c-4.053-4.05-7.787-6.076-13.875-3.681-3.401,1.338-4.915,4.22-6.518,7.271-1.386,2.639-2.958,5.631-6.106,8.777-1.798,1.797-4.785,2.38-8.243,3.055-4.949.966-11.108,2.168-16.489,7.546-2.566,2.565-4.305,5.527-5.191,8.778-.407,1.492.716,2.958,2.259,3.056.021.001.043.003.064.004Z"/>
            <path class="cls-11" d="M108.321,95.979l-1.667-1.668c-.924-.925-2.432-1.102-3.444-.274-1.164.953-1.228,2.672-.192,3.709l1.767,1.768c3.376,3.377,3.906,5.124,2.577,8.5-.629,1.598-2.132,2.447-4.955,3.933-2.809,1.479-6.304,3.317-9.987,6.999-2.877,2.877-3.629,6.737-4.426,10.824-.92,4.726-1.873,9.612-6.173,13.911-7.887,7.882-20.195,4.993-32.927-7.733-4.323-4.321-7.557-8.63-9.591-12.744-.558-1.129-1.842-1.698-3.033-1.287-.021.007-.042.014-.063.021-1.393.472-2.096,2.061-1.451,3.382,2.264,4.632,5.806,9.37,10.603,14.165,10.481,10.475,19.152,13.614,25.78,13.614,7.377,0,12.223-3.89,14.216-5.881,5.382-5.379,6.583-11.541,7.547-16.492.674-3.46,1.256-6.447,3.053-8.243,3.148-3.146,6.141-4.722,8.781-6.111,3.055-1.607,5.94-3.126,7.279-6.525,2.394-6.078.361-9.812-3.693-13.867Z"/>
          </g>
          <path class="cls-11" d="M71.771,131.525c-.64,0-1.279-.244-1.767-.731l-.869-.868c-2.622-.239-5.542-1.995-8.879-5.331-3.337-3.335-5.094-6.253-5.334-8.874l-.868-.867c-.977-.976-.978-2.559-.001-3.535.977-.978,2.56-.977,3.536-.002l1.595,1.594c.536.536.8,1.286.718,2.039-.051.47.078,2.3,3.889,6.108,3.812,3.81,5.644,3.933,6.115,3.889.759-.079,1.502.183,2.037.717l1.595,1.594c.977.976.978,2.559.001,3.535-.488.489-1.128.733-1.769.733Z"/>
          <path class="cls-11" d="M125.299,70.164l-4.35,4.35c-.95.95-2.48.97-3.44.04-.02-.01-.03-.02-.04-.04-1.01-.95-1.04-2.55-.05-3.54l4.13-4.12,2.67,2.67c.31.31.68.52,1.08.64Z"/>
        </g>
        <g>
          <path class="cls-11" d="M133.329,127.724v.44c.01-.08.01-.15.01-.23,0-.07,0-.14-.01-.21Z"/>
          <g>
            <path class="cls-11" d="M128.339,127.914c0,.05,0,.09-.01.14v-.24c.01.03.01.06.01.1Z"/>
            <path class="cls-11" d="M153.439,92.144c-.69-.47-1.56-.56-2.33-.25l-21.21,8.48c-.95.38-1.57,1.3-1.57,2.32v19.02c-1.32-.37-2.81-.4-4.33-.09-4.68.95-8.36,4.85-8.38,8.88-.01,1.92.8,3.64,2.28,4.85,1.33,1.1,3.09,1.67,5.01,1.67.67,0,1.35-.07,2.05-.21,4.48-.91,8.04-4.52,8.35-8.36.01-.02.01-.04.01-.06.01-.08.01-.15.01-.23v-15.3l16.21-6.48v6.83c-1.34-.36-2.83-.4-4.37-.08-4.69.97-8.36,4.88-8.36,8.9,0,1.92.82,3.64,2.29,4.84,1.33,1.08,3.08,1.65,4.99,1.65.68,0,1.38-.07,2.09-.22,4.59-.95,8.2-4.71,8.35-8.64.01-.09.01-.17.01-.26v-25.19c0-.83-.41-1.61-1.1-2.07ZM128.329,128.054c-.12,1.45-1.95,3.37-4.37,3.86-1.41.29-2.42-.03-2.89-.42-.31-.25-.45-.56-.45-.97.01-1.47,1.88-3.49,4.38-4,.38-.08.73-.11,1.05-.11.86,0,1.5.24,1.84.53.28.23.42.51.44.87.01.03.01.06.01.1,0,.05,0,.09-.01.14ZM133.329,107.484v-3.1l16.21-6.48v3.1l-16.21,6.48ZM145.169,123.404c-1.41.3-2.43-.02-2.91-.41-.3-.25-.45-.55-.45-.96,0-1.46,1.87-3.48,4.37-4,.39-.08.75-.12,1.07-.12.86,0,1.49.25,1.84.53.31.25.45.55.45.96,0,1.46-1.87,3.49-4.37,4Z"/>
          </g>
        </g>
        <path class="cls-11" d="M61.569,48.064c-1.34-.74-2.61-1.44-3.92-4.87-.43-1.13-1.61-1.78-2.79-1.57-1.19.22-2.05,1.26-2.05,2.46v21.13c-1.33-.37-2.83-.4-4.36-.08-4.69.97-8.36,4.88-8.36,8.9,0,1.91.81,3.63,2.29,4.83,1.33,1.09,3.08,1.65,4.99,1.65.68,0,1.38-.07,2.09-.21,4.58-.95,8.19-4.71,8.34-8.64.01-.09.01-.17.01-.26v-19.77c.44.3.88.56,1.33.8,1.39.78,2.16,1.2,2.16,6.5,0,1.38,1.12,2.5,2.5,2.5s2.5-1.12,2.5-2.5c0-7.01-1.53-9.09-4.73-10.87ZM48.439,75.404c-1.41.29-2.43-.02-2.9-.41-.31-.25-.45-.56-.45-.96,0-1.47,1.87-3.49,4.37-4,.38-.08.74-.12,1.07-.12.86,0,1.49.24,1.84.53.3.25.44.55.44.96,0,1.46-1.86,3.48-4.37,4Z"/>
      </g>
    </g>
    <g id="cat" class="cls-16">
      <g>
        <circle class="cls-9" cx="93.156" cy="93.156" r="83.732"/>
        <path class="cls-11" d="M93.156,186.312C41.79,186.312,0,144.521,0,93.155S41.79,0,93.156,0s93.156,41.789,93.156,93.155-41.79,93.156-93.156,93.156ZM93.156,4C43.995,4,4,43.995,4,93.155s39.995,89.156,89.156,89.156,89.156-39.995,89.156-89.156S142.317,4,93.156,4Z"/>
        <g>
          <path class="cls-4" d="M140.492,103.313c0,.073,0,.137-.008.202-.024.525-.226,1.018-.574,1.438-.42.493-.994.792-1.615.84l-2.076.129-2.593.194c-.404.032-.727.363-.743.775-.04,1.042-.129,2.391-.444,3.635-.097.347.065.719.38.897l3.95,2.262,1.082.614c.065.04.129.073.194.121.057.032.105.073.162.121.016.008.032.024.057.049.04.032.089.073.129.121.048.056.105.113.145.17.048.056.089.121.129.186.081.129.153.267.21.412.024.073.048.153.073.226.007.026.008.053.014.079.033.126.056.252.068.382,0,.012.001.023.002.035.037.46-.042.937-.278,1.377-.428.743-1.236,1.204-2.124,1.204-.194,0-.388-.024-.573-.073-.202-.057-.372-.121-.525-.218l-1.729-.994-2.456-1.406c-.121-.073-.258-.105-.396-.105-.275,0-.549.145-.695.396-2.488,4.192-6.591,7.132-12.512,8.958.008-.032.016-.073.024-.105-.727.234-1.478.444-2.254.638-.186.049-.38.065-.574.065-1.236,0-2.294-.969-2.423-2.221v-.097c-.065-1.123.711-2.165,1.801-2.423,6.179-1.551,10.274-4.337,12.165-8.287,2.754-5.622,1.494-14.111-3.756-25.242-.129-.267-.202-.541-.218-.832-.961-1.995-2.044-4.079-3.255-6.252-.275-.468-.388-1.058-.299-1.583.784-5.226.218-9.887-1.704-14.2-.258-.654-.848-1.05-1.365-1.163-.153-.04-.38-.089-.654-.089-.162,0-.323.016-.469.056-.105.024-.186.065-.267.097-.073.016-.137.049-.202.089-3.918,2.383-7.286,6.276-10.291,11.898-.428.783-1.26,1.284-2.132,1.284l-4.822.016h-.016c-.089.008-.178.016-.267.016l-3.611-.008-3.619.008c-.089,0-.178-.008-.258-.016h-.016l-4.822-.016c-.88,0-1.712-.501-2.132-1.284-3.013-5.622-6.381-9.515-10.291-11.898-.065-.04-.137-.073-.21-.089-.073-.032-.162-.073-.258-.097-.153-.04-.307-.056-.477-.056-.267,0-.493.048-.646.089-.517.113-1.107.509-1.365,1.163-1.931,4.313-2.488,8.974-1.704,14.2.089.525-.024,1.115-.299,1.583-8.538,15.331-10.888,26.486-7.003,33.174,3.271,5.727,11.478,8.732,24.41,8.917l1.292.008c1.43.04,3.166.057,5.137.057,2.302,0,4.83-.024,7.31-.081h.097c1.309,0,2.375,1.058,2.383,2.359,0,1.317-1.05,2.383-2.391,2.439-2.714.032-5.371.073-7.754.073-2.019,0-3.602-.024-4.838-.081l-1.309.056c-5.59-.137-10.266-.695-14.216-1.696-6.793-1.777-11.413-4.863-14.119-9.426-.153-.25-.42-.396-.695-.396-.137,0-.275.032-.404.105l-4.111,2.351c-.38.194-.783.307-1.187.307-.186,0-.388-.032-.574-.081-.678-.17-1.204-.557-1.486-1.091-.339-.59-.412-1.244-.234-1.874.17-.614.557-1.115,1.09-1.405l5.04-2.875c.315-.178.469-.549.38-.897-.315-1.244-.404-2.593-.444-3.635-.016-.412-.339-.743-.751-.775l-4.636-.347c-.137-.016-.242-.024-.388-.081-1.139-.315-1.906-1.381-1.834-2.504.081-1.244,1.147-2.213,2.407-2.213h.17s4.733.364,4.758.364c.388,0,.727-.283.792-.67,1.026-5.969,3.772-13.005,8.409-21.51.081-.145.113-.315.097-.477-.67-5.84.056-11.058,2.221-15.945.832-1.753,2.367-3.078,4.208-3.619.695-.226,1.397-.331,2.116-.331,1.204,0,2.407.307,3.473.897,4.362,2.649,8.021,6.599,11.147,12.059.145.25.412.404.703.404l6.833.008,6.833-.008c.283,0,.549-.153.695-.404,3.134-5.46,6.793-9.41,11.155-12.059,1.066-.59,2.27-.897,3.465-.897.719,0,1.43.105,2.124.331,1.842.541,3.376,1.866,4.2,3.619,2.165,4.887,2.892,10.105,2.229,15.945-.016.162.016.331.089.477,4.636,8.506,7.391,15.541,8.409,21.51.065.355.355.622.703.662.517-.04,4.846-.372,4.846-.372.048,0,.113-.008.17-.008.985,0,1.793.533,2.173,1.349.032.073.065.145.097.226.073.21.121.436.137.678.008.04.008.073.008.113Z"/>
          <path class="cls-4" d="M112.326,103.903c-2.593,0-4.685-2.649-4.685-5.921s2.092-5.921,4.685-5.921,4.693,2.649,4.685,5.921c0,3.271-2.1,5.921-4.685,5.921Z"/>
          <path class="cls-4" d="M73.991,92.061c2.585,0,4.685,2.649,4.685,5.921s-2.1,5.921-4.685,5.921-4.685-2.649-4.693-5.921c0-3.271,2.1-5.921,4.693-5.921Z"/>
          <path class="cls-4" d="M99.645,102.715c.016.056.032.121.04.178.162.711-.008,1.414-.469,1.922-.202.226-.412.444-.614.646-.065.065-.121.129-.186.186-.735.743-1.543,1.341-2.415,1.793-.137.065-.242.17-.315.291-.024.049-.048.089-.057.137-.024.065-.04.137-.04.21l-.032,3.312c0,.299-.048.582-.153.848-.024.065-.048.121-.073.178-.024.056-.057.113-.089.17-.084.151-.189.289-.304.417-.077.088-.164.162-.252.238-.033.027-.064.054-.098.079-.394.302-.873.5-1.405.51h-.057c-.613-.013-1.165-.261-1.583-.652-.097-.086-.186-.178-.267-.277-.331-.42-.525-.937-.525-1.51l-.032-3.312c0-.065-.008-.129-.024-.186-.065-.194-.202-.355-.38-.452-.872-.452-1.68-1.05-2.415-1.793-.065-.064-.121-.121-.186-.186-.202-.202-.412-.42-.614-.646-.46-.509-.63-1.212-.468-1.922.008-.065.024-.121.04-.178.024-.089.048-.178.081-.259.024-.065.057-.129.089-.186.008-.032.024-.057.04-.089.291-.541.792-.921,1.397-1.042.008-.008.024-.008.032-.008.105-.024.21-.04.315-.057.743-.065,1.494-.121,2.237-.153.783-.032,1.575-.057,2.359-.057.735,0,1.478.016,2.229.057.743.032,1.494.089,2.237.153.105.016.21.032.315.057.008,0,.024.008.032.008.582.113,1.066.468,1.349.977.024.024.032.048.048.073.048.089.097.178.129.267.032.081.056.17.081.259Z"/>
          <path class="cls-4" d="M140.492,103.184v.129c0-.04,0-.073-.008-.113-.016-.242-.065-.468-.137-.678.081.21.129.428.145.662Z"/>
        </g>
      </g>
    </g>
    <g id="dog" class="cls-16">
      <g>
        <circle class="cls-10" cx="93.156" cy="93.156" r="83.732"/>
        <path class="cls-11" d="M93.156,186.312C41.79,186.312,0,144.521,0,93.155S41.79,0,93.156,0s93.156,41.789,93.156,93.155-41.79,93.156-93.156,93.156ZM93.156,4C43.995,4,4,43.995,4,93.155s39.995,89.156,89.156,89.156,89.156-39.995,89.156-89.156S142.317,4,93.156,4Z"/>
        <g>
          <path class="cls-4" d="M82.925,94.664c.01,1.168-.589,2.374-1.592,3.233-.791.656-1.737,1.033-2.673,1.042h-.125c-2.036-.039-4.063-2.094-4.217-4.323-.077-1.033.434-2.162,1.351-3.011.859-.801,1.959-1.264,3.02-1.283.936,0,1.824.338,2.577.955,1.013.859,1.65,2.152,1.66,3.387Z"/>
          <path class="cls-4" d="M112.521,94.664c.01,1.168-.589,2.384-1.602,3.233-.782.656-1.727,1.033-2.663,1.042h-.125c-2.036-.039-4.063-2.094-4.217-4.323-.067-1.033.434-2.162,1.351-3.011.859-.801,1.959-1.264,3.02-1.283.936,0,1.824.338,2.567.955,1.023.859,1.66,2.152,1.669,3.387Z"/>
          <path class="cls-4" d="M101.148,118.635c-1.74,2.58-4.52,4.12-7.45,4.12-3,0-5.79-1.59-7.47-4.24-1.36-2.17-1.68-4.64-.82-6.44,1.73-3.62,5.96-3.62,8.49-3.62,1.87,0,6.84,0,8.39,3.81.73,1.8.29,4.24-1.14,6.37Z"/>
          <path class="cls-4" d="M115.648,117.723c-.328-.135-.666-.193-1.004-.193-1.129,0-2.113.675-2.528,1.708-1.1,2.76-3.812,7.392-9.611,7.392-2.384,0-4.159-.376-5.336-.762-1.177-.376-1.756-.753-1.756-.753-.463-.348-1.023-.54-1.621-.54-.579,0-1.129.183-1.592.502-.087.067-2.345,1.554-7.131,1.554-5.954,0-8.55-3.841-9.669-7.064-.386-1.081-1.419-1.814-2.567-1.814-.309,0-.608.048-.897.154-.695.241-1.245.724-1.554,1.38-.318.656-.357,1.399-.116,2.084,1.727,4.931,5.037,8.338,9.418,9.824.463,4.101,1.708,8.849,4.748,12.14,2.384,2.577,5.481,3.889,9.196,3.889,4.333,0,7.836-1.486,10.412-4.4,2.972-3.368,4.072-7.99,4.391-11.947,3.831-1.65,6.88-4.96,8.733-9.621.56-1.399-.125-2.982-1.515-3.532ZM99.957,139.233c-1.525,1.718-3.59,2.548-6.33,2.548-2.162,0-3.87-.695-5.201-2.133-1.795-1.94-2.692-4.864-3.146-7.585,4.034-.029,6.813-.888,8.502-1.669,1.727.791,4.574,1.669,8.724,1.669.106,0,.212,0,.318-.01-.367,2.528-1.177,5.259-2.866,7.179Z"/>
          <path class="cls-4" d="M131.831,102.934c-.656,2.21-1.216,4.42-1.641,6.572-2.374,11.975-6.62,21.114-12.603,27.155-.521.511-1.206.801-1.94.801-.714,0-1.399-.28-1.911-.791-1.062-1.052-1.071-2.779-.019-3.841,5.23-5.269,8.974-13.471,11.136-24.376.463-2.326,1.062-4.699,1.776-7.083.338-1.139,1.409-1.93,2.605-1.93.261,0,.521.039.782.106.695.212,1.264.685,1.612,1.322.338.637.415,1.37.203,2.065Z"/>
          <path class="cls-4" d="M74.182,133.263c1.081,1.032,1.11,2.76.077,3.841-.521.54-1.216.83-1.959.83-.704,0-1.38-.27-1.891-.753-2.49-2.403-4.709-5.336-6.591-8.714-2.866-5.134-5.066-11.512-6.543-18.962-.367-1.872-.84-3.792-1.39-5.722-.203-.695-.125-1.428.232-2.065.347-.637.926-1.1,1.621-1.303.251-.067.502-.106.762-.106,1.197,0,2.277.811,2.605,1.969.598,2.065,1.1,4.14,1.505,6.166,1.361,6.9,3.368,12.738,5.954,17.38,1.621,2.905,3.513,5.414,5.616,7.44Z"/>
          <path class="cls-4" d="M153.379,58.872c-1.612-1.756-4.246-2.76-7.315-3.928-2.403-.917-5.124-1.959-7.373-3.426-.753-.492-1.515-1.023-2.287-1.563-3.763-2.615-8.019-5.578-13.5-5.578-1.361,0-2.76.193-4.149.56-2.702.714-4.709,2.142-6.147,3.59-4.535-.705-10.972-1.361-19.117-1.361-9.167,0-16.057.849-20.477,1.631-1.544-1.081-3.86-2.113-7.102-2.113-3.493,0-7.459,1.197-11.792,3.542-.758.412-1.531.75-2.311,1.037-1.257.461-2.009,1.805-1.668,3.1.005.018.009.036.014.054.398,1.564,2.004,2.507,3.52,1.952,1.006-.368,2.024-.813,3.041-1.367,3.503-1.901,6.581-2.856,9.158-2.856,3.609,0,4.931,1.92,4.979,1.988.502.792,1.361,1.274,2.306,1.274.492,0,.984-.145,1.409-.396.454-.28.801-.666,1.013-1.12,4.207-.656,10.219-1.283,17.91-1.283,6.62,0,12.043.473,15.98.975-.087,1.129.54,2.239,1.641,2.711.338.145.695.212,1.061.212,1.09,0,2.075-.637,2.499-1.631.019-.039,1.669-3.677,5.471-4.68.917-.241,1.833-.367,2.721-.367,3.831,0,7.044,2.229,10.441,4.603.811.56,1.612,1.119,2.413,1.64,2.731,1.785,5.742,2.934,8.405,3.947,2.219.849,4.506,1.727,5.25,2.528,1.341,1.457,3.358,3.657-1.718,15.836-3.011,7.218-9.283,14.571-12.448,14.571-.174,0-.347-.029-.502-.087-2.152-.743-3.175-4.806-4.564-18.103-1.718-16.366-9.814-17.814-10.74-17.92-.106-.01-.222-.019-.328-.019-1.39,0-2.557,1.023-2.721,2.393-.087.714.106,1.428.54,1.997.444.57,1.081.936,1.747,1.004.048.019,4.854,1.254,6.099,13.114,1.563,14.938,2.673,20.757,8.183,22.677.704.241,1.447.367,2.2.367,7.623,0,15.121-12.062,17.553-17.901,5.915-14.205,3.59-18.46.704-21.606Z"/>
          <path class="cls-4" d="M69.705,59.943c-.261,0-.511.039-.753.106-.193.058-4.632,1.38-7.643,6.832-1.119,2.046-1.911,5.5-2.914,9.862l-.019.106c-1.592,6.967-4.256,18.634-8.608,18.634-.077,0-.154,0-.222-.01-2.306-.203-5.298-3.426-7.816-8.415-4.333-8.55-6.292-20.159-4.034-23.884.423-.697.881-1.283,1.376-1.782.729-.735,1.042-1.814.63-2.763-.037-.086-.072-.172-.106-.26-.659-1.733-2.907-2.274-4.23-.976-.829.814-1.608,1.788-2.321,2.963-3.677,6.079-.878,19.869,3.831,29.162,2.49,4.912,6.62,10.875,12.188,11.368.261.029.531.039.782.039,8.608,0,11.522-12.738,13.867-23.006.82-3.619,1.612-7.044,2.364-8.405,1.862-3.378,4.304-4.217,4.381-4.237.695-.203,1.274-.666,1.621-1.302.357-.637.434-1.371.232-2.065-.328-1.158-1.399-1.969-2.605-1.969Z"/>
        </g>
      </g>
    </g>
    <g id="dino" class="cls-16">
      <g>
        <circle class="cls-14" cx="93.156" cy="93.156" r="83.732"/>
        <path class="cls-11" d="M93.156,186.312C41.79,186.312,0,144.521,0,93.155S41.79,0,93.156,0s93.156,41.789,93.156,93.155-41.79,93.156-93.156,93.156ZM93.156,4C43.995,4,4,43.995,4,93.155s39.995,89.156,89.156,89.156,89.156-39.995,89.156-89.156S142.317,4,93.156,4Z"/>
        <g>
          <path class="cls-4" d="M54.604,60.825c0,1.379-1.122,2.5-2.491,2.5-1.379,0-2.5-1.121-2.5-2.5,0-1.37,1.121-2.491,2.5-2.491,1.37,0,2.491,1.121,2.491,2.491Z"/>
          <path class="cls-4" d="M84.784,103.019c-.625,1.149-3.576,7.134-.138,12.107.607.873,1.48,1.829,2.399,2.841,2.648,2.905,6.279,6.885,4.091,11.261-1.986,3.971-4.725,6.867-6.04,8.255l-.257.276c-1.471,1.581-4.854,2.684-8.218,2.684-1.379,0-2.721-.175-3.999-.524-.542.57-1.618,2.105-2.482,3.962-.404.873-1.296,1.443-2.261,1.443-.368,0-.717-.083-1.057-.239-1.241-.579-1.783-2.059-1.204-3.309,1.48-3.19,3.861-6.987,6.803-6.987.368,0,.735.055,1.085.175.965.322,2.004.487,3.089.487,2.418,0,4.302-.8,4.606-1.103l.267-.294c1.158-1.213,3.548-3.751,5.203-7.06.607-1.213-.993-3.116-3.309-5.663-.993-1.094-2.022-2.215-2.813-3.365-3.962-5.718-2.666-12.704-.138-17.337.276-.515.588-1.002.919-1.48-1.296-.561-2.482-1.305-3.576-2.234-1.866,4.201-3.686,7.327-5.598,8.384-2.611,1.443-6.582-.257-9.772-1.627-.561-.248-1.287-.561-1.728-.717-.478.303-1.296.965-1.875,1.434-1.645,1.333-3.217,2.601-4.652,2.601-.524,0-1.039-.165-1.526-.561-2.197-1.802-3.447-6.959-1.682-9.386,1.563-2.225,3.999-4.826,6.95-4.826h7.382c.303-5.865,1.958-12.833,5.865-16.731.781-.781,2.041-.781,2.822,0,.781.772.781,2.041,0,2.822-3.273,3.282-4.743,10.351-4.743,15.913,0,1.103-.892,1.995-1.995,1.995h-9.331c-.745,0-2.151.947-3.64,3.07-.313.579-.074,2.234.395,3.282.524-.386,1.177-.91,1.636-1.287,1.894-1.535,3.034-2.399,4.275-2.399.8,0,1.682.359,3.429,1.112,1.315.57,5.313,2.28,6.269,1.802,1.894-1.048,5.516-10.351,6.876-13.853.726-1.857,1.25-3.199,1.627-3.944.487-.993,1.691-1.388,2.675-.892.993.487,1.388,1.692.901,2.675-.294.588-.837,1.986-1.471,3.613-.34.873-.68,1.737-1.011,2.574,1.342,1.554,2.942,2.565,4.826,3.08,1.756-2.105,3.401-4.348,3.888-7.299.202-1.204,1.232-2.087,2.464-2.087.129,0,.267.009.404.037.662.11,1.241.469,1.627,1.011s.542,1.204.432,1.857c-.8,4.78-3.493,7.933-5.865,10.719-1.112,1.305-2.16,2.528-2.822,3.732Z"/>
          <g>
            <path class="cls-4" d="M118.356,75.004c.038-.099.08-.197.123-.294.529-1.163-.013-2.523-1.171-3.062-4.766-2.222-10.653-3.889-18.634-4.885-3.383-.423-6.885-.441-10.296-.45-5.111-.018-9.937-.037-13.192-1.461-2.51-1.103-5.295-4.164-7.336-6.416-.487-.533-.928-1.02-1.324-1.434-2.399-2.519-5.442-5.102-9.772-5.102-.496,0-1.011.037-1.535.101-.193-.074-.506-.193-.68-.267-.965-.405-2.271-.947-3.64-.947-.717,0-1.379.147-1.986.441-1.048.506-2.022,1.563-3.502,3.245-.726.836-1.636,1.866-2.16,2.252-1.986,1.489-3.788,1.912-5.709,2.353-1.609.377-3.273.763-4.753,1.82-3.989,2.85-2.353,8.935-1.995,10.112l.12.395c.368,1.287.818,2.739,1.627,3.87-.083,1.278.285,2.684,1.094,4.1,1.342,2.372,3.971,4.835,6.784,4.973.221.009.441.018.662.018,3.815-.009,7.924-1.655,10.93-2.868l.11-.037c.708-.285,1.618-.653,2.243-.864.092.074.368.303.368.303,1.388,1.186,3.3,2.813,5.543,4.164.386.23.836.358,1.287.349,1.23,0,2.351-.912,2.488-2.247.101-.975-.431-1.919-1.27-2.427-1.858-1.125-3.569-2.582-4.822-3.645-.487-.404-.91-.772-1.269-1.048-.083-.064-.165-.129-.267-.184-.469-.285-.984-.414-1.572-.414-1.158,0-2.528.542-4.596,1.379-2.519,1.011-6.315,2.537-9.229,2.537-.12,0-.239,0-.359-.009-.285-.009-1.112-.469-1.885-1.333.487-.175.91-.533,1.158-1.039l1.977-3.953,5.313,2.133c1.094.432,2.335-.092,2.776-1.177l1.753-4.258c.427-1.038.07-2.291-.921-2.819-1.137-.606-2.515-.087-2.993,1.074l-.993,2.409-5.175-2.068c-1.039-.423-2.216.027-2.712,1.029l-1.774,3.53c-.165-.211-.377-.386-.616-.533-.083-.119-.386-.616-.864-2.307l-.138-.487c-.469-1.517-.689-4.017.11-4.596.68-.478,1.747-.726,2.988-1.02,2.114-.487,4.753-1.103,7.575-3.217.928-.699,1.93-1.839,2.923-2.96.45-.515,1.462-1.664,1.839-1.986.202.037.653.156,1.627.57.846.349,1.636.68,2.51.68.175,0,.34-.018.515-.046.368-.055.726-.092,1.075-.092,2.317,0,4.146,1.425,6.177,3.558.368.377.763.818,1.241,1.342,2.335,2.574,5.534,6.104,9.027,7.63,4.201,1.839,9.542,1.866,15.196,1.885,3.236.009,6.591.027,9.68.414,7.417.926,12.808,2.432,17.164,4.47,1.195.559,2.658.047,3.134-1.184Z"/>
            <path class="cls-4" d="M161.561,89.294c-.377-1.563-1.655-2.583-3.273-2.583-3.254,0-5.322,1.903-7.143,3.576-1.232,1.14-2.51,2.317-4.164,2.868-.625.202-1.195.303-1.756.303-2.666,0-5.084-2.418-9.128-6.711-1.002-1.057-2.133-2.261-3.383-3.502-.844-.844-1.677-1.663-2.514-2.458-.971-.922-2.471-.8-3.388.176-.012.012-.023.025-.035.037-.939.977-.982,2.486,0,3.42.797.757,1.594,1.542,2.407,2.356,1.131,1.131,2.169,2.225,3.171,3.291l.12.119c4.192,4.44,7.814,8.283,12.723,8.273,1.085,0,2.215-.193,3.365-.57,2.666-.892,4.413-2.5,5.966-3.925.368-.34.708-.643,1.02-.91-1.646,2.804-4.909,6.646-8.889,8.641-7.124,3.558-14.938,5.369-23.239,5.369-3.364,0-6.361-.303-8.807-.689,1.425-1.839,2.565-4.21,3.116-7.253.248-1.352-.653-2.657-2.004-2.905-.156-.028-.303-.037-.46-.037-1.195,0-2.225.855-2.445,2.05-1.701,9.349-11.022,9.597-11.417,9.607-.827.009-1.6.423-2.05,1.103-.469.689-.552,1.563-.239,2.326.984,2.445,1.048,5.984.165,9.018-.221.735-.092,1.508.349,2.133.34.487.68.965,1.02,1.425,1.471,2.022,2.638,3.622,2.666,5.221-.257.57-1.921,2.225-2.565,2.859-2.544,2.535-5.694,5.668-5.833,9.587-.049,1.379.936,2.66,2.312,2.753,1.457.099,2.675-1.049,2.675-2.485,0-1.967,2.317-4.275,4.367-6.306,2.17-2.151,4.045-4.008,4.045-6.306,0-3.282-1.848-5.81-3.631-8.264l-.303-.423c.579-2.638.653-5.506.202-8.071,1.397-.313,3.227-.873,5.084-1.885,3.089.754,7.869,1.6,13.715,1.6,9.027-.009,17.604-2.013,25.501-5.957,6.821-3.41,13.688-12.557,12.677-16.869Z"/>
          </g>
        </g>
      </g>
    </g>
    <g id="robot" class="cls-16">
      <g>
        <circle class="cls-13" cx="93.156" cy="93.156" r="83.732"/>
        <path class="cls-11" d="M93.156,186.312C41.79,186.312,0,144.521,0,93.155S41.79,0,93.156,0s93.156,41.789,93.156,93.155-41.79,93.156-93.156,93.156ZM93.156,4C43.995,4,4,43.995,4,93.155s39.995,89.156,89.156,89.156,89.156-39.995,89.156-89.156S142.317,4,93.156,4Z"/>
        <g>
          <g>
            <path class="cls-4" d="M141.283,87.414h-5.39v-8.53c0-7.47-6.07-13.54-13.53-13.54h-25.53l4.05-4c.59-.59.86-1.45.69-2.27-.16-.82-.73-1.51-1.51-1.83l-7.65-3.1,2.34-3.65c4.35-.76,7.67-4.57,7.67-9.13,0-5.11-4.16-9.27-9.27-9.27s-9.26,4.16-9.26,9.27c0,3.72,2.2,6.94,5.38,8.41l-2.7,4.19c-.4.63-.51,1.4-.28,2.11.22.71.75,1.28,1.44,1.56l6.93,2.82-4.22,4.18c-.22.21-.39.45-.51.71h-18.75c-1.21,0-2.21.97-2.23,2.18v.04c-.02,1.26.97,2.29,2.22,2.29h51.19c4.97,0,9.02,4.05,9.02,9.03v45.03c0,3.38-1.88,6.33-4.64,7.88-.79.43-1.23,1.31-1.11,2.19.01.02.01.04.01.05.21,1.59,1.93,2.46,3.33,1.67,4.13-2.32,6.92-6.73,6.92-11.79v-8.54h5.39c3.73,0,6.77-3.03,6.77-6.77v-14.42c0-3.73-3.04-6.77-6.77-6.77ZM88.892,41.364c0-2.35,1.91-4.27,4.26-4.27s4.27,1.92,4.27,4.27-1.91,4.27-4.27,4.27-4.26-1.92-4.26-4.27ZM143.543,108.604c0,1.25-1.02,2.26-2.26,2.26h-5.39v-18.94h5.39c1.24,0,2.26,1.01,2.26,2.26v14.42Z"/>
            <path class="cls-4" d="M112.293,132.934h-51.37c-4.96,0-9.02-4.06-9.02-9.02v-45.03c0-3.46,1.96-6.46,4.81-7.98.86-.45,1.31-1.4,1.15-2.36,0-.02,0-.04-.01-.05-.23-1.47-1.86-2.3-3.17-1.61-4.33,2.25-7.3,6.78-7.3,12v8.53h-5.38c-3.73,0-6.77,3.04-6.77,6.77v14.42c0,3.74,3.04,6.77,6.77,6.77h5.38v8.54c0,7.47,6.06,13.53,13.53,13.53h14.77v6.31c0,1.38,1.12,2.5,2.5,2.5h29.28c1.38,0,2.5-1.11,2.5-2.5v-6.31h2.34c1.27,0,2.26-1.06,2.22-2.33v-.05c-.03-1.19-1.03-2.13-2.23-2.13ZM42.003,110.864c-1.24,0-2.26-1.01-2.26-2.26v-14.42c0-1.25,1.02-2.26,2.26-2.26h5.38v18.94h-5.38ZM104.963,141.254h-24.28v-3.18h24.28v3.18Z"/>
          </g>
          <g>
            <g>
              <path class="cls-4" d="M71.436,97.02c-5.226,0-9.477-4.251-9.477-9.477s4.252-9.477,9.477-9.477,9.477,4.251,9.477,9.477-4.252,9.477-9.477,9.477ZM71.436,82.579c-2.738,0-4.964,2.228-4.964,4.964s2.227,4.964,4.964,4.964,4.964-2.228,4.964-4.964-2.227-4.964-4.964-4.964Z"/>
              <path class="cls-4" d="M111.848,97.02c-5.227,0-9.478-4.251-9.478-9.477s4.252-9.477,9.478-9.477,9.477,4.251,9.477,9.477-4.252,9.477-9.477,9.477ZM111.848,82.579c-2.738,0-4.966,2.228-4.966,4.964s2.228,4.964,4.966,4.964,4.964-2.228,4.964-4.964-2.227-4.964-4.964-4.964Z"/>
            </g>
            <path class="cls-4" d="M118.253,108.666c-1.953-2.282-5.298-3.367-9.167-2.986-5.792.569-11.614.861-17.443.861s-11.651-.292-17.443-.861c-3.869-.381-7.214.704-9.167,2.986-1.691,1.975-2.208,4.655-1.452,7.55,1.564,6.002,7.379,11.33,12.961,11.869,5.014.494,10.057.741,15.101.741s10.087-.247,15.094-.741c5.59-.539,11.404-5.867,12.968-11.876.756-2.888.232-5.567-1.452-7.543ZM89.397,111.016v13.305c-3.016-.045-6.032-.18-9.032-.412l-1.108-13.305c3.375.24,6.757.374,10.14.412ZM67.921,115.079c-.262-1.003-.382-2.432.524-3.495.831-.965,2.335-1.497,4.213-1.497.352,0,.718.022,1.1.06.322.03.643.06.973.09l1.093,13.156c-3.412-.95-6.922-4.557-7.902-8.314ZM93.887,111.016c3.382-.037,6.765-.172,10.132-.412l-1.108,13.305c-3.001.232-6.009.367-9.025.412v-13.305ZM115.364,115.079c-.98,3.757-4.497,7.364-7.902,8.314l1.093-13.156c.329-.03.651-.06.973-.09,2.395-.24,4.325.284,5.306,1.437.913,1.063.793,2.492.531,3.495Z"/>
          </g>
        </g>
      </g>
    </g>
    <g id="soccer" class="cls-16">
      <g>
        <g>
          <circle class="cls-6" cx="92.724" cy="92.712" r="83.732"/>
          <path class="cls-11" d="M93.156,186.312C41.789,186.312,0,144.521,0,93.155S41.789,0,93.156,0s93.156,41.789,93.156,93.155-41.79,93.156-93.156,93.156ZM93.156,4C43.995,4,4,43.995,4,93.155s39.995,89.156,89.155,89.156,89.156-39.995,89.156-89.156S142.317,4,93.156,4Z"/>
        </g>
        <g id="iVELOL">
          <path class="cls-4" d="M136.169,70.417c-7.512-14.189-19.221-22.844-35.114-25.672-.8-.143-1.603-.273-2.405-.409h-11.176c-5.005.672-9.884,1.849-14.45,4.038-15.071,7.225-24.242,19.088-27.633,35.434-.302,1.458-.478,2.943-.713,4.415v9.813c.58,4.835,1.577,9.584,3.549,14.048,7.15,16.19,19.296,26.361,36.825,29.356,1.36.232,3.04.406,4.657.528,1.341.101,2.436-1.055,2.277-2.39h0c-.126-1.052-1.016-1.844-2.075-1.85-.388-.002-.74-.006-.976-.01-1.193-.024-1.984-.466-2.23-1.772-.231-1.226-.568-2.421-1.022-3.583-.442-1.131.063-1.794,1.133-2.06,4.934-1.228,9.69-3.069,13.79-6.078.962-.706,1.819-.454,2.742.115,1.882,1.16,3.883,2.13,6.008,2.74,2.489.714,3.026,1.125,2.194,2.626-.747,1.347-1.529,2.674-2.283,4.017-.56.997-1.366,1.616-2.476,1.972-1.349.432-2.707.801-4.074,1.103-.992.219-1.699,1.098-1.723,2.115v.048c-.034,1.412,1.264,2.495,2.644,2.195,7.194-1.564,13.941-4.888,20.141-9.972,9.64-7.905,15.403-18.158,17.245-30.534,1.575-10.583.157-20.765-4.855-30.231ZM117.437,55.571c1.007.607,1.86,1.341,2.772,1.971.153.106.191.321.06.485-.157.196-.39.211-.619.159-.839-.19-1.731-.337-2.314-1.02-.198-.233-.417-.453-.634-.689-.461-.498.155-1.257.736-.907ZM80.727,57.259c1.381-2.502,2.869-4.934,4.492-7.285.937-1.357,2.477-1.327,3.82-1.385,3.212-.137,6.44-.298,9.646.205.636.1,1.285.217,1.8.574,4.089,2.84,8.347,5.453,12.02,8.858.441.409.839.843.804,1.413.015.756-.296,1.323-.577,1.887-.687,1.381-1.395,2.753-2.109,4.12-.473.905-1.201,1.221-2.244,1.145-5.518-.404-11.041-.675-16.54.232-.828.136-1.417-.166-1.951-.692-2.593-2.552-5.353-4.883-8.538-6.683-.986-.557-1.217-1.313-.623-2.39ZM60.505,62.625c4.659-4.976,10.141-8.752,16.484-11.264.337-.134.675-.265,1.022-.368.31-.092.643-.138.861.184.175.258.076.515-.06.767-.964,1.797-1.918,3.599-2.885,5.394-.282.524-.804.711-1.336.856-4.834,1.323-9.432,3.211-13.775,5.719-.302.174-.662.248-1.137.419-.041-.897.432-1.288.824-1.707ZM56.101,84.013c.713-4.504,2.129-8.798,3.742-13.042.489-1.288,1.263-2.248,2.473-2.94,4.073-2.328,8.295-4.289,12.85-5.475.392-.102.803-.128,1.205-.189.664-.02,1.245.205,1.824.497,3.159,1.591,5.827,3.814,8.278,6.333.736.756.749,1.617.535,2.53-1.155,4.94-2.331,9.875-3.484,14.815-.286,1.224-.933,2.12-2.058,2.719-3.994,2.125-8.026,4.162-12.263,5.772-.823.313-1.758.189-2.475-.323-3.625-2.59-7.009-5.457-10.059-8.71-.529-.564-.697-1.177-.569-1.986ZM49.497,85.697c.573-3.168,1.326-6.286,2.582-9.262.47-1.114.976-2.214,1.492-3.381.55.654.498,1.222.297,1.873-.869,2.809-1.619,5.647-1.995,8.575-.133,1.039-.53,2.007-1.2,2.847-.225.283-.383.705-.824.525-.543-.222-.434-.726-.352-1.177ZM81.858,135.858c-.697.75-1.554.094-2.284-.137-7.987-2.524-14.594-7.138-20.092-13.399-.343-.391-.839-.81-.521-1.422.284-.549.868-.384,1.35-.398.68-.02,1.361-.005,2.041-.005,3.144-.967,4.849,1.418,6.863,2.999,3.037,2.384,6.233,4.521,9.655,6.296,1.407.729,2.322,1.68,2.532,3.265.029.221.179.428.196.647.057.733.896,1.47.26,2.155ZM102.168,98.358c-.011-.008-.023-.015-.034-.023-.91-.606-2.115-.297-2.689.635-.028.046-.057.091-.087.136-.64.968-.453,2.257.522,2.886.021.014.043.027.064.041.996.64,1.6,1.74,1.623,2.923.082,4.229-.564,8.378-1.184,12.532-.208,1.391-.953,2.416-2.205,3.083-4.331,2.308-8.819,4.253-13.463,5.836-1.163.396-2.449.296-3.533-.283-4.005-2.141-7.77-4.631-11.284-7.517-1.714-1.408-1.842-2.05-1.67-4.018,0-.004,0,.577,0-.436,0-1.37-1.131-2.473-2.5-2.434l-.066.002c-.95.027-1.709.803-1.717,1.754-.003.37-.005.703-.005.911,0,1.247-.552,1.85-1.819,1.811-.953-.03-1.907-.006-2.86-.006v.005c-.363,0-.736-.052-1.088.008-2.413.416-3.703-.738-4.721-2.856-2.445-5.087-3.901-10.417-4.544-15.998-.079-.687.217-1.265.564-1.78,1.114-1.653,2.282-3.27,3.437-4.895.664-.935,1.364-1.064,2.211-.165,2.621,2.783,5.623,5.124,8.684,7.392.918.68,1.368,1.503,1.217,2.676-.039.3-.073.886-.107,1.504-.058,1.061.686,2,1.733,2.183l.056.01c1.231.216,2.376-.681,2.466-1.928.039-.548.08-1.043.123-1.349.212-1.515,1.431-1.463,3.164-2.315,3.523-1.731,6.509-3.482,10.046-4.892.853-.34,1.657-.684,2.64-.49.839.165,1.69.528,2.389.926.803.458,1.798.397,2.517-.183l.046-.037c1.194-.962,1.095-2.813-.195-3.641-.243-.156-.485-.311-.729-.466-1.601-1.018-1.909-2.146-.882-4.536,1.465-3.409,2.445-7.02,2.607-10.727.104-2.366.728-3.337,2.502-3.506,4.988-.476,9.967-.364,14.954-.023,1.173.08,1.917.57,2.487,1.574,2.549,4.492,4.29,9.293,5.585,14.272.045.175.074.353.099.474-.027.633-.266,1.114-.654,1.519-3.317,3.465-6.838,6.692-10.806,9.413-.868.595-2.019.58-2.895-.003ZM121.616,127.157c-1.317,1.302-2.891,2.313-4.477,3.31-.205.129-.434.155-.625-.017-.257-.231-.149-.518-.014-.745.374-.63.888-1.159,1.507-1.53,1.005-.604,2.02-1.191,3.037-1.774.486-.279.97.361.572.755ZM129.694,99.645c-.279,4.792-.716,8.982-1.525,13.118-.372,1.904-1.877,3.192-3.099,4.564-2.21,2.481-4.741,4.608-7.621,6.309-1.175.694-2.305.912-3.619.417-2.588-.977-5.178-1.944-7.655-3.185-1.639-.822-1.808-1.21-1.488-3,.768-4.291,1.311-8.609,1.135-12.978-.052-1.29.425-2.19,1.447-2.865,4.035-2.664,7.618-5.859,10.933-9.358,1.001-1.056,1.926-1.264,3.229-.505,1.92,1.118,3.853,2.211,5.727,3.409,1.719,1.099,3.052,2.356,2.536,4.074ZM129.299,91.817c-2.182-1.592-4.604-2.816-7.021-4.021-.909-.454-1.489-1.139-1.759-2.161-1.417-5.367-3.36-10.531-6.104-15.373-.567-1.001-.414-1.997.466-3.013.722-.833,1.207-1.837,1.468-2.908.452-1.855,1.278-2.3,2.496-1.72,3.769,1.792,7.45,3.736,10.887,6.119.699.485,1.117,1.18,1.544,1.871,1.706,2.755,2.911,5.735,3.893,8.81.136.426.174.882.258,1.325.007.905-.369,1.704-.662,2.504-.967,2.638-1.964,5.265-2.989,7.881-.579,1.476-1.183,1.629-2.477.685ZM137.269,94.547c-.068,5.367-1.245,10.505-3.218,15.473-.143.36-.126,1.057-.779.884-.661-.175-.283-.726-.238-1.146.42-3.87,1.024-7.729.874-11.639-.05-1.313.181-2.471.975-3.578.542-.757.79-1.722,1.192-2.583.16-.343.181-.928.709-.846.611.095.462.695.477,1.121.027.771.008,1.543.008,2.315Z"/>
        </g>
      </g>
    </g>
    <g id="girl">
      <g>
        <g>
          <g>
            <circle class="cls-12" cx="93.156" cy="93.156" r="83.732"/>
            <path class="cls-11" d="M93.156,186.312C41.79,186.312,0,144.521,0,93.155S41.79,0,93.156,0s93.156,41.789,93.156,93.155-41.79,93.156-93.156,93.156ZM93.156,4C43.995,4,4,43.995,4,93.155s39.995,89.156,89.156,89.156,89.156-39.995,89.156-89.156S142.317,4,93.156,4Z"/>
            <g>
              <path class="cls-8" d="M92.505,118.273c-2.079,0-4.472-.483-6.929-1.95-1.126-.672-1.492-2.131-.82-3.253.672-1.126,2.131-1.492,3.253-.82,4.552,2.719,8.763.253,8.803.229,1.122-.676,2.582-.31,3.257.812s.31,2.582-.812,3.257c-.177.105-2.94,1.725-6.752,1.725Z"/>
              <path class="cls-8" d="M92.119,107.27c-1.299,0-2.759-.253-4.223-1.001-1.038-.531-1.448-1.802-.917-2.839s1.802-1.448,2.839-.917c2.401,1.231,4.995-.036,5.023-.048,1.038-.515,2.304-.101,2.827.929.523,1.034.125,2.292-.905,2.823-.121.064-2.071,1.05-4.645,1.05v.004Z"/>
              <path class="cls-8" d="M70.133,84.637c-.857,0-1.685-.466-2.107-1.279-.607-1.162-.153-2.598,1.009-3.201,6.056-3.157,11.666-.294,11.904-.169,1.162.607,1.609,2.043,1.001,3.205-.607,1.158-2.031,1.605-3.189,1.009-.181-.092-3.728-1.81-7.524.169-.35.181-.724.269-1.094.269v-.004Z"/>
              <path class="cls-8" d="M104.42,84.637c-.857,0-1.685-.466-2.107-1.279-.607-1.162-.153-2.598,1.009-3.201,6.06-3.157,11.666-.294,11.904-.169,1.162.607,1.609,2.043,1.001,3.205-.607,1.158-2.031,1.605-3.189,1.009-.181-.092-3.728-1.81-7.52.169-.35.181-.724.269-1.094.269l-.004-.004Z"/>
              <ellipse class="cls-8" cx="75.739" cy="93.307" rx="4.749" ry="4.878"/>
              <ellipse class="cls-8" cx="108.973" cy="93.307" rx="4.749" ry="4.878"/>
              <path class="cls-8" d="M134.726,149.463c-.471.547-1.134.812-1.786.812-.619,0-1.243-.237-1.701-.716-1.038-1.07-2.228-2.087-3.531-3.072-.619-.471-.953-1.186-.953-1.906,0-.483.149-.973.45-1.391.772-1.058,2.28-1.307,3.33-.515,1.456,1.09,2.803,2.236,3.969,3.434.901.909,1.07,2.389.225,3.35l-.004.004Z"/>
              <path class="cls-8" d="M147.377,106.502c-1.198-2.409-2.28-4.315-3.233-5.992-2.292-4.066-3.808-6.752-5.107-12.716-.406-1.85-.213-5.2,0-9.076.149-2.65.298-5.634.302-8.787,0-1.017-.832-1.798-1.85-1.798h-.02c-.306,0-.599-.016-.885-.044-1.07-.113-1.995.68-1.995,1.757,0,3.02-.141,5.936-.29,8.602-.249,4.488-.446,8.007.141,10.5h0c-.909-.639-1.914-1.122-2.976-1.424-.084-.109-.161-.205-.213-.269-.29-3.318-1.315-11.047-4.753-19.03,1.07-1.347,1.798-2.763,2.172-3.961.869-2.783-.193-4.09-.901-4.613-.406-.302-1.862-1.178-3.84.141-.941.631-1.914.78-2.803.426-1.122-.426-2.003-1.629-2.397-3.273-.129-.523-.257-1.114-.386-1.753-1.082-5.192-2.891-13.87-12.961-17.767-4.58-1.777-8.992-1.54-12.897-.374-1.444.438-2.087,2.119-1.339,3.426l.044.084c.555.953,1.693,1.371,2.763,1.058,3.028-.901,6.358-1.07,9.72.237,7.665,2.956,9.032,9.515,10.017,14.3.149.696.29,1.347.426,1.926.772,3.169,2.698,5.566,5.276,6.571,1.146.438,2.357.587,3.555.45-1.295,1.713-3.563,3.555-6.849,3.724h-.097c-8.361.354-16.42-7.182-20.698-14.803-2.602-4.625-7.162-6.41-10.854-7.074.531-.442,1.122-.905,1.745-1.355.973-.7,1.239-2.027.575-3.02l-.044-.064c-.796-1.194-2.429-1.46-3.583-.607-2.139,1.584-3.804,3.165-4.85,4.235-6.539,2.546-12.221,6.937-16.15,12.704-7.729,11.377-8.735,23.493-8.839,27.591-.31.141-.619.342-.889.643-.728.237-1.424.555-2.075.941.141-1.122.245-2.3.322-3.555.052-.961.076-1.922.072-2.875,0-1.436-1.287-2.529-2.706-2.312l-.072.012c-1.13.177-1.971,1.146-1.971,2.288,0,.873-.02,1.741-.072,2.61-.483,8.296-2.546,13.263-4.741,18.527-1.07,2.578-2.184,5.244-3.145,8.369-1.552,5.011-1.038,9.462,1.532,13.219,1.283,1.894,3.093,3.563,5.361,4.999,1.283.804,2.996.237,3.511-1.198.097-.257.141-.535.141-.792,0-.812-.418-1.584-1.146-2.035-1.701-1.07-3.028-2.292-3.949-3.639-1.733-2.546-2.035-5.546-.921-9.153.909-2.912,1.971-5.469,2.996-7.942.354-.857.716-1.713,1.07-2.59,2.035,3.981,6.165,6.571,10.424,6.314,2.429,4.689,5.855,10.359,9.567,13.508,3.145,2.666,7.138,4.914,11.389,6.539v2.377c-.121.117-.185.181-.306.302-3.487-.072-6.969-.225-10.331-.471-4.339-.326-8.208-.937-11.55-1.814-1.13-.298-2.381.157-2.883,1.214-.647,1.363.084,2.944,1.5,3.318,3.587.965,7.665,1.629,12.245,1.979-6.41,2.964-12.684,6.647-16.934,11.035-1.017,1.042-.869,2.767.386,3.619.985.668,2.312.402,3.149-.446,4.962-5.043,13.247-9.149,20.3-12.004,2.879,6.764,10.263,11.272,18.611,11.272,1.13,0,2.244-.088,3.334-.253,1.363-.209,2.228-1.605,1.786-2.912-.024-.072-.048-.145-.068-.217-.314-1.086-1.416-1.701-2.538-1.54-.82.117-1.657.181-2.513.181-6.39,0-12-3.286-14.172-8.232,1.118-.398,2.168-.764,3.113-1.086.961-.33,1.609-1.227,1.605-2.244v-2.57c3.189.824,6.422,1.283,9.45,1.283,3.072,0,6.153-.386,9.141-1.102v2.381c0,1.013.643,1.922,1.605,2.24,1.094.366,2.228.76,3.386,1.178-.374.82-.828,1.597-1.379,2.308-.611.788-.704,1.918-.177,2.763.458.736,1.223,1.114,1.999,1.114.708,0,1.424-.322,1.914-.953.836-1.082,1.54-2.268,2.087-3.543,3.04,1.219,6.145,2.602,9.076,4.13,1.05.547,2.332.257,3.028-.696.302-.418.45-.909.45-1.379,0-.857-.458-1.693-1.283-2.119-2.055-1.07-4.186-2.067-6.306-2.988.032-.012.052-.012.084-.012,1.339-.084,2.59-.161,3.748-.237,13.625-.857,23.449-5.353,27.656-12.664,2.642-4.601,2.706-9.945.161-15.036l.004.016ZM92.191,126.368c-7.556,0-16.806-3.382-22.508-8.22-2.739-2.324-5.992-7.13-9.173-13.528-.406-.836-1.243-1.327-2.119-1.327-.269,0-.523.044-.78.141-.117.012-.245.02-.406.044-3.028.503-6.153-1.882-6.957-5.308-.362-1.54-.084-3.113.78-4.412.824-1.243,2.119-2.087,3.531-2.324.857-.141,1.403-.471,1.765-.857.245-.129.491-.302.716-.555.181-.205.334-.438.438-.676l.161-.245c.269-.406.406-.901.394-1.403-.012-.141-.406-13.786,8.027-26.18,3.028-4.452,7.279-7.954,12.189-10.21.269.076.555.097.857.064.084,0,8.767-.845,12.04,4.979,4.625,8.232,13.958,17.682,25.034,17.232.052-.012.097-.012.149-.012,2.493-.129,4.633-.889,6.402-1.971,3.499,9,3.865,17.393,3.873,17.501.02.772.418,1.476,1.058,1.894.052.044.117.076.173.109.374.362.933.716,1.786.869,1.468.257,2.803,1.154,3.672,2.449.889,1.315,1.186,2.891.857,4.42-.728,3.362-3.768,5.662-6.776,5.139-.161-.032-.334-.052-.503-.064-1.102-.342-2.312.149-2.835,1.21-2.867,5.811-4.826,7.866-8.735,11.976-5.437,5.714-14.3,9.269-23.119,9.269l.012-.004ZM143.095,119.173c-3.338,5.803-12.02,9.547-23.835,10.287-1.166.076-2.421.161-3.756.245-2.835.181-6.016.386-9.418.587v-1.765c4.914-1.862,9.334-4.657,12.664-8.168,3.639-3.808,5.952-6.249,8.767-11.59,4.979.362,9.76-3.189,11.151-8.369.426.804.877,1.605,1.347,2.441.921,1.629,1.971,3.491,3.113,5.791.921,1.83,1.371,3.651,1.371,5.405,0,1.786-.458,3.523-1.403,5.139v-.004Z"/>
            </g>
          </g>
          <path class="cls-11" d="M123.495,37.175c0,.02-.02.03-.02.04-.76,1.07-2.22,1.32-3.29.57-15.96-11.19-30.91-2.68-31.61-2.27-.73.43-1.64.44-2.38.02-.02-.01-.16-.09-.4-.2-.91-.44-3.96-1.4-8.03-1.4-1.09,0-2.25.06-3.46.23-4.549.639-8.792,2.534-12.331,5.459-3.732,3.085-6.273,7.316-7.986,11.804-1.63,4.272-2.495,8.801-2.94,13.341-.26,2.654-.374,5.32-.414,7.986-.02,1.28-1.07,2.31-2.35,2.31h-.03c-1.3-.02-2.34-1.09-2.32-2.38.066-4.283.322-8.572,1.008-12.804.748-4.612,2.012-9.165,4.054-13.379,1.159-2.392,2.652-4.598,4.194-6.756,1.44-2.016,3.547-3.702,5.556-5.129,3.295-2.341,7.051-4.012,11.011-4.834.628-.13,1.261-.24,1.896-.327,6.15-.84,11.32.41,13.65,1.36,2.06-1,6.68-2.94,12.74-3.41,5.97-.46,14.31.51,22.89,6.54,1.05.73,1.3,2.2.56,3.23Z"/>
        </g>
        <path class="cls-11" d="M136.035,63.779c-1.148,0-2.152-.843-2.322-2.013-1.146-7.884-3.688-14.341-7.557-19.193-.809-1.015-.642-2.493.373-3.303,1.016-.811,2.492-.642,3.303.373,4.395,5.512,7.265,12.729,8.531,21.447.187,1.284-.703,2.477-1.987,2.663-.114.017-.229.025-.341.025Z"/>
      </g>
    </g>
    <g id="boy" class="cls-16">
      <g>
        <circle class="cls-15" cx="93.156" cy="93.156" r="83.732"/>
        <path class="cls-11" d="M93.156,186.312C41.79,186.312,0,144.522,0,93.156S41.79,0,93.156,0s93.156,41.79,93.156,93.156-41.79,93.156-93.156,93.156ZM93.156,4C43.995,4,4,43.995,4,93.156s39.995,89.156,89.156,89.156,89.156-39.995,89.156-89.156S142.317,4,93.156,4Z"/>
        <g>
          <path class="cls-4" d="M43.885,102.385c1.207,5.561,5.949,9.571,11.295,9.571h.474c.862,2.457,1.811,4.354,2.932,6.079.862,1.207,2.587,1.294,3.578.173l.173-.173c.776-.819.905-1.983.302-2.932-1.164-1.767-2.026-3.708-2.845-6.596l-.819-2.802-2.501,1.207s0-.043-.043-.043c-.086,0-.216.043-.345.043-.302.086-.604.086-.905.086-2.975,0-5.734-2.414-6.467-5.648-.345-1.681,0-3.406.949-4.828.862-1.25,2.112-2.199,3.492-2.543l.862.431c.302.173.69.259,1.078.259.518,0,.992-.172,1.38-.431.733-.517,1.164-1.38,1.078-2.242,0-.216-1.293-19.659,7.933-30.652,4.009-4.785,7.501-7.027,10.088-8.062-.517.56-.776,1.38-.69,2.156.129.733.604,1.423,1.293,1.767.216.129,4.656,2.457,11.64,2.457,3.018,0,6.079-.431,9.14-1.293,14.615-4.052,19.055-12.933,19.271-13.322.603-1.207.086-2.716-1.164-3.319-.345-.173-.69-.259-1.078-.259-.949,0-1.811.56-2.242,1.38-.043.086-3.88,7.329-16.124,10.735-2.587.733-5.259,1.121-7.803,1.121-2.457,0-4.527-.345-5.993-.733l4.311-4.397c.862-.905.905-2.328.129-3.32-.474-.56-1.164-.905-1.94-.905-.474,0-.949.129-1.336.388-.086.043-2.069,1.293-4.785,1.293-1.983,0-3.837-.647-5.562-1.897-2.242-1.681-2.5-5.475-2.371-8.019.733.302,1.509.431,2.328.431,2.07,0,4.441-.862,7.07-2.587,5.13-3.363,10.864-5.217,16.167-5.217,6.984,0,13.063,3.061,17.978,9.054.259.302.603.474.948.647v.043c.086.043.129.086.216.086,6.079,2.716,10.95,6.51,14.141,11.123,6.251,9.097,7.113,18.71,6.38,26.083-1.207-6.079-3.794-13.623-9.398-20.219-2.069-2.414-4.354-4.484-6.898-6.208-1.121-.776-2.673-.259-3.277.991,0,.086-.043.129-.086.216-.56,1.035-.302,2.328.69,2.975,2.113,1.466,4.052,3.19,5.777,5.26,11.08,12.976,9.14,30.738,9.053,31.471-.129,1.207.56,2.328,1.725,2.673.259.086.474.129.733.129.604,0,1.164-.216,1.595-.603,1.207.388,2.285,1.25,3.018,2.328.949,1.423,1.25,3.147.862,4.828-.776,3.32-3.664,5.863-6.682,5.863-.302,0-.604-.043-.905-.086l-.517-.086-2.371-.991-.733,2.673c-1.897,6.639-3.88,9.01-8.752,13.709-5.691,5.518-16.08,9.355-25.306,9.355-6.553,0-13.494-1.811-19.098-4.742-1.078-.56-2.371-.345-3.061.604l-.043.043c-.948,1.25-.603,3.018.776,3.751,2.113,1.078,4.311,2.026,6.553,2.759v2.242c-10.131,3.492-23.496,9.226-30.824,16.77-.431.474-.69,1.078-.69,1.724,0,.69.259,1.293.733,1.768.474.431,1.121.69,1.768.69s1.293-.259,1.767-.733c5.13-5.303,13.882-9.743,22.159-13.063,1.509,3.578,4.139,6.553,7.544,8.665,1.25.733,2.802.129,3.277-1.207.043-.129.086-.259.129-.345.388-1.035.043-2.156-.905-2.759-2.414-1.509-4.311-3.621-5.389-6.122,1.25-.474,2.5-.905,3.708-1.293.991-.345,1.681-1.25,1.681-2.328v-2.63c3.492.776,6.898,1.164,9.916,1.164,3.363,0,6.855-.431,10.261-1.293v2.759c0,1.078.69,2.026,1.681,2.328,1.035.345,2.198.733,3.406,1.164-1.725,4.182-5.734,7.243-10.648,8.45-1.121.302-1.811,1.336-1.681,2.457,0,.129.043.259.043.388.086,1.38,1.379,2.328,2.716,1.983,6.467-1.552,11.856-5.777,14.184-11.468.216.086.474.216.733.302,1.293.517,2.759-.086,3.233-1.38,0-.043.043-.043.043-.086.474-1.207-.129-2.63-1.38-3.147-2.543-1.035-5.044-1.983-7.372-2.759v-2.457c5.346-1.897,10.174-4.699,13.537-7.976,4.828-4.656,7.372-7.588,9.441-13.839h.345c5.303,0,10.261-4.182,11.554-9.7.733-3.018.172-6.122-1.552-8.709-1.164-1.724-2.846-3.147-4.742-3.966.129-.431.345-.948.517-1.552.819-2.457,1.811-6.294,2.199-10.993.862-10.476-1.681-20.392-7.329-28.626-3.665-5.303-9.226-9.743-16.081-12.847-5.734-6.682-13.063-10.217-21.254-10.217-6.337,0-13.063,2.113-18.926,5.993-2.242,1.466-3.578,1.768-4.311,1.768-.345,0-.56-.086-.69-.129-.647-.302-.905-1.25-.905-1.25-.216-1.121-1.164-1.94-2.328-2.026-1.207,0-2.199.776-2.501,1.811-.129.56-3.492,12.933,3.492,18.107.431.302.862.604,1.293.862-2.802,1.595-5.949,4.139-9.312,8.191-5.173,6.122-7.458,14.184-8.45,20.909-.948-7.674-.819-18.84,5.432-27.979.819-1.121,1.681-2.242,2.673-3.277.733-.819.733-2.026.129-2.975,0,0,0-.043-.043-.043-.862-1.336-2.673-1.552-3.751-.388-1.121,1.25-2.156,2.543-3.104,3.88-10.088,14.744-6.553,32.98-4.44,40.395,0,.129.043.259.086.388.043.172.086.302.129.431,0,.043,0,.129.043.173-1.94.862-3.665,2.285-4.872,4.096-1.725,2.543-2.285,5.604-1.638,8.622Z"/>
          <path class="cls-4" d="M52.312,92.392h0Z"/>
          <path class="cls-4" d="M52.312,92.392h0Z"/>
          <path class="cls-4" d="M94.119,121.873c2.258,0,4.49-.631,6.63-1.877,1.183-.692,1.585-2.215.897-3.398-.445-.761-1.268-1.233-2.149-1.233-.438,0-.871.117-1.249.338-1.347.785-2.744,1.185-4.148,1.185-2.725,0-4.6-1.492-4.678-1.556-.443-.357-.999-.554-1.571-.554-.747,0-1.444.328-1.918.904-.864,1.049-.719,2.61.324,3.479.131.112,3.291,2.713,7.862,2.713Z"/>
          <path class="cls-4" d="M93.976,110.667c1.63,0,3.193-.383,4.645-1.137,1.211-.633,1.687-2.134,1.057-3.35-.431-.826-1.275-1.337-2.206-1.337-.395,0-.792.098-1.145.281-.742.388-1.547.583-2.387.583-1.297,0-2.218-.462-2.227-.466-.352-.176-.738-.267-1.121-.267-.94,0-1.789.516-2.218,1.349-.619,1.209-.148,2.701,1.054,3.327.074.04,1.944,1.018,4.547,1.018Z"/>
          <path class="cls-4" d="M76.172,124.233"/>
          <path class="cls-4" d="M76.173,124.234"/>
          <path class="cls-4" d="M68.588,82.381c-.216.604-.129,1.293.173,1.897.431.819,1.25,1.336,2.199,1.336.388,0,.776-.129,1.121-.302.086-.043,1.681-.862,3.966-.862,1.509,0,2.888.345,4.225,1.035.345.216.733.302,1.164.302.905,0,1.767-.517,2.199-1.336.603-1.207.129-2.716-1.078-3.363-2.026-1.035-4.182-1.595-6.467-1.595-3.621,0-6.165,1.379-6.294,1.422-.56.302-.991.819-1.207,1.466Z"/>
          <path class="cls-4" d="M70.27,94.064c0,3.19,2.544,5.82,5.691,5.82,3.104,0,5.648-2.63,5.648-5.82,0-3.19-2.544-5.82-5.648-5.82-3.147,0-5.691,2.63-5.691,5.82Z"/>
          <path class="cls-4" d="M117.225,85.779c.928,0,1.773-.512,2.203-1.337.307-.588.366-1.259.167-1.892s-.633-1.149-1.223-1.456c-2.02-1.052-4.198-1.587-6.47-1.587-3.593,0-6.18,1.349-6.289,1.406-.583.305-1.016.821-1.214,1.454-.2.633-.138,1.306.169,1.897.431.821,1.275,1.33,2.201,1.33.395,0,.788-.095,1.14-.278.064-.031,1.699-.847,3.962-.847,1.48,0,2.896.347,4.209,1.03.352.183.75.281,1.145.281Z"/>
          <path class="cls-4" d="M111.752,99.871c3.124,0,5.666-2.606,5.666-5.809,0-3.205-2.541-5.811-5.666-5.811-3.127,0-5.668,2.606-5.668,5.811,0,3.203,2.541,5.809,5.668,5.809Z"/>
        </g>
        <path class="cls-4" d="M137.066,149.606c-3.291-2.656-7.262-5.046-11.425-7.15-1.126-.569-2.499-.212-3.192.841l-.027.042c-.797,1.211-.359,2.843.935,3.496,3.898,1.966,7.558,4.173,10.538,6.589,1.068.866,2.64.744,3.487-.339.01-.013.021-.026.031-.039.831-1.06.703-2.593-.346-3.439Z"/>
      </g>
    </g>
    <g id="add" class="cls-16">
      <g>
        <g>
          <circle class="cls-6" cx="93.156" cy="93.156" r="83.732"/>
          <circle class="cls-1" cx="93.156" cy="93.156" r="91.156"/>
          <g>
            <circle class="cls-2" cx="154.349" cy="154.461" r="27.339"/>
            <g>
              <path class="cls-11" d="M157.239,143.618v21.69c0,.19,0,.39-.03.58-.16,1.17-.86,2-1.93,2.37-1.09.36-2.15.11-2.98-.72-.75-.75-.85-1.68-.84-2.31v-21.53c-.01-.63.09-1.56.84-2.32.83-.82,1.89-1.08,2.98-.71,1.07.37,1.77,1.2,1.93,2.37.03.19.03.39.03.58Z"/>
              <path class="cls-11" d="M143.506,151.571h21.69c.19,0,.39,0,.58.03,1.17.16,2,.86,2.37,1.93.36,1.09.11,2.15-.72,2.98-.75.75-1.68.85-2.31.84h-21.53c-.63.01-1.56-.09-2.32-.84-.82-.83-1.08-1.89-.71-2.98.37-1.07,1.2-1.77,2.37-1.93.19-.03.39-.03.58-.03Z"/>
            </g>
          </g>
        </g>
        <g>
          <path class="cls-4" d="M43.885,102.385c1.207,5.561,5.949,9.571,11.295,9.571h.474c.862,2.457,1.811,4.354,2.932,6.079.862,1.207,2.587,1.294,3.578.173l.173-.173c.776-.819.905-1.983.302-2.932-1.164-1.767-2.026-3.708-2.845-6.596l-.819-2.802-2.501,1.207s0-.043-.043-.043c-.086,0-.216.043-.345.043-.302.086-.604.086-.905.086-2.975,0-5.734-2.414-6.467-5.648-.345-1.681,0-3.406.949-4.828.862-1.25,2.112-2.199,3.492-2.543l.862.431c.302.173.69.259,1.078.259.518,0,.992-.172,1.38-.431.733-.517,1.164-1.38,1.078-2.242,0-.216-1.293-19.659,7.933-30.652,4.009-4.785,7.501-7.027,10.088-8.062-.517.56-.776,1.38-.69,2.156.129.733.604,1.423,1.293,1.767.216.129,4.656,2.457,11.64,2.457,3.018,0,6.079-.431,9.14-1.293,14.615-4.052,19.055-12.933,19.271-13.322.603-1.207.086-2.716-1.164-3.319-.345-.173-.69-.259-1.078-.259-.949,0-1.811.56-2.242,1.38-.043.086-3.88,7.329-16.124,10.735-2.587.733-5.259,1.121-7.803,1.121-2.457,0-4.527-.345-5.993-.733l4.311-4.397c.862-.905.905-2.328.129-3.32-.474-.56-1.164-.905-1.94-.905-.474,0-.949.129-1.336.388-.086.043-2.069,1.293-4.785,1.293-1.983,0-3.837-.647-5.562-1.897-2.242-1.681-2.5-5.475-2.371-8.019.733.302,1.509.431,2.328.431,2.07,0,4.441-.862,7.07-2.587,5.13-3.363,10.864-5.217,16.167-5.217,6.984,0,13.063,3.061,17.978,9.054.259.302.603.474.948.647v.043c.086.043.129.086.216.086,6.079,2.716,10.95,6.51,14.141,11.123,6.251,9.097,7.113,18.71,6.38,26.083-1.207-6.079-3.794-13.623-9.398-20.219-2.069-2.414-4.354-4.484-6.898-6.208-1.121-.776-2.673-.259-3.277.991,0,.086-.043.129-.086.216-.56,1.035-.302,2.328.69,2.975,2.113,1.466,4.052,3.19,5.777,5.26,11.08,12.976,9.14,30.738,9.053,31.471-.129,1.207.56,2.328,1.725,2.673.259.086.474.129.733.129.604,0,1.164-.216,1.595-.603,1.207.388,2.285,1.25,3.018,2.328.949,1.423,1.25,3.147.862,4.828-.776,3.32-3.664,5.863-6.682,5.863-.302,0-.604-.043-.905-.086l-.517-.086-2.371-.991-.733,2.673c-1.897,6.639-3.88,9.01-8.752,13.709-5.691,5.518-16.08,9.355-25.306,9.355-6.553,0-13.494-1.811-19.098-4.742-1.078-.56-2.371-.345-3.061.604l-.043.043c-.948,1.25-.603,3.018.776,3.751,2.113,1.078,4.311,2.026,6.553,2.759v2.242c-10.131,3.492-23.496,9.226-30.824,16.77-.431.474-.69,1.078-.69,1.724,0,.69.259,1.293.733,1.768.474.431,1.121.69,1.768.69s1.293-.259,1.767-.733c5.13-5.303,13.882-9.743,22.159-13.063,1.509,3.578,4.139,6.553,7.544,8.665,1.25.733,2.802.129,3.277-1.207.043-.129.086-.259.129-.345.388-1.035.043-2.156-.905-2.759-2.414-1.509-4.311-3.621-5.389-6.122,1.25-.474,2.5-.905,3.708-1.293.991-.345,1.681-1.25,1.681-2.328v-2.63c3.492.776,6.898,1.164,9.916,1.164,3.363,0,6.855-.431,10.261-1.293v2.759c0,1.078.69,2.026,1.681,2.328,1.035.345,2.198.733,3.406,1.164-1.725,4.182-5.734,7.243-10.648,8.45-1.121.302-1.811,1.336-1.681,2.457,0,.129.043.259.043.388.086,1.38,1.379,2.328,2.716,1.983,6.467-1.552,11.856-5.777,14.184-11.468.216.086.474.216.733.302,1.293.517,2.759-.086,3.233-1.38,0-.043.043-.043.043-.086.474-1.207-.129-2.63-1.38-3.147-2.543-1.035-5.044-1.983-7.372-2.759v-2.457c5.346-1.897,10.174-4.699,13.537-7.976,4.828-4.656,7.372-7.588,9.441-13.839h.345c5.303,0,10.261-4.182,11.554-9.7.733-3.018.172-6.122-1.552-8.709-1.164-1.724-2.846-3.147-4.742-3.966.129-.431.345-.948.517-1.552.819-2.457,1.811-6.294,2.199-10.993.862-10.476-1.681-20.392-7.329-28.626-3.665-5.303-9.226-9.743-16.081-12.847-5.734-6.682-13.063-10.217-21.254-10.217-6.337,0-13.063,2.113-18.926,5.993-2.242,1.466-3.578,1.768-4.311,1.768-.345,0-.56-.086-.69-.129-.647-.302-.905-1.25-.905-1.25-.216-1.121-1.164-1.94-2.328-2.026-1.207,0-2.199.776-2.501,1.811-.129.56-3.492,12.933,3.492,18.107.431.302.862.604,1.293.862-2.802,1.595-5.949,4.139-9.312,8.191-5.173,6.122-7.458,14.184-8.45,20.909-.948-7.674-.819-18.84,5.432-27.979.819-1.121,1.681-2.242,2.673-3.277.733-.819.733-2.026.129-2.975,0,0,0-.043-.043-.043-.862-1.336-2.673-1.552-3.751-.388-1.121,1.25-2.156,2.543-3.104,3.88-10.088,14.744-6.553,32.98-4.44,40.395,0,.129.043.259.086.388.043.172.086.302.129.431,0,.043,0,.129.043.173-1.94.862-3.665,2.285-4.872,4.096-1.725,2.543-2.285,5.604-1.638,8.622Z"/>
          <path class="cls-4" d="M52.312,92.392h0Z"/>
          <path class="cls-4" d="M52.312,92.392h0Z"/>
          <path class="cls-4" d="M94.119,121.873c2.258,0,4.49-.631,6.63-1.877,1.183-.692,1.585-2.215.897-3.398-.445-.761-1.268-1.233-2.149-1.233-.438,0-.871.117-1.249.338-1.347.785-2.744,1.185-4.148,1.185-2.725,0-4.6-1.492-4.678-1.556-.443-.357-.999-.554-1.571-.554-.747,0-1.444.328-1.918.904-.864,1.049-.719,2.61.324,3.479.131.112,3.291,2.713,7.862,2.713Z"/>
          <path class="cls-4" d="M93.976,110.667c1.63,0,3.193-.383,4.645-1.137,1.211-.633,1.687-2.134,1.057-3.35-.431-.826-1.275-1.337-2.206-1.337-.395,0-.792.098-1.145.281-.742.388-1.547.583-2.387.583-1.297,0-2.218-.462-2.227-.466-.352-.176-.738-.267-1.121-.267-.94,0-1.789.516-2.218,1.349-.619,1.209-.148,2.701,1.054,3.327.074.04,1.944,1.018,4.547,1.018Z"/>
          <path class="cls-4" d="M76.172,124.233"/>
          <path class="cls-4" d="M76.173,124.234"/>
          <path class="cls-4" d="M68.588,82.381c-.216.604-.129,1.293.173,1.897.431.819,1.25,1.336,2.199,1.336.388,0,.776-.129,1.121-.302.086-.043,1.681-.862,3.966-.862,1.509,0,2.888.345,4.225,1.035.345.216.733.302,1.164.302.905,0,1.767-.517,2.199-1.336.603-1.207.129-2.716-1.078-3.363-2.026-1.035-4.182-1.595-6.467-1.595-3.621,0-6.165,1.379-6.294,1.422-.56.302-.991.819-1.207,1.466Z"/>
          <path class="cls-4" d="M70.27,94.064c0,3.19,2.544,5.82,5.691,5.82,3.104,0,5.648-2.63,5.648-5.82,0-3.19-2.544-5.82-5.648-5.82-3.147,0-5.691,2.63-5.691,5.82Z"/>
          <path class="cls-4" d="M117.225,85.779c.928,0,1.773-.512,2.203-1.337.307-.588.366-1.259.167-1.892s-.633-1.149-1.223-1.456c-2.02-1.052-4.198-1.587-6.47-1.587-3.593,0-6.18,1.349-6.289,1.406-.583.305-1.016.821-1.214,1.454-.2.633-.138,1.306.169,1.897.431.821,1.275,1.33,2.201,1.33.395,0,.788-.095,1.14-.278.064-.031,1.699-.847,3.962-.847,1.48,0,2.896.347,4.209,1.03.352.183.75.281,1.145.281Z"/>
          <path class="cls-4" d="M111.752,99.871c3.124,0,5.666-2.606,5.666-5.809s-2.541-5.811-5.666-5.811-5.668,2.606-5.668,5.811,2.541,5.809,5.668,5.809Z"/>
        </g>
      </g>
    </g>
  </g>
</svg>