<?xml version="1.0" encoding="UTF-8"?>
<svg xmlns="http://www.w3.org/2000/svg" version="1.1" viewBox="0 0 186.312 186.312">
  <defs>
    <style>
      .cls-1 {
        fill: #d5cae4;
      }

      .cls-2 {
        fill: #63567f;
      }
    </style>
  </defs>
  <!-- Generator: Adobe Illustrator 28.7.3, SVG Export Plug-In . SVG Version: 1.2.0 Build 164)  -->
  <g>
    <g id="mic">
      <g>
        <circle class="cls-1" cx="93.156" cy="93.156" r="83.732"/>
        <path class="cls-2" d="M93.156,186.312C41.79,186.312,0,144.521,0,93.155S41.79,0,93.156,0s93.156,41.789,93.156,93.155-41.79,93.156-93.156,93.156ZM93.156,4C43.995,4,4,43.995,4,93.155s39.995,89.156,89.156,89.156,89.156-39.995,89.156-89.156S142.317,4,93.156,4Z"/>
        <g>
          <path class="cls-2" d="M130.125,46.694c-9.63-9.63-22.91-10.33-31.58-1.66l-1.65,1.66-1.65,1.64c-4.37,4.38-6.52,10.02-6.06,15.91v.01l-4.89,7.59c-.26.41-.4.88-.4,1.36v2.28l-16.37,16.92c-.86.89-.92,2.26-.17,3.24.01.02.02.03.03.04.9,1.21,2.68,1.29,3.73.21l17.08-17.66c.45-.46.7-1.09.7-1.73v-2.57l1.93-2.99c1.31,3.21,3.37,6.28,6.07,8.97,2.6,2.6,5.47,4.55,8.44,5.84l-2.43,1.5h-2.59c-.62,0-1.21.23-1.67.64l-33.39,29.9c-.92.88-2.03.93-2.4.56l-5.96-5.87c-.43-.44-.37-1.51.41-2.33l2.4-2.48c1.01-1.04.92-2.73-.22-3.63-.01-.01-.02-.02-.04-.03-1-.81-2.44-.74-3.33.19l-2.42,2.49c-2.64,2.78-2.78,6.87-.32,9.34l1.26,1.24-.72.72c-6.78,6.78-7.16,17.88-.44,24.73,3.39,3.46,7.89,5.2,12.38,5.19,4.44,0,8.89-1.69,12.27-5.07l2.29-2.29c.93-.93.93-2.47-.05-3.35-.08-.07-.15-.14-.23-.22-.89-.9-2.36-.86-3.26.04l-2.03,2.03c-4.55,4.55-11.89,5.16-16.84,1.06-5.67-4.7-5.97-13.17-.88-18.26l1.07-1.07,1.14,1.12c1.13,1.13,2.64,1.69,4.2,1.69,1.78,0,3.64-.72,5.11-2.12l32.62-29.22h2.35c.46,0,.91-.13,1.31-.37l7.07-4.36c.71.07,1.41.11,2.12.11,2.62,0,5.19-.5,7.62-1.51,2.43-1.01,4.71-2.53,6.74-4.56l1.64-1.65,1.65-1.65c8.68-8.67,7.98-21.95-1.64-31.57ZM128.235,74.734l-1.69,1.69c-1,.93-3.43.85-6.58-.41-1.02-.41-2.18-.07-2.85.8-.02.01-.03.03-.04.04-1.02,1.28-.49,3.21,1.04,3.81.69.27,1.37.51,2.03.7-6.2,2.78-13.69,1.05-19.72-4.98-3.66-3.67-5.88-8.1-6.25-12.46-.21-2.57.22-5.02,1.25-7.29.17.56.36,1.14.59,1.73,1.68,4.37,3.17,7.28,7.38,11.48.16.17.43.44.76.77,1.14,1.14,3,.78,3.78-.64l.03-.06c.53-.93.45-2.09-.3-2.86-.37-.4-.69-.73-.74-.78-3.73-3.72-4.81-5.97-6.25-9.7-1.11-2.89-1.22-5.29-.3-6.3l.03-.03,1.67-1.67c3.1-3.09,6.9-4.62,10.85-4.62,4.65,0,9.5,2.11,13.66,6.27,7.7,7.7,8.38,17.78,1.65,24.51Z"/>
          <path class="cls-2" d="M132.771,111.491c-.64,0-1.28-.244-1.768-.732-.977-.977-.977-2.559,0-3.535l5.238-5.238c.976-.977,2.56-.977,3.535,0,.977.977.977,2.559,0,3.535l-5.238,5.238c-.488.488-1.128.732-1.768.732Z"/>
          <path class="cls-2" d="M145.866,98.396c-.64,0-1.28-.244-1.768-.732-.976-.977-.976-2.56,0-3.535l5.238-5.237c.977-.978,2.559-.978,3.536,0,.976.977.976,2.56,0,3.535l-5.238,5.237c-.488.488-1.128.732-1.768.732Z"/>
          <path class="cls-2" d="M151.104,111.491c-.64,0-1.28-.244-1.768-.732l-5.238-5.238c-.977-.977-.977-2.559,0-3.535.976-.977,2.56-.977,3.535,0l5.238,5.238c.977.977.977,2.559,0,3.535-.488.488-1.128.732-1.768.732Z"/>
          <path class="cls-2" d="M138.009,98.396c-.64,0-1.279-.244-1.768-.732l-5.238-5.237c-.977-.976-.977-2.559,0-3.535.977-.977,2.559-.977,3.536,0l5.238,5.237c.977.976.977,2.559,0,3.535-.488.488-1.128.732-1.768.732Z"/>
          <path class="cls-2" d="M59.438,51.253h-7.857c-1.381,0-2.5-1.119-2.5-2.5s1.119-2.5,2.5-2.5h7.857c1.381,0,2.5,1.119,2.5,2.5s-1.119,2.5-2.5,2.5Z"/>
          <path class="cls-2" d="M77.771,51.253h-7.857c-1.381,0-2.5-1.119-2.5-2.5s1.119-2.5,2.5-2.5h7.857c1.381,0,2.5,1.119,2.5,2.5s-1.119,2.5-2.5,2.5Z"/>
          <path class="cls-2" d="M64.675,64.349c-1.381,0-2.5-1.119-2.5-2.5v-7.857c0-1.381,1.119-2.5,2.5-2.5s2.5,1.119,2.5,2.5v7.857c0,1.381-1.119,2.5-2.5,2.5Z"/>
          <path class="cls-2" d="M64.675,46.015c-1.381,0-2.5-1.119-2.5-2.5v-7.856c0-1.381,1.119-2.5,2.5-2.5s2.5,1.119,2.5,2.5v7.856c0,1.381-1.119,2.5-2.5,2.5Z"/>
          <path class="cls-2" d="M48.961,80.842c-1.381,0-2.5-1.119-2.5-2.5v-3.398c0-1.381,1.119-2.5,2.5-2.5s2.5,1.119,2.5,2.5v3.398c0,1.381-1.119,2.5-2.5,2.5Z"/>
          <path class="cls-2" d="M48.961,93.158c-1.381,0-2.5-1.119-2.5-2.5v-3.398c0-1.381,1.119-2.5,2.5-2.5s2.5,1.119,2.5,2.5v3.398c0,1.381-1.119,2.5-2.5,2.5Z"/>
          <path class="cls-2" d="M44.502,85.301h-3.398c-1.381,0-2.5-1.119-2.5-2.5s1.119-2.5,2.5-2.5h3.398c1.381,0,2.5,1.119,2.5,2.5s-1.119,2.5-2.5,2.5Z"/>
          <path class="cls-2" d="M56.818,85.301h-3.398c-1.381,0-2.5-1.119-2.5-2.5s1.119-2.5,2.5-2.5h3.398c1.381,0,2.5,1.119,2.5,2.5s-1.119,2.5-2.5,2.5Z"/>
          <path class="cls-2" d="M124.266,116.108c-5.262-8.668-16.838-9.637-23.515-2.958l-12.391,12.391c-.891.891-.873,2.29-.055,3.249.013.016.026.031.04.047.913,1.097,2.523,1.267,3.533.257l12.41-12.409c3.855-3.856,10.164-3.885,14.062-.066,1.968,1.928,3.015,4.54,2.92,7.312-.087,2.556-1.261,4.955-3.069,6.763l-7.347,7.348c-.925.925-1.104,2.433-.276,3.447.951,1.165,2.673,1.229,3.709.192l7.675-7.676c3.64-3.639,5.138-8.841,3.873-14.098-.322-1.337-.853-2.624-1.566-3.799Z"/>
        </g>
      </g>
    </g>
  </g>
</svg>