<?xml version="1.0" encoding="UTF-8"?>
<svg xmlns="http://www.w3.org/2000/svg" version="1.1" viewBox="0 0 186.312 186.312">
  <defs>
    <style>
      .cls-1 {
        fill: #f2bbef;
      }

      .cls-2 {
        fill: #63567f;
      }
    </style>
  </defs>
  <!-- Generator: Adobe Illustrator 28.7.4, SVG Export Plug-In . SVG Version: 1.2.0 Build 166)  -->
  <g>
    <g id="Layer_15">
      <g>
        <circle class="cls-1" cx="93.156" cy="93.156" r="83.732"/>
        <path class="cls-2" d="M93.156,186.312C41.79,186.312,0,144.521,0,93.155S41.79,0,93.156,0s93.156,41.789,93.156,93.155-41.79,93.156-93.156,93.156ZM93.156,4C43.995,4,4,43.995,4,93.155s39.995,89.156,89.156,89.156,89.156-39.995,89.156-89.156S142.317,4,93.156,4Z"/>
        <path class="cls-2" d="M140.07,93.172c-1.17-1.15-2.39-2.24-3.58-3.3-3-2.68-5.84-5.21-7.7-8.46-2.19-3.84-2.74-8.29-3.33-13.01-.13-1.02-.26-2.04-.4-3.05-1.73-12.1-7.13-21.86-15.22-27.5-1.92-1.34-3.99-2.44-6.17-3.28l5.11-12.4c.37-.9.14-1.94-.57-2.61-.7-.67-1.75-.83-2.63-.4l-7.13,3.45-3.63-3.67-.14-.15c-.75-.77-1.9-.91-2.8-.42-.06.03-.12.07-.18.11-.12.08-.23.17-.34.28-.06.06-.11.12-.17.18l-3.62,3.67-7.14-3.45c-.88-.43-1.92-.27-2.63.4-.71.67-.94,1.71-.57,2.61l4.79,11.64c-1.04.29-2.08.64-3.11,1.03-10.53,4.02-18.22,12.32-20.57,22.21-2.67,11.19-.03,23.79,6.87,32.88.78,1.04,2.26,1.24,3.29.45,1.03-.78,1.24-2.25.45-3.29-5.98-7.88-8.35-19.24-6.04-28.95,1.99-8.38,8.6-15.44,17.68-18.9,1.52-.58,3.06-1.04,4.6-1.39.37-.08.73-.15,1.09-.23,7.53-1.39,15.03.02,20.87,4.09,9.45,6.59,12.36,18.06,13.25,24.31.14.98.27,1.97.39,2.96.62,4.97,1.27,10.11,3.92,14.76,2.24,3.91,5.5,6.82,8.65,9.64,1.2,1.06,2.33,2.07,3.41,3.14.46.45,1.05.67,1.65.67.61,0,1.21-.23,1.67-.7.91-.93.9-2.41-.02-3.32ZM86.69,32.802l-2.77-6.73,3.11,1.51c.91.43,2,.25,2.7-.47l3.28-3.32,3.27,3.32c.7.72,1.79.9,2.7.47l3.11-1.51-2.92,7.12c-4-.89-8.23-1.03-12.48-.39Z"/>
        <path class="cls-2" d="M146.526,137.886c-.185,0-.373-.022-.561-.068-1.261-.308-2.032-1.58-1.724-2.841,2.068-8.457,3.405-20.716-1.979-31.086-.598-1.152-.148-2.571,1.003-3.169,1.156-.599,2.571-.147,3.169,1.003,6.056,11.666,4.632,25.129,2.371,34.369-.262,1.073-1.223,1.792-2.28,1.792Z"/>
        <path class="cls-2" d="M86.28,37.622c-.04.03-.08.05-.12.07-.3.12-.6.17-.9.17-.02,0-.05,0-.07-.01.37-.08.73-.15,1.09-.23Z"/>
        <g>
          <path class="cls-2" d="M132.36,122.032c1.06-1.35,1.95-2.94,2.62-4.72,1.54-3.96.99-8.44-1.5-12.28-2.84-4.39-7.59-7.17-12.72-7.45l-.22-.01c-.78-.03-1.53,0-2.25.08-.15-.04-.3-.07-.46-.08-5.09-.35-10.37-1.24-14.94-5,6.61-4.08,12.14-12.63,12.81-27.54.05-1.23-.85-2.3-2.08-2.44-7.16-.84-13.39-3.75-19.03-8.89-.9-.81-2.26-.82-3.16-.01-6.85,6.21-13.56,9.87-21.1,11.55-1.11.24-1.88,1.23-1.84,2.36.36,12.18,5.98,20.62,13,24.85-4.6,3.86-9.95,4.76-15.08,5.12-.15.01-.3.04-.45.08h-.01c-.74-.08-1.49-.11-2.28-.08l-.19.01c-5.12.28-9.87,3.06-12.71,7.45-2.49,3.84-3.04,8.32-1.51,12.26.67,1.8,1.56,3.39,2.63,4.75v.01c.18,2.66.21,5.34.25,7.94.09,6.06.19,12.26,1.91,18.11-1.38,1.07-2.73,2.28-4.03,3.62-.91.93-.88,2.42.05,3.32.45.45,1.04.67,1.63.67.62,0,1.23-.24,1.69-.71.79-.82,1.6-1.58,2.43-2.28.64,1.33,1.4,2.64,2.3,3.91.46.65,1.19,1,1.92,1,.47,0,.95-.14,1.36-.43,1.06-.75,1.31-2.22.56-3.28-4.86-6.9-4.99-15.21-5.12-24-.02-1.3-.04-2.62-.08-3.95,1.34.63,2.77,1.02,4.28,1.13.3.03.6.04.89.04.25,0,.5-.01.75-.03-.34,9.7-.66,18.87,5.99,28.19.46.64,1.18.99,1.92.99.47,0,.94-.15,1.36-.44,1.05-.75,1.3-2.22.55-3.28-1.94-2.72-3.19-5.44-3.99-8.21,9.59-2.86,16.26.4,21.4,10.39v.01c.05.08.09.16.13.24.1.21.23.39.38.55.07.07.15.14.23.21q.01.01.02.02c.08.06.16.12.25.17.09.06.19.11.29.15.17.07.36.13.55.16h.02c.07.01.12.02.18.02h.08c.02.01.05.01.07.01.12,0,.24-.01.36-.03.1-.01.2-.03.29-.06.1-.03.19-.06.28-.1.1-.04.2-.09.29-.15.09-.05.18-.11.26-.18.09-.07.17-.14.24-.22.07-.08.14-.17.21-.26.06-.09.12-.19.17-.29.04-.07.07-.15.12-.22,0-.01.01-.01.01-.02,5.13-10,11.8-13.26,21.39-10.4-.79,2.76-2.04,5.49-3.98,8.21-.75,1.06-.51,2.53.55,3.28.41.29.89.44,1.36.44.74,0,1.46-.35,1.92-.99,6.65-9.32,6.33-18.49,5.99-28.19.24.02.49.03.74.03.3,0,.6-.01.9-.04,1.51-.11,2.94-.49,4.27-1.13-.03,1.33-.05,2.65-.07,3.95-.13,8.79-.26,17.1-5.13,24-.74,1.06-.49,2.53.57,3.28.41.29.88.43,1.35.43.74,0,1.47-.35,1.92-1,.9-1.27,1.66-2.58,2.3-3.91.83.69,1.64,1.46,2.44,2.28.46.47,1.07.71,1.68.71.59,0,1.18-.22,1.64-.66.93-.91.95-2.4.05-3.33-1.3-1.34-2.65-2.55-4.03-3.62,1.72-5.85,1.82-12.05,1.91-18.11.04-2.61.07-5.3.25-7.96ZM73.3,69.352c7-1.88,13.35-5.35,19.72-10.79,5.33,4.41,11.32,7.22,17.85,8.37-1.46,17.64-10.73,23.96-18.5,23.96h-.11c-11.27-.09-17.97-10.84-18.96-21.54ZM61.39,122.422c-2.06-.15-3.94-1.17-5.43-2.86-.94-1.06-1.73-2.39-2.31-3.94-1-2.58-.62-5.44,1.06-8.04,2-3.08,5.45-5.11,9.02-5.3h.01l.14-.01c.14-.01.28-.01.42-.01,2.89,0,4.99,1.12,6.25,3.34,1.78,3.15,1.46,7.92-.76,11.34-.03.04-.05.09-.08.14-2.02,3.64-5.07,5.58-8.32,5.34ZM106.56,138.922c-5.75.88-10.57,4.31-14.43,10.29-3.87-5.98-8.69-9.41-14.44-10.29-.13-1.22-.27-2.33-.42-3.38-.17-1.29-1.36-2.18-2.64-2.01-1.29.18-2.19,1.36-2.01,2.65.12.86.22,1.72.32,2.58-1.71.12-3.5.45-5.36.97-.5-3.96-.36-8.08-.21-12.48.02-.48.04-.97.05-1.46.75-.37,1.47-.83,2.16-1.38.42.93.8,1.89,1.12,2.87.32.99,1.24,1.62,2.23,1.62.24,0,.49-.04.74-.12,1.23-.41,1.9-1.74,1.49-2.97-.59-1.77-1.3-3.49-2.16-5.12.28-.4.53-.82.78-1.26,3.13-4.88,3.49-11.51.86-16.15-.39-.7-.84-1.33-1.34-1.91,4.38-.94,8.86-2.83,12.82-6.79,2.02.66,4.08,1,6.1,1.01h.15c1.91,0,3.89-.28,5.86-.9,3.94,3.88,8.38,5.75,12.73,6.68-.5.58-.95,1.21-1.35,1.91-2.63,4.64-2.27,11.27.86,16.15.24.43.5.85.77,1.25-2.75,5.32-3.85,10.82-4.68,18.24ZM116.67,139.732c-1.86-.52-3.65-.85-5.37-.97.69-5.9,1.54-10.27,3.36-14.35.68.54,1.41,1,2.16,1.38.02.49.04.98.05,1.46.16,4.4.3,8.52-.2,12.48ZM130.59,115.642c-1.49,3.99-4.38,6.53-7.73,6.78-3.26.24-6.3-1.7-8.32-5.34-.03-.05-.06-.1-.09-.14-2.22-3.42-2.53-8.19-.75-11.34,1.26-2.22,3.36-3.34,6.22-3.34.14,0,.27,0,.41.01l.18.01c3.57.19,7.03,2.22,9.03,5.3,1.68,2.6,2.06,5.46,1.05,8.06Z"/>
          <g>
            <path class="cls-2" d="M93.33,155.952c-.04.03-.08.06-.13.08-.05.03-.11.05-.16.07.1-.04.2-.09.29-.15Z"/>
            <path class="cls-2" d="M94.33,154.782c-.07.18-.16.35-.29.51.06-.09.12-.19.17-.29.04-.07.07-.15.12-.22Z"/>
          </g>
          <path class="cls-2" d="M94.3,118.052c-.16.38-.44.71-.8.96-.41.29-.88.42-1.34.42.72-.02,1.41-.37,1.86-1,.09-.13.18-.26.28-.38Z"/>
        </g>
        <g>
          <g>
            <path class="cls-2" d="M90.42,155.552c-.23-.21-.4-.49-.51-.79.05.08.09.16.13.24.1.21.23.39.38.55Z"/>
            <path class="cls-2" d="M91.21,156.102c-.05-.02-.11-.04-.16-.07-.05-.02-.09-.05-.13-.08.09.06.19.11.29.15Z"/>
            <path class="cls-2" d="M91.76,156.262c-.18-.02-.37-.07-.55-.16.17.07.36.13.55.16Z"/>
          </g>
          <g>
            <path class="cls-2" d="M104.07,111.362c-3.94.89-7.15,3.08-9.77,6.69-.1.12-.19.25-.28.38-.45.63-1.14.98-1.86,1h-.07c-.72-.02-1.41-.37-1.86-1-.09-.13-.18-.26-.28-.38-2.62-3.61-5.83-5.8-9.77-6.69-1.27-.29-2.06-1.54-1.78-2.81.29-1.27,1.54-2.06,2.81-1.78,4.24.95,7.9,3.14,10.91,6.5,3.01-3.36,6.67-5.55,10.92-6.5,1.27-.29,2.52.51,2.81,1.78.28,1.27-.51,2.52-1.78,2.81Z"/>
            <path class="cls-2" d="M92.09,119.432c-.46,0-.93-.13-1.34-.42-.36-.25-.64-.58-.8-.96.1.12.19.25.28.38.45.63,1.14.98,1.86,1Z"/>
          </g>
        </g>
        <path class="cls-2" d="M155.932,89.075c-3.231,0-5.952-2.528-6.146-5.796-.202-3.392,2.394-6.315,5.785-6.517,3.39-.2,6.315,2.393,6.517,5.785.202,3.392-2.394,6.315-5.785,6.517-.124.008-.247.011-.37.011ZM155.938,81.451c-.029,0-.059,0-.088.003-.805.048-1.421.741-1.373,1.546.023.39.197.748.489,1.007s.666.393,1.057.366c.39-.023.748-.197,1.007-.489s.39-.667.366-1.057c-.046-.775-.691-1.376-1.458-1.376Z"/>
        <circle class="cls-2" cx="41.477" cy="52.213" r="3.532" transform="translate(-16.824 19.847) rotate(-22.5)"/>
        <circle class="cls-2" cx="28.398" cy="111.669" r="3.532" transform="translate(-40.572 19.368) rotate(-22.5)"/>
        <path class="cls-2" d="M41.478,98.543c-1.646-.035-2.896-1.294-2.896-2.867,0-4.35-2.74-7.889-6.107-7.889-1.575,0-2.874-1.269-2.896-2.829,0-1.616,1.299-2.905,2.896-2.905,3.366,0,6.105-3.536,6.107-7.883.021-1.591,1.268-2.838,2.839-2.868h.002c.832,0,1.564.303,2.11.851.544.549.842,1.283.837,2.069.015,4.309,2.755,7.831,6.108,7.831,1.597,0,2.895,1.287,2.895,2.869-.021,1.595-1.319,2.865-2.895,2.865-3.368,0-6.108,3.539-6.108,7.889,0,1.581-1.298,2.867-2.893,2.867ZM38.087,84.921c1.354.962,2.513,2.261,3.391,3.796.878-1.536,2.038-2.837,3.394-3.799-1.353-.961-2.512-2.26-3.391-3.793-.878,1.534-2.038,2.833-3.394,3.796ZM50.479,86.752h.01-.01ZM39.672,74.216v.032-.032Z"/>
        <path class="cls-2" d="M140.504,61.702c-1.496-.036-2.622-1.182-2.622-2.608,0-1.632-.99-2.77-1.879-2.77-1.427,0-2.603-1.154-2.622-2.573,0-1.473,1.176-2.644,2.622-2.644.888,0,1.878-1.137,1.879-2.768.019-1.448,1.148-2.581,2.571-2.608h.002c.754,0,1.416.274,1.91.772.495.497.766,1.161.761,1.869.006,1.603.994,2.734,1.879,2.734,1.446,0,2.622,1.17,2.622,2.609-.019,1.452-1.195,2.607-2.622,2.607-.889,0-1.879,1.138-1.879,2.77,0,1.438-1.176,2.608-2.622,2.608ZM145.005,55.806h.01-.01ZM138.427,48.367v.043-.043Z"/>
      </g>
    </g>
  </g>
</svg>