<?xml version="1.0" encoding="UTF-8"?>
<svg xmlns="http://www.w3.org/2000/svg" version="1.1" viewBox="0 0 186.312 186.312">
  <defs>
    <style>
      .cls-1 {
        fill: #deb5e8;
      }

      .cls-2 {
        fill: #63567f;
      }
    </style>
  </defs>
  <!-- Generator: Adobe Illustrator 28.7.4, SVG Export Plug-In . SVG Version: 1.2.0 Build 166)  -->
  <g>
    <g id="unicorn">
      <g>
        <circle class="cls-1" cx="93.156" cy="93.156" r="83.732"/>
        <path class="cls-2" d="M93.156,186.312C41.79,186.312,0,144.521,0,93.155S41.79,0,93.156,0s93.156,41.789,93.156,93.155-41.79,93.156-93.156,93.156ZM93.156,4C43.995,4,4,43.995,4,93.155s39.995,89.156,89.156,89.156,89.156-39.995,89.156-89.156S142.317,4,93.156,4Z"/>
        <path class="cls-2" d="M63.759,76c-.138.741-.639,1.73-2.24,2.236-8.174,2.226-15.138,7.004-19.7,13.479-.993,1.412-1.204,2.074-1.242,2.345.672.436,2.604.762,3.67.941.703.119,1.367.231,1.949.375.34.088.716.151,1.095.218,1.661.295,3.545.628,4.092,2.427.146.481.356,1.726-.852,2.887-.072.069-.148.134-.228.193-6.728,4.992-11.406,12.83-12.211,20.457-.109.742.03,1.294.209,1.486.064.069.219.098.43.078.082-.002.163-.008.242-.006.435.016,1.552-.262,2.369-.462,2.236-.546,4.168-1.018,5.621-.005.261.182.482.416.65.686,1.227,1.972-.253,3.876-.885,4.689-.126.162-.254.312-.335.452-.043.087-.078.146-.132.228-1.708,2.585-3.085,4.972-4.209,7.295-.386.799-1.166,1.28-1.994,1.323-.442.023-.896-.078-1.314-.322-1.088-.635-1.406-2.057-.854-3.19,1.002-2.054,2.179-4.146,3.578-6.352-.892.206-1.737.371-2.494.359-.012.002-.022.002-.033.003-1.609.085-3.052-.47-4.078-1.571-1.197-1.286-1.732-3.26-1.432-5.282.801-7.611,4.951-15.448,11.079-21.147-.311-.059-.671-.119-1.044-.183-2.134-.36-4.553-.768-6.099-2.126-2.198-1.933-1.994-4.793.608-8.499,4.569-6.484,11.225-11.464,18.98-14.261-.626-.467-1.255-.927-1.876-1.379-.852-.622-1.7-1.242-2.522-1.867-1.398-1.155-2.128-2.497-2.188-3.941-.109-1.789.808-3.572,2.65-5.111,1.792-1.445,3.724-2.708,5.767-3.787,1.464-.773,3.239.225,3.326,1.878l.01.186c.047.894-.448,1.714-1.239,2.135-1.731.923-3.367,1.999-4.883,3.22-.721.603-.947,1.099-.939,1.24.012.066.116.251.415.499.722.546,1.545,1.147,2.373,1.75,1.43,1.044,2.907,2.123,4.307,3.269.651.518,1.907,1.519,1.603,3.157ZM57.665,144.757c1.293-.11,2.252-1.248,2.142-2.541-.606-7.109-.506-13.972.298-20.4.161-1.288-.752-2.462-2.041-2.623-1.281-.153-2.462.752-2.623,2.041-.844,6.753-.951,13.946-.317,21.381.108,1.268,1.203,2.213,2.464,2.147.025-.001.052-.003.077-.005ZM62.578,109.699c2.996-10.399,8.488-20.392,15.883-28.897.851-.98.748-2.464-.232-3.316-.98-.851-2.462-.749-3.316.232-7.841,9.018-13.668,19.627-16.852,30.679-.36,1.247.36,2.55,1.607,2.909.259.074.52.103.774.089.972-.051,1.85-.708,2.135-1.696ZM103.56,103.541h0ZM145.86,113.755c-3.8,4.99-12.4,6.61-20.23.69-1.29-.97-2.47-2.01-3.62-3.01-3.31-2.9-6.17-5.41-10.54-5.51-1.9-.04-3.67-.12-5.32-.26,2.17,8.44,4.89,17.77,9.31,26.96.75,1.57-.38,3.38-2.11,3.38-.9,0-1.74-.52-2.13-1.33-4.91-10.25-7.78-20.54-10.09-29.7-7.63-1.59-11.89-5.57-14.17-15.35-.32-1.35.59-2.69,2-2.87,1.21-.15,2.32.73,2.6,1.91,2.48,10.57,6.75,12.26,20.02,12.56,6.07.14,9.86,3.46,13.53,6.67,1.08.95,2.2,1.93,3.36,2.8,3.53,2.68,10.32,4.59,13.65.21,3.32-4.36,1.69-9.43-.27-12.91-1.36-2.42-3.1-4.7-4.77-6.8-.46-.58-.93-1.15-1.39-1.72-.4-.49-.79-.98-1.19-1.47-1.1-1.38-1.26-2.54-1.42-3.66l-.06-.41c-1.45-9.73-7.99-15.65-13.22-18.91-3.5-2.18-7.61-4.05-12.57-5.73-.53-.18-.98-.54-1.27-1.01l-8.65-14.28c-.36-.6-.84-.63-1.12-.61-.22.02-.75.15-1,.87l-4.78,14.07c-.25.73-.81,1.34-1.55,1.58-.42.14-.81.14-1.18.07-.57-.09-3.91-.49-6.49-.79-1.14-.13-2.02-1.06-2.08-2.21-.07-1.45,1.16-2.62,2.61-2.46.61.07,1.29.15,2.06.24,1.13.14,2.04.24,2.77.33l4.2-12.34c.76-2.24,2.65-3.79,4.93-4.04,2.26-.25,4.44.85,5.65,2.85l6.82,11.25,25.21-17.91c2.29-1.62,5.18-1.39,7.2.59,2.13,2.09,2.45,5.27.77,7.74l-14.41,21.16c5.97,5.06,9.65,11.49,10.75,18.85l.06.45c.13.88.15,1.01.44,1.37.39.48.78.97,1.17,1.45.47.58.94,1.16,1.41,1.75,1.8,2.25,3.67,4.71,5.19,7.42,3.75,6.66,3.72,13.08-.08,18.07ZM122.29,61.035c.29.18.57.36.86.54l14.29-20.99c.61-.89-.03-1.6-.17-1.73-.56-.56-1.02-.24-1.19-.11l-24.24,17.22c3.96,1.5,7.4,3.18,10.45,5.07ZM124.488,80.908c.983-.848,1.092-2.332.244-3.314-3.636-4.214-9.591-4.867-13.248-3.058-1.164.575-1.641,1.983-1.066,3.147.574,1.164,1.982,1.642,3.147,1.066,1.704-.84,5.398-.647,7.608,1.916.494.573,1.203.849,1.905.812.502-.026,1-.214,1.41-.568ZM59.92,43.65c.976-.976.976-2.559,0-3.536l-5.556-5.556c-.976-.976-2.559-.976-3.536,0s-.976,2.559,0,3.536l5.556,5.556c.976.976,2.559.976,3.536,0ZM72.883,56.613c.976-.976.976-2.559,0-3.536l-5.556-5.556c-.976-.976-2.559-.976-3.536,0s-.976,2.559,0,3.536l5.556,5.556c.976.976,2.559.976,3.536,0ZM54.363,56.613l5.556-5.556c.976-.976.976-2.559,0-3.536s-2.559-.976-3.536,0l-5.556,5.556c-.976.976-.976,2.559,0,3.536s2.559.976,3.536,0ZM67.327,43.649l5.555-5.555c.976-.976.976-2.559,0-3.536s-2.559-.976-3.536,0l-5.555,5.555c-.976.976-.976,2.559,0,3.536s2.559.976,3.536,0ZM134.245,138.641l2.403-2.403c.976-.976.976-2.559,0-3.536s-2.559-.976-3.536,0l-2.403,2.403c-.976.976-.976,2.559,0,3.536s2.559.976,3.536,0ZM125.536,147.35l2.403-2.403c.976-.976.976-2.559,0-3.536s-2.559-.976-3.536,0l-2.403,2.403c-.976.976-.976,2.559,0,3.536s2.559.976,3.536,0ZM127.939,138.641c.976-.976.976-2.559,0-3.536l-2.403-2.403c-.976-.976-2.559-.976-3.536,0s-.976,2.559,0,3.536l2.403,2.403c.976.976,2.559.976,3.536,0ZM136.648,147.35c.976-.976.976-2.559,0-3.536l-2.403-2.403c-.976-.976-2.559-.976-3.536,0s-.976,2.559,0,3.536l2.403,2.403c.976.976,2.559.976,3.536,0ZM156.46,75.345l2.38-2.37c.97-.98.97-2.56,0-3.54-.98-.98-2.56-.98-3.54,0l-2.37,2.37-2.38-2.37c-.97-.98-2.56-.98-3.53,0-.98.98-.98,2.56,0,3.54l2.37,2.37-2.37,2.37c-.98.98-.98,2.56,0,3.54.97.98,2.56.98,3.53,0l2.38-2.37,2.37,2.37c.98.98,2.56.98,3.54,0,.97-.98.97-2.56,0-3.54l-2.38-2.37ZM35.83,74.582c0-1.947-1.584-3.532-3.532-3.532s-3.532,1.584-3.532,3.532,1.584,3.532,3.532,3.532,3.532-1.584,3.532-3.532Z"/>
      </g>
    </g>
  </g>
</svg>