<?xml version="1.0" encoding="utf-8"?>
<!-- Generator: Adobe Illustrator 27.0.0, SVG Export Plug-In . SVG Version: 6.00 Build 0)  -->
<svg version="1.1" id="Layer_1" xmlns="http://www.w3.org/2000/svg" xmlns:xlink="http://www.w3.org/1999/xlink" x="0px" y="0px"
	 viewBox="0 0 380 380" style="enable-background:new 0 0 380 380;" xml:space="preserve">
<style type="text/css">
	.st0{fill:none;}
	.st1{fill:#BC8EBE;}
	.st2{fill:#8ECCDA;}
	.st3{fill:#B0D07E;}
</style>
<g>
	<path class="st0" d="M238.247,318.446c1.282-0.05,2.289-0.733,2.872-1.818c0.412-0.767,0.873-0.887,1.656-0.823
		c4.679,0.384,9.355,0.255,14.002-0.397c14.277-2.003,27.826-6.313,40.566-13.067c14.806-7.849,28.168-17.614,39.051-30.462
		c3.007-3.55,5.652-7.295,7.875-11.253c0.301-2.873,0.459-5.789,0.459-8.742c0-3.058-0.171-6.075-0.493-9.047
		c-1.096,5.283-3.305,10.305-6.067,15.188c-5.72,10.113-13.941,17.953-22.974,25.035c-14.918,11.696-31.449,20.076-50.023,24.213
		c-6.997,1.558-14.054,2.654-21.263,2.092c-5.813-0.453-11.311-1.993-16.359-4.954c-3.647-2.139-6.51-5.076-8.596-8.767
		c-0.368-0.651-0.787-1.285-1.266-1.858c-0.905-1.083-2.048-1.401-3.293-0.64c-1.222,0.746-1.536,1.843-1.005,3.2
		c2.273,5.815,5.932,10.549,11.008,14.187c0.456,0.327,0.919,0.643,1.769,1.237c-4.73-0.188-8.898-0.785-13.01-1.763
		c-6.115-1.454-11.868-3.741-16.889-7.617c-0.071-0.055-0.135-0.112-0.205-0.167c3.789,4.946,8.12,9.454,12.909,13.431
		C218.519,318.381,228.346,318.832,238.247,318.446z"/>
	<path class="st0" d="M201.431,207.138c0.4,0.269,0.781,0.587,1.216,0.781c1.584,0.707,2.306,1.689,1.51,3.482
		c-0.36,0.812-0.375,1.774-0.571,2.663c-0.114,0.517-0.094,1.015,0.418,1.257c0.496,0.235,0.951-0.009,1.273-0.422
		c0.758-0.973,1.535-1.934,2.23-2.95c0.39-0.571,0.744-0.752,1.457-0.562c1.342,0.359,2.724,0.567,3.842,0.789
		c0.828-0.057,1.516,0.165,1.733-0.637c0.202-0.746-0.389-1.024-0.886-1.346c-0.99-0.642-1.959-1.315-2.964-1.932
		c-0.576-0.354-0.752-0.691-0.546-1.418c0.466-1.646,0.771-3.339,1.136-5.014c0.105-0.484,0.19-1.01-0.373-1.254
		c-0.609-0.264-0.991,0.097-1.31,0.601c-0.802,1.267-1.654,2.504-2.44,3.781c-0.301,0.489-0.452,0.659-1.188,0.562
		c-1.261-0.166-2.513-0.395-3.773-0.554c-0.643-0.081-1.465-0.006-1.7,0.864C200.289,206.594,200.956,206.819,201.431,207.138z"/>
	<path class="st0" d="M193.294,261.139c3.2-5.338,7.082-10.116,11.633-14.368c1.923-1.796,3.865-3.595,5.396-5.762
		c0.905-1.281,0.813-2.537-0.19-3.482c-1.055-0.995-2.557-1.157-3.681-0.23c-4.064,3.348-8.301,6.486-12.039,10.231
		c-5.171,5.18-9.51,10.941-12.769,17.504c-0.181,0.364-0.24,0.838-0.879,1.078c0.668-3.092,1.8-5.895,3.14-8.619
		c5.163-10.496,12.545-19.233,21.446-26.714c14.279-12.001,30.151-21.078,48.303-25.855c7.355-1.936,14.806-3.21,22.461-2.826
		c8.906,0.446,16.992,2.979,23.66,9.191c1.206,1.124,2.646,1.083,3.746,0c1.161-1.143,1.151-2.78,0.022-4.05
		c-2.895-3.257-6.003-6.263-9.86-8.477c3.94-0.265,7.807,0.104,11.631,0.83c5.863,1.113,11.602,2.782,16.051,6.962
		c8.574,8.055,10.806,18.075,7.881,29.207c-2.883,10.971-9.879,19.117-18.776,25.825c-12.189,9.191-26.031,14.619-40.761,18.051
		c-10.593,2.468-21.302,3.569-32.176,2.605c-5.934-0.526-11.701-1.611-16.887-4.797c-5.416-3.327-7.351-8.013-5.71-14.172
		c1.904-7.146,6.279-12.696,11.846-17.264c11.103-9.11,23.95-14.37,38.121-16.422c5.228-0.757,10.487-1.096,15.728,0.007
		c2.06,0.434,4.031,1.122,5.861,2.172c3.621,2.076,4.709,4.919,3.261,8.851c-1.59,4.315-4.42,7.765-8.099,10.421
		c-8.717,6.294-18.302,10.093-29.269,9.559c-1.881-0.091-3.758-0.298-5.51-1.06c-2.553-1.11-3.335-3.086-2.242-5.659
		c0.772-1.818,1.969-3.363,3.505-4.565c6.03-4.72,12.696-7.597,20.563-6.816c1.2,0.119,2.61,0.271,3.044,1.431
		c0.438,1.17-0.283,2.382-1.166,3.322c-3.209,3.417-7.263,5.041-11.835,5.555c-1.871,0.21-2.946,1.162-2.899,2.587
		c0.048,1.462,1.182,2.508,3.03,2.449c6.979-0.225,12.831-2.798,17.048-8.543c4.395-5.987,0.244-11.962-5.595-12.773
		c-11.362-1.577-21.139,2.013-28.905,10.491c-2.877,3.141-4.599,6.992-3.527,11.406c1.281,5.275,5.241,7.966,10.197,8.902
		c6.203,1.171,12.433,0.443,18.538-1.08c9.804-2.444,18.132-7.491,25.122-14.704c3.773-3.893,5.661-8.739,5.732-14.152
		c0.082-6.276-4.741-12.117-11.795-14.566c-5.274-1.831-10.756-2.185-16.239-1.737c-18.643,1.526-34.972,8.723-49.171,20.752
		c-4.503,3.815-7.918,8.594-10.472,13.965c-5.054,10.631-2.511,25.173,12.344,30.652c7.817,2.883,15.844,3.856,24.087,3.371
		c23.117-1.362,44.335-8.812,64.099-20.534c9.684-5.743,17.781-13.373,23.909-22.908c4.036-6.281,6.184-13.073,6.362-20.35
		c-2.18-6.643-5.173-12.918-8.869-18.701c-0.176,0.191-0.354,0.392-0.536,0.613c-5.153-7.923-12.84-11.966-21.714-14.142
		c-9.056-2.221-18.249-1.894-27.443-1.314c-1.471,0.093-2.683,0.918-3.345,2.24c-0.421,0.842-0.944,0.976-1.765,0.918
		c-5.07-0.359-10.098,0.059-15.102,0.875c-12.024,1.959-23.411,5.858-34.173,11.511c-14.929,7.841-28.47,17.534-39.252,30.664
		c-3.584,4.365-6.818,8.926-9.389,13.82c0.097,12.992,3.183,25.271,8.606,36.186c-0.298-1.302-0.514-2.647-0.65-4.035
		C186.131,276.025,188.952,268.381,193.294,261.139z"/>
	<path class="st0" d="M223.38,186.991c2.158,1.076,4.32,2.145,6.465,3.246c0.331,0.17,1.081,0.191,0.507,0.947
		c-0.649,0.854-1.167,1.739,0.131,2.553c0.146,0.092,0.084,0.603,0.034,0.906c-0.238,1.428-0.484,2.856-0.77,4.275
		c-0.16,0.794-0.533,1.68,0.459,2.113c1.106,0.483,1.344-0.57,1.694-1.232c1.219-2.312,2.393-4.649,3.563-6.934
		c1.191,0.524,2.213,2.45,3.4,0.112c0.052-0.103,0.583,0.019,0.887,0.063c1.593,0.229,3.183,0.48,4.778,0.694
		c0.544,0.073,1.115,0.06,1.318-0.616c0.205-0.682-0.287-0.963-0.773-1.217c-1.9-0.993-3.794-1.997-5.709-2.96
		c-0.93-0.467-2.3-0.649-1.075-2.17c0.077-0.096,0.076-0.38-0.005-0.458c-1.229-1.191-0.315-2.522-0.227-3.775
		c0.09-1.28,0.39-2.543,0.541-3.821c0.071-0.604-0.036-1.254-0.764-1.406c-0.675-0.141-0.888,0.446-1.13,0.931
		c-1.264,2.537-2.534,5.071-3.883,7.769c-0.773-0.609-1.578-1.609-2.382-0.791c-0.749,0.761-1.386,0.519-2.123,0.429
		c-1.491-0.181-2.975-0.419-4.467-0.586c-0.579-0.065-1.251-0.113-1.439,0.672C222.223,186.516,222.851,186.727,223.38,186.991z"/>
	<path class="st0" d="M314.084,310.585c-0.912-0.453-1.813-0.93-2.71-1.413c-0.908-0.489-2.532-0.65-1.079-2.276
		c0.081-0.091,0.087-0.409,0.022-0.449c-1.508-0.926-0.342-2.296-0.584-3.365c0-0.221,0-0.383,0-0.544
		c0.001-0.59,0.089-1.281-0.632-1.491c-0.865-0.253-1.054,0.521-1.337,1.079c-0.558,1.099-1.086,2.214-1.667,3.3
		c-0.161,0.301-0.216,0.928-0.653,0.789c-1.353-0.427-2.665,0.59-4.041-0.03c-0.707-0.319-1.576-0.29-2.374-0.395
		c-0.5-0.066-1.02-0.039-1.19,0.546c-0.164,0.562,0.204,0.89,0.667,1.135c1.422,0.752,2.848,1.496,4.251,2.281
		c0.298,0.167,0.949,0.24,0.799,0.644c-0.531,1.433,0.605,2.833-0.039,4.27c-0.277,0.617-0.227,1.373-0.389,2.05
		c-0.144,0.605-0.06,1.091,0.552,1.32c0.59,0.22,0.899-0.219,1.136-0.65c0.801-1.456,1.573-2.927,2.373-4.383
		c0.147-0.269,0.496-0.732,0.536-0.71c1.416,0.77,2.843-0.697,4.265,0.042c0.408,0.212,0.94,0.209,1.42,0.252
		c0.614,0.055,1.318,0.31,1.603-0.59C315.289,311.127,314.682,310.882,314.084,310.585z"/>
	<path class="st0" d="M324.106,300.413c-1.739-0.785-2.53-1.869-1.754-3.856c0.308-0.789,1.077-2.048-0.1-2.566
		c-1.221-0.537-1.553,0.968-1.935,1.693c-0.725,1.378-1.673,1.815-3.083,1.386c-0.873-0.265-1.823-0.468-2.263,0.484
		c-0.496,1.072,0.648,1.361,1.278,1.684c1.157,0.594,1.559,1.333,1.018,2.553c-0.126,0.284-0.083,0.638-0.162,0.948
		c-0.16,0.626-0.472,1.34,0.303,1.705c0.745,0.351,1.247-0.241,1.541-0.812c0.842-1.634,2.042-2.152,3.762-1.424
		c0.234,0.099,0.531,0.049,1.064,0.087c0.275,0.028,0.879,0.128,1.128-0.505C325.186,301.068,324.635,300.652,324.106,300.413z"/>
	<path class="st1" d="M336.394,271.88c-10.883,12.847-24.245,22.612-39.051,30.462c-12.74,6.754-26.289,11.064-40.566,13.067
		c-4.647,0.652-9.323,0.781-14.002,0.397c-0.783-0.064-1.244,0.056-1.656,0.823c-0.583,1.085-1.589,1.768-2.872,1.818
		c-9.901,0.387-19.728-0.065-29.28-2.79c14.351,11.919,32.789,19.087,52.902,19.087c42.808,0,78.031-32.465,82.399-74.116
		C342.046,264.585,339.401,268.33,336.394,271.88z M315.013,311.998c-0.285,0.9-0.988,0.645-1.603,0.59
		c-0.48-0.043-1.012-0.04-1.42-0.252c-1.422-0.739-2.849,0.728-4.265-0.042c-0.04-0.022-0.389,0.441-0.536,0.71
		c-0.799,1.457-1.572,2.927-2.373,4.383c-0.237,0.432-0.546,0.87-1.136,0.65c-0.612-0.228-0.696-0.715-0.552-1.32
		c0.162-0.677,0.112-1.434,0.389-2.05c0.645-1.437-0.492-2.837,0.039-4.27c0.15-0.405-0.501-0.477-0.799-0.644
		c-1.403-0.785-2.83-1.529-4.251-2.281c-0.463-0.245-0.831-0.572-0.667-1.135c0.17-0.585,0.69-0.611,1.19-0.546
		c0.798,0.105,1.667,0.076,2.374,0.395c1.375,0.621,2.688-0.397,4.041,0.03c0.437,0.138,0.492-0.488,0.653-0.789
		c0.581-1.087,1.108-2.202,1.667-3.3c0.284-0.558,0.472-1.332,1.337-1.079c0.721,0.211,0.633,0.901,0.632,1.491
		c0,0.161,0,0.323,0,0.544c0.242,1.069-0.924,2.439,0.584,3.365c0.065,0.04,0.06,0.358-0.022,0.449
		c-1.453,1.626,0.171,1.787,1.079,2.276c0.897,0.483,1.797,0.96,2.71,1.413C314.682,310.882,315.289,311.127,315.013,311.998z
		 M324.902,301.79c-0.249,0.632-0.853,0.532-1.128,0.505c-0.533-0.038-0.83,0.012-1.064-0.087c-1.72-0.727-2.92-0.21-3.762,1.424
		c-0.294,0.571-0.797,1.163-1.541,0.812c-0.775-0.366-0.463-1.079-0.303-1.705c0.079-0.31,0.036-0.664,0.162-0.948
		c0.541-1.22,0.139-1.959-1.018-2.553c-0.629-0.323-1.774-0.613-1.278-1.684c0.441-0.952,1.391-0.749,2.263-0.484
		c1.41,0.429,2.358-0.009,3.083-1.386c0.382-0.725,0.714-2.23,1.935-1.693c1.177,0.517,0.408,1.777,0.1,2.566
		c-0.776,1.987,0.015,3.072,1.754,3.856C324.635,300.652,325.186,301.068,324.902,301.79z"/>
	<g>
		<path class="st1" d="M259.494,196.95c0.78-0.144,1.555-0.303,2.34-0.431c5.003-0.815,10.032-1.234,15.102-0.875
			c0.821,0.058,1.344-0.077,1.765-0.918c0.661-1.322,1.874-2.147,3.345-2.24c9.194-0.58,18.387-0.907,27.443,1.314
			c8.874,2.176,16.562,6.219,21.714,14.142c0.182-0.221,0.36-0.422,0.536-0.613c-11.941-18.687-31.174-32.262-53.686-36.719
			C273.335,180.405,267.041,189.293,259.494,196.95z"/>
		<path class="st1" d="M220.647,277.444c5.186,3.186,10.953,4.27,16.887,4.797c10.874,0.964,21.583-0.137,32.176-2.605
			c14.73-3.431,28.572-8.86,40.761-18.051c8.897-6.708,15.893-14.855,18.776-25.825c2.925-11.131,0.693-21.151-7.881-29.207
			c-4.449-4.18-10.187-5.848-16.051-6.961c-3.823-0.726-7.691-1.096-11.631-0.83c3.858,2.214,6.965,5.22,9.86,8.477
			c1.129,1.27,1.138,2.906-0.023,4.05c-1.1,1.084-2.54,1.124-3.746,0c-6.668-6.212-14.754-8.745-23.66-9.191
			c-7.655-0.384-15.106,0.89-22.461,2.826c-1.615,0.425-3.206,0.896-4.786,1.388c-9.707,7.362-20.829,12.956-32.886,16.311
			c-1.156,0.805-2.3,1.634-3.436,2.477c1.896,6.726,3.09,13.745,3.5,20.975c1.294-1.513,2.695-2.937,4.233-4.24
			c14.199-12.029,30.528-19.226,49.171-20.752c5.483-0.449,10.965-0.095,16.239,1.737c7.055,2.449,11.878,8.291,11.795,14.566
			c-0.071,5.413-1.96,10.259-5.732,14.152c-6.99,7.213-15.318,12.26-25.122,14.704c-6.106,1.522-12.335,2.251-18.538,1.08
			c-4.956-0.936-8.915-3.627-10.197-8.902c-1.072-4.413,0.65-8.264,3.527-11.406c7.766-8.478,17.542-12.068,28.905-10.491
			c5.839,0.811,9.99,6.786,5.595,12.773c-4.217,5.745-10.069,8.319-17.048,8.543c-1.849,0.06-2.982-0.987-3.03-2.449
			c-0.047-1.425,1.028-2.376,2.9-2.587c4.572-0.514,8.626-2.138,11.835-5.555c0.883-0.94,1.604-2.151,1.166-3.322
			c-0.434-1.16-1.844-1.312-3.044-1.431c-7.867-0.781-14.533,2.097-20.563,6.816c-1.536,1.202-2.733,2.747-3.505,4.565
			c-1.093,2.572-0.311,4.548,2.242,5.659c1.751,0.762,3.629,0.968,5.509,1.06c10.968,0.533,20.552-3.265,29.269-9.559
			c3.679-2.656,6.509-6.106,8.099-10.421c1.449-3.931,0.361-6.774-3.261-8.851c-1.83-1.049-3.801-1.738-5.861-2.172
			c-5.241-1.104-10.5-0.764-15.728-0.007c-14.17,2.051-27.018,7.311-38.121,16.422c-4.845,3.975-8.783,8.696-10.979,14.564
			c-0.27,3.014-0.684,5.986-1.22,8.915C215.204,272.699,217.228,275.343,220.647,277.444z"/>
		<path class="st1" d="M340.608,226.03c-0.178,7.277-2.326,14.069-6.362,20.35c-6.128,9.535-14.225,17.165-23.909,22.908
			c-19.764,11.722-40.981,19.172-64.099,20.534c-8.243,0.486-16.27-0.487-24.087-3.371c-4.355-1.606-7.624-4.005-9.982-6.842
			c-2.707,9.137-6.708,17.712-11.792,25.522c3.964,2.277,8.27,3.807,12.774,4.878c4.112,0.978,8.28,1.574,13.01,1.763
			c-0.85-0.594-1.313-0.91-1.769-1.237c-5.076-3.638-8.735-8.372-11.008-14.187c-0.53-1.357-0.216-2.454,1.006-3.2
			c1.246-0.761,2.388-0.442,3.293,0.64c0.479,0.572,0.898,1.207,1.266,1.858c2.086,3.691,4.949,6.627,8.596,8.766
			c5.048,2.961,10.547,4.5,16.359,4.954c7.209,0.563,14.266-0.534,21.263-2.092c18.575-4.137,35.106-12.517,50.024-24.213
			c9.033-7.082,17.254-14.922,22.974-25.035c2.761-4.882,4.97-9.905,6.067-15.188C343.604,237.034,342.374,231.411,340.608,226.03z"
			/>
	</g>
	<path class="st0" d="M118.486,177.446l-0.139-0.001c-2.401,0-4.083,1.804-4.09,4.388c-0.019,6.795-0.02,13.877-0.001,21.648
		c0.006,2.62,1.661,4.381,4.118,4.381l0.094-0.001c2.425-0.044,3.999-1.758,4.009-4.367c0.009-2.507,0.007-5.016,0.005-7.523v-6.488
		c0.002-2.546,0.004-5.092-0.005-7.638C122.467,179.243,120.901,177.517,118.486,177.446z"/>
	<path class="st0" d="M75.472,202.987l-4.224-4.219c-0.903-0.903-1.934-1.401-2.902-1.401l-0.122,0.003
		c-1.999,0.049-3.348,0.899-3.996,2.522c-0.686,1.715-0.334,3.333,1.018,4.679c2.611,2.598,5.216,5.204,7.82,7.809
		c2.499,2.5,4.999,5,7.505,7.495c0.963,0.958,2.079,1.465,3.229,1.465c1.056,0,2.046-0.43,2.864-1.244
		c1.73-1.721,1.637-4.237-0.226-6.118C82.797,210.299,79.134,206.643,75.472,202.987z"/>
	<path class="st0" d="M189.841,256.605c-0.223,0.04-0.41,0.059-0.57,0.059c-0.435,0-0.721-0.115-1.167-0.764
		c-3.806-5.537-8.562-9.444-14.176-11.659l6.324,0.007c2.187,0,1.612-0.005,3.798-0.026c2.401-0.022,4.162-1.747,4.188-4.102
		c0.012-1.136-0.423-2.24-1.194-3.026c-0.728-0.741-1.703-1.155-2.745-1.163c-4.58-0.036-8.368-0.053-11.921-0.053
		c-3.805,0-7.277,0.02-10.614,0.059c-1.437,0.018-2.672,0.716-3.388,1.915c-0.765,1.283-0.786,2.881-0.056,4.274
		c0.034,0.065,0.071,0.124,0.111,0.179c-3.216,0.248-3.835,0.689-7.109,1.877c-0.012,0.005-0.024,0.009-0.034,0.012
		c0-0.023,0-0.048,0-0.076c0.02-1.899-0.191-3.924-0.661-6.372c-2.853-14.828-15.705-26.593-30.557-27.975
		c-1.169-0.109-2.353-0.164-3.519-0.164c-14.73,0-27.654,8.666-32.924,22.076c-1.784,4.538-2.553,9.23-2.381,14.615
		c-1.253-1.591-2.503-3.033-3.947-4.3c-0.212-0.186-0.235-0.246-0.193-0.489c0.337-1.907,0.135-3.231-0.635-4.167
		c-0.787-0.957-2.106-1.422-4.151-1.461l-0.288-0.003c-0.498,0-0.998,0.023-1.497,0.046c-0.479,0.022-0.958,0.045-1.435,0.045
		c-0.952,0-1.672-0.093-2.336-0.302c-3.274-1.03-6.635-1.552-9.992-1.552c-0.716,0-1.443,0.024-2.163,0.07
		c-7.464,0.485-13.679,2.723-18.627,6.651c-0.466,3.555-0.709,7.18-0.709,10.862c0,0.561,0.01,1.12,0.021,1.679
		c4.338-7.312,11.857-11.546,20.975-11.546c4.668,0,9.073,1.186,12.404,3.339c3.198,2.067,5.518,4.313,7.091,6.865
		c1.798,2.917,4.079,4.276,7.177,4.276c0.781,0,1.602-0.085,2.51-0.259c1.295-0.249,2.568-0.375,3.784-0.375
		c3.965,0,7.492,1.328,10.481,3.947c0.078,0.068,0.157,0.135,0.237,0.202c0.201,0.168,0.391,0.327,0.522,0.493
		c2.404,3.059,5.75,3.567,8.396,3.668c5.687,0.216,9.768,2.695,12.129,7.366c0.822,1.624,1.206,3.514,1.21,5.946
		c0,0.025,0,0.048-0.001,0.069c-0.018-0.006-0.038-0.012-0.059-0.02c-2.644-0.921-5.427-1.388-8.271-1.388
		c-1.875,0-3.822,0.203-5.789,0.603c-0.065,0.013-0.123,0.02-0.177,0.02c-0.131,0-0.176-0.017-0.428-0.417
		c-0.06-0.095-0.12-0.19-0.185-0.282c-4.594-6.53-10.122-10.619-16.9-12.502c-2.966-0.824-6.089-1.242-9.284-1.242
		c-14.206,0-25.518,7.854-30.258,21.009c-0.403,1.118-0.948,1.637-2.083,1.98c-1.955,0.593-3.73,1.448-5.307,2.544
		c1.146,2.374,2.402,4.684,3.761,6.926c1.116-0.808,2.37-1.468,3.742-1.942c3.747-1.296,5.939-3.445,7.331-7.187
		c4.271-11.481,14.621-15.572,22.883-15.572c5.271,0,10.32,1.573,13.85,4.317c2.712,2.106,4.629,4.143,6.033,6.411
		c1.57,2.536,3.689,3.769,6.478,3.769c0.674,0,1.404-0.074,2.168-0.221c1.463-0.281,2.886-0.424,4.229-0.424
		c4.81,0,8.944,1.844,12.287,5.478c1.633,1.775,3.725,2.663,6.397,2.714c6.206,0.118,10.428,2.327,12.906,6.753
		c2.088,3.731,2.219,8.043,0.358,11.83c-1.919,3.905-5.556,6.521-9.979,7.176c-1.316,0.195-2.563,0.29-3.814,0.29h-0.036
		c-6.784-0.009-13.569-0.011-20.353-0.011l-38.556,0.006c-1.583,0-3.166-0.003-4.748-0.004c3.912,2.94,8.095,5.539,12.501,7.758
		c9.322,0.009,18.597,0.014,27.752,0.014c6.842,0,13.685-0.002,20.527-0.007l2.04,0.004c1.754,0,3.795-0.026,5.825-0.342
		c10.325-1.611,17.812-9.979,17.801-19.896c-0.001-0.694,0.09-0.89,0.145-0.945c0.053-0.053,0.244-0.144,0.925-0.144
		c8.676,0.026,17.435,0.035,26.101,0.038c1.853-2.241,3.586-4.584,5.199-7.014l-2.556-0.001c-3.187-0.005-6.375-0.034-9.563-0.064
		c-3.419-0.032-6.955-0.065-10.434-0.065c-3.846,0-7.216,0.041-10.301,0.125c0,0-0.29,0.009-0.375,0.009
		c-0.361,0-0.494-0.021-0.675-0.432c-3.571-8.112-10.136-12.396-19.513-12.733c-1.497-0.054-2.29-0.838-3.209-1.746
		c-0.343-0.339-0.697-0.688-1.097-1.007c0.005-0.018,0.01-0.034,0.014-0.049c0.032-0.104,0.062-0.209,0.08-0.309
		c0.514-2.836,0.559-5.163,0.14-7.324c-0.104-0.543-0.02-0.718,0.454-0.935l0.129-0.059c1.059-0.485,2.059-0.943,3.134-1.249
		c2.747-0.785,4.627-2.59,5.587-5.368c1.689-4.89,4.194-8.648,7.657-11.49c4.301-3.53,9.767-5.474,15.392-5.474
		c7.853,0,15.241,3.734,19.762,9.987l0.044,0.062c0.236,0.326,0.473,0.652,0.689,0.991c1.488,2.335,3.544,3.519,6.112,3.519
		c0.632,0,1.307-0.072,2.007-0.214c1.55-0.315,3.049-0.475,4.457-0.475c1.747,0,3.383,0.236,4.945,0.713
		c0.345-2.345,0.59-4.723,0.734-7.127c-1.768-0.412-3.616-0.625-5.547-0.625C193.55,256.109,191.719,256.276,189.841,256.605z
		 M143.069,245.837c0.067,1.891-0.553,3.248-2.075,4.536c-3.677,3.111-6.434,7.381-8.43,13.052
		c-0.326,0.926-0.756,1.345-1.646,1.602c-0.586,0.169-1.155,0.458-1.705,0.737c-0.653,0.332-1.329,0.675-1.813,0.675
		c-0.069,0-0.131-0.007-0.19-0.021c-0.387-0.094-0.832-0.851-1.226-1.519c-0.307-0.521-0.625-1.06-1.013-1.501
		c-4.098-4.658-9.491-7.034-16.487-7.264c-0.965-0.032-1.54-0.271-2.121-0.882c-4.29-4.515-9.619-6.951-15.836-7.242
		c-0.789-0.037-0.937-0.121-1.024-1.084c-1.295-14.24,9.542-27.479,23.665-28.911c0.992-0.1,1.994-0.152,2.977-0.152
		c13.531,0,24.5,9.435,26.677,22.945c0.138,0.853,0.183,1.715,0.231,2.627c0.018,0.334,0.035,0.667,0.057,1
		c-0.026,0.069-0.041,0.142-0.041,0.217l-0.003,0.359C143.061,245.287,143.059,245.562,143.069,245.837z"/>
	<path class="st0" d="M167.346,197.392c-0.026-0.004-0.103-0.007-0.181-0.007c-0.948,0-1.893,0.422-2.66,1.188l-3.572,3.558
		c-3.976,3.958-8.086,8.051-12.087,12.12c-0.814,0.828-1.256,1.879-1.246,2.961c0.011,1.081,0.463,2.113,1.274,2.906
		c0.815,0.797,1.803,1.219,2.859,1.219c1.102,0,2.205-0.483,3.108-1.36c1.087-1.057,2.156-2.133,3.225-3.208l1.347-1.352
		l3.105-3.107c2.586-2.59,5.173-5.18,7.771-7.758c1.343-1.334,1.685-2.953,0.989-4.684
		C170.626,198.25,169.266,197.393,167.346,197.392z"/>
	<path class="st2" d="M154.995,304.568c-0.055,0.055-0.146,0.251-0.145,0.945c0.011,9.917-7.476,18.285-17.801,19.896
		c-2.03,0.316-4.071,0.342-5.825,0.342l-2.04-0.004c-6.842,0.005-13.685,0.007-20.527,0.007c-9.154,0-18.43-0.005-27.752-0.014
		c11.193,5.638,23.837,8.818,37.225,8.818c25.714,0,48.692-11.714,63.89-30.097c-8.666-0.003-17.425-0.012-26.101-0.038
		C155.239,304.424,155.048,304.515,154.995,304.568z"/>
	<path class="st2" d="M111.709,317.98c6.784,0,13.569,0.002,20.353,0.011h0.036c1.251,0,2.499-0.095,3.814-0.29
		c4.422-0.655,8.06-3.271,9.979-7.176c1.861-3.787,1.73-8.099-0.358-11.83c-2.479-4.426-6.7-6.635-12.906-6.753
		c-2.671-0.051-4.764-0.939-6.397-2.714c-3.343-3.634-7.477-5.478-12.287-5.478c-1.343,0-2.766,0.143-4.229,0.424
		c-0.764,0.147-1.494,0.221-2.168,0.221c-2.789,0-4.908-1.233-6.478-3.769c-1.403-2.267-3.32-4.304-6.033-6.411
		c-3.531-2.743-8.579-4.317-13.85-4.317c-8.262,0-18.612,4.091-22.883,15.572c-1.392,3.742-3.584,5.891-7.331,7.187
		c-1.372,0.474-2.627,1.135-3.742,1.942c5.508,9.084,12.714,17.024,21.176,23.383c1.583,0.001,3.165,0.004,4.748,0.004
		L111.709,317.98z"/>
	<path class="st2" d="M190.696,263.624c-0.7,0.142-1.375,0.214-2.007,0.214c-2.567,0-4.624-1.184-6.112-3.519
		c-0.216-0.338-0.453-0.665-0.689-0.991l-0.044-0.062c-4.522-6.254-11.909-9.987-19.762-9.987c-5.625,0-11.091,1.944-15.392,5.474
		c-3.463,2.842-5.968,6.6-7.657,11.49c-0.959,2.778-2.839,4.584-5.587,5.368c-1.075,0.306-2.075,0.764-3.134,1.249l-0.129,0.059
		c-0.474,0.217-0.559,0.392-0.454,0.935c0.419,2.16,0.374,4.488-0.14,7.324c-0.018,0.1-0.048,0.204-0.08,0.309
		c-0.004,0.015-0.009,0.032-0.014,0.049c0.4,0.319,0.754,0.668,1.097,1.007c0.919,0.909,1.712,1.693,3.209,1.746
		c9.377,0.337,15.942,4.621,19.513,12.733c0.181,0.411,0.315,0.432,0.675,0.432c0.086,0,0.375-0.009,0.375-0.009
		c3.085-0.084,6.455-0.125,10.301-0.125c3.479,0,7.014,0.033,10.434,0.065c3.188,0.03,6.377,0.059,9.563,0.064l2.556,0.001
		c6.573-9.907,11.073-21.308,12.879-33.586c-1.561-0.477-3.198-0.713-4.945-0.713C193.746,263.149,192.246,263.309,190.696,263.624z
		"/>
	<path class="st2" d="M50.858,283.149c4.74-13.155,16.052-21.009,30.258-21.009c3.194,0,6.318,0.418,9.284,1.242
		c6.778,1.883,12.305,5.973,16.9,12.502c0.065,0.092,0.125,0.187,0.185,0.282c0.252,0.4,0.297,0.417,0.428,0.417
		c0.054,0,0.113-0.007,0.177-0.02c1.966-0.4,3.914-0.603,5.789-0.603c2.843,0,5.626,0.467,8.271,1.388
		c0.022,0.007,0.041,0.013,0.059,0.02c0.001-0.021,0.001-0.044,0.001-0.069c-0.004-2.432-0.388-4.321-1.21-5.946
		c-2.361-4.671-6.443-7.15-12.129-7.366c-2.646-0.1-5.992-0.609-8.396-3.668c-0.131-0.166-0.321-0.326-0.522-0.493
		c-0.08-0.067-0.16-0.133-0.237-0.202c-2.989-2.619-6.516-3.947-10.481-3.947c-1.216,0-2.489,0.126-3.784,0.375
		c-0.909,0.175-1.73,0.259-2.51,0.259c-3.098,0-5.379-1.359-7.177-4.276c-1.573-2.553-3.893-4.798-7.091-6.865
		c-3.33-2.153-7.735-3.339-12.404-3.339c-9.117,0-16.636,4.234-20.975,11.546c0.244,12.271,3.152,23.888,8.175,34.294
		c1.577-1.096,3.353-1.951,5.307-2.544C49.91,284.786,50.455,284.268,50.858,283.149z"/>
	<path class="st2" d="M143.108,244.437c-0.022-0.333-0.04-0.667-0.057-1c-0.048-0.913-0.093-1.774-0.231-2.627
		c-2.176-13.509-13.146-22.945-26.677-22.945c-0.983,0-1.985,0.051-2.977,0.152c-14.123,1.432-24.959,14.671-23.665,28.911
		c0.087,0.963,0.235,1.047,1.024,1.084c6.217,0.291,11.546,2.727,15.836,7.242c0.582,0.611,1.156,0.851,2.121,0.882
		c6.996,0.23,12.389,2.606,16.487,7.264c0.388,0.441,0.706,0.98,1.013,1.501c0.394,0.667,0.839,1.424,1.226,1.519
		c0.059,0.014,0.121,0.021,0.19,0.021c0.484,0,1.16-0.343,1.813-0.675c0.551-0.279,1.12-0.568,1.705-0.737
		c0.89-0.257,1.32-0.675,1.646-1.602c1.996-5.671,4.753-9.941,8.43-13.052c1.523-1.288,2.143-2.645,2.075-4.536
		c-0.01-0.275-0.008-0.55-0.005-0.825l0.003-0.359C143.067,244.578,143.081,244.505,143.108,244.437z"/>
	<path class="st2" d="M189.642,226.215c-12.221,0-23.912-2.253-34.702-6.336c-0.033,0.032-0.065,0.066-0.099,0.098
		c-0.903,0.878-2.006,1.36-3.108,1.36c-1.056,0-2.044-0.421-2.859-1.219c-0.811-0.793-1.263-1.825-1.274-2.906
		c-0.001-0.146,0.026-0.288,0.041-0.432c-9.286-4.407-17.758-10.237-25.161-17.196c0,1.303,0.002,2.606-0.003,3.909
		c-0.009,2.609-1.583,4.323-4.008,4.367l-0.094,0.001c-2.458,0-4.113-1.761-4.119-4.381c-0.01-4.409-0.014-8.58-0.012-12.619
		c-5.135-6.163-9.535-12.96-13.05-20.265c-34.166,7.1-60.627,35.221-65.213,70.242c4.949-3.928,11.163-6.166,18.627-6.651
		c0.72-0.046,1.447-0.07,2.163-0.07c3.357,0,6.718,0.522,9.992,1.552c0.664,0.209,1.384,0.302,2.336,0.302
		c0.477,0,0.956-0.023,1.435-0.045c0.5-0.024,0.999-0.047,1.497-0.047l0.288,0.003c2.045,0.04,3.364,0.504,4.151,1.461
		c0.77,0.936,0.972,2.26,0.635,4.167c-0.042,0.243-0.019,0.303,0.193,0.489c1.445,1.267,2.694,2.709,3.947,4.3
		c-0.173-5.385,0.597-10.078,2.381-14.615c5.27-13.411,18.194-22.076,32.924-22.076c1.166,0,2.35,0.055,3.519,0.164
		c14.852,1.382,27.703,13.147,30.557,27.975c0.47,2.448,0.681,4.473,0.661,6.372c0,0.028,0,0.053,0,0.076
		c0.011-0.003,0.022-0.007,0.034-0.012c3.273-1.188,3.893-1.629,7.109-1.877c-0.039-0.055-0.077-0.114-0.11-0.179
		c-0.73-1.393-0.709-2.991,0.056-4.274c0.716-1.199,1.951-1.897,3.388-1.915c3.337-0.04,6.809-0.059,10.614-0.059
		c3.553,0,7.341,0.017,11.921,0.053c1.042,0.008,2.017,0.421,2.745,1.163c0.771,0.786,1.206,1.889,1.194,3.026
		c-0.026,2.355-1.787,4.08-4.188,4.102c-2.187,0.021-1.612,0.026-3.798,0.026l-6.324-0.007c5.614,2.215,10.37,6.122,14.176,11.659
		c0.447,0.649,0.732,0.764,1.167,0.764c0.16,0,0.346-0.019,0.57-0.059c1.878-0.329,3.709-0.495,5.444-0.495
		c1.931,0,3.779,0.213,5.547,0.625c0.1-1.666,0.157-3.343,0.157-5.034c0-9.004-1.455-17.663-4.111-25.78
		C194.486,226.095,192.078,226.215,189.642,226.215z M86.665,220.096c-0.818,0.813-1.808,1.244-2.864,1.244
		c-1.15,0-2.267-0.506-3.229-1.465c-2.505-2.495-5.006-4.995-7.505-7.495c-2.604-2.605-5.21-5.21-7.82-7.809
		c-1.352-1.345-1.704-2.963-1.018-4.678c0.648-1.624,1.997-2.473,3.996-2.522l0.122-0.003c0.968,0,1.999,0.497,2.902,1.401
		l4.224,4.219c3.663,3.656,7.326,7.312,10.967,10.99C88.301,215.858,88.395,218.375,86.665,220.096z"/>
	<path class="st3" d="M189.642,210.973c23.201,0,44.171-9.54,59.212-24.906c-39.478-0.001-78.957-0.005-118.435-0.011
		C145.461,201.429,166.435,210.973,189.642,210.973z"/>
	<path class="st3" d="M179.916,113.154c-1.404,4.409-2.694,8.403-3.944,12.408c-0.555,1.777-1.291,3.321-3.403,3.634
		c-2.074,0.307-3.305-0.851-4.398-2.377c-2.961-4.133-5.982-8.225-8.923-12.372c-0.826-1.165-1.291-1.157-1.976,0.116
		c-2.143,3.987-4.329,7.952-6.567,11.886c-2.18,3.83-5.246,3.894-7.623,0.189c-2.578-4.019-5.106-8.07-7.687-12.087
		c-0.338-0.526-0.504-1.27-1.321-1.427c-7.727,13.571-15.455,27.143-23.203,40.749c2.869,8.779,7.162,16.914,12.611,24.128
		c32.33,0,64.588,0,97.003,0C206.941,156.352,193.531,134.916,179.916,113.154z"/>
	<path class="st3" d="M255.455,132.988c-1.249,3.832-2.435,7.685-3.71,11.509c-1.141,3.419-4.169,4.087-6.665,1.5
		c-0.55-0.57-1.005-1.234-1.474-1.877c-2.383-3.266-4.755-6.54-7.134-9.81c-2.214-3.043-2.199-3.033-4.022,0.237
		c-2.025,3.632-3.995,7.298-6.154,10.849c-1.704,2.803-4.353,2.894-6.486,0.397c-0.474-0.555-0.875-1.179-1.264-1.799
		c-1.853-2.955-3.687-5.922-5.536-8.88c-0.623-0.997-1.27-1.978-1.964-3.055c-1.371,1.576-2.009,3.328-3.007,4.856
		c-0.436,0.668-0.754,1.49-1.475,1.838c-1.222,0.589-0.903,1.218-0.352,2.099c7.402,11.826,14.794,23.659,22.14,35.519
		c0.894,1.444,2.033,1.87,3.66,1.866c7.877-0.018,15.754-0.023,23.631-0.026c6.101-8.026,10.773-17.197,13.634-27.136
		c-4.305-6.661-8.61-13.322-12.921-19.993C255.684,131.66,255.656,132.372,255.455,132.988z"/>
	<path class="st3" d="M150.572,111.064c1.296-2.289,2.491-4.646,3.947-6.83c1.675-2.513,4.083-2.652,6.179-0.504
		c0.764,0.783,1.398,1.7,2.046,2.589c2.593,3.55,5.169,7.112,7.855,10.814c1.193-3.713,2.27-7.213,3.453-10.677
		c0.463-1.357,0.21-2.457-0.531-3.621c-3.122-4.904-6.196-9.839-9.284-14.765c-2.726-4.349-5.448-8.7-8.307-13.267
		c-1.525,2.669-2.885,5.062-4.257,7.449c-3.748,6.522-7.502,13.04-11.25,19.562c-0.933,1.624-1.851,3.342-0.74,5.163
		c2.22,3.64,4.58,7.194,7.015,10.992C148.07,115.522,149.312,113.288,150.572,111.064z"/>
	<path class="st3" d="M222.845,136.017c0.375-0.627,0.692-1.13,0.983-1.649c2.185-3.889,4.339-7.796,6.553-11.668
		c1.66-2.903,4.646-3.097,6.7-0.449c1.313,1.692,2.546,3.445,3.82,5.168c1.876,2.536,3.755,5.07,5.797,7.825
		c1.247-3.884,2.341-7.48,3.572-11.029c0.444-1.28,0.327-2.259-0.421-3.401c-5.46-8.336-10.851-16.718-16.285-25.072
		c-0.271-0.416-0.4-1.028-1.116-1.165c-5.542,9.571-11.079,19.138-16.622,28.701c-0.499,0.861-0.279,1.602,0.229,2.382
		c1.267,1.947,2.456,3.945,3.738,5.882C220.758,133.001,221.47,134.643,222.845,136.017z"/>
	<path class="st0" d="M200.988,61.342c-12.193-0.056-22.048,9.565-22.074,21.549c-0.026,12.181,9.58,21.917,21.658,21.952
		c12.127,0.035,21.862-9.616,21.914-21.724C222.536,71.266,212.792,61.396,200.988,61.342z M200.611,98.212
		c-8.45-0.005-15.167-6.749-15.128-15.189c0.038-8.386,6.863-15.139,15.273-15.113c8.431,0.026,15.124,6.79,15.098,15.258
		C215.829,91.645,209.17,98.217,200.611,98.212z"/>
	<path class="st3" d="M189.642,45.257c-45.761,0-82.858,37.097-82.858,82.858c0,5.167,0.477,10.223,1.382,15.128
		c1.98-3.481,3.957-6.965,5.937-10.446c12.491-21.958,24.986-43.914,37.479-65.871c0.181-0.318,0.345-0.647,0.537-0.959
		c1.958-3.178,5.366-3.175,7.352,0.008c5.863,9.398,11.72,18.801,17.587,28.197c7.746,12.406,15.5,24.807,23.252,37.208
		c1.051,1.682,1.097,1.686,2.118-0.087c8.577-14.897,17.148-29.797,25.72-44.697c0.183-0.318,0.35-0.647,0.544-0.959
		c1.976-3.175,5.353-3.262,7.419-0.115c2.99,4.553,5.891,9.165,8.841,13.744c8.877,13.778,17.715,27.582,26.609,41.349
		c0.617-4.078,0.938-8.252,0.938-12.502C272.5,82.354,235.403,45.257,189.642,45.257z M200.571,104.842
		c-12.078-0.035-21.684-9.771-21.658-21.952c0.026-11.984,9.881-21.604,22.074-21.549c11.804,0.054,21.548,9.924,21.497,21.776
		C222.433,95.226,212.698,104.877,200.571,104.842z"/>
	<path class="st3" d="M200.756,67.91c-8.41-0.026-15.235,6.727-15.273,15.113c-0.039,8.44,6.679,15.185,15.128,15.189
		c8.559,0.005,15.217-6.567,15.243-15.045C215.88,74.7,209.187,67.936,200.756,67.91z"/>
</g>
</svg>
