<?xml version="1.0" encoding="utf-8"?>
<!-- Generator: Adobe Illustrator 27.0.0, SVG Export Plug-In . SVG Version: 6.00 Build 0)  -->
<svg version="1.1" id="Layer_1" xmlns="http://www.w3.org/2000/svg" xmlns:xlink="http://www.w3.org/1999/xlink" x="0px" y="0px"
	 viewBox="0 0 380 380" style="enable-background:new 0 0 380 380;" xml:space="preserve">
<style type="text/css">
	.st0{fill:none;}
	.st1{fill:#E88D8D;}
	.st2{fill:#8E9CF2;}
</style>
<g>
	<polygon class="st0" points="221.963,142.771 218.33,135.409 214.696,142.771 206.572,143.951 212.451,149.682 211.063,157.774 
		218.33,153.953 225.596,157.774 224.209,149.682 230.087,143.951 	"/>
	<polygon class="st0" points="265.444,125.493 261.811,118.131 258.177,125.493 250.053,126.673 255.932,132.404 254.544,140.496 
		261.811,136.675 269.077,140.496 267.69,132.404 273.569,126.673 	"/>
	<path class="st0" d="M224.847,240.857c5.952,3.215,12.459,4.651,19.045,5.592c18.377,2.625,36.316,0.396,53.87-5.524
		c1.601-0.54,3.145-1.402,4.56-2.358c3.84-2.594,4.348-4.536,2.467-8.787c-1.894-4.281-1.495-8.399,1.412-11.918
		c2.821-3.414,1.723-7.28,1.741-10.99c0.008-1.798-1.449-0.764-2.279-0.471c-10.831,3.82-21.654,7.664-32.48,11.5
		c-2.279,0.808-4.568,1.587-6.843,2.41c-5.952,2.154-11.261-0.492-16.659-2.372c-10.943-3.811-21.894-7.599-32.786-11.56
		c-2.173-0.79-2.624-0.333-2.546,1.844c0.116,3.206,0.03,6.419,0.03,9.629c-0.001,1.864,0.176,3.749-0.032,5.588
		C213.366,232.135,218.067,237.195,224.847,240.857z"/>
	<polygon class="st0" points="308.925,142.771 305.292,135.409 301.658,142.771 293.534,143.951 299.413,149.682 298.025,157.774 
		305.292,153.953 312.558,157.774 311.171,149.682 317.049,143.951 	"/>
	<path class="st0" d="M325.951,229.072c4.658-4.328,4.449-9.798-0.477-13.731c-0.942-0.753-1.533-1.444-1.49-2.785
		c0.19-5.979-1.448-11.492-4.604-16.453c-1.17-1.839-0.698-2.459,1.04-3.011c3.265-1.037,6.507-2.151,9.76-3.226
		c2.227-0.736,4.258-1.811,4.2-4.582c-0.053-2.553-1.854-3.562-4.052-4.326c-21.046-7.316-42.07-14.699-63.086-22.104
		c-2.78-0.98-5.444-1.037-8.249-0.055c-23.129,8.098-46.27,16.158-69.426,24.175c-2.264,0.784-4.263,1.759-4.206,4.522
		c0.06,2.94,2.276,3.764,4.64,4.467c22.51,6.7,45.024,13.387,67.487,20.251c4.176,1.276,7.693-0.242,11.399-1.505
		c9.828-3.351,19.665-6.675,29.495-10.019c0.343-0.117,0.655-0.33,1.157-0.589c-1.507-1.842-3.606-2.087-5.379-2.842
		c-10.401-4.424-20.847-8.736-31.28-13.079c-1.73-0.72-3.44-1.51-3.41-3.803c0.029-2.181,2.19-3.288,4.832-2.276
		c7.911,3.028,15.78,6.171,23.656,9.294c5.531,2.193,11.066,4.367,16.444,6.956c8.014,3.858,11.425,10.612,11.938,19.336
		c0.077,1.314-0.595,2.073-1.321,2.965c-2.825,3.472-3.044,7.133-0.45,10.784c0.985,1.387,1.145,2.761,1.16,4.336
		c0.061,6.515-1.248,13.008-0.179,19.544c0.085,0.52,0.181,1.036,0.282,1.549c4.094-3.504,7.845-7.397,11.192-11.625
		c-1.079-2.901-1.805-5.893-2.302-8.969C324.496,230.863,324.934,230.018,325.951,229.072z"/>
	<g>
		<path class="st0" d="M86.801,203.091l-8.659-1.258c-0.596-0.086-1.11-0.46-1.377-1l-3.873-7.847c-0.671-1.359-2.608-1.359-3.279,0
			l-3.873,7.847c-0.266,0.54-0.781,0.914-1.377,1l-8.659,1.258c-1.5,0.218-2.098,2.061-1.013,3.118l6.266,6.108
			c0.431,0.42,0.628,1.025,0.526,1.618l-1.479,8.624c-0.256,1.493,1.312,2.632,2.653,1.927l7.745-4.072
			c0.533-0.28,1.169-0.28,1.702,0l7.745,4.072c1.341,0.705,2.909-0.434,2.653-1.927l-1.479-8.624
			c-0.102-0.593,0.095-1.198,0.526-1.618l6.266-6.108C88.899,205.152,88.3,203.309,86.801,203.091z"/>
		<path class="st0" d="M110.834,241.891l-5.956-0.865c-0.41-0.06-0.764-0.317-0.947-0.688l-2.664-5.397
			c-0.461-0.935-1.794-0.935-2.255,0l-2.664,5.397c-0.183,0.371-0.537,0.628-0.947,0.688l-5.956,0.865
			c-1.031,0.15-1.443,1.417-0.697,2.145l4.31,4.201c0.296,0.289,0.432,0.705,0.362,1.113l-1.017,5.932
			c-0.176,1.027,0.902,1.811,1.824,1.326l5.327-2.801c0.366-0.193,0.804-0.193,1.17,0l5.327,2.801
			c0.922,0.485,2.001-0.298,1.824-1.326l-1.017-5.932c-0.07-0.408,0.065-0.824,0.362-1.113l4.31-4.201
			C112.277,243.309,111.865,242.041,110.834,241.891z"/>
		<path class="st0" d="M72.736,154.542c0.574,0.559,0.835,1.365,0.7,2.154l-1.969,11.482c-0.341,1.988,1.746,3.504,3.531,2.566
			l10.311-5.421c0.709-0.373,1.556-0.373,2.265,0l10.311,5.421c1.786,0.939,3.872-0.577,3.532-2.566l-1.969-11.482
			c-0.135-0.79,0.126-1.595,0.7-2.154l8.342-8.131c1.444-1.408,0.647-3.861-1.349-4.151l-11.528-1.675
			c-0.793-0.115-1.478-0.613-1.833-1.331l-5.155-10.446c-0.893-1.809-3.472-1.809-4.365,0l-5.155,10.446
			c-0.355,0.718-1.04,1.216-1.833,1.331l-11.528,1.675c-1.996,0.29-2.794,2.743-1.349,4.151L72.736,154.542z"/>
		<path class="st0" d="M133.136,242.79c0,2.078,1.7,3.778,3.778,3.778h16.91c2.078,0,3.778-1.7,3.778-3.778l0.342-5.566h-24.97
			L133.136,242.79z"/>
		<path class="st0" d="M139.921,132.283l-29.842,51.687c-2.421,4.194,0.605,9.436,5.448,9.436h14.955l1.513,26.442h27.111
			l1.491-26.442h14.614c4.842,0,7.869-5.242,5.448-9.436l-29.842-51.687C148.395,128.089,142.342,128.089,139.921,132.283z"/>
		<polygon class="st0" points="132.742,233.119 158.331,233.119 158.808,223.678 132.211,223.678 		"/>
		<path class="st1" d="M118.189,107.186c-45.914,0-83.135,37.221-83.135,83.135c0,45.914,37.221,83.135,83.135,83.135
			s83.135-37.221,83.135-83.135C201.325,144.407,164.104,107.186,118.189,107.186z M65.743,142.259l11.528-1.675
			c0.793-0.115,1.478-0.613,1.833-1.331l5.155-10.446c0.893-1.809,3.472-1.809,4.365,0l5.155,10.446
			c0.355,0.718,1.04,1.216,1.833,1.331l11.528,1.675c1.996,0.29,2.793,2.743,1.349,4.151l-8.342,8.131
			c-0.574,0.559-0.835,1.365-0.7,2.154l1.969,11.482c0.341,1.988-1.746,3.504-3.532,2.566l-10.311-5.421
			c-0.709-0.373-1.556-0.373-2.265,0l-10.311,5.421c-1.786,0.939-3.872-0.577-3.531-2.566l1.969-11.482
			c0.135-0.79-0.126-1.595-0.7-2.154l-8.342-8.131C62.95,145.003,63.747,142.549,65.743,142.259z M87.814,206.209l-6.266,6.108
			c-0.431,0.42-0.627,1.025-0.526,1.618l1.479,8.624c0.256,1.493-1.312,2.632-2.653,1.927l-7.745-4.072
			c-0.533-0.28-1.169-0.28-1.702,0l-7.745,4.072c-1.341,0.705-2.909-0.434-2.653-1.927l1.479-8.624
			c0.102-0.593-0.095-1.198-0.526-1.618l-6.266-6.108c-1.085-1.058-0.486-2.9,1.013-3.118l8.659-1.258
			c0.596-0.086,1.11-0.46,1.377-1l3.873-7.847c0.671-1.359,2.608-1.359,3.279,0l3.873,7.847c0.266,0.54,0.781,0.914,1.377,1
			l8.659,1.258C88.3,203.309,88.899,205.152,87.814,206.209z M111.531,244.036l-4.31,4.201c-0.296,0.289-0.432,0.705-0.362,1.113
			l1.017,5.932c0.176,1.027-0.902,1.811-1.824,1.326l-5.327-2.801c-0.366-0.193-0.804-0.193-1.17,0l-5.327,2.801
			c-0.923,0.485-2.001-0.298-1.824-1.326l1.017-5.932c0.07-0.408-0.065-0.824-0.362-1.113l-4.31-4.201
			c-0.746-0.727-0.334-1.995,0.697-2.145l5.956-0.865c0.409-0.06,0.764-0.317,0.947-0.688l2.664-5.397
			c0.461-0.935,1.794-0.935,2.255,0l2.664,5.397c0.183,0.371,0.537,0.628,0.947,0.688l5.956,0.865
			C111.865,242.041,112.277,243.309,111.531,244.036z M157.601,242.79c0,2.078-1.7,3.778-3.778,3.778h-16.91
			c-2.078,0-3.778-1.7-3.778-3.778l-0.163-5.566h24.97L157.601,242.79z M158.331,233.119h-25.588l-0.531-9.44h26.597
			L158.331,233.119z M175.21,193.406h-14.614l-1.491,26.442h-27.111l-1.513-26.442h-14.955c-4.842,0-7.869-5.242-5.448-9.436
			l29.842-51.687c2.421-4.194,8.474-4.194,10.895,0l29.842,51.687C183.079,188.163,180.053,193.406,175.21,193.406z"/>
	</g>
	<g>
		<path class="st2" d="M316.34,213.688c-0.513-8.724-3.924-15.478-11.938-19.336c-5.378-2.589-10.913-4.763-16.444-6.956
			c-7.876-3.123-15.745-6.265-23.656-9.294c-2.642-1.011-4.802,0.096-4.831,2.276c-0.031,2.293,1.68,3.083,3.409,3.803
			c10.434,4.343,20.88,8.655,31.28,13.079c1.773,0.754,3.871,0.999,5.379,2.842c-0.503,0.259-0.814,0.472-1.157,0.589
			c-9.83,3.344-19.667,6.668-29.495,10.019c-3.706,1.263-7.223,2.781-11.399,1.505c-13.857-4.234-27.735-8.395-41.618-12.54
			c-0.224,2.167-0.541,4.306-0.903,6.429c0.393-0.159,0.995-0.066,1.929,0.273c10.891,3.961,21.843,7.749,32.785,11.56
			c5.398,1.88,10.707,4.526,16.659,2.372c2.274-0.823,4.563-1.602,6.843-2.41c10.826-3.836,21.649-7.68,32.48-11.5
			c0.83-0.293,2.288-1.327,2.279,0.471c-0.017,3.71,1.081,7.576-1.741,10.99c-2.907,3.519-3.306,7.637-1.412,11.918
			c1.881,4.251,1.373,6.193-2.467,8.787c-1.415,0.956-2.959,1.818-4.56,2.358c-17.554,5.92-35.493,8.149-53.87,5.524
			c-6.585-0.941-13.093-2.377-19.045-5.592c-6.779-3.662-11.481-8.722-10.5-17.418c0.208-1.839,0.03-3.724,0.032-5.588
			c0-2.808,0.046-5.617-0.015-8.423c-2.648,12.824-7.8,24.73-14.921,35.19c15.234,17.28,37.52,28.195,62.368,28.195
			c20.624,0,39.492-7.514,54.022-19.949c-0.102-0.513-0.197-1.029-0.282-1.549c-1.069-6.536,0.24-13.029,0.179-19.544
			c-0.015-1.575-0.175-2.949-1.16-4.336c-2.594-3.651-2.376-7.311,0.45-10.784C315.745,215.76,316.417,215.002,316.34,213.688z"/>
		<path class="st2" d="M261.811,106.543c-24.768,0-46.992,10.843-62.222,28.027c4.797,7.086,8.667,14.844,11.495,23.087l1.368-7.974
			l-5.879-5.731l8.125-1.181l3.634-7.362l3.633,7.362l8.124,1.181l-5.879,5.731l1.388,8.092l-7.267-3.82l-7.216,3.794
			c1.796,5.253,3.175,10.698,4.062,16.31c14.608-5.079,29.219-10.147,43.816-15.258c2.805-0.982,5.469-0.924,8.249,0.055
			c21.016,7.405,42.04,14.789,63.086,22.104c2.199,0.764,3.999,1.773,4.052,4.326c0.058,2.771-1.973,3.846-4.2,4.582
			c-3.253,1.076-6.495,2.189-9.76,3.226c-1.738,0.552-2.21,1.172-1.04,3.011c3.157,4.962,4.795,10.474,4.604,16.453
			c-0.043,1.341,0.548,2.032,1.49,2.785c4.926,3.933,5.135,9.403,0.477,13.731c-1.017,0.945-1.455,1.79-1.228,3.198
			c0.497,3.076,1.223,6.068,2.302,8.969c11.219-14.171,17.92-32.083,17.92-51.561C344.946,143.764,307.725,106.543,261.811,106.543z
			 M269.077,140.496l-7.267-3.82l-7.267,3.82l1.388-8.092l-5.879-5.731l8.125-1.181l3.633-7.362l3.633,7.362l8.125,1.181
			l-5.879,5.731L269.077,140.496z M312.558,157.774l-7.267-3.82l-7.267,3.82l1.388-8.092l-5.879-5.731l8.125-1.181l3.633-7.362
			l3.633,7.362l8.124,1.181l-5.879,5.731L312.558,157.774z"/>
	</g>
</g>
</svg>
