<?xml version="1.0" encoding="utf-8"?>
<!-- Generator: Adobe Illustrator 27.0.0, SVG Export Plug-In . SVG Version: 6.00 Build 0)  -->
<svg version="1.1" id="Layer_1" xmlns="http://www.w3.org/2000/svg" xmlns:xlink="http://www.w3.org/1999/xlink" x="0px" y="0px"
	 viewBox="0 0 380 380" style="enable-background:new 0 0 380 380;" xml:space="preserve">
<style type="text/css">
	.st0{fill:none;}
	.st1{fill:#BC8EBE;}
</style>
<g>
	<g>
		<path class="st0" d="M153.299,244.644c1.939-0.076,3.461-1.108,4.343-2.749c0.623-1.159,1.32-1.342,2.504-1.244
			c7.077,0.581,14.148,0.386,21.176-0.6c21.592-3.029,42.082-9.547,61.349-19.761c22.392-11.871,42.6-26.638,59.058-46.068
			c4.548-5.369,8.548-11.032,11.909-17.018c0.456-4.345,0.694-8.755,0.694-13.221c0-4.624-0.258-9.187-0.746-13.681
			c-1.658,7.989-4.999,15.585-9.175,22.969c-8.65,15.294-21.083,27.15-34.744,37.861c-22.561,17.688-47.561,30.362-75.652,36.618
			c-10.582,2.357-21.253,4.014-32.156,3.164c-8.791-0.686-17.106-3.014-24.741-7.492c-5.516-3.235-9.846-7.676-13-13.258
			c-0.556-0.984-1.191-1.944-1.915-2.809c-1.369-1.637-3.097-2.119-4.981-0.968c-1.848,1.128-2.323,2.787-1.521,4.84
			c3.437,8.794,8.971,15.954,16.647,21.456c0.689,0.494,1.389,0.972,2.675,1.871c-7.153-0.284-13.457-1.187-19.676-2.666
			c-9.247-2.199-17.948-5.658-25.542-11.519c-0.107-0.083-0.205-0.17-0.31-0.253c5.73,7.479,12.28,14.297,19.522,20.312
			C123.464,244.546,138.325,245.229,153.299,244.644z"/>
		<path class="st0" d="M97.622,76.311c0.605,0.407,1.181,0.888,1.839,1.181c2.396,1.069,3.488,2.554,2.284,5.266
			c-0.545,1.228-0.568,2.683-0.863,4.027c-0.172,0.782-0.142,1.536,0.632,1.901c0.75,0.355,1.438-0.014,1.924-0.638
			c1.146-1.471,2.321-2.924,3.373-4.461c0.59-0.863,1.125-1.138,2.204-0.849c2.029,0.542,4.119,0.857,5.811,1.193
			c1.252-0.086,2.293,0.249,2.621-0.963c0.305-1.128-0.589-1.548-1.34-2.035c-1.496-0.971-2.963-1.989-4.483-2.922
			c-0.871-0.535-1.137-1.045-0.826-2.144c0.705-2.49,1.166-5.05,1.718-7.583c0.159-0.732,0.288-1.527-0.564-1.896
			c-0.921-0.399-1.498,0.146-1.981,0.909c-1.214,1.917-2.501,3.787-3.691,5.719c-0.455,0.739-0.683,0.997-1.796,0.85
			c-1.907-0.251-3.8-0.598-5.706-0.837c-0.973-0.122-2.215-0.009-2.571,1.307C95.895,75.489,96.903,75.828,97.622,76.311z"/>
		<path class="st0" d="M85.315,157.977c4.839-8.072,10.71-15.299,17.593-21.728c2.908-2.717,5.845-5.437,8.161-8.713
			c1.369-1.937,1.229-3.836-0.287-5.265c-1.596-1.504-3.866-1.749-5.567-0.348c-6.147,5.064-12.554,9.809-18.207,15.472
			c-7.82,7.834-14.382,16.546-19.31,26.472c-0.274,0.551-0.363,1.267-1.329,1.63c1.01-4.676,2.722-8.915,4.748-13.034
			c7.808-15.873,18.971-29.087,32.433-40.401c21.594-18.149,45.598-31.877,73.049-39.101c11.123-2.927,22.392-4.854,33.969-4.274
			c13.468,0.675,25.697,4.505,35.781,13.9c1.824,1.699,4.002,1.638,5.666-0.001c1.755-1.729,1.741-4.204,0.034-6.124
			c-4.378-4.926-9.078-9.471-14.911-12.82c5.958-0.401,11.807,0.158,17.589,1.256c8.867,1.684,17.546,4.207,24.274,10.528
			c12.966,12.182,16.342,27.336,11.918,44.17c-4.36,16.591-14.94,28.911-28.395,39.056c-18.433,13.899-39.368,22.109-61.644,27.298
			c-16.02,3.732-32.216,5.398-48.66,3.939c-8.974-0.796-17.696-2.436-25.539-7.254c-8.191-5.032-11.117-12.118-8.636-21.432
			c2.879-10.808,9.496-19.2,17.915-26.108c16.791-13.778,36.221-21.733,57.651-24.835c7.906-1.144,15.859-1.658,23.785,0.011
			c3.115,0.656,6.096,1.697,8.864,3.284c5.477,3.14,7.122,7.44,4.931,13.385c-2.405,6.525-6.685,11.743-12.248,15.76
			c-13.184,9.519-27.678,15.263-44.264,14.457c-2.844-0.138-5.684-0.451-8.332-1.603c-3.862-1.679-5.044-4.667-3.391-8.557
			c1.168-2.749,2.978-5.085,5.301-6.904c9.12-7.138,19.201-11.489,31.098-10.309c1.815,0.18,3.948,0.41,4.604,2.164
			c0.662,1.77-0.429,3.602-1.764,5.023c-4.853,5.167-10.984,7.623-17.898,8.4c-2.83,0.318-4.456,1.757-4.385,3.912
			c0.073,2.211,1.787,3.793,4.583,3.703c10.554-0.34,19.404-4.232,25.782-12.92c6.646-9.055,0.369-18.091-8.461-19.317
			c-17.184-2.386-31.969,3.044-43.713,15.865c-4.352,4.751-6.956,10.575-5.334,17.249c1.938,7.978,7.925,12.047,15.42,13.462
			c9.382,1.771,18.802,0.669,28.036-1.633c14.827-3.697,27.422-11.329,37.992-22.238c5.706-5.888,8.562-13.216,8.669-21.403
			c0.125-9.491-7.169-18.325-17.838-22.029c-7.976-2.769-16.267-3.305-24.559-2.626c-28.194,2.308-52.889,13.192-74.362,31.384
			c-6.81,5.769-11.975,12.997-15.837,21.12c-7.644,16.077-3.798,38.069,18.668,46.356c11.822,4.361,23.961,5.832,36.427,5.098
			c34.961-2.059,67.049-13.326,96.938-31.053c14.645-8.686,26.89-20.225,36.157-34.645c6.104-9.499,9.352-19.77,9.622-30.775
			c-3.297-10.047-7.824-19.536-13.413-28.282c-0.267,0.289-0.536,0.593-0.811,0.928c-7.792-11.982-19.419-18.096-32.839-21.387
			c-13.696-3.359-27.599-2.864-41.503-1.987c-2.224,0.14-4.058,1.389-5.058,3.387c-0.637,1.273-1.427,1.477-2.669,1.389
			c-7.667-0.542-15.272,0.09-22.839,1.323c-18.184,2.963-35.404,8.859-51.681,17.408c-22.577,11.858-43.057,26.517-59.362,46.374
			c-5.42,6.601-10.311,13.499-14.199,20.9c0.146,19.648,4.814,38.218,13.016,54.726c-0.451-1.969-0.778-4.004-0.983-6.103
			C74.483,180.49,78.749,168.93,85.315,157.977z"/>
		<path class="st0" d="M130.816,45.843c3.263,1.628,6.533,3.244,9.777,4.909c0.5,0.257,1.635,0.289,0.767,1.432
			c-0.981,1.291-1.766,2.629,0.199,3.861c0.221,0.139,0.127,0.912,0.051,1.37c-0.36,2.16-0.732,4.319-1.164,6.465
			c-0.242,1.2-0.806,2.54,0.695,3.196c1.673,0.731,2.033-0.861,2.561-1.863c1.843-3.497,3.619-7.03,5.388-10.486
			c1.801,0.793,3.347,3.705,5.141,0.169c0.079-0.156,0.881,0.029,1.341,0.095c2.409,0.346,4.813,0.726,7.225,1.049
			c0.823,0.11,1.686,0.09,1.993-0.931c0.31-1.032-0.435-1.457-1.169-1.841c-2.873-1.502-5.738-3.02-8.635-4.476
			c-1.406-0.707-3.478-0.982-1.626-3.282c0.116-0.145,0.114-0.575-0.007-0.692c-1.858-1.801-0.477-3.815-0.343-5.71
			c0.137-1.935,0.59-3.846,0.818-5.778c0.108-0.914-0.055-1.896-1.155-2.126c-1.021-0.213-1.344,0.674-1.709,1.408
			c-1.912,3.836-3.832,7.668-5.872,11.749c-1.17-0.921-2.386-2.433-3.603-1.196c-1.132,1.151-2.096,0.785-3.21,0.649
			c-2.254-0.273-4.499-0.633-6.755-0.886c-0.876-0.098-1.893-0.171-2.176,1.016C129.066,45.124,130.015,45.443,130.816,45.843z"/>
		<path class="st0" d="M267.989,232.757c-1.38-0.685-2.741-1.407-4.098-2.137c-1.374-0.739-3.829-0.984-1.632-3.442
			c0.123-0.138,0.131-0.618,0.033-0.679c-2.281-1.401-0.517-3.472-0.883-5.089c0-0.335,0-0.579,0-0.823
			c0.001-0.893,0.134-1.937-0.956-2.255c-1.308-0.382-1.594,0.788-2.023,1.632c-0.844,1.662-1.642,3.348-2.521,4.991
			c-0.243,0.455-0.327,1.403-0.988,1.194c-2.045-0.646-4.031,0.893-6.111-0.046c-1.069-0.482-2.383-0.438-3.59-0.597
			c-0.756-0.099-1.542-0.06-1.8,0.825c-0.248,0.851,0.309,1.346,1.009,1.716c2.15,1.138,4.307,2.262,6.429,3.45
			c0.451,0.252,1.435,0.363,1.208,0.974c-0.803,2.167,0.916,4.285-0.06,6.457c-0.419,0.932-0.343,2.076-0.588,3.1
			c-0.218,0.915-0.091,1.651,0.835,1.996c0.892,0.333,1.359-0.331,1.718-0.983c1.211-2.201,2.379-4.426,3.588-6.629
			c0.223-0.406,0.75-1.107,0.811-1.074c2.142,1.165,4.3-1.054,6.45,0.064c0.617,0.32,1.422,0.317,2.147,0.381
			c0.929,0.083,1.993,0.469,2.424-0.893C269.812,233.576,268.893,233.205,267.989,232.757z"/>
		<path class="st0" d="M283.145,217.373c-2.63-1.187-3.827-2.827-2.653-5.832c0.466-1.193,1.629-3.098-0.151-3.88
			c-1.847-0.812-2.349,1.464-2.927,2.56c-1.097,2.083-2.53,2.745-4.663,2.096c-1.32-0.401-2.757-0.708-3.423,0.731
			c-0.75,1.621,0.98,2.058,1.932,2.547c1.75,0.898,2.357,2.016,1.539,3.861c-0.19,0.429-0.125,0.964-0.245,1.434
			c-0.241,0.946-0.713,2.026,0.459,2.579c1.126,0.531,1.886-0.365,2.331-1.228c1.274-2.471,3.088-3.254,5.689-2.154
			c0.354,0.15,0.803,0.074,1.609,0.131c0.415,0.042,1.329,0.193,1.705-0.763C284.779,218.363,283.946,217.734,283.145,217.373z"/>
		<path class="st1" d="M137.289,77.659c16.277-8.549,33.498-14.445,51.681-17.408c7.567-1.233,15.172-1.865,22.839-1.323
			c1.242,0.088,2.032-0.116,2.669-1.389c1-1.998,2.834-3.247,5.058-3.387c13.904-0.877,27.807-1.372,41.503,1.987
			c13.42,3.291,25.046,9.406,32.839,21.387c0.275-0.335,0.544-0.639,0.811-0.928c-22.258-34.831-61.264-57.925-105.665-57.925
			c-69.206,0-125.308,56.102-125.308,125.308c0,0.318,0.01,0.633,0.012,0.951c3.888-7.401,8.779-14.299,14.199-20.9
			C94.232,104.176,114.712,89.517,137.289,77.659z M129.348,43.944c0.284-1.186,1.3-1.113,2.176-1.016
			c2.256,0.252,4.501,0.612,6.755,0.886c1.114,0.135,2.078,0.502,3.21-0.649c1.216-1.237,2.433,0.275,3.603,1.196
			c2.04-4.081,3.96-7.913,5.872-11.749c0.366-0.734,0.688-1.621,1.709-1.408c1.1,0.23,1.263,1.212,1.155,2.126
			c-0.227,1.932-0.681,3.843-0.818,5.778c-0.134,1.895-1.515,3.909,0.343,5.71c0.121,0.118,0.124,0.548,0.007,0.692
			c-1.852,2.3,0.22,2.575,1.626,3.282c2.896,1.456,5.762,2.974,8.635,4.476c0.734,0.384,1.479,0.809,1.169,1.841
			c-0.307,1.022-1.17,1.042-1.993,0.931c-2.412-0.323-4.816-0.703-7.225-1.049c-0.459-0.066-1.262-0.251-1.341-0.095
			c-1.794,3.536-3.34,0.623-5.141-0.169c-1.769,3.456-3.545,6.989-5.388,10.486c-0.528,1.002-0.889,2.594-2.561,1.863
			c-1.501-0.656-0.936-1.996-0.695-3.196c0.432-2.146,0.805-4.305,1.164-6.465c0.076-0.458,0.17-1.231-0.051-1.37
			c-1.964-1.231-1.179-2.57-0.199-3.861c0.868-1.143-0.267-1.175-0.767-1.432c-3.244-1.665-6.514-3.281-9.777-4.909
			C130.015,45.443,129.066,45.124,129.348,43.944z M96.207,74.333c0.356-1.316,1.598-1.429,2.571-1.307
			c1.906,0.24,3.799,0.587,5.706,0.837c1.113,0.146,1.341-0.111,1.796-0.85c1.19-1.931,2.477-3.802,3.691-5.719
			c0.483-0.762,1.06-1.308,1.981-0.909c0.852,0.369,0.723,1.164,0.564,1.896c-0.553,2.533-1.013,5.093-1.718,7.583
			c-0.311,1.099-0.045,1.609,0.826,2.144c1.519,0.933,2.986,1.951,4.483,2.922c0.751,0.487,1.645,0.908,1.34,2.035
			c-0.328,1.212-1.369,0.877-2.621,0.963c-1.692-0.335-3.782-0.65-5.811-1.193c-1.079-0.289-1.613-0.014-2.204,0.849
			c-1.051,1.537-2.227,2.991-3.373,4.461c-0.487,0.625-1.175,0.993-1.924,0.638c-0.773-0.366-0.803-1.119-0.632-1.901
			c0.295-1.344,0.318-2.799,0.863-4.027c1.204-2.711,0.111-4.197-2.284-5.266c-0.658-0.294-1.234-0.775-1.839-1.181
			C96.903,75.828,95.895,75.489,96.207,74.333z"/>
		<path class="st1" d="M301.729,174.222c-16.459,19.429-36.666,34.197-59.058,46.068c-19.267,10.214-39.758,16.733-61.349,19.761
			c-7.028,0.986-14.099,1.181-21.176,0.6c-1.185-0.097-1.882,0.085-2.504,1.244c-0.882,1.641-2.404,2.674-4.343,2.749
			c-14.974,0.585-29.835-0.098-44.28-4.219c21.704,18.025,49.588,28.866,80.005,28.866c64.74,0,118.009-49.097,124.614-112.087
			C310.277,163.19,306.277,168.853,301.729,174.222z M269.394,234.894c-0.431,1.361-1.495,0.975-2.424,0.893
			c-0.726-0.065-1.53-0.061-2.147-0.381c-2.15-1.117-4.308,1.101-6.45-0.064c-0.061-0.033-0.588,0.667-0.811,1.074
			c-1.209,2.203-2.377,4.427-3.588,6.629c-0.359,0.653-0.826,1.316-1.718,0.983c-0.926-0.346-1.053-1.081-0.835-1.996
			c0.245-1.025,0.169-2.168,0.588-3.1c0.975-2.173-0.744-4.291,0.06-6.457c0.227-0.612-0.757-0.722-1.208-0.974
			c-2.122-1.188-4.279-2.312-6.429-3.45c-0.7-0.37-1.257-0.866-1.009-1.716c0.258-0.885,1.044-0.924,1.8-0.825
			c1.208,0.159,2.521,0.114,3.59,0.597c2.08,0.939,4.065-0.6,6.111,0.046c0.661,0.209,0.745-0.739,0.988-1.194
			c0.878-1.643,1.676-3.329,2.521-4.991c0.429-0.845,0.714-2.015,2.023-1.632c1.09,0.319,0.957,1.362,0.956,2.255
			c0,0.244,0,0.488,0,0.823c0.366,1.617-1.398,3.688,0.883,5.089c0.098,0.06,0.09,0.541-0.033,0.679
			c-2.197,2.458,0.258,2.703,1.632,3.442c1.357,0.73,2.718,1.452,4.098,2.137C268.893,233.205,269.812,233.576,269.394,234.894z
			 M284.349,219.455c-0.376,0.956-1.29,0.805-1.705,0.763c-0.807-0.057-1.256,0.018-1.609-0.131c-2.601-1.1-4.415-0.317-5.689,2.154
			c-0.445,0.863-1.205,1.759-2.331,1.228c-1.172-0.553-0.7-1.632-0.459-2.579c0.12-0.469,0.055-1.005,0.245-1.434
			c0.819-1.845,0.211-2.962-1.539-3.861c-0.952-0.489-2.683-0.927-1.932-2.547c0.666-1.439,2.103-1.133,3.423-0.731
			c2.133,0.649,3.566-0.013,4.663-2.096c0.578-1.097,1.08-3.372,2.927-2.56c1.78,0.782,0.617,2.687,0.151,3.88
			c-1.174,3.005,0.022,4.645,2.653,5.832C283.946,217.734,284.779,218.363,284.349,219.455z"/>
		<path class="st1" d="M115.349,231.886c6.219,1.479,12.522,2.381,19.676,2.666c-1.285-0.898-1.986-1.377-2.675-1.871
			c-7.676-5.502-13.211-12.662-16.647-21.456c-0.802-2.053-0.327-3.711,1.521-4.84c1.884-1.151,3.612-0.669,4.981,0.968
			c0.724,0.866,1.358,1.825,1.915,2.809c3.154,5.581,7.484,10.023,13,13.258c7.635,4.477,15.95,6.806,24.741,7.492
			c10.903,0.851,21.574-0.807,32.156-3.164c28.091-6.256,53.091-18.93,75.652-36.618c13.661-10.711,26.094-22.567,34.744-37.861
			c4.176-7.384,7.517-14.979,9.175-22.969c-0.953-8.777-2.813-17.282-5.484-25.419c-0.27,11.005-3.517,21.277-9.622,30.775
			c-9.267,14.42-21.513,25.959-36.157,34.645c-29.889,17.727-61.977,28.994-96.938,31.053c-12.466,0.734-24.605-0.737-36.427-5.098
			c-22.466-8.287-26.311-30.279-18.668-46.356c3.862-8.122,9.027-15.35,15.837-21.12c21.473-18.192,46.168-29.077,74.362-31.384
			c8.292-0.679,16.583-0.143,24.559,2.626c10.669,3.704,17.963,12.538,17.838,22.029c-0.107,8.187-2.964,15.514-8.669,21.403
			c-10.57,10.909-23.166,18.541-37.992,22.238c-9.234,2.302-18.654,3.404-28.036,1.633c-7.495-1.415-13.483-5.485-15.42-13.462
			c-1.621-6.674,0.983-12.498,5.334-17.249c11.744-12.821,26.529-18.251,43.713-15.865c8.831,1.226,15.108,10.262,8.461,19.317
			c-6.378,8.689-15.228,12.58-25.782,12.92c-2.796,0.09-4.51-1.492-4.583-3.703c-0.071-2.154,1.555-3.594,4.385-3.912
			c6.914-0.777,13.045-3.233,17.898-8.4c1.335-1.422,2.426-3.254,1.764-5.023c-0.656-1.754-2.789-1.983-4.604-2.164
			c-11.898-1.181-21.979,3.171-31.098,10.309c-2.323,1.818-4.133,4.155-5.301,6.904c-1.653,3.89-0.471,6.878,3.391,8.557
			c2.648,1.152,5.488,1.465,8.332,1.603c16.586,0.807,31.081-4.937,44.264-14.457c5.563-4.017,9.843-9.234,12.248-15.76
			c2.191-5.945,0.545-10.245-4.931-13.385c-2.768-1.587-5.748-2.628-8.864-3.284c-7.926-1.669-15.879-1.156-23.785-0.011
			c-21.43,3.102-40.859,11.057-57.651,24.835c-8.419,6.908-15.036,15.301-17.915,26.108c-2.481,9.314,0.445,16.4,8.636,21.432
			c7.843,4.818,16.565,6.458,25.539,7.254c16.445,1.458,32.64-0.207,48.66-3.939c22.276-5.189,43.211-13.399,61.644-27.298
			c13.454-10.145,24.035-22.465,28.395-39.056c4.424-16.834,1.048-31.988-11.918-44.17c-6.728-6.321-15.407-8.844-24.274-10.528
			c-5.782-1.098-11.631-1.657-17.589-1.256c5.834,3.349,10.534,7.894,14.911,12.82c1.707,1.921,1.721,4.395-0.034,6.124
			c-1.664,1.639-3.842,1.7-5.666,0.001c-10.084-9.394-22.313-13.225-35.781-13.9c-11.577-0.58-22.846,1.347-33.969,4.274
			c-27.451,7.224-51.455,20.952-73.049,39.101c-13.462,11.314-24.625,24.528-32.433,40.401c-2.026,4.12-3.739,8.359-4.748,13.034
			c0.966-0.363,1.056-1.079,1.329-1.63c4.928-9.926,11.49-18.637,19.31-26.472c5.653-5.663,12.06-10.408,18.207-15.472
			c1.701-1.401,3.971-1.156,5.567,0.348c1.516,1.429,1.656,3.329,0.287,5.265c-2.316,3.277-5.253,5.997-8.161,8.713
			c-6.883,6.429-12.754,13.656-17.593,21.728c-6.566,10.952-10.833,22.513-9.555,35.579c0.205,2.099,0.532,4.133,0.983,6.103
			c3.599,7.244,7.878,14.09,12.754,20.455c0.106,0.083,0.203,0.171,0.31,0.253C97.402,226.228,106.102,229.686,115.349,231.886z"/>
	</g>
	<g>
		<g>
			<path class="st1" d="M78.513,342.439c-3.789,0-4.855-2.013-4.855-4.381c0-3.375,1.717-4.559,4.855-4.559h6.868
				c5.743,0,8.525,2.131,8.525,8.525v15.038c0,0.829-0.355,4.263-4.5,4.263c-0.947,0-4.559,0-4.559-4.263v-1.303
				c-3.434,3.315-6.867,5.565-12.965,5.565c-13.203,0-23.208-9.532-23.208-25.576c0-14.742,8.703-25.576,23.859-25.576
				c12.907,0,20.899,9.117,20.899,15.156c0,1.243-0.415,5.032-5.506,5.032c-3.967,0-4.5-1.599-5.151-3.493
				c-1.717-5.092-5.684-6.69-10.42-6.69c-10.302,0-12.019,9.354-12.019,15.749c0,12.669,6.868,15.452,11.486,15.452
				c7.045,0,10.005-6.276,10.005-7.815c0-0.828-0.651-1.125-1.303-1.125H78.513z"/>
			<path class="st1" d="M111.552,357.714c-0.651,1.775-1.776,3.611-4.144,3.611c-2.605,0-6.986-1.776-6.986-4.796
				c0-0.355-0.06-1.243,0.474-2.664l12.965-36.233c1.717-4.736,4.44-7.4,9.828-7.4c3.789,0,7.696,0.947,10.005,7.4l12.966,36.233
				c0.118,0.296,0.533,1.421,0.533,2.428c0,3.848-5.269,5.032-7.164,5.032c-2.19,0-3.375-1.836-4.026-3.611l-2.427-6.809h-19.597
				L111.552,357.714z M117.472,341.255h12.669l-4.914-13.735c-0.592-1.658-1.125-1.717-1.421-1.717c-0.533,0-1.006,0.354-1.48,1.717
				L117.472,341.255z"/>
			<path class="st1" d="M165.015,348.538c0,1.065,0.592,1.717,1.658,1.717h17.228c1.599,0,5.032,0.178,5.032,4.796
				c0,4.559-3.019,4.973-5.032,4.973h-21.728c-5.92,0-8.525-2.368-8.525-8.525v-36.056c0-2.013,0.414-5.21,5.624-5.21
				c4.145,0,5.743,1.717,5.743,5.21V348.538z"/>
			<path class="st1" d="M203.617,357.714c-0.651,1.775-1.775,3.611-4.145,3.611c-2.604,0-6.985-1.776-6.985-4.796
				c0-0.355-0.06-1.243,0.474-2.664l12.966-36.233c1.717-4.736,4.44-7.4,9.827-7.4c3.789,0,7.697,0.947,10.006,7.4l12.966,36.233
				c0.118,0.296,0.532,1.421,0.532,2.428c0,3.848-5.269,5.032-7.163,5.032c-2.19,0-3.375-1.836-4.026-3.611l-2.427-6.809h-19.597
				L203.617,357.714z M209.538,341.255h12.669l-4.913-13.735c-0.593-1.658-1.125-1.717-1.421-1.717c-0.533,0-1.007,0.354-1.48,1.717
				L209.538,341.255z"/>
			<path class="st1" d="M273.54,313.015c1.599-2.072,2.604-2.783,4.795-2.783c3.849,0,5.921,3.553,5.921,5.447
				c0,0.236,0,1.835-1.065,3.197l-12.552,16.222l13.558,17.583c0.711,0.889,1.065,1.954,1.065,2.961
				c0,2.309-2.071,5.684-6.038,5.684c-1.895,0-2.96-0.533-4.678-2.783l-11.012-14.209l-11.012,14.209
				c-1.599,2.072-2.664,2.783-4.796,2.783c-3.848,0-5.92-3.493-5.92-5.506c0-0.355,0-1.776,1.065-3.139l13.558-17.583
				l-12.551-16.222c-0.651-0.829-1.066-1.895-1.066-3.02c0-2.19,2.014-5.625,6.039-5.625c1.836,0,2.96,0.533,4.678,2.783
				l10.005,12.847L273.54,313.015z"/>
			<path class="st1" d="M320.491,313.193c1.717-2.605,3.434-2.961,4.736-2.961c3.611,0,6.099,3.257,6.099,5.447
				c0,1.006-0.475,2.25-1.007,3.078l-15.038,22.38v14.919c0,2.072-0.414,5.27-5.624,5.27c-4.204,0-5.743-1.776-5.743-5.27v-14.919
				l-15.038-22.38c-0.414-0.592-1.065-1.775-1.065-2.96c0-2.25,2.368-5.565,6.217-5.565c1.835,0,3.374,1.007,4.677,2.961
				l10.894,16.399L320.491,313.193z"/>
		</g>
	</g>
</g>
</svg>
