<?xml version="1.0" encoding="UTF-8"?>
<svg xmlns="http://www.w3.org/2000/svg" version="1.1" viewBox="0 0 55 55">
  <defs>
    <style>
      .cls-11 {
        fill: none;
      }

      .cls-21 {
        fill: #bc8ebe;
      }
    </style>
  </defs>
  <!-- Generator: Adobe Illustrator 28.7.4, SVG Export Plug-In . SVG Version: 1.2.0 Build 166)  -->
  <g>
    <g id="Layer_2">
      <polygon class="cls-11" points="19.815 18.454 19.115 17.034 18.414 18.454 16.847 18.682 17.981 19.787 17.713 21.347 19.115 20.611 20.516 21.347 20.248 19.787 21.382 18.682 19.815 18.454"/>
      <polygon class="cls-11" points="28.201 15.122 27.5 13.702 26.799 15.122 25.233 15.35 26.366 16.455 26.099 18.015 27.5 17.278 28.901 18.015 28.634 16.455 29.767 15.35 28.201 15.122"/>
      <path class="cls-11" d="M20.372,37.37c1.148.62,2.403.897,3.673,1.078,3.544.506,7.003.076,10.389-1.065.309-.104.606-.27.879-.455.741-.5.838-.875.476-1.695-.365-.826-.288-1.62.272-2.298.544-.658.332-1.404.336-2.119.002-.347-.28-.147-.44-.091-2.089.737-4.176,1.478-6.264,2.218-.44.156-.881.306-1.32.465-1.148.415-2.172-.095-3.213-.457-2.11-.735-4.222-1.465-6.323-2.229-.419-.152-.506-.064-.491.356.022.618.006,1.238.006,1.857,0,.359.034.723-.006,1.078-.189,1.677.717,2.653,2.025,3.359v-.002Z"/>
      <polygon class="cls-11" points="36.586 18.454 35.885 17.034 35.185 18.454 33.618 18.682 34.752 19.787 34.484 21.347 35.885 20.611 37.287 21.347 37.019 19.787 38.153 18.682 36.586 18.454"/>
      <path class="cls-11" d="M39.869,35.097c.898-.835.858-1.89-.092-2.648-.182-.145-.296-.278-.287-.537.037-1.153-.279-2.216-.888-3.173-.226-.355-.135-.474.201-.581.63-.2,1.255-.415,1.882-.622.429-.142.821-.349.81-.884-.01-.492-.357-.687-.782-.834-4.059-1.411-8.113-2.835-12.166-4.263-.536-.189-1.05-.2-1.591-.011-4.46,1.562-8.923,3.116-13.389,4.662-.437.151-.822.339-.811.872.012.567.439.726.895.861,4.341,1.292,8.683,2.582,13.015,3.905.805.246,1.484-.047,2.198-.29,1.895-.646,3.792-1.287,5.688-1.932.066-.022.126-.064.223-.114-.291-.355-.695-.403-1.037-.548-2.006-.853-4.02-1.685-6.032-2.522-.334-.139-.663-.291-.658-.733.006-.421.422-.634.932-.439,1.526.584,3.043,1.19,4.562,1.792,1.067.423,2.134.842,3.171,1.341,1.546.744,2.203,2.046,2.302,3.729.015.253-.115.4-.255.572-.545.67-.587,1.376-.087,2.08.19.267.221.533.224.836.012,1.256-.241,2.509-.034,3.769.016.1.035.2.054.299.79-.676,1.513-1.427,2.158-2.242-.208-.559-.348-1.136-.444-1.73-.044-.271.041-.434.237-.617v.002Z"/>
      <g>
        <path class="cls-11" d="M22.929,40.379c.248-.01.443-.142.556-.352.08-.148.169-.172.32-.159.905.074,1.81.049,2.709-.077,2.763-.387,5.384-1.221,7.849-2.528,2.865-1.519,5.45-3.408,7.556-5.894.582-.687,1.094-1.412,1.524-2.177.058-.556.089-1.12.089-1.692,0-.592-.033-1.175-.095-1.75-.212,1.022-.64,1.994-1.174,2.939-1.107,1.957-2.697,3.474-4.445,4.844-2.887,2.263-6.085,3.885-9.679,4.685-1.354.302-2.719.514-4.114.405-1.125-.088-2.189-.386-3.165-.959-.706-.414-1.26-.982-1.663-1.696-.071-.126-.152-.249-.245-.359-.175-.209-.396-.271-.637-.124-.236.144-.297.357-.195.619.44,1.125,1.148,2.041,2.13,2.745.088.063.178.124.342.239-.915-.036-1.722-.152-2.517-.341-1.183-.281-2.296-.724-3.268-1.474-.014-.011-.026-.022-.04-.032.733.957,1.571,1.829,2.498,2.599,1.848.527,3.75.615,5.665.54Z"/>
        <path class="cls-11" d="M15.805,18.842c.077.052.151.114.235.151.307.137.446.327.292.674-.07.157-.073.343-.11.515-.022.1-.018.196.081.243.096.045.184-.002.246-.082.147-.188.297-.374.432-.571.076-.11.144-.146.282-.109.26.069.527.11.743.153.16-.011.293.032.335-.123.039-.144-.075-.198-.171-.26-.191-.124-.379-.255-.574-.374-.111-.068-.146-.134-.106-.274.09-.319.149-.646.22-.97.02-.094.037-.195-.072-.243-.118-.051-.192.019-.253.116-.155.245-.32.485-.472.732-.058.095-.087.128-.23.109-.244-.032-.486-.076-.73-.107-.124-.016-.283-.001-.329.167-.04.148.089.191.181.253Z"/>
        <path class="cls-11" d="M14.231,29.291c.619-1.033,1.37-1.957,2.251-2.78.372-.348.748-.696,1.044-1.115.175-.248.157-.491-.037-.674-.204-.192-.495-.224-.712-.045-.786.648-1.606,1.255-2.329,1.98-1.001,1.002-1.84,2.117-2.471,3.387-.035.071-.046.162-.17.209.129-.598.348-1.141.608-1.668.999-2.031,2.427-3.722,4.15-5.169,2.763-2.322,5.834-4.079,9.346-5.003,1.423-.375,2.865-.621,4.346-.547,1.723.086,3.288.576,4.578,1.778.233.217.512.21.725,0,.225-.221.223-.538.004-.784-.56-.63-1.161-1.212-1.908-1.64.762-.051,1.511.02,2.25.161,1.135.215,2.245.538,3.106,1.347,1.659,1.559,2.091,3.498,1.525,5.651-.558,2.123-1.912,3.699-3.633,4.997-2.358,1.778-5.037,2.829-7.887,3.493-2.05.477-4.122.691-6.226.504-1.148-.102-2.264-.312-3.268-.928-1.048-.644-1.422-1.551-1.105-2.742.368-1.383,1.215-2.457,2.292-3.34,2.148-1.763,4.634-2.781,7.376-3.178,1.012-.146,2.029-.212,3.043.001.399.084.78.217,1.134.42.701.402.911.952.631,1.713-.308.835-.855,1.502-1.567,2.016-1.687,1.218-3.541,1.953-5.663,1.85-.364-.018-.727-.058-1.066-.205-.494-.215-.645-.597-.434-1.095.149-.352.381-.651.678-.883,1.167-.913,2.457-1.47,3.979-1.319.232.023.505.052.589.277.085.226-.055.461-.226.643-.621.661-1.405.975-2.29,1.075-.362.041-.57.225-.561.5.009.283.229.485.586.474,1.35-.043,2.483-.541,3.299-1.653.85-1.159.047-2.315-1.083-2.472-2.199-.305-4.09.389-5.593,2.03-.557.608-.89,1.353-.683,2.207.248,1.021,1.014,1.541,1.973,1.722,1.2.227,2.406.086,3.587-.209,1.897-.473,3.509-1.45,4.861-2.845.73-.753,1.095-1.691,1.109-2.738.016-1.214-.917-2.345-2.282-2.819-1.021-.354-2.081-.423-3.142-.336-3.607.295-6.767,1.688-9.514,4.016-.871.738-1.532,1.663-2.026,2.702-.978,2.057-.486,4.871,2.388,5.931,1.513.558,3.066.746,4.661.652,4.473-.263,8.579-1.705,12.403-3.973,1.874-1.111,3.441-2.588,4.626-4.433.781-1.215,1.197-2.53,1.231-3.938-.422-1.285-1.001-2.5-1.716-3.619-.034.037-.069.076-.104.119-.997-1.533-2.485-2.315-4.202-2.736-1.752-.43-3.531-.366-5.31-.254-.285.018-.519.178-.647.433-.082.163-.183.189-.342.178-.981-.069-1.954.012-2.922.169-2.327.379-4.53,1.133-6.612,2.227-2.889,1.517-5.509,3.393-7.595,5.933-.694.845-1.319,1.727-1.817,2.674.019,2.514.616,4.89,1.665,7.002-.058-.252-.099-.512-.126-.781-.163-1.672.382-3.151,1.222-4.552Z"/>
        <path class="cls-11" d="M20.052,14.943c.418.208.836.415,1.251.628.064.033.209.037.098.183-.126.165-.226.336.025.494.028.018.016.117.007.175-.046.276-.094.553-.149.827-.031.154-.103.325.089.409.214.094.26-.11.328-.238.236-.447.463-.899.689-1.342.23.101.428.474.658.022.01-.02.113.004.172.012.308.044.616.093.924.134.105.014.216.012.255-.119.04-.132-.056-.186-.15-.236-.368-.192-.734-.386-1.105-.573-.18-.09-.445-.126-.208-.42.015-.019.015-.074,0-.089-.238-.23-.061-.488-.044-.731.017-.248.076-.492.105-.739.014-.117-.007-.243-.148-.272-.131-.027-.172.086-.219.18-.245.491-.49.981-.751,1.503-.15-.118-.305-.311-.461-.153-.145.147-.268.1-.411.083-.288-.035-.576-.081-.864-.113-.112-.013-.242-.022-.278.13-.036.151.085.192.188.243Z"/>
        <path class="cls-11" d="M37.603,38.858c-.177-.088-.351-.18-.524-.273-.176-.095-.49-.126-.209-.44.016-.018.017-.079.004-.087-.292-.179-.066-.444-.113-.651,0-.043,0-.074,0-.105,0-.114.017-.248-.122-.289-.167-.049-.204.101-.259.209-.108.213-.21.428-.323.639-.031.058-.042.179-.126.153-.262-.083-.516.114-.782-.006-.137-.062-.305-.056-.459-.076-.097-.013-.197-.008-.23.106-.032.109.04.172.129.22.275.146.551.289.823.441.058.032.184.046.155.125-.103.277.117.548-.008.826-.054.119-.044.266-.075.397-.028.117-.012.211.107.255.114.043.174-.042.22-.126.155-.282.304-.566.459-.848.029-.052.096-.142.104-.137.274.149.55-.135.825.008.079.041.182.041.275.049.119.011.255.06.31-.114.053-.169-.064-.216-.18-.273Z"/>
        <path class="cls-11" d="M39.542,36.89c-.337-.152-.49-.362-.339-.746.06-.153.208-.396-.019-.496-.236-.104-.301.187-.374.328-.14.267-.324.351-.597.268-.169-.051-.353-.091-.438.094-.096.207.125.263.247.326.224.115.302.258.197.494-.024.055-.016.123-.031.183-.031.121-.091.259.059.33.144.068.241-.047.298-.157.163-.316.395-.416.728-.276.045.019.103.009.206.017.053.005.17.025.218-.098.055-.14-.052-.22-.154-.266Z"/>
        <path class="cls-21" d="M20.881,19.014c2.083-1.094,4.286-1.848,6.612-2.227.968-.158,1.941-.239,2.922-.169.159.011.26-.015.342-.178.128-.256.363-.415.647-.433,1.779-.112,3.558-.175,5.31.254,1.717.421,3.205,1.203,4.202,2.736.035-.043.07-.082.104-.119-2.848-4.456-7.838-7.411-13.519-7.411-8.855,0-16.033,7.178-16.033,16.033,0,.041.001.081.002.122.497-.947,1.123-1.83,1.817-2.674,2.086-2.541,4.706-4.416,7.595-5.933ZM19.865,14.7c.036-.152.166-.142.278-.13.289.032.576.078.864.113.143.017.266.064.411-.083.156-.158.311.035.461.153.261-.522.507-1.012.751-1.503.047-.094.088-.207.219-.18.141.029.162.155.148.272-.029.247-.087.492-.105.739-.017.242-.194.5.044.731.016.015.016.07,0,.089-.237.294.028.33.208.42.371.186.737.38,1.105.573.094.049.189.103.15.236-.039.131-.15.133-.255.119-.309-.041-.616-.09-.924-.134-.059-.008-.161-.032-.172-.012-.23.452-.427.08-.658-.022-.226.442-.454.894-.689,1.342-.068.128-.114.332-.328.238-.192-.084-.12-.255-.089-.409.055-.275.103-.551.149-.827.01-.059.022-.158-.007-.175-.251-.158-.151-.329-.025-.494.111-.146-.034-.15-.098-.183-.415-.213-.833-.42-1.251-.628-.103-.051-.224-.092-.188-.243ZM15.624,18.589c.045-.168.204-.183.329-.167.244.031.486.075.73.107.142.019.172-.014.23-.109.152-.247.317-.486.472-.732.062-.098.136-.167.253-.116.109.047.093.149.072.243-.071.324-.13.652-.22.97-.04.141-.006.206.106.274.194.119.382.25.574.374.096.062.21.116.171.26-.042.155-.175.112-.335.123-.216-.043-.484-.083-.743-.153-.138-.037-.206-.002-.282.109-.135.197-.285.383-.432.571-.062.08-.15.127-.246.082-.099-.047-.103-.143-.081-.243.038-.172.041-.358.11-.515.154-.347.014-.537-.292-.674-.084-.038-.158-.099-.235-.151-.092-.062-.221-.105-.181-.253Z"/>
        <path class="cls-21" d="M41.92,31.369c-2.106,2.486-4.691,4.375-7.556,5.894-2.465,1.307-5.087,2.141-7.849,2.528-.899.126-1.804.151-2.709.077-.152-.012-.241.011-.32.159-.113.21-.308.342-.556.352-1.916.075-3.817-.013-5.665-.54,2.777,2.306,6.345,3.693,10.236,3.693,8.283,0,15.099-6.282,15.944-14.341-.43.766-.942,1.49-1.524,2.177ZM37.783,39.132c-.055.174-.191.125-.31.114-.093-.008-.196-.008-.275-.049-.275-.143-.551.141-.825-.008-.008-.004-.075.085-.104.137-.155.282-.304.566-.459.848-.046.083-.106.168-.22.126-.118-.044-.135-.138-.107-.255.031-.131.022-.277.075-.397.125-.278-.095-.549.008-.826.029-.078-.097-.092-.155-.125-.271-.152-.548-.296-.823-.441-.09-.047-.161-.111-.129-.22.033-.113.134-.118.23-.106.154.02.323.015.459.076.266.12.52-.077.782.006.085.027.095-.095.126-.153.112-.21.214-.426.323-.639.055-.108.091-.258.259-.209.139.041.122.174.122.289,0,.031,0,.062,0,.105.047.207-.179.472.113.651.013.008.012.069-.004.087-.281.315.033.346.209.44.174.093.348.186.524.273.116.057.233.105.18.273ZM39.696,37.156c-.048.122-.165.103-.218.098-.103-.007-.161.002-.206-.017-.333-.141-.565-.041-.728.276-.057.11-.154.225-.298.157-.15-.071-.09-.209-.059-.33.015-.06.007-.129.031-.183.105-.236.027-.379-.197-.494-.122-.063-.343-.119-.247-.326.085-.184.269-.145.438-.094.273.083.456-.002.597-.268.074-.14.138-.431.374-.328.228.1.079.344.019.496-.15.384.003.594.339.746.102.046.209.127.154.266Z"/>
        <path class="cls-21" d="M18.074,38.747c.796.189,1.602.305,2.517.341-.164-.115-.254-.176-.342-.239-.982-.704-1.69-1.62-2.13-2.745-.103-.263-.042-.475.195-.619.241-.147.462-.086.637.124.093.111.174.234.245.359.404.714.958,1.282,1.663,1.696.977.573,2.041.871,3.165.959,1.395.109,2.76-.103,4.114-.405,3.594-.8,6.793-2.422,9.679-4.685,1.748-1.37,3.339-2.887,4.445-4.844.534-.945.962-1.917,1.174-2.939-.122-1.123-.36-2.211-.702-3.252-.035,1.408-.45,2.722-1.231,3.938-1.186,1.845-2.752,3.321-4.626,4.433-3.824,2.268-7.93,3.71-12.403,3.973-1.595.094-3.148-.094-4.661-.652-2.874-1.06-3.366-3.874-2.388-5.931.494-1.039,1.155-1.964,2.026-2.702,2.747-2.328,5.907-3.72,9.514-4.016,1.061-.087,2.122-.018,3.142.336,1.365.474,2.298,1.604,2.282,2.819-.014,1.047-.379,1.985-1.109,2.738-1.352,1.396-2.964,2.372-4.861,2.845-1.181.295-2.387.436-3.587.209-.959-.181-1.725-.702-1.973-1.722-.207-.854.126-1.599.683-2.207,1.503-1.64,3.394-2.335,5.593-2.03,1.13.157,1.933,1.313,1.083,2.472-.816,1.112-1.948,1.61-3.299,1.653-.358.012-.577-.191-.586-.474-.009-.276.199-.46.561-.5.885-.099,1.669-.414,2.29-1.075.171-.182.31-.416.226-.643-.084-.224-.357-.254-.589-.277-1.522-.151-2.812.406-3.979,1.319-.297.233-.529.532-.678.883-.211.498-.06.88.434,1.095.339.147.702.187,1.066.205,2.122.103,3.977-.632,5.663-1.85.712-.514,1.259-1.182,1.567-2.016.28-.761.07-1.311-.631-1.713-.354-.203-.735-.336-1.134-.42-1.014-.214-2.032-.148-3.043-.001-2.742.397-5.228,1.415-7.376,3.178-1.077.884-1.924,1.958-2.292,3.34-.317,1.192.057,2.098,1.105,2.742,1.003.616,2.119.826,3.268.928,2.104.187,4.176-.027,6.226-.504,2.85-.664,5.529-1.714,7.887-3.493,1.721-1.298,3.075-2.874,3.633-4.997.566-2.154.134-4.093-1.525-5.651-.861-.809-1.971-1.132-3.106-1.347-.74-.14-1.488-.212-2.25-.161.746.428,1.348,1.01,1.908,1.64.218.246.22.562-.004.784-.213.21-.492.218-.725,0-1.29-1.202-2.855-1.692-4.578-1.778-1.481-.074-2.923.172-4.346.547-3.512.924-6.583,2.681-9.346,5.003-1.722,1.448-3.151,3.138-4.15,5.169-.259.527-.478,1.069-.608,1.668.124-.046.135-.138.17-.209.631-1.27,1.47-2.385,2.471-3.387.723-.725,1.543-1.332,2.329-1.98.218-.179.508-.148.712.045.194.183.212.426.037.674-.296.419-.672.767-1.044,1.115-.881.823-1.632,1.747-2.251,2.78-.84,1.401-1.386,2.88-1.222,4.552.026.269.068.529.126.781.46.927,1.008,1.803,1.632,2.617.014.011.026.022.04.032.972.75,2.085,1.192,3.268,1.474Z"/>
      </g>
    </g>
  </g>
</svg>