<?xml version="1.0" encoding="UTF-8"?>
<svg id="Layer_2" data-name="Layer 2" xmlns="http://www.w3.org/2000/svg" version="1.1" viewBox="0 0 55 55">
  <defs>
    <style>
      .cls-1 {
        fill: none;
      }

      .cls-1, .cls-2 {
        stroke-width: 0px;
      }

      .cls-2 {
        fill: #e88d8d;
      }
    </style>
  </defs>
  <path class="cls-1" d="M21.447,29.963l-1.67-.243c-.115-.017-.214-.089-.265-.193l-.747-1.513c-.129-.262-.503-.262-.632,0l-.747,1.513c-.051.104-.151.176-.265.193l-1.67.243c-.289.042-.405.397-.195.601l1.208,1.178c.083.081.121.198.101.312l-.285,1.663c-.049.288.253.508.512.372l1.494-.785c.103-.054.225-.054.328,0l1.494.785c.259.136.561-.084.512-.372l-.285-1.663c-.02-.114.018-.231.101-.312l1.208-1.178c.209-.204.094-.559-.195-.601Z"/>
  <path class="cls-1" d="M26.082,37.445l-1.149-.167c-.079-.011-.147-.061-.183-.133l-.514-1.041c-.089-.18-.346-.18-.435,0l-.514,1.041c-.035.072-.104.121-.183.133l-1.149.167c-.199.029-.278.273-.134.414l.831.81c.057.056.083.136.07.215l-.196,1.144c-.034.198.174.349.352.256l1.027-.54c.071-.037.155-.037.226,0l1.027.54c.178.094.386-.058.352-.256l-.196-1.144c-.013-.079.013-.159.07-.215l.831-.81c.144-.14.065-.385-.134-.414Z"/>
  <path class="cls-1" d="M18.734,20.6c.111.108.161.263.135.415l-.38,2.214c-.066.383.337.676.681.495l1.988-1.045c.137-.072.3-.072.437,0l1.988,1.045c.344.181.747-.111.681-.495l-.38-2.214c-.026-.152.024-.308.135-.415l1.609-1.568c.279-.272.125-.745-.26-.801l-2.223-.323c-.153-.022-.285-.118-.353-.257l-.994-2.015c-.172-.349-.67-.349-.842,0l-.994,2.015c-.068.139-.201.235-.353.257l-2.223.323c-.385.056-.539.529-.26.801l1.609,1.568Z"/>
  <path class="cls-1" d="M30.382,37.618c0,.401.328.729.729.729h3.261c.401,0,.729-.328.729-.729l.066-1.073h-4.815l.031,1.073Z"/>
  <path class="cls-1" d="M31.691,16.307l-5.755,9.968c-.467.809.117,1.82,1.051,1.82h2.884l.292,5.099h5.228l.288-5.099h2.818c.934,0,1.517-1.011,1.051-1.82l-5.755-9.968c-.467-.809-1.634-.809-2.101,0Z"/>
  <polygon class="cls-1" points="30.306 35.753 35.241 35.753 35.333 33.933 30.204 33.933 30.306 35.753"/>
  <path class="cls-2" d="M27.5,11.467c-8.854,0-16.033,7.178-16.033,16.033s7.178,16.033,16.033,16.033,16.033-7.178,16.033-16.033-7.178-16.033-16.033-16.033ZM17.386,18.231l2.223-.323c.153-.022.285-.118.353-.257l.994-2.015c.172-.349.67-.349.842,0l.994,2.015c.068.139.201.235.353.257l2.223.323c.385.056.539.529.26.801l-1.609,1.568c-.111.108-.161.263-.135.415l.38,2.214c.066.383-.337.676-.681.495l-1.988-1.045c-.137-.072-.3-.072-.437,0l-1.988,1.045c-.344.181-.747-.111-.681-.495l.38-2.214c.026-.152-.024-.308-.135-.415l-1.609-1.568c-.279-.272-.125-.745.26-.801ZM21.642,30.564l-1.208,1.178c-.083.081-.121.198-.101.312l.285,1.663c.049.288-.253.508-.512.372l-1.494-.785c-.103-.054-.225-.054-.328,0l-1.494.785c-.259.136-.561-.084-.512-.372l.285-1.663c.02-.114-.018-.231-.101-.312l-1.208-1.178c-.209-.204-.094-.559.195-.601l1.67-.243c.115-.017.214-.089.265-.193l.747-1.513c.129-.262.503-.262.632,0l.747,1.513c.051.104.151.176.265.193l1.67.243c.289.042.405.397.195.601ZM26.216,37.859l-.831.81c-.057.056-.083.136-.07.215l.196,1.144c.034.198-.174.349-.352.256l-1.027-.54c-.071-.037-.155-.037-.226,0l-1.027.54c-.178.094-.386-.058-.352-.256l.196-1.144c.013-.079-.013-.159-.07-.215l-.831-.81c-.144-.14-.065-.385.134-.414l1.149-.167c.079-.011.147-.061.183-.133l.514-1.041c.089-.18.346-.18.435,0l.514,1.041c.035.072.104.121.183.133l1.149.167c.199.029.278.273.134.414ZM35.101,37.618c0,.401-.328.729-.729.729h-3.261c-.401,0-.729-.328-.729-.729l-.031-1.073h4.815l-.066,1.073ZM35.241,35.753h-4.935l-.102-1.821h5.129l-.092,1.821ZM38.496,28.095h-2.818l-.288,5.099h-5.228l-.292-5.099h-2.884c-.934,0-1.517-1.011-1.051-1.82l5.755-9.968c.467-.809,1.634-.809,2.101,0l5.755,9.968c.467.809-.117,1.82-1.051,1.82Z"/>
</svg>