<?xml version="1.0" encoding="utf-8"?>
<!-- Generator: Adobe Illustrator 27.0.0, SVG Export Plug-In . SVG Version: 6.00 Build 0)  -->
<svg version="1.1" id="Layer_1" xmlns="http://www.w3.org/2000/svg" xmlns:xlink="http://www.w3.org/1999/xlink" x="0px" y="0px"
	 viewBox="0 0 380 380" style="enable-background:new 0 0 380 380;" xml:space="preserve">
<style type="text/css">
	.st0{fill:#E88D8D;}
	.st1{fill:none;}
</style>
<g>
	<g>
		<g>
			<path class="st0" d="M74.576,312.127c0.888-0.828,2.072-1.895,3.848-1.895c2.901,0,6.098,3.197,6.098,5.684
				c0,1.599-0.651,3.02-1.835,4.145l-13.735,12.729l15.512,19.42c0.415,0.473,1.302,1.835,1.302,3.374
				c0,2.782-3.197,5.743-6.157,5.743c-1.48,0-2.842-0.651-3.789-1.776l-15.274-19.005l-5.151,4.855v10.656
				c0,2.072-0.415,5.27-5.625,5.27c-4.144,0-5.743-1.776-5.743-5.27v-40.614c0-2.013,0.415-5.21,5.625-5.21
				c4.026,0,5.743,1.599,5.743,5.21v14.387L74.576,312.127z"/>
			<path class="st0" d="M121.468,330.598c2.131,0,4.914,0.533,4.914,4.5c0,2.368-0.592,4.854-4.914,4.854h-17.82v8.585
				c0,1.065,0.592,1.717,1.658,1.717h19.419c1.717,0,5.032,0.296,5.032,4.796c0,4.439-2.842,4.973-5.032,4.973h-23.918
				c-5.92,0-8.525-2.309-8.525-8.525v-31.496c0-6.572,3.079-8.525,8.525-8.525h22.498c1.243,0,5.032,0.059,5.032,4.854
				c0,3.671-1.835,4.973-5.032,4.973h-17.998c-1.066,0-1.658,0.651-1.658,1.658v7.637H121.468z"/>
			<path class="st0" d="M166.406,330.598c2.132,0,4.914,0.533,4.914,4.5c0,2.368-0.592,4.854-4.914,4.854h-17.82v8.585
				c0,1.065,0.592,1.717,1.657,1.717h19.42c1.717,0,5.032,0.296,5.032,4.796c0,4.439-2.842,4.973-5.032,4.973h-23.919
				c-5.92,0-8.525-2.309-8.525-8.525v-31.496c0-6.572,3.079-8.525,8.525-8.525h22.497c1.244,0,5.033,0.059,5.033,4.854
				c0,3.671-1.836,4.973-5.033,4.973h-17.998c-1.065,0-1.657,0.651-1.657,1.658v7.637H166.406z"/>
			<path class="st0" d="M193.523,356.056c0,2.072-0.414,5.27-5.624,5.27c-4.026,0-5.743-1.658-5.743-5.27v-36.055
				c0-6.513,3.02-8.525,8.525-8.525h10.894c7.104,0,9.709,1.42,10.775,2.071c3.729,2.25,7.4,6.69,7.4,13.735
				c0,6.335-3.02,11.427-6.927,13.973c-3.73,2.428-9.946,2.428-11.249,2.428h-8.052V356.056z M193.523,333.914h7.519
				c5.684,0,7.046-2.96,7.046-6.334c0-3.908-1.954-6.276-7.046-6.276h-5.861c-1.065,0-1.657,0.651-1.657,1.658V333.914z"/>
			<path class="st0" d="M259.302,341.789c0,2.249,0,9.591,8.644,9.591c8.645,0,8.645-7.342,8.645-9.591v-26.347
				c0-2.486,0.77-5.21,5.564-5.21c3.611,0,5.803,1.185,5.803,5.21v26.701c0,3.493-0.297,10.835-6.395,15.216
				c-4.085,2.96-8.939,3.967-13.676,3.967c-7.638,0-13.321-2.842-16.4-6.631c-1.895-2.31-3.552-6.275-3.552-12.552v-26.701
				c0-1.835,0.296-5.21,5.565-5.21c3.493,0,5.802,1.125,5.802,5.21V341.789z"/>
			<path class="st0" d="M309.745,356.056c0,2.072-0.414,5.27-5.624,5.27c-4.026,0-5.743-1.658-5.743-5.27v-36.055
				c0-6.513,3.02-8.525,8.525-8.525h10.894c7.104,0,9.709,1.42,10.775,2.071c3.729,2.25,7.4,6.69,7.4,13.735
				c0,6.335-3.02,11.427-6.927,13.973c-3.73,2.428-9.946,2.428-11.249,2.428h-8.052V356.056z M309.745,333.914h7.519
				c5.684,0,7.046-2.96,7.046-6.334c0-3.908-1.954-6.276-7.046-6.276h-5.861c-1.065,0-1.657,0.651-1.657,1.658V333.914z"/>
		</g>
	</g>
	<g>
		<path class="st1" d="M141.713,163.229l-13.052-1.897c-0.898-0.13-1.674-0.694-2.075-1.507l-5.837-11.827
			c-1.011-2.048-3.931-2.048-4.942,0l-5.837,11.827c-0.401,0.813-1.177,1.377-2.075,1.507l-13.052,1.897
			c-2.26,0.328-3.163,3.106-1.527,4.7l9.445,9.206c0.65,0.633,0.946,1.545,0.793,2.439l-2.23,12.999
			c-0.386,2.251,1.977,3.968,3.999,2.905l11.674-6.137c0.803-0.422,1.762-0.422,2.565,0l11.674,6.137
			c2.021,1.063,4.384-0.654,3.998-2.905l-2.229-12.999c-0.153-0.894,0.143-1.806,0.792-2.439l9.445-9.206
			C144.876,166.335,143.974,163.558,141.713,163.229z"/>
		<path class="st1" d="M177.938,221.713l-8.977-1.304c-0.617-0.09-1.151-0.478-1.427-1.037l-4.015-8.135
			c-0.695-1.409-2.704-1.409-3.399,0l-4.015,8.135c-0.276,0.559-0.81,0.947-1.427,1.037l-8.977,1.304
			c-1.555,0.226-2.176,2.136-1.051,3.233l6.496,6.332c0.447,0.435,0.651,1.063,0.545,1.678l-1.533,8.941
			c-0.266,1.548,1.359,2.729,2.75,1.998l8.03-4.221c0.552-0.29,1.212-0.29,1.764,0l8.03,4.221c1.39,0.731,3.016-0.45,2.75-1.998
			l-1.533-8.941c-0.105-0.615,0.098-1.242,0.545-1.678l6.496-6.332C180.114,223.849,179.493,221.938,177.938,221.713z"/>
		<path class="st1" d="M120.514,90.052c0.865,0.843,1.259,2.057,1.055,3.247l-2.968,17.306c-0.514,2.997,2.631,5.282,5.323,3.867
			l15.542-8.171c1.069-0.562,2.345-0.562,3.414,0l15.542,8.171c2.691,1.415,5.837-0.87,5.323-3.867l-2.968-17.306
			c-0.204-1.19,0.19-2.404,1.055-3.247l12.573-12.256c2.177-2.122,0.976-5.82-2.033-6.257l-17.376-2.525
			c-1.195-0.174-2.228-0.924-2.762-2.007l-7.771-15.745c-1.346-2.727-5.234-2.727-6.58,0l-7.771,15.745
			c-0.534,1.083-1.567,1.833-2.762,2.007l-17.376,2.525c-3.009,0.437-4.211,4.135-2.033,6.257L120.514,90.052z"/>
		<path class="st1" d="M211.554,223.066c0,3.132,2.562,5.694,5.694,5.694h25.488c3.132,0,5.694-2.562,5.694-5.694l0.515-8.39
			h-37.636L211.554,223.066z"/>
		<path class="st1" d="M221.781,56.502l-44.98,77.907c-3.649,6.321,0.912,14.222,8.211,14.222h22.542l2.281,39.855h40.863
			l2.247-39.855h22.027c7.299,0,11.861-7.901,8.211-14.222l-44.98-77.907C234.553,50.181,225.43,50.181,221.781,56.502z"/>
		<polygon class="st1" points="210.96,208.49 249.529,208.49 250.248,194.26 210.159,194.26 		"/>
		<path class="st0" d="M189.025,18.674c-69.206,0-125.308,56.102-125.308,125.308c0,69.206,56.103,125.308,125.308,125.308
			s125.308-56.103,125.308-125.308C314.333,74.777,258.231,18.674,189.025,18.674z M109.974,71.539l17.376-2.525
			c1.195-0.174,2.228-0.924,2.762-2.007l7.771-15.745c1.346-2.727,5.234-2.727,6.58,0l7.771,15.745
			c0.534,1.083,1.567,1.833,2.762,2.007l17.376,2.525c3.009,0.437,4.21,4.135,2.033,6.257l-12.573,12.256
			c-0.865,0.843-1.259,2.057-1.055,3.247l2.968,17.306c0.514,2.997-2.632,5.282-5.323,3.867l-15.542-8.171
			c-1.069-0.562-2.346-0.562-3.414,0l-15.542,8.171c-2.691,1.415-5.837-0.87-5.323-3.867l2.968-17.306
			c0.204-1.19-0.19-2.404-1.055-3.247L107.94,77.796C105.763,75.674,106.965,71.976,109.974,71.539z M143.241,167.93l-9.445,9.206
			c-0.649,0.633-0.946,1.545-0.792,2.439l2.229,12.999c0.386,2.251-1.977,3.968-3.998,2.905l-11.674-6.137
			c-0.803-0.422-1.762-0.422-2.565,0l-11.674,6.137c-2.022,1.063-4.385-0.654-3.999-2.905l2.23-12.999
			c0.153-0.894-0.143-1.806-0.793-2.439l-9.445-9.206c-1.635-1.594-0.733-4.372,1.527-4.7l13.052-1.897
			c0.898-0.13,1.674-0.694,2.075-1.507l5.837-11.827c1.011-2.048,3.931-2.048,4.942,0l5.837,11.827
			c0.401,0.813,1.177,1.377,2.075,1.507l13.052,1.897C143.974,163.558,144.876,166.335,143.241,167.93z M178.989,224.945
			l-6.496,6.332c-0.447,0.435-0.651,1.063-0.545,1.678l1.533,8.941c0.266,1.548-1.36,2.729-2.75,1.998l-8.03-4.221
			c-0.552-0.29-1.212-0.29-1.764,0l-8.03,4.221c-1.391,0.731-3.016-0.45-2.75-1.998l1.533-8.941
			c0.105-0.615-0.098-1.242-0.545-1.678l-6.496-6.332c-1.125-1.097-0.504-3.007,1.051-3.233l8.977-1.304
			c0.617-0.09,1.151-0.478,1.427-1.037l4.015-8.135c0.695-1.409,2.704-1.409,3.399,0l4.015,8.135
			c0.276,0.559,0.81,0.947,1.427,1.037l8.977,1.304C179.493,221.938,180.114,223.849,178.989,224.945z M248.43,223.067
			c0,3.132-2.562,5.694-5.694,5.694h-25.488c-3.132,0-5.694-2.562-5.694-5.694l-0.245-8.39h37.636L248.43,223.067z M249.529,208.49
			H210.96l-0.801-14.229h40.089L249.529,208.49z M274.971,148.631h-22.027l-2.247,39.855h-40.863l-2.281-39.855h-22.542
			c-7.299,0-11.86-7.901-8.211-14.222l44.98-77.907c3.649-6.321,12.773-6.321,16.422,0l44.98,77.907
			C286.832,140.73,282.27,148.631,274.971,148.631z"/>
	</g>
</g>
</svg>
