<?xml version="1.0" encoding="UTF-8"?>
<svg id="Layer_46" data-name="Layer 46" xmlns="http://www.w3.org/2000/svg" version="1.1" viewBox="0 0 55 55">
  <defs>
    <style>
      .cls-1 {
        fill: none;
      }

      .cls-1, .cls-2 {
        stroke-width: 0px;
      }

      .cls-2 {
        fill: #f9a373;
      }
    </style>
  </defs>
  <path class="cls-1" d="M28.456,37.844l-.269.764c-.02.056-.066.099-.123.114l-.782.211c-.144.039-.181.227-.063.318l.643.492c.047.036.074.093.071.152l-.041.809c-.007.149.16.243.283.158l.667-.46c.049-.034.111-.041.167-.02l.757.289c.14.053.28-.077.237-.22l-.231-.776c-.017-.057-.005-.119.032-.165l.508-.631c.094-.116.013-.29-.136-.294l-.81-.02c-.059-.001-.114-.032-.147-.082l-.443-.678c-.082-.125-.272-.102-.321.039Z"/>
  <path class="cls-1" d="M22.747,29.995l-.138-.006.103-.091c.695-.616.918-1.364.664-2.221-.194-.654-.629-1.168-1.227-1.448-.352-.165-.752-.247-1.186-.247-.376,0-.778.062-1.197.186l-2.285.677c-1.13.335-1.44.905-1.105,2.035l1.798,6.071c.171.579.414.942.742,1.111.317.164.728.161,1.293-.006l2.502-.741c2.076-.615,2.614-2.272,2.235-3.552-.151-.51-.668-1.703-2.201-1.768ZM18.906,30.464l-.493-1.665c-.081-.274.029-.477.303-.558l1.302-.386c.444-.131.807-.112,1.081.059.254.159.373.412.428.598.054.181.262,1.099-.888,1.44l-1.732.513ZM22.662,33.355c-.292.279-.685.416-.841.462l-1.336.396c-.06.018-.116.027-.169.027-.069,0-.131-.016-.187-.046-.095-.053-.163-.148-.203-.284l-.565-1.906,1.755-.52c.419-.124.781-.151,1.075-.079.385.094.644.354.768.772.137.461.036.857-.298,1.177Z"/>
  <path class="cls-1" d="M35.491,24.756c-.218-.025-.432-.037-.64-.037-1.158,0-2.167.375-2.947,1.101-.871.811-1.419,2.011-1.583,3.469-.273,2.425.653,5.153,4.072,5.538,3.028.341,4.246-1.651,4.36-2.669.027-.237-.028-.444-.158-.6-.146-.174-.378-.281-.691-.316-.753-.086-.873.226-1.04.657-.205.498-.578,1.404-2.35,1.205-1.027-.116-1.709-.641-2.027-1.562-.193-.558-.245-1.24-.157-2.028.109-.972.415-1.76.909-2.341.478-.576,1.179-.816,2.083-.714,1.719.194,1.919,1.228,1.995,1.617.055.309.111.624.816.703.622.071.996-.179,1.055-.701.046-.406-.149-1.148-.686-1.817-.471-.586-1.376-1.324-3.011-1.508Z"/>
  <path class="cls-1" d="M14.129,21.539l.87-.047c.068-.004.134.026.176.081l.532.69c.105.136.321.093.365-.073l.224-.842c.018-.066.067-.119.131-.142l.82-.293c.162-.058.188-.277.043-.37l-.731-.473c-.057-.037-.093-.1-.095-.169l-.025-.871c-.005-.172-.205-.264-.339-.155l-.676.549c-.053.043-.124.057-.19.038l-.836-.245c-.165-.048-.314.114-.252.274l.314.813c.025.064.016.136-.022.192l-.492.719c-.097.142.011.334.183.325Z"/>
  <path class="cls-1" d="M40.803,20.35l-.74.019c-.054.001-.106-.024-.138-.068l-.436-.599c-.08-.111-.253-.081-.292.05l-.21.71c-.015.052-.055.093-.107.11l-.704.229c-.13.042-.155.215-.042.293l.61.42c.045.031.072.082.072.136v.741c0,.137.157.214.266.131l.588-.451c.043-.033.1-.043.151-.026l.704.228c.13.042.252-.083.206-.212l-.247-.698c-.018-.051-.01-.108.022-.152l.435-.599c.08-.111-.001-.265-.138-.262Z"/>
  <path class="cls-1" d="M38.389,17.881l.71-.212c.131-.039.16-.211.05-.292l-.6-.434c-.044-.032-.069-.083-.068-.138l.018-.74c.003-.137-.152-.218-.262-.137l-.598.436c-.044.032-.101.04-.152.022l-.699-.246c-.129-.045-.254.077-.212.207l.23.704c.017.052.007.108-.026.151l-.45.588c-.083.109-.005.265.131.265h.741c.054-.001.105.026.136.07l.421.609c.078.113.251.087.293-.043l.228-.705c.017-.052.058-.092.11-.107Z"/>
  <path class="cls-1" d="M24.208,22.361l.374-1.498,4.191-.455.769,1.548c.014.03.03.06.047.09.14.25.366.501.704.463.192-.021.496-.115.741-.279.084-.056.172-.13.245-.219.105-.129.179-.292.157-.493-.018-.169-.084-.348-.125-.42l-3.55-7.162c-.465-.939-1.041-1.15-1.62-1.15-.112,0-.223.008-.334.02-.899.098-1.387.552-1.63,1.52l-1.928,7.754c-.05.202-.037.4-.029.475.009.085.041.162.087.232.16.243.512.396.846.446.13.02.257.024.369.012.168-.018.305-.089.413-.21.104-.117.18-.281.226-.493l.045-.181ZM25.815,15.884c.064-.26.156-.378.31-.394.143-.015.253.077.375.319l1.495,3.02-2.98.324.8-3.269Z"/>
  <path class="cls-2" d="M27.33,9.854c-.138,0-.276.002-.414.005-.275.007-.548.021-.82.042-.271.021-.541.048-.808.082-.669.085-1.324.211-1.965.376-.256.066-.51.138-.761.216-.126.039-.25.08-.375.122-.248.084-.494.174-.737.27-.046.018-.092.038-.137.056l8.693-.945c-.871-.146-1.765-.224-2.677-.224Z"/>
  <polygon class="cls-2" points="27.812 25.049 26.772 25.162 27.516 27.677 27.812 25.049"/>
  <path class="cls-2" d="M28.158,36.241c-.18.11-.374.2-.582.261l-9.158,2.713c.155.104.313.205.472.304.152.094.304.187.459.276.224.129.451.252.681.37.461.236.935.45,1.42.642.243.096.488.186.737.27.124.042.249.083.375.122.251.078.505.15.761.216.64.165,1.296.291,1.965.376.267.034.537.061.808.082s.545.035.82.042c.137.004.275.005.414.005,3.044,0,5.889-.848,8.313-2.321.22-.134.437-.273.65-.417.725-.49,1.407-1.038,2.041-1.636l-9.347-1.053c-.298-.034-.577-.122-.83-.251ZM29.367,38.565l.81.02c.15.004.23.177.136.294l-.508.631c-.037.046-.049.108-.032.165l.231.776c.043.143-.097.273-.237.22l-.757-.289c-.056-.021-.118-.014-.167.02l-.667.46c-.123.085-.29-.008-.283-.158l.041-.809c.003-.059-.023-.116-.071-.152l-.643-.492c-.119-.091-.082-.279.063-.318l.782-.211c.057-.016.103-.058.123-.114l.269-.764c.05-.141.24-.164.321-.039l.443.678c.032.05.087.08.147.082Z"/>
  <path class="cls-2" d="M43.316,24.653c-.041-.543-.11-1.078-.204-1.604-.047-.263-.1-.524-.16-.783-.09-.388-.193-.77-.31-1.147-.117-.377-.248-.747-.391-1.111-.191-.485-.406-.959-.642-1.42-.118-.23-.241-.458-.37-.681-.129-.224-.263-.444-.402-.661-.07-.108-.14-.216-.212-.323-.144-.213-.293-.423-.447-.629-.154-.206-.313-.408-.476-.606s-.331-.392-.504-.582c-.431-.475-.891-.923-1.375-1.343-.194-.168-.392-.331-.594-.49-.606-.476-1.247-.909-1.918-1.295-.224-.129-.451-.252-.681-.37-.736-.377-1.506-.698-2.302-.959.451.404.735.949.801,1.553l1.053,9.692c.006.052.007.103.009.155l2.211-3.441c.067-.104.161-.177.251-.195.059-.012.117,0,.163.031l.331.226c.046.032.077.082.088.141.016.091-.018.205-.09.305l-2.385,3.287,1.24.14,1.967-.942c.064-.03.136-.034.198-.011.055.021.097.061.12.113l.109.256c.022.052.022.111-.001.165-.026.061-.079.11-.145.135l-1.101.413,3.17.357c.648.073,1.23.395,1.639.908.409.513.594,1.152.521,1.8l-.831,7.38c.164-.323.317-.653.459-.988.101-.24.197-.483.287-.728.045-.123.088-.246.13-.37.084-.248.162-.499.234-.753.252-.888.43-1.807.525-2.75.027-.269.048-.541.062-.814s.021-.548.021-.825c0-.415-.016-.826-.047-1.234ZM37.759,18.736l-.421-.609c-.031-.045-.082-.071-.136-.071h-.741c-.137.001-.214-.155-.131-.264l.45-.588c.033-.043.043-.1.026-.151l-.23-.704c-.042-.13.083-.252.212-.207l.699.246c.051.018.108.01.152-.022l.598-.436c.111-.081.265,0,.262.137l-.018.74c-.001.054.024.106.068.138l.6.434c.111.08.081.253-.05.292l-.71.212c-.052.016-.093.056-.11.107l-.228.705c-.042.13-.215.155-.293.043ZM40.941,20.612l-.435.599c-.032.044-.04.101-.022.152l.247.698c.046.129-.076.254-.206.212l-.704-.228c-.052-.017-.108-.007-.151.026l-.588.451c-.109.083-.265.006-.265-.131v-.741c0-.054-.027-.105-.072-.136l-.61-.42c-.113-.077-.088-.25.042-.293l.704-.229c.052-.017.092-.058.107-.11l.21-.71c.039-.131.211-.161.292-.05l.436.599c.032.044.083.069.138.068l.74-.019c.137-.004.218.151.138.262Z"/>
  <path class="cls-2" d="M14.069,25.227l4.561-1.351-1.954-1.714c-.075-.066-.121-.149-.125-.227-.003-.055.015-.107.05-.145l.143-.157c.035-.038.085-.06.14-.062.079-.005.165.036.237.105l2.113,2.021.403-.119c-.005-.034-.012-.067-.016-.102l-1.053-9.692c-.059-.547.067-1.087.354-1.549-.077.048-.155.095-.231.144-.108.07-.216.14-.323.212-.213.144-.423.293-.629.447-.412.308-.808.635-1.187.98-.19.173-.375.35-.557.531-.181.181-.358.367-.531.557-.259.285-.507.579-.745.882-.079.101-.157.203-.234.306-.231.309-.451.626-.659.951-.139.217-.273.437-.402.661s-.252.451-.37.681c-.236.461-.45.935-.642,1.42-.287.728-.522,1.482-.702,2.258-.06.259-.113.52-.16.783-.094.526-.162,1.062-.204,1.604-.031.407-.047.818-.047,1.234,0,.277.007.552.021.825.014.273.035.545.062.814.096.943.273,1.862.525,2.75.072.254.15.505.234.753.042.124.085.248.13.37.09.246.186.488.287.728.152.36.317.713.494,1.058.118.23.241.458.37.681.064.112.13.223.197.333.111.183.226.362.344.54.095.144.192.287.292.427.11.154.223.306.338.456l-2.178-7.352c-.384-1.295.358-2.66,1.653-3.044ZM13.947,21.214l.492-.719c.039-.056.047-.128.022-.192l-.314-.813c-.062-.161.087-.323.252-.274l.836.245c.066.019.136.005.19-.038l.676-.549c.134-.109.334-.017.339.155l.025.871c.002.068.037.131.095.169l.731.473c.145.094.119.312-.043.37l-.82.293c-.064.023-.113.076-.131.142l-.224.842c-.044.166-.26.21-.365.073l-.532-.69c-.042-.054-.107-.084-.176-.081l-.87.047c-.172.009-.28-.183-.183-.325Z"/>
  <path class="cls-2" d="M40.166,24.355l-6.465-.728c-.016.021-.03.044-.047.065-.411.511-.994.831-1.642.901l-2.838.308-.683,6.064.739,2.493c.168.568.124,1.165-.12,1.701.01.001.019.004.029.005l9.688,1.091c.293.032.584-.051.817-.238.234-.186.38-.451.413-.744l1.091-9.688c.033-.294-.051-.584-.238-.817-.186-.234-.451-.38-.744-.413ZM39.3,28.093c-.066.585-.495.877-1.178.799-.788-.089-.857-.478-.913-.791-.078-.404-.26-1.345-1.898-1.53-.864-.097-1.532.13-1.985.675-.48.564-.777,1.332-.884,2.282-.087.771-.036,1.437.151,1.979.303.877.954,1.378,1.934,1.488,1.689.191,2.028-.634,2.23-1.126.174-.45.322-.829,1.16-.736.342.039.599.158.764.355.15.179.213.416.183.684-.11.973-1.185,2.806-3.799,2.807-.217,0-.445-.013-.684-.04-3.5-.394-4.45-3.183-4.17-5.662.167-1.485.727-2.708,1.618-3.538.945-.88,2.216-1.257,3.676-1.094,1.673.188,2.602.946,3.086,1.549.557.693.759,1.47.71,1.899Z"/>
  <path class="cls-2" d="M35.504,24.645c-1.46-.164-2.731.214-3.676,1.094-.891.83-1.451,2.053-1.618,3.538-.279,2.478.67,5.267,4.17,5.662.239.027.467.04.684.04,2.614,0,3.69-1.833,3.799-2.807.03-.268-.033-.504-.183-.684-.165-.197-.422-.316-.764-.355-.838-.093-.985.286-1.16.736-.203.492-.541,1.317-2.23,1.126-.981-.11-1.631-.611-1.934-1.488-.187-.542-.238-1.208-.151-1.979.107-.95.404-1.717.884-2.282.453-.545,1.121-.772,1.985-.675,1.638.184,1.82,1.126,1.898,1.53.055.313.125.702.913.791.683.077,1.112-.215,1.178-.799.048-.429-.153-1.206-.71-1.899-.484-.603-1.412-1.36-3.086-1.549ZM39.244,28.087c-.063.557-.477.822-1.116.75-.735-.083-.805-.415-.864-.745-.076-.393-.264-1.386-1.947-1.575-.569-.064-1.423-.04-2.034.695-.512.602-.794,1.399-.896,2.311-.101.9-.2,3.265,2.135,3.528,1.742.196,2.093-.688,2.292-1.17.169-.437.304-.782,1.098-.692.687.077.953.491.898.977-.105.936-1.282,3.072-4.422,2.718-3.318-.374-4.415-2.993-4.121-5.6.326-2.891,2.199-4.924,5.232-4.583,3.045.343,3.835,2.604,3.747,3.386Z"/>
  <path class="cls-2" d="M35.497,24.701c-3.034-.342-4.906,1.691-5.232,4.583-.294,2.607.803,5.226,4.121,5.6,3.14.354,4.317-1.782,4.422-2.718.055-.486-.211-.9-.898-.977-.794-.089-.929.255-1.098.692-.198.482-.55,1.366-2.292,1.17-2.334-.263-2.236-2.628-2.135-3.528.103-.912.384-1.709.896-2.311.611-.735,1.465-.759,2.034-.695,1.683.189,1.871,1.183,1.947,1.575.059.331.129.663.864.745.64.072,1.054-.193,1.116-.75.088-.782-.701-3.043-3.747-3.386ZM39.189,28.08c-.059.522-.433.772-1.055.701-.705-.079-.761-.395-.816-.703-.075-.389-.275-1.424-1.995-1.617-.904-.101-1.605.139-2.083.714-.494.581-.8,1.369-.909,2.341-.089.788-.036,1.47.157,2.028.318.921,1,1.446,2.027,1.562,1.772.199,2.145-.707,2.35-1.205.167-.431.287-.743,1.04-.657.313.035.545.141.691.316.13.156.185.363.158.6-.115,1.018-1.332,3.01-4.36,2.669-3.419-.385-4.345-3.113-4.072-5.538.164-1.458.712-2.658,1.583-3.469.78-.726,1.789-1.101,2.947-1.101.209,0,.422.012.64.037,1.636.184,2.54.921,3.011,1.508.537.668.732,1.41.686,1.817Z"/>
  <path class="cls-2" d="M27.948,33.838l-.329-1.109-.487-1.644-1.71-5.777-3.104.338c-.089.009-.177.014-.266.014-.694,0-1.334-.296-1.786-.776.003.004.005.009.008.013l-.01.005c.023.039.017.087-.004.127-.019.04-.051.072-.084.103-.021.019-.041.04-.067.05-.021.009-.044.012-.066.01-.123,0-.243-.078-.292-.191l-.88.195-4.423,1.311c-.283.084-.518.275-.661.537-.143.262-.175.563-.091.847l2.769,9.347c.175.589.795.925,1.384.752l9.273-2.748.073-.022c.197-.058.368-.167.502-.316.06-.067.114-.14.158-.221.143-.262.175-.563.091-.846ZM22.744,35.421l-2.502.742c-.297.087-.554.131-.78.131-.227,0-.424-.044-.596-.134-.356-.182-.617-.568-.798-1.177l-1.798-6.072c-.353-1.19-.012-1.82,1.18-2.173l2.285-.677c.929-.275,1.781-.252,2.462.068.627.293,1.085.831,1.286,1.516.256.862.054,1.617-.6,2.248,1.504.127,2.018,1.321,2.172,1.839.395,1.33-.161,3.052-2.311,3.69Z"/>
  <path class="cls-2" d="M22.166,31.513c-.275-.067-.617-.041-1.017.078l-1.649.488.533,1.799c.032.107.082.18.151.218.07.039.161.042.269.01l1.336-.396c.148-.044.521-.174.796-.436.302-.289.392-.647.269-1.065-.112-.378-.343-.612-.687-.696Z"/>
  <path class="cls-2" d="M21.419,28.543c-.049-.167-.155-.395-.38-.535-.136-.085-.3-.127-.489-.127-.151,0-.318.027-.501.081l-1.302.386c-.215.064-.292.205-.228.42l.462,1.559,1.626-.482c1.022-.303.88-1.073.812-1.302Z"/>
  <path class="cls-2" d="M21.472,28.527c-.119-.4-.479-.903-1.439-.618l-1.302.386c-.24.071-.34.238-.265.489l.478,1.612,1.679-.497c.995-.295.948-1.039.85-1.371ZM20.606,29.844l-1.626.482-.462-1.559c-.064-.215.013-.356.228-.42l1.302-.386c.183-.054.35-.081.501-.081.189,0,.353.042.489.127.225.14.331.368.38.535.068.229.21.999-.812,1.302Z"/>
  <path class="cls-2" d="M21.133,31.537l-1.702.504.549,1.852c.071.24.238.34.489.266l1.336-.396c.412-.122,1.403-.553,1.102-1.57-.261-.88-1.088-.859-1.774-.656ZM22.585,33.274c-.274.262-.648.392-.796.436l-1.336.396c-.109.032-.199.029-.269-.01-.068-.038-.119-.111-.151-.218l-.533-1.799,1.649-.488c.4-.119.742-.145,1.017-.078.344.084.575.318.687.696.124.418.033.776-.269,1.065Z"/>
  <path class="cls-2" d="M25.054,31.732c-.154-.518-.668-1.712-2.172-1.839.654-.631.856-1.385.6-2.248-.202-.685-.659-1.223-1.286-1.516-.681-.32-1.533-.343-2.462-.068l-2.285.677c-1.191.353-1.533.983-1.18,2.173l1.798,6.072c.181.609.442.995.798,1.177.172.09.369.134.596.134.226,0,.483-.044.78-.131l2.502-.742c2.15-.637,2.705-2.359,2.311-3.69ZM22.728,35.369l-2.502.74c-1.109.329-1.749.058-2.105-1.142l-1.798-6.071c-.36-1.212.045-1.78,1.142-2.105l2.285-.676c1.943-.576,3.29.231,3.679,1.546.085.287.392,1.326-.681,2.279,1.285.055,1.984.905,2.252,1.808.424,1.429-.26,3.025-2.272,3.621Z"/>
  <path class="cls-2" d="M22.749,29.94c1.074-.952.765-1.993.681-2.279-.389-1.315-1.736-2.122-3.679-1.547l-2.285.677c-1.098.325-1.502.893-1.143,2.104l1.798,6.071c.356,1.201.995,1.471,2.105,1.143l2.502-.741c2.012-.596,2.696-2.192,2.273-3.621-.268-.903-.967-1.753-2.252-1.808ZM22.712,35.315l-2.502.741c-.565.167-.976.169-1.293.006-.328-.169-.57-.532-.742-1.111l-1.798-6.071c-.335-1.13-.025-1.701,1.105-2.035l2.285-.677c.419-.124.821-.186,1.197-.186.434,0,.834.083,1.186.247.598.28,1.033.794,1.227,1.448.254.858.031,1.605-.664,2.221l-.103.091.138.006c1.533.065,2.05,1.258,2.201,1.768.379,1.279-.159,2.937-2.235,3.552Z"/>
  <path class="cls-2" d="M22.192,31.405c-.294-.072-.656-.045-1.075.079l-1.755.52.565,1.906c.04.135.108.231.203.284.055.031.118.046.187.046.052,0,.109-.009.169-.027l1.336-.396c.156-.046.549-.183.841-.462.335-.32.435-.716.298-1.177-.124-.418-.382-.678-.768-.772ZM21.805,33.764l-1.336.396c-.252.075-.418-.025-.489-.266l-.549-1.852,1.702-.504c.686-.203,1.513-.224,1.774.656.301,1.018-.69,1.448-1.102,1.57Z"/>
  <path class="cls-2" d="M21.526,28.511c-.055-.185-.174-.439-.428-.598-.273-.17-.637-.19-1.081-.059l-1.302.386c-.274.081-.384.285-.303.558l.493,1.665,1.732-.513c1.15-.341.941-1.259.888-1.44ZM18.943,30.395l-.478-1.612c-.075-.252.025-.418.265-.489l1.302-.386c.96-.284,1.321.218,1.439.618.098.332.145,1.076-.85,1.371l-1.679.497Z"/>
  <path class="cls-2" d="M32.852,22.038l-1.053-9.692c-.032-.293-.177-.558-.411-.745-.2-.161-.443-.247-.695-.247-.04,0-.08.001-.121.006l-9.692,1.053c-.293.032-.558.179-.745.411-.186.233-.272.523-.24.816l1.038,9.554.014.139c.021.181.084.351.184.5.062.091.139.173.227.245.152.122.328.199.514.231.099.017.2.021.302.009l2.727-.296.765-.084.706-.077,1.632-.177.744-.081.909-.098,1.51-.164.7-.076c.293-.032.558-.179.745-.411.005-.006.01-.014.015-.021.145-.189.224-.414.23-.646.001-.049.001-.099-.005-.149ZM31.097,22.322c-.206.138-.45.227-.645.271-.053.013-.103.022-.147.026-.069.008-.136.003-.202-.01-.242-.046-.455-.227-.619-.527-.014-.026-.028-.05-.041-.077l-.735-1.478-4.037.438-.351,1.403-.049.198c-.041.186-.103.339-.186.461-.131.191-.315.302-.549.328-.048.005-.096.008-.148.008-.147,0-.306-.022-.46-.064-.305-.082-.591-.244-.731-.479-.045-.077-.076-.161-.086-.253-.009-.082-.023-.296.032-.514l1.928-7.754c.256-1.02.772-1.5,1.726-1.604.726-.078,1.479.012,2.065,1.191l3.548,7.159c.051.091.118.287.138.46.021.186-.028.362-.139.519-.075.108-.179.208-.312.298Z"/>
  <path class="cls-2" d="M26.4,15.858c-.117-.233-.194-.26-.242-.26-.008,0-.015,0-.022.001-.073.008-.15.051-.214.31l-.762,3.114,2.663-.289-1.424-2.877Z"/>
  <path class="cls-2" d="M29.537,22.064c-.017.006-.035.012-.053.018-.014-.026-.028-.05-.041-.077l-.735-1.478-4.037.438-.351,1.403c-.018-.001-.037-.003-.057-.004l.362-1.451,4.114-.447.753,1.514c.013.028.028.055.044.084Z"/>
  <path class="cls-2" d="M26.45,15.834c-.138-.273-.236-.298-.319-.289-.107.012-.195.081-.262.352l-.781,3.191,2.821-.307-1.46-2.948ZM25.923,15.91c.063-.259.14-.302.214-.31.006,0,.014-.001.022-.001.047,0,.124.027.242.26l1.424,2.877-2.663.289.762-3.114Z"/>
  <path class="cls-2" d="M31.409,22.024l-.063-.006c.105-.141.168-.308.147-.506-.019-.179-.087-.362-.132-.442l-3.548-7.158c-.553-1.115-1.263-1.243-2.01-1.162-1.008.109-1.451.662-1.677,1.561l-1.928,7.754c-.059.234-.035.46-.031.495.01.09.041.17.086.243l-.055.017c-.045-.077-.076-.161-.086-.253-.009-.082-.023-.296.032-.514l1.928-7.754c.256-1.02.772-1.5,1.726-1.604.726-.078,1.479.012,2.065,1.191l3.548,7.159c.051.091.118.287.138.46.021.186-.028.362-.139.519Z"/>
  <path class="cls-2" d="M31.409,22.024c-.075.108-.179.208-.312.298-.206.138-.45.227-.645.271-.118-.006-.235-.001-.348.015-.242-.046-.455-.227-.619-.527.018-.006.036-.012.053-.018.158.287.406.538.763.5.267-.028.789-.207,1.046-.546l.063.006Z"/>
  <path class="cls-2" d="M30.452,22.593c-.053.013-.103.022-.147.026-.069.008-.136.003-.202-.01.113-.017.23-.022.348-.015Z"/>
  <path class="cls-2" d="M24.32,22.368l-.049.198c-.041.186-.103.339-.186.461-.023,0-.046.001-.071.003.131-.17.18-.374.203-.477l.046-.189c.019.001.039.003.057.004Z"/>
  <path class="cls-2" d="M23.034,23.268l-.105.031c-.305-.082-.591-.244-.731-.479l.055-.017c.149.243.464.397.781.465Z"/>
  <path class="cls-2" d="M24.085,23.028c-.131.191-.315.302-.549.328-.048.005-.096.008-.148.008-.147,0-.306-.022-.46-.064l.105-.031c.175.036.35.048.496.032.23-.026.383-.138.484-.27.024-.001.048-.003.071-.003Z"/>
  <path class="cls-2" d="M22.222,22.554c-.008-.076-.022-.273.029-.475l1.928-7.754c.243-.968.73-1.422,1.63-1.52.111-.012.222-.02.334-.02.578,0,1.154.212,1.62,1.15l3.55,7.162c.041.072.107.251.125.42.022.201-.052.364-.157.493l.065.007c.106-.141.168-.308.147-.506-.019-.178-.087-.362-.132-.442l-3.549-7.159c-.553-1.115-1.262-1.242-2.009-1.161-1.008.109-1.451.661-1.678,1.562l-1.928,7.754c-.059.234-.034.46-.03.495.01.089.041.169.086.242l.056-.017c-.046-.07-.078-.147-.087-.232Z"/>
  <path class="cls-2" d="M29.542,21.955l-.769-1.548-4.191.455-.374,1.498c.019,0,.038.002.056.004l.362-1.451,4.114-.447.752,1.514c.014.028.029.056.044.084.017-.006.035-.012.053-.018-.017-.03-.033-.061-.047-.09Z"/>
  <path class="cls-2" d="M26.499,15.809c-.122-.243-.232-.334-.375-.319-.153.017-.246.135-.31.394l-.8,3.269,2.98-.324-1.495-3.02ZM25.869,15.897c.066-.271.155-.341.262-.352.083-.009.182.016.319.289l1.46,2.948-2.821.307.781-3.191Z"/>
  <path class="cls-2" d="M31.035,22.229c-.246.164-.55.259-.741.279-.338.038-.564-.213-.704-.463-.018.006-.035.012-.053.018.158.287.406.539.763.5.268-.029.789-.207,1.046-.547l-.065-.007c-.073.09-.162.163-.245.219Z"/>
  <path class="cls-2" d="M24.163,22.542c-.046.212-.122.376-.226.493.026-.003.052-.004.078-.005.13-.169.18-.373.202-.476l.047-.189c-.019-.001-.038-.003-.056-.004l-.045.181Z"/>
  <path class="cls-2" d="M22.309,22.786l-.056.017c.149.242.464.398.782.465l.121-.036c-.335-.05-.686-.203-.846-.446Z"/>
  <path class="cls-2" d="M23.53,23.3c.23-.025.382-.137.485-.27-.026.001-.052.002-.078.005-.107.121-.245.191-.413.21-.112.012-.239.007-.369-.012l-.121.036c.174.037.348.048.496.032Z"/>
  <path class="cls-2" d="M19.846,24.943c.069.06.147.091.216.091.057,0,.108-.02.146-.062l.02-.022c.018-.02.03-.042.038-.066-.017-.027-.034-.061-.051-.085l-1.343.398h0s.945-.28.945-.28l.029.025Z"/>
  <path class="cls-2" d="M20.259,25.03c-.019.04-.051.072-.084.103-.021.019-.041.04-.067.05-.021.009-.044.012-.066.01-.123,0-.243-.078-.292-.191l-.88.195.946-.279.028.024c.069.06.147.091.216.091.057,0,.109-.021.147-.062l.021-.022c.018-.019.03-.042.037-.066.003.004.005.009.008.013l-.01.005c.023.039.017.087-.004.127Z"/>
</svg>