<?xml version="1.0" encoding="utf-8"?>
<!-- Generator: Adobe Illustrator 27.0.0, SVG Export Plug-In . SVG Version: 6.00 Build 0)  -->
<svg version="1.1" id="Layer_1" xmlns="http://www.w3.org/2000/svg" xmlns:xlink="http://www.w3.org/1999/xlink" x="0px" y="0px"
	 viewBox="0 0 380 380" style="enable-background:new 0 0 380 380;" xml:space="preserve">
<style type="text/css">
	.st0{fill:#F9A373;}
	.st1{fill:none;}
</style>
<g>
	<g>
		<g>
			<path class="st0" d="M117.203,311.962c0.888-0.828,2.072-1.895,3.848-1.895c2.901,0,6.098,3.197,6.098,5.684
				c0,1.599-0.651,3.02-1.835,4.145l-13.735,12.729l15.512,19.42c0.414,0.473,1.302,1.835,1.302,3.374
				c0,2.782-3.197,5.743-6.157,5.743c-1.48,0-2.842-0.651-3.789-1.776l-15.274-19.005l-5.151,4.855v10.656
				c0,2.072-0.415,5.27-5.625,5.27c-4.144,0-5.743-1.776-5.743-5.27v-40.614c0-2.013,0.415-5.21,5.625-5.21
				c4.026,0,5.743,1.599,5.743,5.21v14.387L117.203,311.962z"/>
			<path class="st0" d="M146.334,355.892c0,2.072-0.414,5.27-5.624,5.27c-4.145,0-5.684-1.776-5.684-5.27v-40.614
				c0-2.013,0.355-5.21,5.565-5.21c4.204,0,5.743,1.776,5.743,5.21V355.892z"/>
			<path class="st0" d="M185.469,342.808v-27.53c0-3.434,1.539-5.21,5.743-5.21c5.21,0,5.625,3.197,5.625,5.21v40.556
				c0,4.025-3.079,5.328-7.815,5.328c-4.204,0-6.512-1.954-7.519-4.263l-13.439-31.023l0.119,2.546v27.471
				c0,3.493-1.599,5.27-5.743,5.27c-5.21,0-5.625-3.197-5.625-5.27v-40.555c0-3.907,2.723-5.328,7.815-5.328
				c4.381,0,6.631,2.19,7.519,4.321l13.439,31.023L185.469,342.808z"/>
			<path class="st0" d="M228.571,311.312c18.116,0,20.662,15.688,20.662,24.392c0,7.519-1.954,24.155-20.662,24.155h-12.788
				c-5.92,0-8.525-2.309-8.525-8.525v-31.496c0-6.572,3.079-8.525,8.525-8.525H228.571z M220.283,321.139
				c-1.066,0-1.658,0.651-1.658,1.658v25.576c0,1.006,0.592,1.717,1.658,1.717h6.927c9.473,0,10.361-10.598,10.361-14.387
				c0-7.992-2.96-14.564-10.361-14.564H220.283z"/>
			<path class="st0" d="M286.416,313.029c1.717-2.605,3.434-2.961,4.736-2.961c3.611,0,6.098,3.257,6.098,5.447
				c0,1.006-0.474,2.25-1.006,3.078l-15.038,22.38v14.919c0,2.072-0.414,5.27-5.624,5.27c-4.204,0-5.743-1.776-5.743-5.27v-14.919
				l-15.038-22.38c-0.415-0.592-1.066-1.775-1.066-2.96c0-2.25,2.368-5.565,6.217-5.565c1.835,0,3.375,1.007,4.677,2.961
				l10.894,16.399L286.416,313.029z"/>
		</g>
	</g>
	<g>
		<g>
			<path class="st1" d="M198.76,236.64l-2.094,5.944c-0.153,0.436-0.512,0.768-0.958,0.889l-6.084,1.645
				c-1.123,0.304-1.411,1.764-0.486,2.471l5.006,3.828c0.367,0.281,0.573,0.724,0.549,1.186l-0.315,6.295
				c-0.058,1.162,1.242,1.887,2.2,1.226l5.188-3.578c0.38-0.262,0.866-0.321,1.297-0.156l5.889,2.245
				c1.087,0.415,2.178-0.598,1.846-1.713l-1.8-6.04c-0.132-0.443-0.038-0.922,0.252-1.282l3.955-4.907
				c0.73-0.906,0.105-2.256-1.059-2.285l-6.3-0.154c-0.462-0.012-0.889-0.249-1.141-0.636l-3.445-5.278
				C200.624,235.364,199.147,235.542,198.76,236.64z"/>
		</g>
		<g>
			<path class="st1" d="M154.331,175.566l-1.071-0.046l0.801-0.711c5.406-4.796,7.145-10.61,5.169-17.283
				c-1.507-5.087-4.897-9.088-9.548-11.266c-2.738-1.283-5.85-1.925-9.23-1.925c-2.927,0-6.054,0.482-9.314,1.447l-17.781,5.268
				c-8.792,2.604-11.203,7.045-8.599,15.838l13.995,47.242c1.334,4.504,3.222,7.332,5.773,8.644
				c2.468,1.272,5.666,1.255,10.065-0.046l19.472-5.767c16.157-4.787,20.342-17.683,17.394-27.638
				C170.281,185.355,166.259,176.072,154.331,175.566z M124.443,179.217l-3.839-12.959c-0.631-2.131,0.229-3.714,2.358-4.345
				l10.13-3.001c3.453-1.022,6.281-0.868,8.408,0.456c1.979,1.234,2.903,3.209,3.329,4.649c0.417,1.406,2.041,8.555-6.906,11.206
				L124.443,179.217z M153.67,201.708c-2.271,2.17-5.333,3.238-6.544,3.597l-10.397,3.079c-0.466,0.138-0.903,0.207-1.311,0.207
				c-0.537,0-1.023-0.121-1.452-0.359c-0.736-0.412-1.268-1.154-1.58-2.207l-4.393-14.828l13.66-4.046
				c3.264-0.967,6.079-1.173,8.368-0.615c2.999,0.732,5.008,2.754,5.973,6.011C157.055,196.137,156.274,199.219,153.67,201.708z"/>
		</g>
		<g>
			<path class="st1" d="M253.502,134.799c-1.696-0.192-3.359-0.287-4.983-0.287c-9.009,0-16.863,2.919-22.931,8.569
				c-6.781,6.314-11.041,15.649-12.319,26.995c-2.124,18.869,5.084,40.1,31.688,43.096c23.563,2.655,33.038-12.845,33.93-20.767
				c0.208-1.843-0.218-3.457-1.23-4.667c-1.135-1.357-2.943-2.184-5.375-2.457c-5.861-0.668-6.794,1.761-8.092,5.113
				c-1.593,3.875-4.5,10.924-18.285,9.378c-7.99-0.9-13.298-4.99-15.774-12.156c-1.499-4.339-1.909-9.647-1.219-15.779
				c0.852-7.565,3.232-13.693,7.074-18.216c3.72-4.479,9.175-6.347,16.207-5.557c13.38,1.507,14.935,9.555,15.521,12.585
				c0.426,2.401,0.861,4.854,6.35,5.473c4.839,0.554,7.751-1.393,8.209-5.456c0.356-3.163-1.163-8.935-5.341-14.135
				C273.27,141.969,266.23,136.231,253.502,134.799z"/>
		</g>
		<g>
			<path class="st1" d="M87.277,109.764l6.768-0.367c0.531-0.029,1.043,0.206,1.368,0.627l4.139,5.367
				c0.818,1.061,2.498,0.723,2.842-0.572l1.742-6.55c0.137-0.514,0.518-0.928,1.019-1.107l6.384-2.279
				c1.262-0.45,1.46-2.152,0.334-2.88l-5.691-3.681c-0.447-0.289-0.723-0.779-0.738-1.311l-0.194-6.775
				c-0.038-1.34-1.596-2.053-2.635-1.208l-5.26,4.275c-0.413,0.336-0.964,0.447-1.475,0.297l-6.504-1.909
				c-1.286-0.377-2.446,0.883-1.963,2.133l2.441,6.323c0.192,0.496,0.127,1.055-0.174,1.494l-3.825,5.595
				C85.099,108.344,85.94,109.837,87.277,109.764z"/>
		</g>
		<g>
			<path class="st1" d="M294.837,100.511l-5.76,0.151c-0.422,0.011-0.823-0.187-1.072-0.528l-3.39-4.66
				c-0.626-0.861-1.967-0.63-2.269,0.39l-1.637,5.525c-0.12,0.405-0.432,0.725-0.833,0.856l-5.479,1.784
				c-1.012,0.329-1.207,1.676-0.33,2.279l4.748,3.264c0.348,0.24,0.556,0.635,0.557,1.057l0.003,5.763
				c0,1.064,1.221,1.665,2.065,1.018l4.572-3.508c0.335-0.257,0.775-0.333,1.177-0.203l5.481,1.778
				c1.012,0.329,1.961-0.646,1.606-1.649l-1.923-5.432c-0.141-0.399-0.077-0.841,0.171-1.183l3.384-4.664
				C296.535,101.687,295.901,100.483,294.837,100.511z"/>
		</g>
		<g>
			<path class="st1" d="M276.052,81.301l5.522-1.648c1.02-0.304,1.248-1.646,0.386-2.27l-4.667-3.38
				c-0.342-0.248-0.541-0.648-0.53-1.071l0.139-5.761c0.026-1.064-1.18-1.695-2.04-1.069l-4.657,3.394
				c-0.342,0.249-0.784,0.314-1.182,0.174l-5.436-1.913c-1.004-0.353-1.977,0.598-1.646,1.61l1.788,5.478
				c0.131,0.402,0.056,0.842-0.2,1.178l-3.498,4.579c-0.646,0.845-0.042,2.065,1.022,2.063l5.762-0.008
				c0.423-0.001,0.818,0.207,1.058,0.554l3.274,4.742c0.604,0.876,1.951,0.678,2.278-0.334l1.773-5.483
				C275.328,81.734,275.647,81.422,276.052,81.301z"/>
		</g>
		<g>
			<path class="st1" d="M165.701,116.162l2.913-11.66l32.61-3.544l5.988,12.049c0.112,0.232,0.236,0.467,0.368,0.703
				c1.087,1.947,2.85,3.896,5.478,3.603c1.493-0.161,3.856-0.897,5.769-2.175c0.653-0.436,1.339-1.009,1.91-1.707
				c0.818-1.001,1.39-2.269,1.22-3.835c-0.143-1.319-0.655-2.706-0.973-3.269l-27.624-55.728c-3.622-7.304-8.101-8.952-12.602-8.952
				c-0.868,0-1.735,0.062-2.599,0.156c-6.998,0.76-10.79,4.297-12.68,11.827l-15.004,60.337c-0.393,1.573-0.288,3.111-0.224,3.699
				c0.072,0.66,0.316,1.26,0.675,1.805c1.247,1.894,3.982,3.08,6.586,3.47c1.011,0.152,2.002,0.189,2.874,0.095
				c1.305-0.142,2.376-0.69,3.211-1.63c0.809-0.911,1.398-2.189,1.755-3.837L165.701,116.162z M178.205,65.758
				c0.496-2.021,1.216-2.94,2.409-3.069c1.116-0.115,1.967,0.599,2.918,2.486l11.636,23.497l-23.185,2.52L178.205,65.758z"/>
		</g>
		<g>
			<path class="st0" d="M190,18.839c-1.076,0-2.15,0.014-3.22,0.041c-2.14,0.054-4.267,0.163-6.379,0.323
				c-2.112,0.161-4.209,0.374-6.29,0.638c-5.203,0.662-10.306,1.643-15.289,2.925c-1.993,0.513-3.967,1.074-5.92,1.681
				c-0.977,0.304-1.948,0.619-2.914,0.946c-1.932,0.654-3.843,1.354-5.732,2.098c-0.359,0.142-0.712,0.293-1.069,0.437l67.642-7.35
				C204.054,19.441,197.098,18.839,190,18.839z"/>
		</g>
		<g>
			<polygon class="st0" points="193.749,137.081 185.651,137.961 191.447,157.527 			"/>
		</g>
		<g>
			<path class="st0" d="M196.442,224.165c-1.402,0.858-2.913,1.555-4.529,2.033l-71.259,21.11c1.21,0.811,2.437,1.597,3.676,2.366
				c1.18,0.732,2.368,1.452,3.573,2.145c1.742,1.001,3.51,1.962,5.303,2.88c3.586,1.837,7.273,3.505,11.05,4.995
				c1.889,0.745,3.8,1.445,5.732,2.098c0.966,0.327,1.938,0.643,2.914,0.946c1.953,0.607,3.927,1.168,5.92,1.681
				c4.982,1.282,10.086,2.264,15.289,2.925c2.081,0.265,4.178,0.478,6.29,0.638c2.112,0.161,4.239,0.269,6.379,0.323
				c1.07,0.027,2.143,0.041,3.22,0.041c23.684,0,45.827-6.6,64.69-18.061c1.715-1.042,3.402-2.124,5.062-3.245
				c5.641-3.811,10.95-8.076,15.883-12.734l-72.732-8.19C200.58,225.855,198.413,225.165,196.442,224.165z M205.846,242.253
				l6.3,0.154c1.164,0.029,1.789,1.379,1.059,2.285l-3.955,4.907c-0.29,0.36-0.384,0.839-0.252,1.282l1.8,6.04
				c0.332,1.116-0.758,2.128-1.846,1.713l-5.889-2.245c-0.432-0.165-0.917-0.106-1.297,0.156l-5.188,3.578
				c-0.958,0.661-2.258-0.064-2.2-1.226l0.315-6.295c0.023-0.461-0.182-0.905-0.549-1.186l-5.006-3.828
				c-0.924-0.707-0.637-2.167,0.486-2.471l6.084-1.645c0.446-0.121,0.804-0.453,0.958-0.889l2.094-5.944
				c0.387-1.098,1.864-1.275,2.5-0.301l3.445,5.278C204.957,242.004,205.384,242.242,205.846,242.253z"/>
		</g>
		<g>
			<path class="st0" d="M314.39,133.994c-0.321-4.224-0.853-8.389-1.585-12.485c-0.366-2.048-0.782-4.079-1.246-6.091
				c-0.697-3.018-1.503-5.994-2.414-8.924c-0.911-2.93-1.928-5.813-3.045-8.646c-1.489-3.777-3.158-7.464-4.995-11.05
				c-0.919-1.793-1.879-3.561-2.88-5.303c-1.002-1.742-2.044-3.457-3.126-5.144c-0.541-0.844-1.092-1.68-1.652-2.51
				c-1.121-1.659-2.281-3.29-3.478-4.891c-1.198-1.601-2.432-3.172-3.704-4.713c-1.271-1.54-2.579-3.05-3.921-4.527
				c-3.356-3.692-6.93-7.183-10.703-10.451c-1.509-1.307-3.05-2.579-4.621-3.813c-4.713-3.704-9.7-7.076-14.924-10.08
				c-1.742-1.001-3.51-1.962-5.303-2.88c-5.727-2.933-11.715-5.429-17.913-7.46c3.508,3.145,5.72,7.387,6.23,12.084l8.194,75.416
				c0.044,0.403,0.053,0.805,0.072,1.206l17.208-26.779c0.519-0.808,1.25-1.375,1.955-1.518c0.457-0.094,0.91-0.007,1.27,0.238
				l2.575,1.758c0.36,0.247,0.602,0.636,0.682,1.097c0.123,0.707-0.14,1.594-0.704,2.371l-18.561,25.577l9.649,1.086l15.307-7.332
				c0.498-0.237,1.059-0.267,1.542-0.085c0.427,0.161,0.758,0.474,0.93,0.88l0.85,1.994c0.173,0.406,0.169,0.861-0.01,1.28
				c-0.202,0.475-0.614,0.858-1.127,1.052l-8.571,3.215l24.665,2.777c5.044,0.567,9.573,3.077,12.754,7.065
				c3.181,3.988,4.62,8.962,4.052,14.006l-6.466,57.423c1.273-2.516,2.469-5.077,3.573-7.688c0.789-1.866,1.534-3.755,2.234-5.665
				c0.35-0.955,0.688-1.916,1.015-2.883c0.654-1.932,1.262-3.886,1.822-5.859c1.962-6.907,3.343-14.058,4.089-21.398
				c0.213-2.097,0.374-4.209,0.482-6.336c0.108-2.126,0.163-4.267,0.163-6.42C314.754,140.363,314.631,137.162,314.39,133.994z
				 M271.147,87.954l-3.274-4.742c-0.24-0.348-0.636-0.555-1.058-0.554l-5.762,0.008c-1.064,0.002-1.668-1.218-1.022-2.063
				l3.498-4.579c0.257-0.336,0.332-0.776,0.2-1.178l-1.788-5.478c-0.33-1.011,0.643-1.963,1.646-1.61l5.436,1.913
				c0.398,0.14,0.841,0.075,1.182-0.174l4.657-3.394c0.86-0.626,2.065,0.005,2.04,1.069l-0.139,5.761
				c-0.01,0.423,0.188,0.823,0.53,1.071l4.667,3.38c0.862,0.624,0.634,1.966-0.386,2.27l-5.522,1.648
				c-0.405,0.121-0.724,0.433-0.854,0.835l-1.773,5.483C273.098,88.632,271.752,88.829,271.147,87.954z M295.91,102.548
				l-3.384,4.664c-0.248,0.342-0.312,0.784-0.171,1.183l1.923,5.432c0.355,1.003-0.594,1.978-1.606,1.649l-5.481-1.778
				c-0.402-0.13-0.842-0.055-1.177,0.203l-4.572,3.508c-0.844,0.648-2.065,0.046-2.065-1.018l-0.003-5.763
				c0-0.423-0.208-0.818-0.557-1.057l-4.748-3.264c-0.877-0.602-0.682-1.949,0.33-2.279l5.479-1.784
				c0.402-0.131,0.714-0.451,0.833-0.856l1.637-5.525c0.302-1.02,1.643-1.251,2.269-0.39l3.39,4.66
				c0.248,0.342,0.649,0.539,1.072,0.528l5.76-0.151C295.901,100.483,296.535,101.687,295.91,102.548z"/>
		</g>
		<g>
			<path class="st0" d="M86.805,138.464l35.489-10.513l-15.208-13.337c-0.585-0.513-0.94-1.157-0.974-1.766
				c-0.023-0.429,0.115-0.829,0.389-1.127l1.115-1.218c0.274-0.299,0.66-0.47,1.089-0.484c0.612-0.036,1.282,0.276,1.844,0.814
				l16.44,15.727l3.133-0.928c-0.04-0.265-0.095-0.524-0.124-0.792l-8.195-75.417c-0.463-4.259,0.52-8.454,2.755-12.053
				c-0.602,0.372-1.205,0.742-1.8,1.123c-0.844,0.541-1.68,1.092-2.51,1.652c-1.659,1.121-3.29,2.281-4.891,3.478
				c-3.202,2.395-6.286,4.94-9.24,7.624c-1.477,1.342-2.922,2.72-4.333,4.131c-1.411,1.411-2.788,2.856-4.131,4.333
				c-2.014,2.216-3.949,4.504-5.801,6.86c-0.617,0.786-1.225,1.579-1.824,2.379c-1.796,2.402-3.508,4.87-5.13,7.401
				c-1.082,1.687-2.124,3.402-3.126,5.144c-1.001,1.742-1.962,3.509-2.88,5.303c-1.837,3.586-3.505,7.273-4.995,11.05
				c-2.234,5.665-4.065,11.534-5.459,17.57c-0.465,2.012-0.88,4.043-1.246,6.091c-0.732,4.096-1.263,8.261-1.585,12.485
				c-0.241,3.168-0.364,6.369-0.364,9.599c0,2.153,0.055,4.293,0.162,6.42c0.108,2.126,0.269,4.239,0.482,6.336
				c0.745,7.339,2.127,14.491,4.089,21.398c0.56,1.973,1.168,3.927,1.822,5.859c0.327,0.966,0.665,1.927,1.015,2.883
				c0.7,1.911,1.444,3.8,2.234,5.665c1.184,2.798,2.467,5.545,3.844,8.235c0.919,1.793,1.879,3.561,2.88,5.303
				c0.501,0.871,1.012,1.735,1.533,2.592c0.864,1.422,1.762,2.82,2.68,4.204c0.743,1.12,1.497,2.231,2.275,3.325
				c0.854,1.201,1.736,2.381,2.631,3.55l-16.948-57.212C70.961,152.074,76.729,141.449,86.805,138.464z M85.855,107.238l3.825-5.595
				c0.3-0.439,0.365-0.998,0.174-1.494l-2.441-6.323c-0.483-1.25,0.678-2.511,1.963-2.133l6.504,1.909
				c0.511,0.15,1.062,0.039,1.475-0.297l5.26-4.275c1.04-0.845,2.597-0.131,2.635,1.208l0.194,6.775
				c0.015,0.532,0.291,1.022,0.738,1.311l5.691,3.681c1.125,0.728,0.927,2.43-0.334,2.88l-6.384,2.279
				c-0.501,0.179-0.882,0.593-1.019,1.107l-1.742,6.55c-0.344,1.295-2.024,1.633-2.842,0.572l-4.139-5.367
				c-0.325-0.421-0.836-0.656-1.368-0.627l-6.768,0.367C85.94,109.837,85.099,108.344,85.855,107.238z"/>
		</g>
		<g>
			<path class="st0" d="M289.876,131.676l-50.309-5.665c-0.126,0.167-0.236,0.342-0.368,0.506
				c-3.196,3.975-7.736,6.466-12.781,7.015l-22.08,2.399l-5.313,47.183l5.747,19.399c1.309,4.418,0.962,9.063-0.931,13.238
				c0.075,0.01,0.148,0.028,0.224,0.037l75.383,8.489c2.284,0.251,4.542-0.4,6.361-1.85c1.817-1.449,2.96-3.506,3.217-5.788
				l8.489-75.385c0.257-2.284-0.399-4.543-1.849-6.36C294.216,133.075,292.16,131.933,289.876,131.676z M283.136,160.763
				c-0.513,4.551-3.851,6.821-9.167,6.221c-6.132-0.691-6.669-3.721-7.101-6.155c-0.607-3.142-2.024-10.467-14.77-11.902
				c-6.723-0.758-11.921,1.01-15.447,5.253c-3.732,4.392-6.045,10.366-6.877,17.756c-0.676,6.002-0.28,11.182,1.176,15.399
				c2.358,6.823,7.423,10.719,15.052,11.577c13.143,1.488,15.777-4.931,17.353-8.762c1.356-3.5,2.502-6.454,9.024-5.729
				c2.661,0.3,4.66,1.228,5.943,2.762c1.168,1.396,1.661,3.236,1.426,5.321c-0.853,7.573-9.224,21.838-29.563,21.839
				c-1.691,0-3.465-0.099-5.325-0.308c-27.239-3.068-34.624-24.769-32.452-44.055c1.301-11.555,5.655-21.074,12.59-27.533
				c7.352-6.846,17.24-9.784,28.601-8.509c13.021,1.466,20.244,7.362,24.01,12.051C281.942,151.382,283.511,157.427,283.136,160.763
				z"/>
		</g>
		<g>
			<path class="st0" d="M253.599,133.937c-11.361-1.275-21.249,1.664-28.601,8.509c-6.935,6.459-11.289,15.978-12.59,27.533
				c-2.172,19.285,5.213,40.987,32.452,44.055c1.86,0.209,3.634,0.308,5.325,0.308c20.339-0.001,28.711-14.266,29.563-21.839
				c0.234-2.084-0.258-3.924-1.426-5.321c-1.282-1.534-3.282-2.462-5.943-2.762c-6.522-0.725-7.668,2.229-9.024,5.729
				c-1.576,3.831-4.209,10.25-17.353,8.762c-7.63-0.858-12.694-4.754-15.052-11.577c-1.456-4.216-1.852-9.397-1.176-15.399
				c0.832-7.39,3.145-13.364,6.877-17.756c3.526-4.243,8.725-6.011,15.447-5.253c12.747,1.435,14.163,8.76,14.77,11.902
				c0.431,2.434,0.969,5.464,7.101,6.155c5.316,0.6,8.654-1.669,9.167-6.221c0.376-3.335-1.194-9.381-5.527-14.775
				C273.843,141.299,266.62,135.403,253.599,133.937z M282.705,160.714c-0.488,4.334-3.709,6.399-8.688,5.838
				c-5.716-0.644-6.266-3.227-6.723-5.8c-0.59-3.054-2.054-10.783-15.148-12.257c-4.426-0.498-11.076-0.313-15.829,5.408
				c-3.983,4.688-6.175,10.884-6.974,17.984c-0.789,7.007-1.554,25.41,16.611,27.455c13.554,1.526,16.29-5.355,17.832-9.104
				c1.316-3.4,2.366-6.083,8.544-5.387c5.348,0.602,7.413,3.823,6.987,7.604c-0.82,7.284-9.974,23.901-34.409,21.149
				c-25.818-2.907-34.354-23.291-32.07-43.575c2.534-22.499,17.107-38.319,40.712-35.66
				C277.248,137.036,283.391,154.628,282.705,160.714z"/>
		</g>
		<g>
			<path class="st0" d="M253.551,134.368c-23.605-2.658-38.179,13.161-40.712,35.66c-2.284,20.285,6.252,40.668,32.07,43.575
				c24.435,2.752,33.589-13.865,34.409-21.149c0.426-3.781-1.639-7.001-6.987-7.604c-6.178-0.696-7.227,1.988-8.544,5.387
				c-1.542,3.749-4.278,10.631-17.832,9.104c-18.165-2.046-17.4-20.449-16.611-27.455c0.8-7.1,2.991-13.296,6.974-17.984
				c4.753-5.721,11.403-5.906,15.829-5.408c13.093,1.474,14.558,9.203,15.148,12.257c0.457,2.573,1.007,5.156,6.723,5.8
				c4.979,0.561,8.2-1.505,8.688-5.838C283.391,154.628,277.248,137.036,253.551,134.368z M282.275,160.666
				c-0.458,4.063-3.37,6.01-8.209,5.456c-5.489-0.618-5.924-3.071-6.35-5.473c-0.586-3.03-2.141-11.077-15.521-12.585
				c-7.033-0.789-12.487,1.078-16.207,5.557c-3.842,4.523-6.222,10.651-7.074,18.216c-0.69,6.131-0.28,11.44,1.219,15.779
				c2.476,7.166,7.783,11.256,15.774,12.156c13.785,1.546,16.692-5.503,18.285-9.378c1.298-3.352,2.23-5.781,8.092-5.113
				c2.432,0.273,4.24,1.1,5.375,2.457c1.012,1.21,1.438,2.824,1.23,4.667c-0.893,7.922-10.367,23.422-33.93,20.767
				c-26.604-2.996-33.813-24.227-31.688-43.096c1.278-11.346,5.538-20.681,12.319-26.995c6.068-5.65,13.922-8.569,22.931-8.569
				c1.624,0,3.287,0.095,4.983,0.287c12.728,1.432,19.768,7.17,23.432,11.732C281.112,151.73,282.631,157.503,282.275,160.666z"/>
		</g>
		<g>
			<path class="st0" d="M194.808,205.469l-2.56-8.63l-3.79-12.79l-13.31-44.95l-24.15,2.63c-0.69,0.07-1.38,0.11-2.07,0.11
				c-5.4,0-10.38-2.3-13.9-6.04c0.02,0.03,0.04,0.07,0.06,0.1l-0.08,0.04c0.18,0.3,0.13,0.68-0.03,0.99
				c-0.15,0.31-0.4,0.56-0.65,0.8c-0.16,0.15-0.32,0.31-0.52,0.39c-0.16,0.07-0.34,0.09-0.51,0.08c-0.96,0-1.89-0.61-2.27-1.49
				l-6.85,1.52l-34.42,10.2c-2.2,0.65-4.03,2.14-5.14,4.18c-1.11,2.04-1.36,4.38-0.71,6.59l21.55,72.73
				c1.36,4.58,6.19,7.2,10.77,5.85l72.16-21.38l0.57-0.17c1.53-0.45,2.86-1.3,3.91-2.46c0.47-0.52,0.89-1.09,1.23-1.72
				C195.208,210.009,195.458,207.669,194.808,205.469z M154.308,217.789l-19.47,5.77c-2.31,0.68-4.31,1.02-6.07,1.02
				c-1.77,0-3.3-0.34-4.64-1.04c-2.77-1.42-4.8-4.42-6.21-9.16l-13.99-47.25c-2.75-9.26-0.09-14.16,9.18-16.91l17.78-5.27
				c7.23-2.14,13.86-1.96,19.16,0.53c4.88,2.28,8.44,6.47,10.01,11.8c1.99,6.71,0.42,12.58-4.67,17.49
				c11.7,0.99,15.7,10.28,16.9,14.31C175.358,199.429,171.038,212.829,154.308,217.789z"/>
		</g>
		<g>
			<path class="st0" d="M149.814,187.379c-2.14-0.522-4.803-0.319-7.917,0.604l-12.829,3.8l4.146,13.998
				c0.245,0.829,0.64,1.4,1.172,1.696c0.544,0.303,1.249,0.329,2.096,0.078l10.397-3.079c1.151-0.34,4.058-1.353,6.192-3.394
				c2.351-2.246,3.054-5.034,2.091-8.287C154.291,189.855,152.492,188.032,149.814,187.379z"/>
		</g>
		<g>
			<path class="st0" d="M144,164.263c-0.384-1.296-1.209-3.07-2.957-4.16c-1.061-0.661-2.335-0.991-3.808-0.991
				c-1.174,0-2.475,0.21-3.896,0.63l-10.13,3.001c-1.673,0.496-2.269,1.596-1.774,3.269l3.593,12.129l12.651-3.748
				C145.63,172.037,144.527,166.044,144,164.263z"/>
		</g>
		<g>
			<path class="st0" d="M144.415,164.14c-0.922-3.114-3.726-7.026-11.199-4.812l-10.13,3.001c-1.868,0.553-2.646,1.848-2.066,3.807
				l3.716,12.544l13.066-3.87C145.542,172.515,145.18,166.72,144.415,164.14z M137.679,174.393l-12.651,3.748l-3.593-12.129
				c-0.495-1.673,0.101-2.773,1.774-3.269l10.13-3.001c1.422-0.421,2.722-0.63,3.896-0.63c1.473,0,2.746,0.33,3.808,0.991
				c1.748,1.09,2.573,2.864,2.957,4.16C144.527,166.044,145.63,172.037,137.679,174.393z"/>
		</g>
		<g>
			<path class="st0" d="M141.775,187.567l-13.244,3.923l4.269,14.413c0.554,1.869,1.848,2.647,3.806,2.067l10.397-3.08
				c3.203-0.949,10.92-4.3,8.574-12.218C153.548,185.822,147.112,185.986,141.775,187.567z M153.072,201.081
				c-2.134,2.04-5.041,3.053-6.192,3.394l-10.397,3.079c-0.847,0.251-1.552,0.226-2.096-0.078c-0.532-0.297-0.927-0.867-1.172-1.696
				l-4.146-13.998l12.829-3.8c3.114-0.923,5.777-1.126,7.917-0.604c2.678,0.653,4.477,2.476,5.348,5.415
				C156.126,196.047,155.422,198.835,153.072,201.081z"/>
		</g>
		<g>
			<path class="st0" d="M172.288,189.079c-1.2-4.03-5.2-13.32-16.9-14.31c5.09-4.91,6.66-10.78,4.67-17.49
				c-1.57-5.33-5.13-9.52-10.01-11.8c-5.3-2.49-11.93-2.67-19.16-0.53l-17.78,5.27c-9.27,2.75-11.93,7.65-9.18,16.91l13.99,47.25
				c1.41,4.74,3.44,7.74,6.21,9.16c1.34,0.7,2.87,1.04,4.64,1.04c1.76,0,3.76-0.34,6.07-1.02l19.47-5.77
				C171.038,212.829,175.358,199.429,172.288,189.079z M154.188,217.379l-19.47,5.76c-8.63,2.56-13.61,0.45-16.38-8.89l-13.99-47.24
				c-2.8-9.43,0.35-13.85,8.89-16.38l17.78-5.26c15.12-4.48,25.6,1.8,28.63,12.03c0.66,2.23,3.05,10.32-5.3,17.73
				c10,0.43,15.44,7.04,17.52,14.07C175.168,200.319,169.848,212.739,154.188,217.379z"/>
		</g>
		<g>
			<path class="st0" d="M154.349,175.133c8.354-7.41,5.955-15.506,5.296-17.731c-3.031-10.231-13.506-16.515-28.63-12.035
				l-17.781,5.267c-8.541,2.53-11.685,6.945-8.891,16.376l13.994,47.242c2.767,9.342,7.746,11.448,16.376,8.891l19.472-5.768
				c15.658-4.639,20.98-17.054,17.686-28.175C169.789,182.171,164.347,175.558,154.349,175.133z M154.062,216.96l-19.472,5.767
				c-4.399,1.302-7.597,1.319-10.065,0.046c-2.55-1.313-4.438-4.141-5.773-8.644l-13.995-47.242
				c-2.604-8.793-0.193-13.234,8.599-15.838l17.781-5.268c3.26-0.965,6.387-1.447,9.314-1.447c3.38,0,6.492,0.643,9.23,1.925
				c4.651,2.178,8.042,6.179,9.548,11.266c1.976,6.673,0.238,12.487-5.169,17.283l-0.801,0.711l1.071,0.046
				c11.928,0.506,15.95,9.789,17.125,13.756C174.405,199.278,170.22,212.173,154.062,216.96z"/>
		</g>
		<g>
			<path class="st0" d="M150.019,186.537c-2.288-0.558-5.104-0.352-8.368,0.615l-13.66,4.046l4.393,14.828
				c0.312,1.053,0.844,1.796,1.58,2.207c0.429,0.238,0.915,0.359,1.452,0.359c0.408,0,0.845-0.07,1.311-0.207l10.397-3.079
				c1.211-0.359,4.273-1.427,6.544-3.597c2.604-2.489,3.385-5.571,2.322-9.16C155.028,189.292,153.018,187.27,150.019,186.537z
				 M147.003,204.89l-10.397,3.08c-1.957,0.58-3.252-0.198-3.806-2.067l-4.269-14.413l13.244-3.923
				c5.338-1.581,11.774-1.745,13.803,5.105C157.923,200.59,150.206,203.941,147.003,204.89z"/>
		</g>
		<g>
			<path class="st0" d="M144.83,164.017c-0.426-1.44-1.35-3.415-3.329-4.649c-2.127-1.324-4.956-1.478-8.408-0.456l-10.13,3.001
				c-2.13,0.631-2.989,2.214-2.358,4.345l3.839,12.959l13.481-3.994C146.872,172.572,145.247,165.423,144.83,164.017z
				 M124.736,178.678l-3.716-12.544c-0.58-1.958,0.197-3.253,2.066-3.807l10.13-3.001c7.473-2.214,10.277,1.699,11.199,4.812
				c0.764,2.58,1.127,8.375-6.614,10.668L124.736,178.678z"/>
		</g>
		<g>
			<path class="st0" d="M232.968,113.649l-8.19-75.42c-0.25-2.28-1.38-4.34-3.2-5.8c-1.56-1.25-3.45-1.92-5.41-1.92
				c-0.31,0-0.62,0.01-0.94,0.05l-75.42,8.19c-2.28,0.25-4.34,1.39-5.8,3.2c-1.45,1.81-2.12,4.07-1.87,6.35l8.08,74.34l0.11,1.08
				c0.16,1.41,0.65,2.73,1.43,3.89c0.48,0.71,1.08,1.35,1.77,1.91c1.18,0.95,2.55,1.55,4,1.8c0.77,0.13,1.56,0.16,2.35,0.07
				l21.22-2.3l5.95-0.65l5.49-0.6l12.7-1.38l5.79-0.63l7.07-0.76l11.75-1.28l5.45-0.59c2.28-0.25,4.34-1.39,5.8-3.2
				c0.04-0.05,0.08-0.11,0.12-0.16c1.13-1.47,1.74-3.22,1.79-5.03C233.018,114.429,233.018,114.039,232.968,113.649z
				 M219.308,115.859c-1.6,1.07-3.5,1.77-5.02,2.11c-0.41,0.1-0.8,0.17-1.14,0.2c-0.54,0.06-1.06,0.02-1.57-0.08
				c-1.88-0.36-3.54-1.77-4.82-4.1c-0.11-0.2-0.22-0.39-0.32-0.6l-5.72-11.5l-31.41,3.41l-2.73,10.92l-0.38,1.54
				c-0.32,1.45-0.8,2.64-1.45,3.59c-1.02,1.49-2.45,2.35-4.27,2.55c-0.37,0.04-0.75,0.06-1.15,0.06c-1.14,0-2.38-0.17-3.58-0.5
				c-2.37-0.64-4.6-1.9-5.69-3.73c-0.35-0.6-0.59-1.25-0.67-1.97c-0.07-0.64-0.18-2.3,0.25-4l15-60.34
				c1.99-7.94,6.01-11.67,13.43-12.48c5.65-0.61,11.51,0.09,16.07,9.27l27.61,55.71c0.4,0.71,0.92,2.23,1.07,3.58
				c0.16,1.45-0.22,2.82-1.08,4.04C221.158,114.379,220.348,115.159,219.308,115.859z"/>
		</g>
		<g>
			<path class="st0" d="M182.758,65.562c-0.914-1.811-1.513-2.022-1.882-2.022c-0.062,0-0.118,0.005-0.168,0.011
				c-0.571,0.062-1.167,0.397-1.661,2.413l-5.929,24.234l20.724-2.251L182.758,65.562z"/>
		</g>
		<g>
			<path class="st0" d="M207.168,113.849c-0.13,0.05-0.27,0.09-0.41,0.14c-0.11-0.2-0.22-0.39-0.32-0.6l-5.72-11.5l-31.41,3.41
				l-2.73,10.92c-0.14-0.01-0.29-0.02-0.44-0.03l2.82-11.29l32.01-3.48l5.86,11.78C206.928,113.419,207.048,113.629,207.168,113.849
				z"/>
		</g>
		<g>
			<path class="st0" d="M183.146,65.37c-1.071-2.123-1.839-2.321-2.484-2.25c-0.83,0.09-1.518,0.632-2.035,2.742l-6.075,24.834
				l21.955-2.385L183.146,65.37z M179.047,65.963c0.494-2.016,1.091-2.351,1.661-2.413c0.05-0.006,0.106-0.011,0.168-0.011
				c0.369,0,0.968,0.211,1.882,2.022l11.084,22.384l-20.724,2.251L179.047,65.963z"/>
		</g>
		<g>
			<path class="st0" d="M221.738,113.539l-0.49-0.05c0.82-1.1,1.31-2.4,1.14-3.94c-0.15-1.39-0.68-2.82-1.03-3.44l-27.61-55.7
				c-4.3-8.68-9.83-9.67-15.64-9.04c-7.84,0.85-11.29,5.15-13.05,12.15l-15,60.34c-0.46,1.82-0.27,3.58-0.24,3.85
				c0.08,0.7,0.32,1.32,0.67,1.89l-0.43,0.13c-0.35-0.6-0.59-1.25-0.67-1.97c-0.07-0.64-0.18-2.3,0.25-4l15-60.34
				c1.99-7.94,6.01-11.67,13.43-12.48c5.65-0.61,11.51,0.09,16.07,9.27l27.61,55.71c0.4,0.71,0.92,2.23,1.07,3.58
				C222.978,110.949,222.598,112.319,221.738,113.539z"/>
		</g>
		<g>
			<path class="st0" d="M221.738,113.539c-0.58,0.84-1.39,1.62-2.43,2.32c-1.6,1.07-3.5,1.77-5.02,2.11
				c-0.92-0.05-1.83-0.01-2.71,0.12c-1.88-0.36-3.54-1.77-4.82-4.1c0.14-0.05,0.28-0.09,0.41-0.14c1.23,2.23,3.16,4.19,5.94,3.89
				c2.08-0.22,6.14-1.61,8.14-4.25L221.738,113.539z"/>
		</g>
		<g>
			<path class="st0" d="M214.288,117.969c-0.41,0.1-0.8,0.17-1.14,0.2c-0.54,0.06-1.06,0.02-1.57-0.08
				C212.458,117.959,213.368,117.919,214.288,117.969z"/>
		</g>
		<g>
			<path class="st0" d="M166.578,116.219l-0.38,1.54c-0.32,1.45-0.8,2.64-1.45,3.59c-0.18,0-0.36,0.01-0.55,0.02
				c1.02-1.32,1.4-2.91,1.58-3.71l0.36-1.47C166.288,116.199,166.438,116.209,166.578,116.219z"/>
		</g>
		<g>
			<path class="st0" d="M156.568,123.219l-0.82,0.24c-2.37-0.64-4.6-1.9-5.69-3.73l0.43-0.13
				C151.648,121.489,154.098,122.689,156.568,123.219z"/>
		</g>
		<g>
			<path class="st0" d="M164.748,121.349c-1.02,1.49-2.45,2.35-4.27,2.55c-0.37,0.04-0.75,0.06-1.15,0.06
				c-1.14,0-2.38-0.17-3.58-0.5l0.82-0.24c1.36,0.28,2.72,0.37,3.86,0.25c1.79-0.2,2.98-1.07,3.77-2.1
				C164.388,121.359,164.568,121.349,164.748,121.349z"/>
		</g>
		<g>
			<path class="st0" d="M150.25,117.664c-0.063-0.589-0.168-2.126,0.224-3.699l15.004-60.337c1.891-7.53,5.683-11.067,12.68-11.827
				c0.864-0.094,1.731-0.156,2.599-0.156c4.501,0,8.98,1.648,12.602,8.952l27.624,55.728c0.318,0.563,0.83,1.95,0.973,3.269
				c0.17,1.566-0.402,2.834-1.22,3.835l0.508,0.057c0.826-1.095,1.31-2.401,1.143-3.939c-0.15-1.384-0.679-2.82-1.027-3.436
				l-27.613-55.707c-4.303-8.679-9.824-9.666-15.635-9.034c-7.841,0.852-11.294,5.147-13.053,12.152l-15.004,60.338
				c-0.455,1.822-0.265,3.576-0.235,3.853c0.075,0.693,0.318,1.317,0.667,1.886l0.438-0.13
				C150.566,118.924,150.321,118.325,150.25,117.664z"/>
		</g>
		<g>
			<path class="st0" d="M207.211,113.006l-5.988-12.049l-32.61,3.544l-2.913,11.66c0.147,0.006,0.293,0.019,0.439,0.028l2.82-11.29
				l32.01-3.478l5.853,11.777c0.106,0.219,0.227,0.435,0.346,0.651c0.136-0.048,0.272-0.095,0.409-0.141
				C207.447,113.473,207.323,113.238,207.211,113.006z"/>
		</g>
		<g>
			<path class="st0" d="M183.533,65.175c-0.951-1.887-1.802-2.601-2.918-2.486c-1.193,0.13-1.913,1.048-2.409,3.069l-6.222,25.434
				l23.185-2.52L183.533,65.175z M178.626,65.861c0.517-2.109,1.205-2.652,2.035-2.742c0.646-0.07,1.414,0.127,2.484,2.25
				l11.359,22.94l-21.955,2.385L178.626,65.861z"/>
		</g>
		<g>
			<path class="st0" d="M218.826,115.137c-1.913,1.278-4.276,2.013-5.769,2.175c-2.628,0.294-4.391-1.656-5.478-3.603
				c-0.137,0.045-0.273,0.092-0.409,0.141c1.232,2.23,3.159,4.194,5.934,3.893c2.088-0.227,6.143-1.609,8.14-4.256l-0.508-0.057
				C220.165,114.128,219.479,114.7,218.826,115.137z"/>
		</g>
		<g>
			<path class="st0" d="M165.35,117.567c-0.357,1.648-0.946,2.926-1.755,3.837c0.203-0.02,0.405-0.028,0.607-0.038
				c1.015-1.318,1.398-2.904,1.571-3.707l0.367-1.469c-0.147-0.009-0.292-0.022-0.439-0.028L165.35,117.567z"/>
		</g>
		<g>
			<path class="st0" d="M150.925,119.469l-0.438,0.13c1.157,1.886,3.611,3.095,6.086,3.618l0.938-0.278
				C154.907,122.549,152.172,121.363,150.925,119.469z"/>
		</g>
		<g>
			<path class="st0" d="M160.431,123.466c1.786-0.194,2.974-1.064,3.771-2.1c-0.202,0.011-0.404,0.019-0.607,0.038
				c-0.835,0.94-1.906,1.489-3.211,1.63c-0.872,0.094-1.863,0.056-2.874-0.095l-0.938,0.278
				C157.927,123.503,159.284,123.59,160.431,123.466z"/>
		</g>
		<g>
			<path class="st0" d="M131.758,136.251c0.538,0.47,1.14,0.71,1.683,0.71c0.441,0,0.843-0.159,1.139-0.483l0.156-0.169
				c0.139-0.152,0.232-0.327,0.296-0.512c-0.134-0.209-0.267-0.477-0.401-0.661l-10.454,3.098l0.002,0l7.355-2.179L131.758,136.251z
				"/>
		</g>
		<g>
			<path class="st0" d="M134.978,136.929c-0.15,0.31-0.4,0.56-0.65,0.8c-0.16,0.15-0.32,0.31-0.52,0.39
				c-0.16,0.07-0.34,0.09-0.51,0.08c-0.96,0-1.89-0.61-2.27-1.49l-6.85,1.52l7.36-2.17l0.22,0.19c0.54,0.47,1.14,0.71,1.68,0.71
				c0.44,0,0.85-0.16,1.14-0.48l0.16-0.17c0.14-0.15,0.23-0.33,0.29-0.51c0.02,0.03,0.04,0.07,0.06,0.1l-0.08,0.04
				C135.188,136.239,135.138,136.619,134.978,136.929z"/>
		</g>
	</g>
</g>
</svg>
