<?xml version="1.0" encoding="utf-8"?>
<!-- Generator: Adobe Illustrator 27.0.0, SVG Export Plug-In . SVG Version: 6.00 Build 0)  -->
<svg version="1.1" id="Layer_1" xmlns="http://www.w3.org/2000/svg" xmlns:xlink="http://www.w3.org/1999/xlink" x="0px" y="0px"
	 viewBox="0 0 380 380" style="enable-background:new 0 0 380 380;" xml:space="preserve">
<style type="text/css">
	.st000{fill:#B0D07E;}
	.st111{fill:none;}
</style>
<g>
	<g>
		<g>
			<path class="st000" d="M110.1,348.148c0,1.065,0.592,1.717,1.658,1.717h17.229c1.599,0,5.032,0.178,5.032,4.796
				c0,4.559-3.02,4.973-5.032,4.973h-21.728c-5.92,0-8.525-2.368-8.525-8.525v-36.056c0-2.013,0.415-5.21,5.625-5.21
				c4.144,0,5.743,1.717,5.743,5.21V348.148z"/>
			<path class="st000" d="M148.702,357.325c-0.651,1.775-1.776,3.611-4.144,3.611c-2.605,0-6.986-1.776-6.986-4.796
				c0-0.355-0.06-1.243,0.474-2.664l12.965-36.233c1.717-4.736,4.44-7.4,9.828-7.4c3.789,0,7.696,0.947,10.005,7.4l12.966,36.233
				c0.118,0.296,0.533,1.421,0.533,2.428c0,3.848-5.269,5.032-7.164,5.032c-2.19,0-3.375-1.836-4.026-3.611l-2.427-6.809H151.13
				L148.702,357.325z M154.623,340.866h12.669l-4.914-13.735c-0.592-1.658-1.125-1.717-1.421-1.717c-0.533,0-1.006,0.354-1.48,1.717
				L154.623,340.866z"/>
			<path class="st000" d="M219.454,342.583v-27.53c0-3.434,1.54-5.21,5.743-5.21c5.21,0,5.625,3.197,5.625,5.21v40.556
				c0,4.025-3.079,5.328-7.815,5.328c-4.204,0-6.513-1.954-7.519-4.263l-13.439-31.023l0.118,2.546v27.471
				c0,3.493-1.599,5.27-5.743,5.27c-5.21,0-5.625-3.197-5.625-5.27v-40.555c0-3.907,2.724-5.328,7.815-5.328
				c4.381,0,6.631,2.19,7.519,4.321l13.439,31.023L219.454,342.583z"/>
			<path class="st000" d="M262.557,311.086c18.116,0,20.662,15.688,20.662,24.392c0,7.519-1.954,24.155-20.662,24.155h-12.788
				c-5.92,0-8.525-2.309-8.525-8.525v-31.496c0-6.572,3.079-8.525,8.525-8.525H262.557z M254.268,320.914
				c-1.066,0-1.658,0.651-1.658,1.658v25.576c0,1.006,0.592,1.717,1.658,1.717h6.927c9.473,0,10.361-10.598,10.361-14.387
				c0-7.992-2.96-14.564-10.361-14.564H254.268z"/>
		</g>
	</g>
	<path class="st111" d="M207.053,43.238c-18.326-0.084-33.137,14.375-33.176,32.386c-0.04,18.306,14.397,32.939,32.549,32.991
		c18.226,0.052,32.857-14.451,32.935-32.649C239.437,58.153,224.793,43.319,207.053,43.238z M206.486,98.651
		c-12.699-0.007-22.795-10.143-22.737-22.828c0.058-12.604,10.314-22.753,22.954-22.714c12.67,0.04,22.73,10.205,22.691,22.931
		C229.356,88.781,219.349,98.658,206.486,98.651z"/>
	<g>
		<path class="st000" d="M190,268.121c34.869,0,66.385-14.338,88.991-37.432c-59.333-0.002-118.666-0.008-177.998-0.017
			C123.599,253.777,155.122,268.121,190,268.121z"/>
		<path class="st000" d="M175.383,121.108c-2.111,6.627-4.048,12.629-5.928,18.649c-0.834,2.67-1.94,4.991-5.114,5.462
			c-3.117,0.462-4.967-1.28-6.609-3.573c-4.451-6.212-8.99-12.361-13.411-18.594c-1.242-1.751-1.941-1.739-2.97,0.175
			c-3.221,5.992-6.505,11.951-9.87,17.863c-3.276,5.757-7.885,5.852-11.456,0.284c-3.874-6.04-7.674-12.128-11.553-18.165
			c-0.508-0.791-0.758-1.908-1.985-2.145c-11.614,20.396-23.228,40.793-34.872,61.242c4.312,13.195,10.764,25.42,18.953,36.263
			c48.589,0,97.07,0,145.787,0C216,186.03,195.844,153.813,175.383,121.108z"/>
		<path class="st000" d="M288.911,150.915c-1.878,5.759-3.66,11.551-5.577,17.297c-1.714,5.139-6.266,6.143-10.017,2.254
			c-0.826-0.856-1.511-1.855-2.216-2.821c-3.582-4.909-7.147-9.829-10.722-14.743c-3.327-4.573-3.305-4.558-6.045,0.356
			c-3.043,5.458-6.005,10.968-9.249,16.305c-2.561,4.213-6.542,4.35-9.747,0.596c-0.712-0.834-1.315-1.771-1.899-2.704
			c-2.785-4.441-5.541-8.901-8.32-13.346c-0.936-1.498-1.909-2.973-2.952-4.591c-2.061,2.368-3.02,5.001-4.519,7.298
			c-0.655,1.004-1.133,2.24-2.217,2.762c-1.837,0.886-1.358,1.831-0.529,3.154c11.124,17.774,22.233,35.557,33.275,53.382
			c1.344,2.17,3.056,2.81,5.5,2.804c11.838-0.028,23.676-0.035,35.515-0.04c9.17-12.063,16.192-25.846,20.49-40.784
			c-6.47-10.01-12.94-20.021-19.42-30.047C289.255,148.92,289.213,149.99,288.911,150.915z"/>
		<path class="st000" d="M131.281,117.965c1.948-3.44,3.744-6.983,5.932-10.264c2.518-3.777,6.136-3.986,9.286-0.758
			c1.149,1.177,2.1,2.556,3.076,3.891c3.897,5.335,7.768,10.689,11.806,16.252c1.792-5.58,3.412-10.84,5.189-16.047
			c0.696-2.04,0.316-3.693-0.798-5.443c-4.693-7.37-9.312-14.787-13.953-22.19c-4.097-6.536-8.187-13.076-12.484-19.939
			c-2.292,4.012-4.336,7.608-6.397,11.195c-5.633,9.802-11.274,19.599-16.908,29.4c-1.402,2.44-2.782,5.022-1.112,7.76
			c3.337,5.47,6.883,10.812,10.544,16.52C127.521,124.666,129.387,121.308,131.281,117.965z"/>
		<path class="st000" d="M239.901,155.469c0.563-0.942,1.04-1.699,1.477-2.478c3.283-5.845,6.521-11.717,9.849-17.537
			c2.495-4.363,6.982-4.655,10.07-0.675c1.973,2.543,3.827,5.178,5.741,7.767c2.819,3.812,5.644,7.619,8.712,11.761
			c1.874-5.838,3.519-11.242,5.368-16.575c0.667-1.924,0.492-3.395-0.633-5.111c-8.206-12.529-16.308-25.126-24.475-37.681
			c-0.407-0.625-0.601-1.545-1.678-1.751c-8.329,14.385-16.651,28.762-24.981,43.134c-0.75,1.295-0.419,2.408,0.344,3.579
			c1.904,2.926,3.691,5.93,5.618,8.841C236.765,150.936,237.835,153.403,239.901,155.469z"/>
		<path class="st111" d="M207.053,43.238c-18.326-0.084-33.137,14.375-33.176,32.386c-0.04,18.306,14.397,32.939,32.549,32.991
			c18.226,0.052,32.857-14.451,32.935-32.649C239.437,58.153,224.793,43.319,207.053,43.238z M206.486,98.651
			c-12.699-0.007-22.795-10.143-22.737-22.828c0.058-12.604,10.314-22.753,22.954-22.714c12.67,0.04,22.73,10.205,22.691,22.931
			C229.356,88.781,219.349,98.658,206.486,98.651z"/>
		<path class="st000" d="M190,19.064c-68.775,0-124.529,55.753-124.529,124.529c0,7.766,0.717,15.364,2.078,22.736
			c2.976-5.232,5.947-10.467,8.923-15.699c18.773-33.001,37.552-65.999,56.327-98.999c0.272-0.479,0.519-0.973,0.808-1.441
			c2.943-4.776,8.065-4.772,11.05,0.013c8.812,14.125,17.614,28.257,26.431,42.378c11.642,18.645,23.295,37.282,34.946,55.921
			c1.58,2.527,1.648,2.534,3.183-0.131c12.891-22.389,25.772-44.783,38.655-67.176c0.275-0.479,0.526-0.972,0.817-1.441
			c2.97-4.772,8.046-4.903,11.151-0.173c4.493,6.843,8.854,13.774,13.288,20.656c13.342,20.707,26.625,41.453,39.991,62.144
			c0.927-6.128,1.41-12.402,1.41-18.789C314.529,74.817,258.775,19.064,190,19.064z M206.426,108.615
			c-18.152-0.052-32.589-14.685-32.549-32.991c0.039-18.011,14.85-32.47,33.176-32.386c17.741,0.081,32.384,14.915,32.308,32.728
			C239.283,94.163,224.652,108.667,206.426,108.615z"/>
		<path class="st000" d="M206.703,53.109c-12.64-0.039-22.896,10.11-22.954,22.714c-0.058,12.685,10.038,22.822,22.737,22.828
			c12.863,0.007,22.87-9.87,22.909-22.611C229.433,63.314,219.374,53.149,206.703,53.109z"/>
	</g>
</g>
</svg>
