<?xml version="1.0" encoding="UTF-8"?>
<svg xmlns="http://www.w3.org/2000/svg" version="1.1" viewBox="10 10 45 45">
  <defs>
    <style>
      .cls-1 {
        fill: none;
      }

      .cls-2 {
        fill: #b0d07e;
      }
    </style>
  </defs>
  <!-- Generator: Adobe Illustrator 28.7.4, SVG Export Plug-In . SVG Version: 1.2.0 Build 166)  -->
  <g transform="translate(5,5)">
    <g id="Layer_2">
      <polygon class="cls-1" points="19.815 18.454 19.115 17.034 18.414 18.454 16.847 18.682 17.981 19.787 17.713 21.347 19.115 20.611 20.516 21.347 20.248 19.787 21.382 18.682 19.815 18.454"/>
      <polygon class="cls-1" points="28.201 15.122 27.5 13.702 26.799 15.122 25.233 15.35 26.366 16.455 26.099 18.015 27.5 17.278 28.901 18.015 28.634 16.455 29.767 15.35 28.201 15.122"/>
      <path class="cls-1" d="M20.372,37.37c1.148.62,2.403.897,3.673,1.078,3.544.506,7.003.076,10.389-1.065.309-.104.606-.27.879-.455.741-.5.838-.875.476-1.695-.365-.826-.288-1.62.272-2.298.544-.658.332-1.404.336-2.119.002-.347-.28-.147-.44-.091-2.089.737-4.176,1.478-6.264,2.218-.44.156-.881.306-1.32.465-1.148.415-2.172-.095-3.213-.457-2.11-.735-4.222-1.465-6.323-2.229-.419-.152-.506-.064-.491.356.022.618.006,1.238.006,1.857,0,.359.034.723-.006,1.078-.189,1.677.717,2.653,2.025,3.359v-.002Z"/>
      <polygon class="cls-1" points="36.586 18.454 35.885 17.034 35.185 18.454 33.618 18.682 34.752 19.787 34.484 21.347 35.885 20.611 37.287 21.347 37.019 19.787 38.153 18.682 36.586 18.454"/>
      <path class="cls-1" d="M39.869,35.097c.898-.835.858-1.89-.092-2.648-.182-.145-.296-.278-.287-.537.037-1.153-.279-2.216-.888-3.173-.226-.355-.135-.474.201-.581.63-.2,1.255-.415,1.882-.622.429-.142.821-.349.81-.884-.01-.492-.357-.687-.782-.834-4.059-1.411-8.113-2.835-12.166-4.263-.536-.189-1.05-.2-1.591-.011-4.46,1.562-8.923,3.116-13.389,4.662-.437.151-.822.339-.811.872.012.567.439.726.895.861,4.341,1.292,8.683,2.582,13.015,3.905.805.246,1.484-.047,2.198-.29,1.895-.646,3.792-1.287,5.688-1.932.066-.022.126-.064.223-.114-.291-.355-.695-.403-1.037-.548-2.006-.853-4.02-1.685-6.032-2.522-.334-.139-.663-.291-.658-.733.006-.421.422-.634.932-.439,1.526.584,3.043,1.19,4.562,1.792,1.067.423,2.134.842,3.171,1.341,1.546.744,2.203,2.046,2.302,3.729.015.253-.115.4-.255.572-.545.67-.587,1.376-.087,2.08.19.267.221.533.224.836.012,1.256-.241,2.509-.034,3.769.016.1.035.2.054.299.79-.676,1.513-1.427,2.158-2.242-.208-.559-.348-1.136-.444-1.73-.044-.271.041-.434.237-.617v.002Z"/>
      <g>
        <path class="cls-1" d="M29.695,14.58c-2.359-.011-4.266,1.851-4.271,4.17-.005,2.357,1.854,4.241,4.191,4.248,2.347.007,4.23-1.861,4.24-4.203.01-2.293-1.876-4.203-4.16-4.214ZM29.623,21.714c-1.635,0-2.935-1.306-2.927-2.939.007-1.623,1.328-2.929,2.955-2.924,1.631.005,2.926,1.314,2.921,2.952-.005,1.64-1.293,2.912-2.949,2.911Z"/>
        <g>
          <path class="cls-2" d="M27.5,43.533c4.489,0,8.547-1.846,11.457-4.819-7.639,0-15.278,0-22.917-.002,2.911,2.975,6.969,4.821,11.459,4.821Z"/>
          <path class="cls-2" d="M25.618,24.605c-.272.853-.521,1.626-.763,2.401-.107.344-.25.643-.658.703-.401.059-.639-.165-.851-.46-.573-.8-1.157-1.591-1.727-2.394-.16-.225-.25-.224-.382.023-.415.771-.838,1.539-1.271,2.3-.422.741-1.015.753-1.475.037-.499-.778-.988-1.561-1.487-2.339-.065-.102-.098-.246-.256-.276-1.495,2.626-2.991,5.252-4.49,7.885.555,1.699,1.386,3.273,2.44,4.669h18.77c-2.621-4.189-5.216-8.337-7.85-12.548Z"/>
          <path class="cls-2" d="M40.235,28.443c-.242.742-.471,1.487-.718,2.227-.221.662-.807.791-1.29.29-.106-.11-.195-.239-.285-.363-.461-.632-.92-1.266-1.38-1.898-.428-.589-.426-.587-.778.046-.392.703-.773,1.412-1.191,2.099-.33.542-.842.56-1.255.077-.092-.107-.169-.228-.245-.348-.359-.572-.713-1.146-1.071-1.718-.121-.193-.246-.383-.38-.591-.265.305-.389.644-.582.94-.084.129-.146.288-.285.356-.237.114-.175.236-.068.406,1.432,2.288,2.863,4.578,4.284,6.873.173.279.393.362.708.361,1.524-.004,3.048-.005,4.572-.005,1.181-1.553,2.085-3.328,2.638-5.251-.833-1.289-1.666-2.578-2.5-3.869-.13.112-.135.25-.174.369Z"/>
          <path class="cls-2" d="M19.94,24.201c.251-.443.482-.899.764-1.322.324-.486.79-.513,1.196-.098.148.152.27.329.396.501.502.687,1,1.376,1.52,2.092.231-.718.439-1.396.668-2.066.09-.263.041-.475-.103-.701-.604-.949-1.199-1.904-1.796-2.857-.527-.841-1.054-1.683-1.607-2.567-.295.516-.558.979-.824,1.441-.725,1.262-1.452,2.523-2.177,3.785-.181.314-.358.647-.143.999.43.704.886,1.392,1.357,2.127.265-.473.506-.906.749-1.336Z"/>
          <path class="cls-2" d="M33.925,29.029c.072-.121.134-.219.19-.319.423-.753.84-1.509,1.268-2.258.321-.562.899-.599,1.296-.087.254.327.493.667.739,1,.363.491.727.981,1.122,1.514.241-.752.453-1.447.691-2.134.086-.248.063-.437-.081-.658-1.057-1.613-2.1-3.235-3.151-4.851-.052-.08-.077-.199-.216-.225-1.072,1.852-2.144,3.703-3.216,5.553-.097.167-.054.31.044.461.245.377.475.763.723,1.138.187.282.325.6.591.866Z"/>
          <path class="cls-1" d="M29.695,14.58c-2.359-.011-4.266,1.851-4.271,4.17-.005,2.357,1.854,4.241,4.191,4.248,2.347.007,4.23-1.861,4.24-4.203.01-2.293-1.876-4.203-4.16-4.214ZM29.623,21.714c-1.635,0-2.935-1.306-2.927-2.939.007-1.623,1.328-2.929,2.955-2.924,1.631.005,2.926,1.314,2.921,2.952-.005,1.64-1.293,2.912-2.949,2.911Z"/>
          <path class="cls-2" d="M27.5,11.467c-8.855,0-16.033,7.178-16.033,16.033,0,1,.092,1.978.268,2.927.383-.674.766-1.348,1.149-2.021,2.417-4.249,4.835-8.497,7.252-12.746.035-.062.067-.125.104-.186.379-.615,1.038-.614,1.423.002,1.135,1.819,2.268,3.638,3.403,5.456,1.499,2.4,2.999,4.8,4.499,7.2.203.325.212.326.41-.017,1.66-2.882,3.318-5.766,4.977-8.649.035-.062.068-.125.105-.185.382-.614,1.036-.631,1.436-.022.578.881,1.14,1.773,1.711,2.659,1.718,2.666,3.428,5.337,5.149,8.001.119-.789.182-1.597.182-2.419,0-8.855-7.178-16.033-16.033-16.033ZM29.615,22.997c-2.337-.007-4.196-1.891-4.191-4.248.005-2.319,1.912-4.18,4.271-4.17,2.284.01,4.169,1.92,4.16,4.214-.01,2.343-1.894,4.21-4.24,4.203Z"/>
          <path class="cls-2" d="M29.651,15.85c-1.627-.005-2.948,1.302-2.955,2.924-.007,1.633,1.292,2.938,2.927,2.939,1.656,0,2.944-1.271,2.949-2.911.005-1.638-1.29-2.947-2.921-2.952Z"/>
        </g>
      </g>
    </g>
  </g>
</svg>