<?xml version="1.0" encoding="utf-8"?>
<!-- Generator: Adobe Illustrator 27.0.0, SVG Export Plug-In . SVG Version: 6.00 Build 0)  -->
<svg version="1.1" id="Layer_1" xmlns="http://www.w3.org/2000/svg" xmlns:xlink="http://www.w3.org/1999/xlink" x="0px" y="0px"
	 viewBox="0 0 380 380" style="enable-background:new 0 0 380 380;" xml:space="preserve">
<style type="text/css">
	.st0{fill:none;}
	.st1{fill:#BC8EBE;}
	.st2{fill:#8ECCDA;}
	.st3{fill:#B0D07E;}
	.st4{fill:#F9A373;}
	.st5{fill:#F78E48;}
</style>
<g>
	<path class="st0" d="M238.318,318.927c1.282-0.05,2.289-0.733,2.872-1.818c0.412-0.767,0.873-0.887,1.656-0.823
		c4.679,0.384,9.355,0.255,14.002-0.397c14.277-2.003,27.826-6.313,40.566-13.067c14.806-7.849,28.168-17.614,39.051-30.462
		c3.007-3.55,5.652-7.295,7.875-11.253c0.301-2.873,0.459-5.789,0.459-8.742c0-3.058-0.171-6.075-0.493-9.047
		c-1.096,5.283-3.305,10.305-6.067,15.188c-5.72,10.113-13.941,17.953-22.974,25.035c-14.918,11.696-31.449,20.076-50.023,24.213
		c-6.997,1.558-14.054,2.654-21.263,2.092c-5.813-0.453-11.311-1.993-16.359-4.954c-3.647-2.139-6.51-5.076-8.596-8.767
		c-0.368-0.651-0.787-1.285-1.266-1.858c-0.905-1.083-2.048-1.401-3.293-0.64c-1.222,0.746-1.536,1.843-1.005,3.2
		c2.273,5.815,5.932,10.549,11.008,14.187c0.456,0.327,0.919,0.643,1.769,1.237c-4.73-0.188-8.898-0.785-13.01-1.763
		c-6.115-1.454-11.868-3.741-16.889-7.617c-0.071-0.055-0.135-0.112-0.205-0.167c3.789,4.946,8.12,9.454,12.909,13.431
		C218.591,318.862,228.417,319.313,238.318,318.927z"/>
	<path class="st0" d="M201.503,207.619c0.4,0.269,0.781,0.587,1.216,0.781c1.584,0.707,2.306,1.689,1.51,3.482
		c-0.36,0.812-0.375,1.774-0.571,2.663c-0.114,0.517-0.094,1.015,0.418,1.257c0.496,0.235,0.951-0.009,1.273-0.422
		c0.758-0.973,1.535-1.934,2.23-2.95c0.39-0.571,0.744-0.752,1.457-0.562c1.342,0.359,2.724,0.567,3.842,0.789
		c0.828-0.057,1.516,0.165,1.733-0.637c0.202-0.746-0.389-1.024-0.886-1.346c-0.99-0.642-1.959-1.315-2.964-1.932
		c-0.576-0.354-0.752-0.691-0.546-1.418c0.466-1.646,0.771-3.339,1.136-5.014c0.105-0.484,0.19-1.01-0.373-1.254
		c-0.609-0.264-0.991,0.097-1.31,0.601c-0.802,1.267-1.654,2.504-2.44,3.781c-0.301,0.489-0.452,0.659-1.188,0.562
		c-1.261-0.166-2.513-0.395-3.773-0.554c-0.643-0.081-1.465-0.006-1.7,0.864C200.361,207.076,201.027,207.3,201.503,207.619z"/>
	<path class="st0" d="M193.365,261.62c3.2-5.338,7.082-10.116,11.633-14.368c1.923-1.796,3.865-3.595,5.396-5.762
		c0.905-1.281,0.813-2.537-0.19-3.482c-1.055-0.995-2.557-1.157-3.681-0.23c-4.064,3.348-8.301,6.486-12.039,10.231
		c-5.171,5.18-9.51,10.941-12.769,17.504c-0.181,0.364-0.24,0.838-0.879,1.078c0.668-3.092,1.8-5.895,3.14-8.619
		c5.163-10.496,12.545-19.233,21.446-26.714c14.279-12.001,30.151-21.078,48.303-25.855c7.355-1.936,14.806-3.21,22.461-2.826
		c8.906,0.446,16.992,2.979,23.66,9.191c1.206,1.124,2.646,1.083,3.746,0c1.161-1.143,1.151-2.78,0.022-4.05
		c-2.895-3.257-6.003-6.263-9.86-8.477c3.94-0.265,7.807,0.104,11.631,0.83c5.863,1.113,11.602,2.782,16.051,6.962
		c8.574,8.055,10.806,18.075,7.881,29.207c-2.883,10.971-9.879,19.117-18.776,25.825c-12.189,9.191-26.031,14.619-40.761,18.051
		c-10.593,2.468-21.302,3.569-32.176,2.605c-5.934-0.526-11.701-1.611-16.887-4.796c-5.416-3.327-7.351-8.013-5.71-14.172
		c1.904-7.146,6.279-12.696,11.846-17.264c11.103-9.11,23.95-14.37,38.121-16.422c5.228-0.757,10.487-1.096,15.728,0.007
		c2.06,0.434,4.031,1.122,5.861,2.172c3.621,2.076,4.709,4.919,3.261,8.851c-1.59,4.315-4.42,7.765-8.099,10.421
		c-8.717,6.294-18.302,10.093-29.269,9.559c-1.881-0.091-3.758-0.298-5.51-1.06c-2.553-1.11-3.335-3.086-2.242-5.659
		c0.772-1.818,1.969-3.363,3.505-4.565c6.03-4.72,12.696-7.597,20.563-6.816c1.2,0.119,2.61,0.271,3.044,1.431
		c0.438,1.17-0.283,2.382-1.166,3.322c-3.209,3.417-7.263,5.041-11.835,5.555c-1.871,0.21-2.946,1.162-2.899,2.587
		c0.048,1.462,1.182,2.508,3.03,2.449c6.979-0.225,12.831-2.798,17.048-8.543c4.395-5.987,0.244-11.962-5.595-12.773
		c-11.362-1.577-21.139,2.013-28.905,10.491c-2.877,3.141-4.599,6.992-3.527,11.406c1.281,5.275,5.241,7.966,10.197,8.902
		c6.203,1.171,12.433,0.443,18.538-1.08c9.804-2.444,18.132-7.491,25.122-14.704c3.773-3.893,5.661-8.739,5.732-14.152
		c0.082-6.276-4.741-12.117-11.795-14.566c-5.274-1.831-10.756-2.185-16.239-1.737c-18.643,1.526-34.972,8.723-49.171,20.752
		c-4.503,3.815-7.918,8.594-10.472,13.965c-5.054,10.631-2.511,25.173,12.344,30.652c7.817,2.883,15.844,3.856,24.087,3.371
		c23.117-1.362,44.335-8.812,64.099-20.534c9.684-5.743,17.781-13.373,23.909-22.908c4.036-6.281,6.184-13.073,6.362-20.35
		c-2.18-6.643-5.173-12.918-8.869-18.701c-0.176,0.191-0.354,0.392-0.536,0.613c-5.153-7.923-12.84-11.966-21.714-14.142
		c-9.056-2.221-18.249-1.894-27.443-1.314c-1.471,0.093-2.683,0.918-3.345,2.24c-0.421,0.842-0.944,0.976-1.765,0.918
		c-5.07-0.359-10.098,0.059-15.102,0.875c-12.024,1.959-23.411,5.858-34.174,11.511c-14.929,7.841-28.47,17.534-39.252,30.664
		c-3.584,4.365-6.818,8.926-9.389,13.82c0.097,12.992,3.183,25.271,8.606,36.186c-0.298-1.302-0.514-2.647-0.65-4.035
		C186.202,276.506,189.024,268.862,193.365,261.62z"/>
	<path class="st0" d="M223.452,187.472c2.158,1.076,4.32,2.145,6.465,3.246c0.331,0.17,1.081,0.191,0.507,0.947
		c-0.649,0.854-1.167,1.739,0.131,2.553c0.146,0.092,0.084,0.603,0.034,0.906c-0.238,1.428-0.484,2.856-0.77,4.275
		c-0.16,0.794-0.533,1.68,0.459,2.113c1.106,0.483,1.344-0.57,1.694-1.232c1.219-2.312,2.393-4.649,3.563-6.934
		c1.191,0.524,2.213,2.45,3.4,0.112c0.052-0.103,0.583,0.019,0.887,0.063c1.593,0.229,3.183,0.48,4.778,0.694
		c0.544,0.073,1.115,0.06,1.318-0.616c0.205-0.682-0.287-0.963-0.773-1.217c-1.9-0.993-3.794-1.997-5.709-2.96
		c-0.93-0.467-2.3-0.649-1.075-2.17c0.077-0.096,0.076-0.38-0.005-0.458c-1.229-1.191-0.315-2.522-0.227-3.775
		c0.09-1.28,0.39-2.543,0.541-3.821c0.071-0.604-0.036-1.254-0.764-1.406c-0.675-0.141-0.888,0.446-1.13,0.931
		c-1.264,2.537-2.534,5.071-3.883,7.769c-0.773-0.609-1.578-1.609-2.382-0.791c-0.749,0.761-1.386,0.519-2.123,0.429
		c-1.491-0.181-2.975-0.419-4.467-0.586c-0.579-0.065-1.251-0.113-1.439,0.672C222.295,186.997,222.922,187.208,223.452,187.472z"/>
	<path class="st0" d="M314.155,311.066c-0.912-0.453-1.813-0.93-2.71-1.413c-0.908-0.489-2.532-0.65-1.079-2.276
		c0.081-0.091,0.087-0.409,0.022-0.449c-1.508-0.926-0.342-2.296-0.584-3.365c0-0.221,0-0.383,0-0.544
		c0.001-0.59,0.089-1.281-0.632-1.491c-0.865-0.253-1.054,0.521-1.337,1.079c-0.558,1.099-1.086,2.214-1.667,3.3
		c-0.161,0.301-0.216,0.928-0.653,0.789c-1.353-0.427-2.665,0.59-4.041-0.03c-0.707-0.319-1.575-0.29-2.374-0.395
		c-0.5-0.066-1.02-0.039-1.19,0.546c-0.164,0.562,0.204,0.89,0.667,1.135c1.422,0.752,2.848,1.496,4.251,2.281
		c0.298,0.167,0.949,0.24,0.799,0.644c-0.531,1.433,0.605,2.833-0.039,4.27c-0.277,0.617-0.227,1.373-0.389,2.05
		c-0.144,0.605-0.06,1.091,0.552,1.32c0.59,0.22,0.899-0.219,1.136-0.65c0.801-1.456,1.573-2.927,2.373-4.383
		c0.147-0.269,0.496-0.732,0.536-0.71c1.416,0.77,2.843-0.697,4.265,0.042c0.408,0.212,0.94,0.209,1.42,0.252
		c0.614,0.055,1.318,0.31,1.603-0.59C315.361,311.608,314.753,311.363,314.155,311.066z"/>
	<path class="st0" d="M324.177,300.894c-1.739-0.785-2.53-1.869-1.754-3.856c0.308-0.789,1.077-2.048-0.1-2.566
		c-1.221-0.537-1.553,0.968-1.935,1.693c-0.725,1.378-1.673,1.815-3.083,1.386c-0.873-0.265-1.823-0.468-2.263,0.484
		c-0.496,1.072,0.648,1.361,1.278,1.684c1.157,0.594,1.559,1.333,1.018,2.553c-0.126,0.284-0.083,0.638-0.162,0.948
		c-0.16,0.626-0.472,1.34,0.303,1.705c0.745,0.351,1.247-0.241,1.541-0.812c0.842-1.634,2.042-2.152,3.762-1.424
		c0.234,0.099,0.531,0.049,1.064,0.087c0.275,0.028,0.879,0.128,1.128-0.505C325.257,301.549,324.707,301.133,324.177,300.894z"/>
	<path class="st1" d="M336.466,272.361c-10.883,12.847-24.245,22.612-39.051,30.462c-12.74,6.754-26.289,11.064-40.566,13.067
		c-4.647,0.652-9.323,0.781-14.002,0.397c-0.783-0.064-1.244,0.056-1.656,0.823c-0.583,1.085-1.589,1.768-2.872,1.818
		c-9.901,0.387-19.728-0.065-29.28-2.79c14.351,11.919,32.789,19.087,52.902,19.087c42.808,0,78.031-32.465,82.399-74.116
		C342.118,265.066,339.473,268.811,336.466,272.361z M315.084,312.48c-0.285,0.9-0.988,0.645-1.603,0.59
		c-0.48-0.043-1.012-0.04-1.42-0.252c-1.422-0.739-2.849,0.728-4.265-0.042c-0.04-0.022-0.389,0.441-0.536,0.71
		c-0.799,1.457-1.572,2.927-2.373,4.383c-0.237,0.432-0.546,0.87-1.136,0.65c-0.612-0.228-0.696-0.715-0.552-1.32
		c0.162-0.677,0.112-1.434,0.389-2.05c0.645-1.437-0.492-2.837,0.039-4.27c0.15-0.405-0.501-0.477-0.799-0.644
		c-1.403-0.785-2.83-1.529-4.251-2.281c-0.463-0.245-0.831-0.572-0.667-1.135c0.17-0.585,0.69-0.611,1.19-0.546
		c0.798,0.105,1.667,0.076,2.374,0.395c1.375,0.621,2.688-0.397,4.041,0.03c0.437,0.138,0.492-0.488,0.653-0.789
		c0.581-1.087,1.108-2.202,1.667-3.3c0.284-0.558,0.472-1.332,1.337-1.079c0.721,0.211,0.633,0.901,0.632,1.491
		c0,0.161,0,0.323,0,0.544c0.242,1.069-0.924,2.439,0.584,3.365c0.065,0.04,0.06,0.358-0.022,0.449
		c-1.453,1.626,0.171,1.787,1.079,2.276c0.897,0.483,1.797,0.96,2.71,1.413C314.753,311.363,315.361,311.608,315.084,312.48z
		 M324.973,302.271c-0.249,0.632-0.853,0.532-1.128,0.505c-0.533-0.038-0.83,0.012-1.064-0.087c-1.72-0.727-2.92-0.21-3.762,1.424
		c-0.294,0.571-0.797,1.163-1.541,0.812c-0.775-0.366-0.463-1.079-0.303-1.705c0.079-0.31,0.036-0.664,0.162-0.948
		c0.541-1.22,0.139-1.959-1.018-2.553c-0.629-0.323-1.774-0.613-1.278-1.684c0.441-0.952,1.391-0.749,2.263-0.484
		c1.41,0.429,2.358-0.009,3.083-1.386c0.382-0.725,0.714-2.23,1.935-1.693c1.177,0.517,0.408,1.777,0.1,2.566
		c-0.776,1.987,0.015,3.072,1.754,3.856C324.707,301.133,325.257,301.549,324.973,302.271z"/>
	<g>
		<path class="st1" d="M220.718,277.925c5.186,3.186,10.953,4.27,16.887,4.797c10.874,0.964,21.583-0.137,32.176-2.605
			c14.73-3.431,28.573-8.86,40.761-18.051c8.897-6.708,15.893-14.855,18.775-25.825c2.925-11.131,0.693-21.152-7.881-29.207
			c-0.067-0.063-0.141-0.114-0.209-0.176c-10.182,7.708-21.906,13.484-34.638,16.759c6.598,2.607,11.046,8.223,10.967,14.248
			c-0.071,5.413-1.96,10.259-5.732,14.152c-6.99,7.213-15.318,12.26-25.122,14.704c-6.106,1.522-12.335,2.251-18.538,1.08
			c-4.956-0.936-8.915-3.627-10.197-8.902c-1.072-4.413,0.65-8.264,3.527-11.406c7.766-8.478,17.542-12.068,28.905-10.491
			c5.839,0.811,9.99,6.786,5.595,12.773c-4.217,5.745-10.069,8.319-17.048,8.543c-1.848,0.06-2.982-0.987-3.03-2.449
			c-0.047-1.425,1.028-2.376,2.899-2.587c4.572-0.514,8.626-2.138,11.835-5.555c0.883-0.94,1.604-2.151,1.166-3.322
			c-0.434-1.16-1.844-1.312-3.044-1.431c-7.867-0.781-14.533,2.097-20.563,6.816c-1.536,1.202-2.733,2.747-3.505,4.565
			c-1.093,2.572-0.311,4.548,2.242,5.659c1.751,0.762,3.629,0.968,5.509,1.06c10.968,0.533,20.552-3.265,29.269-9.559
			c3.679-2.656,6.509-6.106,8.099-10.421c1.449-3.931,0.36-6.774-3.261-8.851c-1.83-1.049-3.801-1.738-5.861-2.172
			c-5.241-1.104-10.5-0.764-15.728-0.007c-14.17,2.051-27.018,7.311-38.121,16.422c-4.836,3.968-8.768,8.68-10.966,14.533
			c-0.272,3.037-0.687,6.03-1.229,8.98C215.287,273.199,217.311,275.832,220.718,277.925z"/>
		<path class="st1" d="M220.352,242.315c8.721-7.389,18.25-12.945,28.621-16.494c-9.127-1.216-17.853-3.678-26.001-7.222
			c-3.542,2.153-6.988,4.484-10.346,6.976c1.893,6.722,3.106,13.729,3.517,20.952C217.429,245.024,218.823,243.61,220.352,242.315z"
			/>
		<path class="st1" d="M210.847,212.275c-0.594-0.116-1.206-0.244-1.811-0.406c-0.6-0.16-0.944-0.041-1.271,0.335
			c0.993,2.219,1.927,4.47,2.756,6.773c1.812-1.278,3.654-2.517,5.532-3.71C214.282,214.324,212.55,213.32,210.847,212.275z"/>
		<path class="st1" d="M334.317,246.861c-6.128,9.535-14.225,17.165-23.909,22.908c-19.764,11.722-40.981,19.172-64.099,20.534
			c-8.243,0.486-16.27-0.487-24.087-3.371c-4.351-1.605-7.617-4-9.974-6.834c-2.708,9.135-6.71,17.707-11.794,25.517
			c3.963,2.276,8.267,3.805,12.769,4.875c4.112,0.978,8.28,1.574,13.01,1.763c-0.85-0.594-1.313-0.91-1.769-1.237
			c-5.076-3.638-8.735-8.372-11.008-14.187c-0.53-1.357-0.216-2.454,1.005-3.2c1.246-0.761,2.388-0.442,3.294,0.64
			c0.479,0.572,0.898,1.207,1.266,1.858c2.086,3.691,4.949,6.627,8.596,8.766c5.048,2.961,10.547,4.5,16.359,4.954
			c7.209,0.563,14.266-0.534,21.263-2.092c18.575-4.137,35.106-12.517,50.024-24.213c9.033-7.082,17.254-14.922,22.974-25.035
			c2.761-4.882,4.97-9.905,6.067-15.188c-0.63-5.804-1.86-11.427-3.626-16.808C340.501,233.788,338.354,240.58,334.317,246.861z"/>
		<path class="st1" d="M331.81,207.81c-1.346-2.107-2.816-4.124-4.342-6.096c-0.362,0.324-0.735,0.636-1.102,0.955
			c1.808,1.653,3.466,3.538,4.908,5.754C331.456,208.202,331.634,208.001,331.81,207.81z"/>
	</g>
	<path class="st0" d="M118.558,177.928l-0.139-0.001c-2.401,0-4.083,1.804-4.09,4.388c-0.019,6.795-0.02,13.877-0.001,21.648
		c0.006,2.62,1.661,4.381,4.118,4.381l0.094-0.001c2.425-0.044,3.999-1.758,4.009-4.367c0.009-2.507,0.007-5.016,0.005-7.523v-6.488
		c0.002-2.546,0.004-5.092-0.005-7.638C122.538,179.724,120.972,177.998,118.558,177.928z"/>
	<path class="st0" d="M75.543,203.468l-4.224-4.219c-0.903-0.903-1.934-1.401-2.902-1.401l-0.122,0.003
		c-1.999,0.049-3.348,0.899-3.996,2.522c-0.686,1.715-0.334,3.333,1.018,4.679c2.611,2.598,5.216,5.204,7.82,7.809
		c2.499,2.5,4.999,5,7.505,7.495c0.963,0.958,2.079,1.465,3.229,1.465c1.056,0,2.046-0.43,2.864-1.244
		c1.73-1.721,1.637-4.237-0.226-6.118C82.869,210.78,79.206,207.124,75.543,203.468z"/>
	<path class="st0" d="M189.912,257.086c-0.223,0.04-0.41,0.059-0.57,0.059c-0.435,0-0.721-0.115-1.167-0.764
		c-3.806-5.537-8.562-9.444-14.176-11.659l6.324,0.007c2.187,0,1.612-0.005,3.798-0.026c2.401-0.022,4.162-1.747,4.188-4.102
		c0.012-1.136-0.423-2.24-1.194-3.026c-0.728-0.741-1.703-1.155-2.745-1.163c-4.58-0.036-8.368-0.053-11.921-0.053
		c-3.805,0-7.277,0.02-10.614,0.059c-1.437,0.018-2.672,0.716-3.388,1.915c-0.765,1.283-0.786,2.881-0.056,4.274
		c0.034,0.065,0.071,0.124,0.111,0.179c-3.216,0.248-3.835,0.689-7.109,1.877c-0.012,0.005-0.024,0.009-0.034,0.012
		c0-0.023,0-0.048,0-0.076c0.02-1.899-0.191-3.924-0.661-6.372c-2.853-14.828-15.705-26.593-30.557-27.975
		c-1.169-0.109-2.353-0.164-3.519-0.164c-14.73,0-27.654,8.666-32.924,22.076c-1.784,4.538-2.553,9.23-2.381,14.615
		c-1.253-1.591-2.503-3.033-3.947-4.3c-0.212-0.186-0.235-0.246-0.193-0.489c0.337-1.907,0.135-3.231-0.635-4.167
		c-0.787-0.957-2.106-1.422-4.151-1.461l-0.288-0.003c-0.498,0-0.998,0.023-1.497,0.046c-0.479,0.022-0.958,0.045-1.435,0.045
		c-0.952,0-1.672-0.093-2.336-0.302c-3.274-1.03-6.635-1.552-9.992-1.552c-0.716,0-1.443,0.024-2.163,0.07
		c-7.464,0.485-13.679,2.723-18.627,6.651c-0.466,3.555-0.709,7.18-0.709,10.862c0,0.561,0.01,1.12,0.021,1.679
		c4.338-7.312,11.857-11.546,20.975-11.546c4.668,0,9.073,1.186,12.404,3.339c3.198,2.067,5.518,4.313,7.091,6.865
		c1.798,2.917,4.079,4.276,7.177,4.276c0.781,0,1.602-0.085,2.51-0.259c1.295-0.249,2.568-0.375,3.784-0.375
		c3.965,0,7.492,1.328,10.481,3.947c0.078,0.068,0.157,0.135,0.237,0.202c0.201,0.168,0.391,0.327,0.522,0.493
		c2.404,3.059,5.75,3.567,8.396,3.668c5.687,0.216,9.768,2.695,12.129,7.366c0.822,1.624,1.206,3.514,1.21,5.946
		c0,0.025,0,0.048-0.001,0.069c-0.018-0.006-0.038-0.012-0.059-0.02c-2.644-0.921-5.427-1.388-8.271-1.388
		c-1.875,0-3.822,0.203-5.789,0.603c-0.065,0.013-0.123,0.02-0.177,0.02c-0.131,0-0.176-0.017-0.428-0.417
		c-0.06-0.095-0.12-0.19-0.185-0.282c-4.594-6.53-10.122-10.619-16.9-12.502c-2.966-0.824-6.089-1.242-9.284-1.242
		c-14.206,0-25.518,7.854-30.258,21.009c-0.403,1.118-0.948,1.637-2.083,1.98c-1.955,0.593-3.73,1.448-5.307,2.544
		c1.146,2.374,2.402,4.684,3.761,6.926c1.116-0.808,2.37-1.468,3.742-1.942c3.747-1.296,5.939-3.445,7.331-7.187
		c4.271-11.481,14.621-15.572,22.883-15.572c5.271,0,10.32,1.573,13.85,4.317c2.712,2.106,4.629,4.143,6.033,6.411
		c1.57,2.536,3.689,3.769,6.478,3.769c0.674,0,1.404-0.074,2.168-0.221c1.463-0.281,2.886-0.424,4.229-0.424
		c4.81,0,8.944,1.844,12.287,5.478c1.633,1.775,3.725,2.663,6.397,2.714c6.206,0.118,10.427,2.327,12.906,6.753
		c2.088,3.731,2.219,8.043,0.358,11.83c-1.919,3.905-5.556,6.521-9.979,7.176c-1.316,0.195-2.563,0.29-3.814,0.29h-0.036
		c-6.784-0.009-13.569-0.011-20.353-0.011l-38.556,0.006c-1.583,0-3.166-0.003-4.748-0.004c3.912,2.94,8.095,5.539,12.501,7.758
		c9.322,0.009,18.597,0.014,27.752,0.014c6.842,0,13.685-0.002,20.527-0.007l2.04,0.004c1.754,0,3.795-0.026,5.825-0.342
		c10.325-1.611,17.812-9.979,17.801-19.896c-0.001-0.694,0.09-0.89,0.145-0.945c0.053-0.053,0.244-0.144,0.925-0.144
		c8.676,0.026,17.435,0.035,26.101,0.038c1.853-2.241,3.586-4.584,5.199-7.014l-2.556-0.001c-3.187-0.005-6.375-0.034-9.563-0.064
		c-3.419-0.032-6.955-0.065-10.434-0.065c-3.846,0-7.216,0.041-10.301,0.125c0,0-0.29,0.009-0.375,0.009
		c-0.361,0-0.494-0.021-0.675-0.432c-3.571-8.112-10.136-12.396-19.513-12.733c-1.497-0.054-2.29-0.838-3.209-1.746
		c-0.343-0.339-0.697-0.688-1.097-1.007c0.005-0.018,0.01-0.034,0.014-0.049c0.032-0.104,0.062-0.209,0.08-0.309
		c0.514-2.836,0.559-5.163,0.14-7.324c-0.104-0.543-0.02-0.718,0.454-0.935l0.129-0.059c1.059-0.485,2.059-0.943,3.134-1.249
		c2.747-0.785,4.627-2.59,5.587-5.368c1.689-4.89,4.194-8.648,7.657-11.49c4.301-3.53,9.767-5.474,15.392-5.474
		c7.853,0,15.241,3.734,19.762,9.987l0.044,0.062c0.236,0.326,0.473,0.652,0.689,0.991c1.488,2.335,3.544,3.519,6.112,3.519
		c0.632,0,1.307-0.072,2.007-0.214c1.55-0.315,3.049-0.475,4.457-0.475c1.747,0,3.383,0.236,4.945,0.713
		c0.345-2.345,0.59-4.723,0.734-7.127c-1.768-0.412-3.616-0.625-5.547-0.625C193.622,256.59,191.79,256.757,189.912,257.086z
		 M143.141,246.319c0.067,1.891-0.553,3.248-2.075,4.536c-3.677,3.111-6.434,7.381-8.43,13.052
		c-0.326,0.926-0.756,1.345-1.646,1.602c-0.586,0.169-1.155,0.458-1.705,0.737c-0.653,0.332-1.329,0.675-1.813,0.675
		c-0.069,0-0.131-0.007-0.19-0.021c-0.387-0.094-0.832-0.851-1.226-1.519c-0.307-0.521-0.625-1.06-1.013-1.501
		c-4.098-4.658-9.491-7.034-16.487-7.264c-0.965-0.032-1.54-0.271-2.121-0.882c-4.29-4.515-9.619-6.951-15.836-7.242
		c-0.789-0.037-0.937-0.121-1.024-1.084c-1.295-14.24,9.542-27.479,23.665-28.911c0.992-0.1,1.994-0.152,2.977-0.152
		c13.531,0,24.5,9.435,26.677,22.945c0.138,0.853,0.183,1.715,0.231,2.627c0.018,0.334,0.035,0.667,0.057,1
		c-0.026,0.069-0.041,0.142-0.041,0.217l-0.003,0.359C143.133,245.769,143.131,246.044,143.141,246.319z"/>
	<path class="st0" d="M167.417,197.873c-0.026-0.004-0.103-0.007-0.181-0.007c-0.948,0-1.893,0.422-2.66,1.188l-3.572,3.558
		c-3.976,3.958-8.086,8.051-12.087,12.12c-0.814,0.828-1.256,1.879-1.246,2.961c0.011,1.081,0.463,2.113,1.274,2.906
		c0.815,0.797,1.803,1.219,2.859,1.219c1.102,0,2.205-0.483,3.108-1.36c1.087-1.057,2.156-2.133,3.225-3.208l1.347-1.352
		l3.105-3.107c2.586-2.59,5.173-5.18,7.771-7.758c1.343-1.334,1.685-2.953,0.989-4.684
		C170.697,198.731,169.338,197.874,167.417,197.873z"/>
	<path class="st2" d="M155.066,305.049c-0.055,0.055-0.146,0.251-0.145,0.945c0.011,9.917-7.476,18.285-17.801,19.896
		c-2.03,0.316-4.071,0.342-5.825,0.342l-2.04-0.004c-6.842,0.005-13.685,0.007-20.527,0.007c-9.154,0-18.43-0.005-27.752-0.014
		c11.193,5.638,23.837,8.818,37.225,8.818c25.714,0,48.692-11.714,63.89-30.097c-8.666-0.003-17.425-0.012-26.101-0.038
		C155.31,304.906,155.119,304.996,155.066,305.049z"/>
	<path class="st2" d="M111.78,318.461c6.784,0,13.569,0.002,20.353,0.011h0.036c1.251,0,2.499-0.095,3.814-0.29
		c4.422-0.655,8.06-3.271,9.979-7.176c1.861-3.787,1.73-8.099-0.358-11.83c-2.479-4.426-6.7-6.635-12.906-6.753
		c-2.671-0.051-4.764-0.939-6.397-2.714c-3.343-3.634-7.477-5.478-12.287-5.478c-1.343,0-2.766,0.143-4.229,0.424
		c-0.764,0.147-1.494,0.221-2.168,0.221c-2.789,0-4.908-1.233-6.478-3.769c-1.403-2.267-3.32-4.304-6.033-6.411
		c-3.531-2.743-8.579-4.317-13.85-4.317c-8.262,0-18.612,4.091-22.883,15.572c-1.392,3.742-3.584,5.891-7.331,7.187
		c-1.372,0.474-2.627,1.134-3.742,1.942c5.508,9.084,12.714,17.024,21.176,23.383c1.583,0.001,3.165,0.004,4.748,0.004
		L111.78,318.461z"/>
	<path class="st2" d="M190.768,264.105c-0.7,0.142-1.375,0.214-2.007,0.214c-2.567,0-4.624-1.184-6.112-3.519
		c-0.216-0.338-0.453-0.665-0.689-0.991l-0.044-0.062c-4.522-6.254-11.909-9.987-19.762-9.987c-5.625,0-11.091,1.944-15.392,5.474
		c-3.463,2.842-5.968,6.6-7.657,11.49c-0.959,2.778-2.839,4.584-5.587,5.368c-1.075,0.306-2.075,0.764-3.134,1.249l-0.129,0.059
		c-0.474,0.217-0.559,0.392-0.454,0.935c0.419,2.16,0.374,4.488-0.14,7.324c-0.018,0.1-0.048,0.204-0.08,0.309
		c-0.004,0.015-0.009,0.032-0.014,0.049c0.4,0.319,0.754,0.668,1.097,1.007c0.919,0.909,1.712,1.693,3.209,1.746
		c9.377,0.337,15.942,4.621,19.513,12.733c0.181,0.411,0.315,0.432,0.675,0.432c0.086,0,0.375-0.009,0.375-0.009
		c3.085-0.084,6.455-0.125,10.301-0.125c3.479,0,7.014,0.033,10.434,0.065c3.188,0.03,6.376,0.059,9.563,0.064l2.556,0.001
		c6.573-9.907,11.072-21.308,12.879-33.586c-1.561-0.477-3.198-0.713-4.945-0.713C193.817,263.63,192.317,263.79,190.768,264.105z"
		/>
	<path class="st2" d="M50.93,283.631c4.74-13.155,16.052-21.009,30.258-21.009c3.194,0,6.318,0.418,9.284,1.242
		c6.778,1.883,12.305,5.973,16.9,12.502c0.065,0.092,0.125,0.187,0.185,0.282c0.252,0.4,0.297,0.417,0.428,0.417
		c0.054,0,0.113-0.007,0.177-0.02c1.966-0.4,3.914-0.603,5.789-0.603c2.843,0,5.626,0.467,8.271,1.388
		c0.022,0.007,0.041,0.013,0.059,0.02c0.001-0.021,0.001-0.044,0.001-0.069c-0.004-2.432-0.388-4.321-1.21-5.946
		c-2.361-4.671-6.443-7.15-12.129-7.366c-2.646-0.1-5.992-0.609-8.396-3.668c-0.131-0.166-0.321-0.326-0.522-0.493
		c-0.08-0.067-0.16-0.134-0.237-0.202c-2.989-2.619-6.516-3.947-10.481-3.947c-1.216,0-2.489,0.126-3.784,0.375
		c-0.909,0.175-1.73,0.259-2.51,0.259c-3.098,0-5.379-1.359-7.177-4.276c-1.573-2.553-3.893-4.798-7.091-6.865
		c-3.33-2.153-7.735-3.339-12.404-3.339c-9.117,0-16.636,4.234-20.975,11.546c0.244,12.271,3.152,23.888,8.175,34.294
		c1.577-1.096,3.353-1.951,5.307-2.544C49.981,285.267,50.527,284.749,50.93,283.631z"/>
	<path class="st3" d="M328.477,132.8c-1.254,3.845-2.443,7.711-3.723,11.547c-1.144,3.43-4.183,4.101-6.687,1.505
		c-0.551-0.572-1.009-1.238-1.479-1.883c-2.391-3.277-4.771-6.562-7.158-9.842c-2.221-3.053-2.207-3.043-4.035,0.237
		c-2.031,3.644-4.009,7.322-6.175,10.885c-1.71,2.813-4.367,2.904-6.507,0.398c-0.475-0.557-0.878-1.182-1.268-1.805
		c-1.859-2.965-3.699-5.942-5.555-8.91c-0.625-1-1.275-1.985-1.971-3.065c-1.376,1.581-2.016,3.339-3.017,4.872
		c-0.437,0.67-0.757,1.495-1.48,1.844c-1.227,0.591-0.906,1.222-0.353,2.106c7.427,11.866,14.843,23.738,22.214,35.638
		c0.897,1.449,2.04,1.876,3.672,1.872c7.903-0.019,15.806-0.023,23.71-0.026c6.122-8.053,10.809-17.254,13.679-27.227
		c-4.319-6.683-8.639-13.366-12.965-20.06C328.707,131.468,328.679,132.182,328.477,132.8z"/>
	<path class="st3" d="M295.759,135.84c0.376-0.629,0.694-1.134,0.986-1.654c2.192-3.902,4.353-7.822,6.575-11.707
		c1.666-2.913,4.661-3.108,6.723-0.45c1.317,1.698,2.555,3.457,3.833,5.185c1.882,2.545,3.768,5.087,5.816,7.852
		c1.251-3.897,2.349-7.505,3.584-11.066c0.446-1.285,0.328-2.266-0.422-3.412c-5.478-8.364-10.887-16.774-16.34-25.156
		c-0.272-0.417-0.401-1.031-1.12-1.169c-5.561,9.603-11.116,19.202-16.678,28.796c-0.501,0.864-0.279,1.607,0.229,2.389
		c1.271,1.954,2.464,3.959,3.75,5.902C293.665,132.813,294.379,134.461,295.759,135.84z"/>
	<path class="st0" d="M273.829,60.914c-12.234-0.056-22.122,9.597-22.148,21.621c-0.026,12.221,9.612,21.99,21.73,22.025
		c12.167,0.035,21.935-9.648,21.987-21.796C295.449,70.872,285.672,60.969,273.829,60.914z M273.451,97.908
		c-8.478-0.005-15.218-6.772-15.179-15.24c0.039-8.414,6.886-15.19,15.324-15.164c8.459,0.026,15.174,6.813,15.149,15.309
		C288.719,91.319,282.038,97.913,273.451,97.908z"/>
	<path class="st3" d="M273.596,67.504c-8.438-0.026-15.285,6.749-15.324,15.164c-0.039,8.469,6.701,15.236,15.179,15.24
		c8.587,0.005,15.268-6.589,15.294-15.095C288.77,74.317,282.055,67.531,273.596,67.504z"/>
	<path class="st0" d="M201.06,61.823c-12.193-0.056-22.048,9.565-22.074,21.549c-0.026,12.181,9.58,21.917,21.658,21.952
		c12.127,0.035,21.862-9.616,21.914-21.724C222.607,71.747,212.864,61.877,201.06,61.823z M200.683,98.693
		c-8.45-0.005-15.167-6.749-15.128-15.189c0.038-8.386,6.863-15.139,15.273-15.113c8.431,0.026,15.124,6.79,15.098,15.258
		C215.9,92.126,209.242,98.698,200.683,98.693z"/>
	<g>
		<path class="st3" d="M252.686,112.9c-1.409,4.424-2.703,8.431-3.957,12.45c-0.557,1.783-1.295,3.332-3.414,3.646
			c-2.081,0.308-3.316-0.854-4.412-2.385c-2.971-4.147-6.002-8.252-8.953-12.414c-0.829-1.169-1.296-1.161-1.983,0.117
			c-2.15,4-4.343,7.979-6.589,11.926c-2.029,3.565-4.816,3.835-7.113,0.894c0.007,0.492,0.037,0.978,0.037,1.472
			c0,18.002-4.871,34.857-13.334,49.359c30.127,0,60.209,0,90.424,0C279.802,156.242,266.346,134.734,252.686,112.9z"/>
		<path class="st3" d="M236.954,87.731c-2.735-4.363-5.466-8.729-8.334-13.311c-1.53,2.678-2.895,5.079-4.271,7.473
			c-3.76,6.544-7.527,13.084-11.288,19.628c-0.13,0.227-0.259,0.455-0.383,0.685c0.737,2.643,1.369,5.328,1.885,8.056
			c1.558,2.446,3.148,4.901,4.794,7.468c1.376-2.454,2.622-4.696,3.886-6.928c1.3-2.296,2.499-4.662,3.96-6.853
			c1.681-2.522,4.096-2.661,6.2-0.506c0.767,0.786,1.402,1.706,2.053,2.597c2.602,3.562,5.186,7.136,7.881,10.85
			c1.197-3.725,2.278-7.237,3.465-10.713c0.465-1.362,0.211-2.465-0.533-3.634C243.136,97.625,240.052,92.673,236.954,87.731z"/>
		<path class="st3" d="M262.444,44.776c-25.176,0-47.72,11.206-62.965,28.885c3.979,5.874,7.314,12.215,9.958,18.903
			c4.94-8.682,9.88-17.364,14.82-26.047c0.182-0.32,0.346-0.649,0.539-0.962c1.965-3.189,5.384-3.186,7.377,0.008
			c5.883,9.43,11.759,18.864,17.646,28.292c7.772,12.447,15.551,24.89,23.33,37.333c1.055,1.687,1.1,1.692,2.125-0.087
			c8.606-14.947,17.205-29.897,25.806-44.847c0.184-0.319,0.351-0.649,0.546-0.962c1.983-3.186,5.371-3.273,7.444-0.115
			c3,4.569,5.911,9.195,8.871,13.79c8.907,13.824,17.775,27.674,26.698,41.487c0.619-4.091,0.942-8.28,0.942-12.544
			C345.58,81.997,308.359,44.776,262.444,44.776z M273.411,104.56c-12.118-0.035-21.756-9.804-21.73-22.025
			c0.026-12.024,9.914-21.677,22.148-21.621c11.844,0.054,21.62,9.957,21.569,21.849C295.346,94.912,285.578,104.595,273.411,104.56
			z"/>
		<path class="st3" d="M262.444,211.047c23.279,0,44.319-9.572,59.41-24.99c-39.61-0.002-79.221-0.005-118.831-0.011
			C218.115,201.47,239.16,211.047,262.444,211.047z"/>
	</g>
	<g>
		<path class="st2" d="M143.179,244.918c-0.022-0.333-0.04-0.667-0.057-1c-0.048-0.913-0.093-1.774-0.231-2.627
			c-1.038-6.442-4.091-11.939-8.452-15.947c-5.284,0.881-10.703,1.362-16.238,1.362c-6.607,0-13.058-0.663-19.3-1.909
			c-6.323,5.487-10.126,13.854-9.33,22.611c0.087,0.963,0.235,1.047,1.024,1.084c6.218,0.291,11.546,2.727,15.836,7.242
			c0.582,0.611,1.156,0.851,2.121,0.882c6.996,0.23,12.389,2.606,16.487,7.264c0.388,0.441,0.706,0.98,1.013,1.501
			c0.394,0.667,0.839,1.424,1.226,1.519c0.059,0.014,0.121,0.021,0.19,0.021c0.484,0,1.16-0.343,1.813-0.675
			c0.551-0.279,1.12-0.568,1.705-0.737c0.89-0.257,1.32-0.675,1.646-1.602c1.996-5.672,4.753-9.941,8.43-13.052
			c1.523-1.288,2.143-2.645,2.075-4.536c-0.01-0.275-0.008-0.55-0.005-0.825l0.003-0.359
			C143.138,245.06,143.153,244.987,143.179,244.918z"/>
		<path class="st2" d="M89.536,222.439c-1.23-0.375-2.443-0.786-3.652-1.208c-0.62,0.378-1.298,0.59-2.011,0.59
			c-1.15,0-2.267-0.506-3.229-1.465c-0.658-0.655-1.313-1.312-1.97-1.967c-9.582-4.225-18.364-9.924-26.045-16.833
			c-8.736,11.299-14.63,24.907-16.575,39.764c4.948-3.928,11.163-6.166,18.627-6.651c0.72-0.046,1.447-0.07,2.163-0.07
			c3.357,0,6.718,0.522,9.992,1.552c0.664,0.209,1.384,0.302,2.336,0.302c0.477,0,0.956-0.023,1.435-0.045
			c0.5-0.024,0.999-0.047,1.497-0.047l0.288,0.003c2.045,0.04,3.364,0.504,4.151,1.461c0.77,0.936,0.972,2.26,0.635,4.167
			c-0.043,0.243-0.02,0.303,0.193,0.489c1.445,1.267,2.694,2.709,3.947,4.3c-0.173-5.385,0.597-10.078,2.381-14.615
			C85.12,228.547,87.114,225.289,89.536,222.439z"/>
		<path class="st2" d="M156.379,218.999c-0.489,0.487-0.972,0.978-1.467,1.459c-0.902,0.878-2.006,1.36-3.108,1.36
			c-0.612,0-1.197-0.158-1.743-0.433c-2.07,0.711-4.169,1.361-6.299,1.935c3.421,4.294,5.873,9.387,6.935,14.908
			c0.47,2.448,0.681,4.473,0.661,6.372c0,0.028,0,0.053,0,0.076c0.011-0.003,0.022-0.007,0.035-0.012
			c3.273-1.188,3.893-1.629,7.108-1.877c-0.039-0.055-0.077-0.114-0.11-0.179c-0.73-1.393-0.709-2.991,0.056-4.274
			c0.716-1.199,1.951-1.897,3.388-1.915c3.337-0.04,6.809-0.059,10.614-0.059c3.553,0,7.341,0.017,11.921,0.053
			c1.042,0.008,2.017,0.421,2.745,1.163c0.771,0.786,1.206,1.889,1.194,3.026c-0.026,2.355-1.787,4.08-4.188,4.102
			c-2.187,0.021-1.612,0.026-3.798,0.026l-6.324-0.007c5.614,2.215,10.37,6.122,14.176,11.659c0.447,0.649,0.732,0.764,1.167,0.764
			c0.16,0,0.346-0.019,0.57-0.059c1.878-0.329,3.709-0.495,5.444-0.495c1.931,0,3.779,0.213,5.547,0.625
			c0.1-1.666,0.157-3.343,0.157-5.034c0-19.07-6.459-36.622-17.286-50.625C175.731,208.791,166.491,214.723,156.379,218.999z"/>
	</g>
	<g>
		<path class="st0" d="M123.393,190.774l-1.395,3.961c-0.102,0.291-0.341,0.512-0.638,0.592l-4.054,1.096
			c-0.749,0.202-0.94,1.175-0.324,1.646l3.336,2.551c0.245,0.187,0.382,0.483,0.366,0.79l-0.21,4.195
			c-0.039,0.775,0.827,1.258,1.466,0.817l3.457-2.385c0.254-0.175,0.577-0.214,0.865-0.104l3.924,1.496
			c0.725,0.276,1.452-0.398,1.23-1.142l-1.2-4.025c-0.088-0.295-0.025-0.615,0.168-0.854l2.636-3.27
			c0.487-0.604,0.07-1.503-0.706-1.522l-4.199-0.103c-0.308-0.008-0.592-0.166-0.761-0.424l-2.296-3.517
			C124.635,189.924,123.651,190.043,123.393,190.774z"/>
		<path class="st0" d="M93.786,150.075l-0.713-0.031l0.534-0.474c3.603-3.196,4.761-7.071,3.444-11.518
			c-1.004-3.39-3.264-6.056-6.363-7.507c-1.824-0.855-3.899-1.283-6.151-1.283c-1.951,0-4.035,0.321-6.207,0.964l-11.849,3.51
			c-5.859,1.735-7.466,4.695-5.73,10.555l9.326,31.481c0.889,3.001,2.147,4.886,3.847,5.761c1.645,0.848,3.776,0.837,6.707-0.031
			l12.976-3.843c10.767-3.19,13.556-11.784,11.591-18.418C104.415,156.599,101.735,150.412,93.786,150.075z M73.869,152.508
			l-2.558-8.636c-0.421-1.42,0.152-2.475,1.572-2.895l6.751-2c2.301-0.681,4.185-0.579,5.603,0.304
			c1.319,0.822,1.934,2.139,2.218,3.098c0.278,0.937,1.36,5.701-4.602,7.468L73.869,152.508z M93.346,167.496
			c-1.513,1.446-3.554,2.158-4.361,2.397l-6.928,2.052c-0.31,0.092-0.602,0.138-0.874,0.138c-0.358,0-0.682-0.08-0.968-0.239
			c-0.491-0.274-0.845-0.769-1.053-1.471l-2.928-9.881l9.103-2.696c2.175-0.644,4.051-0.782,5.576-0.41
			c1.998,0.488,3.338,1.835,3.98,4.006C95.602,163.784,95.081,165.837,93.346,167.496z"/>
		<path class="st0" d="M159.873,122.908c-1.13-0.128-2.238-0.191-3.321-0.191c-6.003,0-11.237,1.945-15.281,5.71
			c-4.519,4.208-7.358,10.428-8.21,17.989c-1.416,12.574,3.388,26.723,21.117,28.719c15.702,1.769,22.016-8.56,22.611-13.839
			c0.138-1.228-0.145-2.304-0.82-3.11c-0.756-0.904-1.961-1.455-3.582-1.637c-3.906-0.445-4.528,1.173-5.392,3.407
			c-1.062,2.582-2.999,7.28-12.185,6.249c-5.325-0.6-8.862-3.325-10.511-8.101c-0.999-2.891-1.272-6.429-0.812-10.515
			c0.568-5.041,2.154-9.125,4.714-12.139c2.479-2.985,6.114-4.23,10.801-3.703c8.916,1.004,9.952,6.367,10.343,8.386
			c0.284,1.6,0.574,3.235,4.232,3.647c3.225,0.369,5.165-0.928,5.47-3.636c0.237-2.108-0.775-5.955-3.559-9.42
			C173.046,127.686,168.355,123.863,159.873,122.908z"/>
		<path class="st0" d="M49.102,106.225l4.51-0.245c0.354-0.019,0.695,0.137,0.911,0.418l2.758,3.576
			c0.545,0.707,1.665,0.482,1.894-0.381l1.161-4.365c0.091-0.343,0.345-0.619,0.679-0.738l4.254-1.518
			c0.841-0.3,0.973-1.434,0.223-1.919L61.7,98.601c-0.298-0.193-0.482-0.519-0.492-0.874l-0.129-4.515
			c-0.026-0.893-1.063-1.368-1.756-0.805l-3.505,2.849c-0.275,0.224-0.643,0.298-0.983,0.198l-4.334-1.272
			c-0.857-0.251-1.63,0.589-1.308,1.422l1.626,4.214c0.128,0.331,0.084,0.703-0.116,0.996l-2.549,3.729
			C47.65,105.279,48.211,106.274,49.102,106.225z"/>
		<path class="st0" d="M187.418,100.059l-3.839,0.1c-0.281,0.007-0.549-0.124-0.714-0.352l-2.259-3.105
			c-0.417-0.573-1.311-0.42-1.512,0.26l-1.091,3.682c-0.08,0.27-0.288,0.483-0.555,0.571l-3.651,1.189
			c-0.674,0.219-0.804,1.117-0.22,1.518l3.164,2.175c0.232,0.16,0.371,0.423,0.371,0.705l0.002,3.84c0,0.709,0.814,1.11,1.376,0.678
			l3.047-2.337c0.223-0.171,0.517-0.222,0.785-0.135l3.653,1.185c0.674,0.219,1.307-0.431,1.07-1.099l-1.281-3.62
			c-0.094-0.266-0.051-0.56,0.114-0.788l2.255-3.108C188.55,100.843,188.127,100.04,187.418,100.059z"/>
		<path class="st0" d="M174.9,87.258l3.68-1.098c0.679-0.203,0.831-1.097,0.257-1.513l-3.11-2.253
			c-0.228-0.165-0.36-0.432-0.354-0.714l0.093-3.839c0.017-0.709-0.786-1.13-1.359-0.712l-3.103,2.262
			c-0.228,0.166-0.522,0.209-0.788,0.116l-3.622-1.275c-0.669-0.235-1.317,0.399-1.097,1.073l1.192,3.65
			c0.088,0.268,0.038,0.561-0.133,0.785l-2.331,3.051c-0.431,0.563-0.028,1.376,0.681,1.375l3.84-0.006
			c0.282,0,0.545,0.138,0.705,0.37l2.182,3.16c0.403,0.583,1.3,0.452,1.518-0.223l1.181-3.654
			C174.418,87.546,174.63,87.338,174.9,87.258z"/>
		<path class="st0" d="M101.363,110.488l1.941-7.77l21.731-2.362l3.99,8.029c0.075,0.154,0.157,0.311,0.245,0.468
			c0.725,1.297,1.899,2.597,3.651,2.401c0.995-0.108,2.57-0.598,3.844-1.449c0.435-0.291,0.892-0.672,1.273-1.138
			c0.545-0.667,0.927-1.512,0.813-2.556c-0.095-0.879-0.436-1.803-0.648-2.178l-18.408-37.137c-2.414-4.868-5.398-5.966-8.398-5.966
			c-0.578,0-1.156,0.041-1.732,0.104c-4.663,0.507-7.19,2.864-8.45,7.882l-9.999,40.208c-0.262,1.048-0.192,2.073-0.15,2.465
			c0.048,0.44,0.211,0.839,0.45,1.203c0.831,1.262,2.654,2.052,4.389,2.312c0.674,0.101,1.334,0.126,1.915,0.064
			c0.87-0.094,1.583-0.46,2.14-1.086c0.539-0.607,0.931-1.459,1.169-2.557L101.363,110.488z M109.696,76.9
			c0.33-1.347,0.81-1.959,1.605-2.045c0.743-0.077,1.311,0.399,1.944,1.657L121,92.169l-15.451,1.679L109.696,76.9z"/>
		<path class="st4" d="M117.555,45.633c-0.717,0-1.433,0.009-2.146,0.027c-1.426,0.036-2.843,0.108-4.251,0.215
			c-1.407,0.107-2.805,0.249-4.192,0.425c-3.467,0.441-6.868,1.095-10.188,1.949c-1.328,0.342-2.644,0.715-3.945,1.12
			c-0.651,0.202-1.298,0.413-1.942,0.631c-1.288,0.436-2.561,0.902-3.82,1.398c-0.239,0.094-0.475,0.195-0.713,0.291l45.076-4.898
			C126.921,46.034,122.286,45.633,117.555,45.633z"/>
		<polygon class="st4" points="120.054,124.429 114.657,125.015 118.52,138.054 		"/>
		<path class="st4" d="M121.849,182.461c-0.934,0.572-1.941,1.036-3.018,1.355l-47.487,14.067c0.806,0.54,1.624,1.064,2.45,1.577
			c0.786,0.488,1.578,0.967,2.381,1.429c1.161,0.667,2.339,1.308,3.534,1.919c2.39,1.224,4.847,2.336,7.364,3.328
			c1.259,0.496,2.532,0.963,3.82,1.398c0.644,0.218,1.291,0.428,1.942,0.631c1.302,0.405,2.617,0.779,3.945,1.12
			c3.32,0.854,6.721,1.509,10.188,1.949c1.387,0.176,2.785,0.318,4.192,0.425s2.825,0.179,4.251,0.215
			c0.713,0.018,1.428,0.027,2.146,0.027c15.783,0,30.539-4.398,43.109-12.036c1.143-0.694,2.267-1.415,3.373-2.162
			c3.759-2.54,7.297-5.382,10.584-8.486l-48.468-5.458C124.606,183.587,123.162,183.128,121.849,182.461z M128.115,194.515
			l4.199,0.103c0.775,0.019,1.192,0.919,0.706,1.522l-2.636,3.27c-0.193,0.24-0.256,0.559-0.168,0.854l1.2,4.025
			c0.222,0.743-0.505,1.418-1.23,1.142l-3.924-1.496c-0.288-0.11-0.611-0.071-0.865,0.104l-3.457,2.385
			c-0.638,0.44-1.505-0.043-1.466-0.817l0.21-4.195c0.015-0.307-0.122-0.603-0.366-0.79l-3.336-2.551
			c-0.616-0.471-0.424-1.444,0.324-1.646l4.054-1.096c0.297-0.08,0.536-0.302,0.638-0.592l1.395-3.961
			c0.258-0.731,1.242-0.85,1.666-0.201l2.296,3.517C127.523,194.349,127.807,194.507,128.115,194.515z"/>
		<path class="st4" d="M200.448,122.372c-0.214-2.815-0.568-5.59-1.056-8.32c-0.244-1.365-0.521-2.718-0.83-4.059
			c-0.464-2.011-1.001-3.994-1.609-5.947c-0.607-1.952-1.285-3.874-2.029-5.762c-0.993-2.517-2.104-4.974-3.328-7.364
			c-0.612-1.195-1.252-2.373-1.919-3.534c-0.667-1.161-1.362-2.304-2.083-3.428c-0.36-0.562-0.727-1.12-1.101-1.673
			c-0.747-1.106-1.52-2.192-2.318-3.259c-0.798-1.067-1.621-2.114-2.468-3.141s-1.718-2.032-2.613-3.017
			c-2.236-2.461-4.618-4.787-7.132-6.964c-1.006-0.871-2.032-1.718-3.079-2.541c-3.141-2.468-6.464-4.715-9.946-6.717
			c-1.161-0.667-2.339-1.307-3.534-1.919c-3.817-1.955-7.807-3.618-11.937-4.971c2.338,2.096,3.812,4.923,4.152,8.053l5.461,50.257
			c0.029,0.269,0.036,0.536,0.048,0.804l11.467-17.845c0.346-0.538,0.833-0.916,1.303-1.012c0.304-0.062,0.606-0.005,0.846,0.159
			l1.716,1.172c0.24,0.165,0.401,0.424,0.455,0.731c0.082,0.471-0.093,1.062-0.469,1.58l-12.369,17.044l6.43,0.724l10.201-4.886
			c0.332-0.158,0.705-0.178,1.027-0.056c0.285,0.107,0.505,0.316,0.62,0.586l0.567,1.329c0.115,0.271,0.113,0.573-0.007,0.853
			c-0.135,0.316-0.409,0.572-0.751,0.701l-5.711,2.143l16.437,1.851c3.361,0.378,6.379,2.051,8.499,4.708
			c2.12,2.658,3.078,5.972,2.7,9.333l-4.309,38.266c0.848-1.676,1.645-3.384,2.381-5.123c0.526-1.243,1.022-2.502,1.488-3.775
			c0.233-0.637,0.459-1.277,0.677-1.921c0.436-1.287,0.841-2.589,1.214-3.905c1.307-4.603,2.228-9.368,2.725-14.259
			c0.142-1.397,0.249-2.805,0.321-4.222s0.108-2.843,0.108-4.278C200.691,126.616,200.609,124.483,200.448,122.372z M171.631,91.691
			l-2.182-3.16c-0.16-0.232-0.424-0.37-0.705-0.37l-3.84,0.006c-0.709,0.001-1.112-0.812-0.681-1.375l2.331-3.051
			c0.171-0.224,0.221-0.517,0.133-0.785l-1.192-3.65c-0.22-0.674,0.428-1.308,1.097-1.073l3.622,1.275
			c0.266,0.093,0.56,0.05,0.788-0.116l3.103-2.262c0.573-0.417,1.376,0.003,1.359,0.712l-0.093,3.839
			c-0.007,0.282,0.125,0.548,0.354,0.714l3.11,2.253c0.574,0.416,0.422,1.31-0.257,1.513l-3.68,1.098
			c-0.27,0.081-0.483,0.289-0.569,0.557l-1.181,3.654C172.931,92.143,172.034,92.274,171.631,91.691z M188.133,101.417l-2.255,3.108
			c-0.165,0.228-0.208,0.523-0.114,0.788l1.281,3.62c0.237,0.669-0.396,1.318-1.07,1.099l-3.653-1.185
			c-0.268-0.087-0.561-0.036-0.785,0.135l-3.047,2.337c-0.563,0.432-1.376,0.031-1.376-0.678l-0.002-3.84
			c0-0.282-0.139-0.545-0.371-0.705l-3.164-2.175c-0.584-0.401-0.455-1.299,0.22-1.518l3.651-1.189
			c0.268-0.087,0.475-0.3,0.555-0.571l1.091-3.682c0.201-0.68,1.095-0.834,1.512-0.26l2.259,3.105
			c0.166,0.228,0.433,0.359,0.714,0.352l3.839-0.1C188.127,100.04,188.55,100.843,188.133,101.417z"/>
		<path class="st4" d="M48.787,125.35l23.65-7.006l-10.134-8.888c-0.39-0.342-0.626-0.771-0.649-1.177
			c-0.015-0.286,0.076-0.552,0.259-0.751l0.743-0.812c0.183-0.199,0.44-0.313,0.726-0.323c0.408-0.024,0.855,0.184,1.229,0.543
			l10.956,10.48l2.088-0.618c-0.027-0.176-0.063-0.349-0.083-0.528L72.11,66.014c-0.308-2.838,0.346-5.634,1.836-8.032
			c-0.401,0.248-0.803,0.495-1.199,0.749c-0.562,0.361-1.12,0.728-1.673,1.101c-1.106,0.747-2.192,1.52-3.259,2.318
			c-2.134,1.596-4.189,3.292-6.157,5.081c-0.984,0.895-1.947,1.812-2.887,2.753c-0.94,0.94-1.858,1.903-2.753,2.887
			c-1.342,1.476-2.631,3.001-3.866,4.572c-0.411,0.524-0.816,1.052-1.215,1.586c-1.197,1.601-2.337,3.245-3.419,4.932
			c-0.721,1.124-1.416,2.267-2.083,3.428s-1.307,2.339-1.919,3.534c-1.224,2.39-2.336,4.847-3.328,7.364
			c-1.489,3.775-2.709,7.686-3.638,11.709c-0.31,1.341-0.587,2.694-0.83,4.059c-0.488,2.729-0.842,5.505-1.056,8.32
			c-0.161,2.111-0.242,4.244-0.242,6.397c0,1.435,0.036,2.861,0.108,4.278c0.072,1.417,0.179,2.825,0.321,4.222
			c0.497,4.891,1.417,9.656,2.725,14.259c0.373,1.315,0.779,2.617,1.214,3.905c0.218,0.644,0.443,1.284,0.677,1.921
			c0.466,1.273,0.963,2.532,1.488,3.775c0.789,1.865,1.644,3.695,2.562,5.487c0.612,1.195,1.252,2.373,1.919,3.534
			c0.334,0.58,0.674,1.156,1.021,1.727c0.576,0.947,1.174,1.879,1.786,2.801c0.495,0.746,0.998,1.487,1.516,2.216
			c0.569,0.8,1.157,1.587,1.753,2.366l-11.294-38.126C38.229,134.42,42.072,127.34,48.787,125.35z M48.154,104.542l2.549-3.729
			c0.2-0.293,0.243-0.665,0.116-0.996l-1.626-4.214c-0.322-0.833,0.452-1.673,1.308-1.422l4.334,1.272
			c0.34,0.1,0.708,0.026,0.983-0.198l3.505-2.849c0.693-0.563,1.731-0.088,1.756,0.805l0.129,4.515
			c0.01,0.354,0.194,0.681,0.492,0.874l3.793,2.453c0.75,0.485,0.618,1.619-0.223,1.919l-4.254,1.518
			c-0.334,0.119-0.588,0.395-0.679,0.738l-1.161,4.365c-0.229,0.863-1.349,1.088-1.894,0.381l-2.758-3.576
			c-0.216-0.281-0.557-0.437-0.911-0.418l-4.51,0.245C48.211,106.274,47.65,105.279,48.154,104.542z"/>
		<path class="st4" d="M184.112,120.827l-33.525-3.775c-0.084,0.111-0.158,0.228-0.245,0.337c-2.13,2.649-5.155,4.309-8.517,4.674
			l-14.714,1.599l-3.541,31.443l3.829,12.927c0.872,2.944,0.641,6.04-0.621,8.822c0.05,0.007,0.098,0.019,0.149,0.024l50.235,5.657
			c1.522,0.168,3.027-0.267,4.239-1.233c1.211-0.966,1.972-2.336,2.144-3.857l5.657-50.236c0.171-1.522-0.266-3.028-1.232-4.239
			C187.005,121.76,185.634,120.998,184.112,120.827z M179.621,140.21c-0.342,3.033-2.566,4.545-6.109,4.145
			c-4.086-0.461-4.444-2.48-4.732-4.102c-0.405-2.094-1.348-6.975-9.843-7.931c-4.48-0.505-7.944,0.673-10.294,3.5
			c-2.487,2.927-4.028,6.908-4.583,11.832c-0.45,4-0.186,7.452,0.784,10.262c1.571,4.547,4.946,7.143,10.031,7.715
			c8.759,0.992,10.514-3.286,11.564-5.839c0.904-2.332,1.667-4.301,6.014-3.818c1.773,0.2,3.105,0.819,3.96,1.841
			c0.778,0.931,1.107,2.157,0.951,3.546c-0.568,5.047-6.147,14.553-19.701,14.553c-1.127,0-2.309-0.066-3.549-0.205
			c-18.152-2.044-23.073-16.506-21.626-29.358c0.867-7.7,3.768-14.044,8.39-18.348c4.9-4.562,11.489-6.52,19.06-5.67
			c8.677,0.977,13.49,4.906,16,8.031C178.825,133.959,179.871,137.988,179.621,140.21z"/>
		<path class="st4" d="M159.937,122.334c-7.571-0.849-14.16,1.109-19.06,5.67c-4.621,4.304-7.523,10.648-8.39,18.348
			c-1.447,12.852,3.474,27.313,21.626,29.358c1.239,0.139,2.421,0.205,3.549,0.205c13.554-0.001,19.133-9.507,19.701-14.553
			c0.156-1.389-0.172-2.615-0.951-3.546c-0.855-1.022-2.187-1.641-3.96-1.841c-4.346-0.483-5.11,1.485-6.014,3.818
			c-1.05,2.553-2.805,6.83-11.564,5.839c-5.085-0.572-8.459-3.168-10.031-7.715c-0.97-2.81-1.234-6.262-0.784-10.262
			c0.555-4.925,2.096-8.905,4.583-11.832c2.35-2.828,5.814-4.006,10.294-3.5c8.494,0.956,9.438,5.837,9.843,7.931
			c0.288,1.622,0.646,3.641,4.732,4.102c3.542,0.4,5.767-1.112,6.109-4.145c0.25-2.223-0.796-6.251-3.683-9.846
			C173.428,127.24,168.614,123.311,159.937,122.334z M179.334,140.178c-0.325,2.888-2.471,4.264-5.79,3.891
			c-3.809-0.429-4.176-2.151-4.48-3.865c-0.393-2.035-1.369-7.186-10.094-8.168c-2.949-0.332-7.381-0.209-10.548,3.604
			c-2.654,3.124-4.115,7.253-4.648,11.984c-0.526,4.669-1.036,16.933,11.069,18.296c9.032,1.017,10.856-3.569,11.883-6.067
			c0.877-2.266,1.577-4.054,5.694-3.59c3.564,0.401,4.94,2.548,4.656,5.067c-0.547,4.854-6.647,15.927-22.93,14.094
			c-17.205-1.938-22.893-15.521-21.371-29.038c1.688-14.993,11.4-25.535,27.13-23.764
			C175.697,124.399,179.79,136.122,179.334,140.178z"/>
		<path class="st4" d="M159.905,122.621c-15.73-1.771-25.442,8.771-27.13,23.764c-1.522,13.518,4.166,27.101,21.371,29.038
			c16.283,1.834,22.383-9.239,22.93-14.094c0.284-2.52-1.092-4.666-4.656-5.067c-4.117-0.464-4.816,1.325-5.694,3.59
			c-1.028,2.498-2.851,7.084-11.883,6.067c-12.105-1.363-11.595-13.627-11.069-18.296c0.533-4.731,1.993-8.86,4.648-11.984
			c3.167-3.812,7.599-3.936,10.548-3.604c8.725,0.982,9.701,6.133,10.094,8.168c0.304,1.715,0.671,3.436,4.48,3.865
			c3.318,0.374,5.464-1.003,5.79-3.891C179.79,136.122,175.697,124.399,159.905,122.621z M179.047,140.146
			c-0.305,2.707-2.246,4.005-5.47,3.636c-3.658-0.412-3.948-2.047-4.232-3.647c-0.391-2.019-1.427-7.382-10.343-8.386
			c-4.687-0.526-8.322,0.719-10.801,3.703c-2.561,3.014-4.147,7.098-4.714,12.139c-0.46,4.086-0.187,7.623,0.812,10.515
			c1.65,4.775,5.187,7.501,10.511,8.101c9.186,1.03,11.123-3.667,12.185-6.249c0.865-2.234,1.486-3.852,5.392-3.407
			c1.621,0.182,2.825,0.733,3.582,1.637c0.675,0.806,0.958,1.882,0.82,3.11c-0.595,5.279-6.909,15.608-22.611,13.839
			c-17.729-1.996-22.533-16.145-21.117-28.719c0.852-7.561,3.691-13.782,8.21-17.989c4.043-3.765,9.278-5.71,15.281-5.71
			c1.082,0,2.191,0.063,3.321,0.191c8.482,0.955,13.173,4.778,15.615,7.818C178.272,134.191,179.284,138.038,179.047,140.146z"/>
		<path class="st4" d="M120.76,170.002l-1.706-5.751l-2.526-8.523l-8.87-29.954l-16.093,1.753c-0.46,0.047-0.92,0.073-1.379,0.073
			c-3.599,0-6.917-1.533-9.263-4.025c0.013,0.02,0.027,0.047,0.04,0.067l-0.053,0.027c0.12,0.2,0.087,0.453-0.02,0.66
			c-0.1,0.207-0.267,0.373-0.433,0.533c-0.107,0.1-0.213,0.207-0.347,0.26c-0.107,0.047-0.227,0.06-0.34,0.053
			c-0.64,0-1.259-0.407-1.513-0.993l-4.565,1.013l-22.937,6.797c-1.466,0.433-2.686,1.426-3.425,2.786
			c-0.74,1.359-0.906,2.919-0.473,4.392l14.361,48.467c0.906,3.052,4.125,4.798,7.177,3.898l48.087-14.247l0.38-0.113
			c1.02-0.3,1.906-0.866,2.606-1.639c0.313-0.347,0.593-0.726,0.82-1.146C121.026,173.028,121.193,171.468,120.76,170.002z
			 M93.771,178.212l-12.975,3.845c-1.539,0.453-2.872,0.68-4.045,0.68c-1.18,0-2.199-0.227-3.092-0.693
			c-1.846-0.946-3.199-2.945-4.138-6.104l-9.323-31.487c-1.833-6.171-0.06-9.436,6.117-11.269l11.848-3.512
			c4.818-1.426,9.236-1.306,12.768,0.353c3.252,1.519,5.624,4.312,6.671,7.863c1.326,4.472,0.28,8.383-3.112,11.655
			c7.797,0.66,10.462,6.85,11.262,9.536C107.798,165.977,104.92,174.907,93.771,178.212z"/>
		<path class="st4" d="M90.776,157.947c-1.426-0.348-3.201-0.213-5.276,0.402l-8.549,2.532l2.763,9.328
			c0.163,0.553,0.426,0.933,0.781,1.13c0.363,0.202,0.832,0.219,1.397,0.052l6.928-2.052c0.767-0.227,2.704-0.902,4.126-2.262
			c1.567-1.496,2.035-3.355,1.393-5.522C93.759,159.597,92.56,158.382,90.776,157.947z"/>
		<path class="st4" d="M86.902,142.543c-0.256-0.864-0.805-2.046-1.97-2.772c-0.707-0.44-1.556-0.661-2.538-0.661
			c-0.782,0-1.649,0.14-2.597,0.42l-6.751,2c-1.115,0.331-1.512,1.064-1.182,2.178l2.394,8.082l8.43-2.498
			C87.988,147.723,87.253,143.73,86.902,142.543z"/>
		<path class="st4" d="M87.178,142.461c-0.615-2.075-2.483-4.682-7.463-3.207l-6.751,2c-1.245,0.369-1.763,1.232-1.377,2.537
			l2.476,8.359l8.707-2.579C87.929,148.042,87.688,144.18,87.178,142.461z M82.689,149.293l-8.43,2.498l-2.394-8.082
			c-0.33-1.115,0.068-1.848,1.182-2.178l6.751-2c0.947-0.28,1.814-0.42,2.597-0.42c0.982,0,1.83,0.22,2.538,0.661
			c1.165,0.726,1.715,1.908,1.97,2.772C87.253,143.73,87.988,147.723,82.689,149.293z"/>
		<path class="st4" d="M85.419,158.072l-8.826,2.614l2.845,9.604c0.369,1.246,1.232,1.764,2.536,1.378l6.928-2.052
			c2.134-0.632,7.277-2.865,5.714-8.142C93.264,156.91,88.976,157.019,85.419,158.072z M92.947,167.078
			c-1.422,1.36-3.359,2.035-4.126,2.262l-6.928,2.052c-0.564,0.168-1.034,0.15-1.397-0.052c-0.355-0.198-0.617-0.578-0.781-1.13
			l-2.763-9.328l8.549-2.532c2.075-0.615,3.85-0.75,5.276-0.402c1.784,0.435,2.983,1.65,3.564,3.609
			C94.982,163.723,94.513,165.582,92.947,167.078z"/>
		<path class="st4" d="M105.753,159.08c-0.8-2.686-3.465-8.876-11.262-9.536c3.392-3.272,4.438-7.184,3.112-11.655
			c-1.046-3.552-3.419-6.344-6.671-7.863c-3.532-1.659-7.95-1.779-12.768-0.353l-11.848,3.512c-6.177,1.833-7.95,5.098-6.117,11.269
			l9.323,31.487c0.94,3.159,2.292,5.158,4.138,6.104c0.893,0.466,1.913,0.693,3.092,0.693c1.173,0,2.506-0.227,4.045-0.68
			l12.975-3.845C104.92,174.907,107.798,165.977,105.753,159.08z M93.691,177.939l-12.975,3.838c-5.751,1.706-9.07,0.3-10.916-5.924
			l-9.323-31.48c-1.866-6.284,0.233-9.23,5.924-10.916l11.848-3.505c10.076-2.985,17.06,1.2,19.079,8.017
			c0.44,1.486,2.032,6.877-3.532,11.815c6.664,0.287,10.289,4.691,11.675,9.376C107.672,166.57,104.127,174.847,93.691,177.939z"/>
		<path class="st4" d="M93.798,149.786c5.567-4.938,3.968-10.333,3.529-11.816c-2.02-6.818-9-11.006-19.079-8.02l-11.849,3.51
			c-5.692,1.686-7.787,4.628-5.925,10.913l9.326,31.482c1.844,6.226,5.162,7.629,10.913,5.925l12.976-3.844
			c10.435-3.091,13.981-11.365,11.786-18.776C104.087,154.477,100.46,150.07,93.798,149.786z M93.607,177.66l-12.976,3.843
			c-2.931,0.867-5.062,0.879-6.707,0.031c-1.7-0.875-2.958-2.759-3.847-5.761l-9.326-31.481c-1.735-5.86-0.129-8.819,5.73-10.555
			l11.849-3.51c2.172-0.643,4.256-0.964,6.207-0.964c2.252,0,4.326,0.428,6.151,1.283c3.099,1.451,5.359,4.117,6.363,7.507
			c1.317,4.447,0.158,8.322-3.444,11.518l-0.534,0.474l0.713,0.031c7.949,0.337,10.629,6.523,11.412,9.167
			C107.163,165.876,104.374,174.47,93.607,177.66z"/>
		<path class="st4" d="M90.913,157.386c-1.525-0.372-3.401-0.235-5.576,0.41l-9.103,2.696l2.928,9.881
			c0.208,0.702,0.562,1.197,1.053,1.471c0.286,0.159,0.61,0.239,0.968,0.239c0.272,0,0.563-0.047,0.874-0.138l6.928-2.052
			c0.807-0.239,2.848-0.951,4.361-2.397c1.735-1.659,2.256-3.712,1.548-6.104C94.25,159.222,92.911,157.874,90.913,157.386z
			 M88.903,169.616l-6.928,2.052c-1.304,0.387-2.167-0.132-2.536-1.378l-2.845-9.604l8.826-2.614
			c3.557-1.054,7.846-1.163,9.198,3.402C96.18,166.751,91.037,168.984,88.903,169.616z"/>
		<path class="st4" d="M87.455,142.379c-0.284-0.96-0.9-2.276-2.218-3.098c-1.418-0.882-3.302-0.985-5.603-0.304l-6.751,2
			c-1.419,0.42-1.992,1.476-1.572,2.895l2.558,8.636l8.984-2.662C88.815,148.08,87.733,143.316,87.455,142.379z M74.064,152.149
			l-2.476-8.359c-0.387-1.305,0.132-2.168,1.377-2.537l6.751-2c4.98-1.475,6.849,1.132,7.463,3.207
			c0.509,1.719,0.751,5.581-4.407,7.109L74.064,152.149z"/>
		<path class="st4" d="M146.189,108.814l-5.458-50.259c-0.167-1.519-0.92-2.892-2.132-3.865c-1.04-0.833-2.299-1.279-3.605-1.279
			c-0.207,0-0.413,0.007-0.626,0.033l-50.259,5.458c-1.519,0.167-2.892,0.926-3.865,2.132c-0.966,1.206-1.413,2.712-1.246,4.232
			l5.384,49.54l0.073,0.72c0.107,0.94,0.433,1.819,0.953,2.592c0.32,0.473,0.72,0.9,1.18,1.273c0.786,0.633,1.699,1.033,2.666,1.2
			c0.513,0.087,1.04,0.107,1.566,0.047l14.141-1.533l3.965-0.433l3.658-0.4l8.463-0.92l3.858-0.42l4.711-0.506l7.83-0.853
			l3.632-0.393c1.519-0.167,2.892-0.926,3.865-2.132c0.027-0.033,0.053-0.073,0.08-0.107c0.753-0.98,1.16-2.146,1.193-3.352
			C146.223,109.334,146.223,109.074,146.189,108.814z M137.086,110.287c-1.066,0.713-2.332,1.18-3.345,1.406
			c-0.273,0.067-0.533,0.113-0.76,0.133c-0.36,0.04-0.706,0.013-1.046-0.053c-1.253-0.24-2.359-1.179-3.212-2.732
			c-0.073-0.133-0.147-0.26-0.213-0.4l-3.812-7.664l-20.931,2.272l-1.819,7.277l-0.253,1.026c-0.213,0.966-0.533,1.759-0.966,2.392
			c-0.68,0.993-1.633,1.566-2.845,1.699c-0.247,0.027-0.5,0.04-0.766,0.04c-0.76,0-1.586-0.113-2.386-0.333
			c-1.579-0.426-3.065-1.266-3.792-2.486c-0.233-0.4-0.393-0.833-0.446-1.313c-0.047-0.426-0.12-1.533,0.167-2.666l9.996-40.21
			c1.326-5.291,4.005-7.777,8.95-8.317c3.765-0.406,7.67,0.06,10.709,6.177l18.399,37.125c0.267,0.473,0.613,1.486,0.713,2.386
			c0.107,0.966-0.147,1.879-0.72,2.692C138.319,109.301,137.779,109.82,137.086,110.287z"/>
		<path class="st4" d="M112.729,76.769c-0.609-1.207-1.008-1.348-1.254-1.348c-0.041,0-0.078,0.004-0.112,0.007
			c-0.38,0.041-0.778,0.265-1.107,1.608l-3.951,16.149l13.81-1.5L112.729,76.769z"/>
		<path class="st4" d="M128.996,108.947c-0.087,0.033-0.18,0.06-0.273,0.093c-0.073-0.133-0.147-0.26-0.213-0.4l-3.812-7.664
			l-20.931,2.272l-1.819,7.277c-0.093-0.007-0.193-0.013-0.293-0.02l1.879-7.524l21.331-2.319l3.905,7.85
			C128.837,108.661,128.916,108.801,128.996,108.947z"/>
		<path class="st4" d="M112.988,76.641c-0.713-1.415-1.225-1.546-1.656-1.5c-0.553,0.06-1.012,0.421-1.356,1.827l-4.049,16.549
			l14.63-1.59L112.988,76.641z M110.256,77.037c0.329-1.343,0.727-1.566,1.107-1.608c0.033-0.004,0.07-0.007,0.112-0.007
			c0.246,0,0.645,0.141,1.254,1.348l7.386,14.917l-13.81,1.5L110.256,77.037z"/>
		<path class="st4" d="M138.706,108.741l-0.327-0.033c0.546-0.733,0.873-1.599,0.76-2.626c-0.1-0.926-0.453-1.879-0.686-2.292
			l-18.399-37.118c-2.865-5.784-6.551-6.444-10.422-6.024c-5.225,0.566-7.524,3.432-8.696,8.097l-9.996,40.21
			c-0.307,1.213-0.18,2.386-0.16,2.566c0.053,0.466,0.213,0.88,0.447,1.259l-0.287,0.087c-0.233-0.4-0.393-0.833-0.446-1.313
			c-0.047-0.426-0.12-1.533,0.167-2.666l9.996-40.21c1.326-5.291,4.005-7.777,8.95-8.317c3.765-0.406,7.67,0.06,10.709,6.177
			l18.399,37.125c0.267,0.473,0.613,1.486,0.713,2.386C139.532,107.015,139.279,107.928,138.706,108.741z"/>
		<path class="st4" d="M138.706,108.741c-0.387,0.56-0.926,1.08-1.619,1.546c-1.066,0.713-2.332,1.18-3.345,1.406
			c-0.613-0.033-1.22-0.007-1.806,0.08c-1.253-0.24-2.359-1.179-3.212-2.732c0.093-0.033,0.187-0.06,0.273-0.093
			c0.82,1.486,2.106,2.792,3.958,2.592c1.386-0.147,4.092-1.073,5.424-2.832L138.706,108.741z"/>
		<path class="st4" d="M133.741,111.693c-0.273,0.067-0.533,0.113-0.76,0.133c-0.36,0.04-0.706,0.013-1.046-0.053
			C132.522,111.686,133.128,111.66,133.741,111.693z"/>
		<path class="st4" d="M101.948,110.527l-0.253,1.026c-0.213,0.966-0.533,1.759-0.966,2.392c-0.12,0-0.24,0.007-0.367,0.013
			c0.68-0.88,0.933-1.939,1.053-2.472l0.24-0.98C101.754,110.513,101.854,110.52,101.948,110.527z"/>
		<path class="st4" d="M95.277,115.191l-0.546,0.16c-1.579-0.426-3.065-1.266-3.792-2.486l0.287-0.087
			C91.998,114.039,93.631,114.838,95.277,115.191z"/>
		<path class="st4" d="M100.728,113.945c-0.68,0.993-1.633,1.566-2.845,1.699c-0.247,0.027-0.5,0.04-0.766,0.04
			c-0.76,0-1.586-0.113-2.386-0.333l0.546-0.16c0.906,0.187,1.813,0.247,2.572,0.167c1.193-0.133,1.986-0.713,2.512-1.399
			C100.488,113.952,100.608,113.945,100.728,113.945z"/>
		<path class="st4" d="M91.066,111.49c-0.042-0.392-0.112-1.417,0.15-2.465l9.999-40.208c1.26-5.018,3.787-7.375,8.45-7.882
			c0.575-0.063,1.153-0.104,1.732-0.104c2.999,0,5.984,1.098,8.398,5.966l18.408,37.137c0.212,0.375,0.553,1.3,0.648,2.178
			c0.114,1.044-0.268,1.889-0.813,2.556l0.339,0.038c0.551-0.73,0.873-1.6,0.761-2.625c-0.1-0.922-0.453-1.879-0.684-2.29
			l-18.401-37.123c-2.868-5.784-6.547-6.441-10.419-6.021c-5.225,0.568-7.527,3.43-8.699,8.098l-9.999,40.209
			c-0.304,1.214-0.176,2.383-0.156,2.567c0.05,0.462,0.212,0.878,0.445,1.257l0.292-0.086
			C91.277,112.329,91.114,111.93,91.066,111.49z"/>
		<path class="st4" d="M129.025,108.386l-3.99-8.029l-21.731,2.362l-1.941,7.77c0.098,0.004,0.195,0.012,0.293,0.019l1.879-7.524
			l21.331-2.318l3.901,7.848c0.071,0.146,0.151,0.29,0.231,0.434c0.091-0.032,0.181-0.064,0.273-0.094
			C129.182,108.697,129.1,108.54,129.025,108.386z"/>
		<path class="st4" d="M113.246,76.511c-0.634-1.258-1.201-1.733-1.944-1.657c-0.795,0.086-1.275,0.698-1.605,2.045l-4.147,16.949
			L121,92.169L113.246,76.511z M109.976,76.969c0.345-1.406,0.803-1.767,1.356-1.827c0.43-0.047,0.942,0.085,1.656,1.5l7.57,15.287
			l-14.63,1.59L109.976,76.969z"/>
		<path class="st4" d="M136.765,109.805c-1.275,0.852-2.849,1.342-3.844,1.449c-1.751,0.196-2.926-1.104-3.651-2.401
			c-0.091,0.03-0.182,0.061-0.273,0.094c0.821,1.486,2.105,2.795,3.955,2.594c1.392-0.151,4.093-1.072,5.425-2.836l-0.339-0.038
			C137.657,109.133,137.2,109.515,136.765,109.805z"/>
		<path class="st4" d="M101.129,111.425c-0.238,1.098-0.63,1.95-1.169,2.557c0.135-0.013,0.27-0.018,0.404-0.026
			c0.676-0.878,0.931-1.935,1.047-2.47l0.245-0.979c-0.098-0.006-0.195-0.015-0.293-0.019L101.129,111.425z"/>
		<path class="st4" d="M91.516,112.693l-0.292,0.086c0.771,1.257,2.406,2.062,4.056,2.411l0.625-0.185
			C94.17,114.745,92.347,113.955,91.516,112.693z"/>
		<path class="st4" d="M97.851,115.356c1.19-0.129,1.982-0.709,2.513-1.399c-0.135,0.007-0.269,0.012-0.404,0.026
			c-0.557,0.627-1.27,0.992-2.14,1.086c-0.581,0.063-1.241,0.038-1.915-0.064l-0.625,0.185
			C96.182,115.381,97.087,115.439,97.851,115.356z"/>
		<path class="st5" d="M78.744,123.876c0.358,0.313,0.76,0.473,1.121,0.473c0.294,0,0.562-0.106,0.759-0.322l0.104-0.113
			c0.093-0.101,0.155-0.218,0.197-0.341c-0.089-0.139-0.178-0.318-0.267-0.44l-6.966,2.064h0.001l4.901-1.452L78.744,123.876z"/>
		<path class="st5" d="M80.89,124.328c-0.1,0.207-0.267,0.373-0.433,0.533c-0.107,0.1-0.213,0.207-0.347,0.26
			c-0.107,0.047-0.227,0.06-0.34,0.053c-0.64,0-1.259-0.407-1.513-0.993l-4.565,1.013l4.905-1.446l0.147,0.127
			c0.36,0.313,0.76,0.473,1.12,0.473c0.293,0,0.566-0.107,0.76-0.32l0.107-0.113c0.093-0.1,0.153-0.22,0.193-0.34
			c0.013,0.02,0.027,0.047,0.04,0.067l-0.053,0.027C81.029,123.868,80.996,124.121,80.89,124.328z"/>
	</g>
</g>
</svg>
