<?xml version="1.0" encoding="utf-8"?>
<!-- Generator: Adobe Illustrator 27.0.0, SVG Export Plug-In . SVG Version: 6.00 Build 0)  -->
<svg version="1.1" id="Layer_1" xmlns="http://www.w3.org/2000/svg" xmlns:xlink="http://www.w3.org/1999/xlink" x="0px" y="0px"
	 viewBox="0 0 380 380" style="enable-background:new 0 0 380 380;" xml:space="preserve">
<style type="text/css">
	.st0{fill:none;}
	.st1{fill:#8ECCDA;}
</style>
<g>
	<g>
		<path class="st0" d="M190.536,31.816l-0.209-0.002c-3.621,0-6.158,2.722-6.169,6.619c-0.028,10.249-0.029,20.931-0.002,32.653
			c0.009,3.952,2.505,6.608,6.212,6.608l0.142-0.001c3.658-0.066,6.032-2.652,6.046-6.587c0.014-3.782,0.011-7.565,0.008-11.347
			v-9.787c0.003-3.84,0.006-7.681-0.008-11.521C196.541,34.526,194.178,31.922,190.536,31.816z"/>
		<path class="st0" d="M125.655,70.34l-6.371-6.364c-1.362-1.362-2.917-2.113-4.377-2.113l-0.184,0.004
			c-3.016,0.074-5.05,1.355-6.028,3.805c-1.034,2.588-0.503,5.028,1.536,7.057c3.938,3.919,7.867,7.849,11.796,11.779
			c3.77,3.771,7.541,7.542,11.32,11.305c1.452,1.446,3.137,2.209,4.871,2.209c1.592,0,3.086-0.649,4.32-1.876
			c2.609-2.596,2.469-6.391-0.342-9.229C136.705,81.369,131.18,75.855,125.655,70.34z"/>
		<path class="st0" d="M298.165,151.215c-0.337,0.06-0.618,0.088-0.859,0.088c-0.657,0-1.087-0.173-1.761-1.152
			c-5.74-8.351-12.914-14.245-21.382-17.586l9.539,0.01c3.298,0,2.431-0.008,5.729-0.04c3.622-0.034,6.278-2.635,6.317-6.188
			c0.018-1.714-0.638-3.378-1.802-4.564c-1.098-1.118-2.569-1.742-4.141-1.754c-6.909-0.054-12.622-0.079-17.981-0.079
			c-5.739,0-10.976,0.029-16.009,0.089c-2.168,0.026-4.03,1.08-5.11,2.888c-1.154,1.935-1.185,4.345-0.084,6.447
			c0.051,0.098,0.108,0.187,0.167,0.269c-4.851,0.374-5.785,1.039-10.722,2.832c-0.018,0.007-0.036,0.013-0.052,0.018
			c0-0.035,0-0.072,0-0.114c0.029-2.864-0.288-5.918-0.997-9.611c-4.304-22.366-23.688-40.111-46.09-42.196
			c-1.764-0.164-3.549-0.247-5.308-0.247c-22.218,0-41.711,13.071-49.661,33.299c-2.69,6.844-3.851,13.923-3.591,22.045
			c-1.89-2.399-3.775-4.575-5.954-6.486c-0.32-0.281-0.355-0.371-0.291-0.738c0.508-2.876,0.204-4.873-0.958-6.285
			c-1.186-1.444-3.176-2.144-6.261-2.204l-0.434-0.004c-0.751,0-1.505,0.035-2.258,0.07c-0.723,0.034-1.445,0.068-2.165,0.068
			c-1.436,0-2.522-0.14-3.524-0.455c-4.938-1.554-10.008-2.341-15.072-2.341c-1.08,0-2.177,0.036-3.263,0.106
			c-11.258,0.732-20.632,4.107-28.097,10.033c-0.702,5.362-1.069,10.83-1.069,16.384c0,0.847,0.015,1.69,0.032,2.533
			c6.544-11.03,17.885-17.416,31.637-17.416c7.042,0,13.686,1.788,18.709,5.036c4.824,3.118,8.324,6.505,10.696,10.355
			c2.712,4.4,6.152,6.45,10.825,6.45c1.177,0,2.416-0.128,3.786-0.391c1.953-0.375,3.874-0.565,5.708-0.565
			c5.981,0,11.301,2.003,15.81,5.953c0.117,0.103,0.237,0.203,0.358,0.304c0.303,0.253,0.59,0.493,0.787,0.744
			c3.627,4.614,8.672,5.38,12.664,5.532c8.578,0.326,14.734,4.065,18.296,11.111c1.239,2.45,1.819,5.3,1.825,8.968
			c0,0.038,0,0.072-0.001,0.104c-0.027-0.009-0.057-0.018-0.089-0.029c-3.989-1.389-8.186-2.093-12.475-2.093
			c-2.827,0-5.766,0.306-8.731,0.91c-0.098,0.019-0.186,0.031-0.267,0.031c-0.198,0-0.265-0.025-0.646-0.629
			c-0.09-0.143-0.181-0.287-0.28-0.426c-6.93-9.849-15.268-16.017-25.491-18.858c-4.474-1.243-9.185-1.874-14.003-1.874
			c-21.428,0-38.49,11.847-45.64,31.689c-0.608,1.687-1.431,2.469-3.142,2.987c-2.948,0.895-5.626,2.184-8.005,3.838
			c1.728,3.581,3.623,7.066,5.672,10.446c1.683-1.218,3.575-2.214,5.645-2.93c5.652-1.954,8.958-5.196,11.058-10.84
			c6.442-17.318,22.053-23.488,34.515-23.488c7.951,0,15.566,2.373,20.891,6.511c4.091,3.177,6.983,6.25,9.099,9.67
			c2.368,3.826,5.564,5.685,9.771,5.685c1.017,0,2.118-0.112,3.271-0.333c2.207-0.424,4.353-0.639,6.379-0.639
			c7.255,0,13.491,2.781,18.534,8.263c2.464,2.678,5.619,4.017,9.649,4.094c9.361,0.178,15.728,3.51,19.467,10.186
			c3.15,5.627,3.347,12.131,0.54,17.843c-2.895,5.891-8.381,9.837-15.051,10.824c-1.985,0.294-3.867,0.437-5.754,0.437h-0.055
			c-10.233-0.014-20.467-0.017-30.699-0.017l-58.156,0.009c-2.388,0-4.775-0.005-7.162-0.005c5.901,4.434,12.21,8.354,18.856,11.703
			c14.061,0.014,28.051,0.021,41.859,0.021c10.32,0,20.642-0.003,30.962-0.011l3.077,0.006c2.646,0,5.724-0.04,8.786-0.516
			c15.574-2.43,26.866-15.051,26.85-30.01c-0.001-1.047,0.136-1.342,0.219-1.425c0.08-0.08,0.368-0.217,1.395-0.217
			c13.087,0.039,26.298,0.052,39.37,0.057c2.795-3.38,5.41-6.914,7.842-10.58l-3.855-0.001c-4.807-0.007-9.616-0.052-14.425-0.097
			c-5.158-0.048-10.49-0.098-15.738-0.098c-5.801,0-10.884,0.062-15.537,0.189c0,0-0.437,0.014-0.566,0.014
			c-0.544,0-0.745-0.031-1.019-0.652c-5.387-12.236-15.289-18.697-29.433-19.206c-2.258-0.081-3.455-1.264-4.841-2.634
			c-0.518-0.511-1.051-1.038-1.655-1.519c0.007-0.026,0.015-0.052,0.021-0.074c0.049-0.158,0.094-0.315,0.121-0.466
			c0.776-4.277,0.843-7.788,0.211-11.047c-0.158-0.819-0.029-1.083,0.685-1.41l0.194-0.089c1.597-0.731,3.105-1.422,4.727-1.884
			c4.144-1.183,6.98-3.907,8.426-8.097c2.548-7.375,6.326-13.044,11.55-17.331c6.488-5.325,14.732-8.257,23.216-8.257
			c11.846,0,22.989,5.632,29.809,15.065l0.067,0.094c0.356,0.491,0.713,0.984,1.039,1.495c2.244,3.522,5.346,5.307,9.219,5.307
			c0.953,0,1.971-0.109,3.027-0.322c2.337-0.475,4.6-0.716,6.722-0.716c2.635,0,5.104,0.356,7.459,1.075
			c0.52-3.537,0.89-7.123,1.107-10.751c-2.666-0.621-5.455-0.943-8.367-0.943C303.76,150.468,300.997,150.719,298.165,151.215z
			 M227.617,134.974c0.102,2.853-0.834,4.899-3.13,6.842c-5.546,4.693-9.706,11.133-12.716,19.688
			c-0.491,1.397-1.141,2.028-2.483,2.416c-0.884,0.255-1.742,0.691-2.572,1.112c-0.985,0.5-2.005,1.018-2.735,1.018
			c-0.105,0-0.198-0.01-0.287-0.032c-0.584-0.142-1.256-1.284-1.849-2.291c-0.464-0.786-0.943-1.599-1.528-2.264
			c-6.182-7.026-14.316-10.61-24.869-10.957c-1.456-0.048-2.322-0.409-3.2-1.331c-6.471-6.81-14.508-10.484-23.886-10.924
			c-1.191-0.056-1.413-0.182-1.544-1.635c-1.953-21.479,14.392-41.448,35.695-43.608c1.497-0.151,3.007-0.229,4.491-0.229
			c20.409,0,36.955,14.232,40.238,34.609c0.207,1.287,0.276,2.586,0.348,3.963c0.026,0.503,0.053,1.007,0.086,1.509
			c-0.04,0.104-0.062,0.214-0.062,0.327l-0.004,0.541C227.605,134.145,227.602,134.559,227.617,134.974z"/>
		<path class="st0" d="M264.234,61.902c-0.04-0.006-0.156-0.01-0.273-0.01c-1.429,0-2.855,0.636-4.013,1.792l-5.388,5.366
			c-5.997,5.97-12.196,12.144-18.232,18.281c-1.228,1.249-1.895,2.835-1.879,4.466c0.016,1.63,0.698,3.186,1.922,4.383
			c1.229,1.203,2.72,1.838,4.312,1.838c1.662,0,3.327-0.728,4.688-2.052c1.639-1.594,3.251-3.217,4.864-4.839l2.031-2.04
			l4.683-4.686c3.901-3.907,7.802-7.813,11.722-11.701c2.026-2.012,2.542-4.454,1.492-7.065
			C269.182,63.195,267.131,61.903,264.234,61.902z"/>
		<path class="st1" d="M245.604,223.561c-0.082,0.083-0.22,0.378-0.219,1.425c0.016,14.959-11.276,27.58-26.85,30.01
			c-3.062,0.477-6.141,0.516-8.786,0.516l-3.077-0.006c-10.32,0.008-20.642,0.011-30.962,0.011c-13.808,0-27.798-0.007-41.859-0.021
			c16.883,8.505,35.954,13.301,56.148,13.301c38.786,0,73.445-17.669,96.369-45.396c-13.071-0.005-26.283-0.019-39.37-0.057
			C245.972,223.344,245.685,223.48,245.604,223.561z"/>
		<path class="st1" d="M190,18.839c-63.47,0-115.885,47.314-123.91,108.596c7.464-5.925,16.838-9.301,28.097-10.033
			c1.086-0.07,2.183-0.106,3.263-0.106c5.063,0,10.133,0.788,15.072,2.341c1.001,0.315,2.088,0.455,3.524,0.455
			c0.72,0,1.442-0.035,2.165-0.068c0.753-0.036,1.507-0.07,2.258-0.07l0.434,0.004c3.085,0.06,5.074,0.76,6.261,2.204
			c1.162,1.412,1.466,3.409,0.958,6.285c-0.064,0.367-0.029,0.458,0.291,0.738c2.179,1.91,4.064,4.086,5.954,6.486
			c-0.26-8.122,0.901-15.201,3.591-22.045c7.95-20.228,27.443-33.299,49.661-33.299c1.759,0,3.544,0.083,5.308,0.247
			c22.402,2.085,41.787,19.831,46.09,42.196c0.71,3.693,1.027,6.747,0.997,9.611c0,0.042,0,0.079,0,0.114
			c0.016-0.005,0.034-0.011,0.052-0.018c4.937-1.792,5.871-2.457,10.722-2.832c-0.059-0.082-0.116-0.172-0.167-0.269
			c-1.101-2.102-1.07-4.512,0.084-6.447c1.08-1.809,2.942-2.862,5.11-2.888c5.033-0.06,10.27-0.089,16.009-0.089
			c5.359,0,11.073,0.025,17.981,0.079c1.572,0.012,3.043,0.635,4.141,1.754c1.163,1.185,1.82,2.85,1.802,4.564
			c-0.039,3.552-2.695,6.154-6.317,6.188c-3.298,0.031-2.431,0.04-5.729,0.04l-9.539-0.01c8.468,3.341,15.642,9.235,21.382,17.586
			c0.674,0.979,1.104,1.152,1.761,1.152c0.241,0,0.523-0.028,0.859-0.088c2.833-0.496,5.595-0.747,8.212-0.747
			c2.912,0,5.7,0.322,8.367,0.943c0.151-2.512,0.236-5.042,0.236-7.593C314.98,74.794,259.024,18.839,190,18.839z M142.539,96.146
			c-1.234,1.227-2.728,1.876-4.32,1.876c-1.734,0-3.419-0.764-4.871-2.209c-3.779-3.763-7.55-7.534-11.32-11.305
			c-3.929-3.93-7.858-7.859-11.796-11.779c-2.039-2.029-2.57-4.469-1.536-7.057c0.978-2.449,3.013-3.73,6.028-3.805l0.184-0.004
			c1.46,0,3.015,0.75,4.377,2.113l6.371,6.364c5.525,5.515,11.05,11.029,16.542,16.577
			C145.007,89.755,145.148,93.551,142.539,96.146z M196.565,59.757c0.003,3.782,0.006,7.565-0.008,11.347
			c-0.014,3.936-2.388,6.521-6.046,6.587l-0.142,0.001c-3.707,0-6.203-2.656-6.212-6.608c-0.027-11.722-0.026-22.403,0.002-32.653
			c0.011-3.897,2.548-6.619,6.169-6.619l0.209,0.002c3.642,0.106,6.005,2.709,6.02,6.633c0.014,3.84,0.011,7.681,0.008,11.521
			V59.757z M268.672,72.702c-3.919,3.888-7.82,7.794-11.722,11.701l-4.683,4.686l-2.031,2.04c-1.612,1.622-3.225,3.244-4.864,4.839
			c-1.361,1.324-3.026,2.052-4.688,2.052c-1.592,0-3.083-0.635-4.312-1.838c-1.223-1.197-1.905-2.753-1.922-4.383
			c-0.016-1.632,0.651-3.218,1.879-4.466c6.035-6.138,12.235-12.311,18.232-18.281l5.388-5.366c1.158-1.156,2.583-1.792,4.013-1.792
			c0.117,0,0.233,0.004,0.273,0.01c2.897,0.001,4.947,1.293,5.929,3.735C271.214,68.248,270.699,70.69,268.672,72.702z"/>
		<path class="st1" d="M180.314,243.791c10.232,0,20.466,0.003,30.699,0.017h0.055c1.887,0,3.769-0.143,5.754-0.437
			c6.671-0.987,12.157-4.933,15.051-10.824c2.807-5.712,2.61-12.216-0.54-17.843c-3.738-6.677-10.106-10.008-19.467-10.186
			c-4.029-0.077-7.185-1.416-9.649-4.094c-5.043-5.482-11.278-8.263-18.534-8.263c-2.026,0-4.172,0.216-6.379,0.639
			c-1.153,0.222-2.254,0.333-3.271,0.333c-4.206,0-7.403-1.86-9.771-5.685c-2.117-3.42-5.008-6.493-9.099-9.67
			c-5.326-4.138-12.941-6.511-20.891-6.511c-12.462,0-28.073,6.17-34.515,23.488c-2.099,5.644-5.406,8.886-11.058,10.84
			c-2.07,0.715-3.962,1.711-5.645,2.93c8.308,13.702,19.177,25.679,31.94,35.27c2.387,0.001,4.775,0.005,7.162,0.005
			L180.314,243.791z"/>
		<path class="st1" d="M299.455,161.802c-1.055,0.214-2.074,0.322-3.027,0.322c-3.873,0-6.975-1.785-9.219-5.307
			c-0.326-0.51-0.683-1.003-1.039-1.495l-0.067-0.094c-6.82-9.433-17.963-15.065-29.809-15.065c-8.484,0-16.729,2.932-23.216,8.257
			c-5.224,4.286-9.002,9.956-11.55,17.331c-1.447,4.19-4.282,6.914-8.426,8.097c-1.622,0.462-3.129,1.153-4.727,1.884l-0.194,0.089
			c-0.715,0.327-0.843,0.591-0.685,1.41c0.631,3.259,0.564,6.769-0.211,11.047c-0.027,0.15-0.072,0.308-0.121,0.466
			c-0.006,0.022-0.014,0.048-0.021,0.074c0.604,0.481,1.138,1.008,1.655,1.519c1.386,1.37,2.582,2.553,4.841,2.634
			c14.143,0.508,24.046,6.969,29.433,19.206c0.273,0.62,0.475,0.652,1.019,0.652c0.129,0,0.566-0.014,0.566-0.014
			c4.654-0.127,9.736-0.189,15.537-0.189c5.247,0,10.58,0.05,15.738,0.098c4.809,0.045,9.618,0.089,14.425,0.097l3.855,0.001
			c9.915-14.943,16.701-32.14,19.426-50.66c-2.355-0.719-4.823-1.075-7.459-1.075C304.055,161.086,301.793,161.327,299.455,161.802z
			"/>
		<path class="st1" d="M88.529,191.254c7.149-19.842,24.212-31.689,45.64-31.689c4.818,0,9.53,0.63,14.003,1.874
			c10.223,2.841,18.561,9.009,25.491,18.858c0.099,0.139,0.189,0.283,0.28,0.426c0.38,0.604,0.447,0.629,0.646,0.629
			c0.081,0,0.17-0.011,0.267-0.031c2.966-0.604,5.904-0.91,8.731-0.91c4.289,0,8.486,0.705,12.475,2.093
			c0.033,0.011,0.062,0.02,0.089,0.029c0.001-0.032,0.001-0.066,0.001-0.104c-0.006-3.668-0.586-6.518-1.825-8.968
			c-3.562-7.046-9.718-10.784-18.296-11.111c-3.992-0.151-9.037-0.918-12.664-5.532c-0.197-0.251-0.484-0.491-0.787-0.744
			c-0.121-0.101-0.241-0.201-0.358-0.304c-4.509-3.95-9.828-5.953-15.81-5.953c-1.834,0-3.755,0.19-5.708,0.565
			c-1.37,0.263-2.609,0.391-3.786,0.391c-4.673,0-8.113-2.05-10.825-6.45c-2.372-3.85-5.872-7.237-10.696-10.355
			c-5.024-3.247-11.668-5.036-18.709-5.036c-13.752,0-25.094,6.387-31.637,17.416c0.368,18.509,4.754,36.031,12.33,51.728
			c2.379-1.653,5.057-2.943,8.005-3.838C87.099,193.722,87.921,192.941,88.529,191.254z"/>
		<path class="st1" d="M227.675,132.861c-0.034-0.502-0.06-1.005-0.086-1.509c-0.072-1.377-0.14-2.676-0.348-3.963
			c-3.283-20.377-19.829-34.609-40.238-34.609c-1.483,0-2.994,0.077-4.491,0.229c-21.302,2.159-37.648,22.129-35.695,43.608
			c0.131,1.453,0.354,1.579,1.544,1.635c9.378,0.439,17.415,4.114,23.886,10.924c0.877,0.922,1.744,1.283,3.2,1.331
			c10.552,0.347,18.687,3.931,24.869,10.957c0.586,0.665,1.065,1.478,1.528,2.264c0.594,1.007,1.266,2.148,1.849,2.291
			c0.088,0.021,0.182,0.032,0.287,0.032c0.73,0,1.75-0.518,2.735-1.018c0.831-0.421,1.689-0.857,2.572-1.112
			c1.342-0.387,1.992-1.019,2.483-2.416c3.01-8.555,7.17-14.994,12.716-19.688c2.297-1.943,3.232-3.99,3.13-6.842
			c-0.015-0.415-0.012-0.83-0.008-1.244l0.004-0.541C227.613,133.075,227.635,132.965,227.675,132.861z"/>
	</g>
	<g>
		<g>
			<path class="st1" d="M161.964,323.093c0,3.789-3.907,4.203-5.625,4.203c-4.025,0-4.795-1.599-5.387-2.782
				c-1.54-3.138-2.191-4.5-8.111-4.5c-1.599,0-7.756,0-7.756,3.789c0,3.02,1.48,3.553,12.078,7.224
				c10.894,3.789,15.985,6.808,15.985,14.327c0,5.446-3.729,15.808-19.3,15.808c-17.169,0-21.313-10.184-21.313-13.735
				c0-4.736,5.151-4.736,5.861-4.736c3.138,0,4.974,1.243,5.329,2.486c0.947,3.197,1.184,4.145,3.967,5.15
				c1.895,0.651,4.085,0.889,5.861,0.889c2.132,0,7.934,0,7.934-4.678c0-1.895-0.829-3.078-10.302-6.157
				c-10.005-3.256-17.761-5.742-17.761-15.452c0-4.44,1.954-14.86,19.774-14.86C155.688,310.068,161.964,317.587,161.964,323.093z"
				/>
			<path class="st1" d="M202.165,311.962c0.888-0.828,2.072-1.895,3.848-1.895c2.901,0,6.098,3.197,6.098,5.684
				c0,1.599-0.651,3.02-1.835,4.145l-13.735,12.729l15.512,19.418c0.415,0.475,1.302,1.836,1.302,3.375
				c0,2.783-3.197,5.743-6.157,5.743c-1.48,0-2.842-0.651-3.789-1.776l-15.274-19.005l-5.151,4.855v10.656
				c0,2.072-0.415,5.27-5.625,5.27c-4.144,0-5.743-1.776-5.743-5.27v-40.614c0-2.013,0.415-5.21,5.625-5.21
				c4.026,0,5.743,1.599,5.743,5.21v14.387L202.165,311.962z"/>
			<path class="st1" d="M248.583,313.029c1.717-2.605,3.434-2.961,4.736-2.961c3.611,0,6.098,3.257,6.098,5.447
				c0,1.007-0.474,2.25-1.006,3.078l-15.038,22.38v14.919c0,2.072-0.414,5.27-5.624,5.27c-4.204,0-5.743-1.776-5.743-5.27v-14.919
				l-15.038-22.38c-0.415-0.592-1.066-1.775-1.066-2.96c0-2.25,2.368-5.565,6.217-5.565c1.835,0,3.375,1.007,4.677,2.961
				l10.894,16.399L248.583,313.029z"/>
		</g>
	</g>
</g>
</svg>
