<?xml version="1.0" encoding="UTF-8"?>
<svg xmlns="http://www.w3.org/2000/svg" version="1.1" viewBox="0 0 55 55">
  <defs>
    <style>
      .cls-12 {
        fill: none;
      }

      .cls-22 {
        fill: #8eccda;
      }
    </style>
  </defs>
  <!-- Generator: Adobe Illustrator 28.7.4, SVG Export Plug-In . SVG Version: 1.2.0 Build 166)  -->
  <g>
    <g id="Layer_2">
      <polygon class="cls-12" points="19.815 18.454 19.115 17.034 18.414 18.454 16.847 18.682 17.981 19.787 17.713 21.347 19.115 20.611 20.516 21.347 20.248 19.787 21.382 18.682 19.815 18.454"/>
      <polygon class="cls-12" points="28.201 15.122 27.5 13.702 26.799 15.122 25.233 15.35 26.366 16.455 26.099 18.015 27.5 17.278 28.901 18.015 28.634 16.455 29.767 15.35 28.201 15.122"/>
      <path class="cls-12" d="M20.372,37.37c1.148.62,2.403.897,3.673,1.078,3.544.506,7.003.076,10.389-1.065.309-.104.606-.27.879-.455.741-.5.838-.875.476-1.695-.365-.826-.288-1.62.272-2.298.544-.658.332-1.404.336-2.119.002-.347-.28-.147-.44-.091-2.089.737-4.176,1.478-6.264,2.218-.44.156-.881.306-1.32.465-1.148.415-2.172-.095-3.213-.457-2.11-.735-4.222-1.465-6.323-2.229-.419-.152-.506-.064-.491.356.022.618.006,1.238.006,1.857,0,.359.034.723-.006,1.078-.189,1.677.717,2.653,2.025,3.359v-.002Z"/>
      <polygon class="cls-12" points="36.586 18.454 35.885 17.034 35.185 18.454 33.618 18.682 34.752 19.787 34.484 21.347 35.885 20.611 37.287 21.347 37.019 19.787 38.153 18.682 36.586 18.454"/>
      <path class="cls-12" d="M39.869,35.097c.898-.835.858-1.89-.092-2.648-.182-.145-.296-.278-.287-.537.037-1.153-.279-2.216-.888-3.173-.226-.355-.135-.474.201-.581.63-.2,1.255-.415,1.882-.622.429-.142.821-.349.81-.884-.01-.492-.357-.687-.782-.834-4.059-1.411-8.113-2.835-12.166-4.263-.536-.189-1.05-.2-1.591-.011-4.46,1.562-8.923,3.116-13.389,4.662-.437.151-.822.339-.811.872.012.567.439.726.895.861,4.341,1.292,8.683,2.582,13.015,3.905.805.246,1.484-.047,2.198-.29,1.895-.646,3.792-1.287,5.688-1.932.066-.022.126-.064.223-.114-.291-.355-.695-.403-1.037-.548-2.006-.853-4.02-1.685-6.032-2.522-.334-.139-.663-.291-.658-.733.006-.421.422-.634.932-.439,1.526.584,3.043,1.19,4.562,1.792,1.067.423,2.134.842,3.171,1.341,1.546.744,2.203,2.046,2.302,3.729.015.253-.115.4-.255.572-.545.67-.587,1.376-.087,2.08.19.267.221.533.224.836.012,1.256-.241,2.509-.034,3.769.016.1.035.2.054.299.79-.676,1.513-1.427,2.158-2.242-.208-.559-.348-1.136-.444-1.73-.044-.271.041-.434.237-.617v.002Z"/>
      <g>
        <path class="cls-12" d="M27.569,13.132h-.027c-.465,0-.79.349-.791.849-.004,1.315-.004,2.685,0,4.189.001.507.321.848.797.848h.018c.469-.009.774-.34.776-.845.002-.485.001-.97.001-1.456v-1.255c0-.493,0-.985-.001-1.478-.002-.503-.305-.837-.772-.851Z"/>
        <path class="cls-12" d="M19.246,18.074l-.817-.816c-.175-.175-.374-.271-.561-.271h-.024c-.387.01-.648.174-.773.489-.133.332-.065.645.197.905.505.503,1.009,1.007,1.513,1.511.484.484.967.967,1.452,1.45.186.185.402.283.625.283.204,0,.396-.083.554-.241.335-.333.317-.82-.044-1.184-.705-.712-1.413-1.419-2.122-2.127Z"/>
        <path class="cls-12" d="M41.376,28.449c-.043.008-.079.011-.11.011-.084,0-.139-.022-.226-.148-.736-1.071-1.657-1.827-2.743-2.256h1.224c.423.001.312,0,.735-.004.465-.004.805-.338.81-.794.002-.22-.082-.433-.231-.585-.141-.143-.33-.223-.531-.225-.886-.007-1.619-.01-2.307-.01-.736,0-1.408.004-2.054.011-.278.003-.517.139-.656.371-.148.248-.152.557-.011.827.007.013.014.024.021.035-.622.048-.742.133-1.375.363-.002,0-.005.002-.007.002v-.015c.004-.367-.037-.759-.128-1.233-.552-2.869-3.039-5.146-5.913-5.413-.226-.021-.455-.032-.681-.032-2.85,0-5.351,1.677-6.371,4.272-.345.878-.494,1.786-.461,2.828-.242-.308-.484-.587-.764-.832-.041-.036-.046-.048-.037-.095.065-.369.026-.625-.123-.806-.152-.185-.407-.275-.803-.283h-.056c-.096,0-.193.004-.29.008-.093.004-.185.009-.278.009-.184,0-.324-.018-.452-.058-.633-.199-1.284-.3-1.933-.3-.139,0-.279.005-.419.014-1.444.094-2.647.527-3.604,1.287-.09.688-.137,1.389-.137,2.102,0,.109.002.217.004.325.839-1.415,2.294-2.234,4.059-2.234.903,0,1.756.229,2.4.646.619.4,1.068.834,1.372,1.328.348.564.789.827,1.389.827.151,0,.31-.016.486-.05.251-.048.497-.073.732-.073.767,0,1.45.257,2.028.764.015.013.03.026.046.039.039.032.076.063.101.095.465.592,1.113.69,1.625.71,1.1.042,1.89.521,2.347,1.425.159.314.233.68.234,1.15,0,.005,0,.009,0,.013-.004-.001-.007-.002-.011-.004-.512-.178-1.05-.269-1.6-.269-.363,0-.74.039-1.12.117-.013.002-.024.004-.034.004-.025,0-.034-.003-.083-.081-.012-.018-.023-.037-.036-.055-.889-1.263-1.959-2.055-3.27-2.419-.574-.16-1.178-.24-1.796-.24-2.749,0-4.938,1.52-5.855,4.065-.078.216-.184.317-.403.383-.378.115-.722.28-1.027.492.222.459.465.906.728,1.34.216-.156.459-.284.724-.376.725-.251,1.149-.667,1.419-1.391.826-2.222,2.829-3.013,4.428-3.013,1.02,0,1.997.304,2.68.835.525.408.896.802,1.167,1.24.304.491.714.729,1.253.729.13,0,.272-.014.42-.043.283-.054.558-.082.818-.082.931,0,1.731.357,2.378,1.06.316.344.721.515,1.238.525,1.201.023,2.018.45,2.497,1.307.404.722.429,1.556.069,2.289-.371.756-1.075,1.262-1.931,1.389-.255.038-.496.056-.738.056h-.007c-1.313-.002-2.626-.002-3.938-.002h-7.46c-.306.001-.613,0-.919,0,.757.569,1.566,1.072,2.419,1.501,1.804.002,3.598.003,5.37.003,1.324,0,2.648,0,3.972-.001h.395c.339,0,.734-.004,1.127-.065,1.998-.312,3.447-1.931,3.444-3.85,0-.134.017-.172.028-.183.01-.01.047-.028.179-.028,1.679.005,3.374.007,5.05.007.359-.434.694-.887,1.006-1.357h-.495c-.617-.001-1.234-.007-1.85-.013-.662-.006-1.346-.013-2.019-.013-.744,0-1.396.008-1.993.024,0,0-.056.002-.073.002-.07,0-.096-.004-.131-.084-.691-1.57-1.961-2.399-3.776-2.464-.29-.01-.443-.162-.621-.338-.066-.066-.135-.133-.212-.195,0-.003.002-.007.003-.01.006-.02.012-.04.016-.06.1-.549.108-.999.027-1.417-.02-.105-.004-.139.088-.181l.025-.011c.205-.094.398-.182.606-.242.532-.152.895-.501,1.081-1.039.327-.946.812-1.673,1.482-2.223.832-.683,1.89-1.059,2.978-1.059,1.52,0,2.949.722,3.824,1.933l.009.012c.046.063.091.126.133.192.288.452.686.681,1.183.681.122,0,.253-.014.388-.041.3-.061.59-.092.862-.092.338,0,.655.046.957.138.067-.454.114-.914.142-1.379-.342-.08-.7-.121-1.073-.121-.336,0-.69.032-1.053.096ZM32.326,26.365c.013.366-.107.629-.402.878-.711.602-1.245,1.428-1.631,2.526-.063.179-.146.26-.318.31-.113.033-.223.089-.33.143-.126.064-.257.131-.351.131-.013,0-.025-.001-.037-.004-.075-.018-.161-.165-.237-.294-.059-.101-.121-.205-.196-.29-.793-.901-1.837-1.361-3.19-1.406-.187-.006-.298-.052-.41-.171-.83-.874-1.861-1.345-3.064-1.401-.153-.007-.181-.023-.198-.21-.251-2.755,1.846-5.317,4.579-5.594.192-.019.386-.029.576-.029,2.618,0,4.741,1.826,5.162,4.44.027.165.035.332.045.508.003.065.007.129.011.194-.005.013-.008.027-.008.042v.069c-.001.053-.001.106,0,.16Z"/>
        <path class="cls-12" d="M37.023,16.991c-.005,0-.02-.001-.035-.001-.183,0-.366.082-.515.23l-.691.688c-.769.766-1.565,1.558-2.339,2.345-.158.16-.243.364-.241.573.002.209.09.409.247.562.158.154.349.236.553.236.213,0,.427-.093.601-.263.21-.205.417-.413.624-.621l.261-.262.601-.601c.5-.501,1.001-1.002,1.504-1.501.26-.258.326-.571.191-.906-.126-.313-.389-.479-.761-.479Z"/>
        <path class="cls-22" d="M34.633,37.73c-.011.011-.028.049-.028.183.002,1.919-1.447,3.538-3.444,3.85-.393.061-.788.066-1.127.066h-.395c-1.324,0-2.648,0-3.972,0-1.771,0-3.566,0-5.37-.003,2.166,1.091,4.612,1.706,7.203,1.706,4.976,0,9.422-2.267,12.362-5.824-1.677,0-3.372-.002-5.05-.007-.132,0-.169.017-.179.028Z"/>
        <path class="cls-22" d="M27.5,11.467c-8.142,0-14.866,6.07-15.896,13.931.958-.76,2.16-1.193,3.604-1.287.139-.009.28-.014.419-.014.65,0,1.3.101,1.933.3.128.04.268.058.452.058.092,0,.185-.004.278-.009.097-.005.193-.009.29-.009h.056c.396.008.651.098.803.283.149.181.188.437.123.806-.008.047-.004.059.037.095.279.245.521.524.764.832-.033-1.042.116-1.95.461-2.828,1.02-2.595,3.52-4.272,6.371-4.272.226,0,.455.011.681.032,2.874.268,5.361,2.544,5.913,5.413.091.474.132.866.128,1.233v.015s.004-.001.007-.002c.633-.23.753-.315,1.375-.363-.008-.011-.015-.022-.021-.035-.141-.27-.137-.579.011-.827.139-.232.377-.367.656-.371.646-.008,1.317-.011,2.054-.011.687,0,1.42.003,2.307.01.202.002.39.082.531.225.149.152.233.366.231.585-.005.456-.346.789-.81.794-.423.004-.312.005-.735.005h-1.224c1.086.427,2.007,1.183,2.743,2.255.086.126.142.148.226.148.031,0,.067-.004.11-.011.363-.064.718-.096,1.053-.096.374,0,.731.041,1.073.121.019-.322.03-.647.03-.974,0-8.855-7.178-16.033-16.033-16.033ZM21.412,21.384c-.158.157-.35.241-.554.241-.223,0-.439-.098-.625-.283-.485-.483-.969-.966-1.452-1.45-.504-.504-1.008-1.008-1.513-1.511-.262-.26-.33-.573-.197-.905.125-.314.386-.479.773-.488h.024c.187,0,.387.096.561.271l.817.816c.709.707,1.417,1.415,2.122,2.127.36.364.378.851.044,1.184ZM28.342,16.716c0,.485,0,.97-.001,1.456-.002.505-.306.837-.776.845h-.018c-.476,0-.796-.341-.797-.848-.004-1.504-.003-2.874,0-4.189.001-.5.327-.849.791-.849h.027c.467.014.77.348.772.851.002.493.001.985.001,1.478v1.255ZM37.592,18.377c-.503.499-1.003,1-1.504,1.501l-.601.601-.261.262c-.207.208-.414.416-.624.621-.175.17-.388.263-.601.263-.204,0-.395-.082-.553-.236-.157-.154-.244-.353-.247-.562-.002-.209.083-.413.241-.573.774-.787,1.57-1.579,2.339-2.345l.691-.688c.149-.148.331-.23.515-.23.015,0,.03,0,.035.001.372,0,.635.166.761.479.135.335.069.648-.191.906Z"/>
        <path class="cls-22" d="M26.257,40.325c1.313,0,2.625,0,3.938.002h.007c.242,0,.483-.018.738-.056.856-.127,1.56-.633,1.931-1.389.36-.733.335-1.567-.069-2.289-.48-.857-1.296-1.284-2.497-1.307-.517-.01-.922-.182-1.238-.525-.647-.703-1.447-1.06-2.378-1.06-.26,0-.535.028-.818.082-.148.028-.289.043-.42.043-.54,0-.95-.239-1.253-.729-.272-.439-.642-.833-1.167-1.24-.683-.531-1.66-.835-2.68-.835-1.599,0-3.601.792-4.428,3.013-.269.724-.693,1.14-1.419,1.391-.265.092-.508.22-.724.376,1.066,1.758,2.46,3.294,4.097,4.525.306,0,.612,0,.919,0h7.46Z"/>
        <path class="cls-22" d="M41.541,29.807c-.135.027-.266.041-.388.041-.497,0-.895-.229-1.183-.681-.042-.065-.088-.129-.133-.192l-.009-.012c-.875-1.21-2.304-1.933-3.824-1.933-1.088,0-2.146.376-2.978,1.059-.67.55-1.155,1.277-1.482,2.223-.186.537-.549.887-1.081,1.039-.208.059-.401.148-.606.242l-.025.011c-.092.042-.108.076-.088.181.081.418.072.868-.027,1.417-.004.019-.009.04-.016.06,0,.003-.002.006-.003.01.077.062.146.129.212.195.178.176.331.327.621.338,1.814.065,3.085.894,3.776,2.464.035.08.061.084.131.084.017,0,.073-.002.073-.002.597-.016,1.249-.024,1.993-.024.673,0,1.357.006,2.019.013.617.006,1.234.011,1.85.012h.495c1.272-1.917,2.142-4.123,2.492-6.499-.302-.092-.619-.138-.957-.138-.272,0-.563.031-.862.092Z"/>
        <path class="cls-22" d="M14.483,33.585c.917-2.545,3.106-4.065,5.855-4.065.618,0,1.222.081,1.796.24,1.311.364,2.381,1.156,3.27,2.419.013.018.024.036.036.055.049.077.057.081.083.081.01,0,.022-.001.034-.004.38-.077.757-.117,1.12-.117.55,0,1.089.09,1.6.269.004.001.008.003.011.004,0-.004,0-.008,0-.013,0-.471-.075-.836-.234-1.15-.457-.904-1.247-1.383-2.347-1.425-.512-.019-1.159-.118-1.625-.71-.025-.032-.062-.063-.101-.095-.016-.013-.031-.026-.046-.039-.578-.507-1.261-.764-2.028-.764-.235,0-.482.024-.732.073-.176.034-.335.05-.486.05-.599,0-1.041-.263-1.389-.827-.304-.494-.753-.928-1.372-1.328-.644-.417-1.497-.646-2.4-.646-1.764,0-3.219.819-4.059,2.234.047,2.374.61,4.622,1.582,6.636.305-.212.649-.378,1.027-.492.219-.067.325-.167.403-.383Z"/>
        <path class="cls-22" d="M32.333,26.094c-.004-.064-.008-.129-.011-.194-.009-.177-.018-.343-.045-.508-.421-2.614-2.544-4.44-5.162-4.44-.19,0-.384.01-.576.029-2.733.277-4.83,2.839-4.579,5.594.017.186.045.203.198.21,1.203.056,2.234.528,3.064,1.401.113.118.224.165.41.171,1.354.044,2.397.504,3.19,1.406.075.085.137.19.196.29.076.129.162.276.237.294.011.003.023.004.037.004.094,0,.224-.066.351-.131.107-.054.217-.11.33-.143.172-.05.256-.131.318-.31.386-1.097.92-1.924,1.631-2.526.295-.249.415-.512.402-.878-.002-.053-.002-.106-.001-.16v-.069c0-.015.003-.029.008-.042Z"/>
      </g>
    </g>
  </g>
</svg>