<?xml version="1.0" encoding="UTF-8"?>
<svg id="Layer_2" data-name="Layer 2" xmlns="http://www.w3.org/2000/svg" version="1.1" viewBox="10 10 45 45">
  <defs>
    <style>
      .cls-14 {
        fill: #8e9cf2;
      }

      .cls-14, .cls-24 {
        stroke-width: 0px;
      }

      .cls-24 {
        fill: none;
      }
    </style>
  </defs>
  <g transform="translate(5,5)">
  <polygon class="cls-24" points="19.815 18.454 19.115 17.034 18.414 18.454 16.847 18.682 17.981 19.787 17.713 21.347 19.115 20.611 20.516 21.347 20.248 19.787 21.382 18.682 19.815 18.454"/>
  <polygon class="cls-24" points="28.201 15.122 27.5 13.702 26.799 15.122 25.233 15.35 26.366 16.455 26.099 18.015 27.5 17.278 28.901 18.015 28.634 16.455 29.767 15.35 28.201 15.122"/>
  <path class="cls-24" d="M20.372,37.37c1.148.62,2.403.897,3.673,1.078,3.544.506,7.003.076,10.389-1.065.309-.104.606-.27.879-.455.741-.5.838-.875.476-1.695-.365-.826-.288-1.62.272-2.298.544-.658.332-1.404.336-2.119.002-.347-.28-.147-.44-.091-2.089.737-4.176,1.478-6.264,2.218-.44.156-.881.306-1.32.465-1.148.415-2.172-.095-3.213-.457-2.11-.735-4.222-1.465-6.323-2.229-.419-.152-.506-.064-.491.356.022.618.006,1.238.006,1.857,0,.359.034.723-.006,1.078-.189,1.677.717,2.653,2.025,3.359Z"/>
  <polygon class="cls-24" points="36.586 18.454 35.885 17.034 35.185 18.454 33.618 18.682 34.752 19.787 34.484 21.347 35.885 20.611 37.287 21.347 37.019 19.787 38.153 18.682 36.586 18.454"/>
  <path class="cls-24" d="M39.869,35.097c.898-.835.858-1.89-.092-2.648-.182-.145-.296-.278-.287-.537.037-1.153-.279-2.216-.888-3.173-.226-.355-.135-.474.201-.581.63-.2,1.255-.415,1.882-.622.429-.142.821-.349.81-.884-.01-.492-.357-.687-.782-.834-4.059-1.411-8.113-2.835-12.166-4.263-.536-.189-1.05-.2-1.591-.011-4.46,1.562-8.923,3.116-13.389,4.662-.437.151-.822.339-.811.872.012.567.439.726.895.861,4.341,1.292,8.683,2.582,13.015,3.905.805.246,1.484-.047,2.198-.29,1.895-.646,3.792-1.287,5.688-1.932.066-.022.126-.064.223-.114-.291-.355-.695-.403-1.037-.548-2.006-.853-4.02-1.685-6.032-2.522-.334-.139-.663-.291-.658-.733.006-.421.422-.634.932-.439,1.526.584,3.043,1.19,4.562,1.792,1.067.423,2.134.842,3.171,1.341,1.546.744,2.203,2.046,2.302,3.729.015.253-.115.4-.255.572-.545.67-.587,1.376-.087,2.08.19.267.221.533.224.836.012,1.256-.241,2.509-.034,3.769.016.1.035.2.054.299.79-.676,1.513-1.427,2.158-2.242-.208-.559-.348-1.136-.444-1.73-.044-.271.041-.434.237-.617Z"/>
  <path class="cls-14" d="M27.5,11.468c-8.855,0-16.033,7.178-16.033,16.032s7.178,16.032,16.033,16.032c3.977,0,7.616-1.449,10.418-3.847-.02-.099-.038-.198-.054-.299-.206-1.26.046-2.513.034-3.769-.003-.304-.034-.569-.224-.836-.5-.704-.458-1.41.087-2.08.14-.172.27-.318.255-.572-.099-1.682-.757-2.985-2.302-3.729-1.037-.499-2.105-.919-3.171-1.341-1.519-.602-3.036-1.208-4.562-1.792-.509-.195-.926.018-.932.439-.006.442.324.595.658.733,2.012.838,4.027,1.669,6.032,2.522.342.145.747.193,1.037.548-.097.05-.157.091-.223.114-1.896.645-3.793,1.286-5.688,1.932-.715.244-1.393.536-2.198.29-4.332-1.324-8.674-2.613-13.015-3.905-.456-.136-.883-.294-.895-.861-.011-.533.375-.721.811-.872,4.465-1.546,8.928-3.1,13.389-4.662.541-.189,1.055-.178,1.591.011,4.053,1.428,8.107,2.852,12.166,4.263.424.147.771.342.782.834.011.534-.38.742-.81.884-.627.207-1.253.422-1.882.622-.335.106-.426.226-.201.581.609.957.925,2.02.888,3.173-.008.259.106.392.287.537.95.759.99,1.813.092,2.648-.196.182-.281.345-.237.617.096.593.236,1.17.444,1.73,2.164-2.733,3.456-6.187,3.456-9.943,0-8.855-7.178-16.032-16.033-16.032ZM18.353,32.933c0-.619.017-1.239-.006-1.857-.015-.42.072-.508.491-.356,2.1.764,4.212,1.494,6.323,2.229,1.041.363,2.065.873,3.213.457.439-.159.88-.309,1.32-.465,2.088-.74,4.175-1.481,6.264-2.218.16-.056.441-.256.44.091-.003.715.208,1.461-.336,2.119-.561.679-.638,1.473-.272,2.298.363.82.265,1.194-.476,1.695-.273.184-.571.351-.879.455-3.385,1.142-6.845,1.572-10.389,1.065-1.27-.181-2.525-.458-3.673-1.078-1.307-.706-2.214-1.682-2.025-3.359.04-.355.006-.718.006-1.078ZM20.516,21.347l-1.401-.737-1.401.737.268-1.56-1.134-1.105,1.567-.228.701-1.42.701,1.42,1.567.228-1.134,1.105.268,1.56ZM28.901,18.015l-1.401-.737-1.401.737.268-1.56-1.134-1.105,1.567-.228.701-1.42.701,1.42,1.567.228-1.134,1.105.268,1.56ZM37.287,21.347l-1.401-.737-1.401.737.268-1.56-1.134-1.105,1.567-.228.701-1.42.701,1.42,1.567.228-1.134,1.105.268,1.56Z"/>
</g>
</svg>