<?xml version="1.0" encoding="utf-8"?>
<!-- Generator: Adobe Illustrator 27.0.0, SVG Export Plug-In . SVG Version: 6.00 Build 0)  -->
<svg version="1.1" id="Layer_1" xmlns="http://www.w3.org/2000/svg" xmlns:xlink="http://www.w3.org/1999/xlink" x="0px" y="0px"
	 viewBox="0 0 380 380" style="enable-background:new 0 0 380 380;" xml:space="preserve">
<style type="text/css">
	.st0{fill:#8E9CF2;}
	.st1{fill:none;}
</style>
<g>
	<g>
		<g>
			<path class="st0" d="M55.891,328.403c0,3.072-3.168,3.408-4.56,3.408c-3.265,0-3.889-1.296-4.369-2.256
				c-1.248-2.545-1.776-3.648-6.577-3.648c-1.296,0-6.289,0-6.289,3.072c0,2.448,1.2,2.88,9.793,5.856
				c8.833,3.072,12.961,5.521,12.961,11.617c0,4.416-3.024,12.816-15.649,12.816c-13.921,0-17.282-8.256-17.282-11.137
				c0-3.84,4.176-3.84,4.752-3.84c2.544,0,4.032,1.008,4.32,2.016c0.768,2.593,0.96,3.36,3.216,4.177
				c1.536,0.528,3.312,0.72,4.752,0.72c1.728,0,6.433,0,6.433-3.792c0-1.536-0.672-2.496-8.353-4.992
				c-8.113-2.641-14.401-4.657-14.401-12.529c0-3.601,1.584-12.049,16.033-12.049C50.803,317.842,55.891,323.938,55.891,328.403z"/>
			<path class="st0" d="M72.929,354.998c0,1.68-0.336,4.271-4.561,4.271c-3.264,0-4.656-1.344-4.656-4.271v-29.235
				c0-5.28,2.448-6.912,6.912-6.912h8.833c5.761,0,7.873,1.152,8.737,1.68c3.024,1.824,6,5.425,6,11.138
				c0,5.136-2.448,9.265-5.617,11.328c-3.024,1.969-8.064,1.969-9.121,1.969h-6.528V354.998z M72.929,337.044h6.096
				c4.608,0,5.712-2.4,5.712-5.137c0-3.168-1.584-5.088-5.712-5.088h-4.752c-0.864,0-1.344,0.528-1.344,1.344V337.044z"/>
			<path class="st0" d="M124.722,334.355c1.728,0,3.984,0.433,3.984,3.648c0,1.92-0.48,3.937-3.984,3.937h-14.449v6.961
				c0,0.863,0.48,1.392,1.344,1.392h15.746c1.392,0,4.08,0.24,4.08,3.889c0,3.601-2.304,4.032-4.08,4.032h-19.394
				c-4.8,0-6.912-1.872-6.912-6.912v-25.539c0-5.328,2.496-6.912,6.912-6.912h18.242c1.008,0,4.081,0.048,4.081,3.937
				c0,2.976-1.488,4.032-4.081,4.032h-14.593c-0.864,0-1.344,0.528-1.344,1.344v6.192H124.722z"/>
			<path class="st0" d="M171.426,329.747c0,2.496-1.68,3.841-4.561,3.841c-3.216,0-3.648-1.345-4.128-2.832
				c-0.384-1.248-1.584-4.849-7.873-4.849c-6.912,0-9.504,5.473-9.504,12.625c0,7.729,2.976,12.625,9.409,12.625
				c6.48,0,7.393-3.504,7.824-4.992c0.576-2.16,1.009-3.553,4.513-3.601c3.12,0,4.417,1.776,4.417,3.841
				c0,4.512-4.513,12.864-16.61,12.864c-12.241,0-19.009-8.88-19.009-20.737c0-11.953,6.865-20.689,19.009-20.689
				C166.866,317.842,171.426,326.435,171.426,329.747z"/>
			<path class="st0" d="M187.648,354.998c0,1.68-0.336,4.271-4.561,4.271c-3.36,0-4.608-1.439-4.608-4.271v-32.932
				c0-1.632,0.288-4.224,4.513-4.224c3.408,0,4.656,1.439,4.656,4.224V354.998z"/>
			<path class="st0" d="M202,356.341c-0.528,1.44-1.44,2.928-3.36,2.928c-2.112,0-5.665-1.439-5.665-3.888
				c0-0.288-0.048-1.008,0.385-2.16l10.513-29.379c1.392-3.84,3.601-6,7.969-6c3.072,0,6.24,0.768,8.112,6l10.513,29.379
				c0.097,0.24,0.433,1.152,0.433,1.968c0,3.12-4.272,4.08-5.809,4.08c-1.776,0-2.736-1.487-3.265-2.928l-1.968-5.521h-15.89
				L202,356.341z M206.799,342.996h10.273l-3.984-11.137c-0.48-1.344-0.912-1.392-1.152-1.392c-0.432,0-0.816,0.288-1.2,1.392
				L206.799,342.996z"/>
			<path class="st0" d="M245.343,348.901c0,0.863,0.479,1.392,1.344,1.392h13.97c1.296,0,4.08,0.145,4.08,3.889
				c0,3.696-2.448,4.032-4.08,4.032h-17.618c-4.8,0-6.912-1.92-6.912-6.912v-29.235c0-1.632,0.336-4.224,4.561-4.224
				c3.36,0,4.656,1.392,4.656,4.224V348.901z"/>
			<path class="st0" d="M280.046,354.998c0,1.68-0.336,4.271-4.561,4.271c-3.36,0-4.608-1.439-4.608-4.271v-32.932
				c0-1.632,0.288-4.224,4.513-4.224c3.408,0,4.656,1.439,4.656,4.224V354.998z"/>
			<path class="st0" d="M318.928,328.403c0,3.072-3.169,3.408-4.561,3.408c-3.265,0-3.889-1.296-4.368-2.256
				c-1.248-2.545-1.776-3.648-6.577-3.648c-1.296,0-6.288,0-6.288,3.072c0,2.448,1.2,2.88,9.793,5.856
				c8.832,3.072,12.961,5.521,12.961,11.617c0,4.416-3.024,12.816-15.649,12.816c-13.921,0-17.281-8.256-17.281-11.137
				c0-3.84,4.176-3.84,4.752-3.84c2.544,0,4.032,1.008,4.32,2.016c0.769,2.593,0.96,3.36,3.217,4.177
				c1.536,0.528,3.312,0.72,4.752,0.72c1.729,0,6.433,0,6.433-3.792c0-1.536-0.672-2.496-8.353-4.992
				c-8.113-2.641-14.401-4.657-14.401-12.529c0-3.601,1.584-12.049,16.033-12.049C313.839,317.842,318.928,323.938,318.928,328.403z
				"/>
			<path class="st0" d="M327.709,326.819c-1.296,0-4.08-0.192-4.08-3.937c0-3.696,2.448-4.032,4.08-4.032H352
				c1.008,0,4.08,0.048,4.08,3.937c0,2.976-1.488,4.032-4.08,4.032h-7.585v28.179c0,1.536-0.24,4.271-4.464,4.271
				c-2.833,0-4.705-0.912-4.705-4.271v-28.179H327.709z"/>
		</g>
	</g>
	<g>
		<g>
			<polygon class="st1" points="128.506,75.939 122.969,64.72 117.432,75.939 105.051,77.738 114.01,86.471 111.895,98.802 
				122.969,92.98 134.043,98.802 131.928,86.471 140.887,77.738 			"/>
		</g>
		<g>
			<polygon class="st1" points="194.767,49.609 189.23,38.39 183.693,49.609 171.312,51.408 180.271,60.141 178.156,72.472 
				189.23,66.65 200.304,72.472 198.189,60.141 207.148,51.408 			"/>
		</g>
		<g>
			<path class="st1" d="M132.901,225.414c9.071,4.899,18.987,7.088,29.022,8.521c28.005,4,55.342,0.603,82.093-8.419
				c2.44-0.823,4.792-2.136,6.949-3.593c5.852-3.953,6.626-6.912,3.759-13.391c-2.886-6.524-2.279-12.8,2.152-18.162
				c4.299-5.203,2.626-11.095,2.653-16.748c0.013-2.741-2.209-1.164-3.473-0.718c-16.506,5.821-32.999,11.68-49.497,17.525
				c-3.473,1.231-6.962,2.418-10.427,3.672c-9.071,3.283-17.16-0.75-25.386-3.615c-16.676-5.808-33.365-11.58-49.962-17.617
				c-3.312-1.205-3.999-0.508-3.879,2.811c0.177,4.885,0.046,9.782,0.046,14.673c-0.002,2.84,0.268,5.713-0.048,8.516
				C115.404,212.122,122.569,219.834,132.901,225.414z"/>
		</g>
		<g>
			<polygon class="st1" points="261.029,75.939 255.492,64.72 249.955,75.939 237.574,77.738 246.533,86.471 244.418,98.802 
				255.492,92.98 266.565,98.802 264.451,86.471 273.409,77.738 			"/>
		</g>
		<g>
			<path class="st1" d="M286.975,207.455c7.099-6.596,6.78-14.931-0.727-20.925c-1.436-1.147-2.336-2.2-2.271-4.244
				c0.29-9.112-2.206-17.512-7.017-25.073c-1.783-2.803-1.064-3.747,1.584-4.588c4.975-1.58,9.916-3.277,14.873-4.917
				c3.394-1.122,6.488-2.76,6.4-6.983c-0.081-3.891-2.825-5.427-6.176-6.592c-32.072-11.148-64.111-22.4-96.138-33.685
				c-4.236-1.493-8.297-1.581-12.571-0.084c-35.246,12.341-70.512,24.624-105.798,36.841c-3.451,1.195-6.497,2.681-6.41,6.891
				c0.092,4.481,3.468,5.735,7.071,6.807c34.303,10.21,68.613,20.401,102.845,30.861c6.364,1.944,11.724-0.368,17.371-2.293
				c14.977-5.106,29.967-10.172,44.948-15.268c0.522-0.178,0.998-0.503,1.764-0.898c-2.297-2.807-5.495-3.181-8.197-4.33
				c-15.85-6.742-31.769-13.314-47.668-19.932c-2.636-1.097-5.243-2.301-5.196-5.796c0.045-3.323,3.337-5.01,7.363-3.469
				c12.055,4.615,24.047,9.404,36.05,14.163c8.428,3.342,16.863,6.655,25.059,10.601c12.213,5.88,17.411,16.171,18.193,29.467
				c0.118,2.002-0.907,3.159-2.013,4.518c-4.305,5.291-4.638,10.87-0.686,16.433c1.501,2.113,1.746,4.208,1.768,6.608
				c0.094,9.928-1.902,19.823-0.272,29.783c0.13,0.792,0.275,1.578,0.43,2.361c6.24-5.34,11.955-11.273,17.056-17.716
				c-1.644-4.421-2.75-8.98-3.508-13.668C284.757,210.183,285.425,208.895,286.975,207.455z"/>
		</g>
		<g>
			<path class="st0" d="M189.23,20.731c-69.969,0-126.691,56.721-126.691,126.691s56.722,126.691,126.691,126.691
				c31.43,0,60.182-11.45,82.326-30.4c-0.155-0.782-0.301-1.568-0.43-2.361c-1.629-9.96,0.366-19.856,0.272-29.783
				c-0.023-2.4-0.267-4.495-1.768-6.608c-3.953-5.563-3.62-11.142,0.686-16.433c1.106-1.359,2.131-2.515,2.013-4.518
				c-0.782-13.295-5.98-23.587-18.193-29.467c-8.196-3.946-16.631-7.259-25.059-10.601c-12.002-4.759-23.995-9.548-36.05-14.163
				c-4.026-1.541-7.318,0.146-7.363,3.469c-0.047,3.495,2.56,4.699,5.196,5.796c15.9,6.618,31.818,13.19,47.668,19.932
				c2.702,1.149,5.9,1.523,8.197,4.33c-0.766,0.395-1.241,0.72-1.764,0.898c-14.98,5.096-29.971,10.161-44.948,15.268
				c-5.647,1.925-11.008,4.238-17.371,2.293c-34.232-10.46-68.541-20.65-102.845-30.861c-3.603-1.072-6.979-2.327-7.071-6.807
				c-0.086-4.211,2.959-5.696,6.41-6.891c35.287-12.218,70.552-24.5,105.798-36.841c4.274-1.497,8.335-1.409,12.571,0.084
				c32.027,11.284,64.066,22.537,96.138,33.685c3.351,1.165,6.094,2.701,6.176,6.592c0.088,4.223-3.007,5.86-6.4,6.983
				c-4.958,1.639-9.898,3.336-14.873,4.917c-2.649,0.841-3.368,1.785-1.584,4.588c4.811,7.561,7.307,15.961,7.017,25.073
				c-0.065,2.043,0.834,3.097,2.271,4.244c7.506,5.994,7.825,14.329,0.727,20.925c-1.55,1.44-2.218,2.728-1.871,4.873
				c0.758,4.688,1.864,9.247,3.508,13.668c17.097-21.596,27.309-48.892,27.309-78.575C315.921,77.452,259.2,20.731,189.23,20.731z
				 M116.948,190.355c0-4.892,0.131-9.788-0.046-14.673c-0.12-3.319,0.568-4.015,3.879-2.811
				c16.597,6.037,33.287,11.809,49.962,17.617c8.226,2.865,16.315,6.897,25.386,3.615c3.466-1.254,6.954-2.441,10.427-3.672
				c16.498-5.845,32.991-11.704,49.497-17.525c1.265-0.446,3.486-2.023,3.473,0.718c-0.026,5.654,1.646,11.546-2.653,16.748
				c-4.431,5.363-5.038,11.639-2.152,18.162c2.866,6.479,2.093,9.438-3.759,13.391c-2.156,1.456-4.509,2.77-6.949,3.593
				c-26.751,9.021-54.088,12.418-82.093,8.419c-10.035-1.433-19.952-3.622-29.022-8.521c-10.331-5.581-17.496-13.292-16.001-26.544
				C117.216,196.068,116.946,193.195,116.948,190.355z M134.043,98.802l-11.074-5.822l-11.074,5.822l2.115-12.331l-8.959-8.733
				l12.381-1.799l5.537-11.219l5.537,11.219l12.381,1.799l-8.959,8.733L134.043,98.802z M200.304,72.472L189.23,66.65l-11.074,5.822
				l2.115-12.331l-8.959-8.733l12.381-1.799l5.537-11.219l5.537,11.219l12.381,1.799l-8.959,8.733L200.304,72.472z M266.565,98.802
				l-11.074-5.822l-11.074,5.822l2.115-12.331l-8.959-8.733l12.381-1.799l5.537-11.219l5.537,11.219l12.381,1.799l-8.959,8.733
				L266.565,98.802z"/>
		</g>
	</g>
</g>
</svg>
