<?xml version="1.0" encoding="UTF-8"?>
<svg xmlns="http://www.w3.org/2000/svg" version="1.1" viewBox="0 0 42.52 42.52">
  <defs>
    <style>
      .cls-1 {
        fill: #aca4b9;
      }
    </style>
  </defs>
  <!-- Generator: Adobe Illustrator 28.7.3, SVG Export Plug-In . SVG Version: 1.2.0 Build 164)  -->
  <g>
    <g id="location-icon">
      <path class="cls-1" d="M32.942,15.596c-1.143-5.754-6.152-9.931-11.913-9.931h-.105l-.159.002c-.384.005-.781.009-1.204.062-3.622.453-6.519,2.171-8.61,5.104-2.143,3.008-2.789,6.476-1.919,10.31.568,2.503,1.683,4.96,3.509,7.732,1.847,2.808,4.048,5.396,6.73,7.913.198.187.803.753,1.644.753s1.453-.57,1.653-.756c1.694-1.581,3.293-3.323,4.753-5.177,2.281-2.899,3.814-5.524,4.825-8.263,1.02-2.764,1.28-5.299.794-7.751ZM25.866,17.925c-.003,2.766-2.179,4.933-4.958,4.933-2.771-.003-4.941-2.179-4.94-4.952.001-2.773,2.179-4.945,4.958-4.945h.014c2.767.007,4.93,2.187,4.926,4.965Z"/>
    </g>
  </g>
</svg>