<?xml version="1.0" encoding="UTF-8"?>
<svg xmlns="http://www.w3.org/2000/svg" version="1.1" viewBox="0 0 42.52 42.52">
  <defs>
    <style>
      .cls-1 {
        fill: #aca4b9;
      }
    </style>
  </defs>
  <!-- Generator: Adobe Illustrator 28.7.3, SVG Export Plug-In . SVG Version: 1.2.0 Build 164)  -->
  <g>
    <g id="email-icon">
      <g>
        <path class="cls-1" d="M21.261,32.421c-3.845,0-7.69.006-11.536-.005-.793-.002-1.558-.146-2.226-.637-.955-.702-1.365-1.676-1.37-2.815-.016-4.328-.007-8.656-.006-12.985,0-.062.001-.124.009-.186.103-.771.77-1.077,1.4-.627,1.043.745,2.075,1.504,3.111,2.257,2.867,2.083,5.733,4.168,8.603,6.248.275.199.57.374.868.539.755.418,1.516.409,2.28.01.7-.366,1.313-.859,1.949-1.32,3.522-2.553,7.041-5.111,10.561-7.667.28-.203.575-.417.935-.223.386.208.56.554.56.999-.003,4.308.004,8.615-.005,12.923-.003,1.526-.822,2.77-2.107,3.242-.488.179-1.003.246-1.523.246-3.835.001-7.67,0-11.504,0Z"/>
        <path class="cls-1" d="M21.284,10.101c3.824,0,7.648.001,11.472-.002.356,0,.673.067.922.348.224.253.246.547.038.812-.122.155-.27.283-.43.4-3.336,2.422-6.67,4.845-10.006,7.266-.301.219-.619.411-.953.578-.717.358-1.427.351-2.143-.005-.699-.348-1.304-.835-1.93-1.29-2.986-2.165-5.968-4.335-8.951-6.505-.133-.097-.26-.204-.38-.317-.485-.453-.246-.961.282-1.196.21-.094.442-.091.671-.091,3.803.002,7.606.001,11.41.001Z"/>
      </g>
    </g>
  </g>
</svg>