<?xml version="1.0" encoding="UTF-8"?>
<svg xmlns="http://www.w3.org/2000/svg" version="1.1" viewBox="0 0 42.52 42.52">
  <defs>
    <style>
      .cls-1 {
        fill: #aca4b9;
      }
    </style>
  </defs>
  <!-- Generator: Adobe Illustrator 28.7.3, SVG Export Plug-In . SVG Version: 1.2.0 Build 164)  -->
  <g>
    <g id="phone-icon">
      <path class="cls-1" d="M13.997,36.251c1.27-.119,2.493-.441,3.688-.881,3.165-1.167,5.936-2.985,8.492-5.153,2.562-2.174,4.778-4.66,6.617-7.473,1.531-2.341,2.738-4.828,3.304-7.591.06-.295.105-.593.149-.891.068-.459-.03-.88-.264-1.286-.887-1.541-1.979-2.927-3.161-4.247-.688-.769-1.406-1.507-2.267-2.087-.899-.605-1.923-.499-2.57.375-1.512,2.042-2.913,4.158-3.931,6.5-.174.4-.331.819-.301,1.264.036.535.315.969.699,1.321.544.499,1.105.98,1.67,1.455.188.157.233.298.142.534-1.508,3.922-4.218,6.639-8.137,8.155-.256.099-.413.055-.588-.151-.504-.594-.982-1.212-1.549-1.752-.599-.57-1.265-.734-2.063-.454-1.187.417-2.268,1.037-3.337,1.682-1.132.682-2.232,1.414-3.305,2.186-.256.184-.483.393-.661.655-.489.721-.501,1.33-.025,2.058.621.95,1.436,1.726,2.278,2.47,1.28,1.131,2.616,2.19,4.112,3.03.311.175.63.329,1.006.282Z"/>
    </g>
  </g>
</svg>