<?xml version="1.0" encoding="UTF-8"?>
<svg xmlns="http://www.w3.org/2000/svg" version="1.1" viewBox="0 0 42.52 42.52">
  <defs>
    <style>
      .cls-1 {
        fill: #aca4b9;
      }
    </style>
  </defs>
  <!-- Generator: Adobe Illustrator 28.7.3, SVG Export Plug-In . SVG Version: 1.2.0 Build 164)  -->
  <g>
    <g id="website-icon">
      <path class="cls-1" d="M21.25,36.403c-4.035-.003-7.835-1.588-10.702-4.464-2.864-2.872-4.437-6.678-4.428-10.713.019-8.332,6.812-15.109,15.142-15.109,4.068.007,7.872,1.6,10.74,4.485,2.854,2.872,4.415,6.665,4.397,10.68.008,4.007-1.562,7.795-4.42,10.659-2.871,2.877-6.676,4.461-10.715,4.461h-.014ZM18.938,27.418c.243,1.32.594,2.807,1.257,4.214.264.561.517,1,.889,1.326.112.098.169.126.188.133.002-.008.059-.036.169-.132.386-.339.644-.796.913-1.375.662-1.429,1.009-2.94,1.234-4.166-.283,0-4.648,0-4.648,0ZM11.154,27.418c1.025,1.665,2.389,3.015,4.059,4.017.534.32,1.078.591,1.644.817-.689-1.697-1.038-3.428-1.266-4.838-.784.004-4.438.004-4.438.004ZM26.937,27.412c-.309,1.915-.712,3.452-1.265,4.829,2.412-.985,4.323-2.606,5.693-4.823h-1.974c-.818,0-1.636,0-2.454-.006ZM32.759,24.095c.453-1.892.452-3.792,0-5.668-.404.003-5.086.003-5.446,0,.04.673.071,1.337.094,2.001.043,1.231-.023,2.466-.094,3.665.886-.002,1.762-.004,2.639-.004.936,0,1.871.002,2.806.005ZM9.767,18.425c-.453,1.896-.451,3.795-.003,5.669.431-.004,2.779-.002,2.779-.002,0,0,2.307,0,2.666.002-.043-.65-.07-1.287-.092-1.922-.046-1.295.026-2.629.094-3.746-.89.003-1.761.005-2.632.005-.937,0-1.875-.002-2.813-.006ZM23.989,24.093c.01-.137.023-.269.035-.401.02-.207.041-.414.044-.622l.006-.448c.019-1.379.039-2.804-.076-4.195-1,.002-5.466.002-5.466.002-.007.085-.015.17-.023.255-.024.265-.049.53-.053.795l-.006.404c-.02,1.385-.04,2.814.075,4.21.397-.002,4.389-.004,4.389-.004.358,0,.716,0,1.074.004ZM13.134,15.102c.818,0,1.636,0,2.454.007.309-1.914.712-3.452,1.264-4.829-2.412.985-4.323,2.606-5.693,4.823h1.975ZM25.67,10.274c.556,1.386.961,2.934,1.265,4.833.829-.005,3.57-.006,3.57-.006h.863c-.66-1.076-1.464-2.024-2.399-2.822-1.009-.861-2.097-1.524-3.299-2.005ZM23.586,15.103c-.242-1.312-.59-2.791-1.247-4.192-.267-.57-.522-1.018-.901-1.352-.096-.084-.151-.116-.176-.127-.024.011-.081.044-.18.132-.385.339-.642.796-.912,1.376-.66,1.427-1.008,2.937-1.232,4.163.28,0,2.299,0,2.299,0h2.35Z"/>
    </g>
  </g>
</svg>