<?xml version="1.0" encoding="UTF-8"?>
<svg id="cardio" xmlns="http://www.w3.org/2000/svg" version="1.1" viewBox="0 0 55 55">
  <defs>
    <style>
      .cls-1 {
        fill: #efefef;
      }

      .cls-1, .cls-2 {
        stroke-width: 0px;
      }

      .cls-2 {
        fill: #645780;
      }
    </style>
  </defs>
  <path class="cls-1" d="M48.801,25.612c-.342-2.452-1.197-4.899-2.19-6.929-3.472-7.101-10.173-12.17-18.41-11.256-8.932.991-17.648,7.487-20.426,16.152-1.496,4.667-1.429,9.962.882,14.283s7.061,7.432,11.952,7.125c4.891-.307,9.446-4.469,9.566-9.368.031-1.278-.156-2.734.716-3.669,2.957-3.172,7.154,2.466,9.293,3.342,1.745.715,3.814.583,5.456-.347,3.92-2.221,3.725-5.283,3.16-9.333Z"/>
  <g>
    <g>
      <path class="cls-2" d="M23.857,40.644c.289-.101.43-.426.298-.703l-1.753-3.678c-.125-.263-.437-.373-.7-.248-.262.124-.373.437-.249.699l1.752,3.676c.113.237.387.348.635.26.005-.002.011-.004.016-.006Z"/>
      <path class="cls-2" d="M25.591,42.912l-.364-.721c-.123-.258-.434-.364-.69-.236-.007.004-.015.007-.022.011-.249.122-.352.432-.233.682l.36.713c.116.244.402.349.652.247.009-.004.018-.007.026-.011.272-.107.396-.422.27-.685Z"/>
      <path class="cls-2" d="M33.985,33.819c-.026-.241-.214-.433-.454-.464-2.121-.276-4.543-.276-7.401-.002-.167.016-.317.111-.402.256-.085.146-.096.322-.028.477l4.719,10.93c.224.512.177,1.072-.129,1.538s-.833.735-1.389.735h-.199c-.622,0-1.197-.363-1.466-.925l-.576-1.208c-.117-.246-.41-.357-.658-.244-.013.006-.026.012-.038.017-.26.113-.373.421-.251.677l.576,1.209c.44.926,1.388,1.524,2.413,1.524h.229c.905,0,1.741-.453,2.237-1.21.495-.758.575-1.705.213-2.534l-4.428-10.262c2.188-.178,4.097-.183,5.802-.011.133.013.239.118.252.251.267,2.782.317,5.773.148,8.911-.016.293.214.542.508.546.005,0,.009,0,.014,0,.279.005.512-.212.527-.491.185-3.437.112-6.703-.219-9.721Z"/>
      <path class="cls-2" d="M38.325,14.828c-.279-.06-.56.127-.617.412-.98,4.905-.873,9.75-.748,15.359.093,4.143.197,8.839-.167,14.119-.048.686-.629,1.222-1.324,1.222-.372,0-.718-.149-.972-.422-.008-.009-.018-.02-.028-.033-.152-.186-.41-.248-.627-.145-.004.002-.008.004-.012.006-.308.144-.396.544-.176.803.025.029.051.058.077.087.448.479,1.082.755,1.738.755,1.245,0,2.286-.967,2.371-2.2.368-5.328.263-10.05.17-14.215-.123-5.548-.23-10.339.728-15.13.057-.285-.127-.561-.412-.618Z"/>
    </g>
    <g>
      <path class="cls-2" d="M39.181,12.818c-.078-.933-1.029-1.75-2.121-1.82-.561-.039-2.408.087-3.053,3.075-.002.009-.004.018-.007.026-.786,2.763-1.175,6.045-1.158,9.769.001.287-.235.518-.521.51l-7.794-.226c-3.425,0-6.699,2.329-7.965,5.668l-1.623,4.409c-.093.254.029.537.278.642.011.005.022.009.032.014.266.116.574-.02.675-.293l1.621-4.404c1.113-2.937,3.984-4.987,6.966-4.987l8.856.257c.158-.005.283-.052.386-.153.103-.102.158-.241.154-.385-.101-4.071.271-7.619,1.114-10.581.325-1.518,1.046-2.366,1.97-2.294.616.04,1.111.486,1.142.859.025.289.279.504.566.48.289-.024.504-.278.48-.567Z"/>
      <path class="cls-2" d="M21.876,32.142c-.267-.114-.576.008-.69.274l-5.953,13.893c-.257.596-.842.979-1.49.979-.538,0-1.023-.253-1.332-.694-.308-.441-.378-.983-.192-1.488l2.853-8.196c.105-.286-.064-.598-.36-.668-.008-.002-.015-.004-.023-.005-.253-.063-.514.07-.604.315l-2.852,8.192c-.302.819-.184,1.736.316,2.452.5.717,1.319,1.145,2.193,1.145,1.068,0,2.032-.634,2.454-1.614l5.953-13.893c.115-.267-.008-.575-.274-.69Z"/>
    </g>
    <path class="cls-2" d="M43.054,33.812c-2.396,0-4.345-1.949-4.345-4.346s1.949-4.345,4.345-4.345,4.346,1.949,4.346,4.345-1.949,4.346-4.346,4.346ZM43.054,26.172c-1.816,0-3.294,1.479-3.294,3.295s1.478,3.295,3.294,3.295,3.295-1.478,3.295-3.295-1.478-3.295-3.295-3.295Z"/>
    <g>
      <path class="cls-2" d="M6.614,14.983h0c.343,0,.596-.324.508-.656-.053-.2-.093-.398-.122-.597-.213-1.467.161-2.958,1.027-4.091.821-1.074,1.993-1.731,3.389-1.9.046-.005.093-.007.14-.007.054,0,.108.002.162.004l.196.004h.042c1.271,0,2.39.444,3.421,1.357.299.265.542.523.742.791.154.206.339.312.55.315.328.008.496-.221.573-.317.687-.863,1.53-1.491,2.508-1.868,2.311-.894,5.046.208,6.097,2.452.606,1.292.735,2.562.389,3.851-.09.334.16.662.505.662h0c.237,0,.446-.16.507-.389.407-1.528.258-3.06-.45-4.57-1.28-2.732-4.61-4.073-7.426-2.986-1.024.395-1.921,1.021-2.688,1.881-.18-.205-.382-.406-.611-.608-1.227-1.085-2.607-1.634-4.16-1.621l-.161-.004c-.155-.004-.311-.008-.464.011-1.659.201-3.113,1.02-4.096,2.305-1.037,1.356-1.486,3.135-1.232,4.88.035.238.083.476.146.714.061.229.27.387.507.387Z"/>
      <path class="cls-2" d="M21.083,21.516c-.176-.206-.48-.243-.696-.078-.794.609-1.653,1.209-2.583,1.804-.738.474-1.488.477-2.227.012-1.599-1.007-3.084-2.126-4.415-3.325-.798-.719-1.457-1.391-2.012-2.052-.1-.119-.246-.187-.401-.187h0c-.445,0-.69.52-.404.861.587.699,1.279,1.405,2.114,2.158,1.375,1.239,2.908,2.395,4.558,3.434.537.338,1.1.507,1.664.507.572,0,1.145-.174,1.688-.522.956-.612,1.84-1.229,2.659-1.857.236-.181.258-.521.062-.745-.003-.003-.005-.006-.008-.009Z"/>
      <path class="cls-2" d="M24.614,17.69h0c-.155,0-.301.068-.401.186-.174.207-.358.414-.554.623-.414.443-.854.878-1.321,1.307-.185.17-.219.449-.077.656.005.007.01.015.015.022.172.262.534.314.765.103.49-.449.951-.905,1.387-1.371.207-.222.404-.443.589-.663.287-.341.043-.863-.403-.863Z"/>
    </g>
    <path class="cls-2" d="M17.33,21.771c-.009,0-.018,0-.027,0-.252-.013-.459-.203-.493-.453l-.919-6.702-1.075,4.45c-.054.225-.25.388-.48.4-.239.026-.444-.126-.523-.344l-1.036-2.84-.433.371c-.095.082-.216.126-.342.126h-4.631c-.29,0-.525-.235-.525-.525s.235-.525.525-.525h4.437l.861-.738c.131-.112.308-.154.475-.109.167.043.301.166.36.328l.701,1.92,1.32-5.464c.059-.245.306-.412.537-.401.252.013.459.203.494.453l.92,6.712,1.025-4.221c.054-.22.242-.381.467-.399.231-.013.438.11.526.318l.681,1.601h5.816c.29,0,.525.235.525.525s-.235.525-.525.525h-6.163c-.21,0-.401-.125-.483-.319l-.197-.463-1.306,5.374c-.058.236-.269.401-.51.401Z"/>
  </g>
</svg>