<?xml version="1.0" encoding="UTF-8"?>
<svg id="arrival" xmlns="http://www.w3.org/2000/svg" version="1.1" viewBox="0 0 55 55">
  <defs>
    <style>
      .cls-1 {
        fill: #efefef;
      }

      .cls-1, .cls-2 {
        stroke-width: 0px;
      }

      .cls-2 {
        fill: #645780;
      }
    </style>
  </defs>
  <path class="cls-1" d="M43.254,21.393c2.497-5.148-.272-12.15-5.613-14.199-2.821-1.082-6.085-.626-8.454,1.253-1.134.899-2.155,1.965-3.435,2.639-2.753,1.45-4.996-.543-7.661-1.114-5.147-1.104-10.069,4.756-7.873,9.619,1.008,2.233,3.334,3.738,4.05,6.081,1.221,3.993-2.751,7.758-2.994,11.927-.137,2.343,1.027,4.72,2.962,6.048,1.935,1.328,4.571,1.561,6.708.591,2.187-.992,3.881-3.132,6.264-3.427,3.237-.399,5.722,2.713,8.72,3.995,3.377,1.443,7.679.25,9.83-2.726,2.151-2.976,1.934-7.435-.497-10.189-1.45-1.643-3.668-2.903-3.981-5.072-.28-1.941,1.119-3.662,1.975-5.427Z"/>
  <g>
    <g>
      <path class="cls-2" d="M45.576,30.208c0,.653.005,1.306-.002,1.959-.009.899-.721,1.686-1.615,1.651-.449-.018-.951.004-1.347.243-.327.198-.675.495-.919.791s-.196.629-.159.996c.032.323.218.525.54.616.585.164,1.167.34,1.748.518,1.175.358,1.753,1.143,1.754,2.374,0,1.025.002-.558,0,.466-.001.422-.211.672-.545.664-.5-.013-.564-.586-.516-.977,0,.104-.001.208-.002.313,0-.921-.165-1.537-1.118-1.818-.14-.041-.284-.076-.419-.13-.212-.085-.382-.035-.563.096-2.038,1.478-4.402,1.45-6.413-.073-.102-.077-.206-.123-.332-.148-.247-.05-.393-.21-.415-.466-.024-.269.096-.466.344-.559.284-.107.578-.188.868-.279.332-.104.502-.324.492-.677-.002-.067-.008-.136.002-.202.063-.411-.09-.674-.448-.916-.787-.533-1.299-1.298-1.612-2.194-.065-.185-.099-.373-.01-.559.179-.374.68-.417.915-.072.075.109.116.243.165.368.59,1.517,2.076,2.442,3.653,2.273,1.503-.161,2.829-1.452,3.075-2.994.247-1.551-.366-2.557-1.863-3.057-1.185-.396-2.372-.787-3.554-1.191-.257-.088-.362-.061-.374.243-.015.378-.252.579-.58.561-.305-.016-.495-.235-.518-.597-.069-1.062.655-1.623,1.668-1.289,1.261.417,2.522.835,3.781,1.256,2.135.715,3.063,2.617,2.383,4.86-.042.138-.217.324-.067.425.172.117.415.071.614-.029.213-.107.317-.312.315-.528-.012-1.484.165-2.981-.113-4.448-.374-1.977-1.567-3.33-3.464-3.972-1.898-.643-3.64-.252-5.17,1.049-.069.058-.131.125-.204.177-.264.189-.57.159-.758-.067-.196-.236-.183-.508.064-.754.967-.961,2.137-1.543,3.48-1.722,3.219-.428,6.084,1.44,7.016,4.531.252.834.233,1.689.226,2.545-.002.248,0,.495,0,.743ZM37.135,37.378c1.367.712,2.676.759,4.004.115.093-.045.245-.102.064-.23-.553-.392-.796-.927-.745-1.599.014-.188-.065-.24-.24-.199-.622.145-1.245.162-1.869.014-.179-.042-.285.012-.281.215.017.708-.268,1.261-.933,1.683Z"/>
      <path class="cls-2" d="M17.385,22.912c.695.045,1.555-.088,2.404.074.665.127,1.26.414,1.775.857.315.271.363.568.151.823-.208.251-.531.273-.838.02-.564-.465-1.217-.693-1.933-.696-1.249-.006-2.5-.069-3.748.039-1.392.12-2.545,1.317-2.604,2.703-.015.36.001.721-.008,1.081-.005.206.057.303.286.31.69.022.911-.181.914-.881,0-.237-.007-.473.004-.709.028-.609.279-.803.876-.685.784.155,1.567.313,2.35.469.993.199,1.986.398,2.979.596.508.101.744.331.684.67-.066.371-.37.514-.886.411-1.489-.299-2.977-.601-4.467-.901-.429-.086-.429-.083-.434.346-.011,1.055-.683,1.723-1.797,1.783-.18.01-.361,0-.54.02-.321.036-.548.286-.549.584,0,.299.225.551.547.589.156.018.315.009.472.012.507.009.693.187.717.686.08,1.671,1.246,3.001,2.901,3.312,1.556.292,3.186-.58,3.813-2.039.053-.124.096-.253.147-.377.141-.339.398-.482.684-.385.308.105.451.385.344.739-.168.555-.442,1.059-.812,1.507-.303.367-.65.688-1.051.945-.16.102-.223.224-.228.414-.027,1.043-.004,1.08,1.007,1.384.129.039.261.073.383.128.231.104.333.294.312.546-.021.256-.165.423-.413.466-.155.027-.267.104-.383.194-1.884,1.457-4.404,1.488-6.307.066-.223-.167-.421-.2-.684-.118-1.321.41-1.468.059-1.468,1.441,0,.856.002-.355-.001.501-.001.405-.2.648-.521.655-.333.007-.54-.244-.541-.668-.002-1.07-.003.468,0-.602.003-1.027.587-1.846,1.566-2.169.609-.201,1.228-.372,1.843-.555.492-.147.612-.336.652-.85.034-.443-.088-.729-.48-1.001-.943-.654-1.518-1.587-1.752-2.714-.055-.265-.16-.392-.44-.45-1.332-.275-1.831-1.706-.974-2.765.11-.136.134-.274.138-.435.018-.641-.038-1.282.051-1.923.269-1.941,1.955-3.432,3.91-3.442.597-.003,1.194,0,1.949,0ZM19.343,37.37c-.655-.416-.934-.991-.92-1.722.004-.23-.173-.19-.319-.158-.591.13-1.182.124-1.77-.014-.213-.05-.315-.01-.296.237.049.633-.187,1.145-.702,1.516-.184.133-.121.197.034.274.252.126.513.233.786.3,1.101.268,2.154.17,3.187-.433Z"/>
    </g>
    <path class="cls-2" d="M32.9,24.356c-.078-.086-.142-.161-.112-.295.138-.658.067-1.327.06-1.988-.015-.934-.815-1.42-1.682-1.054-.557.239-1.117.482-1.674.725-.209-.239-.519-.392-.863-.392h-.415c-.392,0-.74.198-.949.504-.658-.295-1.319-.575-1.984-.852-.852-.348-1.614.157-1.64,1.08-.011.329,0,.654-.004.979,0,.374.112.77.045,1.102-.071.336-.441.602-.658.912-.964,1.375-1.214,2.915-1.117,4.521-.011.037-.015.075-.015.116v6.764c0,.295.243.538.538.538.299,0,.542-.243.542-.538v-5.097c.123.052.258.09.404.116.247.045.321.161.366.385.228,1.128.796,2.066,1.73,2.732.381.277.538.564.471,1.005-.007.045,0,.09-.004.135-.007.426-.12.579-.534.706-.632.198-1.274.374-1.902.587-.886.303-1.461.908-1.562,1.853-.131,1.211-.049.942-.037,2.156.004.348.262.564.564.549.299-.011.519-.239.523-.59.011-.561.004-.179.004-.744h.004c0-.527-.007-.516.004-1.046.007-.546.291-.942.807-1.128.232-.082.478-.127.706-.224.228-.093.389-.037.583.108,1.786,1.353,4.193,1.45,5.994.194.433-.299.781-.359,1.263-.191.867.299,1.14.628,1.14,1.551.004.99-.004.493.004,1.483.004.433.362.699.717.553.265-.108.351-.321.348-.598-.004-1.069.004-.654-.004-1.723-.004-1.095-.579-1.883-1.625-2.223-.579-.191-1.166-.355-1.749-.527-.549-.164-.639-.28-.643-.863,0-.093.011-.183,0-.273-.037-.277.078-.445.31-.609,1.001-.699,1.652-1.648,1.895-2.851.052-.262.161-.37.422-.419.112-.022.22-.052.321-.086v5.078c0,.295.243.538.538.538.299,0,.538-.243.538-.538v-6.528c.191-2.081-.191-4.002-1.667-5.594ZM29.78,22.809c.628-.269,1.173-.504,1.723-.74.194-.086.239.007.239.179,0,.415.004.83,0,1.244,0,.138-.022.265-.213.183-.557-.239-1.11-.478-1.749-.751l-.135-.056c.045-.019.09-.037.135-.06ZM27.885,22.503c0-.183.149-.329.329-.329h.415c.183,0,.329.146.329.329v.732c0,.183-.146.329-.329.329h-.415c-.179,0-.329-.146-.329-.329v-.732ZM24.754,22.223c0-.168.071-.224.232-.157.587.254,1.173.504,1.865.803-.688.295-1.282.549-1.876.803-.142.06-.22.015-.22-.138-.004-.437,0-.874,0-1.312ZM24.537,24.958c.037-.041.09-.082.142-.09.923-.172,1.741-.62,2.582-.998.202.31.557.516.953.516h.415c.344,0,.654-.153.867-.392.527.232,1.061.46,1.592.688.198.086.396.172.617.168.153-.004.247.09.34.191.729.777,1.181,1.693,1.371,2.735.067.359.026.385-.355.355-.22-.019-.448-.007-.673-.015-.404-.015-.617-.176-.676-.564-.06-.362-.258-.549-.609-.62-1.831-.362-3.658-.736-5.489-1.095-.549-.105-.811.127-.822.684-.004.318.007.632-.004.945-.011.396-.235.624-.628.65-.303.019-.609-.015-.912.041-.224.045-.176-.135-.183-.28.176-1.121.661-2.1,1.472-2.918ZM30.15,37.484c-1.009.65-2.941.598-3.991-.131.632-.4.912-.953.893-1.663-.004-.206.108-.254.284-.209.613.146,1.222.127,1.835-.004.187-.041.28.03.269.228-.03.643.202,1.162.729,1.54.138.101.112.157-.019.239ZM32.937,30.41c-.157.019-.314.011-.471.011-.508.011-.691.191-.721.688-.093,1.416-.781,2.436-2.059,3.057-.448.217-.934.314-1.439.31-1.868,0-3.415-1.472-3.494-3.333-.022-.542-.206-.714-.755-.721-.138,0-.273.007-.407-.007-.336-.03-.583-.284-.587-.59-.004-.303.239-.557.579-.59.258-.022.519-.015.774-.049.919-.116,1.525-.796,1.543-1.711q.011-.463.471-.37c1.312.265,2.623.527,3.939.788.176.037.336.071.43.273.329.725.923,1.039,1.7,1.058.168.004.34-.004.504.019.318.037.546.288.546.579v.007c-.004.291-.235.546-.553.583Z"/>
    <path class="cls-2" d="M15.252,31.545c-.239,0-.432-.193-.432-.432v-.86c0-.239.193-.432.432-.432s.432.193.432.432v.86c0,.239-.193.432-.432.432ZM19.725,31.114v-.86c0-.239-.193-.432-.432-.432s-.432.193-.432.432v.86c0,.239.193.432.432.432s.432-.193.432-.432ZM18.51,32.813c.172-.165.179-.438.014-.611-.165-.172-.438-.179-.611-.014-.456.436-.816.435-1.283-.003-.174-.163-.447-.154-.611.02s-.154.447.02.611c.401.376.821.564,1.239.564s.837-.189,1.232-.567Z"/>
    <path class="cls-2" d="M26.189,31.545c-.239,0-.432-.193-.432-.432v-.86c0-.239.193-.432.432-.432s.432.193.432.432v.86c0,.239-.193.432-.432.432ZM30.663,31.114v-.86c0-.239-.193-.432-.432-.432s-.432.193-.432.432v.86c0,.239.193.432.432.432s.432-.193.432-.432ZM29.447,32.813c.172-.165.179-.438.014-.611-.165-.172-.438-.179-.611-.014-.456.436-.816.435-1.283-.003-.174-.163-.447-.154-.611.02s-.154.447.02.611c.401.376.821.564,1.239.564s.837-.189,1.232-.567Z"/>
    <path class="cls-2" d="M37.19,31.545c-.239,0-.432-.193-.432-.432v-.86c0-.239.193-.432.432-.432s.432.193.432.432v.86c0,.239-.193.432-.432.432ZM41.664,31.114v-.86c0-.239-.193-.432-.432-.432s-.432.193-.432.432v.86c0,.239.193.432.432.432s.432-.193.432-.432Z"/>
    <path class="cls-2" d="M39.103,33.866c-.416,0-.806-.143-1.098-.403-.234-.207-.513-.585-.513-1.209,0-.226.184-.411.41-.411h2.416c.226,0,.41.184.41.411,0,1.058-.818,1.611-1.625,1.611ZM38.404,32.666c.037.07.086.131.145.184.14.124.341.195.553.195.218,0,.547-.089.709-.38h-1.407Z"/>
    <path class="cls-2" d="M29.645,22.869l.135.056v-.116c-.045.022-.09.041-.135.06Z"/>
    <g>
      <path class="cls-2" d="M17.382,14.926l-5.029-2.109c-.167-.069-.357-.051-.507.048-.15.1-.241.269-.241.449v4.289c0,.296.243.53.539.526.005,0,.009,0,.014,0,.29-.003.525-.236.525-.526v-3.479l3.952,1.658v5.396c0,.298.241.539.539.539s.539-.242.539-.539v-5.754c0-.217-.13-.413-.33-.497Z"/>
      <path class="cls-2" d="M12.144,20.375c-.295-.004-.539.231-.539.526v2.049c0,.298.241.539.539.539s.539-.242.539-.539v-2.049c0-.29-.235-.523-.525-.526-.005,0-.009,0-.014,0Z"/>
    </g>
    <g>
      <path class="cls-2" d="M48.288,29.424h-.426v-11.842c0-.284-.224-.512-.508-.523-.004-.004-.007-.004-.015-.004-.299-.011-.553.224-.553.527v18.897c0,.295.239.538.538.538s.538-.243.538-.538v-1.917h.426c.871,0,1.581-.71,1.581-1.581v-1.981c0-.871-.71-1.577-1.581-1.577ZM48.789,32.981c0,.277-.224.501-.501.501h-.426v-2.982h.426c.277,0,.501.224.501.501v1.981Z"/>
      <path class="cls-2" d="M44.772,23.969c-.298,0-.539-.242-.539-.539v-9.306l-3.952,1.658v5.114c0,.298-.241.539-.539.539s-.539-.242-.539-.539v-5.471c0-.217.13-.413.33-.497l5.03-2.109c.166-.07.356-.051.507.048.15.1.241.269.241.449v10.116c0,.298-.241.539-.539.539Z"/>
    </g>
    <path class="cls-2" d="M47.623,8.341c-.153-.097-.344-.116-.508-.045l-10.037,4.208h-17.241l-10.037-4.208c-.164-.071-.355-.052-.504.045-.149.101-.243.269-.243.452v20.631h-.426c-.871,0-1.577.706-1.577,1.577v1.981c0,.871.706,1.581,1.577,1.581h.426v1.917c0,.295.243.538.542.538.295,0,.538-.243.538-.538V9.604l9.054,3.797v8.363c0,.299.243.538.538.538.299,0,.542-.239.542-.538v-8.184h16.386v7.743c0,.295.239.538.538.538s.538-.243.538-.538v-7.922l9.058-3.797v4.678c0,.303.254.538.553.527h.015c.284-.015.508-.243.508-.527v-5.489c0-.183-.09-.351-.239-.452ZM9.052,33.482h-.426c-.277,0-.501-.224-.501-.501v-1.981c0-.277.224-.501.501-.501h.426v2.982Z"/>
  </g>
</svg>