<?xml version="1.0" encoding="UTF-8"?>
<svg id="arts_and_crafts" data-name="arts and crafts" xmlns="http://www.w3.org/2000/svg" version="1.1" viewBox="0 0 55 55">
  <defs>
    <style>
      .cls-1 {
        fill: #efefef;
      }

      .cls-1, .cls-2 {
        stroke-width: 0px;
      }

      .cls-2 {
        fill: #645780;
      }
    </style>
  </defs>
  <path class="cls-1" d="M17.032,31.6c-2.307,2.408-6.281,1.471-8.391,4.502-.918,1.319-1.201,3.06-.746,4.602.868,2.942,3.586,5.043,6.451,5.862,3.609,1.032,6.527.062,8.348-3.29,1.071-1.972,2.416-3.199,4.529-3.951,1.741-.62,3.47-.267,5.281-.563,4.037-.661,7.803-3.138,9.82-6.724,2.711-4.821,2.066-11.309-1.541-15.501-3.143-3.653-8.418-5.399-13.13-4.404-4.825,1.019-9.014,6.661-9.243,11.457-.133,2.779.546,6-1.379,8.01Z"/>
  <g>
    <path class="cls-2" d="M43.352,17.069c-.078-.126-.205-.213-.351-.243l-1.31-.265c-.287-.058-.57.126-.628.414,0,.005-.002.009-.003.014-.06.29.126.574.416.633l.753.152-2.841,11.152c-.076.299-.375.486-.676.424-.302-.061-.503-.348-.458-.652l1.396-9.175c.043-.284-.152-.548-.436-.595-.007-.001-.014-.002-.021-.004-.291-.05-.568.143-.612.435l-1.396,9.177c-.131.876.446,1.698,1.313,1.873.296.06.589.037.857-.053.517-.174.936-.599,1.08-1.164l2.981-11.703c.036-.144.012-.296-.066-.421Z"/>
    <path class="cls-2" d="M39.709,17.191c-.107.036-.225.039-.341,0-.284-.093-.438-.399-.345-.682l1.52-4.622c.093-.283.398-.438.682-.345.284.093.438.399.345.682l-1.52,4.622c-.055.168-.186.291-.342.344Z"/>
    <path class="cls-2" d="M43.358,11.971c-.31-.04-.583.187-.608.492l-.256,3.146c-.025.308.216.576.526.577.005,0,.009,0,.014,0,.28.002.515-.211.538-.49l.253-3.114c.024-.293-.176-.573-.467-.611Z"/>
    <path class="cls-2" d="M44.658,11.166c-.183-.025-.371.037-.49.177s-.26.265-.418.37c-.449.299-.991.405-1.523.298-.589-.119-1.087-.484-1.38-1.019-.248-.454-.275-1.24-.11-1.731.184-.547.488-.856.832-1.206.441-.448.927-.943,1.152-1.903.995.869,1.593,1.904,1.828,2.846.053.214.224.378.442.41.005,0,.01.001.014.002.38.058.693-.29.601-.663-.371-1.501-1.453-3.007-3.004-4.044-.163-.109-.371-.117-.548-.032-.174.09-.287.267-.293.463-.042,1.224-.449,1.638-.964,2.162-.466.474-.994,1.011-1.216,2.11-.164.813-.003,1.643.457,2.335.459.692,1.16,1.164,1.974,1.328.543.11,1.091.074,1.602-.098.256-.086.502-.206.734-.36.248-.165.467-.361.654-.582.268-.318.077-.809-.335-.865h-.009Z"/>
    <g>
      <path class="cls-2" d="M44.072,23.657c-.411.314-.857.617-1.34.905-.229.136-.349.415-.256.664.107.287.414.417.68.327.036-.012.07-.028.104-.048.53-.314,1.024-.647,1.478-.995.229-.175.268-.502.097-.734-.005-.007-.01-.014-.016-.022-.17-.243-.513-.278-.748-.098Z"/>
      <path class="cls-2" d="M47.468,15.723c-.667-.671-1.535-.891-2.51-.636-.296.09-.473.39-.378.688.089.281.4.421.686.35.59-.146,1.046-.031,1.424.348,1.073,1.152.924,2.81-.443,4.929-.055.086-.114.171-.175.256-.167.232-.121.546.096.731.003.002.006.005.009.007.231.202.591.147.77-.102.073-.102.143-.204.209-.307,2.079-3.224,1.325-5.179.313-6.264Z"/>
    </g>
    <g>
      <path class="cls-2" d="M35.688,26.956c-1.781.206-3.474.156-5.001-.128-.293-.054-.582.133-.627.428,0,.004-.001.007-.002.011-.047.289.135.568.423.622,1.644.307,3.458.361,5.356.139.038-.004.075-.013.11-.025.267-.09.432-.378.344-.672-.076-.255-.34-.405-.604-.374Z"/>
      <path class="cls-2" d="M26.003,24.779c-1.551-1.295-2.404-3.026-2.537-5.119-.008-.6.036-1.18.129-1.739.044-.266-.128-.505-.389-.573-.009-.002-.019-.005-.028-.008-.29-.086-.589.092-.641.39-.109.634-.161,1.292-.151,1.972.151,2.394,1.162,4.437,2.924,5.908.635.53,1.367.98,2.175,1.349.279.127.616.001.721-.287.001-.004.003-.007.004-.011.101-.268-.02-.565-.28-.684-.718-.329-1.366-.728-1.927-1.197Z"/>
      <path class="cls-2" d="M38.038,8.022c-1.006-.042-2.19-.067-3.539.161-5.329.893-9.138,3.242-10.94,6.582-.143.265-.019.58.256.702.003.001.007.003.01.005.25.115.54.032.669-.21,1.629-3.048,5.143-5.163,10.184-6.012,1.26-.212,2.386-.186,3.344-.145.306.012.565-.233.564-.545-.001-.294-.254-.525-.548-.537Z"/>
    </g>
    <path class="cls-2" d="M34.863,14.911c-1.178.396-2.417-.119-2.762-1.148s.331-2.187,1.509-2.582,2.417.119,2.762,1.147-.331,2.187-1.509,2.583ZM33.954,12.206c-.602.202-.981.758-.828,1.213s.791.669,1.393.467.981-.758.828-1.213-.791-.669-1.393-.467Z"/>
    <path class="cls-2" d="M29.093,17.452c-1.178.396-2.417-.119-2.762-1.148s.331-2.187,1.509-2.582,2.417.119,2.762,1.147-.331,2.187-1.509,2.583ZM28.184,14.747c-.602.202-.981.758-.828,1.213s.791.669,1.393.467.981-.758.828-1.213-.791-.669-1.393-.467Z"/>
    <path class="cls-2" d="M28.566,23.048c-1.178.396-2.417-.119-2.762-1.148s.331-2.187,1.509-2.582,2.417.119,2.762,1.147-.331,2.187-1.509,2.583ZM27.657,20.343c-.602.202-.981.758-.828,1.213s.791.669,1.393.467.981-.758.828-1.213-.791-.669-1.393-.467Z"/>
    <path class="cls-2" d="M34.166,25.381c-1.178.396-2.417-.119-2.762-1.148s.331-2.187,1.509-2.582,2.417.119,2.762,1.147-.331,2.187-1.509,2.583ZM33.257,22.676c-.602.202-.981.758-.828,1.213s.791.669,1.393.467.981-.758.828-1.213-.791-.669-1.393-.467Z"/>
  </g>
  <path class="cls-2" d="M18.433,42.388c-.203.047-.396.134-.578.238-.955.546-1.43,1.67-1.142,2.738.35,1.297,1.687,2.065,2.985,1.715.198-.056.387-.129.569-.233.964-.551,1.425-1.678,1.137-2.746-.345-1.289-1.682-2.056-2.971-1.711ZM19.731,43.57c.31.18.532.468.628.816.163.587-.103,1.211-.632,1.513-.096.055-.21.097-.32.125-.714.201-1.455-.228-1.642-.939-.154-.592.098-1.219.627-1.522.104-.06.21-.097.32-.125.349-.096.709-.049,1.02.131ZM19.765,35.774c-.061.035-.127.061-.197.078-.445.128-.899-.142-1.013-.584-.101-.357.057-.747.387-.935.061-.035.126-.061.197-.078.437-.123.891.147,1.013.584.092.362-.066.752-.387.935ZM20.098,31.317l-.54-2.008c-.077-.286.089-.581.374-.664h0c.292-.084.597.087.676.381l.541,2.008c.077.286-.089.582-.374.664h0c-.292.085-.597-.087-.676-.381ZM26.428,39.972c.556.327,1.214.412,1.841.238.198-.056.396-.134.569-.233.964-.551,1.425-1.678,1.142-2.738-.165-.631-.566-1.151-1.135-1.482-.564-.322-1.214-.412-1.841-.238-.198.056-.396.134-.578.238-.955.546-1.425,1.678-1.142,2.738.174.626.574,1.146,1.144,1.477ZM26.967,36.703c.104-.06.205-.105.315-.134.719-.192,1.455.228,1.647.947.163.587-.103,1.211-.632,1.513-.096.055-.205.105-.315.134-.34.091-.701.044-1.02-.131-.31-.18-.532-.467-.628-.816-.154-.592.103-1.211.632-1.513ZM23.231,43.608c.277,1.028.163,2.118-.317,3.072-.379.747-.976,1.376-1.714,1.798-.321.184-.667.324-1.016.419-2.303.625-4.677-.747-5.289-3.047-.316-1.178-.123-2.452.545-3.479.376-.572.887-1.048,1.477-1.386.321-.184.667-.324,1.024-.424l.079-.022-4.766-17.687c-.058-.243.04-.495.257-.619.043-.025.083-.036.131-.052,2.634-.711,5.351.857,6.062,3.492l.144.535c.077.286-.089.581-.374.663h0c-.292.084-.597-.087-.676-.381l-.145-.539c-.486-1.818-2.214-3.008-4.095-2.831l-.098.01,4.767,17.709c.04.15.009.318-.078.448-.05.074-.114.123-.184.162-.061.035-.135.066-.211.074-.201.011-.378.043-.537.088-.269.073-.518.181-.762.32-.443.253-.826.61-1.102,1.033-.503.772-.652,1.72-.41,2.607.463,1.717,2.236,2.742,3.952,2.279.269-.073.518-.181.761-.32.556-.318.996-.777,1.282-1.344.363-.714.439-1.529.239-2.302l-1.338-4.96c-.31-1.147-.181-2.373.35-3.437l.021-.024-.357-1.328c-.077-.287.09-.582.375-.664h0c.293-.085.598.087.677.381l.412,1.532c.035.141.016.29-.053.411-.502.875-.638,1.885-.374,2.852l1.338,4.96ZM14.935,36.671c-.141.035-.29.016-.416-.062l-5.385-3.153c-1.139-.662-1.951-1.741-2.3-3.016-.345-1.289-.178-2.628.471-3.771.053-.088.117-.159.203-.208.043-.025.083-.036.132-.052.136-.043.29-.016.411.053l5.385,3.153c.129.064.212.19.256.326.035.141.016.29-.062.416-.045.083-.113.145-.2.195-.035.02-.078.045-.131.052-.136.043-.285.025-.411-.053l-4.88-2.854-.026.096c-.28.759-.311,1.572-.101,2.362.276,1.006.918,1.848,1.803,2.368l5.385,3.153c.12.069.212.19.256.326.035.141.016.29-.062.415-.045.083-.113.145-.2.195-.043.025-.078.045-.127.061ZM30.278,40.28c.354.17.418.651.118.903-.191.161-.397.305-.617.429-.38.22-.8.38-1.23.47-1.04.22-2.12.04-3.04-.5l-1.69-.99c-.13-.07-.22-.19-.25-.33-.04-.14-.02-.29.05-.41.05-.09.12-.15.2-.2.17-.1.38-.1.55,0l1.69.99c.69.41,1.49.54,2.26.38.33-.07.64-.19.92-.35.159-.092.308-.196.447-.312.167-.138.396-.174.592-.08h0ZM23.599,36.642c-.03-.11-.02-.22.02-.33.09-.24.18-.46.3-.66.38-.67.93-1.23,1.6-1.61.24-.14.5-.25.77-.34,1.16-.39,2.44-.25,3.5.37.99.58,1.7,1.52,2,2.64.141.508.186,1.027.141,1.536-.034.376-.429.605-.77.441l-.014-.007c-.206-.099-.321-.317-.301-.545.033-.378.002-.764-.097-1.145-.23-.84-.77-1.54-1.51-1.98-.79-.46-1.74-.56-2.61-.28-.2.07-.39.15-.57.26-.5.28-.91.7-1.2,1.2-.08.14-.15.3-.22.49-.04.12-.13.22-.24.29-.14.08-.31.09-.46.04-.16-.06-.29-.2-.34-.37Z"/>
</svg>