<?xml version="1.0" encoding="UTF-8"?>
<svg id="Brain_training" data-name="Brain training" xmlns="http://www.w3.org/2000/svg" version="1.1" viewBox="0 0 55 55">
  <defs>
    <style>
      .cls-1 {
        fill: #efefef;
      }

      .cls-1, .cls-2 {
        stroke-width: 0px;
      }

      .cls-2 {
        fill: #645780;
      }
    </style>
  </defs>
  <path class="cls-1" d="M34.732,14.076c-.742-.483-1.521-.902-2.329-1.248-3.859-1.65-10.068-2.199-13.041,1.412-.785.954-1.186,2.143-1.28,3.366-.14,1.821.909,3.58.761,5.401-.244,2.986-3.4,4.721-5.149,7.154-2.634,3.663-1.734,9.151,1.416,12.381,3.151,3.23,8.036,4.357,12.501,3.707,10.472-1.524,17.549-11.909,14.543-22.155-1.168-3.983-3.885-7.717-7.423-10.017Z"/>
  <g>
    <g>
      <g>
        <path class="cls-2" d="M25.706,34.626c.337.175.699.264,1.077.264.604,0,1.038-.227,1.055-.236.279-.145.388-.491.245-.772-.099-.193-.296-.313-.514-.313-.089,0-.178.021-.26.062-.002.001-.216.108-.517.108-.195,0-.381-.045-.554-.135-.082-.042-.174-.065-.266-.065-.216,0-.412.119-.512.31-.146.282-.036.63.245.777Z"/>
        <path class="cls-2" d="M25.212,37.054c.496.289,1.014.436,1.538.436,1.06,0,1.793-.603,1.824-.629.242-.201.275-.564.075-.807-.11-.134-.272-.21-.445-.21-.133,0-.262.046-.364.129-.018.015-.453.361-1.085.361-.326,0-.65-.093-.962-.275-.088-.051-.188-.078-.29-.078-.204,0-.395.109-.498.286-.159.274-.066.628.208.788Z"/>
        <path class="cls-2" d="M32.632,28.478c.07-.14.09-.3.04-.44-.05-.15-.15-.27-.28-.34-.03-.01-.62-.33-1.46-.33-.53,0-1.03.13-1.5.37-.28.15-.39.5-.25.78.1.19.3.31.51.31.1,0,.19-.02.27-.07.31-.16.63-.24.98-.24.53,0,.9.19.92.2.08.04.17.07.26.07.22,0,.41-.12.51-.31Z"/>
        <path class="cls-2" d="M30.962,29.689c-.72,0-1.31.61-1.31,1.35s.59,1.35,1.31,1.35c.73,0,1.32-.61,1.32-1.35s-.59-1.35-1.32-1.35Z"/>
        <path class="cls-2" d="M18.602,43.499c-.17-.3-.54-.41-.83-.22-.6.4-1.14.84-1.6,1.31-.11.11-.16.25-.16.4,0,.16.06.3.17.41.11.1.25.16.4.16.16,0,.31-.06.42-.17.39-.41.88-.79,1.41-1.15.24-.16.34-.48.2-.73q-.01,0-.01-.01Z"/>
        <path class="cls-2" d="M24.326,28.475c.071-.137.086-.293.039-.44-.046-.147-.146-.267-.281-.337-.025-.013-.625-.326-1.459-.326-.527,0-1.032.124-1.501.368-.137.071-.237.191-.284.338-.046.147-.033.302.039.439.1.192.296.31.511.31.092,0,.184-.023.265-.065.305-.158.633-.239.976-.239.525,0,.904.189.919.197.082.042.173.065.264.065.215,0,.411-.118.511-.309Z"/>
        <path class="cls-2" d="M22.66,29.69c-.725,0-1.314.604-1.314,1.348s.589,1.347,1.314,1.347,1.315-.604,1.315-1.347-.59-1.348-1.315-1.348Z"/>
      </g>
      <path class="cls-2" d="M38.022,30.969c-.28-.42-.68-.75-1.13-.95.01-.01.01-.03.01-.04.01-.03.02-.06.03-.1.01-.03.02-.06.02-.09.28-.99.67-2.83.5-4.86h0c0-.337-.273-.61-.61-.61h-20.22c-.337,0-.61.273-.61.61h0c-.07.66-.09,1.35-.03,2.04.09,1.09.32,1.98.51,2.55.04.14.09.26.12.36-.44.19-.83.52-1.1.92-.4.6-.53,1.32-.36,2.02.3,1.28,1.45,2.25,2.68,2.25h.08c.48,1.45,1.07,2.13,2.19,3.21.78.76,1.9,1.41,3.14,1.85v.57c-.54.18-1.12.4-1.71.64-.29.12-.43.45-.32.73,0,.01.01.01.01.02.11.3.45.44.75.32.06-.02.12-.05.17-.07.54,1.32,1.79,2.3,3.29,2.66.31.08.61-.14.63-.46,0-.03.01-.06.01-.09.03-.26-.13-.5-.39-.57-1.14-.28-2.07-.99-2.47-1.96.28-.1.55-.19.79-.27.23-.07.39-.29.39-.54v-.64c.79.2,1.6.3,2.38.3.7,0,1.49-.09,2.3-.27v.61c0,.25.16.46.39.54.28.09.57.19.86.3-.25.58-.69,1.07-1.25,1.42-.22.14-.3.4-.21.64.01.02.02.05.03.08.11.31.47.45.76.28.79-.49,1.4-1.18,1.75-2.01,1.92.77,3.95,1.8,5.14,3.03.11.11.26.17.41.17s.3-.06.41-.16c.11-.11.17-.25.17-.41,0-.15-.06-.29-.16-.4-1.7-1.75-4.8-3.08-7.15-3.89v-.52c.52-.17,1.03-.39,1.52-.64.32-.17.4-.58.18-.87l-.01-.01c-.16-.22-.46-.27-.71-.14-1.3.68-2.91,1.1-4.43,1.1-2.14,0-4.55-.89-5.87-2.17-1.13-1.09-1.59-1.64-2.03-3.18l-.17-.62-.55.23-.12.02c-.07.01-.14.02-.21.02-.7,0-1.37-.59-1.55-1.36-.09-.39-.02-.79.2-1.12.17-.25.42-.45.7-.54.1.09.23.14.37.14.06,0,.11-.01.17-.03.27-.08.43-.34.4-.62-.02-.13-.28-2.54.73-5.02h15.64c.93,2.42.75,5.15.75,5.19-.02.2.08.4.25.52.09.06.2.1.32.1.09,0,.18-.02.25-.06l.2-.1c.32.08.61.3.81.59.22.33.3.73.22,1.12-.17.75-.81,1.31-1.5,1.31-.07,0-.14,0-.21-.02-.03,0-.06-.01-.08-.01-.01,0-.01.01-.01.01l-.58-.28-.19.65c-.19.67-.39,1.12-.66,1.53-.14.22-.11.49.07.68l.04.04c.23.26.63.24.83-.04.26-.4.48-.84.68-1.41h.11c1.24,0,2.34-.93,2.62-2.22.15-.7.02-1.41-.38-2ZM17.152,27.029c-.05-.51-.07-1.07-.02-1.66h.48c-.21.58-.36,1.14-.46,1.66ZM36.232,27.559c-.1-.69-.26-1.44-.52-2.19h.59c.05.8.01,1.55-.07,2.19Z"/>
    </g>
    <g>
      <path class="cls-2" d="M18.862,25.203c.403-.184.841-.294,1.275-.297.347-.003.692-.021,1.038.013.214.021.445.045.676.08.024-.024.05-.048.073-.072l.079-.08c.102-.102.238-.166.381-.178l.105-.009c.274-.021.574-.045.848-.173.099-.047.196-.107.285-.186,1.531-1.31,1.415-3.854.287-5.255-.788-.98-2.248-1.561-3.97-.251-.087.065-.172.133-.259.207-.084.073-.182.121-.281.136-.117.019-.226.04-.332.065-2.117.487-2.607,1.982-2.36,3.216.224,1.119,1.066,2.216,2.155,2.785ZM19.301,20.226c.084-.019.171-.037.265-.052.292-.047.568-.178.799-.378.068-.058.135-.112.206-.165.987-.745,1.881-.722,2.519.072.809,1.007.918,2.887-.155,3.802-.003.003-.006.006-.009.008-.071.066-.31.084-.521.1l-.112.009c-.196.017-.386.069-.562.151-.174.081-.334.193-.473.331l-.085.086c-.148.15-.314.323-.423.336-1.389.237-2.761-1.05-3.015-2.315-.201-1.003.356-1.709,1.565-1.986Z"/>
      <path class="cls-2" d="M20.015,19.918c-.02.01-.042.018-.064.025-.276.088-.571-.065-.659-.341-.239-.75-.159-1.486.238-2.188.141-.254.462-.341.715-.198.252.143.341.463.198.715-.254.449-.302.879-.151,1.353.081.254-.042.524-.277.634Z"/>
      <path class="cls-2" d="M18.768,18.556c.031.076.023.153-.023.23s-.109.121-.177.14c-.865.141-1.6-.292-1.875-1.104-.024-.072-.016-.149.03-.226.041-.069.104-.113.178-.127.851-.149,1.516.242,1.866,1.087Z"/>
    </g>
    <g>
      <path class="cls-2" d="M36.652,15.842l-3.356,2.717c-.08.049-.134.112-.174.192l-3.037,6.085c.013,0,.024-.004.037-.004.392,0,.733.074,1.047.183l2.611-5.232.662.487-.277.555c-.13.26-.017.572.242.702.26.13.568.026.698-.233l.286-.573.698.214-2.016,4.039c.025,0,.047-.007.073-.007.38,0,.711.071,1.018.174l2.146-4.301c.04-.081.058-.161.049-.255l.153-4.316c.013-.407-.542-.684-.859-.429ZM36.324,19.903l-.792-.25c-.148-.04-.273-.103-.385-.192l-.685-.487.818-.676c.327.286.693.469,1.083.54l-.039,1.064Z"/>
      <path class="cls-2" d="M33.31,24.892l.999-2.001c.13-.26.024-.575-.236-.704s-.575-.024-.704.235l-1.182,2.37-.18.361c-.035.069,1.304-.26,1.304-.26Z"/>
    </g>
    <path class="cls-2" d="M13.223,21.617c-.214.086-.411-.052-.5-.275-.134-.336.048-.446.207-.537.109-.065.368-.228.361-.664-.006-.203-.006-.365.297-.487s.483.018.531.139l1.327,3.313c.069.172.139.453-.309.632-.303.121-.552.134-.697-.229l-.821-2.05-.396.159Z"/>
    <path class="cls-2" d="M30.57,15.958c.206-.046.472-.028.557.354.086.387-.143.51-.354.557l-1.818.406c-.46.103-.595-.294-.618-.397-.113-.504.18-1.012.637-1.541.494-.573.647-.746.558-1.143-.021-.093-.102-.43-.386-.367-.318.071-.278.391-.251.601.016.14-.104.342-.427.414-.269.06-.561-.003-.636-.336-.083-.372-.006-1.341,1.096-1.588.818-.183,1.486.249,1.664,1.048.165.74-.163,1.137-.655,1.721-.089.107-.329.413-.318.462.004.019.029.014.073.004l.877-.196Z"/>
    <path class="cls-2" d="M40.764,23.944c-.124.258-.66,1.147-1.862.567-.416-.201-.739-.468-.841-.914-.067-.289-.027-.592.072-.796.094-.194.301-.334.653-.164.091.044.43.218.337.514-.052.176-.118.372.162.508.171.083.378.06.511-.216.057-.118.205-.425-.139-.591-.122-.059-.379-.183-.194-.567.188-.389.423-.275.563-.208.185.089.314-.038.416-.251.096-.199.056-.358-.08-.423-.167-.081-.272-.059-.404.134-.066.102-.207.312-.609.118-.204-.098-.438-.295-.289-.602.153-.316.768-.945,1.704-.493.741.358.989,1.035.675,1.686-.135.281-.368.497-.68.553.271.537.086.978.005,1.145Z"/>
    <path class="cls-2" d="M25.527,17.374c-.061,0-.122-.01-.181-.032l-1.705-.627h0l-1.705-.627c-.176-.065-.304-.219-.336-.403-.032-.185.038-.373.182-.493l2.791-2.325c.143-.121.342-.155.517-.089.176.065.304.218.336.403l.618,3.58c.032.185-.038.373-.182.493-.096.08-.215.122-.336.122ZM24.004,15.73l.852.313-.309-1.788-1.394,1.161.851.313Z"/>
    <path class="cls-2" d="M26.801,23.164c-.078,0-.156-.018-.228-.052-.125-.061-.222-.168-.268-.3l-1.065-3.055c-.096-.274.049-.573.323-.668l3.054-1.065c.129-.046.274-.038.401.023.125.061.222.168.268.3l1.065,3.055c.095.274-.05.573-.323.668l-3.054,1.065c-.056.02-.115.029-.173.029ZM26.404,19.907l.72,2.063,2.062-.72-.72-2.063-2.062.72Z"/>
    <path class="cls-2" d="M17.726,16.372c-1.169,0-2.12-.951-2.12-2.12s.951-2.12,2.12-2.12,2.12.951,2.12,2.12-.951,2.12-2.12,2.12ZM17.726,13.182c-.59,0-1.07.48-1.07,1.07s.48,1.07,1.07,1.07,1.07-.48,1.07-1.07-.48-1.07-1.07-1.07Z"/>
    <g>
      <path class="cls-2" d="M22.721,12.646c.07.13.09.29.04.44-.04.15-.15.27-.29.34-.08.04-.17.06-.26.06-.06,0-.12-.01-.18-.03-.3-.09-.47-.42-.38-.72.1-.31.42-.48.73-.38.15.05.27.15.34.29Z"/>
      <path class="cls-2" d="M24.824,10.393c-.19.61-.59.77-1.01.94-.49.19-.55.22-.63.47-.02.06-.05.18-.14.27-.06.05-.16.12-.31.12-.06,0-.12-.01-.19-.03-.28-.09-.42-.34-.33-.63l.03-.08c.14-.46.41-.72.93-.91.51-.18.6-.23.67-.45.04-.12.11-.34-.41-.5-.54-.17-.63.05-.74.33-.12.27-.36.37-.64.28-.14-.04-.25-.13-.31-.24-.04-.08-.08-.22-.02-.41.03-.09.19-.56.68-.82.37-.19.81-.21,1.32-.05.51.16.86.41,1.04.76.15.28.17.6.06.95Z"/>
    </g>
    <g>
      <path class="cls-2" d="M38.175,11.054c-.317-.67-.836-1.037-1.387-.973-.739.083-1.046.845-1.16,1.13l-.845,2.094c-.243.601-.422.652-.471.653-.08,0-.166-.059-.255-.179-.116-.157-.199-.367-.297-.617-.018-.045-.036-.089-.055-.133-.125-.291-.474-.411-.748-.252h0c-.23.133-.326.416-.22.659.02.046.039.092.058.139.104.263.221.562.419.829.28.38.688.605,1.097.605.01,0,.019,0,.028,0,.897-.023,1.289-.991,1.418-1.31l.845-2.095c.186-.461.3-.479.304-.48.041-.002.189.101.32.379.407.859.427,1.894.053,2.769-.114.267.01.575.275.689.266.116.576-.008.689-.276.491-1.146.466-2.504-.068-3.631Z"/>
      <path class="cls-2" d="M28.72,10.814c-.087-.305-.421-.461-.713-.338-.215.091-.428.199-.636.326-.248.15-.327.473-.176.721.15.248.475.327.721.176.165-.1.331-.186.498-.257.246-.105.379-.371.306-.628h0Z"/>
      <path class="cls-2" d="M32.524,12.245h0c.299-.172.352-.581.11-.826-.49-.495-1.072-.868-1.713-1.083-.325-.11-.659-.175-.996-.196-.359-.023-.631.322-.532.668h0c.06.211.244.364.462.378.247.017.491.065.732.146.484.162.927.447,1.304.83.167.17.428.204.634.085Z"/>
    </g>
  </g>
  <circle class="cls-2" cx="39.331" cy="26.66" r=".498"/>
  <circle class="cls-2" cx="31.347" cy="18.427" r=".498"/>
  <circle class="cls-2" cx="39.455" cy="17.339" r=".498"/>
  <circle class="cls-2" cx="13.92" cy="25.084" r=".498"/>
  <circle class="cls-2" cx="14.695" cy="17.37" r=".498"/>
</svg>