<?xml version="1.0" encoding="UTF-8"?>
<svg id="brush_up" data-name="brush up" xmlns="http://www.w3.org/2000/svg" version="1.1" viewBox="0 0 55 55">
  <defs>
    <style>
      .cls-1 {
        fill: #efefef;
      }

      .cls-1, .cls-2 {
        stroke-width: 0px;
      }

      .cls-2 {
        fill: #645780;
      }
    </style>
  </defs>
  <path class="cls-1" d="M41.36,22.302c-3.678-5.191-9.142-9.031-14.877-9.266-5.919-.242-11.866,2.82-15.106,7.779-2.817,4.31-3.261,10.72.563,14.168,3.265,2.945,8.368,2.787,11.983,5.291,2.815,1.951,4.274,5.373,6.988,7.34,2.605,1.888,6.544,1.575,9.186-.033,3.074-1.871,4.944-5.338,5.503-8.892.909-5.778-.907-11.684-4.239-16.387Z"/>
  <g>
    <g>
      <path class="cls-2" d="M29.461,13.841c-.326,0-.59-.264-.59-.59v-1.858c0-.326.264-.59.59-.59s.59.264.59.59v1.858c0,.326-.264.59-.59.59Z"/>
      <g>
        <path class="cls-2" d="M42.775,28.739c-.326,0-.59-.264-.59-.59v-8.313c0-.326.264-.59.59-.59s.59.264.59.59v8.313c0,.326-.264.59-.59.59Z"/>
        <path class="cls-2" d="M39.233,21.522c-.326,0-.59-.264-.59-.59v-.506h-1.771c-.232,0-.442-.135-.537-.347-.096-.211-.059-.458.093-.633l4.132-4.723c.225-.256.664-.256.889,0l4.132,4.723c.152.174.189.422.093.633-.096.211-.306.347-.537.347h-2.952c-.326,0-.59-.264-.59-.59s.264-.59.59-.59h1.651l-2.831-3.236-2.831,3.236h1.06c.326,0,.59.264.59.59v1.097c0,.326-.264.59-.59.59Z"/>
        <path class="cls-2" d="M39.238,24.854c-.326,0-.59-.264-.59-.59v-.97c0-.326.264-.59.59-.59s.59.264.59.59v.97c0,.326-.264.59-.59.59Z"/>
      </g>
      <g>
        <path class="cls-2" d="M13.629,28.648c-.326,0-.59-.264-.59-.59v-4.639c0-.326.264-.59.59-.59s.59.264.59.59v4.639c0,.326-.264.59-.59.59Z"/>
        <path class="cls-2" d="M17.171,25.106c-.326,0-.59-.264-.59-.59v-1.097c0-.326.264-.59.59-.59h1.06l-2.831-3.236-2.831,3.236h1.651c.326,0,.59.264.59.59s-.264.59-.59.59h-2.952c-.232,0-.442-.135-.537-.347-.096-.211-.059-.458.093-.633l4.132-4.723c.225-.256.664-.256.889,0l4.132,4.723c.152.174.189.422.093.633-.096.211-.306.347-.537.347h-1.771v.506c0,.326-.264.59-.59.59Z"/>
        <path class="cls-2" d="M17.165,28.058c-.326,0-.59-.264-.59-.59v-.59c0-.326.264-.59.59-.59s.59.264.59.59v.59c0,.326-.264.59-.59.59Z"/>
      </g>
      <path class="cls-2" d="M25.919,15.615c-.326,0-.59-.264-.59-.59v-3.041h-1.771c-.232,0-.442-.135-.537-.346-.096-.211-.059-.458.093-.633l4.132-4.723c.225-.256.664-.256.889,0l4.132,4.723c.152.174.189.422.093.633-.096.211-.306.346-.537.346h-2.952c-.326,0-.59-.264-.59-.59s.264-.59.59-.59h1.651l-2.831-3.236-2.831,3.236h1.06c.326,0,.59.264.59.59v3.632c0,.326-.264.59-.59.59Z"/>
    </g>
    <g>
      <path class="cls-2" d="M28.316,38.612c-.517,0-1.112-.12-1.723-.485-.28-.167-.371-.53-.204-.809.167-.28.53-.371.809-.204,1.132.676,2.179.063,2.189.057.279-.168.642-.077.81.202.168.279.077.642-.202.81-.044.026-.731.429-1.679.429Z"/>
      <path class="cls-2" d="M28.22,35.876c-.323,0-.686-.063-1.05-.249-.258-.132-.36-.448-.228-.706.132-.258.448-.36.706-.228.597.306,1.242-.009,1.249-.012.258-.128.573-.025.703.231.13.257.031.57-.225.702-.03.016-.515.261-1.155.261Z"/>
      <path class="cls-2" d="M22.753,30.248c-.213,0-.419-.116-.524-.318-.151-.289-.038-.646.251-.796,1.506-.785,2.901-.073,2.96-.042.289.151.4.508.249.797-.151.288-.505.399-.793.251-.045-.023-.927-.45-1.871.042-.087.045-.18.067-.272.067Z"/>
      <path class="cls-2" d="M31.279,30.248c-.213,0-.419-.116-.524-.318-.151-.289-.038-.646.251-.796,1.507-.785,2.901-.073,2.96-.042.289.151.4.508.249.797-.151.288-.505.399-.793.251-.045-.023-.927-.45-1.87.042-.087.045-.18.067-.272.067Z"/>
      <ellipse class="cls-2" cx="24.147" cy="32.404" rx="1.181" ry="1.213"/>
      <ellipse class="cls-2" cx="32.411" cy="32.404" rx="1.181" ry="1.213"/>
      <path class="cls-2" d="M38.815,46.368c-.117.136-.282.202-.444.202-.154,0-.309-.059-.423-.178-.258-.266-.554-.519-.878-.764-.154-.117-.237-.295-.237-.474,0-.12.037-.242.112-.346.192-.263.567-.325.828-.128.362.271.697.556.987.854.224.226.266.594.056.833Z"/>
      <g>
        <path class="cls-2" d="M41.961,35.685c-.298-.599-.567-1.073-.804-1.49-.57-1.011-.947-1.679-1.27-3.162-.101-.46-.053-1.293,0-2.257.037-.659.074-1.401.075-2.185,0-.253-.207-.447-.46-.447-.002,0-.003,0-.005,0-.076,0-.149-.004-.22-.011-.266-.028-.496.169-.496.437,0,.751-.035,1.476-.072,2.139-.062,1.116-.111,1.991.035,2.611h0c-.226-.159-.476-.279-.74-.354-.021-.027-.04-.051-.053-.067-.072-.825-.327-2.747-1.182-4.732.266-.335.447-.687.54-.985.216-.692-.048-1.017-.224-1.147-.101-.075-.463-.293-.955.035-.234.157-.476.194-.697.106-.279-.106-.498-.405-.596-.814-.032-.13-.064-.277-.096-.436-.269-1.291-.719-3.449-3.223-4.418-1.139-.442-2.236-.383-3.207-.093-.359.109-.519.527-.333.852l.011.021c.138.237.421.341.687.263.753-.224,1.581-.266,2.417.059,1.906.735,2.246,2.366,2.491,3.556.037.173.072.335.106.479.192.788.671,1.384,1.312,1.634.285.109.586.146.884.112-.322.426-.886.884-1.703.926h-.024c-2.079.088-4.083-1.786-5.147-3.681-.647-1.15-1.781-1.594-2.699-1.759.132-.11.279-.225.434-.337.242-.174.308-.504.143-.751l-.011-.016c-.198-.297-.604-.363-.891-.151-.532.394-.946.787-1.206,1.053-1.626.633-3.039,1.725-4.016,3.159-1.922,2.829-2.172,5.842-2.198,6.861-.077.035-.154.085-.221.16-.181.059-.354.138-.516.234.035-.279.061-.572.08-.884.013-.239.019-.478.018-.715,0-.357-.32-.629-.673-.575l-.018.003c-.281.044-.49.285-.49.569,0,.217-.005.433-.018.649-.12,2.063-.633,3.298-1.179,4.607-.266.641-.543,1.304-.782,2.081-.386,1.246-.258,2.353.381,3.287.319.471.769.886,1.333,1.243.319.2.745.059.873-.298.024-.064.035-.133.035-.197,0-.202-.104-.394-.285-.506-.423-.266-.753-.57-.982-.905-.431-.633-.506-1.379-.229-2.276.226-.724.49-1.36.745-1.975.088-.213.178-.426.266-.644.506.99,1.533,1.634,2.592,1.57.604,1.166,1.456,2.576,2.379,3.359.782.663,1.775,1.222,2.832,1.626v.591c-.03.029-.046.045-.076.075-.867-.018-1.733-.056-2.569-.117-1.079-.081-2.041-.233-2.872-.451-.281-.074-.592.039-.717.302-.161.339.021.732.373.825.892.24,1.906.405,3.045.492-1.594.737-3.154,1.653-4.211,2.744-.253.259-.216.688.096.9.245.166.575.1.783-.111,1.234-1.254,3.294-2.275,5.048-2.985.716,1.682,2.552,2.803,4.628,2.803.281,0,.558-.022.829-.063.339-.052.554-.399.444-.724-.006-.018-.012-.036-.017-.054-.078-.27-.352-.423-.631-.383-.204.029-.412.045-.625.045-1.589,0-2.984-.817-3.524-2.047.278-.099.539-.19.774-.27.239-.082.4-.305.399-.558v-.639c.793.205,1.597.319,2.35.319.764,0,1.53-.096,2.273-.274v.592c0,.252.16.478.399.557.272.091.554.189.842.293-.093.204-.206.397-.343.574-.152.196-.175.477-.044.687.114.183.304.277.497.277.176,0,.354-.08.476-.237.208-.269.383-.564.519-.881.756.303,1.528.647,2.257,1.027.261.136.58.064.753-.173.075-.104.112-.226.112-.343,0-.213-.114-.421-.319-.527-.511-.266-1.041-.514-1.568-.743.008-.003.013-.003.021-.003.333-.021.644-.04.932-.059,3.388-.213,5.831-1.331,6.877-3.149.657-1.144.673-2.473.04-3.739ZM28.238,40.625c-1.879,0-4.179-.841-5.597-2.044-.681-.578-1.49-1.773-2.281-3.364-.101-.208-.309-.33-.527-.33-.067,0-.13.011-.194.035-.029.003-.061.005-.101.011-.753.125-1.53-.468-1.73-1.32-.09-.383-.021-.774.194-1.097.205-.309.527-.519.878-.578.213-.035.349-.117.439-.213.061-.032.122-.075.178-.138.045-.051.083-.109.109-.168l.04-.061c.067-.101.101-.224.098-.349-.003-.035-.101-3.428,1.996-6.51.753-1.107,1.81-1.978,3.031-2.539.067.019.138.024.213.016.021,0,2.18-.21,2.994,1.238,1.15,2.047,3.471,4.397,6.225,4.285.013-.003.024-.003.037-.003.62-.032,1.152-.221,1.592-.49.87,2.238.961,4.325.963,4.352.005.192.104.367.263.471.013.011.029.019.043.027.093.09.232.178.444.216.365.064.697.287.913.609.221.327.295.719.213,1.099-.181.836-.937,1.408-1.685,1.278-.04-.008-.083-.013-.125-.016-.274-.085-.575.037-.705.301-.713,1.445-1.2,1.956-2.172,2.978-1.352,1.421-3.556,2.305-5.749,2.305ZM40.896,38.836c-.83,1.443-2.989,2.374-5.927,2.558-.29.019-.602.04-.934.061-.705.045-1.496.096-2.342.146v-.439c1.222-.463,2.321-1.158,3.149-2.031.905-.947,1.48-1.554,2.18-2.882,1.238.09,2.427-.793,2.773-2.081.106.2.218.399.335.607.229.405.49.868.774,1.44.229.455.341.908.341,1.344,0,.444-.114.876-.349,1.278Z"/>
        <path class="cls-2" d="M36.022,18.446c.185-.257.121-.621-.138-.803-2.134-1.499-4.208-1.742-5.693-1.627-1.506.117-2.656.599-3.167.849-.58-.237-1.866-.548-3.396-.338-1.242.171-2.952.745-4.498,2.424-.229.248-.197.641.066.853l.009.007c.238.192.584.165.79-.061,1.065-1.163,2.337-1.851,3.796-2.052.301-.043.588-.059.86-.059,1.011,0,1.77.24,1.996.349.059.027.096.048.101.051.184.104.41.101.591-.005.175-.104,3.892-2.219,7.859.564.267.187.629.124.818-.142.002-.003.005-.006.007-.01Z"/>
      </g>
    </g>
  </g>
</svg>