<?xml version="1.0" encoding="UTF-8"?>
<svg id="bus_time" data-name="bus time" xmlns="http://www.w3.org/2000/svg" version="1.1" viewBox="0 0 55 55">
  <defs>
    <style>
      .cls-1 {
        fill: #efefef;
      }

      .cls-1, .cls-2 {
        stroke-width: 0px;
      }

      .cls-2 {
        fill: #645780;
      }
    </style>
  </defs>
  <path class="cls-1" d="M48.478,35.964c-1.943,3.489-7.671,6.036-10.963,7.261-5.722,2.129-13.159,3.037-17.031-1.836-2.373-2.986-2.309-7.932-4.764-10.862-2.962-3.535-8.441-4.901-9.525-9.284-.886-3.582,1.832-7.361,5.409-9.072,3.577-1.711,7.809-2.361,11.778-2.035,2.988.246,6.007.704,8.671,1.949,6.135,2.87,5.202,6.339,7.918,10.954,2.335,3.967,8.062,4.511,9.085,9.633.234,1.171-.011,2.27-.578,3.29Z"/>
  <path class="cls-2" d="M32.608,34.376c-1.23,0-2.232,1.001-2.232,2.232s1.001,2.232,2.232,2.232,2.232-1.001,2.232-2.232-1.001-2.232-2.232-2.232ZM32.608,37.638c-.568,0-1.03-.462-1.03-1.03s.462-1.03,1.03-1.03,1.03.462,1.03,1.03-.462,1.03-1.03,1.03Z"/>
  <path class="cls-2" d="M46.097,33.034c-.1-1.94-.3-3.75-.6-5.41-.13-.66-.28-1.33-.45-2-.36-1.4-1.07-2.71-2.05-3.77-2.37-2.56-5.04-4.61-7.95-6.09-2.37-1.21-5.16-1.84-8.07-1.84h-10.22l-.71-.62c-.19-.18-.48-.22-.72-.11-.24.11-.4.35-.4.62v2.02h-1.415c-.321,0-.616.212-.687.525-.099.434.232.835.652.835h1.45c0,.421.401.751.835.652.313-.071.525-.366.525-.687v-1.855s3.7,3.24,3.7,3.24l-3.7,3.24v-1.22c0-.37-.3-.67-.67-.67h-4.139c-.366,0-.689.281-.7.647-.013.391.292.704.67.704h3.48v2.03c0,.26.16.5.4.61.24.11.53.07.72-.1l.3-.26h4.94c1.12,0,2.07-.88,2.14-2l.27-4.55h.67l.65,8.57c.06.865.303,1.69.687,2.454.178.354.654.435.934.155.009-.009.009-.009.019-.009.18-.18.23-.46.11-.7-.31-.61-.5-1.29-.55-1.99l-.64-8.48h.61l1.27,4.81c.29.91,1.09,1.57,2.03,1.68l7.75.95v.499c0,.724.465,1.389,1.165,1.576.867.232,1.719-.294,1.945-1.105.05-.19.1-.39.14-.57l3.03.38c.02.01.05.01.07.01s.05,0,.07-.01c.09.24.17.48.23.73.15.57.27,1.14.39,1.7.01,0,.03.08.06.22h-2.07c-.15,0-.29.06-.39.17-.1.11-.15.26-.13.41l.28,2.63c.03.27.25.47.52.47.02,0,.04,0,.06-.01.28-.03.49-.28.46-.57l-.22-2.05h1.65c.19,1.28.43,3.19.38,3.46v.05c.04.79.04,1.56.01,2.33l-.07,1.2c0,.1-.01.19-.02.29-.02.2-.2.36-.41.37l-5.42.2v-.19c0-.23-.01-.45-.03-.67l3.675-.156c.321-.014.575-.278.575-.6h0c0-.341-.284-.613-.624-.6l-3.876.155c-.8-2.6-3.22-4.49-6.08-4.49-1.19,0-2.3.32-3.25.9l-1.04-1.44c-.22-.3-.65-.34-.91-.08v.01c-.21.21-.24.53-.07.77l1.04,1.45c-.87.77-1.51,1.76-1.86,2.88h-3.78l-2.92-2.55c-.19-.17-.48-.22-.72-.11-.24.11-.4.35-.4.62v2.03h-3.449c-.366,0-.689.281-.7.646-.013.391.292.703.67.703h4.16c.37,0,.68-.3.68-.68v-1.21l3.7,3.24-3.7,3.24v-1.855c0-.322-.209-.621-.522-.697-.435-.104-.838.239-.838.661h-1.45c-.378,0-.682.312-.67.703.012.366.334.646.7.646h1.419s0,2.03,0,2.03c0,.27.16.51.4.62.24.11.53.06.72-.11l5.31-4.64h1.77c.18,0,.34-.08.46-.21.11-.13.16-.3.14-.48-.032-.194-.052-.387-.058-.586-.08-2.533,1.743-4.783,4.239-5.222,3.245-.571,6.089,1.923,6.089,5.078,0,.25-.02.49-.06.73-.02.18.03.36.15.49s.3.22.47.2l6.11-.23c.81-.03,1.49-.66,1.56-1.46.1-1.08.14-2.18.1-3.3ZM22.227,21.444c-.03.49-.44.88-.94.88h-3.57l3.74-3.27c.29-.26.29-.76,0-1.02l-1.21-1.06h2.24l-.26,4.47ZM18.857,15.764l-.73-.64h8.85c1.65,0,3.25.22,4.74.64h-12.86ZM39.197,25.044c-.11.38-.75.29-.75-.08v-2.51c0-.21.17-.38.42-.38.17,0,.31.1.36.24.27.82.26,1.72-.03,2.73ZM40.627,23.624c0-.59-.08-1.15-.26-1.69-.21-.63-.81-1.06-1.55-1.06-.87,0-1.58.71-1.58,1.58v.75l-7.61-.94c-.48-.05-.88-.39-1.02-.81l-1.18-4.48h7.34c2.68,1.4,5.15,3.32,7.35,5.69.36.39.67.81.94,1.26l-2.43-.3ZM26.237,36.604v.22h-1.11l-1.02-.89h2.16c-.02.22-.03.44-.03.67Z"/>
  <path class="cls-2" d="M13.326,35.375c.01.39-.29.7-.67.7h-1.06c-.37,0-.68-.31-.67-.7.02-.37.34-.65.7-.65h1c.36,0,.69.28.7.65Z"/>
  <path class="cls-2" d="M15.726,39.42c.01.39-.29.7-.67.7h-2.06c-.37,0-.68-.31-.67-.7.02-.37.34-.65.7-.65h2c.36,0,.69.28.7.65Z"/>
  <path class="cls-2" d="M32.608,32.121c-2.474,0-4.487,2.013-4.487,4.487s2.013,4.487,4.487,4.487,4.487-2.012,4.487-4.487-2.012-4.487-4.487-4.487ZM32.608,39.893c-1.811,0-3.285-1.474-3.285-3.285s1.474-3.285,3.285-3.285,3.285,1.474,3.285,3.285-1.474,3.285-3.285,3.285Z"/>
  <path class="cls-2" d="M30.155,26.535c.03.005.06.007.09.007.293,0,.549-.214.594-.511.049-.329-.177-.634-.505-.684l-2.059-.309c-.329-.049-.634.177-.684.505-.049.329.177.634.505.684l2.059.309Z"/>
  <path class="cls-2" d="M11.728,16.484c.01.39-.29.7-.67.7h-.56c-.37,0-.68-.31-.67-.7.02-.37.34-.65.7-.65h.5c.36,0,.69.28.7.65Z"/>
</svg>