<?xml version="1.0" encoding="UTF-8"?>
<svg id="control" xmlns="http://www.w3.org/2000/svg" version="1.1" viewBox="0 0 55 55">
  <defs>
    <style>
      .cls-1 {
        fill: #efefef;
      }

      .cls-1, .cls-2 {
        stroke-width: 0px;
      }

      .cls-2 {
        fill: #645780;
      }
    </style>
  </defs>
  <path class="cls-1" d="M37.589,39.466c1.494-2.251,1.385-5.589-.866-7.313-1.021-.782-2.378-1.186-3.097-2.253-.525-.779-.595-1.843-.177-2.684.742-1.493,3.264-2.153,4.8-2.095,1.631.061,3.305.406,4.869-.061,1.248-.373,2.33-1.27,2.927-2.428,2.375-4.609-3.444-11.003-7.994-11.279-3.163-.192-6.348,1.746-7.632,4.643-.537,1.213-.803,2.618-1.773,3.523-1.962,1.831-5.075.425-7.753.244-4.351-.295-7.745,3.144-9.046,6.999-1.461,4.33,1.415,9.847,4.569,12.759,3.801,3.509,9.281,4.743,14.309,3.872,2.671-.463,5.365-1.667,6.863-3.926Z"/>
  <g>
    <g>
      <path class="cls-2" d="M23.877,34.659c-.157-.088-.353-.088-.501.01l-2.622,1.679c-.344.216-.766.265-1.159.137-.383-.128-.687-.432-.825-.815l-.295-.806c-.099-.27-.409-.398-.669-.275-.004.002-.008.004-.012.006-.23.107-.339.373-.252.611l.295.807c.245.668.776,1.178,1.443,1.404.678.226,1.404.137,2.003-.245l1.856-1.188v3.384c0,.281.23.53.511.524.27-.006.48-.219.48-.491v-4.311c0-.187-.098-.354-.255-.432Z"/>
      <path class="cls-2" d="M34.12,27.901c-.58-.444-1.286-.705-2.035-.705h-6.441c-1.11,0-2.151.551-2.789,1.454l-1.964,2.347-1.58-3.574c-.149-.346-.441-.662-.792-.897l.115.007c.024.001.048.002.072.002.287,0,.562-.104.779-.297.235-.208.375-.497.393-.81.032-.532-.145-1.044-.5-1.443-.177-.199-.387-.358-.62-.471-.233-.113-.488-.179-.754-.196l-1.042-.061.194-.018c.646-.058,1.124-.63,1.066-1.275-.053-.592-.358-1.1-.802-1.427l.648.038c.024.001.047.002.071.002.617,0,1.137-.483,1.174-1.106.002-.039.003-.079.003-.118,0-.67-.335-1.272-.852-1.634h.288c.649,0,1.176-.528,1.176-1.176,0-1.101-.895-1.996-1.995-1.996h-.985l.867-.078c.646-.058,1.124-.632,1.066-1.277-.092-1.034-.954-1.818-1.981-1.818-.061,0-.122.003-.185.008l-2.982.268c-.531.048-1.011.299-1.353.708-.341.409-.504.926-.456,1.457.055.611.569,1.071,1.171,1.071.035,0,.071-.001.106-.004l.739-.066c-.595.345-.997.989-.997,1.727,0,.356.159.675.41.891-.572.32-.971.92-1.013,1.624-.019.314.086.616.296.85.208.235.496.374.81.393l.591.035-.961.086c-.531.047-1.011.299-1.353.707-.342.41-.504.927-.456,1.458.054.611.569,1.071,1.171,1.071.035,0,.071-.001.106-.005l1.137-.102c-.441.34-.737.865-.773,1.463-.027.461.217.877.593,1.092h-1.188c-.157,0-.304.079-.402.206-.088.138-.118.305-.068.452l.501,1.463c.009.02.02.039.029.059.325.638.962,1.031,1.67,1.031h1.355l1.175,3.218c.083.229.322.362.561.311.004-.001.008-.002.012-.002.292-.061.461-.367.359-.648l-1.292-3.537c-.079-.196-.256-.324-.472-.324h-1.699c-.325,0-.619-.177-.776-.461l-.265-.776h4.252c.423,0,1.002.354,1.159.727l1.866,4.202c.009.03.02.059.039.099l.049.099.275.648c.108.245.403.363.648.245.255-.108.364-.402.255-.648l-.205-.461,2.307-2.758c.481-.678,1.217-1.061,2.003-1.061h6.469c.518,0,1.005.2,1.427.503.206.148.49.089.645-.116.002-.002.004-.005.006-.008.161-.207.137-.505-.072-.666ZM13.108,13.854c-.074.012-.151-.052-.159-.132-.047-.529.345-.999.875-1.046l2.982-.268c.531-.051,1,.345,1.046.874.007.081-.052.151-.132.158l-4.613.414ZM17.932,15.577c.532,0,.964.433.964.965,0,.08-.065.145-.145.145h-4.632c-.081,0-.145-.065-.145-.145,0-.532.432-.965.963-.965h2.995ZM13.505,19.272c-.068-.004-.141-.085-.137-.153.03-.511.456-.907.962-.907.019,0,.038.001.057.001l2.99.177c.531.032.936.489.905,1.02-.004.068-.103.139-.153.136l-4.624-.274ZM12.449,22.626c-.078.012-.15-.052-.158-.132-.023-.257.055-.506.221-.704.165-.198.397-.319.653-.342l2.982-.268c.253-.026.507.055.705.221.198.165.319.397.342.653.006.068-.063.151-.132.158l-4.615.414ZM14.071,25.229c-.08-.004-.141-.074-.137-.153.031-.511.456-.907.962-.907.02,0,.038.001.058.002l2.989.176c.531.032.937.489.906,1.02-.004.068-.1.137-.153.137l-4.625-.275Z"/>
      <path class="cls-2" d="M45.17,12.073l-2.967-.4c-1.09-.152-2.098.619-2.246,1.71-.066.501.194.972.615,1.196-.335.066-.65.218-.916.448-.403.348-.646.834-.684,1.365-.04.544.3,1.032.793,1.2-.477.091-.898.352-1.198.739-.326.422-.467.946-.397,1.475.04.311.199.588.448.78.135.104.285.175.445.213-.639.37-1.046,1.083-.99,1.868.022.313.165.599.402.806.216.187.486.287.767.287.029,0,.058-.001.087-.004l.134-.009c-.509.393-.821,1.022-.777,1.71.021.314.162.601.397.809.083.073.173.132.269.177-.412.241-.759.592-.933.982l-1.581,3.574-.738-.882c-.15-.18-.409-.227-.613-.112-.004.003-.008.005-.011.007-.267.147-.33.503-.135.736l1.056,1.262-.205.461c-.109.246.009.54.255.648.255.118.54,0,.648-.245l.324-.747,1.905-4.3c.167-.373.736-.727,1.169-.727h4.242l-.265.776c-.157.284-.452.461-.776.461h-1.699c-.206,0-.393.128-.461.324l-2.563,7.011c-.147.384-.442.688-.835.815-.383.128-.805.079-1.158-.137l-2.612-1.679c-.157-.099-.343-.099-.501-.01-.167.079-.264.246-.264.432v2.558c0,.23.146.443.368.504.317.087.623-.153.623-.473v-1.696l1.856,1.188c.598.383,1.336.472,2.002.246.678-.226,1.199-.736,1.443-1.404l2.445-6.697h1.355c.717,0,1.355-.393,1.679-1.031.01-.02.01-.039.02-.059l.501-1.463c.049-.147.029-.314-.068-.452-.088-.128-.235-.206-.402-.206h-.362c.115-.064.219-.148.309-.25.206-.235.31-.538.289-.851-.05-.786-.553-1.436-1.235-1.718.124-.066.237-.156.333-.267.206-.237.307-.541.284-.853-.037-.532-.281-1.017-.683-1.367-.305-.264-.673-.428-1.065-.474l.791-.103c.643-.084,1.098-.675,1.014-1.318-.045-.343-.174-.655-.365-.918.011.001.024.001.035.001.282,0,.552-.101.767-.287.237-.205.382-.49.403-.804.039-.532-.132-1.046-.48-1.45-.048-.055-.097-.108-.15-.156l.25.033c.054.007.107.01.161.01.255,0,.503-.083.709-.24.25-.191.412-.467.453-.779.012-.09.018-.179.018-.269,0-.982-.727-1.841-1.728-1.976ZM44.629,25.071c.004.068-.067.149-.136.153l-4.623.3c-.061-.002-.15-.067-.155-.136-.034-.531.37-.99.9-1.025l2.989-.193c.021-.002.043-.002.063-.002.504,0,.928.393.961.902ZM43.681,21.58c.195.168.312.402.331.661.003.049-.018.084-.035.105-.019.021-.05.046-.1.05l-4.622.331c-.044.003-.084-.017-.105-.035-.021-.018-.046-.05-.05-.1-.018-.257.065-.505.233-.7.169-.195.403-.312.661-.331l2.986-.214c.023-.001.047-.002.071-.002.231,0,.452.082.629.235ZM43.95,19.201l-4.595.596c-.059.011-.153-.058-.163-.127-.032-.255.035-.508.193-.711.157-.204.385-.335.64-.368l2.97-.386c.526-.066,1.012.306,1.081.833.009.079-.047.152-.125.163ZM44.91,16.823c-.005.079-.078.135-.156.134l-4.62-.336c-.08-.005-.14-.076-.135-.156.019-.257.136-.49.332-.66.176-.152.397-.234.628-.234.024,0,.048.001.072.002l2.986.218c.257.019.492.136.66.331.169.195.251.444.232.701ZM45.859,14.18c-.009.067-.091.14-.164.123l-4.591-.62c-.079-.01-.136-.084-.124-.163.065-.483.48-.836.955-.836.043,0,.086.003.13.009l2.968.401c.527.072.898.558.826,1.085Z"/>
    </g>
    <path class="cls-2" d="M28.421,26.398c-2.404,0-4.36-1.956-4.36-4.36s1.956-4.36,4.36-4.36,4.36,1.956,4.36,4.36-1.956,4.36-4.36,4.36ZM28.421,18.709c-1.835,0-3.329,1.494-3.329,3.329s1.494,3.329,3.329,3.329,3.329-1.494,3.329-3.329-1.494-3.329-3.329-3.329Z"/>
    <path class="cls-2" d="M11.089,25.62c-.052,0-.105-.008-.158-.025l-1.795-.578c-.131-.042-.24-.135-.302-.258-.062-.123-.072-.266-.028-.397l.498-1.487-1.064-1.152c-.094-.103-.144-.239-.136-.378.008-.14.072-.27.177-.361l1.423-1.234c.213-.187.54-.164.727.052.187.215.163.54-.052.727l-1.021.886.91.986c.128.139.17.336.11.514l-.43,1.282,1.299.419c.271.087.42.377.332.649-.07.218-.273.357-.49.357Z"/>
    <path class="cls-2" d="M21.79,18.135c-.094,0-.189-.025-.275-.08-.241-.152-.312-.471-.16-.712l.548-.865-.772-.657c-.105-.09-.171-.218-.18-.356l-.104-1.457c-.021-.284.193-.53.478-.55.294-.024.53.194.55.478l.088,1.241.949.806c.196.166.239.451.102.668l-.787,1.244c-.098.155-.266.24-.436.24Z"/>
    <path class="cls-2" d="M36.156,23.677c-.025,0-.05-.002-.076-.005-.281-.042-.476-.304-.434-.586l.227-1.524-1.01-1.159c-.164-.188-.169-.467-.013-.661l.946-1.179-.45-1.44c-.07-.224.02-.467.22-.592l1.514-.942c.241-.151.56-.076.71.165s.076.56-.165.71l-1.175.731.413,1.321c.051.164.018.343-.09.477l-.849,1.058.883,1.014c.099.114.143.265.121.414l-.261,1.759c-.038.256-.258.44-.51.44Z"/>
    <circle class="cls-2" cx="20.845" cy="18.924" r=".496"/>
  </g>
</svg>