<?xml version="1.0" encoding="UTF-8"?>
<svg id="Activity" xmlns="http://www.w3.org/2000/svg" version="1.1" viewBox="0 0 55 55">
  <defs>
    <style>
      .cls-1 {
        fill: #efefef;
      }

      .cls-1, .cls-2 {
        stroke-width: 0px;
      }

      .cls-2 {
        fill: #645780;
      }
    </style>
  </defs>
  <path class="cls-1" d="M45.473,25.355c-1.742-6.249-6.816-11.463-13.016-13.372l.734.298c-5.33-1.816-11.464-1.099-16.232,1.898-4.768,2.997-8.073,8.213-8.747,13.804-.527,4.371.909,9.419,4.835,11.409,4.302,2.181,9.952-.016,14.101,2.443,2.364,1.401,3.901,4.158,6.55,4.89,2.778.768,5.633-1.042,7.551-3.193,4.319-4.841,5.965-11.928,4.224-18.177Z"/>
  <g>
    <path class="cls-2" d="M10.929,19.041h0c.282-.081.443-.377.358-.658l-.131-.429c-.083-.274-.371-.431-.646-.352h0c-.282.081-.443.377-.358.658l.131.429c.083.274.371.431.646.352Z"/>
    <g>
      <path class="cls-2" d="M18.869,10.834l3.186-.968,1.142,3.748c.121.395.402.725.772.907.371.182.804.202,1.189.055.256-.097.488-.273.672-.511.125-.159.278-.268.456-.322h0c.27-.081.566-.028.839.15.303.198.534.519.651.904.232.761-.059,1.527-.649,1.707-.181.056-.373.051-.566-.016-.309-.104-.63-.112-.933-.021-.402.122-.729.403-.913.785-.168.35-.181.755-.068,1.127l1.124,3.711-.606.185c-.276.084-.433.375-.35.652h0c.083.279.378.437.656.353l.606-.185c.557-.17.872-.762.703-1.319l-1.142-3.748c-.071-.235.061-.484.296-.556.089-.027.189-.023.288.01.402.135.819.146,1.211.026,1.144-.349,1.748-1.702,1.348-3.017-.189-.62-.573-1.145-1.081-1.478-.539-.352-1.151-.451-1.72-.276-.384.117-.723.353-.979.683-.046.059-.121.137-.215.173-.118.044-.245.039-.355-.016-.112-.055-.193-.15-.229-.27l-1.142-3.749c-.169-.557-.76-.871-1.319-.703l-3.179.968c-.277.084-.434.376-.351.654v.002c.084.28.379.439.658.354Z"/>
      <path class="cls-2" d="M10.053,16.166h0c.282-.081.443-.377.358-.658l-.104-.343c-.121-.399-.108-.834.073-1.209.197-.409.547-.709.978-.84l5.061-1.538c.277-.084.434-.376.352-.654h0c-.083-.28-.379-.439-.658-.354l-5.06,1.541c-.678.207-1.235.665-1.568,1.29-.333.625-.403,1.343-.197,2.021l.119.391c.083.274.371.431.647.352Z"/>
      <path class="cls-2" d="M18.517,24.902c.182-.37.202-.804.055-1.191-.096-.255-.273-.487-.511-.672-.159-.124-.267-.277-.322-.456-.082-.268-.028-.566.15-.839.198-.302.52-.534.905-.651.384-.117.78-.104,1.114.037.3.127.51.345.592.613.056.182.05.373-.016.566-.105.309-.112.631-.021.934.116.382.375.695.727.883.354.187.759.226,1.139.111l.697-.212c.276-.084.433-.375.35-.652h0c-.083-.279-.378-.437-.656-.352l-.697.212c-.113.034-.233.022-.338-.033-.105-.056-.182-.149-.216-.262-.027-.09-.024-.19.01-.29.136-.401.145-.819.026-1.21-.174-.572-.596-1.024-1.188-1.275-.559-.237-1.21-.262-1.829-.074-.621.189-1.146.573-1.478,1.081-.352.538-.45,1.148-.276,1.719.117.385.353.724.682.979.06.046.138.122.174.216.051.136.036.285-.046.408-.061.091-.158.152-.263.184l-3.733,1.13-1.516-4.976c-.083-.274-.371-.431-.646-.352h0c-.282.081-.443.377-.358.658l1.516,4.976c.083.27.265.492.514.625.155.083.325.125.496.125.104,0,.208-.016.31-.046l3.748-1.142c.395-.12.725-.401.907-.771Z"/>
      <path class="cls-2" d="M43.501,28.64h-.002c-.292-.022-.546.198-.566.49l-.123,1.827-3.909-.26c-.42-.027-.821.118-1.122.4-.301.282-.473.68-.473,1.093,0,.272.083.553.24.81.105.173.152.354.139.541-.019.28-.174.54-.438.731-.293.213-.675.313-1.077.289-.402-.027-.767-.179-1.029-.429-.236-.225-.355-.503-.336-.783.013-.189.085-.366.216-.524.208-.252.328-.55.35-.865.054-.822-.57-1.536-1.393-1.591l-3.916-.268.26-3.909c.016-.235.211-.416.443-.416.01,0,.02,0,.03,0,.094.006.186.045.268.112.327.27.715.426,1.122.453.601.043,1.168-.195,1.612-.659.419-.439.674-1.038.717-1.685.091-1.371-.805-2.552-1.998-2.632-.4-.027-.802.075-1.157.291-.146.089-.437.108-.59-.055-.085-.091-.127-.209-.119-.333l.268-3.916,11.148.742c.427.028.818.222,1.1.544.282.322.421.735.393,1.163l-.455,6.771c-.019.289.198.539.486.561h0c.292.022.546-.198.566-.491l.451-6.772c.097-1.459-1.011-2.727-2.471-2.824l-11.148-.742c-.583-.046-1.086.403-1.125.985l-.26,3.909c-.027.412.119.82.4,1.121.467.5,1.255.629,1.904.233.172-.104.358-.15.54-.139.615.041,1.073.72,1.02,1.515-.026.402-.179.767-.428,1.028-.225.236-.509.359-.783.337-.189-.013-.366-.085-.524-.215-.251-.208-.55-.329-.865-.351-.834-.052-1.537.57-1.591,1.393l-.26,3.91s0,.005,0,.007c-.003,0-.005,0-.008,0l-3.909-.26c-.245-.016-.431-.229-.415-.474.006-.092.044-.185.112-.266.27-.327.426-.715.453-1.122.04-.596-.194-1.169-.659-1.613-.439-.419-1.037-.674-1.685-.717-1.367-.088-2.552.806-2.631,1.999-.027.4.073.8.291,1.157.039.064.086.162.086.263,0,.125-.05.241-.141.326-.091.085-.215.128-.334.119l-3.909-.26c-.281-.013-.554.073-.767.259s-.339.443-.358.726l-.742,11.148c-.047.707.184,1.39.651,1.923.467.534,1.113.853,1.82.9l2.38.158c.285.019.532-.193.558-.477h0c.026-.294-.194-.551-.488-.571l-2.381-.159c-.427-.028-.818-.221-1.1-.543-.282-.322-.421-.735-.393-1.163l.75-11.154,3.909.26c.421.025.821-.118,1.122-.4.301-.282.473-.68.473-1.093,0-.273-.083-.554-.239-.81-.105-.173-.152-.354-.14-.54h0c.041-.616.716-1.071,1.514-1.021.402.027.767.179,1.029.429.236.225.355.503.336.783-.013.189-.085.366-.216.524-.208.252-.329.551-.349.864-.026.399.104.784.367,1.084.263.301.627.48,1.026.507l3.916.268-.26,3.909c-.017.245-.233.419-.474.415-.092-.006-.185-.044-.266-.111-.327-.27-.714-.426-1.122-.454-.6-.04-1.168.195-1.613.659-.419.439-.674,1.037-.717,1.685-.043.647.13,1.273.487,1.764.047.065.097.127.149.185.364.408.84.648,1.361.682.029.002.057.002.086.002.021,0,.043.002.064.002.351-.004.696-.105,1.008-.295.146-.089.437-.109.59.054.085.091.127.209.119.334l-.268,3.916-3.094-.206c-.285-.019-.532.193-.558.477h0c-.026.294.194.551.488.571l10.126.674c.285.019.533-.193.559-.478v-.002c.027-.294-.194-.552-.488-.572l-5.978-.402.26-3.909c.027-.412-.119-.82-.4-1.121-.032-.034-.066-.066-.1-.097-.016-.014-.033-.027-.049-.04-.018-.015-.036-.03-.055-.043-.024-.017-.048-.034-.073-.05-.01-.006-.02-.013-.03-.019-.234-.144-.506-.225-.786-.225-.168,0-.338.035-.505.096-.025.009-.049.017-.074.027-.022.009-.044.019-.065.029-.056.026-.111.054-.165.087-.171.104-.356.15-.537.139-.001,0-.003,0-.004,0-.28-.019-.54-.174-.731-.437-.213-.292-.315-.674-.289-1.077.027-.402.179-.767.429-1.029.225-.236.501-.356.783-.336.19.013.366.085.524.216.252.208.551.329.864.349.401.021.784-.104,1.084-.367.262-.229.432-.534.489-.873,0,0,0,0,0-.001.008-.05.015-.1.018-.152l.268-3.916,3.909.26c.245.016.431.229.415.473-.006.093-.045.186-.112.268-.27.327-.426.715-.453,1.122-.04.596.194,1.169.659,1.613.439.419,1.037.674,1.685.717.065.004.129.006.194.006.007,0,.013,0,.02,0,.038,0,.075-.002.113-.004.038-.002.075-.003.113-.006.038-.003.076-.008.114-.013.037-.005.073-.01.109-.016.037-.006.073-.013.11-.021.037-.008.074-.016.111-.026.034-.009.068-.018.102-.028.039-.011.077-.024.115-.037.031-.011.061-.021.092-.033.041-.016.081-.033.12-.051.026-.012.053-.023.079-.036.045-.022.088-.046.131-.07.02-.011.041-.022.061-.033.062-.037.123-.077.182-.12.13-.095.247-.199.349-.312.308-.338.488-.752.518-1.198.027-.401-.073-.801-.291-1.157-.04-.064-.086-.163-.086-.264,0-.125.05-.241.141-.326.091-.085.211-.134.334-.119l3.916.268-.742,11.148c-.028.427-.222.818-.544,1.1-.323.282-.734.423-1.163.393l-2.623-.176c-.285-.019-.533.193-.559.478h0c-.026.294.194.552.489.572l2.624.175c.06.004.119.006.178.006,1.384,0,2.553-1.077,2.646-2.477l.934-14.03c.019-.289-.198-.539-.486-.561Z"/>
      <path class="cls-2" d="M22.932,44.036h0c.026-.294-.194-.551-.488-.571l-.57-.038c-.285-.019-.532.193-.558.477h0c-.026.294.194.551.488.571l.57.038c.285.019.532-.193.558-.477Z"/>
    </g>
  </g>
</svg>