<?xml version="1.0" encoding="UTF-8"?>
<svg id="dance" xmlns="http://www.w3.org/2000/svg" version="1.1" viewBox="0 0 55 55">
  <defs>
    <style>
      .cls-1 {
        fill: #efefef;
      }

      .cls-1, .cls-2 {
        stroke-width: 0px;
      }

      .cls-2 {
        fill: #645780;
      }
    </style>
  </defs>
  <path class="cls-1" d="M40.386,14.987c-3.012-1.977-7.29-1.815-10.605-.172-1.896.94-3.896,2.142-5.985,2.58-2.282.478-4.547-.541-6.617.599-1.913,1.053-3.318,3.056-3.767,5.179-.627,2.964.439,6.149,2.464,8.401,1.503,1.671,3.526,2.908,5.665,3.581,2.353.741,4.461-.473,6.859.025,3.26.678,4.885,4.598,8.151,5.423,1.991.503,4.254-.359,5.407-2.059,1.153-1.7,1.116-4.121-.088-5.785-.982-1.357-2.223-2.401-1.23-4.195.414-.749,1.051-1.345,1.576-2.021,1.78-2.289,2.175-5.575.988-8.221-.657-1.465-1.641-2.564-2.817-3.336Z"/>
  <g>
    <path class="cls-2" d="M42.622,22.364h-.699c-.289,0-.524-.235-.524-.524s.235-.524.524-.524h.699c.289,0,.524.235.524.524s-.235.524-.524.524Z"/>
    <path class="cls-2" d="M45.616,22.364h-.699c-.289,0-.524-.235-.524-.524s.235-.524.524-.524h.699c.289,0,.524.235.524.524s-.235.524-.524.524Z"/>
    <path class="cls-2" d="M43.77,24.21c-.289,0-.524-.235-.524-.524v-.699c0-.289.235-.524.524-.524s.524.235.524.524v.699c0,.289-.235.524-.524.524Z"/>
    <path class="cls-2" d="M43.769,19.464c.289,0,.524.235.524.524v.699c0,.289-.235.524-.524.524s-.524-.235-.524-.524v-.699c0-.289.235-.524.524-.524Z"/>
    <path class="cls-2" d="M9.798,38.975h-.699c-.289,0-.524-.235-.524-.524s.235-.524.524-.524h.699c.289,0,.524.235.524.524s-.235.524-.524.524Z"/>
    <path class="cls-2" d="M12.792,38.975h-.699c-.289,0-.524-.235-.524-.524s.235-.524.524-.524h.699c.289,0,.524.235.524.524s-.235.524-.524.524Z"/>
    <path class="cls-2" d="M10.946,40.821c-.289,0-.524-.235-.524-.524v-.699c0-.289.235-.524.524-.524s.524.235.524.524v.699c0,.289-.235.524-.524.524Z"/>
    <path class="cls-2" d="M10.945,36.075c.289,0,.524.235.524.524v.699c0,.289-.235.524-.524.524s-.524-.235-.524-.524v-.699c0-.289.235-.524.524-.524Z"/>
    <g>
      <path class="cls-2" d="M15.41,35.022l1.497-3.048c.118-.241.019-.531-.222-.649-.242-.118-.531-.019-.649.222l-1.586,3.231c-.058.117-.065.252-.022.375l1.913,5.407c.075.214.05.44-.074.636-.148.236-.408.392-.714.426-.476.057-.916-.208-1.039-.606l-.336-1.086c-.076-.247-.335-.389-.584-.32-.004.001-.008.002-.012.003-.26.071-.409.344-.33.602l.336,1.086c.241.779.993,1.297,1.839,1.297.077,0,.156-.005.234-.013.601-.068,1.121-.387,1.427-.875.279-.446.34-.983.166-1.474l-1.845-5.215Z"/>
      <path class="cls-2" d="M12.845,34.076l3.021-6.005c.121-.241.022-.54-.224-.65-.003-.001-.006-.003-.009-.004-.237-.107-.516-.014-.633.218l-3.021,6.005c-.303.603-.361,1.29-.161,1.935l.312,1.01c.078.251.347.393.598.316.004-.001.008-.002.012-.004.252-.076.394-.347.316-.598l-.312-1.01c-.125-.404-.089-.834.101-1.212Z"/>
      <path class="cls-2" d="M18.066,22.908l-.575-.521c-.207-.187-.526-.143-.687.085-.006.009-.012.017-.018.025-.141.19-.115.455.06.613l.295.268-.398.791c-.114.226-.033.504.187.63.003.002.006.003.009.005.239.139.546.049.671-.198l.564-1.121c.098-.195.054-.431-.107-.577Z"/>
      <path class="cls-2" d="M33.313,24.082c-.489-.692-1.461-.945-2.26-.59l-2.882,1.276c-.127-.334-3.163-4.206-5.387-4.489l-3.459-.285c-.101-.008-.198-.046-.279-.108l-3.11-2.386,2.566-2.583c.543-.546.56-1.385.04-1.951-.287-.311-.696-.556-1.135-.564-.429-.016-.864.161-1.164.464l-4.134,4.173c-.231.251-.35.573-.335.906.015.335.165.648.421.88l.065.059c.198.179.508.167.681-.037.002-.003.004-.005.006-.008.172-.199.159-.497-.036-.674l-.065-.059c-.064-.058-.1-.129-.103-.206-.003-.074.024-.145.067-.193l4.121-4.16c.114-.115.282-.174.457-.176.175.003.331.134.439.251.168.183.162.434-.014.611l-2.955,2.974c-.099.099-.149.235-.14.374.009.139.078.267.189.352l3.784,2.903c.074.057.163.091.256.098l3.735.307c1.871.239,4.57,3.818,4.753,4.339.045.128.141.231.265.284.125.053.266.053.389-.002l3.355-1.486c.382-.168.854-.053,1.076.263.112.158.148.344.1.523-.051.199-.199.368-.406.467l-4.615,2.206c-.17.08-.385.039-.492-.093l-2.693-3.294c-.099-.121-.254-.187-.408-.177-.157.011-.298.096-.381.23l-2.855,4.644c-.046.075-.071.161-.072.249l-.046,5.299c0,.122.044.24.125.33l4.278,4.72c.267.295.264.705-.008.996-.19.203-.449.31-.724.31-.277-.003-.532-.119-.717-.325l-4.503-5.034c-.391-.439-.607-.989-.607-1.55v-5.117c0-.278-.234-.502-.517-.484-.258.017-.453.242-.453.5v5.101c0,.8.303,1.579.855,2.196l4.503,5.034c.363.407.884.643,1.429.649.535.014,1.071-.219,1.443-.617.611-.654.619-1.646.019-2.309l-4.151-4.58.043-4.975,2.428-3.949,2.262,2.766c.392.479,1.092.628,1.661.354l4.614-2.205c.465-.222.802-.622.926-1.097.118-.454.028-.938-.247-1.328Z"/>
    </g>
    <path class="cls-2" d="M22.487,19.464c-1.623,0-2.944-1.32-2.944-2.944s1.32-2.944,2.944-2.944,2.944,1.32,2.944,2.944-1.32,2.944-2.944,2.944ZM22.487,14.453c-1.14,0-2.068.928-2.068,2.068s.928,2.068,2.068,2.068,2.068-.928,2.068-2.068-.928-2.068-2.068-2.068Z"/>
    <path class="cls-2" d="M32.191,19.464c-1.623,0-2.944-1.32-2.944-2.944s1.32-2.944,2.944-2.944,2.944,1.32,2.944,2.944-1.32,2.944-2.944,2.944ZM32.191,14.453c-1.14,0-2.068.928-2.068,2.068s.928,2.068,2.068,2.068,2.068-.928,2.068-2.068-.928-2.068-2.068-2.068Z"/>
    <g>
      <path class="cls-2" d="M28.315,29.349c-.22-.029-.43.093-.511.3-.173.445-.369.951-.592,1.527-.132.342-.562.53-.991.413-.204-.056-.369-.184-.452-.352-.051-.103-.095-.265-.016-.46l.464-1.15c.088-.218-.019-.456-.231-.56-.018-.009-.036-.018-.053-.028-.226-.128-.513-.025-.61.216l-.468,1.159c-.167.412-.15.858.046,1.254.206.416.594.728,1.096.866.877.24,1.808-.202,2.12-1.009.218-.567.415-1.074.591-1.526.112-.288-.074-.609-.381-.648-.004,0-.008-.001-.013-.002Z"/>
      <path class="cls-2" d="M35.845,28.542c-.259.015-.455.243-.455.503v5.098c0,.524-.188,1.038-.532,1.461l-6.161,2.242c-.365.131-.772-.043-.925-.4-.078-.182-.08-.382-.005-.566.075-.183.217-.325.4-.4l4.76-1.958c.183-.075.302-.255.3-.453l-.04-4.671c0-.088-.025-.174-.072-.249l-.75-1.22c-.133-.216-.416-.282-.631-.148-.008.005-.016.01-.024.015-.226.132-.308.418-.17.641l.68,1.106.036,4.208-4.457,1.833c-.425.175-.755.506-.929.931-.174.425-.169.892.012,1.314.356.83,1.302,1.238,2.147.929l6.282-2.286c.075-.027.142-.073.195-.133.551-.615.855-1.395.855-2.196v-5.117c0-.278-.233-.501-.514-.484Z"/>
      <path class="cls-2" d="M38.503,33.865c.212-.128.291-.396.182-.618l-.835-1.7c-.118-.24-.408-.339-.649-.222-.241.118-.34.408-.222.649l.836,1.702c.124.252.436.342.676.197.004-.002.008-.005.011-.007Z"/>
      <path class="cls-2" d="M40.822,38.045c-.259-.096-.545.042-.626.306l-.796,2.573c-.137.442-.588.733-1.046.7-.312-.029-.578-.183-.731-.422-.126-.198-.154-.426-.078-.642l.081-.23c.104-.294-.096-.608-.407-.636-.004,0-.008,0-.012-.001-.218-.02-.423.11-.496.317l-.08.227c-.176.497-.112,1.039.175,1.487.315.493.846.808,1.457.865.061.006.122.009.182.009.852,0,1.626-.561,1.881-1.387l.796-2.573c.075-.241-.05-.502-.288-.589-.004-.001-.008-.003-.012-.004Z"/>
      <path class="cls-2" d="M43.374,13.486c-.189-.435-.57-.77-1.047-.918-.798-.246-1.66.078-2.06.794l-2.074,4.113c-.18.357-.454.66-.792.874l-2.161,1.371c-.041.026-.087.043-.135.049l-5.013.638c-.602.077-1.187.303-1.69.654-.303.211-.583.432-.843.664-.199.178-.202.483-.018.675.003.003.005.005.008.008.178.189.468.208.661.036.229-.204.476-.399.746-.587.375-.262.81-.43,1.258-.487l5.193-.661c.07-.009.138-.033.198-.071l2.316-1.469c.486-.308.88-.743,1.138-1.256l2.064-4.094c.165-.296.557-.436.916-.323.207.064.369.201.445.377.045.104.08.268-.011.456-.409.844-.884,1.94-1.303,2.907-.301.695-.574,1.328-.776,1.756-.125.266-.309.498-.547.688l-4.005,3.21c-.179.143-.232.391-.13.596l3.132,6.225c.127.252.444.327.679.169.007-.005.014-.009.02-.013.199-.128.271-.385.165-.596l-2.953-5.87,3.699-2.964c.354-.283.629-.631.818-1.031.205-.436.483-1.078.789-1.784.415-.958.885-2.045,1.285-2.87.196-.405.206-.854.028-1.265Z"/>
    </g>
    <g>
      <path class="cls-2" d="M10.879,27.507c-.189-.03-.37-.081-.537-.155-.495-.216-.835-.605-.934-1.069s.053-.959.417-1.357c.325-.356.794-.614,1.321-.726.528-.113,1.06-.069,1.502.126.495.216.835.605.934,1.069.195.919-.568,1.834-1.738,2.083-.327.07-.655.079-.964.03ZM11.946,25.205c-.182-.029-.383-.022-.582.02-.31.065-.589.215-.765.407-.078.086-.203.256-.166.433s.221.281.328.327c.239.104.554.126.864.06.608-.129.992-.549.93-.839-.037-.177-.221-.281-.327-.327-.086-.037-.181-.064-.282-.08Z"/>
      <path class="cls-2" d="M15.521,22.724c-.286-.045-.481-.314-.435-.6l.063-.399c-.815-.46-1.126-1.266-1.536-2.328-.104-.27.03-.573.3-.678.268-.104.573.03.677.3.484,1.253.692,1.677,1.317,1.903.236.086.378.326.339.575l-.125.79c-.045.286-.314.481-.6.436Z"/>
      <g>
        <path class="cls-2" d="M14.343,21.168l.286-1.805c.043-.27-.117-.543-.382-.611-.304-.078-.602.123-.65.425l-.29,1.827c-.045.286.15.554.435.599h0c.286.045.554-.15.599-.435Z"/>
        <path class="cls-2" d="M13.012,22.866l-.455,2.872c-.043.27.117.543.382.611.304.078.602-.123.65-.425l.459-2.893c.045-.286-.15-.554-.435-.599h0c-.286-.045-.554.15-.599.435Z"/>
      </g>
    </g>
    <g>
      <path class="cls-2" d="M42.267,29.757l-.009.002c-.281.07-.452.354-.382.635h0c.07.28.354.451.634.382l.009-.002c.281-.07.452-.354.382-.635h0c-.07-.28-.354-.451-.634-.382Z"/>
      <g>
        <path class="cls-2" d="M45.261,33.441h0c.286.045.554-.149.599-.435l.557-3.513c.021-.134,0-.275-.077-.387-.128-.188-.353-.273-.563-.218l-1.716.425c-.266.066-.455.319-.414.589.046.31.347.506.644.433l.97-.241-.159,1.002-4.567,1.132.159-1.002.02-.005c.266-.066.455-.319.414-.59-.046-.31-.347-.507-.644-.433l-.38.094c-.203.05-.358.218-.391.426l-.864,5.446c-.462-.249-1.047-.317-1.635-.191-.527.112-.996.37-1.321.727-.364.398-.515.893-.417,1.356.139.654.721,1.107,1.465,1.225.303.048.633.041.97-.03.953-.204,1.634-.848,1.75-1.576.005-.033.009-.066.012-.1.015-.035.025-.073.031-.111l.653-4.115,4.567-1.132-.099.622c-.045.286.149.554.435.599ZM37.694,38.227c-.605.13-1.129-.099-1.192-.387-.038-.176.088-.346.166-.433.176-.191.454-.341.764-.407.199-.042.402-.048.584-.02.153.024.292.074.403.146.079.051.179.138.204.262h.001c.061.288-.324.709-.932.839Z"/>
        <path class="cls-2" d="M45.13,34.268c-.286-.045-.554.149-.599.435l-.031.194c-.056-.031-.113-.059-.173-.085-.44-.195-.975-.239-1.501-.126-1.17.249-1.933,1.164-1.738,2.082.098.464.439.854.934,1.07.168.074.348.125.538.155.308.049.637.039.963-.031.933-.197,1.607-.82,1.742-1.53v-.004c.043-.061.071-.127.083-.205l.215-1.356c.045-.286-.149-.554-.435-.599h0ZM43.305,36.937c-.31.066-.623.044-.864-.061-.105-.046-.289-.15-.327-.326-.061-.291.324-.71.931-.84.199-.042.401-.049.583-.02.102.016.196.043.282.08.106.046.29.15.327.328.062.29-.323.711-.93.839Z"/>
      </g>
    </g>
  </g>
</svg>