<?xml version="1.0" encoding="UTF-8"?>
<svg id="coloring" xmlns="http://www.w3.org/2000/svg" version="1.1" viewBox="0 0 55 55">
  <defs>
    <style>
      .cls-1 {
        fill: #efefef;
      }

      .cls-1, .cls-2 {
        stroke-width: 0px;
      }

      .cls-2 {
        fill: #645780;
      }
    </style>
  </defs>
  <path class="cls-1" d="M33.794,44.604c1.584-1.206,2.601-3.19,3.77-4.813.792-1.1,1.677-2.151,2.717-3.026,1.023-.862,2.269-1.103,3.267-1.872,1.064-.82,1.944-1.814,2.616-2.979,1.312-2.275,1.803-5.057,1.25-7.632-.962-4.479-5.066-8.092-9.63-8.48-3.261-.277-6.906.848-9.6-1.011-2.051-1.415-2.852-4.178-4.923-5.562-2.204-1.472-5.34-.888-7.361.827-2.021,1.715-3.088,4.314-3.637,6.907-.557,2.627-.643,5.425.292,7.942,1.238,3.331,3.978,5.155,7.436,5.448,3.216.272,6.373.883,6.128,4.78-.172,2.733-1.933,5.685-.102,8.231,1.18,1.64,3.297,2.551,5.298,2.282.977-.132,1.784-.511,2.48-1.041Z"/>
  <g>
    <g>
      <path class="cls-2" d="M39.35,19.771c-.165,0-.332-.041-.486-.126-1.098-.612-1.677-.927-2.815-1.39-.512-.208-.758-.791-.55-1.303.208-.512.79-.76,1.303-.55,1.244.505,1.897.86,3.036,1.495.482.269.656.878.387,1.36-.183.328-.523.513-.875.513Z"/>
      <path class="cls-2" d="M33.389,17.203c-.105,0-.212-.017-.317-.052-3.244-1.084-6.427-1.789-9.461-2.095-.549-.056-.95-.546-.895-1.096.056-.549.543-.948,1.096-.895,3.18.321,6.509,1.058,9.894,2.189.524.175.807.741.631,1.265-.14.419-.53.684-.948.684Z"/>
    </g>
    <path class="cls-2" d="M26.972,36.402c-.069,0-.14-.007-.21-.022-.874-.187-2.027-.419-3.199-.563-.548-.067-.938-.566-.871-1.114.068-.549.575-.945,1.115-.87,1.249.153,2.458.397,3.373.593.54.115.884.646.769,1.187-.101.47-.516.791-.977.791Z"/>
    <path class="cls-2" d="M34.138,38.242c-.088,0-.177-.012-.266-.036-.385-.105-.911-.259-1.476-.424-.965-.281-2.058-.601-2.708-.756-.538-.128-.869-.667-.741-1.204.128-.538.669-.868,1.204-.741.699.166,1.818.493,2.806.781.553.162,1.067.312,1.444.416.532.146.846.696.699,1.229-.121.444-.524.735-.963.735Z"/>
    <path class="cls-2" d="M38.796,39.825c-.124,0-.25-.022-.372-.072l-.608-.248c-.357-.149-.438-.181-1.143-.402-.527-.165-.82-.726-.655-1.253.164-.527.723-.822,1.253-.655.811.254.901.293,1.312.463l.585.24c.513.205.762.788.556,1.3-.156.391-.531.628-.928.628Z"/>
  </g>
  <path class="cls-2" d="M43.437,32.532c-5.26-2.93-10.97-5.04-16.71-6.74,5.43.7,10.69,2.04,15.4,3.38.49.14,1.01-.12,1.2-.6.19-.48-.02-1.02-.48-1.25-2.59-1.33-5.34-2.53-8.29-3.64,2.3.65,4.66,1.4,7.06,2.26.45.16.96-.02,1.2-.44.24-.41.16-.94-.21-1.26-1.84-1.6-4-2.93-6.15-3.99-2.42-1.2-4.85-2.05-6.8-2.54-.08-.02-.16-.03-.24-.03-.45,0-.86.3-.97.76-.14.53.19,1.08.73,1.21,1.65.41,3.64,1.1,5.68,2.04-6.04-1.67-11.79-2.62-17.41-2.89-.53-.01-.97.35-1.04.87-.06.51.27,1,.78,1.11,4.86,1.07,9.21,2.23,13.17,3.54-4.26-.74-8.68-1.17-13.11-.98-.5.02-.9.4-.95.9-.05.49.27.95.76,1.07,4.59,1.11,9.31,2.35,13.92,3.94-4.44-1-9-1.87-13.64-2.59-.53-.07-1.02.26-1.13.78-.12.51.19,1.03.7,1.17l2.23.64c1.69.48,3.31.95,4.89,1.42-1.2-.19-2.53-.37-4.06-.58-.48-.06-.93.25-1.07.71l-3.88,2.37-.05-.04c-.09-.07-.21-.11-.32-.11-.16,0-.31.07-.41.2l-.46.58-5.05,6.47c-.09.11-.12.25-.11.39.02.14.09.26.2.35.09.07.21.11.32.11.17,0,.32-.08.41-.2l2.34-2.99,1.97,1.53,1.89,1.48-.99,1.27-1.34,1.72c-.09.11-.13.25-.11.39.02.14.09.26.2.34.09.08.2.12.32.12.16,0,.31-.08.41-.21l1.2-1.53,4.3-5.52c.18-.22.14-.56-.09-.73l-.05-.05,1.37-4.39c.02-.05.03-.09.03-.14,6.22.63,8.99,1.26,15.35,3.16.08.02.16.03.25.03.4,0,.78-.25.93-.65.18-.48-.03-1.02-.49-1.24-1.17-.59-2.32-1.12-3.47-1.6,3.1.75,6.14,1.57,9.1,2.45.49.15,1.01-.1,1.21-.57.19-.47.01-1.01-.44-1.26ZM17.167,39.122l-3.36-2.62-.5-.39.38-.49.14.11,3.72,2.9-.38.49ZM19.977,32.032l-1.26,4.03-1.33-1.04c-.09-.07-.2-.11-.32-.11-.16,0-.32.07-.42.2-.08.11-.12.25-.1.39.01.14.08.27.19.35l1.86,1.45-.41.51-3.86-3.01.4-.52.54.42c.09.07.2.11.32.11.16,0,.31-.08.42-.2.17-.23.13-.56-.1-.74l-.01-.01,3.6-2.19c.06-.04.12-.06.17-.06.1,0,.18.06.2.08.04.03.17.15.11.34Z"/>
</svg>