<?xml version="1.0" encoding="UTF-8"?>
<svg id="English" xmlns="http://www.w3.org/2000/svg" version="1.1" viewBox="0 0 55 55">
  <defs>
    <style>
      .cls-1 {
        fill: #efefef;
      }

      .cls-1, .cls-2 {
        stroke-width: 0px;
      }

      .cls-2 {
        fill: #645780;
      }
    </style>
  </defs>
  <path class="cls-1" d="M34.2,9.35c-3.091-1.067-6.314-.774-9.194.53-5.709,2.584-14.678,9.579-13.057,17.089.474,2.198,1.344,4.346,2.576,6.24,2.18,3.352,2.643,5.755,3.798,9.41.614,1.943,2.463,3.601,4.427,3.677,2.579.1,4.751-1.089,5.54-3.572,1.143-3.598.743-6.766,5.48-7.659,2.101-.396,3.746-1.03,5.561-2.151,2.413-1.49,3.768-4.398,3.902-7.339.134-2.941-.833-5.898-2.27-8.522-1.546-2.824-3.657-6.624-6.763-7.703Z"/>
  <path class="cls-2" d="M16.352,37.315c-.01-.05-.02-.09-.02-.14s0-.1.01-.14c-.01.09,0,.19.01.28ZM39.722,33.285v.39c-.29.2-.55.4-.79.62h.73c.28,0,.51-.23.51-.51,0-.26-.2-.48-.45-.5ZM35.861,36.768c0-.281-.228-.51-.509-.51h-3.815c-.281,0-.509.228-.509.51s.228.51.509.51h3.815c.281,0,.509-.228.509-.51ZM34.276,23.315c0-.281-.228-.51-.509-.51h-10.469c-.281,0-.509.228-.509.51s.228.51.509.51h10.469c.281,0,.509-.228.509-.51ZM34.276,25.195c0-.281-.228-.51-.509-.51h-10.469c-.281,0-.509.228-.509.51s.228.51.509.51h10.469c.281,0,.509-.228.509-.51ZM24.665,20.205h2.983l.497,1.351c.033.083.157.39.447.39.249,0,.729-.158.729-.547,0-.091-.025-.19-.049-.249l-1.981-5.453c-.273-.762-.812-.804-1.144-.804-.439,0-.878.141-1.119.804l-1.981,5.453c-.05.141-.058.24-.058.273,0,.315.431.522.721.522.265,0,.398-.207.464-.39l.489-1.351ZM25.958,16.658c.074-.199.149-.215.199-.215.058,0,.124.017.199.215l.92,2.519h-2.237l.92-2.519ZM16.836,21.069h0c.281,0,.509-.228.509-.509v-.97c0-.281-.228-.509-.509-.509h0c-.281,0-.509.228-.509.509v.97c0,.281.228.509.509.509ZM39.722,33.285v.39c-.29.2-.55.4-.79.62h-17.79c-1.39.01-3.72.4-3.79,2.75.06,1.68,1.29,3.05,2.89,3.36v-3.13h-.49c-.28,0-.51-.23-.51-.51s.23-.51.51-.51h9.78c.28,0,.51.23.51.51s-.23.51-.51.51h-3.18v3.2h5.14c.28,0,.51.23.51.51s-.23.51-.51.51h-5.14v2.69c0,.19-.1.37-.28.46-.07.03-.15.05-.22.05-.11,0-.22-.03-.31-.1l-2.24-1.68-2.25,1.68c-.15.11-.36.13-.53.05-.17-.09-.28-.27-.28-.46v-2.74c-2.08-.31-3.7-2.02-3.89-4.13-.01-.09-.02-.19-.01-.28-.01-.05-.01-.09-.01-.14v-13.58c0-.28.22-.51.5-.51.29,0,.51.23.51.51v11.26c.82-.82,2.12-1.28,3.79-1.3h18.53c.02,0,.04,0,.06.01ZM21.262,43.165l1.73-1.3c.09-.07.2-.1.31-.1.1,0,.21.03.3.1l1.74,1.3v-5.89h-4.08v5.89ZM40.502,34.375c.14-.1.24-.26.24-.43V10.995c0-.29-.23-.51-.51-.51h-19.3c-2.54,0-4.6,2.06-4.6,4.6v1.75c0,.28.22.51.5.51.29,0,.51-.23.51-.51v-1.75c0-1.98,1.61-3.59,3.59-3.59h18.79v22.18c-.29.2-.55.4-.79.62-.99.84-1.51,1.78-1.57,2.76-.07,1.1.46,2.25,1.58,3.42h-5c-.29,0-.51.23-.51.51s.22.51.51.51h6.26c.18,0,.35-.07.44-.22.16-.22.11-.51-.09-.68-1.51-1.27-2.24-2.44-2.18-3.48.06-.94.78-1.86,2.13-2.74Z"/>
  <path class="cls-2" d="M34.025,20.422v-2.656c0-.295-.257-.533-.562-.533h-.343c-.086-.01-.152-.01-.19-.019-.295-.029-.524-.048-.676-.048-.533,0-.981.124-1.352.371-.352.238-.647.571-.857.981-.219.409-.324.885-.324,1.409,0,.666.171,1.181.495,1.514.333.343.724.514,1.142.514.305,0,.628-.095.981-.295.248-.133.466-.324.666-.562.01.114.029.219.048.314.038.248.257.419.514.419.162,0,.314-.067.409-.181.095-.114.133-.257.105-.4-.038-.238-.057-.514-.057-.828ZM32.968,18.176v1.019c0,.571-.257,1.114-.723,1.476-.486.381-.866.438-1.181.038-.152-.19-.228-.486-.228-.876,0-.552.152-.99.438-1.304.295-.314.647-.466,1.076-.466.171,0,.362.019.562.057.029.01.057.029.057.057Z"/>
</svg>