<?xml version="1.0" encoding="UTF-8"?>
<svg id="excersise" xmlns="http://www.w3.org/2000/svg" version="1.1" viewBox="0 0 55 55">
  <defs>
    <style>
      .cls-1 {
        fill: #efefef;
      }

      .cls-1, .cls-2 {
        stroke-width: 0px;
      }

      .cls-2 {
        fill: #645780;
      }
    </style>
  </defs>
  <path class="cls-1" d="M43.817,23.469c-1.097-1.442-2.904-2.368-4.381-3.432-1.001-.721-1.958-1.527-2.755-2.473-.784-.932-1.004-2.065-1.704-2.974-.746-.968-1.651-1.769-2.711-2.381-2.071-1.194-4.603-1.642-6.947-1.138-4.077.876-7.366,4.611-7.72,8.766-.252,2.968.771,6.287-.92,8.739-1.288,1.867-3.803,2.596-5.063,4.482-1.34,2.006-.809,4.861.752,6.701,1.561,1.84,3.927,2.811,6.288,3.311,2.391.507,4.938.585,7.23-.266,3.032-1.127,4.693-3.621,4.959-6.769.247-2.927.804-5.801,4.351-5.578,2.487.156,5.175,1.76,7.493.093,1.493-1.074,2.322-3.001,2.077-4.823-.12-.89-.465-1.624-.948-2.258Z"/>
  <path class="cls-2" d="M21.191,43.481c-.229,0-.421-.13-.501-.339-.124-.256-.022-.571.224-.711l1.13-.612c.068-.042.157-.065.25-.065.19,0,.369.113.468.294.151.285.074.606-.181.746l-1.121.613c-.086.039-.171.074-.269.074Z"/>
  <path class="cls-2" d="M16.474,41.343c-.189,0-.368-.119-.467-.311-.148-.278-.072-.581.18-.719l7.378-4.019c.087-.034.156-.056.24-.056.212,0,.393.12.473.312.067.103.083.248.051.39-.021.086-.077.243-.228.329l-7.377,4.018c-.099.037-.174.055-.249.055Z"/>
  <path class="cls-2" d="M12.707,47.843c-1.034,0-1.969-.605-2.382-1.541-.564-1.25-.027-2.764,1.222-3.448l2.435-1.332c.085-.051.171-.075.269-.075.216,0,.405.125.493.324.128.264.023.583-.232.715l-2.417,1.323c-.761.437-1.1,1.331-.771,2.038.246.522.818.872,1.423.872.239,0,.484-.062.69-.175l5.282-2.904c.06-.023.152-.056.239-.056.335,0,.625.373.543.7-.036.142-.126.263-.247.331l-5.281,2.903c-.41.215-.836.324-1.265.324Z"/>
  <path class="cls-2" d="M26.683,32.668c-.11,0-.241-.048-.342-.125l-3.18-2.595c-.131-.106-.203-.263-.203-.44,0-.159.071-.306.206-.423,1.283-1.006,2.289-1.716,2.983-2.106.075-.055.17-.083.268-.083.1,0,.196.03.278.087.159.089.266.264.273.44l.269,4.661c.008.217-.105.427-.282.519-.104.048-.176.066-.27.066ZM25.774,28.515c-.337.231-.724.519-1.167.849l-.214.159,1.665,1.366-.138-2.475-.146.1Z"/>
  <path class="cls-2" d="M35.158,17.557c-.263-.031-.478-.251-.486-.524-.039-1.353-.286-2.672-.734-3.922-.187-.52.491-.967.896-.593.068.063.12.142.153.23.486,1.362.752,2.793.79,4.253,0,.298-.232.548-.534.56-.029.001-.057,0-.085-.003Z"/>
  <path class="cls-2" d="M21.221,32.892c-.129,0-.256-.044-.348-.121l-1.778-1.396c-.537-.426-.863-1.1-.872-1.801-.009-.714.29-1.384.819-1.841.696-.614,4.27-3.716,6.411-4.506.729-.266,2.869-.891,2.938-.906,1.083-.376,1.948-1.321,2.272-2.467.697-2.561.276-5.288-1.153-7.483l-.969-1.486c-.214-.335-.351-.715-.397-1.098-.092-1.06.471-2.014,1.435-2.427.255-.136.558-.203.91-.203.821,0,1.63.449,2.112,1.173l.929,1.437c.071.114.142.228.211.343.059.098.13.196.181.298.075.143.09.305.038.451-.085.258-.353.398-.613.352-.158-.028-.299-.112-.388-.248-.056-.105-.12-.21-.183-.312l-.169-.287-.942-1.434c-.268-.412-.715-.668-1.167-.668-.166,0-.324.032-.471.095-.394.175-.665.502-.767.921-.064.328.021.704.225,1.009l.948,1.484c1.606,2.473,2.077,5.521,1.291,8.365-.413,1.492-1.55,2.729-2.966,3.23-1.457.423-2.525.753-2.925.902-1.706.63-4.793,3.199-6.041,4.274-.408.357-.555.877-.394,1.391.075.235.232.451.456.624l1.735,1.373c.206.166.249.494.094.729-.126.149-.289.233-.463.233Z"/>
  <path class="cls-2" d="M26.645,36.695c-.699,0-1.405-.294-2.044-.849l-2.332-1.862c-.234-.186-.276-.53-.096-.784.12-.126.273-.198.436-.198.141,0,.261.041.345.118l2.354,1.874c.464.395.902.587,1.337.587.175,0,.31-.023.425-.076.362-.124.626-.411.68-.746.074-.315-.049-.619-.369-.896-.118-.093-.188-.23-.195-.38-.009-.135.035-.275.124-.396.1-.115.266-.19.428-.19.146,0,.274.048.36.134.605.514.876,1.216.749,1.935-.147.726-.692,1.336-1.421,1.591-.254.091-.524.14-.781.14Z"/>
  <path class="cls-2" d="M25.313,21.921c-.66,0-1.287-.142-1.864-.421-.15-.067-.262-.196-.302-.348-.041-.163-.016-.317.072-.445.104-.164.284-.263.474-.263.061,0,.124.015.212.05.434.208.909.314,1.408.314.909,0,1.752-.358,2.373-1.009.632-.642.958-1.502.919-2.422-.059-1.381-1.038-2.608-2.355-3.012-.34-.104-.698-.152-1.054-.139-.402.014-.853.212-1.097-.233-.087-.159-.087-.345,0-.516.104-.206.285-.273.502-.301.664-.087,1.333-.067,1.978.122,1.635.479,2.849,1.881,3.093,3.57.187,1.273-.189,2.562-1.032,3.535-.833.965-2.046,1.518-3.327,1.518Z"/>
  <path class="cls-2" d="M21.862,19.784c-.2,0-.387-.119-.486-.311-.311-.602-.468-1.26-.468-1.957,0-1.051.376-2.062,1.059-2.849.117-.125.264-.195.413-.195.203,0,.381.106.478.283.116.208.097.452-.048.638-.513.57-.798,1.326-.798,2.123,0,.502.116.995.346,1.463.123.246.05.524-.177.679-.088.085-.196.126-.318.126Z"/>
  <path class="cls-2" d="M36.874,47.833c-.702,0-1.386-.286-1.875-.785-.892-.902-.97-2.392-.182-3.465l2.857-3.937-3.432-.851-4.435.007-5.023,2.772c-.081.044-.166.065-.268.065-.23,0-.439-.151-.519-.375-.089-.259.032-.542.287-.674l5.14-2.828c.095-.043.185-.065.269-.065h4.688l4.357,1.062c.186.056.333.189.389.356.058.165.031.362-.066.518l-3.343,4.587c-.479.644-.451,1.527.067,2.056.302.302.678.461,1.088.461.053,0,.116-.01.18-.021.418-.051.816-.289,1.089-.652l1.611-2.225c.143-.197.402-.271.628-.171.151.067.32.194.354.364.032.162,0,.326-.09.458l-1.647,2.261c-.447.62-1.146,1.014-1.917,1.08h-.207Z"/>
  <path class="cls-2" d="M35.992,30.253c-.088-.002-.176-.024-.257-.07-.137-.078-.238-.214-.268-.369-.475-2.175-1.104-4.016-1.87-5.472-.34-.633-.347-1.368-.02-1.967.28-.521.489-1.026.641-1.544.116-.467.223-.949.3-1.441.041-.26.258-.454.518-.462.093-.003.191.014.276.053.18.081.295.267.306.462.005.087-.015.174-.032.258-.017.085-.037.17-.057.254-.019.079-.135.638-.153.744-.032.161-.059.292-.095.422-.168.592-.417,1.195-.738,1.791-.141.26-.131.612.027.918.828,1.551,1.492,3.494,1.976,5.774.039.135,0,.296-.098.427-.109.145-.282.224-.456.221Z"/>
  <path class="cls-2" d="M41.676,42.699c-.105.002-.211-.027-.307-.089-.265-.173-.333-.544-.149-.801l2.1-2.896c.301-.406.378-.936.204-1.416-.177-.479-.577-.832-1.068-.945l-5.875-1.446c-.231-.057-.397-.248-.423-.489-.078-.925-.166-1.714-.269-2.41-.04-.273.127-.517.385-.601.176-.057.375-.014.514.106.098.084.166.202.188.333.096.611.174,1.267.238,2.006l.006.071,5.496,1.35c.854.221,1.545.839,1.848,1.654.295.82.167,1.731-.343,2.437,0,0-2.108,2.914-2.108,2.914-.108.141-.271.219-.437.222Z"/>
</svg>