<?xml version="1.0" encoding="UTF-8"?>
<svg id="fun" xmlns="http://www.w3.org/2000/svg" version="1.1" viewBox="0 0 55 55">
  <defs>
    <style>
      .cls-1 {
        fill: #efefef;
      }

      .cls-1, .cls-2 {
        stroke-width: 0px;
      }

      .cls-2 {
        fill: #645780;
      }
    </style>
  </defs>
  <path class="cls-1" d="M42.704,37.009c-.459-2.002-1.751-3.669-2.704-5.449-1.759-3.285-.531-7.011,1.835-9.603.894-.979,1.873-1.899,2.574-3.025,1.377-2.213.968-4.65-.987-6.332-3.219-2.769-8.307-1.74-11.952-.526-2.758.918-5.158,2.606-7.961,3.416-3.235.935-6.24.594-9.525.609-2.479.012-5.537,1.26-6.691,3.558-1.199,2.388-.278,5.31,1.125,7.586,1.402,2.275,3.282,4.296,4.193,6.808,1.44,3.972-.635,10.19,3.407,12.91,5.318,3.578,8.631-5.966,14.214-4.779,1.558.331,2.916,1.252,4.377,1.886,4.238,1.837,8.061-1.194,8.239-5.602.02-.494-.034-.978-.143-1.457Z"/>
  <g>
    <g>
      <g>
        <path class="cls-2" d="M20.685,42.913c-.128-.229-.406-.324-.639-.205-.49.252-1.005.448-1.513.572-.524.128-1.113.189-1.703.179-.503-.009-.995-.069-1.452-.174-.227-.052-.457.074-.543.29l-.004.01c-.115.29.054.618.358.686.291.065.594.114.904.146l.889.043h.002c.607.007,1.209-.062,1.786-.204.516-.124,1.078-.333,1.629-.604l.118-.066c.236-.132.307-.429.173-.664-.002-.003-.003-.006-.005-.009Z"/>
        <path class="cls-2" d="M25.841,36.521c-.016-.556-.247-1.063-.649-1.428-.28-.257-.643-.437-.958-.477l-.074.017h0s.079-.143.079-.143c.051-1.298-.084-4.54-2.412-6.633-.215-.186-.442-.361-.684-.527-.078-.052-.166-.079-.256-.081-.209-.004-.398.131-.475.347-.076.224-.006.456.175.581.205.13.391.28.57.43,1.205,1.084,1.723,2.603,1.94,3.847-.547-1.167-1.239-2.062-2.06-2.661-.616-.458-1.22-.783-1.794-.966.03-.033.063-.07.098-.111.888-1.067.121-2.747-.145-3.255-.087-.153-.256-.25-.436-.253-.047,0-.094.005-.145.017-.223.072-.371.282-.36.505-.002.036-.017.144-.064.183l-.088.041c-.044.01-.094.015-.151.014-.158-.003-.359-.048-.598-.132-.671-.242-1.36-.371-2.051-.384-.485-.009-.956.041-1.4.15-1.387.337-2.49,1.24-3.166,2.584-1.03.808-1.788,1.788-2.188,2.836-.617,1.625-.638,3.4-.063,5.134.266.799.594,1.4.821,1.762.032.055.115.183.115.183-.267.218-.48.516-.602.847-.193.525-.157,1.085.098,1.579.37.729,1.147,1.229,1.935,1.243.163.003.323-.014.452-.1.192.306.376.555.571.769.227.25.631.211.804-.079l.005-.009c.114-.19.086-.431-.064-.594-.216-.237-.414-.522-.634-.909l-.274-.493-.492.34c-.046.018-.092.036-.138.048-.073.017-.149.025-.227.024-.418-.008-.837-.286-1.042-.692-.124-.248-.142-.527-.049-.782.074-.199.212-.372.302-.472.066.036.142.057.219.058.042,0,.084-.004.126-.015.049-.011.092-.03.138-.06.21-.122.298-.372.213-.609-.045-.119-1.081-2.973.23-5.568.194-.396.436-.755.739-1.094.164-.175.162-.445-.025-.659-.093-.112-.227-.178-.368-.18-.131-.002-.251.049-.336.145-.353.39-.66.839-.912,1.335-.49.976-.746,2.074-.764,3.271-.291-1.062-.432-2.509.16-4.066.335-.874.987-1.705,1.919-2.433.054-.046.113-.096.152-.173.568-1.182,1.438-1.923,2.586-2.204.349-.085.723-.124,1.114-.117.581.011,1.173.121,1.756.329.339.121.65.184.922.189.147.003.284-.011.41-.042.114-.028.217-.069.308-.121.098.368.187.939-.083,1.267-.229.268-.502.442-.813.519-.126.029-.259.044-.394.042-.143-.003-.289-.024-.415-.062-.048-.017-.098-.026-.151-.027-.045,0-.089.004-.132.015-.147.035-.27.133-.34.273-.105.233-.025.51.186.645l.786.489c-.195.096-.476.21-.836.299-.38.093-.803.138-1.317.128h-.013c-2.125-.07-3.039-1.071-3.076-1.113-.098-.11-.236-.174-.38-.177-.043,0-.086.004-.126.014-.077.019-.143.051-.201.102-.106.087-.17.21-.183.347-.012.133.029.263.121.37.207.231,1.36,1.385,3.812,1.463l.109.003c.515.009,1.017-.045,1.492-.161,1.221-.298,1.876-.898,1.877-.9.116-.098.181-.255.171-.415-.009-.073-.034-.144-.07-.206.541.124,1.132.419,1.76.882,1.81,1.33,2.433,4.181,2.542,4.749.024.173.146.324.321.392.055.021.111.031.168.032.042,0,.083-.004.123-.013.08-.02.152-.057.201-.103l.086-.089c.216.004.445.1.627.262.203.187.32.44.329.713.009.534-.332,1.02-.792,1.132-.045.011-.088.021-.213.029l-.528-.111-.027.592c-.018.492-.079.85-.202,1.194-.159.411-.37.81-.635,1.201-.142.209-.111.497.083.659.003.002.005.004.008.007.23.196.577.157.749-.092.323-.468.567-.931.735-1.397.126-.36.204-.727.268-1.107.928-.224,1.582-1.122,1.557-2.136Z"/>
      </g>
      <path class="cls-2" d="M20.568,38.087c-.025-.209-.14-.401-.317-.524-.126-.087-.274-.134-.428-.137-.067-.001-.133.006-.197.021l-3.859.94c-.214.052-.395.193-.497.388-.104.199-.117.434-.036.646.406,1.056,1.403,1.752,2.537,1.772.237.004.473-.022.704-.079,1.366-.332,2.267-1.636,2.094-3.029ZM17.787,40.152c-.597-.011-1.143-.328-1.448-.832l3.203-.781c-.049.748-.578,1.383-1.316,1.563-.145.035-.292.052-.439.049Z"/>
      <g>
        <path class="cls-2" d="M16.031,37.034c-.073.118-.187.202-.322.236-.044.011-.089.016-.134.015-.236-.004-.44-.168-.496-.397-.136-.559-.534-.65-.761-.654-.076-.001-.155.007-.226.024-.199.049-.363.16-.463.313-.116.181-.141.412-.075.688.033.134.011.275-.061.393-.073.119-.187.203-.322.236-.044.011-.088.016-.133.015-.237-.004-.441-.168-.497-.397-.171-.704.021-1.205.213-1.501.245-.378.632-.647,1.091-.76.155-.038.316-.055.479-.052.655.012,1.51.398,1.766,1.449.033.137.011.276-.061.394Z"/>
        <path class="cls-2" d="M22.018,35.577c-.073.119-.187.203-.322.236-.044.012-.088.016-.134.015-.236-.004-.439-.168-.496-.397-.136-.559-.534-.65-.761-.654-.076-.001-.155.007-.224.024-.199.048-.363.159-.464.313-.116.18-.141.412-.074.687.068.28-.104.563-.383.631-.045.011-.089.016-.134.015-.237-.004-.44-.169-.497-.398-.171-.705.021-1.205.214-1.5.244-.379.632-.648,1.09-.76.155-.038.318-.056.48-.053.655.012,1.51.398,1.765,1.449.033.135.011.276-.061.394Z"/>
      </g>
    </g>
    <g>
      <path class="cls-2" d="M35.658,40.204c-.048,0-.095-.003-.143-.008l-6.266-.729c-.648-.075-1.124-.623-1.108-1.275l.02-.807c.016-.651.518-1.175,1.168-1.219l6.294-.42h0c.353-.019.697.104.951.346.253.243.393.584.385.934l-.048,1.955c-.009.351-.166.684-.43.914-.229.199-.523.308-.823.308ZM35.688,36.699l-6.293.42c-.154.01-.274.135-.277.29l-.02.807c-.004.155.109.285.263.303l6.265.729c.119.014.193-.039.23-.071s.099-.103.102-.217l.048-1.955c.003-.114-.056-.188-.091-.222s-.117-.088-.226-.082Z"/>
      <g>
        <path class="cls-2" d="M27.498,34.813c-.519,0-.994-.323-1.176-.835l-.27-.761c-.218-.614.064-1.283.656-1.556l5.728-2.642h0c.319-.147.688-.153,1.011-.016.323.136.576.404.693.735l.654,1.842c.117.331.09.699-.076,1.009-.166.31-.455.538-.795.624l-6.112,1.559c-.105.027-.211.04-.314.04ZM32.836,29.888l-5.728,2.642c-.141.065-.208.224-.156.37l.27.761c.052.146.206.226.354.189l6.112-1.559c.11-.028.166-.105.189-.148.023-.043.056-.132.018-.24l-.654-1.842c-.038-.108-.12-.156-.165-.175-.046-.02-.137-.044-.241.004Z"/>
        <path class="cls-2" d="M32.58,46.898c-.2,0-.4-.048-.58-.142l-5.591-2.919c-.578-.302-.827-.984-.579-1.587l.307-.746c.248-.603.905-.914,1.527-.721l6.028,1.857c.335.104.614.345.764.662.15.317.159.686.026,1.011l-.744,1.809c-.134.325-.4.58-.73.701-.138.05-.283.075-.428.075ZM27.295,41.682c-.118,0-.228.07-.275.185l-.307.746c-.059.144,0,.305.138.377l5.591,2.919h0c.102.054.194.034.24.016.046-.017.13-.061.173-.166l.744-1.808c.043-.106.015-.196-.006-.241s-.072-.124-.181-.157l-6.028-1.857c-.029-.009-.059-.014-.089-.014Z"/>
      </g>
    </g>
    <g>
      <path class="cls-2" d="M18.605,18.537c-.079-.004-.158-.015-.238-.035l-6.129-1.491c-.341-.083-.633-.307-.802-.615-.169-.308-.2-.675-.087-1.008l.633-1.85c.114-.332.364-.603.686-.743.322-.14.691-.138,1.011.006l5.756,2.578c.595.266.885.931.673,1.548l-.261.764c-.185.539-.695.874-1.244.846ZM13.184,13.646c-.057-.003-.105.012-.133.025-.045.02-.126.068-.163.177l-.633,1.85c-.037.108-.003.196.021.24.024.043.079.119.191.146h0l6.129,1.491c.151.036.302-.046.352-.193l.261-.763c.05-.146-.019-.304-.16-.367l-5.757-2.578c-.038-.017-.074-.024-.107-.026Z"/>
      <g>
        <path class="cls-2" d="M13.039,24.393c-.273-.014-.538-.117-.75-.297-.267-.228-.428-.559-.44-.91l-.07-1.954c-.013-.351.124-.693.374-.939s.587-.37.946-.356l6.298.35c.65.036,1.158.555,1.182,1.206l.029.807c.024.651-.446,1.205-1.093,1.287l-6.256.798h0c-.073.009-.147.012-.22.009ZM13.046,20.89c-.113-.006-.188.051-.223.085s-.093.109-.089.223l.07,1.955c.004.114.067.184.104.216.038.032.117.083.231.069l6.256-.798c.154-.019.265-.151.26-.306l-.029-.807c-.006-.155-.127-.278-.281-.287l-6.298-.35h-.001Z"/>
        <path class="cls-2" d="M21.996,14.822c-.226-.011-.451-.084-.651-.223l-5.191-3.582c-.289-.2-.482-.514-.529-.862s.054-.702.279-.971l1.253-1.502c.225-.27.555-.433.906-.449.351-.016.694.118.942.367h0l4.454,4.465c.46.461.493,1.187.075,1.687l-.517.62c-.262.314-.643.47-1.022.451ZM18.134,8.187c-.011,0-.02,0-.028,0-.049.002-.142.019-.215.107l-1.253,1.501c-.073.088-.073.183-.066.231.006.049.032.14.126.205l5.191,3.582c.128.089.298.065.398-.054l.517-.62c.099-.119.092-.291-.018-.4l-4.455-4.465c-.067-.067-.144-.085-.195-.087Z"/>
      </g>
    </g>
    <g>
      <path class="cls-2" d="M29.617,22.271c.052.13.149.233.276.288.056.025.115.039.177.043.218.014.423-.11.51-.31.292-.665.188-1.192.051-1.516-.175-.414-.51-.748-.943-.937-.2-.088-.416-.141-.638-.155-.801-.052-1.479.375-1.815,1.14-.116.263.005.571.268.687.057.025.115.039.177.043.218.014.423-.111.51-.311.202-.459.536-.536.781-.521.103.007.209.032.3.072.187.083.33.22.401.389.084.198.069.43-.046.689-.055.128-.058.27-.008.399Z"/>
      <path class="cls-2" d="M32.896,25.076l-3.637-1.594c-.083-.037-.171-.059-.262-.065-.128-.008-.257.016-.373.07-.195.09-.342.258-.403.46-.413,1.343.248,2.782,1.536,3.347.297.13.61.206.932.227,1.04.067,2.018-.443,2.554-1.332.117-.196.145-.43.077-.643-.066-.21-.22-.379-.422-.469ZM30.754,26.48c-.2-.013-.395-.061-.581-.142-.696-.304-1.107-1.022-1.024-1.767l3.019,1.324c-.352.403-.873.619-1.414.584Z"/>
      <path class="cls-2" d="M35.314,23.659c.084.198.069.43-.046.69-.114.263.005.571.268.686.056.025.115.04.176.044.219.014.424-.111.511-.311.292-.664.189-1.191.052-1.514-.175-.415-.511-.748-.944-.938-.201-.088-.416-.141-.638-.155-.8-.052-1.478.375-1.815,1.14-.114.263.006.57.269.687.056.025.115.039.176.043.218.014.423-.111.51-.311.202-.459.536-.536.781-.521.103.007.209.032.3.072.187.083.33.22.401.389Z"/>
      <path class="cls-2" d="M46.883,28.242c-.277-.138-.323-.294-.344-.366-.05-.21-.006-.623.484-1.392,1.002-1.535,1.741-3.832.815-5.668-.551-1.109-2.107-2.464-4.681-2.63-.356-.023-.722-.021-1.14.025-.028-.13-.063-.259-.105-.389-.103-.318-.226-.622-.368-.909-.134-.272-.477-.361-.735-.201-.003.002-.006.004-.009.006-.225.136-.308.426-.191.662.13.262.233.522.316.771.333,1.02.412,2.178.268,3.335-.028.226.098.442.307.53l.013.005c.312.131.665-.072.707-.408.039-.307.063-.615.072-.922.411.221.929.661.899,1.127-.034.68-.336,1.348-.653,2.055-.264.567-.562,1.21-.603,1.844-.051.653.147,1.176.669,1.746.091.095.218.154.354.163.046.003.092,0,.138-.009.19-.038.35-.188.389-.37.007,0-.002,0,.006,0,.152.63.446,1.132.875,1.493.182.147.362.258.533.332.271.116.573.185.897.206.287.018.601,0,.932-.056.223-.03.396-.204.433-.431.038-.221-.069-.43-.278-.547ZM45.533,28.145c.004.014.009.03.012.044-.201-.051-.37-.135-.513-.259-.409-.331-.632-.998-.648-1.926.001-.183-.103-.358-.264-.446-.07-.039-.145-.061-.224-.066-.101-.006-.201.016-.29.066-.24.134-.448.305-.625.509-.013-.089-.016-.183-.01-.285.027-.412.238-.894.512-1.48.327-.714.696-1.523.754-2.429.07-1.397-1.557-2.23-1.979-2.27-.007-.127-.015-.255-.039-.378.292-.016.58-.017.861.001,1.991.128,3.381,1.15,3.827,2.045.724,1.446.039,3.408-.769,4.65-.566.884-.765,1.612-.607,2.222Z"/>
      <path class="cls-2" d="M40.796,24.298h-.019c-.218-.034-.426.077-.525.271-.273.528-.593,1.033-.966,1.478-.006-.204-.221-.351-.372-.321.886-2.622,1.001-6.48-1.519-8.805-.846-2.025-2.07-3.224-3.546-3.472-.17-.03-.332-.05-.484-.06-2.192-.141-3.189,1.536-3.585,2.18l-.077.148c-.16.248-.474.677-.857.682-.238-.015-.436-.219-.487-.309-.087-.14-.234-.235-.396-.246-.038-.002-.077.005-.116.012-.202.016-.384.167-.435.364-.144.46-.136.919.051,1.285-.684.664-1.322,1.503-1.859,2.416-.047-.013-.094-.025-.151-.029.405-2.729,2.441-5.517,4.816-6.598.858-.394,1.702-.579,2.56-.524,1.143.074,2.457.617,3.275,1.589.064.042.129.075.262.093.834.121,1.517.366,2.09.67.24.13.534.034.663-.196q.01-.009.011-.018c.149-.239.074-.56-.176-.691-.684-.369-1.471-.631-2.343-.763-.952-.97-2.403-1.609-3.747-1.696-1.039-.067-2.123.275-3.138.736-.128.059-.276.126-.318.19-1.247-1.592-2.915-2.57-4.602-2.679-.476-.031-.919.008-1.309.126l-.008.002c-.378.107-.496.584-.213.856l.026.025c.133.128.324.175.502.123.064-.019.123-.035.157-.045.263-.079.407-.063.76-.04.638.041,2.275.328,3.765,2.156-.1.07-.19.131-.261.194-.219-.158-.806-.406-1.445-.447-.667-.043-1.234.15-1.614.547-.635.648-.985,1.477-1.313,2.26-.226.531-.43,1.025-.716,1.313-.073.091-.143.144-.223.196.037-.275.016-.544-.044-.807-.046-.185-.17-.327-.349-.376-.038-.012-.085-.025-.132-.028-.133-.009-.271.04-.372.129-.349.317-.691.548-1.026.687-.199.082-.327.276-.322.49,0,.004,0,.009,0,.013.007.361.375.614.708.475.107-.045.215-.096.322-.155-.042.064-.066.139-.071.216-.007.114.024.222.074.33.106.141.253.236.443.249.766-.008,1.286-.214,1.748-.691.4-.424.658-1.001.942-1.7.282-.671.566-1.36,1.077-1.873.205-.216.542-.243.799-.226.267.017.511.081.651.138-1.643,1.597-2.762,3.822-2.954,5.905-.089.042-.167.075-.257.127-.459.296-.776.754-.888,1.301-.207.991.283,1.989,1.189,2.335-.028.438-.024.812.039,1.179.169.939.604,1.914,1.348,2.995.32.384.589.66.851.897l.691.561c.264.195.53.37.789.519.255.148.582.035.698-.236l.002-.006c.1-.233.013-.507-.206-.633-.77-.441-1.489-1.05-2.029-1.721-.612-.891-.988-1.738-1.154-2.591-.055-.338-.051-.692.011-1.214l.076-.588-.527.014-.009-.01-.076-.005c-.048-.003-.085-.025-.131-.047-.437-.191-.69-.724-.58-1.243.056-.274.214-.503.444-.651.179-.113.374-.167.602-.153l.065.032c.027.031.063.071.127.124l.119.084c.056.023.103.035.16.039.048.003.086-.004.203-.035.107-.022.187-.084.24-.166l.062-.073c.458-.87,1.058-1.721,1.696-2.417.269.276.589.507.971.675.307.135.664.234,1.044.278l.286.018c.991.064,2.263-.084,4.154-1.656.262-.213.709-.318,1.233-.284.353.023.72.104,1.086.223,2.059,2.046,2.018,5.507,1.071,8.03-.165.275-.013.791.508.722.145.124.248.313.292.516.039.28-.016.544-.183.763-.251.338-.666.541-1.047.516-.114-.007-.218-.033-.32-.078-.037-.022-.084-.034-.185-.098l-.367-.387-.353.436c-.363.436-.658.714-.988.931-.19.131-.254.376-.172.592.009.01.018.02.017.03.106.284.444.392.693.236.339-.217.623-.467.943-.82.195.089.412.141.641.156.743.048,1.483-.297,1.943-.908.261-.337.402-.74.377-1.105.614-.621,1.141-1.381,1.569-2.224.154-.306-.042-.682-.383-.733ZM35.683,16.477c-.8-.052-1.471.116-1.927.507-1.617,1.331-2.611,1.468-3.44,1.415l-.219-.014c-.665-.081-1.238-.395-1.524-.844-.045-.051-.08-.101-.105-.16.113.026.236.053.388.063h.019c.45.002,1.104-.205,1.712-1.18l.097-.166c.387-.664,1.042-1.77,2.614-1.669.124.008.238.025.37.052.928.155,1.708.818,2.376,2.028-.123-.018-.247-.025-.361-.033Z"/>
    </g>
  </g>
</svg>