<?xml version="1.0" encoding="UTF-8"?>
<svg id="Games" xmlns="http://www.w3.org/2000/svg" version="1.1" viewBox="0 0 55 55">
  <defs>
    <style>
      .cls-1 {
        fill: #efefef;
      }

      .cls-1, .cls-2 {
        stroke-width: 0px;
      }

      .cls-2 {
        fill: #645780;
      }
    </style>
  </defs>
  <path class="cls-1" d="M41.741,24.488c3.499-4.529,2.222-11.952-2.588-15.052-2.54-1.637-5.829-1.859-8.534-.504-1.294.648-2.513,1.482-3.904,1.881-2.993.856-4.78-1.555-7.272-2.66-4.814-2.135-12.102,3.401-10.948,8.612.53,2.393,3.768,3.537,3.989,5.978.378,4.16-5.033,8.054-6.125,12.086-.614,2.265.039,4.831,1.661,6.528,1.622,1.697,4.156,2.464,6.447,1.952,2.344-.523,5.192-3.293,7.586-3.093,3.251.272,5.046,3.828,7.72,5.697,3.011,2.105,7.467,1.818,10.183-.656,2.716-2.474,3.416-6.884,1.6-10.077-1.083-1.905-2.997-3.594-2.859-5.781.123-1.958,1.846-3.356,3.045-4.909Z"/>
  <path class="cls-2" d="M34.118,13.855l-.05-2.612c-.008-.414-.172-.649-.542-.773-.36-.121-.645-.027-.899.288l-1.612,2.064c-.028.022-.07.082-.098.167-.083.246.195.519.432.599.152.051.297-.005.437-.17l.241-.309,1.109.373.005.392c.006.202.094.348.246.399.199.067.61.068.709-.226.029-.085.023-.161.023-.193ZM33.061,11.79c.016-.016.032-.032.035-.041.006.013,0,.032.003.054l.017.734-.502-.169.447-.577ZM39.105,38.033l-.05-2.612c-.008-.414-.172-.649-.542-.773-.36-.121-.645-.027-.899.288l-1.612,2.064c-.028.022-.07.082-.098.167-.083.246.195.519.432.599.152.051.297-.005.437-.17l.241-.309,1.109.373.005.392c.006.202.094.348.246.399.199.067.61.068.709-.226.029-.085.023-.161.023-.193ZM38.049,35.968c.016-.016.032-.032.035-.041.006.013,0,.032.003.054l.017.734-.502-.169.447-.577ZM29.881,39.344c0,.459-.372.832-.832.832s-.832-.372-.832-.832.372-.832.832-.832.832.372.832.832ZM27.727,37.11c0,.459-.372.832-.832.832s-.832-.372-.832-.832.372-.832.832-.832.832.372.832.832ZM32.035,37.11c0,.459-.372.832-.832.832s-.832-.372-.832-.832.372-.832.832-.832.832.372.832.832ZM27.727,41.579c0,.459-.372.832-.832.832s-.832-.372-.832-.832.372-.832.832-.832.832.372.832.832ZM32.035,41.579c0,.459-.372.832-.832.832s-.832-.372-.832-.832.372-.832.832-.832.832.372.832.832ZM12.996,18.767c-.035,0-.07-.004-.105-.011-.284-.059-.468-.335-.41-.619.131-.641.644-1.287,1.193-1.504.271-.105.575.025.681.296.106.27-.026.574-.296.681-.173.068-.479.396-.549.736-.051.249-.27.421-.514.421ZM12.993,42.517h-.154c-.29,0-.526-.235-.526-.526h0c0-.29.235-.526.526-.526h.154c.29,0,.526.235.526.526h0c0,.29-.235.526-.526.526ZM22.988,41.99v.002c0,.29-.235.525-.525.525h-7.142c-.29,0-.526-.235-.526-.526h0c0-.29.235-.526.526-.526h7.142c.29,0,.525.235.525.525ZM22.988,36.046v.002c0,.29-.235.525-.525.525h-10.393c-.49,0-.888.397-.888.888v.552h6.419c.29,0,.525.235.525.525h0c0,.29-.235.525-.525.525h-6.23c-1.401,0-2.565,1.05-2.744,2.403h2.065c.29,0,.526.235.526.526h0c0,.29-.235.526-.526.526h-2.614c-.291,0-.527-.236-.527-.527v-.158c0-1.67,1.081-3.095,2.578-3.611v-.76c0-1.071.868-1.939,1.939-1.939h.576c.064-1.208-.122-2.042-.565-2.543-.374-.422-.58-1.013-.58-1.663v-.155c0-.937.315-1.827.886-2.506.727-.864,1.747-1.49,2.648-2.044,1.602-.981,2.491-1.593,2.151-2.723-.083-.276.074-.569.352-.654.278-.081.569.074.654.352.589,1.961-1.035,2.957-2.607,3.922-.873.534-1.775,1.088-2.392,1.823-.412.49-.639,1.14-.639,1.83v.155c0,.392.112.738.315.969.626.705.899,1.768.832,3.237h8.763c.29,0,.525.235.525.525ZM22.988,38.538h0c0,.29-.235.525-.525.525h-2.351c-.29,0-.525-.235-.525-.525h0c0-.29.235-.525.525-.525h2.351c.29,0,.525.235.525.525ZM25.511,25.045c.016.306-.227.563-.533.563h0c-.282,0-.516-.219-.531-.501-.169-3.21-1.271-6.52-3.45-8.713-.206-.206-.204-.538.002-.742.206-.206.538-.204.742.002,2.404,2.42,3.595,5.959,3.77,9.391ZM22.244,33.968s0,.006,0,.009c0,.007,0,.014,0,.022v-.03ZM14.695,11.109h0c.079.28-.09.57-.373.637-.201.048-.402.102-.602.161-.252.075-.52-.059-.618-.303v-.003c-.114-.282.04-.602.332-.687.216-.062.431-.119.647-.169.269-.063.539.097.614.363ZM17.644,18.802c.685,1.131.716,2.383.085,3.353-.643.985-1.838,1.488-3.241,1.352-.888.46-1.687,1.178-2.373,2.136-.254.354-.652.551-1.066.551-.151,0-.304-.024-.451-.079-.67-.238-1.252-.576-1.729-1.002-.676-.602-1.013-1.455-.9-2.28.134-.972.674-1.93,1.698-3.014.298-.317.475-.746.497-1.21.063-1.202.376-2.202.939-2.998l-1.827-1.97c-.105-.114-.155-.267-.138-.418.018-.153.101-.289.228-.376.415-.28.836-.536,1.261-.768.269-.147.606-.032.731.247h0c.11.248.015.54-.223.67-.223.122-.445.251-.666.388l1.339,1.444c.49-.429,1.086-.768,1.79-1.013.269-.096.573.048.668.322.096.274-.05.573-.322.668-1.76.615-2.628,1.839-2.731,3.856-.037.713-.315,1.379-.783,1.876-.854.906-1.32,1.703-1.421,2.436-.064.479.144.985.56,1.355.374.333.84.602,1.383.797.112.039.239.002.309-.098.827-1.147,1.803-2,2.904-2.535.092-.042.197-.059.296-.048,1.048.136,1.946-.186,2.388-.864.407-.624.368-1.46-.103-2.235-.149-.249-.07-.571.177-.722.252-.153.573-.07.722.177ZM27.318,32.376c-.072.219-.274.365-.501.365-.018,0-.039,0-.057-.004l-2.681-.295c-.169.319-.355.619-.554.899-.107.147-.23.379-.23.657v-.03c0,.29-.235.526-.526.526h0c-.287,0-.52-.231-.525-.517.005-.433.151-.863.424-1.245.772-1.084,1.306-2.524,1.582-4.125.043-.251.263-.433.518-.433h0c.327,0,.577.296.52.618-.166.943-.415,1.836-.743,2.647l1.898.208c2.823-9.249-.041-15.463-3.707-18.214-1.725-1.294-3.696-1.954-5.752-1.987-.255-.004-.466-.199-.495-.453h0c-.035-.306.207-.575.515-.57,2.283.035,4.477.756,6.361,2.17,4.01,3.007,7.154,9.783,3.95,19.783ZM46.909,13.98l-14.293-4.807c-.34-.115-.7-.09-1.02.068-.319.159-.558.433-.671.77l-2.089,6.211c-.104.308-.464.456-.761.287-.221-.125-.309-.401-.228-.641l2.082-6.191c.203-.604.629-1.093,1.2-1.377.571-.283,1.221-.327,1.822-.123l14.293,4.807c1.246.42,1.919,1.775,1.501,3.021l-.841,2.501c-.095.282-.405.429-.684.324h0c-.264-.1-.402-.391-.312-.659l.841-2.5c.234-.698-.142-1.457-.84-1.692ZM46.75,21.938l-.247.734c-.095.282-.405.429-.684.324h0c-.264-.1-.402-.391-.312-.659l.247-.734c.095-.282.405-.429.684-.324h0c.264.1.402.391.312.659ZM39.078,25.885c-.344.371-.765.687-1.327.995-.653.358-1.407.657-2.304.915l-.178.047c-.131.032-.259.049-.382.049-.417,0-.785-.184-1.06-.537-.249-.32-.472-.634-.672-.944-.167-.259-.071-.606.203-.748h0c.241-.125.536-.045.683.183.183.283.387.57.615.864.083.106.164.162.362.112l.141-.036c.818-.235,1.502-.506,2.086-.826.46-.252.797-.502,1.061-.787.388-.419.538-.893.46-1.448-.092-.645-.678-1.161-1.309-1.103-.294.017-.567.112-.836.293-.136.091-.375.137-.531.083-.123-.043-.286-.147-.365-.397-.024-.083-.061-.163-.118-.269-.188-.348-.438-.561-.807-.69-.127-.038-.252-.057-.373-.057-.242,0-.475.075-.693.225-.504.347-.739.825-.719,1.465.007.2.038.404.097.624.064.239-.045.49-.264.604h0c-.301.156-.665-.011-.752-.338-.079-.296-.12-.574-.13-.855-.033-.999.373-1.816,1.174-2.365.59-.406,1.291-.516,1.977-.304.006.002.012.004.017.006.608.21,1.058.583,1.372,1.14.286-.123.584-.194.891-.213,1.203-.048,2.24.812,2.409,2.004.124.876-.121,1.652-.728,2.309ZM34.211,35.986v6.742c0,.971-.787,1.758-1.758,1.758h-6.741c-.971,0-1.759-.787-1.759-1.759v-6.741c0-.971.787-1.759,1.759-1.759h.237c.29,0,.525.235.525.525h0c0,.29-.235.525-.525.525h-.237c-.391,0-.708.317-.708.708v6.741c0,.391.317.708.708.708h6.74c.391,0,.708-.317.708-.708v-6.742c0-.39-.317-.707-.707-.707h-3.969c-.29,0-.525-.235-.525-.525h0c0-.29.235-.525.525-.525h3.968c.967,0,1.759.791,1.759,1.759ZM41.235,36.742c.265.1.403.391.313.659l-.538,1.601c-.203.604-.63,1.093-1.2,1.376-.335.166-.696.25-1.06.25-.256,0-.513-.042-.762-.125l-2.53-.851c-.308-.104-.456-.464-.287-.762.125-.221.401-.309.641-.228l2.51.844c.7.239,1.458-.142,1.691-.839l.539-1.602c.095-.282.405-.429.683-.324h0ZM45.349,26.102l-2.712,8.062c-.095.282-.405.429-.683.324h0c-.265-.1-.403-.391-.313-.659l2.703-8.035c.091-.27.376-.443.65-.365.292.084.449.391.354.673Z"/>
</svg>