<?xml version="1.0" encoding="UTF-8"?>
<svg id="get_up_go" data-name="get up go" xmlns="http://www.w3.org/2000/svg" version="1.1" viewBox="0 0 55 55">
  <defs>
    <style>
      .cls-1 {
        fill: #efefef;
      }

      .cls-1, .cls-2 {
        stroke-width: 0px;
      }

      .cls-2 {
        fill: #645780;
      }
    </style>
  </defs>
  <path class="cls-1" d="M12.075,26.74c-.318,3.127.977,6.445,3.25,8.257,3.016,2.404,6.3.409,9.687,1.394,3.964,1.153,3.644,6.178,7.14,7.557,2.003.79,4.734.302,6.162-1.641.98-1.333,1.229-3.259.53-4.74-.488-1.033-1.221-1.924-1.55-3.034-.719-2.428,1.786-4.379,3.328-5.646,1.756-1.443,4.687-4.166,4.345-6.912-.588-4.728-7.001-6.532-10.508-7.155-7.781-1.383-21.232.609-22.384,11.92Z"/>
  <g>
    <path class="cls-2" d="M47.903,34.687h-4.562c-.315,0-.571-.256-.571-.571s.255-.571.571-.571h4.562c.315,0,.571.256.571.571s-.255.571-.571.571Z"/>
    <path class="cls-2" d="M11.053,34.687h-3.956c-.315,0-.571-.256-.571-.571s.255-.571.571-.571h3.956c.315,0,.571.256.571.571s-.255.571-.571.571Z"/>
    <g>
      <path class="cls-2" d="M27.5,19.314c-.315,0-.571-.255-.571-.571v-1.087c0-.315.255-.571.571-.571s.571.255.571.571v1.087c0,.315-.255.571-.571.571ZM27.5,16.054c-.315,0-.571-.255-.571-.571v-1.087c0-.315.255-.571.571-.571s.571.255.571.571v1.087c0,.315-.255.571-.571.571ZM27.5,12.793c-.315,0-.571-.255-.571-.571v-.961c0-.315.255-.571.571-.571s.571.255.571.571v.961c0,.315-.255.571-.571.571Z"/>
      <path class="cls-2" d="M35.773,22.741c-.146,0-.292-.056-.403-.167-.223-.223-.223-.584,0-.807l.769-.769c.223-.223.584-.223.807,0s.223.584,0,.807l-.769.769c-.111.111-.257.167-.403.167ZM38.078,20.436c-.146,0-.292-.056-.403-.167-.223-.223-.223-.584,0-.807l.769-.769c.223-.223.584-.223.807,0s.223.584,0,.807l-.769.769c-.111.111-.257.167-.403.167ZM40.384,18.13c-.146,0-.292-.056-.403-.167-.223-.223-.223-.584,0-.807l.68-.68c.223-.223.584-.223.807,0s.223.584,0,.807l-.68.68c-.111.111-.257.167-.403.167Z"/>
      <path class="cls-2" d="M46.683,31.015h-.962c-.315,0-.571-.256-.571-.571s.255-.571.571-.571h.962c.315,0,.571.256.571.571s-.255.571-.571.571ZM43.547,31.015h-1.087c-.315,0-.571-.256-.571-.571s.255-.571.571-.571h1.087c.315,0,.571.256.571.571s-.255.571-.571.571ZM40.286,31.015h-1.087c-.315,0-.571-.256-.571-.571s.255-.571.571-.571h1.087c.315,0,.571.256.571.571s-.255.571-.571.571Z"/>
      <g>
        <path class="cls-2" d="M8.861,31.015h-.543c-.315,0-.571-.256-.571-.571s.255-.571.571-.571h.543c.315,0,.571.256.571.571s-.255.571-.571.571Z"/>
        <path class="cls-2" d="M12.699,31.015h-1.279c-.315,0-.571-.256-.571-.571s.255-.571.571-.571h1.279c.315,0,.571.256.571.571s-.255.571-.571.571Z"/>
        <path class="cls-2" d="M15.801,31.015h-.543c-.315,0-.571-.256-.571-.571s.255-.571.571-.571h.543c.315,0,.571.256.571.571s-.255.571-.571.571Z"/>
      </g>
      <path class="cls-2" d="M19.227,22.741c-.146,0-.292-.056-.403-.167l-.769-.769c-.223-.223-.223-.584,0-.807s.584-.223.807,0l.769.769c.223.223.223.584,0,.807-.111.111-.257.167-.403.167ZM16.922,20.435c-.146,0-.292-.056-.403-.167l-.769-.769c-.223-.223-.223-.584,0-.807s.584-.223.807,0l.769.769c.223.223.223.584,0,.807-.111.111-.257.167-.403.167ZM14.616,18.13c-.146,0-.292-.056-.403-.167l-.68-.68c-.223-.223-.223-.584,0-.807s.584-.223.807,0l.68.68c.223.223.223.584,0,.807-.111.111-.257.167-.403.167Z"/>
      <path class="cls-2" d="M16.557,26.876c-.067,0-.135-.012-.202-.037l-1.017-.384c-.295-.111-.444-.441-.332-.736.112-.294.443-.442.736-.332l1.017.384c.295.111.444.441.332.736-.087.228-.304.369-.534.369ZM13.507,25.723c-.067,0-.135-.012-.202-.037l-.899-.34c-.295-.112-.443-.441-.332-.736.113-.295.443-.441.736-.332l.899.34c.295.112.443.441.332.736-.087.228-.304.368-.534.368Z"/>
      <path class="cls-2" d="M38.443,26.876c-.23,0-.447-.141-.534-.369-.111-.295.037-.624.332-.736l1.017-.384c.295-.109.624.038.736.332.111.295-.037.624-.332.736l-1.017.384c-.066.025-.135.037-.202.037ZM41.493,25.723c-.23,0-.447-.14-.534-.369-.111-.295.037-.624.332-.736l.9-.34c.293-.11.624.037.736.332.111.295-.037.624-.332.736l-.9.34c-.066.025-.134.037-.202.037Z"/>
      <path class="cls-2" d="M22.689,20.35c-.218,0-.426-.125-.521-.336l-.447-.991c-.129-.287-.002-.625.286-.755.287-.132.625-.002.755.286l.447.991c.129.287.002.625-.286.755-.076.034-.156.05-.234.05ZM21.348,17.378c-.218,0-.426-.125-.521-.336l-.395-.876c-.129-.287-.002-.625.286-.755.288-.132.626-.002.755.286l.395.876c.129.287.002.625-.286.755-.076.034-.156.05-.234.05Z"/>
      <path class="cls-2" d="M32.311,20.35c-.078,0-.158-.016-.234-.05-.287-.129-.415-.468-.286-.755l.447-.991c.129-.288.467-.417.755-.286.287.129.415.468.286.755l-.447.991c-.095.211-.303.336-.521.336ZM33.653,17.378c-.079,0-.158-.016-.234-.05-.288-.129-.415-.468-.286-.755l.395-.876c.13-.288.47-.416.755-.286.287.129.415.468.286.755l-.395.876c-.095.211-.303.336-.521.336Z"/>
      <path class="cls-2" d="M40.112,34.113c0,.315-.261.576-.576.576h-6.837c-.315,0-.576-.261-.576-.576s.261-.565.576-.565h3.185c.359-.957.576-2.011.576-3.109,0-4.935-4.022-8.946-8.956-8.946s-8.957,4.011-8.957,8.946c0,1.098.196,2.141.554,3.109h10.554c.315,0,.565.25.565.565s-.25.576-.565.576h-15.967c-.315,0-.565-.261-.565-.576s.25-.565.565-.565h4.206c-.315-.978-.489-2.022-.489-3.109,0-5.565,4.533-10.087,10.098-10.087s10.098,4.522,10.098,10.087c0,1.087-.185,2.13-.522,3.109h2.457c.315,0,.576.25.576.565Z"/>
    </g>
    <g>
      <path class="cls-2" d="M20.391,37.779h-6.422c-.299,0-.571.215-.601.512-.034.342.233.63.568.63h6.454c.315,0,.571-.256.571-.571h0c0-.315-.256-.571-.571-.571Z"/>
      <path class="cls-2" d="M41.031,37.779h-17.894c-.315,0-.571.256-.571.571h0c0,.315.256.571.571.571h17.927c.335,0,.602-.289.568-.63-.03-.297-.302-.512-.601-.512Z"/>
    </g>
  </g>
</svg>