<?xml version="1.0" encoding="UTF-8"?>
<svg id="imagination" xmlns="http://www.w3.org/2000/svg" version="1.1" viewBox="0 0 55 55">
  <defs>
    <style>
      .cls-1 {
        fill: #efefef;
      }

      .cls-1, .cls-2 {
        stroke-width: 0px;
      }

      .cls-2 {
        fill: #645780;
      }
    </style>
  </defs>
  <path class="cls-1" d="M46.999,35.27c.049-3.214-2.206-6.486-5.568-6.765-1.525-.127-3.143.341-4.548-.265-1.026-.443-1.78-1.462-1.902-2.573-.217-1.971,1.884-4.253,3.459-5.182,1.673-.987,3.57-1.718,4.836-3.191,1.01-1.175,1.516-2.769,1.369-4.312-.584-6.141-10.52-8.802-15.252-6.154-3.29,1.841-5.233,5.828-4.656,9.553.241,1.56.879,3.137.49,4.667-.787,3.094-4.807,3.687-7.605,5.227-4.546,2.501-5.733,8.125-4.558,12.821,1.32,5.274,7.745,8.948,12.774,9.837,6.06,1.071,12.34-1.217,16.813-5.32,2.377-2.18,4.299-5.117,4.348-8.342Z"/>
  <g>
    <g>
      <path class="cls-2" d="M25.576,31.793c-.204,0-.398-.12-.483-.32-.189-.446-.399-.885-.625-1.314-.136-.257-.037-.574.219-.709.254-.138.573-.037.709.219.24.455.463.921.664,1.395.113.267-.012.575-.278.688-.066.028-.137.042-.205.042Z"/>
      <path class="cls-2" d="M11.276,28.5c-.787-.028-1.599-.353-2.228-.891-.219-.187-.55-.162-.741.059-.189.221-.162.552.059.741.818.698,1.838,1.104,2.871,1.14.006,0,.014.002.02.002.28,0,.513-.225.523-.507.01-.29-.215-.534-.505-.544ZM16.489,21.267c-.229-.105-.463-.205-.696-.298-.708-.288-1.398-.505-2.049-.643-.276-.057-.562.12-.623.404-.059.284.122.562.406.623.588.126,1.219.325,1.873.59.221.087.44.183.657.28.069.032.144.047.217.047.199,0,.39-.114.477-.308.12-.264.004-.574-.262-.694Z"/>
      <path class="cls-2" d="M13.422,12.864c-.174,0-.344-.086-.443-.243-.263-.412-.544-.811-.835-1.186-.179-.229-.137-.559.092-.736s.559-.137.736.092c.312.4.611.826.892,1.266.156.244.084.569-.16.725-.087.056-.186.083-.281.083Z"/>
    </g>
    <path class="cls-2" d="M15.994,19.857c-.022.004-.045.006-.067.006-.26,0-.487-.195-.519-.461-.112-.891-.298-1.783-.554-2.652-.002-.008-.004-.016-.006-.026-.256-.854-.578-1.688-.97-2.491-.126-.26-.016-.574.243-.702.262-.124.576-.016.702.243.418.86.765,1.755,1.035,2.672.037.118.071.235.103.355.03.116.061.233.091.349.059.233.114.469.16.704.024.118.049.235.071.353.002.002.002.004.002.006.002.006.002.012.002.018.065.347.118.694.16,1.041.037.288-.168.55-.454.584Z"/>
    <path class="cls-2" d="M13.607,28.623c-.147,0-.294-.062-.397-.183-.189-.22-.165-.552.055-.74.99-.854,1.698-2.078,1.992-3.451.062-.283.347-.46.624-.403.283.062.464.341.403.624-.343,1.595-1.172,3.024-2.334,4.025-.1.086-.222.128-.343.128Z"/>
    <path class="cls-2" d="M24.073,28.451c-.091.063-.197.093-.3.093-.166,0-.329-.079-.432-.225-.916-1.315-2.016-2.511-3.248-3.544-.01-.008-.02-.017-.03-.025-.741-.618-1.529-1.176-2.354-1.665-.25-.148-.331-.471-.183-.72.146-.25.469-.331.718-.183.787.467,1.542.992,2.256,1.572.002-.002.002,0,.002,0,.018.008.034.02.051.035.743.603,1.445,1.264,2.088,1.972.02.022.039.045.055.069.004.004.008.006.006.01.542.594,1.043,1.223,1.501,1.881.166.235.108.564-.13.73Z"/>
    <path class="cls-2" d="M39.411,21.748c-.175,0-.345-.087-.444-.244-.155-.245-.083-.569.162-.725,1.412-.895,2.928-1.568,4.507-2.003.283-.075.569.088.646.366.077.28-.087.569-.366.646-1.479.407-2.9,1.039-4.224,1.878-.088.056-.185.082-.28.082Z"/>
    <path class="cls-2" d="M34.79,26.114c-.106,0-.215-.032-.308-.1-.234-.17-.288-.498-.118-.733.859-1.189,1.865-2.268,2.991-3.205.221-.187.554-.157.739.067.186.223.155.554-.067.739-1.059.882-2.004,1.896-2.812,3.014-.103.142-.264.218-.426.218Z"/>
    <path class="cls-2" d="M32.521,30.639c-.052,0-.104-.008-.157-.024-.276-.087-.431-.382-.344-.658.312-.996.727-1.972,1.229-2.897.14-.257.459-.349.712-.212.255.139.35.457.212.712-.471.867-.858,1.78-1.15,2.712-.07.225-.277.368-.501.368Z"/>
    <path class="cls-2" d="M40.61,26.043c-.206,0-.401-.123-.485-.325-.11-.268.017-.575.285-.686.812-.335,1.734-.431,2.596-.266.285.054.472.328.418.613-.054.286-.331.479-.613.418-.666-.125-1.376-.054-2,.205-.065.027-.133.04-.2.04Z"/>
    <path class="cls-2" d="M31.919,18.463c-.094,0-.188-.025-.274-.078-.247-.152-.323-.476-.172-.723.407-.66.87-1.291,1.374-1.875.189-.22.522-.245.74-.055.22.189.244.521.055.74-.468.542-.896,1.128-1.274,1.74-.1.161-.271.25-.448.25Z"/>
    <path class="cls-2" d="M29.689,23.078c-.043,0-.088-.006-.132-.018-.281-.072-.449-.359-.376-.64.26-.999.63-1.974,1.1-2.897.131-.259.447-.361.706-.229.258.131.361.447.229.706-.436.856-.778,1.76-1.02,2.685-.062.236-.274.394-.508.394Z"/>
    <path class="cls-2" d="M11.507,20.16c-1.919.163-3.67,1.551-4.359,3.452-.376,1.04-.37,2.096-.017,3.037.122.326.527.438.804.228h0c.184-.14.255-.384.174-.6-.266-.708-.264-1.503.026-2.307.553-1.523,1.942-2.634,3.46-2.763.289-.024.504-.279.479-.567-.025-.291-.305-.506-.567-.479Z"/>
    <path class="cls-2" d="M24.363,18.258c.136.079.136.275,0,.354l-.677.391h0c-.159.092-.281.235-.346.407l-.132.344-.337.882c-.059.154-.276.154-.335,0l-.337-.882-.132-.344c-.065-.171-.188-.315-.346-.407h0s-.677-.391-.677-.391c-.136-.079-.136-.275,0-.354l.677-.391h0c.159-.092.281-.235.346-.406l.132-.344.337-.882c.059-.154.276-.154.335,0l.337.882.132.344c.065.171.188.314.346.406h0s.677.392.677.392Z"/>
    <path class="cls-2" d="M45.974,27.368c-.127,0-.238-.077-.284-.195l-.364-.952c-.037-.097-.107-.18-.198-.232l-.526-.304c-.101-.058-.162-.163-.162-.28,0-.117.06-.222.162-.28l.526-.304c.09-.052.16-.135.198-.232l.364-.952c.045-.119.157-.195.284-.195s.238.077.284.195l.364.952c.037.097.107.18.197.232l.526.304c.101.059.162.163.162.28s-.06.222-.162.28l-.526.304c-.091.052-.161.135-.198.232l-.364.952c-.045.119-.157.195-.284.195Z"/>
    <path class="cls-2" d="M26.523,15.474c-.103,0-.194-.062-.231-.159l-.297-.776c-.03-.079-.087-.146-.161-.189l-.428-.247c-.082-.048-.132-.133-.132-.228,0-.095.049-.18.132-.228l.428-.248c.074-.043.131-.11.161-.189l.297-.776c.037-.097.128-.159.231-.159s.194.062.231.159l.297.775c.03.079.087.146.161.189l.429.248c.082.048.132.133.132.228s-.049.18-.132.228l-.428.247c-.074.043-.131.11-.161.189l-.297.776c-.037.097-.128.159-.231.159Z"/>
    <g>
      <path class="cls-2" d="M45.961,20.502c.07.13.09.29.04.44-.04.15-.15.27-.29.34-.08.04-.17.06-.26.06-.06,0-.12-.01-.18-.03-.3-.09-.47-.42-.38-.72.1-.31.42-.48.73-.38.15.05.27.15.34.29Z"/>
      <path class="cls-2" d="M48.065,18.249c-.19.61-.59.77-1.01.94-.49.19-.55.22-.63.47-.02.06-.05.18-.14.27-.06.05-.16.12-.31.12-.06,0-.12-.01-.19-.03-.28-.09-.42-.34-.33-.63l.03-.08c.14-.46.41-.72.93-.91.51-.18.6-.23.67-.45.04-.12.11-.34-.41-.5-.54-.17-.63.05-.74.33-.12.27-.36.37-.64.28-.14-.04-.25-.13-.31-.24-.04-.08-.08-.22-.02-.41.03-.09.19-.56.68-.82.37-.19.81-.21,1.32-.05.51.16.86.41,1.04.76.15.28.17.6.06.95Z"/>
    </g>
    <path class="cls-2" d="M9.188,9.636h-.7c-.29,0-.525-.235-.525-.525s.235-.525.525-.525h.7c.29,0,.525.235.525.525s-.235.525-.525.525Z"/>
    <path class="cls-2" d="M12.188,9.636h-.7c-.29,0-.525-.235-.525-.525s.235-.525.525-.525h.7c.29,0,.525.235.525.525s-.235.525-.525.525Z"/>
    <path class="cls-2" d="M10.338,11.486c-.29,0-.525-.235-.525-.525v-.7c0-.29.235-.525.525-.525s.525.235.525.525v.7c0,.29-.235.525-.525.525Z"/>
    <path class="cls-2" d="M10.337,6.73c.29,0,.525.235.525.525v.7c0,.29-.235.525-.525.525s-.525-.235-.525-.525v-.7c0-.29.235-.525.525-.525Z"/>
    <g>
      <g>
        <path class="cls-2" d="M39.516,13.813c-.053,0-.107-.009-.16-.025l-.381-.122c-.276-.089-.429-.384-.34-.66.088-.275.385-.428.66-.34l.381.122c.276.089.429.384.34.66-.071.223-.277.365-.5.365Z"/>
        <path class="cls-2" d="M33.776,11.984c-.053,0-.107-.009-.16-.025l-.381-.122c-.276-.089-.429-.384-.34-.66.088-.276.383-.428.66-.34l.381.122c.276.089.429.384.34.66-.071.223-.277.365-.5.365Z"/>
      </g>
      <g>
        <path class="cls-2" d="M37.31,10.157c-.053,0-.106-.008-.159-.025-.276-.088-.429-.383-.341-.659l.121-.381c.087-.276.383-.435.659-.341.276.088.429.383.341.659l-.121.381c-.07.224-.277.366-.5.366Z"/>
        <path class="cls-2" d="M35.48,15.898c-.053,0-.107-.009-.16-.025-.276-.089-.429-.384-.34-.66l.122-.381c.088-.275.384-.429.66-.34s.429.384.34.66l-.122.381c-.071.223-.277.365-.5.365Z"/>
      </g>
      <g>
        <path class="cls-2" d="M35.164,10.338c-.189,0-.373-.104-.466-.284l-.184-.354c-.134-.257-.033-.574.225-.707.256-.132.574-.034.707.225l.184.354c.134.257.033.574-.225.707-.077.04-.159.06-.241.06Z"/>
        <path class="cls-2" d="M37.93,15.691c-.189,0-.373-.104-.466-.284l-.184-.354c-.134-.257-.033-.574.225-.707.257-.132.575-.034.707.225l.184.354c.134.257.033.574-.225.707-.077.04-.159.06-.241.06Z"/>
      </g>
      <g>
        <path class="cls-2" d="M33.602,14.312c-.189,0-.373-.104-.467-.284-.133-.258-.032-.574.226-.708l.355-.184c.256-.129.574-.033.708.226.133.258.032.574-.226.708l-.355.184c-.077.039-.159.059-.241.059Z"/>
        <path class="cls-2" d="M38.954,11.546c-.189,0-.373-.104-.467-.284-.133-.258-.032-.574.226-.708l.355-.184c.256-.128.574-.033.708.226.133.258.032.574-.226.708l-.355.184c-.077.039-.159.059-.241.059Z"/>
      </g>
    </g>
    <path class="cls-2" d="M19.543,13.589c-.93,0-1.687-.757-1.687-1.687s.757-1.687,1.687-1.687,1.687.757,1.687,1.687-.757,1.687-1.687,1.687ZM19.543,11.267c-.351,0-.636.285-.636.636s.285.636.636.636.636-.285.636-.636-.285-.636-.636-.636Z"/>
    <circle class="cls-2" cx="35.165" cy="19.396" r=".498"/>
    <circle class="cls-2" cx="26.704" cy="21.843" r=".498"/>
    <circle class="cls-2" cx="38.566" cy="18.152" r=".498"/>
    <path class="cls-2" d="M27.752,26.038h0s.528-.168.528-.168l.532.17v-.002l2.861.914c.269.086.557-.057.652-.322h0c.1-.279-.051-.586-.334-.676l-3.47-1.106-.08-.03c-.11-.03-.22-.03-.32,0-.02.01-.05.02-.08.03l-2.775.886c-.277.088-.429.385-.338.661h0c.09.273.383.423.656.335l2.167-.692Z"/>
    <g>
      <path class="cls-2" d="M21.584,44.682h0c.152-.263.048-.599-.226-.73l-1.03-.494c-.246-.118-.541-.027-.677.209h0c-.152.263-.048.6.226.731l1.031.493c.245.118.54.026.676-.209Z"/>
      <path class="cls-2" d="M45.162,32.458l-3.94-3.47-.06-.06c-.05-.04-.1-.07-.15-.09-.02-.01-.03-.01-.04-.02l-4.74-1.511c-.269-.086-.558.057-.653.323h0c-.1.28.051.587.334.677l3.479,1.111-10.58,5.07v-5.755c0-.284-.23-.515-.515-.515h0c-.3,0-.545.245-.545.545v5.725s-10.58-5.07-10.58-5.07l4.178-1.335c.277-.089.429-.386.338-.662h0c-.09-.273-.383-.423-.657-.336l-5.429,1.733h-.01l-.01.01c-.02,0-.03.01-.04.02-.03,0-.05.01-.07.03-.01,0-.01.01-.02.02-.02.01-.03.02-.04.03l-.08.08-3.92,3.45c-.14.11-.2.29-.18.46.03.18.14.33.3.4l3.7,1.77v6.76c0,.2.11.38.3.47l1.115.534c.246.118.542.026.678-.21h0c.152-.263.048-.601-.227-.732l-.817-.392v-5.92l7.77,3.72c.07.04.15.06.23.06.12,0,.25-.05.34-.14l3.13-2.75v10.53l-3.169-1.52c-.245-.117-.539-.026-.675.209h0c-.151.262-.047.598.226.729l3.869,1.852.05.03c.03.02.06.03.09.03.05.01.1.02.14.02.05,0,.1-.01.14-.02.03,0,.06-.01.09-.03l.05-.03,12.47-5.97c.19-.09.3-.27.3-.47v-1.724c0-.29-.235-.525-.525-.525h0c-.29,0-.525.235-.525.525v1.394s-11.47,5.5-11.47,5.5v-10.53l3.13,2.75c.09.09.22.14.34.14.08,0,.16-.02.23-.06l1.332-.638c.26-.124.37-.436.246-.696h0c-.124-.26-.436-.37-.696-.246l-1.021.489-3.14-2.77,11.49-5.51,3.15,2.77-7.259,3.478c-.26.125-.37.436-.246.696h0c.124.26.437.371.697.246l3.218-1.541v.95c0,.29.235.525.525.525h0c.29,0,.525-.235.525-.525v-1.46s3.7-1.77,3.7-1.77c.16-.07.27-.22.3-.4.02-.17-.04-.35-.17-.46ZM24.192,38.228l-11.49-5.51,3.14-2.77,3.1,1.48,8.4,4.03-3.15,2.77Z"/>
    </g>
  </g>
</svg>