<?xml version="1.0" encoding="UTF-8"?>
<svg id="jump" xmlns="http://www.w3.org/2000/svg" version="1.1" viewBox="0 0 55 55">
  <defs>
    <style>
      .cls-1 {
        fill: #efefef;
      }

      .cls-1, .cls-2 {
        stroke-width: 0px;
      }

      .cls-2 {
        fill: #645780;
      }
    </style>
  </defs>
  <path class="cls-1" d="M46.557,24.968c-2.44-6.117-9.341-11.358-16-11.211-6.425.142-12.686,3.232-16.673,8.273-3.846,4.864-8.198,10.868-5.275,17.373,1.185,2.638,3.751,4.701,6.634,4.939,4.553.375,6.766-3.881,9.245-6.908,1.989-2.428,5.231-3.798,8.413-3.365,3.559.485,5.958,3.987,9.791,3.153,4.16-.905,5.761-7.498,3.865-12.254Z"/>
  <g>
    <g>
      <g>
        <path class="cls-2" d="M17.419,42.297s.002-.009.003-.013c.075-.324-.173-.634-.506-.634h-3.908c-.323,0-.569.293-.511.61,0,.004.002.009.002.013.045.247.259.427.51.427h3.903c.242,0,.452-.167.506-.403Z"/>
        <path class="cls-2" d="M8.857,42.7h.388c.251,0,.465-.179.51-.426,0-.004.002-.009.002-.013.059-.318-.187-.611-.51-.611h-.414c-.262,0-.497-.192-.522-.453-.028-.299.207-.551.501-.551h11.803c.262,0,.497.192.522.453.028.299-.207.551-.501.551h-.182c-.287,0-.52.233-.518.521v.018c.001.283.231.512.514.512h.141c.835,0,1.555-.641,1.596-1.475.044-.892-.669-1.63-1.551-1.63h-11.824c-.882,0-1.594.739-1.551,1.63.041.834.76,1.475,1.596,1.475Z"/>
      </g>
      <path class="cls-2" d="M46.187,33.57h-11.779c-.835,0-1.555.641-1.596,1.475-.044.892.67,1.63,1.552,1.63h1.281c.231,0,.426-.161.485-.385.002-.009.005-.017.007-.025.091-.321-.143-.641-.477-.641-.447,0-.969,0-1.275,0-.262,0-.496-.192-.521-.453-.028-.299.207-.551.501-.551h11.802c.262,0,.497.192.522.453.028.299-.207.551-.501.551h-6.654c-.333,0-.567.319-.477.639.002.009.005.018.007.026.059.224.253.385.485.385h6.594c.835,0,1.555-.641,1.596-1.475.044-.892-.67-1.63-1.552-1.63Z"/>
    </g>
    <g>
      <g>
        <path class="cls-2" d="M35.075,23.796c-.219,0-.558.061-.96.144l-2.867-1.663c-.287-.166-.601-.269-.933-.307l-3.312-.367,2.421-2.666,2.19-.555c.165-.041.327-.101.484-.18l2.301-1.153c.671-.336,1.062-1.038.98-1.793-.092-.843-.791-1.515-1.636-1.584-.323-.026-.64.038-.936.186l-2.211,1.1-1.981.495h-1.481c-1.36,0-2.659.583-3.562,1.6l-2.869,3.227c-.61.686-.898,1.605-.777,2.531.208,1.598,1.612,2.768,3.224,2.772,1.006.002,2.024.055,3.027.157l3.306.337h0c.295.164.663.031.791-.281.006-.014.012-.028.018-.041.122-.266.019-.58-.237-.722l-.208-.116-3.549-.363c-1.047-.106-2.109-.161-3.159-.163-1.022-.002-1.917-.747-2.035-1.763-.066-.57.114-1.134.49-1.557l2.869-3.227c.678-.762,1.652-1.2,2.672-1.2h1.554l2.259-.547,2.392-1.174c.421-.211.859.114.859.53,0,.223-.127.427-.333.53l-2.3,1.152c-.079.04-.16.07-.243.09l-2.539.644-3.772,4.153c-.192.211-.063.551.22.582l4.951.55c.166.019.325.07.468.154l3.064,1.778.248.104.224-.047c.201-.042.733-.155.889-.155.527,0,.888.39.914.527l-1.93,1.099c-.182.106-.386.162-.593.162-.256,0-.355-.043-.356-.043l-.191-.106c-.283-.157-.627-.037-.778.249-.004.008-.009.017-.013.025-.153.272-.06.616.213.768l.208.115c.241.124.541.184.917.184.418,0,.83-.112,1.189-.322l1.927-1.097c.368-.212.596-.616.596-1.053,0-.786-.919-1.699-2.103-1.699Z"/>
        <path class="cls-2" d="M22.281,15.454c-.162,0-.329.026-.526.085l-3.613,1.204c-.846.282-1.372,1.146-1.187,2.056.16.789.856,1.375,1.66,1.42.214.012.427-.018.653-.094l1.073-.356c.244-.081.408-.309.408-.565h0c0-.406-.398-.693-.783-.565l-1.074.356c-.22.072-.314.033-.519-.1-.16-.104-.267-.28-.264-.47.004-.25.167-.47.409-.55l3.595-1.198c.067-.02.122-.03.167-.03h4.852v-1.192h-4.852Z"/>
        <path class="cls-2" d="M22.159,33.33c-.532,0-.989-.32-1.162-.815l-.941-2.23c-.105-.246-.158-.508-.158-.777,0-.67.333-1.292.89-1.664l1.647-1.097c.131-.088.292-.119.447-.089h0c.521.104.656.785.214,1.08l-1.622,1.081c-.22.147-.371.385-.383.65-.006.123.016.241.063.352l1.006,2.318c.177,0,.718,0,.718-1.788v-.319l3.185-2.123c.17-.113.304-.278.359-.474.067-.24.025-.488-.107-.688l-.865-1.296.992-.661.865,1.297c.222.334.339.721.339,1.12,0,.676-.336,1.303-.898,1.679l-2.684,1.788c-.087,2.185-1.072,2.656-1.903,2.656Z"/>
      </g>
      <path class="cls-2" d="M28.084,16.26c-1.551,0-2.813-1.262-2.813-2.813s1.262-2.813,2.813-2.813,2.813,1.262,2.813,2.813-1.262,2.813-2.813,2.813ZM28.084,11.685c-.972,0-1.763.791-1.763,1.763s.791,1.763,1.763,1.763,1.762-.791,1.762-1.763-.79-1.763-1.762-1.763Z"/>
      <path class="cls-2" d="M9.558,25.708s.004.008.006.012c.129.247.429.347.681.226,1.898-.914,3.866-1.702,5.895-2.354.25-.08.404-.333.351-.59-.002-.007-.003-.015-.004-.022-.06-.3-.366-.485-.657-.391-2.081.668-4.099,1.478-6.045,2.416-.262.126-.362.446-.227.703Z"/>
      <path class="cls-2" d="M36.207,21.29s.002-.009.003-.013c.063-.299-.146-.586-.449-.621-.882-.103-1.771-.182-2.667-.235-.325-.019-.589.262-.546.585,0,.005.001.01.002.014.032.247.236.434.485.449.875.052,1.743.129,2.604.229.267.031.514-.145.569-.408Z"/>
      <path class="cls-2" d="M40.806,22.056s.002-.009.003-.014c.055-.278-.122-.547-.399-.608-.129-.028-.259-.056-.389-.084-.303-.064-.595.149-.624.457,0,.004,0,.009-.001.013-.025.261.149.501.406.555.129.027.258.055.387.083.282.062.562-.12.617-.404Z"/>
      <path class="cls-2" d="M15.114,26.558c.002.005.004.01.006.016.095.264.378.41.643.316,1.106-.395,2.233-.746,3.379-1.051.249-.066.411-.308.37-.562-.003-.016-.005-.032-.007-.047-.044-.295-.335-.487-.623-.411-1.178.313-2.336.673-3.474,1.078-.269.096-.393.395-.294.663Z"/>
      <path class="cls-2" d="M11.392,28.727c.137-.067.274-.133.411-.198.26-.123.381-.437.254-.696-.002-.003-.003-.006-.005-.01-.126-.262-.433-.378-.695-.253-.142.067-.285.136-.426.205-.276.134-.377.476-.215.737.004.006.008.013.012.019.137.227.426.312.665.196Z"/>
      <path class="cls-2" d="M41.883,25.381s.001-.009.002-.013c.042-.261-.121-.513-.377-.581-.718-.189-1.444-.361-2.175-.515-.309-.065-.605.157-.626.472,0,.005,0,.009,0,.014-.018.259.159.489.413.543.714.15,1.422.317,2.123.502.296.078.594-.119.641-.421Z"/>
    </g>
  </g>
</svg>