<?xml version="1.0" encoding="UTF-8"?>
<svg id="phonics" xmlns="http://www.w3.org/2000/svg" version="1.1" viewBox="0 0 55 55">
  <defs>
    <style>
      .cls-1 {
        fill: #efefef;
      }

      .cls-1, .cls-2 {
        stroke-width: 0px;
      }

      .cls-2 {
        fill: #645780;
      }
    </style>
  </defs>
  <path class="cls-1" d="M41.482,32.442c-.198-3.789-.395-7.578-.593-11.367-.122-2.338-.267-4.763-1.368-6.83-5.894-11.064-18.276,2.045-22.761,7.638-2.622,3.269-6.109,7.292-5.352,11.786.721,4.275,4.801,7.017,8.536,9.216,2.911,1.714,5.889,3.453,9.196,4.141,3.307.687,7.062.145,9.471-2.223,3.115-3.062,3.098-7.999,2.87-12.361Z"/>
  <path class="cls-2" d="M26.5,32.094h.01s-.01,0-.01,0ZM27.149,31.471c0,1.04-.26,2.03-.77,2.83-.75,1.17-1.5,1.23-2.15,1.28-.3.03-.58.05-.87.18-.26.13-.45.33-.65.55-.29.29-.6.61-1.12.77-.33.11-.66-.14-.67-.49v-.01c0-.23.15-.43.37-.5.26-.09.44-.27.66-.5.23-.24.52-.54.96-.77.48-.21.88-.25,1.23-.27.55-.05.89-.08,1.36-.8.7-1.11.8-2.71.26-4.17-.42-1.14-1.16-1.96-1.98-2.21-.21-.06-.41-.09-.62-.1-.35-.01-.7.05-1.06.19-.24.09-.51.35-.8.63-.33.31-.7.66-1.14.89-.02.01-.05.02-.07.03h-.02c-.44.19-.92.24-1.34.3-.4.05-.78.1-1,.23-.32.19-.59.42-.79.69-.16.19-.43.26-.65.14,0,0,0-.01-.01-.01-.28-.14-.38-.51-.19-.76.29-.38.67-.71,1.11-.97.4-.24.91-.3,1.4-.36.23-.03.47-.06.68-.11-.13-.44-.16-.8-.06-1.48.05-.29.31-.5.6-.44.29.04.49.31.44.6-.06.37-.06.59-.03.81.11-.1.23-.21.34-.32.36-.34.73-.69,1.17-.86.78-.29,1.57-.33,2.34-.1,1.15.34,2.12,1.38,2.66,2.84.28.74.41,1.52.41,2.27ZM15.239,26.671c-.05-.1-.06-.22-.01-.35.05-.12.14-.2.25-.24,1.28-.44,2.41.01,3.15,1.24.07.11.08.23.02.36-.05.13-.14.21-.24.26-1.3.42-2.55-.07-3.17-1.27ZM22.521,43.877,30.171,40.677c.054.532-.243.998-.664,1.041s-.806-.353-.861-.885.243-.998.664-1.041.806.353.861.885ZM36.408,40.04c.054.532-.243.998-.664,1.041s-.806-.353-.861-.885.243-.998.664-1.041.806.353.861.885ZM33.732,41.525c-.16.22-.33.39-.51.5l.05.54c.03.29-.18.55-.47.58-.04,0-.09,0-.13-.01-.23-.03-.42-.22-.44-.46l-.06-.53c-.2-.08-.41-.21-.61-.41-.13-.13-.18-.32-.13-.5s.2-.31.38-.35c.51-.1,1.01-.15,1.51-.15.19-.01.36.1.44.27.09.17.08.37-.03.52ZM40.148,16.985c-.29-.73-.7-1.38-1.21-1.95-.05-.06-.1-.12-.16-.18l-.01-.01c-.59-.6-1.3-1.1-2.1-1.44-1.59-.68-3.37-.71-4.98-.06-1.08.43-2,1.11-2.69,2-.36.44-.66.94-.89,1.47,0,.01-.02.06-.03.12-.08.25.02.53.25.65.3.14.65-.01.74-.32,0-.02,0-.03.01-.03.05-.11.1-.22.16-.33.11.24.24.47.39.71-.1.1-.21.19-.33.28-.23.17-.27.5-.1.73.08.11.19.17.3.2.15.03.31,0,.44-.1.11-.08.21-.16.31-.25.2.24.42.48.65.7-.63.94-1.09,2.01-1.38,3.19-.1-.14-.18-.28-.26-.43-.12-.25-.41-.36-.66-.25l-.02.01c-.28.12-.4.44-.26.71.69,1.33,1.81,2.38,3.2,2.98.38.16.77.29,1.16.37,1.27.29,2.6.19,3.83-.31.32-.12.63-.28.92-.45.29-.18.33-.59.09-.82l-.01-.01c-.16-.16-.42-.2-.62-.08-1.21.71-2.67.96-4.08.61-.25-1.39-.01-2.62.69-3.59.83.46,1.74.81,2.72,1.03.78.18,1.61.27,2.46.23-.07.12-.15.24-.24.35-.17.21-.15.51.04.7.1.1.24.15.37.15.15,0,.31-.07.41-.2.33-.42.61-.89.83-1.39,0-.01.01-.02.01-.03.67-1.59.7-3.36.05-4.96ZM30.328,16.755c-.17-.33-.3-.64-.37-.93v-.01c.27-.31.56-.58.89-.81-.04.66-.21,1.24-.52,1.75ZM31.898,14.395c.05-.03.11-.06.17-.08,1.04-.41,2.15-.5,3.22-.26.33.07.65.18.97.32.37.16.73.36,1.05.59-2.43.57-4.4,1.72-5.76,3.36-.21-.21-.4-.43-.58-.64.67-.9.99-2.01.93-3.29ZM30.388,23.405c.21-1.33.64-2.5,1.28-3.52.29.23.6.47.93.68-.72,1.04-1.03,2.33-.9,3.73-.49-.23-.93-.53-1.31-.89ZM33.298,19.745c-.35-.23-.68-.47-.99-.73,1.36-1.64,3.38-2.72,5.95-3.17.38.45.7.96.92,1.53.13.32.23.65.29.98-1.81-.61-4.02-.27-5.63.93-.19.14-.37.29-.54.46ZM39.218,21.275c-1.8.19-3.51-.25-4.96-.98.06-.06.13-.12.2-.17,1.48-1.09,3.54-1.33,5.1-.6-.01.59-.12,1.19-.34,1.75ZM34.332,44.695c.03.29-.18.54-.46.58-.77.09-1.55.18-2.06.21l-.2.03c-.91.07-1.7.06-2.38-.04-1.16-.18-2-.62-2.54-1.35l-.63.45c-.12.08-.25.11-.38.09-.14-.02-.27-.09-.35-.21-.17-.24-.11-.57.12-.73l.77-.55c-.07-.19-.11-.4-.14-.61l-.76.02c-.03,0-.06,0-.1-.01-.24-.04-.43-.25-.44-.5-.01-.29.22-.53.51-.54l.77-.02c.07-1.03.42-2.25,1.02-3.68-.21-.96-.18-1.84.1-2.7.12-.34.38-.61.7-.74.32-.14.69-.14,1.02,0,.78.37,1.46.97,2.07,1.82l1.69-.17c.24-.02.46.13.52.36,0,.03.01.06.02.09.08.29-.11.56-.42.6l-2.01.2c-.19.02-.38-.07-.49-.23-.56-.83-1.15-1.4-1.82-1.72-.01,0-.03-.01-.04-.01-.05-.01-.1.01-.13.02-.03.01-.09.05-.11.12-.23.7-.25,1.45-.04,2.27.03.11.02.24-.03.35-1.11,2.58-1.32,4.39-.6,5.38.6.84,1.95,1.17,4,.99l.21-.02c.53-.04,1.29-.12,2.02-.21.29-.04.56.17.59.46ZM40.392,42.915c-.1.22-.33.34-.56.31-.05-.01-.09-.02-.13-.04l-.74-.33c-.38.83-1.15,1.46-2.29,1.87-.31.11-.64-.09-.7-.41v-.01c-.04-.25.11-.49.34-.57.94-.34,1.53-.83,1.76-1.47.34-.92,0-2.24-1.02-3.93-.16-.26-.06-.6.2-.75h.01c.24-.13.54-.05.68.19.54.88.9,1.68,1.11,2.41l.78-.14c.3-.05.56.14.61.43.05.28-.14.56-.42.61l-.78.13c.02.22.01.43-.01.62l.89.39c.26.11.38.42.27.69ZM20.56,38.002c-.147-.342-.278-.759-.391-1.238l-1.055-4.499c-.219-.936-1.18-1.513-2.142-1.288l-.492.12-.335.046c-.556.069-.971.141-1.245.205-1.054.247-1.909.715-2.54,1.391-.346.371-.632.788-.857,1.247-.144.294.029.646.349.715.024.005.047.01.071.015.23.049.46-.068.565-.279.177-.354.399-.675.665-.959.482-.517,1.153-.879,1.995-1.076.248-.058.626-.121,1.139-.186l.394-.057.541-.129c.379-.089.754.127.837.481l1.055,4.499c.127.541.279,1.019.452,1.419.066.153.059.328-.019.482-.22.439-.982.435-1.169-.01-.076-.184-.249-.311-.447-.33-.201-.02-.393.072-.503.239-.175.261-.376.497-.601.703-1.155,1.059-2.243,1.135-3.335.444-.632-.399-1.079-1.143-1.329-2.211-.105-.448-.155-.884-.151-1.306.003-.251-.178-.466-.423-.519-.004,0-.007-.002-.011-.002-.331-.071-.648.176-.651.515-.004.507.055,1.028.18,1.56.318,1.354.926,2.323,1.806,2.879.887.562,1.813.735,2.752.515.641-.15,1.278-.512,1.894-1.075.062-.056.122-.115.181-.175.082-.083.209-.097.31-.039.795.462,2.026.176,2.465-.699.222-.44.238-.949.045-1.397ZM14.315,38.817c.387.309.763.415,1.147.325.412-.097.81-.39,1.219-.901.688-.864.94-1.965.692-3.021l-.373-1.59c-.06-.256-.295-.431-.556-.417-1.27.066-2.174.523-2.712,1.476-.405.719-.485,1.562-.247,2.579.173.737.445,1.243.829,1.55ZM14.677,35.22c.251-.447.606-.711,1.116-.83.034-.008.069-.016.104-.023.086-.017.171.037.191.123l.229.978c.171.731-.005,1.496-.482,2.097-.336.419-.511.502-.587.51-.113.012-.16-.026-.259-.105-.104-.082-.3-.315-.448-.949-.173-.74-.129-1.329.136-1.8ZM20.045,20.699l-.971-3.401c-.076-.268-.345-.433-.618-.38-.004,0-.007.001-.011.002-.309.06-.5.372-.414.674l.971,3.4c.07.245.303.407.557.388h.011c.339-.027.569-.357.475-.684ZM27.554,18.129c-1.145-4.009-4.629-4.378-6.537-3.059l-.297-1.038c-.288-1.007-1.167-1.488-2.188-1.196-1.013.289-1.522,1.184-1.239,2.175l.097.339c.076.267.344.434.617.38.004,0,.007-.001.011-.002.309-.061.502-.372.415-.675l-.097-.34c-.152-.531.185-.747.494-.835.441-.126.726.026.848.452l.524,1.836c.039.135.119.258.238.333.234.147.527.096.695-.097.359-.403.818-.687,1.367-.844,1.421-.406,3.281.319,4.01,2.869.74,2.592-.476,4.216-1.92,4.628-.602.172-1.147.159-1.667-.039-.11-.042-.23-.046-.342-.014-.04.011-.079.027-.116.048-.14.079-.238.215-.268.373-.051.275-.294.399-.489.454-.465.133-.761-.012-.881-.43l-.138-.482c-.071-.249-.31-.411-.567-.386h-.012c-.333.034-.556.36-.464.682l.138.484c.286,1,1.178,1.472,2.221,1.174.403-.115.728-.328.95-.613.061-.078.16-.111.257-.095.537.088,1.098.05,1.674-.115,1.946-.556,3.61-2.66,2.665-5.967ZM23.964,21.987c.32-.091,1.882-.672,1.18-3.131-.464-1.626-1.458-2.391-2.659-2.048-.938.268-1.746,1.236-1.2,3.15.702,2.458,2.355,2.121,2.679,2.029ZM22.782,17.85c.58-.166,1.024.273,1.319,1.304.28.979.121,1.632-.435,1.791-.335.096-.955.056-1.338-1.285-.202-.709-.289-1.598.454-1.81Z"/>
  <g>
    <path class="cls-2" d="M35.017,29.086c-.213.213-.426.455-.619.726-.087.135-.242.213-.406.213-.087,0-.184-.029-.271-.077-.135-.077-.223-.203-.261-.348-.029-.126,0-.261.077-.377.232-.329.494-.629.774-.9.087-.087.213-.126.339-.126.145,0,.29.068.387.184.194.232.174.523-.019.706Z"/>
    <path class="cls-2" d="M41.578,32.493c-.252.435-.658.668-1.142.668-.319,0-.658-.097-.987-.29-.9-.542-.9-1.035-.813-1.587.048-.242.029-.319.019-.329,0,0-.087-.3-.523-.552-.126-.068-.329-.194-.581-.194-.474,0-.939.397-1.403,1.171-.406.687-.542,1.239-.416,1.645.106.319.348.465.484.542.252.145.455.213.61.213.184,0,.281-.087.368-.174.281-.252.59-.503,1.035-.503.281,0,.59.097.948.31.958.571,1.035,1.432.677,2.032-.281.484-.939,1.094-1.906,1.355-.31.077-.629.116-.958.116-.126,0-.252,0-.387-.019-.639-.058-1.297-.29-1.935-.668-1.2-.706-1.955-1.732-2.177-2.961-.126-.677-.087-1.384.116-2.11.058-.223.271-.377.503-.377.087,0,.174.029.252.068.223.116.319.358.252.59-.155.571-.194,1.123-.097,1.635.165.929.755,1.703,1.684,2.255.61.358,1.21.542,1.8.542.232,0,.455-.029.677-.087.668-.174,1.103-.581,1.277-.871.048-.087.058-.155.039-.232-.039-.155-.213-.29-.348-.368-.174-.106-.31-.174-.397-.174s-.164.068-.339.232c-.155.145-.494.455-1.074.455-.358,0-.745-.116-1.152-.358-.716-.426-1.713-1.452-.435-3.619.658-1.113,1.422-1.674,2.284-1.674.377,0,.755.106,1.132.329.581.348.9.813.987,1.142.077.203.077.484.019.784q-.048.319.31.542c.174.097.319.155.435.155.165,0,.232-.106.261-.164.223-.377.416-2.177-1.519-3.319-.503-.29-1.006-.465-1.519-.513-.097-.019-.203-.019-.31-.019-.348,0-.697.058-1.026.174-.058.019-.116.029-.174.029-.155,0-.3-.068-.406-.184-.106-.135-.145-.31-.097-.474.048-.174.165-.3.329-.358.445-.155.91-.232,1.374-.232.803,0,1.597.223,2.361.677,2.429,1.442,2.429,3.842,1.887,4.751Z"/>
  </g>
</svg>