<?xml version="1.0" encoding="UTF-8"?>
<svg id="introduction" xmlns="http://www.w3.org/2000/svg" version="1.1" viewBox="0 0 55 55">
  <defs>
    <style>
      .cls-1 {
        fill: #efefef;
      }

      .cls-1, .cls-2 {
        stroke-width: 0px;
      }

      .cls-2 {
        fill: #645780;
      }
    </style>
  </defs>
  <path class="cls-1" d="M44.258,26.806c-1.597-3.895-4.113-7.47-6.779-9.926-2.72-2.506-6.188-4.267-9.846-4.864-4.298-.702-7.239.397-10.63,2.909-3.578,2.65-6.351,6.445-7.468,10.782-1.257,4.881-.501,10.37,2.528,14.399,3.203,4.26,8.493,6.468,13.731,7.452,5.755,1.082,12.352.663,16.531-3.439,4.674-4.586,4.388-11.327,1.932-17.313Z"/>
  <g>
    <path class="cls-2" d="M13.928,40.183c-1.641,0-2.976-1.335-2.976-2.976s1.336-2.976,2.976-2.976,2.977,1.335,2.977,2.976-1.336,2.976-2.977,2.976ZM13.928,35.281c-1.062,0-1.926.864-1.926,1.926s.863,1.926,1.926,1.926,1.927-.864,1.927-1.926-.864-1.926-1.927-1.926Z"/>
    <path class="cls-2" d="M23.332,40.183c-1.641,0-2.976-1.335-2.976-2.976s1.336-2.976,2.976-2.976,2.977,1.335,2.977,2.976-1.336,2.976-2.977,2.976ZM23.332,35.281c-1.062,0-1.926.864-1.926,1.926s.863,1.926,1.926,1.926,1.927-.864,1.927-1.926-.864-1.926-1.927-1.926Z"/>
    <path class="cls-2" d="M32.733,40.183c-1.641,0-2.976-1.335-2.976-2.976s1.336-2.976,2.976-2.976,2.977,1.335,2.977,2.976-1.336,2.976-2.977,2.976ZM32.733,35.281c-1.062,0-1.926.864-1.926,1.926s.863,1.926,1.926,1.926,1.927-.864,1.927-1.926-.864-1.926-1.927-1.926Z"/>
    <path class="cls-2" d="M29.265,22.229c-.103,0-.194-.062-.231-.159l-.297-.776c-.03-.079-.087-.146-.161-.189l-.428-.247c-.082-.048-.132-.133-.132-.228,0-.095.049-.18.132-.228l.428-.248c.074-.043.131-.11.161-.189l.297-.776c.037-.097.128-.159.231-.159s.194.062.231.159l.297.775c.03.079.087.146.161.189l.429.248c.082.048.132.133.132.228s-.049.18-.132.228l-.428.247c-.074.043-.131.11-.161.189l-.297.776c-.037.097-.128.159-.231.159Z"/>
    <path class="cls-2" d="M16.975,28.719c-.103,0-.194-.062-.231-.159l-.297-.776c-.03-.079-.087-.146-.161-.189l-.428-.247c-.082-.048-.132-.133-.132-.228,0-.095.049-.18.132-.228l.428-.248c.074-.043.131-.11.161-.189l.297-.776c.037-.097.128-.159.231-.159s.194.062.231.159l.297.775c.03.079.087.146.161.189l.429.248c.082.048.132.133.132.228s-.049.18-.132.228l-.428.247c-.074.043-.131.11-.161.189l-.297.776c-.037.097-.128.159-.231.159Z"/>
    <path class="cls-2" d="M14.429,19.497c-.103,0-.194-.062-.231-.159l-.297-.776c-.03-.079-.087-.146-.161-.189l-.428-.247c-.082-.048-.132-.133-.132-.228,0-.095.049-.18.132-.228l.428-.248c.074-.043.131-.11.161-.189l.297-.776c.037-.097.128-.159.231-.159s.194.062.231.159l.297.775c.03.079.087.146.161.189l.429.248c.082.048.132.133.132.228s-.049.18-.132.228l-.428.247c-.074.043-.131.11-.161.189l-.297.776c-.037.097-.128.159-.231.159Z"/>
    <path class="cls-2" d="M37.015,32.2h-7.517c-.439,0-.837-.276-.99-.687l-.189-.506c-.101-.272.037-.574.309-.675.272-.099.574.037.675.309l.188.506,7.523.004-1.565-4.221-7.522-.004.275.761c.101.272-.037.574-.309.675-.271.102-.574-.037-.676-.309l-.281-.753c-.121-.324-.075-.688.123-.972.197-.284.522-.454.868-.454h7.517c.439,0,.837.276.99.688l1.57,4.213c.121.324.075.687-.123.972-.197.284-.522.454-.868.454Z"/>
    <path class="cls-2" d="M28.824,31.343h-.953c-.528,0-.996-.317-1.192-.807l-.572-1.431c-.158-.396-.11-.844.129-1.197.239-.353.636-.564,1.063-.564h.953c.528,0,.996.317,1.193.807l.572,1.431c.158.396.11.843-.129,1.197-.239.354-.637.565-1.064.565ZM27.299,28.393c-.108,0-.168.064-.193.103-.026.038-.064.118-.024.218l.572,1.431c.035.089.121.147.217.147h.953c.108,0,.168-.065.194-.103.026-.038.064-.118.024-.218l-.572-1.431c-.035-.089-.121-.147-.217-.147h-.953Z"/>
    <path class="cls-2" d="M41.877,28.396c-.29,0-.525-.235-.525-.525v-1.57c0-.29.235-.525.525-.525s.525.235.525.525v1.57c0,.29-.235.525-.525.525Z"/>
    <path class="cls-2" d="M41.339,39.219v6.09c0,.262.179.504.437.546.329.053.613-.199.613-.518v-6.118c0-.289-.24-.515-.528-.508-.006,0-.012,0-.018,0-.279.005-.504.229-.504.508Z"/>
    <path class="cls-2" d="M42.39,34.909v-4.063c0-.262-.179-.504-.437-.546-.329-.053-.613.199-.613.518v4.089c0,.264.198.485.46.515.005,0,.009.001.014.002.307.036.577-.205.577-.515Z"/>
    <path class="cls-2" d="M41.339,36.857v.412c0,.279.225.504.505.509.006,0,.012,0,.018,0,.289.007.528-.22.528-.509v-.416c0-.304-.265-.542-.567-.505-.011.001-.022.003-.033.004-.257.028-.451.246-.451.505Z"/>
    <g>
      <path class="cls-2" d="M37.424,45.838c-.29,0-.525-.235-.525-.525v-4.977c0-.29.235-.525.525-.525s.525.235.525.525v4.977c0,.29-.235.525-.525.525Z"/>
      <g>
        <path class="cls-2" d="M37.397,45.877h-9.335c-.29,0-.525-.235-.525-.525,0-2.22,1.806-4.025,4.026-4.025h2.334c2.22,0,4.026,1.806,4.026,4.025,0,.29-.235.525-.525.525ZM28.634,44.826h8.192c-.249-1.391-1.468-2.45-2.929-2.45h-2.334c-1.461,0-2.68,1.059-2.929,2.45Z"/>
        <path class="cls-2" d="M24.499,41.326h-2.334c-2.225,0-4.035,1.815-4.026,4.043.001.283.242.508.525.508h1.646c.278,0,.486-.232.485-.511,0-.005,0-.011,0-.016.004-.283-.202-.523-.486-.523h-1.075c.249-1.391,1.468-2.45,2.929-2.45h2.334c1.461,0,2.68,1.059,2.929,2.45h-4.841c-.283,0-.489.24-.486.523,0,.005,0,.011,0,.016,0,.278.207.511.485.511h5.413c.283,0,.524-.225.525-.508.009-2.228-1.8-4.043-4.026-4.043Z"/>
        <path class="cls-2" d="M18.664,45.877h-9.335c-.29,0-.525-.235-.525-.525,0-2.22,1.806-4.025,4.026-4.025h2.334c2.22,0,4.026,1.806,4.026,4.025,0,.29-.235.525-.525.525ZM9.901,44.826h8.192c-.249-1.391-1.468-2.45-2.929-2.45h-2.334c-1.461,0-2.68,1.059-2.929,2.45Z"/>
      </g>
      <path class="cls-2" d="M25.275,31.172h-7.659c-.283,0-.488.24-.484.523,0,.006,0,.012,0,.018,0,.278.207.509.484.509h7.687c.319,0,.571-.284.518-.613-.042-.258-.284-.437-.546-.437Z"/>
      <path class="cls-2" d="M15.616,31.172h-3.953c-.29,0-.525-.235-.525-.525V13.869c0-.262-.179-.504-.437-.546-.329-.054-.614.199-.614.518v16.805c0,.87.705,1.576,1.576,1.576h3.953c.277,0,.485-.231.484-.509,0-.006,0-.012,0-.018.004-.283-.201-.523-.484-.523Z"/>
      <path class="cls-2" d="M33.373,14.367H9.563c-.29,0-.525-.235-.525-.525s.235-.525.525-.525h23.81c.29,0,.525.235.525.525s-.235.525-.525.525Z"/>
    </g>
    <g>
      <path class="cls-2" d="M31.317,24.808l-.496,1.122c-.106.24-.038.534.183.676.282.18.64.063.768-.228l.506-1.145c.121-.274-.011-.594-.291-.702h0c-.262-.101-.556.021-.67.278Z"/>
      <path class="cls-2" d="M47.238,28.492l-.028-.06-2.982-5.533c-.57-1.399-1.909-2.301-3.422-2.301h-5.797c-1.113,0-2.122.657-2.572,1.675l-.253.572c-.121.274.011.594.291.702h0c.262.101.556-.021.67-.278l.253-.572c.282-.638.914-1.05,1.611-1.05h5.746c1.084,0,2.152.609,2.497,1.636.01.03.023.059.038.087l2.981,5.53c.203.533.155,1.1-.125,1.452-.211.264-.528.372-.936.31l-5.359-.639c-.319-.038-.553-.318-.534-.639l.028-.46c.01-.165.085-.316.21-.424.126-.108.288-.159.451-.144l3.096.286c.298.031.545-.187.571-.476.026-.288-.222-.547-.509-.573l-3.062-.282c-.498-.045-.978.128-1.334.488-.293.296-.45.701-.475,1.118-.007.118-.015.257-.024.404-.053.876.587,1.642,1.458,1.746l5.341.636c.123.019.243.028.361.028.617,0,1.166-.254,1.54-.724.522-.656.625-1.62.27-2.517Z"/>
    </g>
    <path class="cls-2" d="M38.473,19.289c-1.031,0-2.016-.445-2.701-1.222-.693-.786-1.002-1.796-.87-2.844.203-1.605,1.519-2.911,3.128-3.105.15-.018.298-.027.443-.027.505,0,.993.104,1.452.309.151.067.255.2.285.364.031.167-.022.339-.143.459-.095.095-.227.15-.359.15-.068,0-.135-.014-.197-.042-.328-.145-.678-.219-1.04-.219-.16,0-.323.015-.489.045-1.041.193-1.862,1.025-2.045,2.07-.134.761.072,1.533.562,2.117.492.585,1.211.921,1.973.921.122,0,.247-.009.372-.026.998-.141,1.822-.857,2.101-1.825.105-.366.131-.74.074-1.112-.027-.175.023-.341.139-.457.133-.133.271-.159.364-.159.216,0,.457.146.503.424.053.318.062.646.025.974-.18,1.646-1.499,2.982-3.137,3.178-.148.018-.296.026-.44.026Z"/>
    <g>
      <path class="cls-2" d="M21.433,26.47h0c.101.158.277.263.464.248.209-.017.421.053.579.211.316.316.282.853-.097,1.135-.209.156-.497.185-.735.079-.304-.134-.45-.423-.44-.706.006-.174-.086-.338-.233-.432l-.018-.011c-.328-.21-.766.013-.78.402-.021.542.205,1.092.679,1.464.64.503,1.57.496,2.201-.017.833-.677.885-1.906.15-2.641-.383-.383-.901-.552-1.405-.508-.372.033-.567.462-.366.776Z"/>
      <g>
        <path class="cls-2" d="M20.878,16.261c-.141.039-.276.084-.404.133-.333.129-.42.562-.174.821h0c.143.151.363.209.557.135.094-.036.192-.068.295-.097.241-.067.396-.302.368-.551h0c-.035-.312-.34-.525-.642-.441Z"/>
        <path class="cls-2" d="M22.381,16.647h0c.009.253.201.464.452.491,2.138.231,2.317,1.824,2.317,2.338,0,1.061-.492,1.475-1.235,2.101-.966.809-1.291,1.081-1.291,1.965,0,.292,0,.623-.563.623-.56,0-.587-.264-.587-.732,0-.647.13-1.346,1.073-2.073.94-.726,1.392-1.076,1.392-1.86,0-.627-.296-1.374-1.71-1.374-1.607,0-1.749.984-1.853,1.702-.028.199-.125.427-.624.427-.219,0-.587-.072-.587-.551,0-.397.128-.951.486-1.446.139-.193.123-.457-.041-.63l-.009-.009c-.226-.238-.609-.206-.798.06-.465.656-.666,1.404-.666,2.025,0,.93.664,1.579,1.615,1.579,1.074,0,1.553-.678,1.643-1.312.1-.692.119-.818.835-.818.682,0,.682.168.682.346,0,.238-.073.337-.993,1.047-1.305,1.006-1.473,2.071-1.473,2.886,0,1.454.878,1.76,1.615,1.76.373,0,1.591-.119,1.591-1.651,0-.389,0-.404.923-1.176.789-.665,1.603-1.35,1.603-2.889,0-1.44-.861-3.1-3.229-3.36-.31-.034-.579.218-.568.53Z"/>
      </g>
    </g>
  </g>
</svg>