<?xml version="1.0" encoding="UTF-8"?>
<svg id="life_skills" data-name="life skills" xmlns="http://www.w3.org/2000/svg" version="1.1" viewBox="0 0 55 55">
  <defs>
    <style>
      .cls-1 {
        fill: #efefef;
      }

      .cls-1, .cls-2 {
        stroke-width: 0px;
      }

      .cls-2 {
        fill: #645780;
      }
    </style>
  </defs>
  <path class="cls-1" d="M23.661,33.188c-3.06,1.64-3.183,5.825-6.821,7.104-1.583.557-3.423.37-4.862-.493-2.745-1.646-4.554-6.848-4.612-9.904-.072-3.849,1.696-6.479,5.581-7.385,2.286-.533,3.89-1.536,5.221-3.427,1.097-1.558,1.618-1.415,2.407-3.129,1.758-3.82,5.281-6.886,9.456-7.924,5.613-1.395,12.01.979,15.283,5.672,2.852,4.089,3.2,9.778.922,14.177-2.332,4.505-9.175,7.142-14.094,6.087-2.851-.612-5.929-2.146-8.483-.777Z"/>
  <path class="cls-2" d="M32.1,15.61c-1.967,0-3.568-1.6-3.568-3.567s1.601-3.568,3.568-3.568,3.567,1.601,3.567,3.568-1.6,3.567-3.567,3.567ZM32.1,9.534c-1.384,0-2.51,1.126-2.51,2.51s1.126,2.509,2.51,2.509,2.509-1.125,2.509-2.509-1.125-2.51-2.509-2.51ZM39.795,20.408h-.002c-.263.137-.365.461-.229.723l.117.226c.136.263.46.365.723.229h.002c.263-.137.365-.46.229-.723l-.117-.227c-.136-.263-.46-.366-.723-.229ZM47.973,37.267h-1.25l-2.729-4.763-1.017-6.153c-.01-.05-.02-.101-.05-.151-.02-.564-.151-1.128-.373-1.631l-.94-1.869c-.136-.263-.46-.366-.723-.229h0c-.263.136-.365.46-.229.723l.924,1.839c.493,1.128.363,2.679-.725,3.343l-5.911,4.25c-.121.081-.201.211-.222.352l-.655,4.29h-1.843l.453-4.572c.03-.393.201-.755.493-1.047l3.092-3.545c.121-.131.161-.322.111-.504l-1.521-5.207.322-.473c.161-.242.101-.584-.141-.745-.252-.161-.584-.101-.745.141l-2.498,3.686-3.958,1.672c-.02-.081-.04-.151-.071-.232l-.111-.322c-.02-.071-.06-.131-.101-.191l3.635-2.357c.121-.081.212-.211.232-.363l.775-4.572c.151-.594.584-1.088,1.158-1.319l1.853-.745c.937-.383,1.994.01,2.457.906l.876,1.689c.136.263.46.365.723.229l.004-.002c.263-.136.365-.46.229-.722l-.875-1.688c-.725-1.4-2.367-2.004-3.817-1.41l-1.863.745c-.886.363-1.551,1.138-1.803,2.095l-.735,4.391-3.998,2.598c-.05.03-.101.081-.131.131-.02,0-.04.01-.06.02l-2.779,1.45-4.189-2.598c-.04-.02-.081-.04-.121-.05-.01,0-.01-.01-.02-.01-.302-.201-.644-.322-1.017-.352l-4.018-.312c-1.44-.111-2.85.554-3.696,1.742l-.027.039c-.164.24-.109.566.125.738h0c.245.181.591.122.763-.129l.023-.034c.614-.876,1.662-1.37,2.729-1.289l4.018.312c.282.02.544.151.725.373.181.222.272.504.242.796l-.705,6.385c-.03.272.151.524.423.584l4.199.856c.423.091.786.332,1.027.695.242.373.312.816.222,1.279l-.836,5.75h-1.289l.403-4.995c.03-.282-.171-.534-.453-.574l-5.841-.886c-2.971-.433-3.374-1.46-3.011-4.129l.594-4.008c.03-.232-.091-.463-.302-.564s-.463-.05-.624.121l-3.243,3.525c-.05.06-.091.131-.111.212l-1.128,3.746c-.05.151-.181.262-.342.262-.121,0-.222-.04-.292-.131-.081-.091-.111-.201-.081-.322l.806-3.807.96-1.401c.164-.24.109-.566-.125-.739h0c-.245-.18-.591-.122-.763.13l-1.018,1.486c-.04.06-.06.121-.081.191l-.836,3.917c-.091.443.02.896.312,1.239.272.332.665.514,1.078.514h.081c.614-.02,1.148-.433,1.329-1.027l1.088-3.636,1.974-2.145-.342,2.286c-.242,1.772-.151,3.142.775,4.069v.01l-.288,3.626c-.023.294.195.551.488.577h0c.297.026.558-.196.581-.493l.235-3.025c.554.262,1.249.453,2.125.584l5.348.806-.383,4.582h0l-.01.091v.081h.091s-.091,0-.091,0v-.081l.01-.091h-2.155c-.294,0-.534.24-.534.534v3.978h-2.558l1.041-7.813c.02-.141-.01-.282-.101-.403-.091-.111-.212-.181-.353-.201-.141-.02-.282.01-.393.101-.121.081-.191.211-.211.352l-1.072,7.965h-1.571l.322-4.136c.023-.294-.195-.551-.489-.576h-.005c-.297-.026-.557.195-.581.492l-.335,4.221h-.836c-.307,0-.559.267-.532.591.023.28.276.486.557.486h7.648c.302,0,.544-.242.544-.534v-3.978h8.49c.3,0,.544-.243.544-.544v-3.978h.258c.295,0,.534-.239.534-.534h0c0-.295-.239-.534-.534-.534h-.802c-.294,0-.534.24-.534.534v3.978h-2.88l.806-5.559c.151-.725.01-1.45-.383-2.054-.393-.604-1.007-1.017-1.712-1.158l-3.716-.765.655-5.891c.01-.06.01-.121.01-.181l3.082,1.913c.161.101.363.101.534.02l2.991-1.571.101.272c.071.191-.02.403-.212.493-.01.01-.03.02-.05.03l-3.152,1.893-2.14-.819c-.272-.101-.584.04-.685.322-.05.131-.04.282.02.413.06.131.171.222.302.272l2.382.91c.06.02.121.03.181.03.101,0,.191-.03.272-.081l3.353-2.004c.131-.06.242-.141.342-.232l.01-.01h.01l4.965-2.095c.091-.04.181-.101.232-.191l1.48-2.185,1.198,4.069-2.88,3.293c-.443.453-.725,1.047-.785,1.682l-.463,4.673h-.22c-.295,0-.534.239-.534.534h0c0,.295.239.534.534.534h5.631c.295,0,.534-.239.534-.534h0c0-.295-.239-.534-.534-.534h-1.393l.594-3.907,3.585-2.578.705,2.931c.02.071.05.131.091.181l2.397,3.374h-3.447c-.295,0-.534.239-.534.534h0c0,.295.239.534.534.534h8.887c.286,0,.52-.229.527-.515v-.014c.007-.296-.231-.539-.526-.539ZM43.853,37.267l-2.79-3.907-.786-3.253,1.168-.836c.332-.201.594-.443.806-.725l.695,4.23c.01.06.03.121.071.181l2.477,4.31h-1.642ZM16.453,16.104c-1.581.192-2.865,1.455-3.088,3.032-.078.55-.026,1.079.126,1.564.117.374.598.481.875.204h0c.141-.142.185-.349.127-.541-.115-.38-.143-.798-.054-1.231.205-1.007,1.032-1.803,2.046-1.964,1.702-.271,3.157,1.181,2.888,2.883-.164,1.039-.994,1.879-2.03,2.063-.451.08-.883.036-1.272-.101-.197-.069-.416-.029-.564.119h0c-.272.272-.173.74.189.87.548.198,1.158.265,1.795.16,1.534-.253,2.745-1.51,2.942-3.051.297-2.324-1.66-4.289-3.981-4.007Z"/>
</svg>