<?xml version="1.0" encoding="UTF-8"?>
<svg id="Listening" xmlns="http://www.w3.org/2000/svg" version="1.1" viewBox="0 0 55 55">
  <defs>
    <style>
      .cls-1 {
        fill: #efefef;
      }

      .cls-1, .cls-2 {
        stroke-width: 0px;
      }

      .cls-2 {
        fill: #645780;
      }
    </style>
  </defs>
  <path class="cls-1" d="M41.764,20.15c-1.579-1.898-3.694-3.291-6.204-3.62-2.639-.346-5.027.607-7.403-1.114-2.888-2.092-6.531-3.775-10.182-3.292-3.238.429-6.758,2.853-7.646,6.108-.624,2.285-.031,4.866,1.528,6.65,1.025,1.173,2.449,1.981,3.97,2.304,1.76.374,3.159.01,4.383,1.675,1.396,1.898.512,4.583-.619,6.649-1.131,2.066-2.52,4.315-1.967,6.604.801,3.318,5.577,4.326,8.363,2.354,2.786-1.971,3.744-5.722,3.592-9.132-.068-1.531-.087-3.48,1.317-4.096,1.575-.69,3.124,1.15,3.502,2.827.378,1.678.378,3.642,1.681,4.765,2.367,2.041,5.604-.67,6.849-2.7,1.762-2.873,2.379-6.492,1.744-9.79-.424-2.202-1.431-4.418-2.907-6.192Z"/>
  <g>
    <g>
      <g>
        <path class="cls-2" d="M16.532,17.991c-.297-.081-.604.1-.679.399-.335,1.332-.537,2.82-.57,4.472-.006.309.239.564.548.569.004.001.007.001.011.001.303,0,.552-.243.559-.548.031-1.566.222-2.972.539-4.225.074-.292-.102-.587-.393-.665-.005-.001-.009-.003-.014-.004Z"/>
        <path class="cls-2" d="M18.403,13.126c-.521.635-.994,1.357-1.406,2.167-.147.289-.015.646.287.765.005.002.009.004.014.006.266.107.569-.006.7-.262.374-.733.803-1.383,1.272-1.955.171-.209.146-.5-.034-.702-.004-.005-.008-.009-.012-.014-.219-.256-.606-.266-.82-.005Z"/>
        <path class="cls-2" d="M25.644,9.528h-.025c-1.541.005-3.128.431-4.582,1.303-.284.17-.366.55-.164.813.002.003.005.006.007.009.174.231.49.291.737.142,1.275-.768,2.659-1.145,4.005-1.149h.021c3.831,0,7.902,2.266,8.523,9.029.028.305.302.528.606.495l.014-.002c.303-.033.52-.304.492-.607-.684-7.454-5.301-10.033-9.635-10.033Z"/>
        <path class="cls-2" d="M19.488,42.063c.06-.252-.055-.512-.287-.627-1.452-.722-2.724-2.381-2.801-5.338-.008-.309-.251-.597-.573-.543-.309.007-.552.264-.544.573.077,2.974,1.37,5.29,3.408,6.309.321.161.714-.011.794-.361,0-.004.002-.008.003-.012Z"/>
        <path class="cls-2" d="M29.837,32.27l-.008-.008c-.257-.257-.685-.205-.879.102-.945,1.501-1.742,3.171-2.382,4.992-.943,2.686-2.785,4.061-4.534,4.424-.261.054-.432.292-.429.559,0,.004,0,.008,0,.012,0,.336.324.586.652.518,2.09-.434,4.271-2.03,5.364-5.142.614-1.749,1.382-3.347,2.288-4.782.136-.215.108-.495-.073-.675Z"/>
      </g>
      <path class="cls-2" d="M31.582,21.617c.022.302-.205.583-.507.605-.324.032-.583-.194-.605-.507-.324-3.422-1.587-5.711-3.573-6.413-1.555-.561-3.379-.032-4.761,1.371-.939.95-1.555,2.148-1.825,3.487,1.976-1.004,3.973-.982,5.56.065,1.695,1.112,2.623,3.206,2.31,5.204-.302,1.965-1.749,3.444-3.951,4.07-.874.324-1.026.864-1.209,1.501l-.022.086c.14,2.904-.896,3.951-1.544,4.318-.313.184-.659.281-1.015.281-.41,0-.831-.13-1.209-.378-.842-.561-1.652-1.868-1.414-3.876.032-.313.313-.518.626-.497.302.043.518.324.486.626-.184,1.501.356,2.44.918,2.807.205.14.615.324,1.047.076.713-.41,1.08-1.673.982-3.379-.011-.065,0-.14.022-.205l.054-.173c.194-.68.486-1.717,1.933-2.246,1.835-.518,2.958-1.652,3.196-3.185.238-1.544-.507-3.228-1.825-4.092-1.403-.928-3.185-.82-5.02.302-.022.022-.054.032-.086.043-.054,1.274.173,2.634.691,4.027.108.281-.043.605-.335.713-.065.022-.13.043-.194.043-.227,0-.432-.14-.518-.367-1.436-3.843-.864-7.6,1.544-10.03,1.695-1.727,3.962-2.354,5.927-1.652,1.403.497,3.833,2.127,4.318,7.374Z"/>
    </g>
    <path class="cls-2" d="M32.236,34.441c-.128,0-.253-.041-.354-.118-.084-.064-.151-.152-.191-.254-2.013-5.098.336-10.865,5.462-13.415.082-.041.17-.062.26-.062.224,0,.425.125.527.326.07.139.08.298.031.446-.051.149-.155.269-.295.338-3.892,1.936-6.931,6.778-4.895,11.937.058.145.055.305-.007.448-.062.144-.177.255-.323.312-.069.027-.141.041-.215.041Z"/>
    <path class="cls-2" d="M35.38,32.886c-.128,0-.253-.042-.354-.118-.084-.063-.151-.152-.191-.254-1.318-3.337.216-7.109,3.568-8.777.081-.041.169-.061.258-.061.222,0,.425.125.528.327.143.288.025.64-.265.785-2.382,1.185-4.244,4.144-2.999,7.296.058.145.055.305-.007.448s-.177.255-.323.312c-.07.027-.141.041-.215.041Z"/>
    <path class="cls-2" d="M38.398,31.532c-.127,0-.252-.042-.353-.118-.085-.064-.152-.152-.192-.254-.638-1.616.1-3.442,1.716-4.248.082-.04.17-.061.26-.061.224,0,.426.124.528.326.142.289.024.641-.264.784-.909.452-1.622,1.576-1.151,2.77.058.145.055.305-.007.448-.062.144-.177.255-.323.312-.069.027-.14.041-.215.041Z"/>
  </g>
</svg>