<?xml version="1.0" encoding="UTF-8"?>
<svg id="origami" xmlns="http://www.w3.org/2000/svg" version="1.1" viewBox="0 0 55 55">
  <defs>
    <style>
      .cls-1 {
        fill: #efefef;
      }

      .cls-1, .cls-2 {
        stroke-width: 0px;
      }

      .cls-2 {
        fill: #645780;
      }
    </style>
  </defs>
  <path class="cls-1" d="M28.244,9.92c-1.731.732-3.371,1.659-4.814,2.555-6.69,4.155-14.411,11.882-12.922,20.515.968,5.612,6.928,10.315,12.379,8.666,1.936-.586,3.84-1.881,5.804-1.398,1.797.442,2.361,1.747,3.432,3.016,1.155,1.368,2.813,2.321,4.589,2.577,2.476.357,5.105-.653,6.705-2.576,2.39-2.873,2.08-7.23-.315-9.989-2.367-2.727-9.452-4.735-8.396-9.388,1.093-4.816,9.893-5.222,6.719-11.734-2.191-4.493-9.358-3.863-13.181-2.245Z"/>
  <g>
    <path class="cls-2" d="M24.937,30.77l1.361.006c.29.001.526-.233.526-.524h0c0-.289-.233-.523-.521-.524l-1.361-.007c-.29-.001-.526.233-.526.524h0c0,.289.233.523.521.524Z"/>
    <path class="cls-2" d="M47.052,20.54l-3.802-4.534c-.014-.017-.028-.035-.045-.052-.007-.01-.014-.017-.024-.028-.01-.01-.021-.021-.035-.031-.01-.007-.017-.014-.028-.021-.017-.01-.035-.024-.056-.031-.017-.014-.035-.021-.052-.028-.003-.003-.007,0-.007,0-.031-.014-.059-.024-.09-.028-.069-.014-.139-.014-.208,0-.021.003-.045.01-.069.021-.021.007-.042.014-.062.028-.007,0-.017.007-.024.01l-.007.003-6.923,4.019c-.25.145-.335.465-.191.716h0c.145.252.466.338.717.192l5.282-3.063-6.319,11.353-3.534-5.638,2.708-1.571c.25-.145.336-.465.191-.716h0c-.145-.251-.467-.337-.718-.191l-2.737,1.589-3.691-5.885c-.059-.094-.146-.167-.246-.208L7.46,8.431c-.226-.09-.483-.017-.625.181-.142.198-.128.469.031.653l5.652,6.44-5.208.576c-.222.024-.406.184-.455.403-.052.219.042.441.229.562l4.732,3.004c.252.16.587.078.737-.181h0c.141-.244.064-.556-.173-.707l-3.47-2.204,4.451-.49,6.576,7.492-5.735-3.642c-.252-.16-.587-.078-.737.181h0c-.141.244-.064.556.173.706l7.965,5.057c.017.01.035.021.052.028l-1.25,3.496-.003.003-.038.111-.007.017-3.906,18.567c-.052.25.083.503.323.597.062.024.128.035.191.035.181,0,.354-.09.451-.253l6.374-10.658,11.506-7.634c.069-.049.128-.111.17-.184l5.763-10.363c.017.01.031.014.049.017l5.26,1.149c.038.007.076.01.115.01.181,0,.351-.094.448-.253.115-.191.097-.437-.049-.608ZM18.125,45.836l2.85-13.578,1.837,5.673c.003.014.01.028.014.038l-4.701,7.867ZM33.335,30.81l-9.652,6.409-2.09-6.464,1.191.006c.29.001.526-.233.526-.524h0c0-.289-.233-.523-.521-.525l-1.175-.006,1.229-3.413v-.003l.967-2.052c.122-.259.014-.568-.242-.694h0c-.263-.13-.582-.019-.707.247l-.646,1.371-13.089-14.915,16.876,6.895c-.017.021-.031.045-.042.069l-2.182,4.63c-.122.259-.014.568.242.694h0c.263.13.582.019.707-.247l2.1-4.456,7.482,11.936-5.855-.029c-.29-.001-.526.233-.526.524h0c0,.288.233.522.521.524l4.885.023ZM41.758,19.273l1.142-2.052,2.361,2.816-3.503-.764Z"/>
  </g>
</svg>