<?xml version="1.0" encoding="UTF-8"?>
<svg id="motor_skills" data-name="motor skills" xmlns="http://www.w3.org/2000/svg" version="1.1" viewBox="0 0 55 55">
  <defs>
    <style>
      .cls-1 {
        fill: #efefef;
      }

      .cls-1, .cls-2 {
        stroke-width: 0px;
      }

      .cls-2 {
        fill: #645780;
      }
    </style>
  </defs>
  <path class="cls-1" d="M45.366,35.923c.044-.39.067-.781.071-1.171.031-2.769-.45-6.063-1.25-8.708-3.965-13.108-20.483-21.389-32.218-12.352-3.695,2.845-5.324,8.722-2.333,12.299,2.803,3.352,8.451,3.656,10.518,7.506,1.158,2.157.794,4.767.943,7.211.149,2.444,1.279,5.27,3.685,5.722,2.403.451,4.191-1.636,5.862-2.991,2.294-1.86,3.755-2.257,6.684-1.64,2.525.532,4.589.664,6.408-1.626.957-1.205,1.457-2.71,1.631-4.249Z"/>
  <path class="cls-2" d="M19.066,43.59s0,0,0,0h0ZM33.483,43.589h0s0,0,0,0ZM26.526,33.064s0,0,0,0h0ZM26.022,33.062h0ZM26.451,32.76h-.01s.01,0,.01,0ZM20.7,40.478l.01.01c.23.12.52.05.67-.16l2.49-3.52c.15-.21.12-.51-.08-.68q0-.01-.01-.01c-.23-.21-.59-.17-.77.09l-2.49,3.51c-.18.26-.1.61.18.76ZM34.34,42.978l-7.46-10.52c-.28-.39-.93-.39-1.21,0l-.95,1.35c-.15.21-.13.49.06.67l.01.01c.23.22.6.18.78-.08l.49-.68,1.58,5.82c.06.24.3.41.55.38h.01c.32-.04.53-.35.45-.66l-1.1-4.05,5.59,7.88h-3.45l-.26-.95c-.07-.24-.28-.4-.53-.39h-.01c-.33.02-.56.34-.48.66l.19.68h-9.19l.27-.37c.18-.25.1-.6-.16-.75-.01,0-.01-.01-.01-.01-.24-.13-.53-.07-.69.15l-.61.86c-.16.23-.18.52-.05.77.12.25.38.4.66.4h14.92c.27,0,.53-.15.65-.4.13-.25.11-.54-.05-.77ZM36.924,13.919c.194.601.338,1.221.406,1.849.108,1.002.126,1.983.022,2.936-.029.264.132.512.386.59.004.001.007.002.011.003.325.099.661-.118.706-.455.033-.254.064-.516.068-.656v-.1c0-.02.01-.04.01-.06,0-.004,0-.009,0-.013.02-.351.138-.69.346-.973.72-.978,1.527-2.689,1.684-3.932.03-.29-.17-.551-.46-.59-.29-.041-.551.169-.59.459-.1.82-.559,1.96-1.059,2.81-.141-1.19-.451-2.269-.91-3.16-.131-.26-.451-.36-.7-.231-.26.141-.36.451-.231.711.101.198.212.505.311.811ZM27.93,11.731c.124.191.356.282.577.227.172-.043.349-.086.41-.101.689-.18.956-.16,1.666-.17.08,0,.16-.01.231-.03q.01.01.02,0c.18-.04.34-.11.469-.23l.131-.15.159-.179c.38-.451.741-.88,1.57-1.69.21-.2.21-.541.01-.741-.2-.21-.53-.21-.74-.01-.651.641-1.041,1.06-1.351,1.42,0,.011-.01.011-.01.021-.069.04-.13.1-.19.15-.19.18-.4.32-.659.36-.16.03-.32.04-.48.05-.46.03-.92.11-1.38.22-.042.01-.083.02-.125.031-.355.092-.516.504-.316.812.002.004.005.007.007.011ZM34.913,26.727c.015-.288.068-.564.162-.825.083-.232.009-.49-.193-.633-.022-.015-.043-.031-.065-.046-.274-.196-.665-.1-.801.208,0,.002-.002.004-.003.006-.2.43-.269.88-.25,1.351.02.389.1.779.14,1.169.041.31.08.63.05.951-.06.5-.3.869-.76,1.089-.33.15-.669.231-1.04.18-.36-.059-.651-.25-.91-.49-.6-.559-.84-1.259-.87-2.06-.01-.41.05-.82.12-1.22.07-.441.19-.87.28-1.3.131-.57.07-1.11-.22-1.62-.21-.37-.49-.69-.81-.97-.69-.59-1.49-.88-2.39-.91-.369-.02-.73.02-1.1.08-.33.05-.659.13-.979.22-.411.12-.841.18-1.251.3-1.559.42-2.91,1.22-4.07,2.35-.631.61-1.17,1.28-1.641,2.01-.179.26-.389.47-.659.62-.28.16-.57.26-.851.251-.15,0-.24,0-.34-.02-.3-.05-.54-.18-.71-.431-.1-.14-.13-.299-.12-.479.02-.19.1-.36.19-.531.51-.879,1.02-1.759,1.569-2.61.46-.699.97-1.359,1.551-1.96.259-.27.54-.53.84-.78.21-.169.41-.34.62-.5.641-.359,1.37-.869,2.13-1.4,1.251-.879,2.67-1.869,3.93-2.379.27-.1.4-.41.3-.68-.11-.27-.42-.4-.689-.29-1.38.551-2.851,1.58-4.141,2.49-.44.3-.859.59-1.25.85-.07-.05-.09-.11-.05-.21.1-.32.221-.62.431-.869.31-.39.659-.731,1.02-1.06.79-.7,1.669-1.26,2.64-1.659.07-.031.13-.05.19-.1.05-.041.09-.09.08-.16-.01-.08-.06-.13-.131-.15-.04-.02-.089-.03-.13-.04-.069-.04-.12-.12-.1-.18.02-.05.06-.08.1-.11.4-.359.81-.7,1.241-1.01.015-.011.031-.023.046-.034.237-.172.301-.498.143-.744l-.006-.009c-.165-.257-.509-.333-.763-.165-.585.387-1.135.821-1.651,1.303-.479.45-.91.95-1.3,1.5-.14.2-.32.369-.53.52-.53.359-1,.8-1.4,1.32-.52.669-.89,1.42-1.03,2.26-.01.07-.02.141-.03.2-.021.22-.131.39-.27.541-.33.33-.69.63-1.02.95-.66.64-1.26,1.32-1.76,2.08-.6.92-1.14,1.869-1.63,2.85-.14.28-.23.58-.24.9-.02.59.22,1.06.69,1.41.45.33.969.47,1.52.48.51,0,.99-.141,1.43-.38.15-.08.29-.16.44-.23.21-.1.351-.06.5.12.09.11.121.259.16.4.14.47.4.84.87,1.04.43.19.869.21,1.32.06.52-.18.9-.53,1.19-.99.189-.29.289-.62.379-.95.11-.411.331-.751.66-1.031.37-.3.7-.63.95-1.04.19-.32.37-.65.52-1,.17-.38.3-.78.421-1.18.1-.29.3-.479.6-.55.55-.11,1.11-.18,1.669-.08.51.09.98.28,1.37.64.469.431.64.96.55,1.58-.04.251-.13.48-.21.72-.2.68-.3,1.36-.25,2.07.03.59.159,1.15.359,1.7.18.48.431.92.841,1.25.72.58,1.54.78,2.46.63.51-.089.98-.31,1.36-.679.31-.28.53-.61.65-1.01.17-.551.151-1.11.05-1.68-.07-.4-.141-.8-.121-1.21ZM22.183,26.147c-.03.46-.08.92-.23,1.36-.131.369-.37.659-.69.89-.351.24-.651.179-.91-.16-.18-.23-.27-.5-.321-.79-.089-.57-.04-1.12.16-1.67.05-.159.14-.299.26-.42.45-.459.94-.869,1.469-1.22.141-.09.29,0,.29.16.01.18.01.35.01.53,0,.44-.01.88-.04,1.32ZM24.113,24.107c-.11.38-.31.71-.57,1-.069.069-.179.04-.23-.07-.03-.07-.01-.14-.02-.23.04-.33,0-.68-.01-1.03-.01-.17.09-.321.25-.39.141-.05.27-.1.41-.151.141-.05.3.07.3.22-.01.221-.059.441-.13.651ZM35.995,23.78c.248.183.595.128.774-.123.466-.656.685-.965.939-1.742.004-.011.011-.034.022-.064.103-.298-.06-.623-.361-.718-.004-.001-.007-.002-.011-.003-.279-.088-.576.054-.687.324-.153.37-.336.725-.558,1.063-.099.154-.202.303-.309.45-.176.24-.125.577.114.755.026.019.052.039.078.058Z"/>
</svg>