<?xml version="1.0" encoding="UTF-8"?>
<svg id="Sing" xmlns="http://www.w3.org/2000/svg" version="1.1" viewBox="0 0 55 55">
  <defs>
    <style>
      .cls-1 {
        fill: #efefef;
      }

      .cls-1, .cls-2 {
        stroke-width: 0px;
      }

      .cls-2 {
        fill: #645780;
      }
    </style>
  </defs>
  <path class="cls-1" d="M12.603,22.537c.348-.276.715-.512,1.1-.7,2.48-1.203,5.75-.534,7.589-3.056,1.473-2.02.739-4.796,2.139-6.824,1.476-2.138,4.706-2.805,7.084-2.075,3.298,1.012,4.209,3.98,4.924,6.995.534,2.252,1.608,4.186,2.863,6.104,1.334,2.039,3.27,3.674,4.216,5.995.848,2.082.789,4.696-.741,6.344-2.142,2.307-5.454,1.635-8.172,2.558-2.861.972-3.699,3.948-5.948,5.675-2.984,2.291-7.379,2.379-10.656.674-4.892-2.545-8.991-9.565-8.052-15.102.382-2.253,1.707-5.041,3.656-6.589Z"/>
  <path class="cls-2" d="M8.637,36.002c-.1,0-.247-.025-.381-.144-1.121-.993-1.625-2.269-1.541-3.902l-.049-1.014c-.015-.332.244-.615.575-.631.347.012.617.248.631.574l.049,1.073c-.066,1.296.281,2.227,1.124,2.988.226.204.265.544.092.791-.114.165-.301.264-.501.264h0Z"/>
  <path class="cls-2" d="M32.262,23.535c-.94.55-1.35.71-2.44.95-.15.03-.26.16-.26.31v1.87c0,1.11-.75,1.71-1.48,1.72l-4.59.05c-.09,0-.17.03-.23.1-.06.06-.09.15-.09.23l.02.38c0,.09.05.18.12.24,1.02.77,2.3,1.58,4.16,2.6.14.08.25.21.29.36.25.88-.14,1.73-1.14,2.48-.18.14-.31.39-.32.66-.11,2.04-.78,3.46-1.99,4.23-.68.43-1.5.64-2.49.64-1.11,0-2.46-.28-4.02-.84-.01.01-.02.01-.04.02-1.46.53-2.99,1.46-3.3,4.34-.04.3-.29.54-.6.54l-.06-.01c-.17-.02-.31-.09-.41-.22-.1-.13-.15-.28-.13-.44.3-2.73,1.6-4.06,2.89-4.8l-5.11-1.52c-.25-.09-.38-.26-.43-.47-.04-.21.02-.41.18-.56.13-.13.28-.19.44-.19.06,0,.12.01.18.03l5.81,1.77c1.86.76,3.42,1.15,4.6,1.15.74,0,1.37-.16,1.85-.46.85-.55,1.33-1.65,1.42-3.27.04-.64.33-1.21.81-1.56.31-.24.52-.45.63-.66.08-.15.03-.34-.13-.43-1.84-1.04-3.13-1.87-4.18-2.71-.13-.11-.22-.27-.22-.45l-.08-1.75c0-.16.06-.32.17-.44.11-.12.27-.19.43-.19l5.51-.06c.09,0,.19-.05.25-.13.06-.07.08-.17.06-.27.01,0,.01-.05.01-.11v-2.08c0-.61.43-1.12,1.04-1.24,1.17-.25,1.44-.37,2.26-.85.56-.33.97-1.02.69-1.53l-4.08-6.74c-.05-.08-.08-.17-.09-.26l-.18-2.38c-.02-.33.22-.62.56-.65.36,0,.62.24.65.56l.16,2.16c0,.05.02.09.05.14l3.97,6.57c.65,1.19-.05,2.55-1.12,3.17Z"/>
  <g>
    <path class="cls-2" d="M39.372,20.535c-.03,0-.06-.01-.09-.01-.28,0-.51.2-.56.47l-.25,1.63c-.04-.02-.09-.04-.14-.06-.47-.21-1.04-.25-1.61-.13-.56.12-1.07.39-1.42.78-.39.42-.55.95-.44,1.45.1.5.47.92,1,1.15.18.08.37.13.58.17.33.05.68.04,1.03-.04.93-.19,1.61-.78,1.81-1.47.03-.06.05-.12.06-.19l.5-3.11c.04-.31-.17-.59-.47-.64ZM37.242,24.845c-.34.07-.68.05-.93-.06-.12-.05-.31-.16-.35-.35-.04-.19.09-.37.17-.47.19-.2.49-.36.83-.43.21-.05.43-.06.62-.02.11.01.21.04.3.08.12.05.31.16.35.35.07.31-.34.77-.99.9Z"/>
    <path class="cls-2" d="M42.202,19.535l-.14.84c-.05.31-.34.52-.64.47-.31-.05-.52-.33-.47-.64l.07-.43c-.36-.2-.63-.47-.84-.79l-.03.19c-.05.28-.28.48-.55.48-.03,0-.06-.01-.09-.01-.31-.05-.52-.34-.47-.64l.3-1.87c-.03-.25.11-.49.35-.59.29-.11.62.04.73.33.52,1.34.74,1.8,1.41,2.04.26.09.41.35.37.62Z"/>
    <path class="cls-2" d="M32.512,29.697c-.208-.033-.389-.183-.452-.399-.087-.298.084-.609.382-.697l3.333-.971c.298-.088.611.084.697.383.087.298-.084.609-.382.697l-3.333.971c-.082.024-.166.029-.245.016Z"/>
    <path class="cls-2" d="M34.373,32.332l-1.93-.306c-.307-.049-.516-.337-.467-.644s.337-.516.643-.468l1.93.306c.307.049.516.337.467.644s-.337.516-.643.468Z"/>
    <g>
      <path class="cls-2" d="M32.853,34.766c.167-.256.099-.6-.154-.772l-.943-.643c-.257-.175-.607-.109-.781.148-.175.256-.109.606.148.781l.943.643c.26.177.615.106.787-.157h0Z"/>
      <path class="cls-2" d="M34.624,35.306l-.253-.172c-.26-.177-.615-.106-.787.157h0c-.167.256-.099.6.154.772l.253.172c.071.048.149.079.228.091.208.033.427-.053.553-.24.175-.256.109-.606-.148-.781Z"/>
    </g>
    <g>
      <path class="cls-2" d="M43.871,24.177l-.01.002c-.302.075-.486.38-.41.682h0c.075.301.38.484.681.41l.01-.002c.302-.075.486-.38.41-.682h0c-.075-.301-.38-.484-.681-.41Z"/>
      <g>
        <path class="cls-2" d="M47.085,28.13h0c.306.049.594-.16.643-.467l.598-3.77c.023-.144-.001-.295-.083-.416-.137-.202-.379-.293-.605-.234l-1.841.456c-.285.071-.488.342-.445.633.05.333.373.544.692.465l1.041-.258-.171,1.075-4.901,1.215.171-1.075.022-.005c.285-.071.488-.342.445-.633-.05-.333-.373-.544-.692-.465l-.408.101c-.218.053-.384.234-.42.458l-.927,5.845c-.496-.267-1.124-.34-1.754-.205-.566.12-1.069.397-1.417.78-.391.427-.553.958-.448,1.455.149.702.774,1.188,1.573,1.315.325.052.679.044,1.041-.032,1.022-.219,1.754-.911,1.878-1.692.006-.036.01-.071.013-.107.016-.037.027-.078.033-.119l.7-4.416,4.901-1.215-.106.668c-.049.306.16.594.467.643ZM38.963,33.267c-.65.139-1.212-.106-1.279-.415-.041-.189.094-.372.179-.465.188-.205.487-.366.82-.437.214-.045.432-.052.627-.021.164.026.313.079.433.157.085.055.192.148.219.281h.001c.066.31-.347.761-1,.9Z"/>
        <path class="cls-2" d="M46.944,29.018c-.306-.049-.594.16-.643.467l-.033.208c-.06-.034-.122-.063-.185-.092-.473-.21-1.046-.257-1.611-.135-1.255.267-2.074,1.25-1.865,2.235.105.498.471.916,1.003,1.148.18.08.374.134.577.167.33.052.683.042,1.034-.033,1.001-.211,1.725-.88,1.87-1.642v-.004c.046-.065.076-.137.089-.22l.231-1.456c.049-.306-.16-.594-.467-.643h0ZM44.985,31.883c-.333.07-.669.047-.928-.065-.113-.049-.31-.161-.351-.35-.065-.312.348-.762.999-.901.214-.045.431-.052.625-.021.109.017.211.046.302.086.114.049.312.161.351.352.067.311-.346.763-.999.9Z"/>
      </g>
    </g>
  </g>
</svg>