<?xml version="1.0" encoding="UTF-8"?>
<svg id="snack" xmlns="http://www.w3.org/2000/svg" version="1.1" viewBox="0 0 55 55">
  <defs>
    <style>
      .cls-1 {
        fill: #efefef;
      }

      .cls-1, .cls-2 {
        stroke-width: 0px;
      }

      .cls-2 {
        fill: #645780;
      }
    </style>
  </defs>
  <path class="cls-1" d="M43.445,28.155c-1.426-1.441-3.399-2.082-4.781-3.564-1.503-1.612-2.391-3.738-3.103-5.792-1.259-3.633-3.053-9.664-7.205-10.971-3.198-1.007-6.849.262-9.149,2.701-2.3,2.439-3.353,5.868-3.4,9.221-.03,2.108.303,4.261-.236,6.3-.949,3.59-3.959,6.175-4.959,9.797-.838,3.033-.107,6.505,2.005,8.859,3.621,4.035,11.56,4.468,13.868-1.218.642-1.581,1.099-3.347,2.386-4.467.884-.77,2.108-1.135,3.27-.975,2.225.306,3.289,2.196,5.755,2.274,2.895.092,5.784-1.505,6.98-4.19,1.163-2.611.587-5.932-1.431-7.972Z"/>
  <path class="cls-2" d="M46.262,35.945c-.41-.53-.38-.95-.34-1.52.04-.62.1-1.4-.57-2.26-.68-.87-1.45-1-2.06-1.11-.57-.1-.97-.17-1.39-.7-.18-.24-.53-.29-.76-.1-.02.01-.04.03-.06.05-.15.09-.26.24-.27.43l-.16,2.3c-.37-.16-.76-.27-1.16-.32-1.08-.14-2.14.16-2.99.82-.74.58-1.23,1.37-1.44,2.22v.01c0,.01-.01.03-.01.05-.07.31-.11.62-.11.94,0,.23.02.45.06.68l-2.26-.4c-.18-.04-.36.03-.48.15h-.01c-.02.01-.04.03-.06.04-.24.19-.28.53-.1.77.42.54.39.95.35,1.52-.05.62-.1,1.4.57,2.26.67.87,1.44,1.01,2.06,1.11.56.1.97.17,1.38.71.12.15.31.22.49.2.1,0,.2-.04.28-.11h.01v-.01c.13-.09.21-.22.23-.39l.27-2.71c.25.08.5.14.76.17.31.04.61.04.91.01.38-.04.75-.13,1.09-.27.35-.14.68-.33.99-.56.85-.67,1.39-1.62,1.53-2.7.03-.26.04-.52.02-.77l2.69.39c.05.01.09.01.14,0,.11-.01.21-.05.29-.12q.01,0,.01-.01h.01c.24-.19.28-.53.09-.77ZM43.432,34.305c.24-.18.28-.53.1-.76-.19-.24-.53-.28-.77-.1l-.74.6c-.1-.12-.21-.23-.33-.33l.14-1.99c.44.26.88.34,1.27.41.56.09.97.17,1.38.7.42.53.39.95.35,1.52-.03.37-.06.8.06,1.26l-2.11-.3c-.04-.13-.09-.24-.15-.36l.8-.65ZM36.472,42.185c-.42-.23-.84-.31-1.21-.37-.57-.1-.97-.17-1.39-.71-.41-.53-.39-.94-.34-1.51.02-.39.06-.84-.08-1.33l1.96.35c.07.14.16.28.25.42l-.74.57c-.24.19-.28.53-.09.77.12.15.3.22.48.2.1-.01.2-.04.29-.11l.8-.62c.09.08.19.15.29.22l-.22,2.12ZM40.812,39.065c-.63.48-1.4.69-2.18.6-.79-.1-1.49-.5-1.97-1.12-.52-.66-.71-1.48-.59-2.26.98-.42,2-.41,2.9.04.99.49,1.68,1.45,1.89,2.61,0,.03.01.05.02.07-.03.02-.05.04-.07.06ZM41.922,37.095c-.03.28-.11.55-.21.8-.42-1.12-1.21-2.03-2.25-2.55-.88-.44-1.87-.56-2.85-.36.15-.22.34-.42.56-.59.45-.34.97-.55,1.52-.61.22-.02.44-.02.66.01.79.1,1.49.49,1.97,1.12.49.62.7,1.39.6,2.18Z"/>
  <path class="cls-2" d="M20.332,15.473c-.153.025-.281.102-.383.204-.102.128-.153.256-.128.409.026.281.281.511.562.511h.051c.306-.051.536-.307.511-.613-.051-.281-.281-.511-.613-.511Z"/>
  <path class="cls-2" d="M17.212,32.155l-.48,3.59c-.03.25-.16.37-.27.43l-.05.03c-.16.07-.33.07-.48-.01-.16-.08-.27-.22-.3-.4l-.27-1.46-.71.32c-.28.13-.49.03-.59-.04-.09-.07-.25-.24-.22-.55l.48-3.6c.03-.2.12-.34.27-.43l.01-.01c.21-.09.38-.09.53-.01.15.08.26.22.3.4l.27,1.46.7-.32c.29-.13.5-.03.6.05.1.07.25.24.21.55Z"/>
  <path class="cls-2" d="M23.622,38.625c-.03-.09-.08-.17-.16-.23l-1.63-1.42-5.06-11.06-.01-2.16c0-.1-.03-.19-.08-.27-.05-.16-.19-.3-.37-.35l-1.41-.35c-.25-.07-.51.05-.62.28l-.45.9-.98-.25c-.25-.06-.51.06-.62.29l-.45.9-.97-.25c-.25-.06-.51.06-.63.29l-.45.9-.98-.25c-.25-.06-.51.06-.62.29l-.66,1.3c-.08.17-.07.36.02.52.03.08.08.16.16.23l1.63,1.41,3.31,7.24c.13.28.46.39.73.26,0,0,.01,0,.01-.01.26-.12.38-.44.25-.71l-3.13-6.85,5.5-2.52,4.66,10.17-5.51,2.52-.37-.81c-.13-.28-.45-.39-.73-.26h-.01c-.26.13-.37.45-.25.72l.6,1.31.01,2.17c0,.09.03.18.07.26.06.17.2.31.39.35l1.41.36c.04.01.08.02.12.02.2,0,.4-.11.5-.31l.45-.9.98.25c.25.06.51-.06.63-.29l.45-.9.97.25c.25.06.51-.06.62-.29l.45-.9.98.25c.25.07.51-.05.62-.28l.65-1.3c.08-.17.07-.36-.02-.52ZM15.672,25.685l-5.85,2.68-1.2-1.03.29-.57.98.25c.25.06.51-.06.62-.29l.45-.9.98.25c.25.06.51-.06.63-.29l.44-.9.98.25c.25.06.51-.05.62-.28l.45-.91.61.16v1.58ZM22.212,39.555l-.98-.25c-.25-.06-.51.06-.62.29l-.45.9-.97-.25c-.25-.06-.51.06-.62.29l-.46.9-.97-.25c-.25-.06-.51.06-.63.28l-.45.91-.62-.15v-1.73l5.75-2.63,1.3,1.13-.28.56Z"/>
  <path class="cls-2" d="M31.182,36.765c.03.34-.24.62-.58.6-.09,0-.18-.01-.27-.02-.85-.1-1.26-.35-1.63-.58-.33-.2-.59-.36-1.19-.43-.6-.07-.89.03-1.25.15-.41.14-.88.3-1.73.2-.49-.06-1.07-.27-1.45-.45-.22-.1-.35-.33-.32-.58.06-.42.45-.6.82-.41.05.02.09.04.11.06.33.2.36.22.97.29.6.07.89-.03,1.25-.15.41-.13.88-.29,1.72-.19.85.09,1.27.35,1.64.58.32.2.58.36,1.18.43.08,0,.15.01.22.01.27.02.48.23.51.49Z"/>
  <path class="cls-2" d="M39.252,10.665c-.84-.1-1.31.06-1.72.2-.36.12-.65.21-1.25.14-.6-.07-.86-.22-1.19-.42-.37-.23-.79-.49-1.63-.59-.84-.09-1.31.06-1.72.2-.37.12-.65.22-1.26.15-.6-.07-.86-.23-1.18-.43-.37-.22-.79-.48-1.64-.58-.84-.1-1.31.06-1.72.2-.36.12-.65.22-1.26.15-.6-.07-.86-.23-1.18-.43-.37-.23-.79-.49-1.64-.58-.27-.04-.52.14-.59.4,0,.01-.01.03-.01.04,0,.02,0,.03-.01.05l-.35,3.06v.12c-.2.59-.39,1.17-.56,1.76-.1.31.11.64.43.69h.01c.27.04.52-.12.6-.38.14-.44.27-.87.42-1.3l11.62,1.33-7.27,5.77c-2.07-.62-3.53.87-3.59,2.68-.01.06-.01.12,0,.18l-3.13,2.48c.11-2.49.45-5,1.01-7.53.06-.29-.13-.58-.42-.64q-.01,0-.02-.01c-.28-.05-.57.13-.63.41-.65,2.97-1.01,5.92-1.06,8.83v.01c-.01.05-.02.11-.01.17v.01c0,.3.23.56.52.57.26.01.48-.15.55-.38l3.42-2.72c.69,1.88,2.77,3.47,5.22,2.6.17-.06.31-.05.47.05.07.05.14.09.21.13l-6.47,5.15-.7-.08c-.35-.04-.64.25-.61.59.02.13.07.24.16.33.08.09.2.15.33.16l12.35,1.41c.34.04.64-.25.6-.59-.01-.13-.07-.24-.15-.33-.09-.09-.2-.15-.33-.16l-10.12-1.16,6.08-4.83c.2.05.4.08.6.09,2.53.29,4.66-1.1,5.22-3.44.11-.45.13-.89.04-1.31l2.83-2.24c-.08,3.52-.56,6.94-1.44,10.2-.1.37.2.73.58.69.23-.03.42-.18.47-.4,1-3.7,1.49-7.57,1.49-11.57v-.13c-.01-1.64-.1-3.3-.27-4.98.01-.03.02-.07.03-.11l.35-3.06v-.02c.03-.3-.18-.57-.48-.6ZM38.332,13.905l-16.31-1.87.25-2.17c.26.08.45.19.65.32.37.23.79.48,1.64.58.84.1,1.31-.06,1.73-.2.36-.12.65-.21,1.25-.14.6.06.86.22,1.19.42.37.23.78.49,1.63.59.85.09,1.31-.06,1.72-.2.37-.12.65-.22,1.26-.15.6.07.86.23,1.18.43.37.22.79.48,1.63.58.34.04.61.04.84.01.37-.03.64-.12.89-.21.23-.08.43-.14.7-.16l-.25,2.17ZM27.372,25.635c-.11.2-.34.22-.45.24-.1.01-.19.01-.28.01-.58,0-1.11-.19-1.6-.57-.665-.515-1.166-1.266-1.241-2.116-.055-.622.216-1.396.787-1.713.193-.107.414-.161.634-.161.07,0,.13,0,.2.01.879.117,1.175,1.145,1.36,1.871.02.08.04.16.06.239l.14.55c.1.41.19.8.37,1.16.03.07.13.28.02.48ZM34.472,23.785c-.17,1.03-.77,1.8-1.79,2.3-.49.24-1.05.37-1.61.37-.95,0-1.82-.36-2.39-.97-.32-.34-.54-.77-.69-1.3-.066-.233-.123-.468-.18-.703-.049-.203-.155-.454-.072-.66.042-.104.142-.216.249-.255.032-.011.065-.017.099-.017.091,0,.177.038.261.073.36.147.756.264,1.142.312.16.02.31.03.47.03.55,0,1.09-.15,1.68-.47.3-.16.62-.34.99-.43.17-.05.35-.07.51-.07.38,0,.71.13.95.37.27.27.41.68.4,1.16,0,.06,0,.12-.02.26ZM35.252,21.845c-.12-.15-.25-.3-.4-.45-.75-.71-1.67-.77-2.64-.5-.46.13-.87.36-1.29.58-.52.27-1.06.34-1.64.16-.47-.15-.89-.36-1.32-.59-.22-.11-.44-.23-.66-.35l7.65-6.08,3.36.39c.13,1.43.21,2.84.21,4.24l-3.27,2.6Z"/>
  <path class="cls-2" d="M14.342,18.289c.143.083.143.29,0,.373l-.714.412h0c-.167.097-.296.248-.365.429l-.139.363-.356.93c-.062.162-.291.162-.353,0l-.356-.93-.139-.363c-.069-.181-.198-.332-.365-.429h0s-.714-.412-.714-.412c-.143-.083-.144-.29,0-.373l.714-.413h0c.167-.097.296-.248.365-.429l.139-.363.356-.93c.062-.162.291-.162.353,0l.356.93.139.363c.069.18.198.332.365.428h0s.714.413.714.413Z"/>
  <path class="cls-2" d="M42.574,25.321c-.109,0-.205-.066-.244-.168l-.313-.818c-.032-.084-.092-.154-.17-.199l-.451-.261c-.087-.05-.139-.14-.139-.24,0-.1.052-.19.139-.24l.451-.261c.078-.045.138-.116.17-.199l.313-.818c.039-.102.135-.168.244-.168s.205.066.244.168l.313.818c.032.084.092.154.17.199l.452.261c.087.05.139.14.139.241s-.052.19-.139.24l-.451.261c-.078.045-.138.116-.17.199l-.313.818c-.039.102-.135.168-.244.168Z"/>
  <circle class="cls-2" cx="44.808" cy="19.792" r=".525"/>
</svg>