<?xml version="1.0" encoding="UTF-8"?>
<svg id="stand_Show_and_Speak" data-name="stand, Show and Speak" xmlns="http://www.w3.org/2000/svg" version="1.1" viewBox="0 0 55 55">
  <defs>
    <style>
      .cls-1 {
        fill: #efefef;
      }

      .cls-1, .cls-2 {
        stroke-width: 0px;
      }

      .cls-2 {
        fill: #645780;
      }
    </style>
  </defs>
  <path class="cls-1" d="M42.062,29.647c-1.725-1.274-4.031-1.298-6.125-1.76-2.228-.492-5.291-2.416-4.285-5.156.519-1.414,1.65-2.312,1.936-3.935.784-4.463-3.236-6.767-7.088-7.284-5.239-.704-9.923,1.564-12.845,6.005-3.107,4.722-3.51,12.286-1.143,17.413,1.567,3.394,4.595,5.972,7.994,7.528,5.261,2.408,11.543,2.477,16.856.185,2.569-1.108,5.007-2.855,6.191-5.391,1.184-2.536.761-5.943-1.49-7.605Z"/>
  <path class="cls-2" d="M21.596,14.053c-.014-.035-.033-.068-.054-.098-.003-.005-.005-.011-.011-.016-.011-.016-.024-.033-.041-.049-.008-.011-.019-.022-.03-.03-.019-.019-.038-.033-.06-.049,0-.003-.003-.003-.003-.003-.022-.014-.044-.024-.065-.035-.016-.008-.035-.016-.052-.019-.016-.005-.03-.011-.046-.014-.019-.005-.038-.008-.06-.011-.003,0-.005-.003-.008-.003-.019-.003-.038-.008-.06-.008-.694,0-1.36-.46-1.581-1.094-.003-.011-.008-.022-.016-.033-.014-.03-.03-.06-.046-.087-.016-.03-.041-.06-.065-.079-.022-.022-.046-.044-.073-.063-.005-.005-.011-.008-.016-.008-.024-.016-.049-.03-.076-.041-.033-.014-.065-.024-.098-.03-.033-.008-.065-.011-.101-.011h-.003c-1.665,0-2.83,1.336-2.83,3.249s1.164,3.251,2.83,3.251,2.83-1.336,2.83-3.251c0-.531-.09-1.026-.264-1.469ZM19.03,17.732c-1.322,0-1.79-1.189-1.79-2.209,0-.931.392-2.005,1.469-2.182.403.74,1.162,1.265,2.013,1.39.065.245.095.509.095.792,0,1.02-.468,2.209-1.788,2.209ZM19.259,12.326c-.008-.005-.019-.008-.027-.011.027.011.052.024.076.041-.014-.014-.033-.022-.049-.03ZM23.384,18.007c-.253.324-.634.517-1.045.533-.073.003-.144.008-.22.016-.019.003-.041.003-.057.003-.267,0-.487-.199-.517-.46-.016-.139.024-.275.109-.384.087-.109.21-.177.348-.193.101-.011.199-.016.297-.022.106-.003.201-.052.267-.133.03-.041.079-.122.057-.234-.139-.688-.144-1.483-.147-2.062,0-.155,0-.297-.003-.416-.046-1.807-.92-2.772-2.593-2.868l-1.132-.011h-.003c-1.211,0-3.042.765-3.113,2.881l-.008.31c-.016.582-.035,1.374-.174,2.081-.022.103.003.207.065.283.033.038.103.103.22.106.152,0,.307.008.454.024.283.033.49.291.457.577-.016.141-.087.267-.199.354-.109.084-.242.12-.381.103-.109-.014-.223-.019-.337-.019-.397-.003-.767-.18-1.018-.487-.261-.318-.365-.735-.283-1.143.122-.623.141-1.363.152-1.905l.011-.321c.095-2.832,2.585-3.888,4.133-3.888h.033l1.156.014c1.311.076,3.518.677,3.597,3.88.003.128.003.275.005.435.003.571.005,1.276.125,1.864.076.381-.019.775-.258,1.08ZM27.005,19.616c.208.183.243.491.071.708-.981,1.235-2.189,2.253-3.532,2.909v.468c0,.318-.285.567-.61.512-.254-.043-.429-.283-.429-.541v-.771c0-.207.12-.395.307-.476,1.326-.585,2.515-1.549,3.465-2.744.177-.223.507-.262.719-.073.003.002.005.005.008.007ZM29.963,27.535c-1.641,0-2.976-1.335-2.976-2.976s1.336-2.976,2.976-2.976,2.977,1.335,2.977,2.976-1.336,2.976-2.977,2.976ZM29.963,22.632c-1.062,0-1.926.864-1.926,1.926s.863,1.926,1.926,1.926,1.927-.864,1.927-1.926-.864-1.926-1.927-1.926ZM21.692,26.384c-.231,0-.442-.153-.506-.387l-.413-1.513c-.077-.28.088-.568.368-.645.28-.077.568.088.645.368l.413,1.513c.077.28-.088.568-.368.645-.046.013-.093.019-.139.019ZM23.832,26.655c-.088,0-.178-.022-.26-.069-.252-.144-.339-.464-.196-.716l.777-1.361c.145-.252.466-.339.716-.196.252.144.339.464.196.716l-.777,1.361c-.097.17-.274.265-.457.265ZM19.987,27.705c-.088,0-.178-.022-.26-.069l-1.361-.777c-.252-.144-.339-.464-.196-.716.145-.252.466-.339.716-.196l1.361.777c.252.144.339.464.196.716-.097.17-.274.265-.457.265ZM25.673,18.193c-.535.715-1.185,1.347-1.935,1.865-1.314.906-2.661.909-4.217.909h-.492c-1.684,0-3.401-.003-4.734-.933-1.067-.745-1.932-1.723-2.542-2.842-.145-.266-.025-.6.253-.721h0c.248-.108.535-.005.665.232.533.974,1.288,1.826,2.22,2.476,1.064.743,2.615.746,4.111.748h.713c1.352,0,2.435-.035,3.436-.726.661-.455,1.233-1.013,1.702-1.645.145-.194.407-.257.623-.147l.009.005c.289.147.382.52.188.78ZM44.323,38.081c-.29-.044-.566.139-.64.423l-.051.198c-.286,1.116-1.404,1.891-2.715,1.891h-4.887c.476-.514.765-1.17.765-1.886v-1.54c.656-.348,1.132-.901,1.336-1.562l.835-2.71c.234-.751,1.023-1.276,1.918-1.276h3.904c.174,0,.332.068.435.182.098.106.133.242.101.373l-.265,1.022c-.085.329.133.66.47.711h0c.29.044.566-.139.64-.423l.276-1.065c.117-.46-.005-.931-.337-1.292-.324-.356-.803-.56-1.32-.56h-.359c-.084-.131-.174-.261-.278-.416-.547-.816-1.556-1.325-2.634-1.325h-3.167c-1.358,0-2.536.77-2.928,1.91l-.416,1.126c-.128-.022-.258-.033-.392-.033h-.226v-.531c0-1.736-1.6-3.151-3.567-3.151h-1.967c-.639,0-1.254.117-1.815.332-.003-.003-.008-.005-.011-.008l-1.649-1.037c-.34-.212-.778-.239-1.145-.073-.381.171-.615.514-.615.895v1.341c0,.272.12.528.343.724l.593.503-.618,1.243-.395-1.154-.101-.297-.101-.294-.201-.588c-.038-.114-.117-.215-.223-.28l-.215-.133-.101-.065-.098-.06-1.532-.96c-.337-.212-.775-.242-1.145-.076-.381.171-.615.514-.615.898v1.339c0,.272.117.528.335.718l1.301,1.14.588,3.877c.147.952,1.075,1.673,2.158,1.673.522,0,1.028-.166,1.426-.471l1.007-.773v1.366l-4.179-.003c-.754,0-1.456.299-1.929.816-.482.525-.661,1.205-.492,1.869l.265,1.046c.081.319.414.505.728.405h0c.289-.092.457-.393.382-.686l-.254-1.004c-.084-.335.008-.683.256-.952.253-.278.634-.438,1.045-.438h4.753c.15,0,.291-.052.4-.147.114-.101.177-.237.177-.381v-5.044c0-.291-.258-.528-.577-.528-.316,0-.574.237-.574.528v1.777l-1.747,1.341c-.19.144-.433.226-.686.226-.514,0-.95-.329-1.018-.767l-.615-4.057c-.019-.117-.079-.226-.171-.307l-1.426-1.252v-1.238l1.739,1.091,1.121,3.281-.122.248c-.063.125-.068.267-.016.397.054.139.169.25.316.307.071.027.147.041.226.041.226,0,.43-.122.522-.307l1.57-3.151c.522-1.118,1.755-1.839,3.137-1.839h1.967c1.333,0,2.416.941,2.416,2.098v.531h-3.031c-1.203,0-2.179.865-2.179,1.932v3.518c0,2.217-4.342,3.352-4.386,3.363-.022.005-.044.014-.065.022h-.473c-.174,0-.337.071-.446.193-.114.131-.158.305-.112.465l1.192,4.182c.065.231.294.395.558.395.041,0,.087-.005.133-.014.158-.035.294-.131.373-.261.071-.117.087-.256.052-.386l-1.004-3.521h2.22l.955,3.774c.06.242.291.408.56.408.038,0,.079-.003.12-.011.158-.033.297-.122.378-.25.073-.117.095-.253.063-.386l-.906-3.575h1.771l1.091,3.828c.065.231.294.395.555.395.044,0,.09-.005.136-.014.158-.035.294-.131.37-.261.073-.117.09-.256.052-.386l-1.012-3.562h3.235c.147,0,.294-.008.438-.027h.397l.936,3.698c.06.239.291.405.56.405.038,0,.076-.003.122-.008.158-.033.297-.125.375-.253.073-.117.098-.253.063-.384l-.873-3.458h1.815l1.056,3.711c.068.231.297.392.558.392.049,0,.092-.003.136-.014.158-.033.291-.128.37-.258.071-.117.09-.256.052-.386l-.982-3.445h2.457c1.847,0,3.425-1.113,3.836-2.702l.04-.155c.085-.329-.133-.66-.47-.711h0ZM36.517,31.064c.245-.71.979-1.186,1.834-1.186h3.167c.618,0,1.197.261,1.551.688h-2.185c-1.409,0-2.653.841-3.026,2.041l-.835,2.71c-.049.158-.125.307-.229.443v-2c0-.577-.286-1.096-.74-1.447l.463-1.249ZM25.122,29.867l-.351-.297v-1.238l1.178.74c-.313.229-.593.495-.827.794ZM35.641,38.707c0,.95-.797,1.739-1.842,1.888-.024,0-.049.003-.071.008-.095.014-.193.019-.291.019h-6.859c1.309-.707,2.601-1.798,2.601-3.344v-3.518c0-.484.46-.879,1.028-.879h4.408c.177,0,.343.038.487.106.321.15.539.441.539.773v4.946ZM21.445,43.925l.333,1.317c.033.131.011.267-.063.384-.082.128-.22.22-.378.25-.041.008-.082.011-.12.011-.269,0-.501-.166-.56-.408l-.322-1.273c-.074-.294.093-.595.382-.686h0c.314-.099.647.086.728.405ZM45.556,35.849l-.149.576c-.074.284-.35.467-.64.423h0c-.337-.051-.555-.381-.47-.711l.149-.576c.074-.284.35-.467.64-.423h0c.337.051.555.381.47.711ZM14.543,28.914l-.016-5.68c-3.123-1.526-5.531-4.987-6.002-8.639-.063-.479.087-.958.403-1.32.318-.362.778-.569,1.257-.569.838,0,1.548.623,1.654,1.447.014.106.03.212.048.318.042.238-.082.473-.303.569h0c-.308.134-.661-.055-.719-.385-.022-.123-.041-.247-.057-.371-.041-.307-.307-.539-.623-.539-.182,0-.354.076-.473.215-.122.139-.177.321-.155.501.446,3.455,2.734,6.655,5.697,7.964.188.082.31.267.31.473l.019,6.012c0,.288-.232.522-.52.522h0c-.287,0-.519-.232-.52-.518ZM15.072,31.319c.287,0,.52.232.52.519l.01,3.206c0,.286-.231.522-.517.522-.288,0-.522-.231-.525-.517l-.009-3.209c0-.288.232-.522.52-.522h0ZM41.736,24.489l.008-.008c.3-.3.813-.135.882.284.043.259.051.528.021.805-.149,1.359-1.237,2.466-2.595,2.628-1.932.231-3.56-1.404-3.316-3.339.169-1.335,1.251-2.407,2.587-2.569.562-.068,1.097.023,1.567.234.332.148.406.589.149.847h0c-.151.151-.379.197-.574.111-.341-.151-.734-.206-1.144-.129-.774.144-1.393.771-1.528,1.547-.228,1.308.872,2.436,2.174,2.252.739-.104,1.362-.647,1.569-1.364.083-.288.096-.569.056-.832-.026-.17.022-.343.143-.465ZM40.091,17.182c-.151,1.046-.971,1.872-1.994,2.007-1.505.199-3.058.298-4.645.298-1.613,0-3.263-.103-4.939-.308-1.046-.128-1.88-.958-2.029-2.018l-.048-.351-.89-.006c-.497-.037-.919-.347-1.104-.808s-.093-.978.24-1.347l1.533-1.699c.086-.096.139-.212.151-.338.031-.307.079-.771.136-1.255.13-1.106,1.023-1.976,2.122-2.067.433-.036.867-.065,1.303-.09.3-.017.553.224.553.525h0c0,.279-.218.508-.497.524-.425.024-.85.053-1.272.088-.604.05-1.094.532-1.166,1.145-.057.477-.104.934-.134,1.235-.034.35-.178.674-.416.938l-1.533,1.699c-.091.102-.062.21-.045.253.017.042.071.142.208.152l.957.071c.458.033.835.388.896.843l.047.346c.083.588.542,1.049,1.117,1.12,3.236.397,6.371.4,9.318.011.559-.074,1.008-.533,1.092-1.117.249-1.718.243-3.582-.018-5.54-.082-.617-.58-1.101-1.184-1.15-1.819-.15-3.641-.21-5.45-.183-.293.004-.534-.23-.534-.523h0c0-.287.229-.522.516-.526,1.844-.028,3.701.033,5.554.186,1.093.09,1.993.956,2.139,2.059.273,2.054.278,4.015.016,5.829Z"/>
  <path class="cls-2" d="M29.498,15.788h-.434c-.29,0-.525-.235-.525-.525s.235-.525.525-.525h.434c.29,0,.525.235.525.525s-.235.525-.525.525Z"/>
  <path class="cls-2" d="M35.088,15.788h-.434c-.29,0-.525-.235-.525-.525s.235-.525.525-.525h.434c.29,0,.525.235.525.525s-.235.525-.525.525Z"/>
  <path class="cls-2" d="M37.215,15.788h-.434c-.29,0-.525-.235-.525-.525s.235-.525.525-.525h.434c.29,0,.525.235.525.525s-.235.525-.525.525Z"/>
  <path class="cls-2" d="M32.96,15.788h-1.77c-.29,0-.525-.235-.525-.525s.235-.525.525-.525h1.77c.29,0,.525.235.525.525s-.235.525-.525.525Z"/>
</svg>