<?xml version="1.0" encoding="UTF-8"?>
<svg id="Reading" xmlns="http://www.w3.org/2000/svg" version="1.1" viewBox="0 0 55 55">
  <defs>
    <style>
      .cls-1 {
        fill: #efefef;
      }

      .cls-1, .cls-2 {
        stroke-width: 0px;
      }

      .cls-2 {
        fill: #645780;
      }
    </style>
  </defs>
  <path class="cls-1" d="M44.19,24.494c-.333-.38-.696-.721-1.089-1.009-2.531-1.857-6.331-1.777-7.874-4.979-1.236-2.564.156-5.523-.996-8.082-1.214-2.697-4.695-4.107-7.509-3.777-3.902.458-5.531,3.595-6.949,6.825-1.059,2.413-2.659,4.359-4.458,6.25-1.913,2.01-4.416,3.445-5.951,5.85-1.377,2.158-1.847,5.098-.471,7.257,1.926,3.023,5.774,2.95,8.628,4.542,3.006,1.676,3.333,5.181,5.498,7.576,2.872,3.177,7.777,4.178,11.797,2.941,6.001-1.847,12.032-8.869,12.116-15.264.034-2.602-.877-5.996-2.743-8.129Z"/>
  <g>
    <path class="cls-2" d="M25.642,10.488c.136.079.136.275,0,.354l-.677.391h0c-.159.092-.281.235-.346.407l-.132.344-.337.882c-.059.154-.276.154-.335,0l-.337-.882-.132-.344c-.065-.171-.188-.315-.346-.407h0s-.677-.391-.677-.391c-.136-.079-.136-.275,0-.354l.677-.391h0c.159-.092.281-.235.346-.406l.132-.344.337-.882c.059-.154.276-.154.335,0l.337.882.132.344c.065.171.188.314.346.406h0s.677.392.677.392Z"/>
    <path class="cls-2" d="M28.895,16.187c-.103,0-.194-.062-.231-.159l-.297-.776c-.03-.079-.087-.146-.161-.189l-.428-.247c-.082-.048-.132-.133-.132-.228,0-.095.049-.18.132-.228l.428-.248c.074-.043.131-.11.161-.189l.297-.776c.037-.097.128-.159.231-.159s.194.062.231.159l.297.775c.03.079.087.146.161.189l.429.248c.082.048.132.133.132.228s-.049.18-.132.228l-.428.247c-.074.043-.131.11-.161.189l-.297.776c-.037.097-.128.159-.231.159Z"/>
    <path class="cls-2" d="M20.911,18.436c-.103,0-.194-.062-.231-.159l-.297-.776c-.03-.079-.087-.146-.161-.189l-.428-.247c-.082-.048-.132-.133-.132-.228,0-.095.049-.18.132-.228l.428-.248c.074-.043.131-.11.161-.189l.297-.776c.037-.097.128-.159.231-.159s.194.062.231.159l.297.775c.03.079.087.146.161.189l.429.248c.082.048.132.133.132.228s-.049.18-.132.228l-.428.247c-.074.043-.131.11-.161.189l-.297.776c-.037.097-.128.159-.231.159Z"/>
    <circle class="cls-2" cx="18.563" cy="11.951" r=".498"/>
    <circle class="cls-2" cx="15.984" cy="14.142" r=".498"/>
    <circle class="cls-2" cx="31.226" cy="10.534" r=".498"/>
    <g>
      <path class="cls-2" d="M29.52,47.945c-.933,0-1.963-.398-3.15-1.217l-2.673-1.569c-.103-.061-.177-.161-.204-.275-.026-.11-.008-.223.053-.315.006-.01.053-.091.058-.101.087-.161.247-.265.415-.265.071,0,.14.019.204.057l2.681,1.572c1.038.718,1.908,1.069,2.623,1.069.176,0,.345-.021.503-.063.693-.182,1.27-.77,1.765-1.796l4.38-9.266c.085-.179.267-.295.465-.295.066,0,.131.013.193.038.151.062.251.162.302.292.051.131.046.273-.014.4l-4.386,9.278c-.628,1.302-1.449,2.096-2.44,2.355-.223.06-.456.092-.693.099h-.082Z"/>
      <path class="cls-2" d="M37.479,34.766c-.076,0-.15-.018-.219-.051-.275-.131-.383-.433-.265-.686l.634-1.323c.093-.197.291-.329.493-.329.038,0,.076.005.113.014.158.041.283.142.351.285.066.141.066.303,0,.443l-.648,1.354c-.083.178-.264.293-.46.293h0Z"/>
      <path class="cls-2" d="M14.202,39.508c-.09,0-.179-.024-.258-.07l-2.831-1.66c-.227-.134-.319-.416-.214-.657l5.263-12.109c.077-.176.246-.285.442-.285.064,0,.128.012.189.036.178.067.276.161.328.283.051.122.051.255-.002.377l-4.957,11.405c-.071.162-.009.352.144.441l2.164,1.27c.236.139.323.443.192.68-.1.188-.271.29-.46.29h0Z"/>
      <path class="cls-2" d="M37.31,31.163c-.723,0-1.442-.173-2.082-.511-.919-.485-1.62-1.298-2.531-1.814-.496-.281-.991-.564-1.486-.846l-4.081-2.325-7.255-4.132-.516-.294c-.053-.03-.113-.046-.173-.046-.037,0-.075.006-.111.018-.094.031-.17.102-.21.192l-.412.949c-.081.187-.265.307-.467.307-.069,0-.136-.014-.201-.042-.148-.063-.244-.163-.294-.289-.05-.127-.048-.266.006-.391l.799-1.838c.059-.135.173-.24.313-.287.053-.018.108-.027.165-.027.09,0,.179.024.258.068,1.633.93,3.266,1.86,4.899,2.79,2.702,1.539,5.405,3.079,8.107,4.618.977.557,1.961.964,2.759,1.776.664.675,1.561,1.08,2.511,1.08.58,0,1.048-.141,1.274-.225.861-.318,1.478-.934,1.464-1.464l.119-15.307c.002-.286.237-.518.524-.518.14,0,.27.056.368.155.097.099.15.23.149.369l-.119,15.278c.017.996-.845,1.983-2.145,2.463-.515.19-1.079.291-1.633.291Z"/>
      <path class="cls-2" d="M21.247,43.649c-.078,0-.154-.021-.22-.059l-4.829-2.822c-.24-.141-.319-.447-.182-.698.093-.177.258-.272.442-.272.093,0,.185.025.266.072l4.82,2.815c.199.117.255.375.129.6-.027.051-.05.097-.07.145-.068.162-.229.22-.356.22Z"/>
      <path class="cls-2" d="M29.662,39.803c-.08,0-.157-.018-.229-.053-.258-.125-.367-.438-.242-.696,1.04-2.145,2.249-4.684,3.329-7.248.082-.193.271-.319.48-.319.069,0,.137.014.201.041.265.111.39.418.278.683-1.086,2.579-2.304,5.137-3.352,7.299-.085.176-.26.289-.456.294h-.011Z"/>
      <path class="cls-2" d="M27.524,44.199c-.08,0-.157-.018-.229-.053-.125-.061-.22-.166-.266-.297-.045-.132-.038-.273.023-.398.181-.374.318-.645.459-.92.125-.244.25-.492.411-.822.088-.181.268-.293.468-.293.079,0,.156.019.228.054.125.062.219.167.265.299.045.132.037.272-.024.397-.154.315-.277.558-.396.791-.162.318-.296.582-.473.947-.085.176-.26.289-.457.295h-.01Z"/>
      <path class="cls-2" d="M36.036,28.098c-.228,0-.419-.177-.436-.402-.248-3.359-2.434-4.444-4.748-5.593-1.815-.9-3.691-1.832-4.638-3.891-.057-.125-.181-.204-.324-.204-.139.002-.264.087-.317.215-.356.853-.523,1.621-.494,2.282.01.232-.126.491-.383.525-.286,0-.473-.179-.488-.406-.107-1.696.731-3.252,1.586-4.655.086-.141.189-.336.346-.408.278-.126.416.279.436.481.024.236-.022.477.021.711.059.32.157.633.291.93.261.582.656,1.095,1.112,1.537.929.901,2.09,1.527,3.24,2.097,2.432,1.207,4.946,2.455,5.232,6.306.009.121-.029.237-.107.327-.075.086-.179.138-.292.145h-.038Z"/>
      <path class="cls-2" d="M38.299,27.887c-.22-.024-.388-.232-.378-.472.095-2.393-1.027-3.806-2.215-5.302-1.278-1.609-2.599-3.271-2.555-6.187.003-.144-.084-.275-.217-.329-.043-.018-.088-.026-.133-.026-.094,0-.186.038-.253.108-.71.743-1.177,1.23-1.298,2.83-.018.247-.215.446-.438.446-.129-.002-.242-.052-.324-.142-.083-.09-.123-.206-.114-.327.072-.993.265-1.999.875-2.811.378-.504.866-.909,1.377-1.27.284-.201,1.148-.99,1.514-.797.407.214-.012,1.016-.051,1.332-.05.393-.074.79-.068,1.187.012.78.145,1.557.409,2.292.398,1.106,1.091,2.052,1.813,2.965.049.062.098.124.147.185,1.239,1.561,2.52,3.173,2.404,5.902-.009.222-.183.401-.403.418h-.032s-.061-.002-.061-.002Z"/>
      <path class="cls-2" d="M38.323,20.816c-.15,0-.289-.076-.37-.203-1.271-1.992-1.233-3.185-1.04-5.483.014-.162-.087-.312-.242-.362-.035-.012-.071-.017-.107-.017-.121,0-.236.062-.301.169-.081.134-.222.214-.377.214-.088,0-.174-.027-.247-.077-.198-.137-.249-.411-.112-.61.278-.406.621-.806,1.011-1.128.294-.243.939-.783,1.355-.559.461.248.015,1.211-.033,1.587-.301,2.32-.483,3.72.823,5.782.122.192.088.45-.079.586-.07.058-.15.091-.237.1l-.042.002Z"/>
    </g>
  </g>
</svg>