<?xml version="1.0" encoding="UTF-8"?>
<svg id="throwing" xmlns="http://www.w3.org/2000/svg" version="1.1" viewBox="0 0 55 55">
  <defs>
    <style>
      .cls-1 {
        fill: #efefef;
      }

      .cls-1, .cls-2 {
        stroke-width: 0px;
      }

      .cls-2 {
        fill: #645780;
      }
    </style>
  </defs>
  <path class="cls-1" d="M37.227,41.183c1.703-2.581,1.569-6.403-1.014-8.37-1.172-.893-2.726-1.35-3.552-2.57-.603-.89-.687-2.108-.211-3.072.844-1.711,3.73-2.474,5.488-2.413,1.868.065,3.785.455,5.574-.085,1.428-.43,2.663-1.461,3.343-2.788,2.705-5.283-3.976-12.586-9.185-12.888-3.622-.21-7.262,2.018-8.723,5.338-.612,1.39-.911,2.999-2.019,4.039-2.24,2.102-5.808.502-8.874.303-4.982-.324-8.857,3.622-10.335,8.039-1.66,4.961,1.65,11.268,5.269,14.592,4.361,4.006,10.639,5.401,16.392,4.389,3.056-.537,6.136-1.925,7.845-4.515Z"/>
  <g>
    <path class="cls-2" d="M45.982,15.505l.333-1.039c.089-.28.465-.326.62-.077l.355.571.534.86c.112.18.036.418-.16.499l-.934.39-.62.259c-.271.113-.55-.143-.46-.423l.333-1.039Z"/>
    <path class="cls-2" d="M17.771,31.233c-.221,0-.444-.05-.652-.15-.507-.245-.832-.746-.848-1.309l-.131-3.104c-.008-.285.217-.523.503-.531.288.01.523.218.531.503l.131,3.103c.007.255.187.369.263.406.077.037.278.106.482-.048l5.102-3.843c.228-.173.551-.126.724.102.172.228.126.552-.102.724l-5.102,3.843c-.266.2-.582.302-.901.302Z"/>
    <path class="cls-2" d="M19.119,27.842c-.266,0-.491-.203-.514-.473l-.25-2.926c-.025-.285.187-.535.471-.559.3-.022.535.187.559.471l.25,2.926c.025.285-.187.535-.471.559-.015.001-.03.002-.045.002Z"/>
    <g>
      <path class="cls-2" d="M31.545,39.005c.259-.126.364-.44.225-.693l-.095-.174c-.246-.504-.692-.897-1.223-1.078l-5.371-1.83c-.918-.313-1.59-1.101-1.754-2.057l-.531-3.106c-.048-.281-.315-.47-.597-.423-.282.048-.471.315-.423.597l.531,3.106c.228,1.33,1.163,2.427,2.44,2.862l5.371,1.83c.273.093.501.294.639.575l.106.194c.13.236.422.326.663.206.006-.003.012-.006.018-.009Z"/>
      <path class="cls-2" d="M36.828,40.858l-2.409-5.437c-.222-.465-.605-.833-1.079-1.037l-4.039-1.735-1.355-7.889c-.126-.734-.558-1.384-1.185-1.785-.627-.4-1.397-.52-2.115-.326l-.769.207c-.682.183-1.305.503-1.852.95l-3.117,2.549c-.221.181-.253.506-.073.727.18.221.506.255.727.073l3.117-2.549c.432-.354.926-.607,1.465-.752l.769-.207c.446-.119.903-.049,1.29.199.388.248.645.635.723,1.089l1.402,8.166c.03.173.145.318.306.388l4.297,1.845c.243.104.439.293.547.519l2.41,5.437c.186.389.203.807.048,1.144-.135.293-.384.495-.721.586-.559.148-1.084-.342-1.366-.919l-.775-1.413c-.129-.236-.421-.326-.662-.206-.006.003-.013.006-.019.009-.26.126-.365.44-.226.693l.763,1.392c.461.945,1.257,1.505,2.08,1.505.157,0,.316-.021.473-.063.634-.17,1.128-.579,1.392-1.152.285-.617.265-1.354-.048-2.009Z"/>
    </g>
    <path class="cls-2" d="M20.306,45.519c-.513,0-1.007-.233-1.401-.695-.337-.395-.493-.858-.452-1.34.046-.541.341-1.064.832-1.472l4.462-3.995.021-.729c.008-.287.267-.511.531-.502.286.008.511.246.502.531l-.027.951c-.004.142-.066.276-.172.371l-4.642,4.155c-.29.242-.455.514-.477.777-.017.203.052.399.208.581.451.53.944.319,1.279.048l5.487-4.166c.458-.371.742-.936.767-1.54l.075-1.809c.012-.285.241-.513.538-.495.285.012.507.252.495.538l-.075,1.809c-.037.9-.461,1.742-1.162,2.31l-5.488,4.166c-.417.338-.867.505-1.302.505Z"/>
    <g>
      <path class="cls-2" d="M35.565,20.192c-.334-.464-.828-.767-1.393-.854-.562-.09-1.127.051-1.586.393l-3.761,2.795c-.229.17-.277.494-.107.723.17.228.494.276.723.107l3.761-2.795c.234-.174.523-.245.811-.201.289.045.542.2.713.437.17.236.237.524.189.811-.048.287-.205.538-.443.705l-.799.565c-.232.164-.282.489-.106.713.007.009.014.018.021.027.158.217.466.257.685.103l.797-.563c.464-.328.772-.818.865-1.379.094-.561-.038-1.124-.371-1.585Z"/>
      <path class="cls-2" d="M32.136,24.647c-.144-.261-.482-.34-.726-.168l-2.09,1.478c-.233.165-.288.488-.124.721.101.142.261.218.423.218.103,0,.207-.031.298-.095l2.087-1.476c.212-.15.27-.435.142-.66-.003-.006-.007-.012-.01-.018Z"/>
    </g>
    <path class="cls-2" d="M24.451,22.25c-1.561,0-2.992-1.042-3.417-2.619-.507-1.883.613-3.828,2.497-4.334.912-.246,1.866-.12,2.684.351.819.472,1.405,1.234,1.65,2.147.506,1.883-.613,3.828-2.497,4.334-.306.083-.614.122-.917.122ZM24.453,16.208c-.218,0-.438.029-.654.087-1.333.359-2.126,1.735-1.767,3.068.359,1.333,1.734,2.126,3.067,1.767,1.333-.359,2.126-1.735,1.767-3.067h0c-.174-.646-.588-1.185-1.167-1.519-.386-.222-.813-.335-1.246-.335Z"/>
    <path class="cls-2" d="M20.307,22.471h0c-.025.836-.374,1.61-.982,2.183-.585.551-1.342.851-2.141.851-.032,0-.064,0-.097-.001-1.724-.052-3.084-1.497-3.033-3.22.052-1.723,1.449-3.09,3.22-3.032.835.025,1.61.374,2.183.982.573.608.874,1.403.85,2.238Z"/>
    <g>
      <path class="cls-2" d="M42.469,13.897s-.008.003-.012.004c-.207.076-.338.286-.312.506.035.29.01.586-.077.874h0c-.045.15-.106.293-.18.427-.086.155-.081.347.017.495.002.004.005.007.007.011.2.31.657.296.837-.027.108-.195.196-.403.262-.621.128-.425.161-.856.111-1.27-.038-.314-.358-.509-.654-.398Z"/>
      <path class="cls-2" d="M41.445,12.518c.196-.24.105-.599-.179-.722-.112-.049-.227-.091-.347-.127-.799-.24-1.644-.157-2.382.239-.737.395-1.274,1.053-1.515,1.853-.088.291-.132.589-.135.885s.268.518.56.467c.01-.002.019-.003.029-.005.229-.038.393-.236.396-.468.003-.199.033-.398.092-.594.165-.548.534-.999,1.038-1.269.316-.17.663-.256,1.012-.256.208,0,.416.03.62.092.077.023.152.051.225.082.203.087.433.023.567-.152.006-.008.012-.015.018-.023Z"/>
      <path class="cls-2" d="M40.456,17.089c-.077-.17-.246-.282-.433-.282-.209,0-.419-.03-.624-.092-.182-.055-.353-.132-.51-.229-.196-.121-.448-.083-.604.086-.002.003-.005.005-.007.008-.226.238-.194.565.085.739.232.144.484.259.753.34.299.09.603.135.907.135.003,0,.006,0,.009,0,.35-.001.578-.37.432-.688-.002-.005-.005-.01-.007-.015Z"/>
    </g>
    <g>
      <path class="cls-2" d="M7.748,34.091c-.212.52-.411,1.047-.596,1.58-.096.276.057.578.338.66.004.001.009.003.013.004.262.077.538-.066.627-.324.179-.516.371-1.025.576-1.528.105-.257-.012-.552-.266-.661-.004-.002-.008-.004-.012-.005-.264-.116-.571.009-.68.276Z"/>
      <path class="cls-2" d="M9.814,32.063c.452-.887.946-1.749,1.478-2.585.143-.225.074-.519-.145-.671-.008-.006-.017-.012-.025-.018-.227-.169-.551-.106-.703.133-.551.865-1.062,1.759-1.531,2.677-.132.259-.008.573.263.679.014.005.027.011.04.016.236.098.507-.004.623-.232Z"/>
      <path class="cls-2" d="M13.29,25.075c-.414.477-.815.967-1.201,1.468-.176.228-.137.562.098.73.003.002.006.004.009.006.224.163.536.125.705-.094.376-.488.766-.965,1.17-1.43.185-.213.165-.54-.052-.721-.003-.002-.006-.005-.008-.007-.214-.183-.536-.164-.721.049Z"/>
      <path class="cls-2" d="M32.158,14.4c-1.18.204-2.339.473-3.472.802-.309.09-.459.442-.308.727.002.003.004.007.005.01.112.217.362.322.597.254,1.093-.317,2.211-.576,3.35-.773.269-.047.456-.296.417-.566-.001-.007-.002-.015-.003-.022-.039-.283-.304-.48-.586-.431Z"/>
      <path class="cls-2" d="M35.674,14.543c0-.01,0-.019,0-.029-.007-.288-.256-.508-.543-.486-.084.007-.169.013-.253.021-.285.024-.493.28-.457.564,0,.007.002.013.002.02.032.27.269.469.54.446.083-.007.167-.014.25-.02.266-.021.47-.248.461-.515Z"/>
      <path class="cls-2" d="M47.022,15.263c-.647-.202-1.302-.384-1.965-.546-.259-.063-.524.085-.604.339-.001.005-.003.009-.004.014-.09.281.077.579.364.649.642.156,1.277.332,1.903.527.273.085.563-.073.639-.348.001-.004.002-.009.004-.013.074-.264-.074-.54-.336-.622Z"/>
    </g>
  </g>
</svg>