<?xml version="1.0" encoding="UTF-8"?>
<svg id="writing" xmlns="http://www.w3.org/2000/svg" version="1.1" viewBox="0 0 55 55">
  <defs>
    <style>
      .cls-1 {
        fill: #efefef;
      }

      .cls-1, .cls-2 {
        stroke-width: 0px;
      }

      .cls-2 {
        fill: #645780;
      }
    </style>
  </defs>
  <g>
    <path class="cls-1" d="M38.025,22.619c-.883-1.44-2.112-2.747-3.324-3.76-4.238-3.541-10.123-4.995-15.459-2.332-5.787,2.889-9.964,9.151-9.544,15.255.227,3.287,1.679,6.569,4.392,8.673s6.757,2.835,9.988,1.4c3.231-1.435,5.21-5.185,3.99-8.268-.318-.804-.832-1.663-.49-2.468,1.16-2.727,5.07.603,6.751.605,1.372.002,2.738-.606,3.603-1.603,2.065-2.381,1.551-5.124.092-7.503Z"/>
    <g>
      <path class="cls-2" d="M23.139,36.571c-.377,0-.72-.263-.856-.654l-1.055-2.91h-5.209l-1.07,2.915c-.145.4-.478.65-.869.65-.526,0-1.089-.385-1.089-.96,0-.193.039-.32.079-.418l3.754-10.291c.204-.558.678-1.223,1.78-1.223.903,0,1.511.411,1.808,1.222l3.757,10.298c.034.085.076.243.076.382,0,.611-.573.989-1.104.989ZM20.548,31.161l-1.861-5.126c-.029-.086-.06-.119-.07-.126-.011.007-.042.04-.067.118l-1.865,5.135h3.863Z"/>
      <path class="cls-2" d="M44.9,15.458l-1.618-1.582c-.73-.714-1.898-.692-2.603.049l-1.81,1.908-1.365,1.439-5.621,5.927-.031.03c-.006.008-.013.016-.019.024h-.002c-.015.018-.031.038-.044.061-.013.02-.025.042-.036.066-.007.02-.015.038-.021.058l-.002.006-1.351,4.493c-.037-.001-.077,0-.116,0-1.345.025-2.351.367-2.987,1.017-.592.589-.961,1.654-.953,2.084.011.6.508.906.993.896.689-.013.824-.452,1.009-1.054.046-.142.522-1.203,1.984-1.23.096-.002.188-.002.275.003.409.016.761-.271.844-.672l4.482-1.44s.008-.002.012-.004c.039-.015.078-.033.113-.058.012-.006.023-.016.035-.025.006-.004.012-.01.017-.014.012-.01.023-.02.033-.031l.006-.006,5.65-5.954.008-.008,1.359-1.435.27-.282c.193-.203.192-.526-.002-.728-.104-.11-.243-.163-.382-.16-.09.002-.18.027-.26.077l-2.795-2.733,1.452-1.531c.31-.327.822-.334,1.142-.021l1.618,1.582c.322.315.332.835.022,1.162l-.108.12c-.181.205-.175.518.013.715.104.11.243.161.38.158s.274-.059.374-.171l.085-.097c.705-.743.682-1.929-.05-2.643ZM32.893,27.411c-.242-.42-.573-.735-.994-.948l.649-2.153,1.612.717.855,1.703-2.122.682ZM35.881,26.149l-.679-1.355,1.327-1.399c.198-.209.192-.54-.014-.741-.206-.201-.532-.195-.73.014l-1.29,1.362-1.386-.614,4.781-5.04,1.02.998-1.456,1.535c-.198.209-.192.54.014.741.102.102.236.149.368.147s.262-.055.362-.16l1.456-1.535,1.02.998-4.793,5.05ZM42.037,19.659l-.647.684-2.785-2.721.649-.684,2.783,2.721Z"/>
    </g>
    <path class="cls-2" d="M25.562,32.617h-1.282c-.29,0-.525-.235-.525-.525s.235-.525.525-.525h1.282c.29,0,.525.235.525.525s-.235.525-.525.525Z"/>
    <path class="cls-2" d="M36.412,32.617h-2.282c-.29,0-.525-.235-.525-.525s.235-.525.525-.525h2.282c.29,0,.525.235.525.525s-.235.525-.525.525Z"/>
    <path class="cls-2" d="M13.037,32.617h-2.282c-.29,0-.525-.235-.525-.525s.235-.525.525-.525h2.282c.29,0,.525.235.525.525s-.235.525-.525.525Z"/>
    <path class="cls-2" d="M25.562,38.161h-6.282c-.29,0-.525-.235-.525-.525s.235-.525.525-.525h6.282c.29,0,.525.235.525.525s-.235.525-.525.525Z"/>
    <path class="cls-2" d="M36.412,38.161h-2.282c-.29,0-.525-.235-.525-.525s.235-.525.525-.525h2.282c.29,0,.525.235.525.525s-.235.525-.525.525Z"/>
    <path class="cls-2" d="M32.042,38.161h-4.401c-.29,0-.525-.235-.525-.525s.235-.525.525-.525h4.401c.29,0,.525.235.525.525s-.235.525-.525.525Z"/>
    <path class="cls-2" d="M14.855,38.161h-4.1c-.29,0-.525-.235-.525-.525s.235-.525.525-.525h4.1c.29,0,.525.235.525.525s-.235.525-.525.525Z"/>
    <path class="cls-2" d="M17.219,38.161h-.301c-.29,0-.525-.235-.525-.525s.235-.525.525-.525h.301c.29,0,.525.235.525.525s-.235.525-.525.525Z"/>
  </g>
  <path class="cls-2" d="M28.401,36.5c-.046,0-.108-.02-.158-.035-.212-.079-.32-.327-.238-.552.066-.161.224-.268.4-.268.052,0,.103.01.152.027.215.08.322.328.24.553-.062.163-.222.274-.396.274ZM29.682,36.45c-.164,0-.317-.104-.39-.262-.091-.217.006-.463.221-.558.056-.025.115-.038.176-.038.168,0,.317.1.38.254.048.108.052.224.011.327-.04.104-.121.187-.229.233-.052.027-.116.043-.169.043ZM33.142,36.39c-.062,0-.107-.01-.161-.032-.055-.028-.103-.053-.139-.088-.04-.042-.071-.089-.086-.133-.028-.067-.034-.128-.034-.167,0-.064.01-.117.029-.156.021-.064.049-.11.091-.153.074-.074.188-.119.305-.119.056,0,.108.011.156.03.056.024.106.057.139.089.041.042.073.091.099.148.015.048.032.106.032.161,0,.043-.018.104-.034.164-.023.046-.059.097-.098.136-.031.031-.083.063-.139.088-.044.022-.096.032-.16.032ZM30.812,35.75c-.131,0-.252-.06-.331-.162-.144-.185-.115-.454.064-.602.074-.058.166-.09.262-.09.132,0,.255.06.336.164.146.179.111.448-.074.602-.068.054-.168.088-.257.088ZM27.372,35.69c-.148,0-.271-.062-.348-.176-.068-.097-.094-.211-.072-.324.021-.11.082-.205.175-.267.072-.054.154-.08.24-.08.14,0,.271.068.353.185.128.191.081.452-.107.592-.064.043-.154.07-.24.07ZM32.892,35.08c-.205,0-.39-.161-.421-.365-.033-.232.124-.446.358-.487h.009c.268,0,.438.147.475.358.032.234-.121.444-.357.484l-.063.01ZM31.781,34.84c-.113,0-.205-.036-.279-.11-.087-.077-.136-.176-.143-.284-.007-.116.034-.229.116-.318l.041-.046c.077-.059.172-.091.268-.091.107,0,.21.04.29.113.168.152.179.427.023.599-.077.085-.199.138-.316.138ZM26.892,34.46c-.203,0-.379-.149-.411-.347-.02-.12.005-.229.068-.32.066-.093.165-.155.279-.175h.017c.261,0,.433.15.468.349.021.11-.005.224-.071.317-.064.093-.159.154-.269.176h-.081ZM32.722,33.75c-.224,0-.404-.163-.421-.379-.023-.233.146-.448.371-.472h.005c.263,0,.443.163.465.38.012.114-.021.226-.093.314-.071.088-.171.143-.283.156h-.044ZM26.802,33.14c-.228-.024-.395-.227-.37-.46l.01-.098c.058-.174.215-.295.396-.295.276.018.45.226.435.466-.017.216-.201.387-.421.387h-.05ZM32.622,32.41c-.226,0-.415-.179-.431-.407-.008-.23.176-.427.417-.444.236,0,.426.182.434.403.008.115-.03.224-.106.308-.077.086-.183.136-.296.141h-.018ZM32.592,31.08c-.214-.009-.388-.17-.416-.379l.006-.062c0-.227.185-.411.412-.411.13,0,.234.045.312.125.078.081.12.188.116.303l-.004.093c-.047.191-.216.331-.417.331h-.01ZM32.672,29.74c-.055,0-.113-.018-.169-.035-.05-.022-.089-.055-.131-.096-.041-.042-.074-.083-.099-.14-.014-.04-.032-.103-.032-.16,0-.05.014-.096.031-.153.027-.059.062-.108.1-.146.073-.078.18-.121.296-.121.058,0,.114.012.165.032.05.018.097.049.139.09.04.039.07.087.085.13.025.062.035.106.035.169,0,.064-.011.116-.03.155-.02.065-.049.102-.091.145-.038.038-.089.073-.144.102-.039.011-.1.029-.155.029Z"/>
</svg>